solid 2020 wire clip
facet normal -0.0 0.0 -1.0
outer loop
vertex 6.42456645159583 13.2999999999891 2.8199664825479e-015
vertex 6.4245664515464 6.4999999999891 2.8199664825479e-015
vertex 6.0920503338922 13.832516117699 2.8199664825479e-015
endloop
endfacet
facet normal -0.0 0.0 -1.0
outer loop
vertex 6.01035288923874 15.4999999999921 2.8199664825479e-015
vertex 4.92456645152458 3.50000000000001 2.8199664825479e-015
vertex 4.42456645160029 13.9142135623767 2.8199664825479e-015
endloop
endfacet
facet normal -0.0 0.0 -1.0
outer loop
vertex 4.92456645152458 3.50000000000001 2.8199664825479e-015
vertex 6.01035288923874 15.4999999999921 2.8199664825479e-015
vertex 6.4245664515464 6.4999999999891 2.8199664825479e-015
endloop
endfacet
facet normal -0.0 0.0 -1.0
outer loop
vertex 4.92456645152458 3.50000000000001 2.8199664825479e-015
vertex 6.4245664515464 6.4999999999891 2.8199664825479e-015
vertex 6.92456645152458 3.49999999998547 2.8199664825479e-015
endloop
endfacet
facet normal -0.0 0.0 -1.0
outer loop
vertex 6.4245664515464 6.4999999999891 2.8199664825479e-015
vertex 6.01035288923874 15.4999999999921 2.8199664825479e-015
vertex 6.0920503338922 13.832516117699 2.8199664825479e-015
endloop
endfacet
facet normal -0.0 0.0 -1.0
outer loop
vertex 6.92456645152458 3.49999999998547 2.8199664825479e-015
vertex 6.4245664515464 6.4999999999891 2.8199664825479e-015
vertex 7.23400149098474 6.0120340511902 2.8199664825479e-015
endloop
endfacet
facet normal -0.0 0.0 -1.0
outer loop
vertex 6.92456645152458 3.49999999998547 2.8199664825479e-015
vertex 7.23400149098474 6.0120340511902 2.8199664825479e-015
vertex 7.53198901896092 4.2241088832529 2.8199664825479e-015
endloop
endfacet
facet normal -0.0 0.0 -1.0
outer loop
vertex 7.53198901896092 4.2241088832529 2.8199664825479e-015
vertex 7.23400149098474 6.0120340511902 2.8199664825479e-015
vertex 7.64753942450964 5.16216216214237 2.8199664825479e-015
endloop
endfacet
facet normal -0.0 0.0 -1.0
outer loop
vertex 26.8387800139849 15.4999999998407 2.8199664825479e-015
vertex 6.0920503338922 13.832516117699 2.8199664825479e-015
vertex 6.01035288923874 15.4999999999921 2.8199664825479e-015
endloop
endfacet
facet normal -0.0 0.0 -1.0
outer loop
vertex 6.0920503338922 13.832516117699 2.8199664825479e-015
vertex 26.8387800139849 15.4999999998407 2.8199664825479e-015
vertex 6.62456645159729 13.4999999999876 2.8199664825479e-015
endloop
endfacet
facet normal -0.0 0.0 -1.0
outer loop
vertex 6.62456645159729 13.4999999999876 2.8199664825479e-015
vertex 26.8387800139849 15.4999999998407 2.8199664825479e-015
vertex 26.2245664515973 13.4999999998451 2.8199664825479e-015
endloop
endfacet
facet normal -0.0 0.0 -1.0
outer loop
vertex 26.2245664515973 13.4999999998451 2.8199664825479e-015
vertex 26.8387800139849 15.4999999998407 2.8199664825479e-015
vertex 26.7570825693072 13.8325161175488 2.8199664825479e-015
endloop
endfacet
facet normal -0.0 0.0 -1.0
outer loop
vertex 25.6151314121009 6.01203405105655 2.8199664825479e-015
vertex 25.3171438840987 4.22410888312359 2.8199664825479e-015
vertex 25.2015934785637 5.16216216201474 2.8199664825479e-015
endloop
endfacet
facet normal -0.0 0.0 -1.0
outer loop
vertex 25.3171438840987 4.22410888312359 2.8199664825479e-015
vertex 25.6151314121009 6.01203405105655 2.8199664825479e-015
vertex 25.9245664515245 3.49999999984732 2.8199664825479e-015
endloop
endfacet
facet normal -0.0 0.0 -1.0
outer loop
vertex 25.9245664515245 3.49999999984732 2.8199664825479e-015
vertex 25.6151314121009 6.01203405105655 2.8199664825479e-015
vertex 26.4245664515464 6.49999999984368 2.8199664825479e-015
endloop
endfacet
facet normal -0.0 0.0 -1.0
outer loop
vertex 25.9245664515245 3.49999999984732 2.8199664825479e-015
vertex 26.4245664515464 6.49999999984368 2.8199664825479e-015
vertex 27.9245664515246 3.49999999983278 2.8199664825479e-015
endloop
endfacet
facet normal -0.0 0.0 -1.0
outer loop
vertex 27.9245664515246 3.49999999983278 2.8199664825479e-015
vertex 26.4245664515464 6.49999999984368 2.8199664825479e-015
vertex 26.4245664515958 13.2999999998437 2.8199664825479e-015
endloop
endfacet
facet normal -0.0 0.0 -1.0
outer loop
vertex 27.9245664515246 3.49999999983278 2.8199664825479e-015
vertex 26.4245664515958 13.2999999998437 2.8199664825479e-015
vertex 26.7570825693072 13.8325161175488 2.8199664825479e-015
endloop
endfacet
facet normal -0.0 0.0 -1.0
outer loop
vertex 27.9245664515246 3.49999999983278 2.8199664825479e-015
vertex 26.7570825693072 13.8325161175488 2.8199664825479e-015
vertex 26.8387800139849 15.4999999998407 2.8199664825479e-015
endloop
endfacet
facet normal -0.0 0.0 -1.0
outer loop
vertex 27.9245664515246 3.49999999983278 2.8199664825479e-015
vertex 26.8387800139849 15.4999999998407 2.8199664825479e-015
vertex 28.4245664516003 13.9142135622022 2.8199664825479e-015
endloop
endfacet
facet normal 0.0 0.0 1.0
outer loop
vertex 4.92456645152458 3.50000000000001 4.0
vertex 6.01035288923874 15.4999999999921 4.0
vertex 4.42456645160029 13.9142135623767 4.0
endloop
endfacet
facet normal 0.0 0.0 1.0
outer loop
vertex 6.01035288923874 15.4999999999921 4.0
vertex 4.92456645152458 3.50000000000001 4.0
vertex 6.4245664515464 6.4999999999891 4.0
endloop
endfacet
facet normal 0.0 0.0 1.0
outer loop
vertex 6.4245664515464 6.4999999999891 4.0
vertex 4.92456645152458 3.50000000000001 4.0
vertex 6.92456645152458 3.49999999998547 4.0
endloop
endfacet
facet normal 0.0 0.0 1.0
outer loop
vertex 6.01035288923874 15.4999999999921 4.0
vertex 6.4245664515464 6.4999999999891 4.0
vertex 6.0920503338922 13.832516117699 4.0
endloop
endfacet
facet normal 0.0 0.0 1.0
outer loop
vertex 6.4245664515464 6.4999999999891 4.0
vertex 6.92456645152458 3.49999999998547 4.0
vertex 7.23400149098474 6.0120340511902 4.0
endloop
endfacet
facet normal 0.0 0.0 1.0
outer loop
vertex 7.23400149098474 6.0120340511902 4.0
vertex 6.92456645152458 3.49999999998547 4.0
vertex 7.53198901896092 4.2241088832529 4.0
endloop
endfacet
facet normal 0.0 0.0 1.0
outer loop
vertex 7.23400149098474 6.0120340511902 4.0
vertex 7.53198901896092 4.2241088832529 4.0
vertex 7.64753942450964 5.16216216214237 4.0
endloop
endfacet
facet normal 0.0 0.0 1.0
outer loop
vertex 6.42456645159583 13.2999999999891 4.0
vertex 6.0920503338922 13.832516117699 4.0
vertex 6.4245664515464 6.4999999999891 4.0
endloop
endfacet
facet normal 0.0 0.0 1.0
outer loop
vertex 25.3171438840987 4.22410888312359 4.0
vertex 25.6151314121009 6.01203405105655 4.0
vertex 25.2015934785637 5.16216216201474 4.0
endloop
endfacet
facet normal 0.0 0.0 1.0
outer loop
vertex 25.6151314121009 6.01203405105655 4.0
vertex 25.3171438840987 4.22410888312359 4.0
vertex 25.9245664515245 3.49999999984732 4.0
endloop
endfacet
facet normal 0.0 0.0 1.0
outer loop
vertex 25.6151314121009 6.01203405105655 4.0
vertex 25.9245664515245 3.49999999984732 4.0
vertex 26.4245664515464 6.49999999984368 4.0
endloop
endfacet
facet normal 0.0 0.0 1.0
outer loop
vertex 26.4245664515464 6.49999999984368 4.0
vertex 25.9245664515245 3.49999999984732 4.0
vertex 27.9245664515246 3.49999999983278 4.0
endloop
endfacet
facet normal 0.0 0.0 1.0
outer loop
vertex 26.4245664515464 6.49999999984368 4.0
vertex 27.9245664515246 3.49999999983278 4.0
vertex 26.4245664515958 13.2999999998437 4.0
endloop
endfacet
facet normal 0.0 0.0 1.0
outer loop
vertex 26.4245664515958 13.2999999998437 4.0
vertex 27.9245664515246 3.49999999983278 4.0
vertex 26.7570825693072 13.8325161175488 4.0
endloop
endfacet
facet normal 0.0 0.0 1.0
outer loop
vertex 26.7570825693072 13.8325161175488 4.0
vertex 27.9245664515246 3.49999999983278 4.0
vertex 26.8387800139849 15.4999999998407 4.0
endloop
endfacet
facet normal 0.0 0.0 1.0
outer loop
vertex 26.8387800139849 15.4999999998407 4.0
vertex 27.9245664515246 3.49999999983278 4.0
vertex 28.4245664516003 13.9142135622022 4.0
endloop
endfacet
facet normal 0.0 0.0 1.0
outer loop
vertex 6.0920503338922 13.832516117699 4.0
vertex 26.8387800139849 15.4999999998407 4.0
vertex 6.01035288923874 15.4999999999921 4.0
endloop
endfacet
facet normal 0.0 0.0 1.0
outer loop
vertex 26.8387800139849 15.4999999998407 4.0
vertex 6.0920503338922 13.832516117699 4.0
vertex 6.62456645159729 13.4999999999876 4.0
endloop
endfacet
facet normal 0.0 0.0 1.0
outer loop
vertex 26.8387800139849 15.4999999998407 4.0
vertex 6.62456645159729 13.4999999999876 4.0
vertex 26.2245664515973 13.4999999998451 4.0
endloop
endfacet
facet normal 0.0 0.0 1.0
outer loop
vertex 26.8387800139849 15.4999999998407 4.0
vertex 26.2245664515973 13.4999999998451 4.0
vertex 26.7570825693072 13.8325161175488 4.0
endloop
endfacet
facet normal -0.707106781181403 0.707106781191692 0.0
outer loop
vertex 4.42456645160029 13.9142135623767 4.0
vertex 6.01035288923874 15.4999999999921 2.8199664825479e-015
vertex 4.42456645160029 13.9142135623767 2.8199664825479e-015
endloop
endfacet
facet normal -0.707106781181403 0.707106781191692 0.0
outer loop
vertex 6.01035288923874 15.4999999999921 2.8199664825479e-015
vertex 4.42456645160029 13.9142135623767 4.0
vertex 6.01035288923874 15.4999999999921 4.0
endloop
endfacet
facet normal 7.27087834384577e-012 1.0 -0.0
outer loop
vertex 6.01035288923874 15.4999999999921 4.0
vertex 26.8387800139849 15.4999999998407 2.8199664825479e-015
vertex 6.01035288923874 15.4999999999921 2.8199664825479e-015
endloop
endfacet
facet normal 7.27087834384577e-012 1.0 -0.0
outer loop
vertex 26.8387800139849 15.4999999998407 2.8199664825479e-015
vertex 6.01035288923874 15.4999999999921 4.0
vertex 26.8387800139849 15.4999999998407 4.0
endloop
endfacet
facet normal 0.707106781191689 0.707106781181406 -0.0
outer loop
vertex 26.8387800139849 15.4999999998407 2.8199664825479e-015
vertex 28.4245664516003 13.9142135622022 4.0
vertex 28.4245664516003 13.9142135622022 2.8199664825479e-015
endloop
endfacet
facet normal 0.707106781191689 0.707106781181406 -0.0
outer loop
vertex 28.4245664516003 13.9142135622022 4.0
vertex 26.8387800139849 15.4999999998407 2.8199664825479e-015
vertex 26.8387800139849 15.4999999998407 4.0
endloop
endfacet
facet normal 0.99884944593303 -0.0479560669705067 0.0
outer loop
vertex 28.4245664516003 13.9142135622022 2.8199664825479e-015
vertex 27.9245664515246 3.49999999983278 4.0
vertex 27.9245664515246 3.49999999983278 2.8199664825479e-015
endloop
endfacet
facet normal 0.99884944593303 -0.0479560669705067 0.0
outer loop
vertex 27.9245664515246 3.49999999983278 4.0
vertex 28.4245664516003 13.9142135622022 2.8199664825479e-015
vertex 28.4245664516003 13.9142135622022 4.0
endloop
endfacet
facet normal -7.27087834384577e-012 -1.0 0.0
outer loop
vertex 27.9245664515246 3.49999999983278 4.0
vertex 25.9245664515245 3.49999999984732 2.8199664825479e-015
vertex 27.9245664515246 3.49999999983278 2.8199664825479e-015
endloop
endfacet
facet normal -7.27087834384577e-012 -1.0 0.0
outer loop
vertex 25.9245664515245 3.49999999984732 2.8199664825479e-015
vertex 27.9245664515246 3.49999999983278 4.0
vertex 25.9245664515245 3.49999999984732 4.0
endloop
endfacet
facet normal -0.766136612538751 -0.642677750453249 0.0
outer loop
vertex 25.3171438840987 4.22410888312359 4.0
vertex 25.9245664515245 3.49999999984732 2.8199664825479e-015
vertex 25.9245664515245 3.49999999984732 4.0
endloop
endfacet
facet normal -0.766136612538751 -0.642677750453249 0.0
outer loop
vertex 25.9245664515245 3.49999999984732 2.8199664825479e-015
vertex 25.3171438840987 4.22410888312359 4.0
vertex 25.3171438840987 4.22410888312359 2.8199664825479e-015
endloop
endfacet
facet normal -0.992498473736228 -0.122257022830015 0.0
outer loop
vertex 25.2015934785637 5.16216216201474 4.0
vertex 25.3171438840987 4.22410888312359 2.8199664825479e-015
vertex 25.3171438840987 4.22410888312359 4.0
endloop
endfacet
facet normal -0.992498473736228 -0.122257022830015 0.0
outer loop
vertex 25.3171438840987 4.22410888312359 2.8199664825479e-015
vertex 25.2015934785637 5.16216216201474 4.0
vertex 25.2015934785637 5.16216216201474 2.8199664825479e-015
endloop
endfacet
facet normal -0.899198981258712 0.437539932009976 0.0
outer loop
vertex 25.6151314121009 6.01203405105655 4.0
vertex 25.2015934785637 5.16216216201474 2.8199664825479e-015
vertex 25.2015934785637 5.16216216201474 4.0
endloop
endfacet
facet normal -0.899198981258712 0.437539932009976 0.0
outer loop
vertex 25.2015934785637 5.16216216201474 2.8199664825479e-015
vertex 25.6151314121009 6.01203405105655 4.0
vertex 25.6151314121009 6.01203405105655 2.8199664825479e-015
endloop
endfacet
facet normal -0.516287795485312 0.856415151800175 0.0
outer loop
vertex 25.6151314121009 6.01203405105655 4.0
vertex 26.4245664515464 6.49999999984368 2.8199664825479e-015
vertex 25.6151314121009 6.01203405105655 2.8199664825479e-015
endloop
endfacet
facet normal -0.516287795485312 0.856415151800175 0.0
outer loop
vertex 26.4245664515464 6.49999999984368 2.8199664825479e-015
vertex 25.6151314121009 6.01203405105655 4.0
vertex 26.4245664515464 6.49999999984368 4.0
endloop
endfacet
facet normal -1.0 7.27212244670571e-012 0.0
outer loop
vertex 26.4245664515958 13.2999999998437 4.0
vertex 26.4245664515464 6.49999999984368 2.8199664825479e-015
vertex 26.4245664515464 6.49999999984368 4.0
endloop
endfacet
facet normal -1.0 7.27212244670571e-012 0.0
outer loop
vertex 26.4245664515464 6.49999999984368 2.8199664825479e-015
vertex 26.4245664515958 13.2999999998437 4.0
vertex 26.4245664515958 13.2999999998437 2.8199664825479e-015
endloop
endfacet
facet normal -0.848217619137205 0.529647874143957 0.0
outer loop
vertex 26.7570825693072 13.8325161175488 4.0
vertex 26.4245664515958 13.2999999998437 2.8199664825479e-015
vertex 26.4245664515958 13.2999999998437 4.0
endloop
endfacet
facet normal -0.848217619137205 0.529647874143957 0.0
outer loop
vertex 26.4245664515958 13.2999999998437 2.8199664825479e-015
vertex 26.7570825693072 13.8325161175488 4.0
vertex 26.7570825693072 13.8325161175488 2.8199664825479e-015
endloop
endfacet
facet normal 0.529647874131623 -0.848217619144906 0.0
outer loop
vertex 26.7570825693072 13.8325161175488 4.0
vertex 26.2245664515973 13.4999999998451 2.8199664825479e-015
vertex 26.7570825693072 13.8325161175488 2.8199664825479e-015
endloop
endfacet
facet normal 0.529647874131623 -0.848217619144906 0.0
outer loop
vertex 26.2245664515973 13.4999999998451 2.8199664825479e-015
vertex 26.7570825693072 13.8325161175488 4.0
vertex 26.2245664515973 13.4999999998451 4.0
endloop
endfacet
facet normal -7.27087834384577e-012 -1.0 0.0
outer loop
vertex 26.2245664515973 13.4999999998451 4.0
vertex 6.62456645159729 13.4999999999876 2.8199664825479e-015
vertex 26.2245664515973 13.4999999998451 2.8199664825479e-015
endloop
endfacet
facet normal -7.27087834384577e-012 -1.0 0.0
outer loop
vertex 6.62456645159729 13.4999999999876 2.8199664825479e-015
vertex 26.2245664515973 13.4999999998451 4.0
vertex 6.62456645159729 13.4999999999876 4.0
endloop
endfacet
facet normal -0.529647874143959 -0.848217619137203 0.0
outer loop
vertex 6.62456645159729 13.4999999999876 4.0
vertex 6.0920503338922 13.832516117699 2.8199664825479e-015
vertex 6.62456645159729 13.4999999999876 2.8199664825479e-015
endloop
endfacet
facet normal -0.529647874143959 -0.848217619137203 0.0
outer loop
vertex 6.0920503338922 13.832516117699 2.8199664825479e-015
vertex 6.62456645159729 13.4999999999876 4.0
vertex 6.0920503338922 13.832516117699 4.0
endloop
endfacet
facet normal 0.848217619144911 0.529647874131614 -0.0
outer loop
vertex 6.0920503338922 13.832516117699 2.8199664825479e-015
vertex 6.42456645159583 13.2999999999891 4.0
vertex 6.42456645159583 13.2999999999891 2.8199664825479e-015
endloop
endfacet
facet normal 0.848217619144911 0.529647874131614 -0.0
outer loop
vertex 6.42456645159583 13.2999999999891 4.0
vertex 6.0920503338922 13.832516117699 2.8199664825479e-015
vertex 6.0920503338922 13.832516117699 4.0
endloop
endfacet
facet normal 1.0 -7.2692195400325e-012 -0.0
outer loop
vertex 6.42456645159583 13.2999999999891 2.8199664825479e-015
vertex 6.4245664515464 6.4999999999891 4.0
vertex 6.4245664515464 6.4999999999891 2.8199664825479e-015
endloop
endfacet
facet normal 1.0 -7.2692195400325e-012 -0.0
outer loop
vertex 6.4245664515464 6.4999999999891 4.0
vertex 6.42456645159583 13.2999999999891 2.8199664825479e-015
vertex 6.42456645159583 13.2999999999891 4.0
endloop
endfacet
facet normal 0.516287795497764 0.856415151792668 -0.0
outer loop
vertex 6.4245664515464 6.4999999999891 4.0
vertex 7.23400149098474 6.0120340511902 2.8199664825479e-015
vertex 6.4245664515464 6.4999999999891 2.8199664825479e-015
endloop
endfacet
facet normal 0.516287795497764 0.856415151792668 -0.0
outer loop
vertex 7.23400149098474 6.0120340511902 2.8199664825479e-015
vertex 6.4245664515464 6.4999999999891 4.0
vertex 7.23400149098474 6.0120340511902 4.0
endloop
endfacet
facet normal 0.899198981265077 0.437539931996895 -0.0
outer loop
vertex 7.23400149098474 6.0120340511902 2.8199664825479e-015
vertex 7.64753942450964 5.16216216214237 4.0
vertex 7.64753942450964 5.16216216214237 2.8199664825479e-015
endloop
endfacet
facet normal 0.899198981265077 0.437539931996895 -0.0
outer loop
vertex 7.64753942450964 5.16216216214237 4.0
vertex 7.23400149098474 6.0120340511902 2.8199664825479e-015
vertex 7.23400149098474 6.0120340511902 4.0
endloop
endfacet
facet normal 0.99249847373445 -0.122257022844446 0.0
outer loop
vertex 7.64753942450964 5.16216216214237 2.8199664825479e-015
vertex 7.53198901896092 4.2241088832529 4.0
vertex 7.53198901896092 4.2241088832529 2.8199664825479e-015
endloop
endfacet
facet normal 0.99249847373445 -0.122257022844446 0.0
outer loop
vertex 7.53198901896092 4.2241088832529 4.0
vertex 7.64753942450964 5.16216216214237 2.8199664825479e-015
vertex 7.64753942450964 5.16216216214237 4.0
endloop
endfacet
facet normal 0.766136612529408 -0.642677750464386 0.0
outer loop
vertex 7.53198901896092 4.2241088832529 2.8199664825479e-015
vertex 6.92456645152458 3.49999999998547 4.0
vertex 6.92456645152458 3.49999999998547 2.8199664825479e-015
endloop
endfacet
facet normal 0.766136612529408 -0.642677750464386 0.0
outer loop
vertex 6.92456645152458 3.49999999998547 4.0
vertex 7.53198901896092 4.2241088832529 2.8199664825479e-015
vertex 7.53198901896092 4.2241088832529 4.0
endloop
endfacet
facet normal -7.27087834384577e-012 -1.0 0.0
outer loop
vertex 6.92456645152458 3.49999999998547 4.0
vertex 4.92456645152458 3.50000000000001 2.8199664825479e-015
vertex 6.92456645152458 3.49999999998547 2.8199664825479e-015
endloop
endfacet
facet normal -7.27087834384577e-012 -1.0 0.0
outer loop
vertex 4.92456645152458 3.50000000000001 2.8199664825479e-015
vertex 6.92456645152458 3.49999999998547 4.0
vertex 4.92456645152458 3.50000000000001 4.0
endloop
endfacet
facet normal -0.998849445933727 -0.0479560669559821 0.0
outer loop
vertex 4.42456645160029 13.9142135623767 4.0
vertex 4.92456645152458 3.50000000000001 2.8199664825479e-015
vertex 4.92456645152458 3.50000000000001 4.0
endloop
endfacet
facet normal -0.998849445933727 -0.0479560669559821 0.0
outer loop
vertex 4.92456645152458 3.50000000000001 2.8199664825479e-015
vertex 4.42456645160029 13.9142135623767 4.0
vertex 4.42456645160029 13.9142135623767 2.8199664825479e-015
endloop
endfacet
facet normal 0.0 0.0 -1.0
outer loop
vertex 0.5 12.0 7.04991620636974e-016
vertex 1.5857864376269 0.0 7.04991620636974e-016
vertex 0.0 1.5857864376269 7.04991620636974e-016
endloop
endfacet
facet normal 0.0 0.0 -1.0
outer loop
vertex 1.5857864376269 0.0 7.04991620636974e-016
vertex 0.5 12.0 7.04991620636974e-016
vertex 2.00000000000001 8.99999999999999 7.04991620636974e-016
endloop
endfacet
facet normal 0.0 0.0 -1.0
outer loop
vertex 2.00000000000001 8.99999999999999 7.04991620636974e-016
vertex 0.5 12.0 7.04991620636974e-016
vertex 2.5 12.0 7.04991620636974e-016
endloop
endfacet
facet normal 0.0 0.0 -1.0
outer loop
vertex 1.5857864376269 0.0 7.04991620636974e-016
vertex 2.00000000000001 8.99999999999999 7.04991620636974e-016
vertex 1.66748388229249 1.66748388229249 7.04991620636974e-016
endloop
endfacet
facet normal 0.0 0.0 -1.0
outer loop
vertex 1.66748388229249 1.66748388229249 7.04991620636974e-016
vertex 2.00000000000001 8.99999999999999 7.04991620636974e-016
vertex 2.0 2.2 7.04991620636974e-016
endloop
endfacet
facet normal 0.0 0.0 -1.0
outer loop
vertex 2.00000000000001 8.99999999999999 7.04991620636974e-016
vertex 2.5 12.0 7.04991620636974e-016
vertex 2.80943503944189 9.48796594879301 7.04991620636974e-016
endloop
endfacet
facet normal 0.0 0.0 -1.0
outer loop
vertex 2.80943503944189 9.48796594879301 7.04991620636974e-016
vertex 2.5 12.0 7.04991620636974e-016
vertex 3.10742256743108 11.2758911167281 7.04991620636974e-016
endloop
endfacet
facet normal 0.0 0.0 -1.0
outer loop
vertex 2.80943503944189 9.48796594879301 7.04991620636974e-016
vertex 3.10742256743108 11.2758911167281 7.04991620636974e-016
vertex 3.22297297297298 10.3378378378378 7.04991620636974e-016
endloop
endfacet
facet normal 0.0 0.0 -1.0
outer loop
vertex 20.8925774325689 11.2758911167281 7.04991620636974e-016
vertex 21.1905649605581 9.48796594879301 7.04991620636974e-016
vertex 20.777027027027 10.3378378378378 7.04991620636974e-016
endloop
endfacet
facet normal 0.0 0.0 -1.0
outer loop
vertex 21.1905649605581 9.48796594879301 7.04991620636974e-016
vertex 20.8925774325689 11.2758911167281 7.04991620636974e-016
vertex 21.5 12.0 7.04991620636974e-016
endloop
endfacet
facet normal 0.0 0.0 -1.0
outer loop
vertex 21.1905649605581 9.48796594879301 7.04991620636974e-016
vertex 21.5 12.0 7.04991620636974e-016
vertex 22.0 8.99999999999999 7.04991620636974e-016
endloop
endfacet
facet normal 0.0 0.0 -1.0
outer loop
vertex 22.0 8.99999999999999 7.04991620636974e-016
vertex 21.5 12.0 7.04991620636974e-016
vertex 23.5 12.0 7.04991620636974e-016
endloop
endfacet
facet normal 0.0 0.0 -1.0
outer loop
vertex 22.0 8.99999999999999 7.04991620636974e-016
vertex 23.5 12.0 7.04991620636974e-016
vertex 22.0 2.2 7.04991620636974e-016
endloop
endfacet
facet normal 0.0 0.0 -1.0
outer loop
vertex 22.0 2.2 7.04991620636974e-016
vertex 23.5 12.0 7.04991620636974e-016
vertex 22.3325161177075 1.66748388229249 7.04991620636974e-016
endloop
endfacet
facet normal 0.0 0.0 -1.0
outer loop
vertex 22.3325161177075 1.66748388229249 7.04991620636974e-016
vertex 23.5 12.0 7.04991620636974e-016
vertex 22.4142135623731 0.0 7.04991620636974e-016
endloop
endfacet
facet normal 0.0 0.0 -1.0
outer loop
vertex 22.4142135623731 0.0 7.04991620636974e-016
vertex 23.5 12.0 7.04991620636974e-016
vertex 24.0 1.5857864376269 7.04991620636974e-016
endloop
endfacet
facet normal 0.0 0.0 -1.0
outer loop
vertex 1.66748388229249 1.66748388229249 7.04991620636974e-016
vertex 22.4142135623731 0.0 7.04991620636974e-016
vertex 1.5857864376269 0.0 7.04991620636974e-016
endloop
endfacet
facet normal 0.0 0.0 -1.0
outer loop
vertex 22.4142135623731 0.0 7.04991620636974e-016
vertex 1.66748388229249 1.66748388229249 7.04991620636974e-016
vertex 2.2 2.0 7.04991620636974e-016
endloop
endfacet
facet normal 0.0 0.0 -1.0
outer loop
vertex 22.4142135623731 0.0 7.04991620636974e-016
vertex 2.2 2.0 7.04991620636974e-016
vertex 21.8 2.0 7.04991620636974e-016
endloop
endfacet
facet normal 0.0 0.0 -1.0
outer loop
vertex 22.4142135623731 0.0 7.04991620636974e-016
vertex 21.8 2.0 7.04991620636974e-016
vertex 22.3325161177075 1.66748388229249 7.04991620636974e-016
endloop
endfacet
facet normal 0.0 0.0 1.0
outer loop
vertex 1.5857864376269 0.0 4.0
vertex 0.5 12.0 4.0
vertex 0.0 1.5857864376269 4.0
endloop
endfacet
facet normal 0.0 0.0 1.0
outer loop
vertex 0.5 12.0 4.0
vertex 1.5857864376269 0.0 4.0
vertex 2.00000000000001 8.99999999999999 4.0
endloop
endfacet
facet normal 0.0 0.0 1.0
outer loop
vertex 0.5 12.0 4.0
vertex 2.00000000000001 8.99999999999999 4.0
vertex 2.5 12.0 4.0
endloop
endfacet
facet normal 0.0 0.0 1.0
outer loop
vertex 2.00000000000001 8.99999999999999 4.0
vertex 1.5857864376269 0.0 4.0
vertex 1.66748388229249 1.66748388229249 4.0
endloop
endfacet
facet normal 0.0 0.0 1.0
outer loop
vertex 2.00000000000001 8.99999999999999 4.0
vertex 1.66748388229249 1.66748388229249 4.0
vertex 2.0 2.2 4.0
endloop
endfacet
facet normal 0.0 0.0 1.0
outer loop
vertex 2.5 12.0 4.0
vertex 2.00000000000001 8.99999999999999 4.0
vertex 2.80943503944189 9.48796594879301 4.0
endloop
endfacet
facet normal 0.0 0.0 1.0
outer loop
vertex 2.5 12.0 4.0
vertex 2.80943503944189 9.48796594879301 4.0
vertex 3.10742256743108 11.2758911167281 4.0
endloop
endfacet
facet normal 0.0 0.0 1.0
outer loop
vertex 3.10742256743108 11.2758911167281 4.0
vertex 2.80943503944189 9.48796594879301 4.0
vertex 3.22297297297298 10.3378378378378 4.0
endloop
endfacet
facet normal 0.0 0.0 1.0
outer loop
vertex 22.4142135623731 0.0 4.0
vertex 1.66748388229249 1.66748388229249 4.0
vertex 1.5857864376269 0.0 4.0
endloop
endfacet
facet normal 0.0 0.0 1.0
outer loop
vertex 1.66748388229249 1.66748388229249 4.0
vertex 22.4142135623731 0.0 4.0
vertex 2.2 2.0 4.0
endloop
endfacet
facet normal 0.0 0.0 1.0
outer loop
vertex 2.2 2.0 4.0
vertex 22.4142135623731 0.0 4.0
vertex 21.8 2.0 4.0
endloop
endfacet
facet normal 0.0 0.0 1.0
outer loop
vertex 21.8 2.0 4.0
vertex 22.4142135623731 0.0 4.0
vertex 22.3325161177075 1.66748388229249 4.0
endloop
endfacet
facet normal 0.0 0.0 1.0
outer loop
vertex 21.1905649605581 9.48796594879301 4.0
vertex 20.8925774325689 11.2758911167281 4.0
vertex 20.777027027027 10.3378378378378 4.0
endloop
endfacet
facet normal 0.0 0.0 1.0
outer loop
vertex 20.8925774325689 11.2758911167281 4.0
vertex 21.1905649605581 9.48796594879301 4.0
vertex 21.5 12.0 4.0
endloop
endfacet
facet normal 0.0 0.0 1.0
outer loop
vertex 21.5 12.0 4.0
vertex 21.1905649605581 9.48796594879301 4.0
vertex 22.0 8.99999999999999 4.0
endloop
endfacet
facet normal 0.0 0.0 1.0
outer loop
vertex 21.5 12.0 4.0
vertex 22.0 8.99999999999999 4.0
vertex 23.5 12.0 4.0
endloop
endfacet
facet normal 0.0 0.0 1.0
outer loop
vertex 23.5 12.0 4.0
vertex 22.0 8.99999999999999 4.0
vertex 22.0 2.2 4.0
endloop
endfacet
facet normal 0.0 0.0 1.0
outer loop
vertex 23.5 12.0 4.0
vertex 22.0 2.2 4.0
vertex 22.3325161177075 1.66748388229249 4.0
endloop
endfacet
facet normal 0.0 0.0 1.0
outer loop
vertex 23.5 12.0 4.0
vertex 22.3325161177075 1.66748388229249 4.0
vertex 22.4142135623731 0.0 4.0
endloop
endfacet
facet normal 0.0 0.0 1.0
outer loop
vertex 23.5 12.0 4.0
vertex 22.4142135623731 0.0 4.0
vertex 24.0 1.5857864376269 4.0
endloop
endfacet
facet normal 0.707106781186544 -0.707106781186551 0.0
outer loop
vertex 24.0 1.5857864376269 4.0
vertex 22.4142135623731 0.0 7.04991620636974e-016
vertex 24.0 1.5857864376269 7.04991620636974e-016
endloop
endfacet
facet normal 0.707106781186544 -0.707106781186551 0.0
outer loop
vertex 22.4142135623731 0.0 7.04991620636974e-016
vertex 24.0 1.5857864376269 4.0
vertex 22.4142135623731 0.0 4.0
endloop
endfacet
facet normal -0.0 -1.0 -0.0
outer loop
vertex 22.4142135623731 0.0 4.0
vertex 1.5857864376269 0.0 7.04991620636974e-016
vertex 22.4142135623731 0.0 7.04991620636974e-016
endloop
endfacet
facet normal -0.0 -1.0 -0.0
outer loop
vertex 1.5857864376269 0.0 7.04991620636974e-016
vertex 22.4142135623731 0.0 4.0
vertex 1.5857864376269 0.0 4.0
endloop
endfacet
facet normal -0.707106781186547 -0.707106781186548 -0.0
outer loop
vertex 1.5857864376269 0.0 4.0
vertex 0.0 1.5857864376269 7.04991620636974e-016
vertex 1.5857864376269 0.0 7.04991620636974e-016
endloop
endfacet
facet normal -0.707106781186547 -0.707106781186548 -0.0
outer loop
vertex 0.0 1.5857864376269 7.04991620636974e-016
vertex 1.5857864376269 0.0 4.0
vertex 0.0 1.5857864376269 4.0
endloop
endfacet
facet normal -0.998849445933378 0.0479560669632441 0.0
outer loop
vertex 0.5 12.0 4.0
vertex 0.0 1.5857864376269 7.04991620636974e-016
vertex 0.0 1.5857864376269 4.0
endloop
endfacet
facet normal -0.998849445933378 0.0479560669632441 0.0
outer loop
vertex 0.0 1.5857864376269 7.04991620636974e-016
vertex 0.5 12.0 4.0
vertex 0.5 12.0 7.04991620636974e-016
endloop
endfacet
facet normal 0.0 1.0 0.0
outer loop
vertex 0.5 12.0 4.0
vertex 2.5 12.0 7.04991620636974e-016
vertex 0.5 12.0 7.04991620636974e-016
endloop
endfacet
facet normal 0.0 1.0 0.0
outer loop
vertex 2.5 12.0 7.04991620636974e-016
vertex 0.5 12.0 4.0
vertex 2.5 12.0 4.0
endloop
endfacet
facet normal 0.766136612534078 0.642677750458819 0.0
outer loop
vertex 2.5 12.0 7.04991620636974e-016
vertex 3.10742256743108 11.2758911167281 4.0
vertex 3.10742256743108 11.2758911167281 7.04991620636974e-016
endloop
endfacet
facet normal 0.766136612534078 0.642677750458819 0.0
outer loop
vertex 3.10742256743108 11.2758911167281 4.0
vertex 2.5 12.0 7.04991620636974e-016
vertex 2.5 12.0 4.0
endloop
endfacet
facet normal 0.992498473735339 0.122257022837231 0.0
outer loop
vertex 3.10742256743108 11.2758911167281 7.04991620636974e-016
vertex 3.22297297297298 10.3378378378378 4.0
vertex 3.22297297297298 10.3378378378378 7.04991620636974e-016
endloop
endfacet
facet normal 0.992498473735339 0.122257022837231 0.0
outer loop
vertex 3.22297297297298 10.3378378378378 4.0
vertex 3.10742256743108 11.2758911167281 7.04991620636974e-016
vertex 3.10742256743108 11.2758911167281 4.0
endloop
endfacet
facet normal 0.899198981261894 -0.437539932003438 0.0
outer loop
vertex 3.22297297297298 10.3378378378378 7.04991620636974e-016
vertex 2.80943503944189 9.48796594879301 4.0
vertex 2.80943503944189 9.48796594879301 7.04991620636974e-016
endloop
endfacet
facet normal 0.899198981261894 -0.437539932003438 0.0
outer loop
vertex 2.80943503944189 9.48796594879301 4.0
vertex 3.22297297297298 10.3378378378378 7.04991620636974e-016
vertex 3.22297297297298 10.3378378378378 4.0
endloop
endfacet
facet normal 0.516287795491539 -0.856415151796421 0.0
outer loop
vertex 2.80943503944189 9.48796594879301 4.0
vertex 2.00000000000001 8.99999999999999 7.04991620636974e-016
vertex 2.80943503944189 9.48796594879301 7.04991620636974e-016
endloop
endfacet
facet normal 0.516287795491539 -0.856415151796421 0.0
outer loop
vertex 2.00000000000001 8.99999999999999 7.04991620636974e-016
vertex 2.80943503944189 9.48796594879301 4.0
vertex 2.00000000000001 8.99999999999999 4.0
endloop
endfacet
facet normal 1.0 -1.2441028599476e-015 0.0
outer loop
vertex 2.00000000000001 8.99999999999999 7.04991620636974e-016
vertex 2.0 2.2 4.0
vertex 2.0 2.2 7.04991620636974e-016
endloop
endfacet
facet normal 1.0 -1.2441028599476e-015 0.0
outer loop
vertex 2.0 2.2 4.0
vertex 2.00000000000001 8.99999999999999 7.04991620636974e-016
vertex 2.00000000000001 8.99999999999999 4.0
endloop
endfacet
facet normal 0.848217619141056 -0.529647874137789 0.0
outer loop
vertex 2.0 2.2 7.04991620636974e-016
vertex 1.66748388229249 1.66748388229249 4.0
vertex 1.66748388229249 1.66748388229249 7.04991620636974e-016
endloop
endfacet
facet normal 0.848217619141056 -0.529647874137789 0.0
outer loop
vertex 1.66748388229249 1.66748388229249 4.0
vertex 2.0 2.2 7.04991620636974e-016
vertex 2.0 2.2 4.0
endloop
endfacet
facet normal -0.52964787413779 0.848217619141055 0.0
outer loop
vertex 1.66748388229249 1.66748388229249 4.0
vertex 2.2 2.0 7.04991620636974e-016
vertex 1.66748388229249 1.66748388229249 7.04991620636974e-016
endloop
endfacet
facet normal -0.52964787413779 0.848217619141055 0.0
outer loop
vertex 2.2 2.0 7.04991620636974e-016
vertex 1.66748388229249 1.66748388229249 4.0
vertex 2.2 2.0 4.0
endloop
endfacet
facet normal 0.0 1.0 0.0
outer loop
vertex 2.2 2.0 4.0
vertex 21.8 2.0 7.04991620636974e-016
vertex 2.2 2.0 7.04991620636974e-016
endloop
endfacet
facet normal 0.0 1.0 0.0
outer loop
vertex 21.8 2.0 7.04991620636974e-016
vertex 2.2 2.0 4.0
vertex 21.8 2.0 4.0
endloop
endfacet
facet normal 0.529647874137792 0.848217619141054 0.0
outer loop
vertex 21.8 2.0 4.0
vertex 22.3325161177075 1.66748388229249 7.04991620636974e-016
vertex 21.8 2.0 7.04991620636974e-016
endloop
endfacet
facet normal 0.529647874137792 0.848217619141054 0.0
outer loop
vertex 22.3325161177075 1.66748388229249 7.04991620636974e-016
vertex 21.8 2.0 4.0
vertex 22.3325161177075 1.66748388229249 4.0
endloop
endfacet
facet normal -0.848217619141061 -0.529647874137781 -0.0
outer loop
vertex 22.0 2.2 4.0
vertex 22.3325161177075 1.66748388229249 7.04991620636974e-016
vertex 22.3325161177075 1.66748388229249 4.0
endloop
endfacet
facet normal -0.848217619141061 -0.529647874137781 -0.0
outer loop
vertex 22.3325161177075 1.66748388229249 7.04991620636974e-016
vertex 22.0 2.2 4.0
vertex 22.0 2.2 7.04991620636974e-016
endloop
endfacet
facet normal -1.0 -1.65880381326347e-015 -0.0
outer loop
vertex 22.0 8.99999999999999 4.0
vertex 22.0 2.2 7.04991620636974e-016
vertex 22.0 2.2 4.0
endloop
endfacet
facet normal -1.0 -1.65880381326347e-015 -0.0
outer loop
vertex 22.0 2.2 7.04991620636974e-016
vertex 22.0 8.99999999999999 4.0
vertex 22.0 8.99999999999999 7.04991620636974e-016
endloop
endfacet
facet normal -0.516287795491537 -0.856415151796422 -0.0
outer loop
vertex 22.0 8.99999999999999 4.0
vertex 21.1905649605581 9.48796594879301 7.04991620636974e-016
vertex 22.0 8.99999999999999 7.04991620636974e-016
endloop
endfacet
facet normal -0.516287795491537 -0.856415151796422 -0.0
outer loop
vertex 21.1905649605581 9.48796594879301 7.04991620636974e-016
vertex 22.0 8.99999999999999 4.0
vertex 21.1905649605581 9.48796594879301 4.0
endloop
endfacet
facet normal -0.899198981261896 -0.437539932003433 -0.0
outer loop
vertex 20.777027027027 10.3378378378378 4.0
vertex 21.1905649605581 9.48796594879301 7.04991620636974e-016
vertex 21.1905649605581 9.48796594879301 4.0
endloop
endfacet
facet normal -0.899198981261896 -0.437539932003433 -0.0
outer loop
vertex 21.1905649605581 9.48796594879301 7.04991620636974e-016
vertex 20.777027027027 10.3378378378378 4.0
vertex 20.777027027027 10.3378378378378 7.04991620636974e-016
endloop
endfacet
facet normal -0.992498473735339 0.12225702283723 0.0
outer loop
vertex 20.8925774325689 11.2758911167281 4.0
vertex 20.777027027027 10.3378378378378 7.04991620636974e-016
vertex 20.777027027027 10.3378378378378 4.0
endloop
endfacet
facet normal -0.992498473735339 0.12225702283723 0.0
outer loop
vertex 20.777027027027 10.3378378378378 7.04991620636974e-016
vertex 20.8925774325689 11.2758911167281 4.0
vertex 20.8925774325689 11.2758911167281 7.04991620636974e-016
endloop
endfacet
facet normal -0.766136612534081 0.642677750458816 0.0
outer loop
vertex 21.5 12.0 4.0
vertex 20.8925774325689 11.2758911167281 7.04991620636974e-016
vertex 20.8925774325689 11.2758911167281 4.0
endloop
endfacet
facet normal -0.766136612534081 0.642677750458816 0.0
outer loop
vertex 20.8925774325689 11.2758911167281 7.04991620636974e-016
vertex 21.5 12.0 4.0
vertex 21.5 12.0 7.04991620636974e-016
endloop
endfacet
facet normal 0.0 1.0 0.0
outer loop
vertex 21.5 12.0 4.0
vertex 23.5 12.0 7.04991620636974e-016
vertex 21.5 12.0 7.04991620636974e-016
endloop
endfacet
facet normal 0.0 1.0 0.0
outer loop
vertex 23.5 12.0 7.04991620636974e-016
vertex 21.5 12.0 4.0
vertex 23.5 12.0 4.0
endloop
endfacet
facet normal 0.998849445933378 0.0479560669632446 0.0
outer loop
vertex 23.5 12.0 7.04991620636974e-016
vertex 24.0 1.5857864376269 4.0
vertex 24.0 1.5857864376269 7.04991620636974e-016
endloop
endfacet
facet normal 0.998849445933378 0.0479560669632446 0.0
outer loop
vertex 24.0 1.5857864376269 4.0
vertex 23.5 12.0 7.04991620636974e-016
vertex 23.5 12.0 4.0
endloop
endfacet
endsolid 2020 wire clip
