solid 60 End
facet normal 0.608761429008699 0.793353340291252 -2.31987315850485e-015
outer loop
vertex 19.0755062252073 22.5602540378444 -9.05914232518512e-014
vertex 20.4113602143076 21.5352172200085 5.99999999999989
vertex 20.4113602143075 21.5352172200085 -1.03281272423317e-013
endloop
endfacet
facet normal 0.608761429008699 0.793353340291252 -2.31987315850485e-015
outer loop
vertex 20.4113602143076 21.5352172200085 5.99999999999989
vertex 19.0755062252073 22.5602540378444 -9.05914232518512e-014
vertex 19.0755062252073 22.5602540378444 5.99999999999994
endloop
endfacet
facet normal 0.793353340291241 -0.608761429008713 -5.7614032359082e-015
outer loop
vertex 2.56025403784432 15.5655099261701 -4.58244553414033e-015
vertex 1.53521722000847 14.2296559370699 5.99999999999999
vertex 1.53521722000842 14.2296559370699 -2.8199664825479e-015
endloop
endfacet
facet normal 0.793353340291241 -0.608761429008713 -5.7614032359082e-015
outer loop
vertex 1.53521722000847 14.2296559370699 5.99999999999999
vertex 2.56025403784432 15.5655099261701 -4.58244553414033e-015
vertex 2.56025403784435 15.56550992617 5.99999999999998
endloop
endfacet
facet normal -0.793353340291215 -0.608761429008747 2.54056466202608e-015
outer loop
vertex 22.0807621135332 52.8860180018589 5.9999999999999
vertex 23.1057989313691 51.5501640127588 -1.45580769661535e-013
vertex 23.1057989313692 51.5501640127587 5.99999999999984
endloop
endfacet
facet normal -0.793353340291215 -0.608761429008747 2.54056466202608e-015
outer loop
vertex 23.1057989313691 51.5501640127588 -1.45580769661535e-013
vertex 22.0807621135332 52.8860180018589 5.9999999999999
vertex 22.0807621135331 52.8860180018589 -8.84764483899403e-014
endloop
endfacet
facet normal 0.130526192220041 0.991444861373812 -4.91940546268234e-016
outer loop
vertex 19.8807621135332 49.0755062252073 5.99999999999986
vertex 21.5501640127586 48.8557252956972 -1.45228273851217e-013
vertex 19.8807621135332 49.0755062252074 -1.78010384210836e-013
endloop
endfacet
facet normal 0.130526192220041 0.991444861373812 -4.91940546268234e-016
outer loop
vertex 21.5501640127586 48.8557252956972 -1.45228273851217e-013
vertex 19.8807621135332 49.0755062252073 5.99999999999986
vertex 21.5501640127587 48.8557252956972 5.99999999999984
endloop
endfacet
facet normal -0.97324898946773 0.229752920547361 3.99140219909101e-015
outer loop
vertex -0.297974388334211 33.4721408010374 6.00000000000002
vertex -1.1847944544486 29.7155107171661 2.78471690151605e-014
vertex -1.18479445444853 29.7155107171661 6.00000000000002
endloop
endfacet
facet normal -0.97324898946773 0.229752920547361 3.99140219909101e-015
outer loop
vertex -1.1847944544486 29.7155107171661 2.78471690151605e-014
vertex -0.297974388334211 33.4721408010374 6.00000000000002
vertex -0.297974388334166 33.4721408010375 3.56020768421672e-014
endloop
endfacet
facet normal -0.991444861373812 0.130526192220039 6.0836893235101e-015
outer loop
vertex 23.1057989313692 51.5501640127587 5.99999999999984
vertex 22.886018001859 49.8807621135332 -1.50163215195676e-013
vertex 22.886018001859 49.8807621135332 5.99999999999984
endloop
endfacet
facet normal -0.991444861373812 0.130526192220039 6.0836893235101e-015
outer loop
vertex 22.886018001859 49.8807621135332 -1.50163215195676e-013
vertex 23.1057989313692 51.5501640127587 5.99999999999984
vertex 23.1057989313691 51.5501640127588 -1.45580769661535e-013
endloop
endfacet
facet normal 0.866025403784446 -0.499999999999988 1.57273999071576e-014
outer loop
vertex 0.504998149518634 59.9156986040721 6.00000000000006
vertex 3.00499814951854 64.2458256229943 8.00000000000006
vertex 0.504998149518586 59.915698604072 8.00000000000006
endloop
endfacet
facet normal 0.866025403784446 -0.499999999999988 1.57273999071576e-014
outer loop
vertex 3.00499814951854 64.2458256229943 8.00000000000006
vertex 0.504998149518634 59.9156986040721 6.00000000000006
vertex 1.75499814951861 62.0807621135332 6.00000000000007
endloop
endfacet
facet normal 0.866025403784446 -0.499999999999988 1.57273999071576e-014
outer loop
vertex 3.00499814951854 64.2458256229943 8.00000000000006
vertex 1.75499814951861 62.0807621135332 6.00000000000007
vertex 3.00499814951854 64.2458256229942 6.00000000000007
endloop
endfacet
facet normal 0.866025403784437 -0.500000000000002 -2.98248596873672e-016
outer loop
vertex 19.0755062252074 52.0807621135331 5.99999999999992
vertex 17.8255062252074 49.915698604072 7.9999999999999
vertex 17.8255062252074 49.915698604072 5.99999999999991
endloop
endfacet
facet normal 0.866025403784437 -0.500000000000002 -2.98248596873672e-016
outer loop
vertex 17.8255062252074 49.915698604072 7.9999999999999
vertex 19.0755062252074 52.0807621135331 5.99999999999992
vertex 20.3255062252074 54.2458256229942 7.99999999999991
endloop
endfacet
facet normal 0.866025403784437 -0.500000000000002 -2.98248596873672e-016
outer loop
vertex 20.3255062252074 54.2458256229942 7.99999999999991
vertex 19.0755062252074 52.0807621135331 5.99999999999992
vertex 20.3255062252074 54.2458256229942 5.99999999999991
endloop
endfacet
facet normal 0.499999999999998 0.86602540378444 -7.02524306160662e-015
outer loop
vertex -3.75000000000013 68.1458256229943 8.00000000000004
vertex 3.00499814951854 64.2458256229942 6.00000000000007
vertex -3.75000000000008 68.1458256229942 6.00000000000004
endloop
endfacet
facet normal 0.499999999999998 0.86602540378444 -7.02524306160662e-015
outer loop
vertex 3.00499814951854 64.2458256229942 6.00000000000007
vertex -3.75000000000013 68.1458256229943 8.00000000000004
vertex 3.00499814951854 64.2458256229943 8.00000000000006
endloop
endfacet
facet normal 0.608761429008749 0.793353340291214 2.24056953291651e-015
outer loop
vertex 1.75499814951868 12.5602540378444 -1.05748743095546e-014
vertex 3.09085213861879 11.5352172200084 5.99999999999997
vertex 3.09085213861879 11.5352172200084 -2.32647234810202e-014
endloop
endfacet
facet normal 0.608761429008749 0.793353340291214 2.24056953291651e-015
outer loop
vertex 3.09085213861879 11.5352172200084 5.99999999999997
vertex 1.75499814951868 12.5602540378444 -1.05748743095546e-014
vertex 1.75499814951868 12.5602540378444 6.00000000000002
endloop
endfacet
facet normal -0.500000000000001 -0.866025403784438 -1.2771084627352e-014
outer loop
vertex 17.8255062252074 49.915698604072 7.9999999999999
vertex 4.3155099261701 57.7156986040721 6.00000000000004
vertex 17.8255062252074 49.915698604072 5.99999999999991
endloop
endfacet
facet normal -0.500000000000001 -0.866025403784438 -1.2771084627352e-014
outer loop
vertex 4.3155099261701 57.7156986040721 6.00000000000004
vertex 17.8255062252074 49.915698604072 7.9999999999999
vertex 4.31550992617009 57.715698604072 8.00000000000001
endloop
endfacet
facet normal -0.500000000000004 -0.866025403784436 -1.04696291726446e-014
outer loop
vertex 27.5249907475931 44.315698604072 5.99999999999987
vertex 21.636018001859 47.715698604072 7.99999999999994
vertex 21.6360180018589 47.715698604072 5.99999999999984
endloop
endfacet
facet normal -0.500000000000004 -0.866025403784436 -1.04696291726446e-014
outer loop
vertex 21.636018001859 47.715698604072 7.99999999999994
vertex 27.5249907475931 44.315698604072 5.99999999999987
vertex 27.524990747593 44.315698604072 7.99999999999998
endloop
endfacet
facet normal -0.130526192220065 -0.991444861373809 3.97005870655991e-015
outer loop
vertex 4.76025403784423 62.8860180018589 6.55642207192386e-014
vertex 3.09085213861888 63.1057989313691 6.00000000000006
vertex 3.09085213861884 63.1057989313691 3.24296145493008e-014
endloop
endfacet
facet normal -0.130526192220065 -0.991444861373809 3.97005870655991e-015
outer loop
vertex 3.09085213861888 63.1057989313691 6.00000000000006
vertex 4.76025403784423 62.8860180018589 6.55642207192386e-014
vertex 4.76025403784421 62.8860180018589 6.00000000000006
endloop
endfacet
facet normal 0.793353340291258 0.60876142900869 -1.49570722149805e-015
outer loop
vertex 1.53521722000842 60.4113602143076 3.27821103596193e-014
vertex 2.56025403784435 59.0755062252074 6.00000000000005
vertex 2.56025403784432 59.0755062252073 2.11497486191092e-014
endloop
endfacet
facet normal 0.793353340291258 0.60876142900869 -1.49570722149805e-015
outer loop
vertex 2.56025403784435 59.0755062252074 6.00000000000005
vertex 1.53521722000842 60.4113602143076 3.27821103596193e-014
vertex 1.53521722000842 60.4113602143076 6.00000000000007
endloop
endfacet
facet normal -0.866025403784431 0.500000000000014 3.44401592386797e-015
outer loop
vertex 6.81550992617015 62.0458256229942 8.00000000000003
vertex 4.3155099261701 57.7156986040721 6.00000000000004
vertex 4.31550992617009 57.715698604072 8.00000000000001
endloop
endfacet
facet normal -0.866025403784431 0.500000000000014 3.44401592386797e-015
outer loop
vertex 4.3155099261701 57.7156986040721 6.00000000000004
vertex 6.81550992617015 62.0458256229942 8.00000000000003
vertex 5.56550992617013 59.8807621135331 6.00000000000004
endloop
endfacet
facet normal -0.866025403784431 0.500000000000014 3.44401592386797e-015
outer loop
vertex 5.56550992617013 59.8807621135331 6.00000000000004
vertex 6.81550992617015 62.0458256229942 8.00000000000003
vertex 6.81550992617012 62.0458256229942 6.00000000000004
endloop
endfacet
facet normal 0.500000000000001 0.866025403784438 -4.93347414729705e-015
outer loop
vertex 6.81550992617012 62.0458256229942 6.00000000000004
vertex 20.3255062252074 54.2458256229942 7.99999999999991
vertex 20.3255062252074 54.2458256229942 5.99999999999991
endloop
endfacet
facet normal 0.500000000000001 0.866025403784438 -4.93347414729705e-015
outer loop
vertex 20.3255062252074 54.2458256229942 7.99999999999991
vertex 6.81550992617012 62.0458256229942 6.00000000000004
vertex 6.81550992617015 62.0458256229942 8.00000000000003
endloop
endfacet
facet normal -0.991444861373812 -0.130526192220035 -1.21449041069856e-016
outer loop
vertex 23.105798931369 23.0908521386189 5.99999999999987
vertex 22.8860180018589 24.7602540378444 -1.07863717957457e-013
vertex 23.105798931369 23.0908521386189 -1.15618625784464e-013
endloop
endfacet
facet normal -0.991444861373812 -0.130526192220035 -1.21449041069856e-016
outer loop
vertex 22.8860180018589 24.7602540378444 -1.07863717957457e-013
vertex 23.105798931369 23.0908521386189 5.99999999999987
vertex 22.8860180018589 24.7602540378444 5.99999999999997
endloop
endfacet
facet normal 1.21513926120952e-014 -1.85160902358614e-014 1.0
outer loop
vertex -3.74999999999996 6.4951905283832 7.99999999999895
vertex 0.504998149518574 14.7253175473054 7.99999999999905
vertex -6.25000000000001 10.8253175473054 7.99999999999903
endloop
endfacet
facet normal 1.21513926120952e-014 -1.85160902358614e-014 1.0
outer loop
vertex 0.504998149518574 14.7253175473054 7.99999999999905
vertex -3.74999999999996 6.4951905283832 7.99999999999895
vertex 3.00499814951864 10.3951905283832 7.99999999999891
endloop
endfacet
facet normal 0.500000000000004 -0.866025403784436 2.63758741499681e-015
outer loop
vertex 20.3255062252073 20.3951905283833 7.99999999999893
vertex 6.81550992617017 12.5951905283833 5.99999999999995
vertex 20.3255062252074 20.3951905283833 5.99999999999989
endloop
endfacet
facet normal 0.500000000000004 -0.866025403784436 2.63758741499681e-015
outer loop
vertex 6.81550992617017 12.5951905283833 5.99999999999995
vertex 20.3255062252073 20.3951905283833 7.99999999999893
vertex 6.81550992617019 12.5951905283833 7.99999999999898
endloop
endfacet
facet normal -0.500000000000014 0.866025403784431 5.85445985083316e-015
outer loop
vertex 21.6360180018588 26.9253175473059 5.99999999999994
vertex 27.5249907475929 30.3253175473059 7.99999999999975
vertex 27.5249907475929 30.3253175473059 5.99999999999987
endloop
endfacet
facet normal -0.500000000000014 0.866025403784431 5.85445985083316e-015
outer loop
vertex 27.5249907475929 30.3253175473059 7.99999999999975
vertex 21.6360180018588 26.9253175473059 5.99999999999994
vertex 21.6360180018588 26.9253175473058 7.99999999999983
endloop
endfacet
facet normal 0.99144486137382 0.13052619221998 -1.49419221190822e-015
outer loop
vertex 18.8557252956972 24.22965593707 -8.28365154248445e-014
vertex 19.0755062252073 22.5602540378444 5.99999999999994
vertex 19.0755062252073 22.5602540378444 -9.05914232518512e-014
endloop
endfacet
facet normal 0.99144486137382 0.13052619221998 -1.49419221190822e-015
outer loop
vertex 19.0755062252073 22.5602540378444 5.99999999999994
vertex 18.8557252956972 24.22965593707 -8.28365154248445e-014
vertex 18.8557252956972 24.2296559370699 5.99999999999995
endloop
endfacet
facet normal 1.76185058505103e-014 -2.20200944224467e-014 1.0
outer loop
vertex 6.81550992617019 12.5951905283833 7.99999999999898
vertex 17.8255062252074 24.7253175473054 7.99999999999904
vertex 4.31550992617012 16.9253175473054 7.99999999999912
endloop
endfacet
facet normal 1.76185058505103e-014 -2.20200944224467e-014 1.0
outer loop
vertex 17.8255062252074 24.7253175473054 7.99999999999904
vertex 6.81550992617019 12.5951905283833 7.99999999999898
vertex 20.3255062252073 20.3951905283833 7.99999999999893
endloop
endfacet
facet normal -0.99144486137381 -0.130526192220054 -1.62097241434416e-015
outer loop
vertex 5.56550992617015 14.7602540378443 6.00000000000001
vertex 5.78529085568034 13.0908521386189 -3.56020768421672e-014
vertex 5.78529085568032 13.0908521386189 5.99999999999996
endloop
endfacet
facet normal -0.99144486137381 -0.130526192220054 -1.62097241434416e-015
outer loop
vertex 5.78529085568034 13.0908521386189 -3.56020768421672e-014
vertex 5.56550992617015 14.7602540378443 6.00000000000001
vertex 5.56550992617015 14.7602540378443 -2.8199664825479e-014
endloop
endfacet
facet normal 1.66609354268768e-014 -1.51724552015508e-014 1.0
outer loop
vertex 24.1360180018589 22.5951905283832 7.99999999999971
vertex 27.5249907475929 30.3253175473059 7.99999999999975
vertex 21.6360180018588 26.9253175473058 7.99999999999983
endloop
endfacet
facet normal 1.66609354268768e-014 -1.51724552015508e-014 1.0
outer loop
vertex 27.5249907475929 30.3253175473059 7.99999999999975
vertex 24.1360180018589 22.5951905283832 7.99999999999971
vertex 30.0249907475931 25.9951905283832 7.99999999999968
endloop
endfacet
facet normal 0.500000000000001 0.866025403784438 -2.30498248349606e-015
outer loop
vertex 24.1360180018589 52.0458256229942 7.99999999999993
vertex 30.0249907475931 48.6458256229942 5.99999999999987
vertex 24.1360180018589 52.0458256229942 5.99999999999984
endloop
endfacet
facet normal 0.500000000000001 0.866025403784438 -2.30498248349606e-015
outer loop
vertex 30.0249907475931 48.6458256229942 5.99999999999987
vertex 24.1360180018589 52.0458256229942 7.99999999999993
vertex 30.0249907475931 48.6458256229942 7.99999999999998
endloop
endfacet
facet normal -5.06667267152437e-015 3.66529410707518e-015 1.0
outer loop
vertex 27.524990747593 44.315698604072 7.99999999999998
vertex 24.1360180018589 52.0458256229942 7.99999999999993
vertex 21.636018001859 47.715698604072 7.99999999999994
endloop
endfacet
facet normal -5.06667267152437e-015 3.66529410707518e-015 1.0
outer loop
vertex 24.1360180018589 52.0458256229942 7.99999999999993
vertex 27.524990747593 44.315698604072 7.99999999999998
vertex 30.0249907475931 48.6458256229942 7.99999999999998
endloop
endfacet
facet normal -0.608761429008705 -0.793353340291247 1.55086598187183e-015
outer loop
vertex 22.8860180018589 24.7602540378444 5.99999999999997
vertex 21.5501640127586 25.7852908556804 -9.51738687859915e-014
vertex 22.8860180018589 24.7602540378444 -1.07863717957457e-013
endloop
endfacet
facet normal -0.608761429008705 -0.793353340291247 1.55086598187183e-015
outer loop
vertex 21.5501640127586 25.7852908556804 -9.51738687859915e-014
vertex 22.8860180018589 24.7602540378444 5.99999999999997
vertex 21.5501640127586 25.7852908556804 5.99999999999994
endloop
endfacet
facet normal -0.659967656971143 0.75129401152413 4.27247688937223e-015
outer loop
vertex -10.0000000000001 17.3205080756887 -4.86444218239512e-014
vertex -7.10009081327942 19.867907951147 5.99999999999998
vertex -7.10009081327947 19.867907951147 -5.88668003231874e-014
endloop
endfacet
facet normal -0.659967656971143 0.75129401152413 4.27247688937223e-015
outer loop
vertex -7.10009081327942 19.867907951147 5.99999999999998
vertex -10.0000000000001 17.3205080756887 -4.86444218239512e-014
vertex -10.0 17.3205080756887 5.99999999999999
endloop
endfacet
facet normal 0.866025403784441 0.499999999999996 1.05966988159654e-014
outer loop
vertex 20.3255062252074 20.3951905283833 5.99999999999989
vertex 17.8255062252074 24.7253175473054 7.99999999999904
vertex 20.3255062252073 20.3951905283833 7.99999999999893
endloop
endfacet
facet normal 0.866025403784441 0.499999999999996 1.05966988159654e-014
outer loop
vertex 17.8255062252074 24.7253175473054 7.99999999999904
vertex 20.3255062252074 20.3951905283833 5.99999999999989
vertex 19.0755062252073 22.5602540378444 5.99999999999994
endloop
endfacet
facet normal 0.866025403784441 0.499999999999996 1.05966988159654e-014
outer loop
vertex 17.8255062252074 24.7253175473054 7.99999999999904
vertex 19.0755062252073 22.5602540378444 5.99999999999994
vertex 17.8255062252074 24.7253175473055 5.99999999999996
endloop
endfacet
facet normal -0.76775173011853 0.640747439245764 5.76220868799829e-015
outer loop
vertex -6.64658615460332 20.411303000412 5.99999999999998
vertex -7.10009081327947 19.867907951147 -5.88668003231874e-014
vertex -7.10009081327942 19.867907951147 5.99999999999998
endloop
endfacet
facet normal -0.76775173011853 0.640747439245764 5.76220868799829e-015
outer loop
vertex -7.10009081327947 19.867907951147 -5.88668003231874e-014
vertex -6.64658615460332 20.411303000412 5.99999999999998
vertex -4.62687878585112 22.8313420543612 2.57321941532496e-014
endloop
endfacet
facet normal -0.76775173011853 0.640747439245764 5.76220868799829e-015
outer loop
vertex -4.62687878585112 22.8313420543612 2.57321941532496e-014
vertex -6.64658615460332 20.411303000412 5.99999999999998
vertex -4.62687878585108 22.8313420543612 6.00000000000002
endloop
endfacet
facet normal -0.866025403784452 -0.499999999999977 9.17369424760881e-015
outer loop
vertex 21.6360180018588 26.9253175473058 7.99999999999983
vertex 24.1360180018589 22.5951905283832 5.99999999999987
vertex 24.1360180018589 22.5951905283832 7.99999999999971
endloop
endfacet
facet normal -0.866025403784452 -0.499999999999977 9.17369424760881e-015
outer loop
vertex 24.1360180018589 22.5951905283832 5.99999999999987
vertex 21.6360180018588 26.9253175473058 7.99999999999983
vertex 22.8860180018589 24.7602540378444 5.99999999999997
endloop
endfacet
facet normal -0.866025403784452 -0.499999999999977 9.17369424760881e-015
outer loop
vertex 22.8860180018589 24.7602540378444 5.99999999999997
vertex 21.6360180018588 26.9253175473058 7.99999999999983
vertex 21.6360180018588 26.9253175473059 5.99999999999994
endloop
endfacet
facet normal -0.857234175091939 0.514926760864535 6.46804462512924e-015
outer loop
vertex -2.63932022500209 26.1401681881898 6.00000000000001
vertex -4.62687878585112 22.8313420543612 2.57321941532496e-014
vertex -4.62687878585108 22.8313420543612 6.00000000000002
endloop
endfacet
facet normal -0.857234175091939 0.514926760864535 6.46804462512924e-015
outer loop
vertex -4.62687878585112 22.8313420543612 2.57321941532496e-014
vertex -2.63932022500209 26.1401681881898 6.00000000000001
vertex -2.63932022500214 26.1401681881898 2.43222109119756e-014
endloop
endfacet
facet normal 0.991444861373807 0.130526192220082 -3.54338877245415e-015
outer loop
vertex 1.75499814951868 12.5602540378444 -1.05748743095546e-014
vertex 1.53521722000847 14.2296559370699 5.99999999999999
vertex 1.75499814951868 12.5602540378444 6.00000000000002
endloop
endfacet
facet normal 0.991444861373807 0.130526192220082 -3.54338877245415e-015
outer loop
vertex 1.53521722000847 14.2296559370699 5.99999999999999
vertex 1.75499814951868 12.5602540378444 -1.05748743095546e-014
vertex 1.53521722000842 14.2296559370699 -2.8199664825479e-015
endloop
endfacet
facet normal -0.926281913746786 0.376831283554846 1.04779145668069e-014
outer loop
vertex -1.18479445444853 29.7155107171661 6.00000000000002
vertex -2.63932022500214 26.1401681881898 2.43222109119756e-014
vertex -2.63932022500209 26.1401681881898 6.00000000000001
endloop
endfacet
facet normal -0.926281913746786 0.376831283554846 1.04779145668069e-014
outer loop
vertex -2.63932022500214 26.1401681881898 2.43222109119756e-014
vertex -1.18479445444853 29.7155107171661 6.00000000000002
vertex -1.1847944544486 29.7155107171661 2.78471690151605e-014
endloop
endfacet
facet normal -0.793353340291215 0.608761429008747 9.22393252753758e-016
outer loop
vertex 23.105798931369 23.0908521386189 5.99999999999987
vertex 22.080762113533 21.7549981495186 -1.13856146732871e-013
vertex 22.080762113533 21.7549981495186 5.99999999999987
endloop
endfacet
facet normal -0.793353340291215 0.608761429008747 9.22393252753758e-016
outer loop
vertex 22.080762113533 21.7549981495186 -1.13856146732871e-013
vertex 23.105798931369 23.0908521386189 5.99999999999987
vertex 23.105798931369 23.0908521386189 -1.15618625784464e-013
endloop
endfacet
facet normal -0.973248989467732 -0.229752920547352 1.38927127028172e-015
outer loop
vertex -1.1847944544486 44.9255054342114 6.00000000000003
vertex -0.297974388334256 41.1688753503401 1.90347737571983e-014
vertex -0.297974388334256 41.1688753503401 6.00000000000001
endloop
endfacet
facet normal -0.973248989467732 -0.229752920547352 1.38927127028172e-015
outer loop
vertex -0.297974388334256 41.1688753503401 1.90347737571983e-014
vertex -1.1847944544486 44.9255054342114 6.00000000000003
vertex -1.18479445444862 44.9255054342115 3.91270349453521e-014
endloop
endfacet
facet normal -0.997015803401988 -0.0771977186624608 1.80492304807074e-015
outer loop
vertex -0.297974388334256 41.1688753503401 6.00000000000001
vertex 4.51194637207664e-014 37.3205080756888 -4.22994972382185e-014
vertex 6.76791955811495e-014 37.3205080756888 5.99999999999994
endloop
endfacet
facet normal -0.997015803401988 -0.0771977186624608 1.80492304807074e-015
outer loop
vertex 4.51194637207664e-014 37.3205080756888 -4.22994972382185e-014
vertex -0.297974388334256 41.1688753503401 6.00000000000001
vertex -0.297974388334256 41.1688753503401 1.90347737571983e-014
endloop
endfacet
facet normal -0.130526192220016 0.991444861373815 2.13318523749505e-015
outer loop
vertex 20.4113602143075 21.5352172200085 -1.03281272423317e-013
vertex 22.080762113533 21.7549981495186 5.99999999999987
vertex 22.080762113533 21.7549981495186 -1.13856146732871e-013
endloop
endfacet
facet normal -0.130526192220016 0.991444861373815 2.13318523749505e-015
outer loop
vertex 22.080762113533 21.7549981495186 5.99999999999987
vertex 20.4113602143075 21.5352172200085 -1.03281272423317e-013
vertex 20.4113602143076 21.5352172200085 5.99999999999989
endloop
endfacet
facet normal 0.500000000000001 -0.866025403784438 4.79413736232381e-015
outer loop
vertex 34.6410161513775 20.0 5.99999999999983
vertex 0.0 0.0 0.0
vertex 34.6410161513775 20.0 -1.60033097884593e-013
endloop
endfacet
facet normal 0.500000000000001 -0.866025403784438 4.79413736232381e-015
outer loop
vertex 0.0 0.0 0.0
vertex 34.6410161513775 20.0 5.99999999999983
vertex 2.25597318603832e-014 4.51194637207664e-014 6.00000000000004
endloop
endfacet
facet normal -0.857234175091942 -0.514926760864531 -2.90433174963064e-015
outer loop
vertex -4.62687878585101 51.8096740970163 6.00000000000003
vertex -2.63932022500207 48.5008479631877 -2.8199664825479e-014
vertex -2.63932022500207 48.5008479631877 5.99999999999996
endloop
endfacet
facet normal -0.857234175091942 -0.514926760864531 -2.90433174963064e-015
outer loop
vertex -2.63932022500207 48.5008479631877 -2.8199664825479e-014
vertex -4.62687878585101 51.8096740970163 6.00000000000003
vertex -4.62687878585101 51.8096740970163 4.26519930485369e-014
endloop
endfacet
facet normal -0.608761429008746 -0.793353340291216 1.08707351945372e-015
outer loop
vertex 5.56550992617015 14.7602540378443 6.00000000000001
vertex 4.22965593706997 15.7852908556803 -1.5157319843695e-014
vertex 5.56550992617015 14.7602540378443 -2.8199664825479e-014
endloop
endfacet
facet normal -0.608761429008746 -0.793353340291216 1.08707351945372e-015
outer loop
vertex 4.22965593706997 15.7852908556803 -1.5157319843695e-014
vertex 5.56550992617015 14.7602540378443 6.00000000000001
vertex 4.22965593706994 15.7852908556803 5.99999999999998
endloop
endfacet
facet normal 0.608761429008736 -0.793353340291223 -4.13434850450111e-015
outer loop
vertex 20.4113602143076 53.1057989313691 5.99999999999991
vertex 19.0755062252074 52.0807621135331 -1.16323617405101e-013
vertex 20.4113602143076 53.1057989313691 -1.21611054559878e-013
endloop
endfacet
facet normal 0.608761429008736 -0.793353340291223 -4.13434850450111e-015
outer loop
vertex 19.0755062252074 52.0807621135331 -1.16323617405101e-013
vertex 20.4113602143076 53.1057989313691 5.99999999999991
vertex 19.0755062252074 52.0807621135331 5.99999999999992
endloop
endfacet
facet normal 0.500000000000002 -0.866025403784438 -2.30907887430692e-014
outer loop
vertex 3.00499814951864 10.3951905283832 7.99999999999891
vertex -3.74999999999999 6.49519052838324 5.99999999999999
vertex 3.00499814951863 10.3951905283833 5.99999999999996
endloop
endfacet
facet normal 0.500000000000002 -0.866025403784438 -2.30907887430692e-014
outer loop
vertex -3.74999999999999 6.49519052838324 5.99999999999999
vertex 3.00499814951864 10.3951905283832 7.99999999999891
vertex -3.74999999999996 6.4951905283832 7.99999999999895
endloop
endfacet
facet normal -0.60876142900872 0.793353340291236 2.18769981321051e-015
outer loop
vertex 4.22965593706992 58.8557252956972 8.81239525796218e-015
vertex 5.56550992617013 59.8807621135331 6.00000000000004
vertex 5.56550992617017 59.8807621135332 3.87745391350336e-015
endloop
endfacet
facet normal -0.60876142900872 0.793353340291236 2.18769981321051e-015
outer loop
vertex 5.56550992617013 59.8807621135331 6.00000000000004
vertex 4.22965593706992 58.8557252956972 8.81239525796218e-015
vertex 4.22965593706992 58.8557252956972 6.00000000000004
endloop
endfacet
facet normal -0.5 -0.866025403784439 -2.56943632594404e-014
outer loop
vertex 0.504998149518634 59.9156986040721 6.00000000000006
vertex -6.25 63.815698604072 8.00000000000003
vertex -6.25 63.815698604072 6.00000000000003
endloop
endfacet
facet normal -0.5 -0.866025403784439 -2.56943632594404e-014
outer loop
vertex -6.25 63.815698604072 8.00000000000003
vertex 0.504998149518634 59.9156986040721 6.00000000000006
vertex 0.504998149518586 59.915698604072 8.00000000000006
endloop
endfacet
facet normal -0.793353340291191 -0.608761429008778 -1.49558475774066e-015
outer loop
vertex 4.76025403784421 62.8860180018589 6.00000000000006
vertex 5.78529085568032 61.5501640127587 8.45989944764369e-015
vertex 5.78529085568032 61.5501640127587 6.00000000000004
endloop
endfacet
facet normal -0.793353340291191 -0.608761429008778 -1.49558475774066e-015
outer loop
vertex 5.78529085568032 61.5501640127587 8.45989944764369e-015
vertex 4.76025403784421 62.8860180018589 6.00000000000006
vertex 4.76025403784423 62.8860180018589 6.55642207192386e-014
endloop
endfacet
facet normal -0.86602540378444 0.499999999999998 -5.27543094053499e-015
outer loop
vertex -3.75000000000013 68.1458256229943 8.00000000000004
vertex -6.25 63.815698604072 6.00000000000003
vertex -6.25 63.815698604072 8.00000000000003
endloop
endfacet
facet normal -0.86602540378444 0.499999999999998 -5.27543094053499e-015
outer loop
vertex -6.25 63.815698604072 6.00000000000003
vertex -3.75000000000013 68.1458256229943 8.00000000000004
vertex -3.75000000000008 68.1458256229942 6.00000000000004
endloop
endfacet
facet normal -0.86602540378444 0.499999999999998 -5.27543094053499e-015
outer loop
vertex -9.99999999999996 57.3205080756888 6.00000000000008
vertex -2.25597318603832e-014 74.6410161513775 5.07593966858622e-014
vertex -9.99999999999996 57.3205080756888 5.4284354789047e-014
endloop
endfacet
facet normal -0.86602540378444 0.499999999999998 -5.27543094053499e-015
outer loop
vertex -2.25597318603832e-014 74.6410161513775 5.07593966858622e-014
vertex -9.99999999999996 57.3205080756888 6.00000000000008
vertex -6.25 63.815698604072 6.00000000000003
endloop
endfacet
facet normal -0.86602540378444 0.499999999999998 -5.27543094053499e-015
outer loop
vertex -2.25597318603832e-014 74.6410161513775 5.07593966858622e-014
vertex -6.25 63.815698604072 6.00000000000003
vertex -3.75000000000008 68.1458256229942 6.00000000000004
endloop
endfacet
facet normal -0.86602540378444 0.499999999999998 -5.27543094053499e-015
outer loop
vertex -2.25597318603832e-014 74.6410161513775 5.07593966858622e-014
vertex -3.75000000000008 68.1458256229942 6.00000000000004
vertex -2.25597318603832e-014 74.6410161513775 6.00000000000008
endloop
endfacet
facet normal 0.991444861373807 -0.130526192220075 -2.10768948080506e-015
outer loop
vertex 18.8557252956972 50.4113602143076 -1.2125855874956e-013
vertex 19.0755062252074 52.0807621135331 5.99999999999992
vertex 18.8557252956972 50.4113602143076 5.99999999999991
endloop
endfacet
facet normal 0.991444861373807 -0.130526192220075 -2.10768948080506e-015
outer loop
vertex 19.0755062252074 52.0807621135331 5.99999999999992
vertex 18.8557252956972 50.4113602143076 -1.2125855874956e-013
vertex 19.0755062252074 52.0807621135331 -1.16323617405101e-013
endloop
endfacet
facet normal -0.866025403784443 0.499999999999993 4.63616268840824e-015
outer loop
vertex 24.1360180018589 52.0458256229942 7.99999999999993
vertex 21.6360180018589 47.715698604072 5.99999999999984
vertex 21.636018001859 47.715698604072 7.99999999999994
endloop
endfacet
facet normal -0.866025403784443 0.499999999999993 4.63616268840824e-015
outer loop
vertex 21.6360180018589 47.715698604072 5.99999999999984
vertex 24.1360180018589 52.0458256229942 7.99999999999993
vertex 22.886018001859 49.8807621135332 5.99999999999984
endloop
endfacet
facet normal -0.866025403784443 0.499999999999993 4.63616268840824e-015
outer loop
vertex 22.886018001859 49.8807621135332 5.99999999999984
vertex 24.1360180018589 52.0458256229942 7.99999999999993
vertex 24.1360180018589 52.0458256229942 5.99999999999984
endloop
endfacet
facet normal 0.130526192220028 0.991444861373814 1.6180690348194e-015
outer loop
vertex 2.56025403784432 59.0755062252073 2.11497486191092e-014
vertex 4.22965593706992 58.8557252956972 6.00000000000004
vertex 4.22965593706992 58.8557252956972 8.81239525796218e-015
endloop
endfacet
facet normal 0.130526192220028 0.991444861373814 1.6180690348194e-015
outer loop
vertex 4.22965593706992 58.8557252956972 6.00000000000004
vertex 2.56025403784432 59.0755062252073 2.11497486191092e-014
vertex 2.56025403784435 59.0755062252074 6.00000000000005
endloop
endfacet
facet normal 0.99144486137381 -0.130526192220052 -2.45282341651574e-016
outer loop
vertex 1.53521722000842 60.4113602143076 3.27821103596193e-014
vertex 1.75499814951861 62.0807621135332 6.00000000000007
vertex 1.53521722000842 60.4113602143076 6.00000000000007
endloop
endfacet
facet normal 0.99144486137381 -0.130526192220052 -2.45282341651574e-016
outer loop
vertex 1.75499814951861 62.0807621135332 6.00000000000007
vertex 1.53521722000842 60.4113602143076 3.27821103596193e-014
vertex 1.75499814951861 62.0807621135332 3.77170517040781e-014
endloop
endfacet
facet normal -0.608761429008708 0.793353340291245 1.94780859909171e-015
outer loop
vertex 21.5501640127586 48.8557252956972 -1.45228273851217e-013
vertex 22.886018001859 49.8807621135332 5.99999999999984
vertex 22.886018001859 49.8807621135332 -1.50163215195676e-013
endloop
endfacet
facet normal -0.608761429008708 0.793353340291245 1.94780859909171e-015
outer loop
vertex 22.886018001859 49.8807621135332 5.99999999999984
vertex 21.5501640127586 48.8557252956972 -1.45228273851217e-013
vertex 21.5501640127587 48.8557252956972 5.99999999999984
endloop
endfacet
facet normal -0.793353340291255 0.608761429008694 -1.04262899575878e-015
outer loop
vertex 5.78529085568032 13.0908521386189 5.99999999999996
vertex 4.76025403784441 11.7549981495186 -7.89590615113411e-014
vertex 4.76025403784437 11.7549981495185 5.99999999999995
endloop
endfacet
facet normal -0.793353340291255 0.608761429008694 -1.04262899575878e-015
outer loop
vertex 4.76025403784441 11.7549981495186 -7.89590615113411e-014
vertex 5.78529085568032 13.0908521386189 5.99999999999996
vertex 5.78529085568034 13.0908521386189 -3.56020768421672e-014
endloop
endfacet
facet normal 0.130526192220061 -0.991444861373809 8.8228145957499e-016
outer loop
vertex 21.5501640127586 25.7852908556804 5.99999999999994
vertex 19.8807621135332 25.5655099261702 -8.45989944764369e-014
vertex 21.5501640127586 25.7852908556804 -9.51738687859915e-014
endloop
endfacet
facet normal 0.130526192220061 -0.991444861373809 8.8228145957499e-016
outer loop
vertex 19.8807621135332 25.5655099261702 -8.45989944764369e-014
vertex 21.5501640127586 25.7852908556804 5.99999999999994
vertex 19.8807621135332 25.5655099261702 5.99999999999995
endloop
endfacet
facet normal -0.500000000000001 0.866025403784438 5.39477452409164e-015
outer loop
vertex -6.25 10.8253175473054 6.00000000000002
vertex 0.504998149518574 14.7253175473054 7.99999999999905
vertex 0.504998149518566 14.7253175473054 5.99999999999999
endloop
endfacet
facet normal -0.500000000000001 0.866025403784438 5.39477452409164e-015
outer loop
vertex 0.504998149518574 14.7253175473054 7.99999999999905
vertex -6.25 10.8253175473054 6.00000000000002
vertex -6.25000000000001 10.8253175473054 7.99999999999903
endloop
endfacet
facet normal 0.608761429008706 -0.793353340291247 -7.93366512417641e-016
outer loop
vertex 3.09085213861888 63.1057989313691 6.00000000000006
vertex 1.75499814951861 62.0807621135332 3.77170517040781e-014
vertex 3.09085213861884 63.1057989313691 3.24296145493008e-014
endloop
endfacet
facet normal 0.608761429008706 -0.793353340291247 -7.93366512417641e-016
outer loop
vertex 1.75499814951861 62.0807621135332 3.77170517040781e-014
vertex 3.09085213861888 63.1057989313691 6.00000000000006
vertex 1.75499814951861 62.0807621135332 6.00000000000007
endloop
endfacet
facet normal 0.793353340291235 0.608761429008721 7.98982673777833e-016
outer loop
vertex 19.8807621135332 49.0755062252074 -1.78010384210836e-013
vertex 18.8557252956972 50.4113602143076 5.99999999999991
vertex 19.8807621135332 49.0755062252073 5.99999999999986
endloop
endfacet
facet normal 0.793353340291235 0.608761429008721 7.98982673777833e-016
outer loop
vertex 18.8557252956972 50.4113602143076 5.99999999999991
vertex 19.8807621135332 49.0755062252074 -1.78010384210836e-013
vertex 18.8557252956972 50.4113602143076 -1.2125855874956e-013
endloop
endfacet
facet normal 0.5 0.866025403784438 -2.22132628037914e-016
outer loop
vertex -2.25597318603832e-014 74.6410161513775 5.07593966858622e-014
vertex 34.6410161513776 54.6410161513775 5.99999999999987
vertex 34.6410161513775 54.6410161513775 -1.67083014090963e-013
endloop
endfacet
facet normal 0.5 0.866025403784438 -2.22132628037914e-016
outer loop
vertex 34.6410161513776 54.6410161513775 5.99999999999987
vertex -2.25597318603832e-014 74.6410161513775 5.07593966858622e-014
vertex -2.25597318603832e-014 74.6410161513775 6.00000000000008
endloop
endfacet
facet normal 1.0 -2.6049734524876e-015 -3.75995531006387e-015
outer loop
vertex 34.6410161513775 54.6410161513775 -1.67083014090963e-013
vertex 34.6410161513775 20.0 5.99999999999983
vertex 34.6410161513775 20.0 -1.60033097884593e-013
endloop
endfacet
facet normal 1.0 -2.6049734524876e-015 -3.75995531006387e-015
outer loop
vertex 34.6410161513775 20.0 5.99999999999983
vertex 34.6410161513775 54.6410161513775 -1.67083014090963e-013
vertex 34.6410161513776 54.6410161513775 5.99999999999987
endloop
endfacet
facet normal 0.793353340291231 -0.608761429008726 -4.12586271259216e-015
outer loop
vertex 18.8557252956972 24.22965593707 -8.28365154248445e-014
vertex 19.8807621135332 25.5655099261702 5.99999999999995
vertex 18.8557252956972 24.2296559370699 5.99999999999995
endloop
endfacet
facet normal 0.793353340291231 -0.608761429008726 -4.12586271259216e-015
outer loop
vertex 19.8807621135332 25.5655099261702 5.99999999999995
vertex 18.8557252956972 24.22965593707 -8.28365154248445e-014
vertex 19.8807621135332 25.5655099261702 -8.45989944764369e-014
endloop
endfacet
facet normal 0.866025403784436 -0.500000000000005 3.44927779523817e-015
outer loop
vertex 27.5249907475931 44.315698604072 5.99999999999987
vertex 30.0249907475931 48.6458256229942 7.99999999999998
vertex 27.524990747593 44.315698604072 7.99999999999998
endloop
endfacet
facet normal 0.866025403784436 -0.500000000000005 3.44927779523817e-015
outer loop
vertex 30.0249907475931 48.6458256229942 7.99999999999998
vertex 27.5249907475931 44.315698604072 5.99999999999987
vertex 30.0249907475931 48.6458256229942 5.99999999999987
endloop
endfacet
facet normal 0.5 -0.866025403784439 -6.3083418024658e-015
outer loop
vertex 30.0249907475931 25.9951905283832 7.99999999999968
vertex 24.1360180018589 22.5951905283832 5.99999999999987
vertex 30.0249907475931 25.9951905283832 5.99999999999979
endloop
endfacet
facet normal 0.5 -0.866025403784439 -6.3083418024658e-015
outer loop
vertex 24.1360180018589 22.5951905283832 5.99999999999987
vertex 30.0249907475931 25.9951905283832 7.99999999999968
vertex 24.1360180018589 22.5951905283832 7.99999999999971
endloop
endfacet
facet normal -0.130526192220026 0.991444861373814 4.1698323497921e-015
outer loop
vertex 3.09085213861879 11.5352172200084 -2.32647234810202e-014
vertex 4.76025403784437 11.7549981495185 5.99999999999995
vertex 4.76025403784441 11.7549981495186 -7.89590615113411e-014
endloop
endfacet
facet normal -0.130526192220026 0.991444861373814 4.1698323497921e-015
outer loop
vertex 4.76025403784437 11.7549981495185 5.99999999999995
vertex 3.09085213861879 11.5352172200084 -2.32647234810202e-014
vertex 3.09085213861879 11.5352172200084 5.99999999999997
endloop
endfacet
facet normal 0.130526192220097 -0.991444861373804 -3.49352365562941e-015
outer loop
vertex 4.22965593706994 15.7852908556803 5.99999999999998
vertex 2.56025403784432 15.5655099261701 -4.58244553414033e-015
vertex 4.22965593706997 15.7852908556803 -1.5157319843695e-014
endloop
endfacet
facet normal 0.130526192220097 -0.991444861373804 -3.49352365562941e-015
outer loop
vertex 2.56025403784432 15.5655099261701 -4.58244553414033e-015
vertex 4.22965593706994 15.7852908556803 5.99999999999998
vertex 2.56025403784435 15.56550992617 5.99999999999998
endloop
endfacet
facet normal -0.991444861373812 0.130526192220039 -3.23576589370155e-015
outer loop
vertex 5.78529085568032 61.5501640127587 6.00000000000004
vertex 5.56550992617017 59.8807621135332 3.87745391350336e-015
vertex 5.56550992617013 59.8807621135331 6.00000000000004
endloop
endfacet
facet normal -0.991444861373812 0.130526192220039 -3.23576589370155e-015
outer loop
vertex 5.56550992617017 59.8807621135332 3.87745391350336e-015
vertex 5.78529085568032 61.5501640127587 6.00000000000004
vertex 5.78529085568032 61.5501640127587 8.45989944764369e-015
endloop
endfacet
facet normal -3.45142844397003e-015 1.25263386493986e-015 1.0
outer loop
vertex 0.504998149518586 59.915698604072 8.00000000000006
vertex -3.75000000000013 68.1458256229943 8.00000000000004
vertex -6.25 63.815698604072 8.00000000000003
endloop
endfacet
facet normal -3.45142844397003e-015 1.25263386493986e-015 1.0
outer loop
vertex -3.75000000000013 68.1458256229943 8.00000000000004
vertex 0.504998149518586 59.915698604072 8.00000000000006
vertex 3.00499814951854 64.2458256229943 8.00000000000006
endloop
endfacet
facet normal 0.86602540378445 0.49999999999998 8.74781828931897e-015
outer loop
vertex 30.0249907475931 25.9951905283832 5.99999999999979
vertex 27.5249907475929 30.3253175473059 7.99999999999975
vertex 30.0249907475931 25.9951905283832 7.99999999999968
endloop
endfacet
facet normal 0.86602540378445 0.49999999999998 8.74781828931897e-015
outer loop
vertex 27.5249907475929 30.3253175473059 7.99999999999975
vertex 30.0249907475931 25.9951905283832 5.99999999999979
vertex 27.5249907475929 30.3253175473059 5.99999999999987
endloop
endfacet
facet normal -0.659967656971148 -0.751294011524126 -1.07048463492883e-015
outer loop
vertex -7.10009081327942 54.7731082002306 7.04991620636974e-014
vertex -9.99999999999996 57.3205080756888 6.00000000000008
vertex -9.99999999999996 57.3205080756888 5.4284354789047e-014
endloop
endfacet
facet normal -0.659967656971148 -0.751294011524126 -1.07048463492883e-015
outer loop
vertex -9.99999999999996 57.3205080756888 6.00000000000008
vertex -7.10009081327942 54.7731082002306 7.04991620636974e-014
vertex -7.10009081327947 54.7731082002306 6.00000000000006
endloop
endfacet
facet normal 5.77760282669311e-015 -4.81579909981186e-015 1.0
outer loop
vertex 17.8255062252074 49.915698604072 7.9999999999999
vertex 6.81550992617015 62.0458256229942 8.00000000000003
vertex 4.31550992617009 57.715698604072 8.00000000000001
endloop
endfacet
facet normal 5.77760282669311e-015 -4.81579909981186e-015 1.0
outer loop
vertex 6.81550992617015 62.0458256229942 8.00000000000003
vertex 17.8255062252074 49.915698604072 7.9999999999999
vertex 20.3255062252074 54.2458256229942 7.99999999999991
endloop
endfacet
facet normal -0.130526192220045 -0.991444861373811 -4.85871853685878e-015
outer loop
vertex 22.0807621135331 52.8860180018589 -8.84764483899403e-014
vertex 20.4113602143076 53.1057989313691 5.99999999999991
vertex 20.4113602143076 53.1057989313691 -1.21611054559878e-013
endloop
endfacet
facet normal -0.130526192220045 -0.991444861373811 -4.85871853685878e-015
outer loop
vertex 20.4113602143076 53.1057989313691 5.99999999999991
vertex 22.0807621135331 52.8860180018589 -8.84764483899403e-014
vertex 22.0807621135332 52.8860180018589 5.9999999999999
endloop
endfacet
facet normal -0.866025403784436 -0.500000000000004 4.01985550937779e-015
outer loop
vertex -6.25000000000001 10.8253175473054 7.99999999999903
vertex -3.74999999999999 6.49519052838324 5.99999999999999
vertex -3.74999999999996 6.4951905283832 7.99999999999895
endloop
endfacet
facet normal -0.866025403784436 -0.500000000000004 4.01985550937779e-015
outer loop
vertex 2.25597318603832e-014 4.51194637207664e-014 6.00000000000004
vertex -10.0000000000001 17.3205080756887 -4.86444218239512e-014
vertex 0.0 0.0 0.0
endloop
endfacet
facet normal -0.866025403784436 -0.500000000000004 4.01985550937779e-015
outer loop
vertex -10.0000000000001 17.3205080756887 -4.86444218239512e-014
vertex 2.25597318603832e-014 4.51194637207664e-014 6.00000000000004
vertex -3.74999999999999 6.49519052838324 5.99999999999999
endloop
endfacet
facet normal -0.866025403784436 -0.500000000000004 4.01985550937779e-015
outer loop
vertex -10.0000000000001 17.3205080756887 -4.86444218239512e-014
vertex -3.74999999999999 6.49519052838324 5.99999999999999
vertex -6.25 10.8253175473054 6.00000000000002
endloop
endfacet
facet normal -0.866025403784436 -0.500000000000004 4.01985550937779e-015
outer loop
vertex -6.25 10.8253175473054 6.00000000000002
vertex -3.74999999999999 6.49519052838324 5.99999999999999
vertex -6.25000000000001 10.8253175473054 7.99999999999903
endloop
endfacet
facet normal -0.866025403784436 -0.500000000000004 4.01985550937779e-015
outer loop
vertex -10.0000000000001 17.3205080756887 -4.86444218239512e-014
vertex -6.25 10.8253175473054 6.00000000000002
vertex -10.0 17.3205080756887 5.99999999999999
endloop
endfacet
facet normal -0.767751730118532 -0.640747439245762 -6.58614567773937e-015
outer loop
vertex -6.64658615460341 54.2297131509656 6.00000000000002
vertex -4.62687878585101 51.8096740970163 4.26519930485369e-014
vertex -4.62687878585101 51.8096740970163 6.00000000000003
endloop
endfacet
facet normal -0.767751730118532 -0.640747439245762 -6.58614567773937e-015
outer loop
vertex -4.62687878585101 51.8096740970163 4.26519930485369e-014
vertex -6.64658615460341 54.2297131509656 6.00000000000002
vertex -7.10009081327942 54.7731082002306 7.04991620636974e-014
endloop
endfacet
facet normal -0.767751730118532 -0.640747439245762 -6.58614567773937e-015
outer loop
vertex -7.10009081327942 54.7731082002306 7.04991620636974e-014
vertex -6.64658615460341 54.2297131509656 6.00000000000002
vertex -7.10009081327947 54.7731082002306 6.00000000000006
endloop
endfacet
facet normal 0.866025403784432 0.500000000000011 3.18946375797592e-014
outer loop
vertex 3.00499814951863 10.3951905283833 5.99999999999996
vertex 0.504998149518574 14.7253175473054 7.99999999999905
vertex 3.00499814951864 10.3951905283832 7.99999999999891
endloop
endfacet
facet normal 0.866025403784432 0.500000000000011 3.18946375797592e-014
outer loop
vertex 0.504998149518574 14.7253175473054 7.99999999999905
vertex 3.00499814951863 10.3951905283833 5.99999999999996
vertex 1.75499814951868 12.5602540378444 6.00000000000002
endloop
endfacet
facet normal 0.866025403784432 0.500000000000011 3.18946375797592e-014
outer loop
vertex 0.504998149518574 14.7253175473054 7.99999999999905
vertex 1.75499814951868 12.5602540378444 6.00000000000002
vertex 0.504998149518566 14.7253175473054 5.99999999999999
endloop
endfacet
facet normal -0.997015803401989 0.0771977186624422 -1.43987946730959e-015
outer loop
vertex 6.76791955811495e-014 37.3205080756888 5.99999999999994
vertex -0.297974388334166 33.4721408010375 3.56020768421672e-014
vertex -0.297974388334211 33.4721408010374 6.00000000000002
endloop
endfacet
facet normal -0.997015803401989 0.0771977186624422 -1.43987946730959e-015
outer loop
vertex -0.297974388334166 33.4721408010375 3.56020768421672e-014
vertex 6.76791955811495e-014 37.3205080756888 5.99999999999994
vertex 4.51194637207664e-014 37.3205080756888 -4.22994972382185e-014
endloop
endfacet
facet normal -0.5 0.866025403784439 1.36276338384168e-014
outer loop
vertex 4.3155099261701 16.9253175473054 6.00000000000002
vertex 17.8255062252074 24.7253175473054 7.99999999999904
vertex 17.8255062252074 24.7253175473055 5.99999999999996
endloop
endfacet
facet normal -0.5 0.866025403784439 1.36276338384168e-014
outer loop
vertex 17.8255062252074 24.7253175473054 7.99999999999904
vertex 4.3155099261701 16.9253175473054 6.00000000000002
vertex 4.31550992617012 16.9253175473054 7.99999999999912
endloop
endfacet
facet normal -0.926281913746792 -0.37683128355483 3.31847269305977e-016
outer loop
vertex -2.63932022500207 48.5008479631877 5.99999999999996
vertex -1.18479445444862 44.9255054342115 3.91270349453521e-014
vertex -1.1847944544486 44.9255054342114 6.00000000000003
endloop
endfacet
facet normal -0.926281913746792 -0.37683128355483 3.31847269305977e-016
outer loop
vertex -1.18479445444862 44.9255054342115 3.91270349453521e-014
vertex -2.63932022500207 48.5008479631877 5.99999999999996
vertex -2.63932022500207 48.5008479631877 -2.8199664825479e-014
endloop
endfacet
facet normal -0.866025403784428 -0.500000000000019 -2.84317775354955e-015
outer loop
vertex 4.31550992617012 16.9253175473054 7.99999999999912
vertex 6.81550992617017 12.5951905283833 5.99999999999995
vertex 6.81550992617019 12.5951905283833 7.99999999999898
endloop
endfacet
facet normal -0.866025403784428 -0.500000000000019 -2.84317775354955e-015
outer loop
vertex 6.81550992617017 12.5951905283833 5.99999999999995
vertex 4.31550992617012 16.9253175473054 7.99999999999912
vertex 5.56550992617015 14.7602540378443 6.00000000000001
endloop
endfacet
facet normal -0.866025403784428 -0.500000000000019 -2.84317775354955e-015
outer loop
vertex 5.56550992617015 14.7602540378443 6.00000000000001
vertex 4.31550992617012 16.9253175473054 7.99999999999912
vertex 4.3155099261701 16.9253175473054 6.00000000000002
endloop
endfacet
facet normal -4.28578617736513e-015 1.02826797486618e-015 -1.0
outer loop
vertex 19.8807621135332 49.0755062252074 -1.78010384210836e-013
vertex 18.8557252956972 24.22965593707 -8.28365154248445e-014
vertex 18.8557252956972 50.4113602143076 -1.2125855874956e-013
endloop
endfacet
facet normal -4.28578617736513e-015 1.02826797486618e-015 -1.0
outer loop
vertex 18.8557252956972 24.22965593707 -8.28365154248445e-014
vertex 19.8807621135332 49.0755062252074 -1.78010384210836e-013
vertex 19.8807621135332 25.5655099261702 -8.45989944764369e-014
endloop
endfacet
facet normal -4.28578617736513e-015 1.02826797486618e-015 -1.0
outer loop
vertex 19.8807621135332 25.5655099261702 -8.45989944764369e-014
vertex 19.8807621135332 49.0755062252074 -1.78010384210836e-013
vertex 21.5501640127586 48.8557252956972 -1.45228273851217e-013
endloop
endfacet
facet normal -4.28578617736513e-015 1.02826797486618e-015 -1.0
outer loop
vertex 19.8807621135332 25.5655099261702 -8.45989944764369e-014
vertex 21.5501640127586 48.8557252956972 -1.45228273851217e-013
vertex 21.5501640127586 25.7852908556804 -9.51738687859915e-014
endloop
endfacet
facet normal -4.28578617736513e-015 1.02826797486618e-015 -1.0
outer loop
vertex 21.5501640127586 25.7852908556804 -9.51738687859915e-014
vertex 21.5501640127586 48.8557252956972 -1.45228273851217e-013
vertex 22.8860180018589 24.7602540378444 -1.07863717957457e-013
endloop
endfacet
facet normal -4.28578617736513e-015 1.02826797486618e-015 -1.0
outer loop
vertex 22.8860180018589 24.7602540378444 -1.07863717957457e-013
vertex 21.5501640127586 48.8557252956972 -1.45228273851217e-013
vertex 22.886018001859 49.8807621135332 -1.50163215195676e-013
endloop
endfacet
facet normal -4.28578617736513e-015 1.02826797486618e-015 -1.0
outer loop
vertex 22.8860180018589 24.7602540378444 -1.07863717957457e-013
vertex 22.886018001859 49.8807621135332 -1.50163215195676e-013
vertex 23.105798931369 23.0908521386189 -1.15618625784464e-013
endloop
endfacet
facet normal -4.28578617736513e-015 1.02826797486618e-015 -1.0
outer loop
vertex 23.105798931369 23.0908521386189 -1.15618625784464e-013
vertex 22.886018001859 49.8807621135332 -1.50163215195676e-013
vertex 23.1057989313691 51.5501640127588 -1.45580769661535e-013
endloop
endfacet
facet normal -4.28578617736513e-015 1.02826797486618e-015 -1.0
outer loop
vertex -2.25597318603832e-014 74.6410161513775 5.07593966858622e-014
vertex -7.10009081327942 54.7731082002306 7.04991620636974e-014
vertex -9.99999999999996 57.3205080756888 5.4284354789047e-014
endloop
endfacet
facet normal -4.28578617736513e-015 1.02826797486618e-015 -1.0
outer loop
vertex -7.10009081327942 54.7731082002306 7.04991620636974e-014
vertex -2.25597318603832e-014 74.6410161513775 5.07593966858622e-014
vertex -4.62687878585101 51.8096740970163 4.26519930485369e-014
endloop
endfacet
facet normal -4.28578617736513e-015 1.02826797486618e-015 -1.0
outer loop
vertex -4.62687878585101 51.8096740970163 4.26519930485369e-014
vertex -2.25597318603832e-014 74.6410161513775 5.07593966858622e-014
vertex -2.63932022500207 48.5008479631877 -2.8199664825479e-014
endloop
endfacet
facet normal -4.28578617736513e-015 1.02826797486618e-015 -1.0
outer loop
vertex -2.63932022500207 48.5008479631877 -2.8199664825479e-014
vertex -2.25597318603832e-014 74.6410161513775 5.07593966858622e-014
vertex -1.18479445444862 44.9255054342115 3.91270349453521e-014
endloop
endfacet
facet normal -4.28578617736513e-015 1.02826797486618e-015 -1.0
outer loop
vertex -1.18479445444862 44.9255054342115 3.91270349453521e-014
vertex -2.25597318603832e-014 74.6410161513775 5.07593966858622e-014
vertex -0.297974388334256 41.1688753503401 1.90347737571983e-014
endloop
endfacet
facet normal -4.28578617736513e-015 1.02826797486618e-015 -1.0
outer loop
vertex -0.297974388334256 41.1688753503401 1.90347737571983e-014
vertex -2.25597318603832e-014 74.6410161513775 5.07593966858622e-014
vertex 4.51194637207664e-014 37.3205080756888 -4.22994972382185e-014
endloop
endfacet
facet normal -4.28578617736513e-015 1.02826797486618e-015 -1.0
outer loop
vertex 4.51194637207664e-014 37.3205080756888 -4.22994972382185e-014
vertex -2.25597318603832e-014 74.6410161513775 5.07593966858622e-014
vertex 1.53521722000842 60.4113602143076 3.27821103596193e-014
endloop
endfacet
facet normal -4.28578617736513e-015 1.02826797486618e-015 -1.0
outer loop
vertex 1.53521722000842 60.4113602143076 3.27821103596193e-014
vertex -2.25597318603832e-014 74.6410161513775 5.07593966858622e-014
vertex 1.75499814951861 62.0807621135332 3.77170517040781e-014
endloop
endfacet
facet normal -4.28578617736513e-015 1.02826797486618e-015 -1.0
outer loop
vertex 1.75499814951861 62.0807621135332 3.77170517040781e-014
vertex -2.25597318603832e-014 74.6410161513775 5.07593966858622e-014
vertex 3.09085213861884 63.1057989313691 3.24296145493008e-014
endloop
endfacet
facet normal -4.28578617736513e-015 1.02826797486618e-015 -1.0
outer loop
vertex 3.09085213861884 63.1057989313691 3.24296145493008e-014
vertex -2.25597318603832e-014 74.6410161513775 5.07593966858622e-014
vertex 4.76025403784423 62.8860180018589 6.55642207192386e-014
endloop
endfacet
facet normal -4.28578617736513e-015 1.02826797486618e-015 -1.0
outer loop
vertex 4.76025403784423 62.8860180018589 6.55642207192386e-014
vertex -2.25597318603832e-014 74.6410161513775 5.07593966858622e-014
vertex 34.6410161513775 54.6410161513775 -1.67083014090963e-013
endloop
endfacet
facet normal -4.28578617736513e-015 1.02826797486618e-015 -1.0
outer loop
vertex 4.76025403784423 62.8860180018589 6.55642207192386e-014
vertex 34.6410161513775 54.6410161513775 -1.67083014090963e-013
vertex 5.78529085568032 61.5501640127587 8.45989944764369e-015
endloop
endfacet
facet normal -4.28578617736513e-015 1.02826797486618e-015 -1.0
outer loop
vertex 5.78529085568032 61.5501640127587 8.45989944764369e-015
vertex 34.6410161513775 54.6410161513775 -1.67083014090963e-013
vertex 20.4113602143076 53.1057989313691 -1.21611054559878e-013
endloop
endfacet
facet normal -4.28578617736513e-015 1.02826797486618e-015 -1.0
outer loop
vertex 5.78529085568032 61.5501640127587 8.45989944764369e-015
vertex 20.4113602143076 53.1057989313691 -1.21611054559878e-013
vertex 19.0755062252074 52.0807621135331 -1.16323617405101e-013
endloop
endfacet
facet normal -4.28578617736513e-015 1.02826797486618e-015 -1.0
outer loop
vertex 5.78529085568032 61.5501640127587 8.45989944764369e-015
vertex 19.0755062252074 52.0807621135331 -1.16323617405101e-013
vertex 5.78529085568034 13.0908521386189 -3.56020768421672e-014
endloop
endfacet
facet normal -4.28578617736513e-015 1.02826797486618e-015 -1.0
outer loop
vertex 5.78529085568034 13.0908521386189 -3.56020768421672e-014
vertex 19.0755062252074 52.0807621135331 -1.16323617405101e-013
vertex 18.8557252956972 50.4113602143076 -1.2125855874956e-013
endloop
endfacet
facet normal -4.28578617736513e-015 1.02826797486618e-015 -1.0
outer loop
vertex 20.4113602143076 53.1057989313691 -1.21611054559878e-013
vertex 34.6410161513775 54.6410161513775 -1.67083014090963e-013
vertex 22.0807621135331 52.8860180018589 -8.84764483899403e-014
endloop
endfacet
facet normal -4.28578617736513e-015 1.02826797486618e-015 -1.0
outer loop
vertex 22.0807621135331 52.8860180018589 -8.84764483899403e-014
vertex 34.6410161513775 54.6410161513775 -1.67083014090963e-013
vertex 23.1057989313691 51.5501640127588 -1.45580769661535e-013
endloop
endfacet
facet normal -4.28578617736513e-015 1.02826797486618e-015 -1.0
outer loop
vertex 23.1057989313691 51.5501640127588 -1.45580769661535e-013
vertex 34.6410161513775 54.6410161513775 -1.67083014090963e-013
vertex 34.6410161513775 20.0 -1.60033097884593e-013
endloop
endfacet
facet normal -4.28578617736513e-015 1.02826797486618e-015 -1.0
outer loop
vertex -7.10009081327947 19.867907951147 -5.88668003231874e-014
vertex 0.0 0.0 0.0
vertex -10.0000000000001 17.3205080756887 -4.86444218239512e-014
endloop
endfacet
facet normal -4.28578617736513e-015 1.02826797486618e-015 -1.0
outer loop
vertex 0.0 0.0 0.0
vertex -7.10009081327947 19.867907951147 -5.88668003231874e-014
vertex -4.62687878585112 22.8313420543612 2.57321941532496e-014
endloop
endfacet
facet normal -4.28578617736513e-015 1.02826797486618e-015 -1.0
outer loop
vertex 0.0 0.0 0.0
vertex -4.62687878585112 22.8313420543612 2.57321941532496e-014
vertex -2.63932022500214 26.1401681881898 2.43222109119756e-014
endloop
endfacet
facet normal -4.28578617736513e-015 1.02826797486618e-015 -1.0
outer loop
vertex 0.0 0.0 0.0
vertex -2.63932022500214 26.1401681881898 2.43222109119756e-014
vertex -1.1847944544486 29.7155107171661 2.78471690151605e-014
endloop
endfacet
facet normal -4.28578617736513e-015 1.02826797486618e-015 -1.0
outer loop
vertex 0.0 0.0 0.0
vertex -1.1847944544486 29.7155107171661 2.78471690151605e-014
vertex -0.297974388334166 33.4721408010375 3.56020768421672e-014
endloop
endfacet
facet normal -4.28578617736513e-015 1.02826797486618e-015 -1.0
outer loop
vertex 0.0 0.0 0.0
vertex -0.297974388334166 33.4721408010375 3.56020768421672e-014
vertex 4.51194637207664e-014 37.3205080756888 -4.22994972382185e-014
endloop
endfacet
facet normal -4.28578617736513e-015 1.02826797486618e-015 -1.0
outer loop
vertex 0.0 0.0 0.0
vertex 4.51194637207664e-014 37.3205080756888 -4.22994972382185e-014
vertex 1.53521722000842 14.2296559370699 -2.8199664825479e-015
endloop
endfacet
facet normal -4.28578617736513e-015 1.02826797486618e-015 -1.0
outer loop
vertex 0.0 0.0 0.0
vertex 1.53521722000842 14.2296559370699 -2.8199664825479e-015
vertex 1.75499814951868 12.5602540378444 -1.05748743095546e-014
endloop
endfacet
facet normal -4.28578617736513e-015 1.02826797486618e-015 -1.0
outer loop
vertex 0.0 0.0 0.0
vertex 1.75499814951868 12.5602540378444 -1.05748743095546e-014
vertex 3.09085213861879 11.5352172200084 -2.32647234810202e-014
endloop
endfacet
facet normal -4.28578617736513e-015 1.02826797486618e-015 -1.0
outer loop
vertex 0.0 0.0 0.0
vertex 3.09085213861879 11.5352172200084 -2.32647234810202e-014
vertex 4.76025403784441 11.7549981495186 -7.89590615113411e-014
endloop
endfacet
facet normal -4.28578617736513e-015 1.02826797486618e-015 -1.0
outer loop
vertex 0.0 0.0 0.0
vertex 4.76025403784441 11.7549981495186 -7.89590615113411e-014
vertex 34.6410161513775 20.0 -1.60033097884593e-013
endloop
endfacet
facet normal -4.28578617736513e-015 1.02826797486618e-015 -1.0
outer loop
vertex 1.53521722000842 14.2296559370699 -2.8199664825479e-015
vertex 4.51194637207664e-014 37.3205080756888 -4.22994972382185e-014
vertex 1.53521722000842 60.4113602143076 3.27821103596193e-014
endloop
endfacet
facet normal -4.28578617736513e-015 1.02826797486618e-015 -1.0
outer loop
vertex 34.6410161513775 20.0 -1.60033097884593e-013
vertex 4.76025403784441 11.7549981495186 -7.89590615113411e-014
vertex 5.78529085568034 13.0908521386189 -3.56020768421672e-014
endloop
endfacet
facet normal -4.28578617736513e-015 1.02826797486618e-015 -1.0
outer loop
vertex 34.6410161513775 20.0 -1.60033097884593e-013
vertex 5.78529085568034 13.0908521386189 -3.56020768421672e-014
vertex 20.4113602143075 21.5352172200085 -1.03281272423317e-013
endloop
endfacet
facet normal -4.28578617736513e-015 1.02826797486618e-015 -1.0
outer loop
vertex 20.4113602143075 21.5352172200085 -1.03281272423317e-013
vertex 5.78529085568034 13.0908521386189 -3.56020768421672e-014
vertex 19.0755062252073 22.5602540378444 -9.05914232518512e-014
endloop
endfacet
facet normal -4.28578617736513e-015 1.02826797486618e-015 -1.0
outer loop
vertex 19.0755062252073 22.5602540378444 -9.05914232518512e-014
vertex 5.78529085568034 13.0908521386189 -3.56020768421672e-014
vertex 18.8557252956972 24.22965593707 -8.28365154248445e-014
endloop
endfacet
facet normal -4.28578617736513e-015 1.02826797486618e-015 -1.0
outer loop
vertex 18.8557252956972 24.22965593707 -8.28365154248445e-014
vertex 5.78529085568034 13.0908521386189 -3.56020768421672e-014
vertex 18.8557252956972 50.4113602143076 -1.2125855874956e-013
endloop
endfacet
facet normal -4.28578617736513e-015 1.02826797486618e-015 -1.0
outer loop
vertex 34.6410161513775 20.0 -1.60033097884593e-013
vertex 20.4113602143075 21.5352172200085 -1.03281272423317e-013
vertex 22.080762113533 21.7549981495186 -1.13856146732871e-013
endloop
endfacet
facet normal -4.28578617736513e-015 1.02826797486618e-015 -1.0
outer loop
vertex 34.6410161513775 20.0 -1.60033097884593e-013
vertex 22.080762113533 21.7549981495186 -1.13856146732871e-013
vertex 23.105798931369 23.0908521386189 -1.15618625784464e-013
endloop
endfacet
facet normal -4.28578617736513e-015 1.02826797486618e-015 -1.0
outer loop
vertex 34.6410161513775 20.0 -1.60033097884593e-013
vertex 23.105798931369 23.0908521386189 -1.15618625784464e-013
vertex 23.1057989313691 51.5501640127588 -1.45580769661535e-013
endloop
endfacet
facet normal -4.28578617736513e-015 1.02826797486618e-015 -1.0
outer loop
vertex 2.56025403784432 59.0755062252073 2.11497486191092e-014
vertex 1.53521722000842 14.2296559370699 -2.8199664825479e-015
vertex 1.53521722000842 60.4113602143076 3.27821103596193e-014
endloop
endfacet
facet normal -4.28578617736513e-015 1.02826797486618e-015 -1.0
outer loop
vertex 1.53521722000842 14.2296559370699 -2.8199664825479e-015
vertex 2.56025403784432 59.0755062252073 2.11497486191092e-014
vertex 2.56025403784432 15.5655099261701 -4.58244553414033e-015
endloop
endfacet
facet normal -4.28578617736513e-015 1.02826797486618e-015 -1.0
outer loop
vertex 2.56025403784432 15.5655099261701 -4.58244553414033e-015
vertex 2.56025403784432 59.0755062252073 2.11497486191092e-014
vertex 4.22965593706992 58.8557252956972 8.81239525796218e-015
endloop
endfacet
facet normal -4.28578617736513e-015 1.02826797486618e-015 -1.0
outer loop
vertex 2.56025403784432 15.5655099261701 -4.58244553414033e-015
vertex 4.22965593706992 58.8557252956972 8.81239525796218e-015
vertex 4.22965593706997 15.7852908556803 -1.5157319843695e-014
endloop
endfacet
facet normal -4.28578617736513e-015 1.02826797486618e-015 -1.0
outer loop
vertex 4.22965593706997 15.7852908556803 -1.5157319843695e-014
vertex 4.22965593706992 58.8557252956972 8.81239525796218e-015
vertex 5.56550992617017 59.8807621135332 3.87745391350336e-015
endloop
endfacet
facet normal -4.28578617736513e-015 1.02826797486618e-015 -1.0
outer loop
vertex 4.22965593706997 15.7852908556803 -1.5157319843695e-014
vertex 5.56550992617017 59.8807621135332 3.87745391350336e-015
vertex 5.56550992617015 14.7602540378443 -2.8199664825479e-014
endloop
endfacet
facet normal -4.28578617736513e-015 1.02826797486618e-015 -1.0
outer loop
vertex 5.56550992617015 14.7602540378443 -2.8199664825479e-014
vertex 5.56550992617017 59.8807621135332 3.87745391350336e-015
vertex 5.78529085568034 13.0908521386189 -3.56020768421672e-014
endloop
endfacet
facet normal -4.28578617736513e-015 1.02826797486618e-015 -1.0
outer loop
vertex 5.78529085568034 13.0908521386189 -3.56020768421672e-014
vertex 5.56550992617017 59.8807621135332 3.87745391350336e-015
vertex 5.78529085568032 61.5501640127587 8.45989944764369e-015
endloop
endfacet
facet normal 5.16732985155814e-015 -7.45891472405448e-016 1.0
outer loop
vertex -6.25 10.8253175473054 6.00000000000002
vertex -7.10009081327942 19.867907951147 5.99999999999998
vertex -10.0 17.3205080756887 5.99999999999999
endloop
endfacet
facet normal 5.16732985155814e-015 -7.45891472405448e-016 1.0
outer loop
vertex -7.10009081327942 19.867907951147 5.99999999999998
vertex -6.25 10.8253175473054 6.00000000000002
vertex -6.64658615460332 20.411303000412 5.99999999999998
endloop
endfacet
facet normal 5.16732985155814e-015 -7.45891472405448e-016 1.0
outer loop
vertex -6.64658615460332 20.411303000412 5.99999999999998
vertex -6.25 10.8253175473054 6.00000000000002
vertex -4.62687878585108 22.8313420543612 6.00000000000002
endloop
endfacet
facet normal 5.16732985155814e-015 -7.45891472405448e-016 1.0
outer loop
vertex -4.62687878585108 22.8313420543612 6.00000000000002
vertex -6.25 10.8253175473054 6.00000000000002
vertex 0.504998149518566 14.7253175473054 5.99999999999999
endloop
endfacet
facet normal 5.16732985155814e-015 -7.45891472405448e-016 1.0
outer loop
vertex -4.62687878585108 22.8313420543612 6.00000000000002
vertex 0.504998149518566 14.7253175473054 5.99999999999999
vertex -2.63932022500209 26.1401681881898 6.00000000000001
endloop
endfacet
facet normal 5.16732985155814e-015 -7.45891472405448e-016 1.0
outer loop
vertex -2.63932022500209 26.1401681881898 6.00000000000001
vertex 0.504998149518566 14.7253175473054 5.99999999999999
vertex -1.18479445444853 29.7155107171661 6.00000000000002
endloop
endfacet
facet normal 5.16732985155814e-015 -7.45891472405448e-016 1.0
outer loop
vertex -1.18479445444853 29.7155107171661 6.00000000000002
vertex 0.504998149518566 14.7253175473054 5.99999999999999
vertex -0.297974388334211 33.4721408010374 6.00000000000002
endloop
endfacet
facet normal 5.16732985155814e-015 -7.45891472405448e-016 1.0
outer loop
vertex -0.297974388334211 33.4721408010374 6.00000000000002
vertex 0.504998149518566 14.7253175473054 5.99999999999999
vertex 6.76791955811495e-014 37.3205080756888 5.99999999999994
endloop
endfacet
facet normal 5.16732985155814e-015 -7.45891472405448e-016 1.0
outer loop
vertex 1.75499814951861 62.0807621135332 6.00000000000007
vertex 0.504998149518634 59.9156986040721 6.00000000000006
vertex 1.53521722000842 60.4113602143076 6.00000000000007
endloop
endfacet
facet normal 5.16732985155814e-015 -7.45891472405448e-016 1.0
outer loop
vertex -7.10009081327947 54.7731082002306 6.00000000000006
vertex -6.25 63.815698604072 6.00000000000003
vertex -9.99999999999996 57.3205080756888 6.00000000000008
endloop
endfacet
facet normal 5.16732985155814e-015 -7.45891472405448e-016 1.0
outer loop
vertex -6.25 63.815698604072 6.00000000000003
vertex -7.10009081327947 54.7731082002306 6.00000000000006
vertex -6.64658615460341 54.2297131509656 6.00000000000002
endloop
endfacet
facet normal 5.16732985155814e-015 -7.45891472405448e-016 1.0
outer loop
vertex -6.25 63.815698604072 6.00000000000003
vertex -6.64658615460341 54.2297131509656 6.00000000000002
vertex -4.62687878585101 51.8096740970163 6.00000000000003
endloop
endfacet
facet normal 5.16732985155814e-015 -7.45891472405448e-016 1.0
outer loop
vertex -6.25 63.815698604072 6.00000000000003
vertex -4.62687878585101 51.8096740970163 6.00000000000003
vertex 0.504998149518634 59.9156986040721 6.00000000000006
endloop
endfacet
facet normal 5.16732985155814e-015 -7.45891472405448e-016 1.0
outer loop
vertex 0.504998149518634 59.9156986040721 6.00000000000006
vertex -4.62687878585101 51.8096740970163 6.00000000000003
vertex -2.63932022500207 48.5008479631877 5.99999999999996
endloop
endfacet
facet normal 5.16732985155814e-015 -7.45891472405448e-016 1.0
outer loop
vertex 0.504998149518634 59.9156986040721 6.00000000000006
vertex -2.63932022500207 48.5008479631877 5.99999999999996
vertex -1.1847944544486 44.9255054342114 6.00000000000003
endloop
endfacet
facet normal 5.16732985155814e-015 -7.45891472405448e-016 1.0
outer loop
vertex 0.504998149518634 59.9156986040721 6.00000000000006
vertex -1.1847944544486 44.9255054342114 6.00000000000003
vertex -0.297974388334256 41.1688753503401 6.00000000000001
endloop
endfacet
facet normal 5.16732985155814e-015 -7.45891472405448e-016 1.0
outer loop
vertex 0.504998149518634 59.9156986040721 6.00000000000006
vertex -0.297974388334256 41.1688753503401 6.00000000000001
vertex 6.76791955811495e-014 37.3205080756888 5.99999999999994
endloop
endfacet
facet normal 5.16732985155814e-015 -7.45891472405448e-016 1.0
outer loop
vertex 0.504998149518634 59.9156986040721 6.00000000000006
vertex 6.76791955811495e-014 37.3205080756888 5.99999999999994
vertex 0.504998149518566 14.7253175473054 5.99999999999999
endloop
endfacet
facet normal 5.16732985155814e-015 -7.45891472405448e-016 1.0
outer loop
vertex 0.504998149518634 59.9156986040721 6.00000000000006
vertex 0.504998149518566 14.7253175473054 5.99999999999999
vertex 1.53521722000847 14.2296559370699 5.99999999999999
endloop
endfacet
facet normal 5.16732985155814e-015 -7.45891472405448e-016 1.0
outer loop
vertex 1.53521722000847 14.2296559370699 5.99999999999999
vertex 0.504998149518566 14.7253175473054 5.99999999999999
vertex 1.75499814951868 12.5602540378444 6.00000000000002
endloop
endfacet
facet normal 5.16732985155814e-015 -7.45891472405448e-016 1.0
outer loop
vertex 0.504998149518634 59.9156986040721 6.00000000000006
vertex 1.53521722000847 14.2296559370699 5.99999999999999
vertex 1.53521722000842 60.4113602143076 6.00000000000007
endloop
endfacet
facet normal 5.16732985155814e-015 -7.45891472405448e-016 1.0
outer loop
vertex 3.09085213861888 63.1057989313691 6.00000000000006
vertex 3.00499814951854 64.2458256229942 6.00000000000007
vertex 1.75499814951861 62.0807621135332 6.00000000000007
endloop
endfacet
facet normal 5.16732985155814e-015 -7.45891472405448e-016 1.0
outer loop
vertex 5.56550992617015 14.7602540378443 6.00000000000001
vertex 4.3155099261701 16.9253175473054 6.00000000000002
vertex 4.22965593706994 15.7852908556803 5.99999999999998
endloop
endfacet
facet normal 5.16732985155814e-015 -7.45891472405448e-016 1.0
outer loop
vertex 6.81550992617012 62.0458256229942 6.00000000000004
vertex 5.78529085568032 61.5501640127587 6.00000000000004
vertex 5.56550992617013 59.8807621135331 6.00000000000004
endloop
endfacet
facet normal 5.16732985155814e-015 -7.45891472405448e-016 1.0
outer loop
vertex 17.8255062252074 24.7253175473055 5.99999999999996
vertex 4.3155099261701 57.7156986040721 6.00000000000004
vertex 4.3155099261701 16.9253175473054 6.00000000000002
endloop
endfacet
facet normal 5.16732985155814e-015 -7.45891472405448e-016 1.0
outer loop
vertex 4.3155099261701 57.7156986040721 6.00000000000004
vertex 17.8255062252074 24.7253175473055 5.99999999999996
vertex 17.8255062252074 49.915698604072 5.99999999999991
endloop
endfacet
facet normal 5.16732985155814e-015 -7.45891472405448e-016 1.0
outer loop
vertex 17.8255062252074 49.915698604072 5.99999999999991
vertex 17.8255062252074 24.7253175473055 5.99999999999996
vertex 18.8557252956972 50.4113602143076 5.99999999999991
endloop
endfacet
facet normal 5.16732985155814e-015 -7.45891472405448e-016 1.0
outer loop
vertex 17.8255062252074 49.915698604072 5.99999999999991
vertex 18.8557252956972 50.4113602143076 5.99999999999991
vertex 19.0755062252074 52.0807621135331 5.99999999999992
endloop
endfacet
facet normal 5.16732985155814e-015 -7.45891472405448e-016 1.0
outer loop
vertex 20.4113602143076 53.1057989313691 5.99999999999991
vertex 20.3255062252074 54.2458256229942 5.99999999999991
vertex 19.0755062252074 52.0807621135331 5.99999999999992
endloop
endfacet
facet normal 5.16732985155814e-015 -7.45891472405448e-016 1.0
outer loop
vertex 20.4113602143076 21.5352172200085 5.99999999999989
vertex 19.0755062252073 22.5602540378444 5.99999999999994
vertex 20.3255062252074 20.3951905283833 5.99999999999989
endloop
endfacet
facet normal 5.16732985155814e-015 -7.45891472405448e-016 1.0
outer loop
vertex 6.81550992617017 12.5951905283833 5.99999999999995
vertex 5.56550992617015 14.7602540378443 6.00000000000001
vertex 5.78529085568032 13.0908521386189 5.99999999999996
endloop
endfacet
facet normal 5.16732985155814e-015 -7.45891472405448e-016 1.0
outer loop
vertex 17.8255062252074 24.7253175473055 5.99999999999996
vertex 18.8557252956972 24.2296559370699 5.99999999999995
vertex 18.8557252956972 50.4113602143076 5.99999999999991
endloop
endfacet
facet normal 5.16732985155814e-015 -7.45891472405448e-016 1.0
outer loop
vertex 18.8557252956972 24.2296559370699 5.99999999999995
vertex 17.8255062252074 24.7253175473055 5.99999999999996
vertex 19.0755062252073 22.5602540378444 5.99999999999994
endloop
endfacet
facet normal 5.16732985155814e-015 -7.45891472405448e-016 1.0
outer loop
vertex 18.8557252956972 24.2296559370699 5.99999999999995
vertex 19.8807621135332 49.0755062252073 5.99999999999986
vertex 18.8557252956972 50.4113602143076 5.99999999999991
endloop
endfacet
facet normal 5.16732985155814e-015 -7.45891472405448e-016 1.0
outer loop
vertex 19.8807621135332 49.0755062252073 5.99999999999986
vertex 18.8557252956972 24.2296559370699 5.99999999999995
vertex 19.8807621135332 25.5655099261702 5.99999999999995
endloop
endfacet
facet normal 5.16732985155814e-015 -7.45891472405448e-016 1.0
outer loop
vertex 19.8807621135332 49.0755062252073 5.99999999999986
vertex 19.8807621135332 25.5655099261702 5.99999999999995
vertex 21.5501640127587 48.8557252956972 5.99999999999984
endloop
endfacet
facet normal 5.16732985155814e-015 -7.45891472405448e-016 1.0
outer loop
vertex 21.5501640127587 48.8557252956972 5.99999999999984
vertex 19.8807621135332 25.5655099261702 5.99999999999995
vertex 21.5501640127586 25.7852908556804 5.99999999999994
endloop
endfacet
facet normal 5.16732985155814e-015 -7.45891472405448e-016 1.0
outer loop
vertex 21.5501640127587 48.8557252956972 5.99999999999984
vertex 21.5501640127586 25.7852908556804 5.99999999999994
vertex 21.6360180018588 26.9253175473059 5.99999999999994
endloop
endfacet
facet normal 5.16732985155814e-015 -7.45891472405448e-016 1.0
outer loop
vertex 21.6360180018588 26.9253175473059 5.99999999999994
vertex 21.5501640127586 25.7852908556804 5.99999999999994
vertex 22.8860180018589 24.7602540378444 5.99999999999997
endloop
endfacet
facet normal 5.16732985155814e-015 -7.45891472405448e-016 1.0
outer loop
vertex 21.5501640127587 48.8557252956972 5.99999999999984
vertex 21.6360180018589 47.715698604072 5.99999999999984
vertex 22.886018001859 49.8807621135332 5.99999999999984
endloop
endfacet
facet normal 5.16732985155814e-015 -7.45891472405448e-016 1.0
outer loop
vertex 21.6360180018589 47.715698604072 5.99999999999984
vertex 21.5501640127587 48.8557252956972 5.99999999999984
vertex 21.6360180018588 26.9253175473059 5.99999999999994
endloop
endfacet
facet normal 5.16732985155814e-015 -7.45891472405448e-016 1.0
outer loop
vertex 24.1360180018589 52.0458256229942 5.99999999999984
vertex 23.1057989313692 51.5501640127587 5.99999999999984
vertex 22.886018001859 49.8807621135332 5.99999999999984
endloop
endfacet
facet normal 5.16732985155814e-015 -7.45891472405448e-016 1.0
outer loop
vertex 2.25597318603832e-014 4.51194637207664e-014 6.00000000000004
vertex 3.00499814951863 10.3951905283833 5.99999999999996
vertex -3.74999999999999 6.49519052838324 5.99999999999999
endloop
endfacet
facet normal 5.16732985155814e-015 -7.45891472405448e-016 1.0
outer loop
vertex 3.00499814951863 10.3951905283833 5.99999999999996
vertex 2.25597318603832e-014 4.51194637207664e-014 6.00000000000004
vertex 34.6410161513775 20.0 5.99999999999983
endloop
endfacet
facet normal 5.16732985155814e-015 -7.45891472405448e-016 1.0
outer loop
vertex 3.00499814951863 10.3951905283833 5.99999999999996
vertex 34.6410161513775 20.0 5.99999999999983
vertex 4.76025403784437 11.7549981495185 5.99999999999995
endloop
endfacet
facet normal 5.16732985155814e-015 -7.45891472405448e-016 1.0
outer loop
vertex 3.00499814951863 10.3951905283833 5.99999999999996
vertex 4.76025403784437 11.7549981495185 5.99999999999995
vertex 3.09085213861879 11.5352172200084 5.99999999999997
endloop
endfacet
facet normal 5.16732985155814e-015 -7.45891472405448e-016 1.0
outer loop
vertex 4.76025403784437 11.7549981495185 5.99999999999995
vertex 34.6410161513775 20.0 5.99999999999983
vertex 6.81550992617017 12.5951905283833 5.99999999999995
endloop
endfacet
facet normal 5.16732985155814e-015 -7.45891472405448e-016 1.0
outer loop
vertex 4.76025403784437 11.7549981495185 5.99999999999995
vertex 6.81550992617017 12.5951905283833 5.99999999999995
vertex 5.78529085568032 13.0908521386189 5.99999999999996
endloop
endfacet
facet normal 5.16732985155814e-015 -7.45891472405448e-016 1.0
outer loop
vertex 6.81550992617017 12.5951905283833 5.99999999999995
vertex 34.6410161513775 20.0 5.99999999999983
vertex 20.3255062252074 20.3951905283833 5.99999999999989
endloop
endfacet
facet normal 5.16732985155814e-015 -7.45891472405448e-016 1.0
outer loop
vertex 20.3255062252074 20.3951905283833 5.99999999999989
vertex 34.6410161513775 20.0 5.99999999999983
vertex 20.4113602143076 21.5352172200085 5.99999999999989
endloop
endfacet
facet normal 5.16732985155814e-015 -7.45891472405448e-016 1.0
outer loop
vertex 20.4113602143076 21.5352172200085 5.99999999999989
vertex 34.6410161513775 20.0 5.99999999999983
vertex 22.080762113533 21.7549981495186 5.99999999999987
endloop
endfacet
facet normal 5.16732985155814e-015 -7.45891472405448e-016 1.0
outer loop
vertex 22.080762113533 21.7549981495186 5.99999999999987
vertex 34.6410161513775 20.0 5.99999999999983
vertex 24.1360180018589 22.5951905283832 5.99999999999987
endloop
endfacet
facet normal 5.16732985155814e-015 -7.45891472405448e-016 1.0
outer loop
vertex 22.080762113533 21.7549981495186 5.99999999999987
vertex 24.1360180018589 22.5951905283832 5.99999999999987
vertex 23.105798931369 23.0908521386189 5.99999999999987
endloop
endfacet
facet normal 5.16732985155814e-015 -7.45891472405448e-016 1.0
outer loop
vertex 24.1360180018589 22.5951905283832 5.99999999999987
vertex 34.6410161513775 20.0 5.99999999999983
vertex 30.0249907475931 25.9951905283832 5.99999999999979
endloop
endfacet
facet normal 5.16732985155814e-015 -7.45891472405448e-016 1.0
outer loop
vertex 30.0249907475931 25.9951905283832 5.99999999999979
vertex 34.6410161513775 20.0 5.99999999999983
vertex 30.0249907475931 48.6458256229942 5.99999999999987
endloop
endfacet
facet normal 5.16732985155814e-015 -7.45891472405448e-016 1.0
outer loop
vertex 3.00499814951854 64.2458256229942 6.00000000000007
vertex -2.25597318603832e-014 74.6410161513775 6.00000000000008
vertex -3.75000000000008 68.1458256229942 6.00000000000004
endloop
endfacet
facet normal 5.16732985155814e-015 -7.45891472405448e-016 1.0
outer loop
vertex -2.25597318603832e-014 74.6410161513775 6.00000000000008
vertex 3.00499814951854 64.2458256229942 6.00000000000007
vertex 34.6410161513776 54.6410161513775 5.99999999999987
endloop
endfacet
facet normal 5.16732985155814e-015 -7.45891472405448e-016 1.0
outer loop
vertex 34.6410161513776 54.6410161513775 5.99999999999987
vertex 3.00499814951854 64.2458256229942 6.00000000000007
vertex 4.76025403784421 62.8860180018589 6.00000000000006
endloop
endfacet
facet normal 5.16732985155814e-015 -7.45891472405448e-016 1.0
outer loop
vertex 4.76025403784421 62.8860180018589 6.00000000000006
vertex 3.00499814951854 64.2458256229942 6.00000000000007
vertex 3.09085213861888 63.1057989313691 6.00000000000006
endloop
endfacet
facet normal 5.16732985155814e-015 -7.45891472405448e-016 1.0
outer loop
vertex 34.6410161513776 54.6410161513775 5.99999999999987
vertex 4.76025403784421 62.8860180018589 6.00000000000006
vertex 6.81550992617012 62.0458256229942 6.00000000000004
endloop
endfacet
facet normal 5.16732985155814e-015 -7.45891472405448e-016 1.0
outer loop
vertex 6.81550992617012 62.0458256229942 6.00000000000004
vertex 4.76025403784421 62.8860180018589 6.00000000000006
vertex 5.78529085568032 61.5501640127587 6.00000000000004
endloop
endfacet
facet normal 5.16732985155814e-015 -7.45891472405448e-016 1.0
outer loop
vertex 34.6410161513776 54.6410161513775 5.99999999999987
vertex 6.81550992617012 62.0458256229942 6.00000000000004
vertex 20.3255062252074 54.2458256229942 5.99999999999991
endloop
endfacet
facet normal 5.16732985155814e-015 -7.45891472405448e-016 1.0
outer loop
vertex 34.6410161513776 54.6410161513775 5.99999999999987
vertex 20.3255062252074 54.2458256229942 5.99999999999991
vertex 20.4113602143076 53.1057989313691 5.99999999999991
endloop
endfacet
facet normal 5.16732985155814e-015 -7.45891472405448e-016 1.0
outer loop
vertex 34.6410161513776 54.6410161513775 5.99999999999987
vertex 20.4113602143076 53.1057989313691 5.99999999999991
vertex 22.0807621135332 52.8860180018589 5.9999999999999
endloop
endfacet
facet normal 5.16732985155814e-015 -7.45891472405448e-016 1.0
outer loop
vertex 34.6410161513776 54.6410161513775 5.99999999999987
vertex 22.0807621135332 52.8860180018589 5.9999999999999
vertex 24.1360180018589 52.0458256229942 5.99999999999984
endloop
endfacet
facet normal 5.16732985155814e-015 -7.45891472405448e-016 1.0
outer loop
vertex 24.1360180018589 52.0458256229942 5.99999999999984
vertex 22.0807621135332 52.8860180018589 5.9999999999999
vertex 23.1057989313692 51.5501640127587 5.99999999999984
endloop
endfacet
facet normal 5.16732985155814e-015 -7.45891472405448e-016 1.0
outer loop
vertex 34.6410161513776 54.6410161513775 5.99999999999987
vertex 24.1360180018589 52.0458256229942 5.99999999999984
vertex 30.0249907475931 48.6458256229942 5.99999999999987
endloop
endfacet
facet normal 5.16732985155814e-015 -7.45891472405448e-016 1.0
outer loop
vertex 34.6410161513776 54.6410161513775 5.99999999999987
vertex 30.0249907475931 48.6458256229942 5.99999999999987
vertex 34.6410161513775 20.0 5.99999999999983
endloop
endfacet
facet normal 5.16732985155814e-015 -7.45891472405448e-016 1.0
outer loop
vertex 27.5249907475929 30.3253175473059 5.99999999999987
vertex 21.6360180018589 47.715698604072 5.99999999999984
vertex 21.6360180018588 26.9253175473059 5.99999999999994
endloop
endfacet
facet normal 5.16732985155814e-015 -7.45891472405448e-016 1.0
outer loop
vertex 21.6360180018589 47.715698604072 5.99999999999984
vertex 27.5249907475929 30.3253175473059 5.99999999999987
vertex 27.5249907475931 44.315698604072 5.99999999999987
endloop
endfacet
facet normal 5.16732985155814e-015 -7.45891472405448e-016 1.0
outer loop
vertex 27.5249907475931 44.315698604072 5.99999999999987
vertex 27.5249907475929 30.3253175473059 5.99999999999987
vertex 30.0249907475931 25.9951905283832 5.99999999999979
endloop
endfacet
facet normal 5.16732985155814e-015 -7.45891472405448e-016 1.0
outer loop
vertex 27.5249907475931 44.315698604072 5.99999999999987
vertex 30.0249907475931 25.9951905283832 5.99999999999979
vertex 30.0249907475931 48.6458256229942 5.99999999999987
endloop
endfacet
facet normal 5.16732985155814e-015 -7.45891472405448e-016 1.0
outer loop
vertex 24.1360180018589 22.5951905283832 5.99999999999987
vertex 22.8860180018589 24.7602540378444 5.99999999999997
vertex 23.105798931369 23.0908521386189 5.99999999999987
endloop
endfacet
facet normal 5.16732985155814e-015 -7.45891472405448e-016 1.0
outer loop
vertex 1.53521722000847 14.2296559370699 5.99999999999999
vertex 2.56025403784435 59.0755062252074 6.00000000000005
vertex 1.53521722000842 60.4113602143076 6.00000000000007
endloop
endfacet
facet normal 5.16732985155814e-015 -7.45891472405448e-016 1.0
outer loop
vertex 2.56025403784435 59.0755062252074 6.00000000000005
vertex 1.53521722000847 14.2296559370699 5.99999999999999
vertex 2.56025403784435 15.56550992617 5.99999999999998
endloop
endfacet
facet normal 5.16732985155814e-015 -7.45891472405448e-016 1.0
outer loop
vertex 2.56025403784435 59.0755062252074 6.00000000000005
vertex 2.56025403784435 15.56550992617 5.99999999999998
vertex 4.22965593706994 15.7852908556803 5.99999999999998
endloop
endfacet
facet normal 5.16732985155814e-015 -7.45891472405448e-016 1.0
outer loop
vertex 2.56025403784435 59.0755062252074 6.00000000000005
vertex 4.22965593706994 15.7852908556803 5.99999999999998
vertex 4.22965593706992 58.8557252956972 6.00000000000004
endloop
endfacet
facet normal 5.16732985155814e-015 -7.45891472405448e-016 1.0
outer loop
vertex 4.22965593706992 58.8557252956972 6.00000000000004
vertex 4.22965593706994 15.7852908556803 5.99999999999998
vertex 4.3155099261701 57.7156986040721 6.00000000000004
endloop
endfacet
facet normal 5.16732985155814e-015 -7.45891472405448e-016 1.0
outer loop
vertex 4.22965593706992 58.8557252956972 6.00000000000004
vertex 4.3155099261701 57.7156986040721 6.00000000000004
vertex 5.56550992617013 59.8807621135331 6.00000000000004
endloop
endfacet
facet normal 5.16732985155814e-015 -7.45891472405448e-016 1.0
outer loop
vertex 4.3155099261701 57.7156986040721 6.00000000000004
vertex 4.22965593706994 15.7852908556803 5.99999999999998
vertex 4.3155099261701 16.9253175473054 6.00000000000002
endloop
endfacet
facet normal 5.16732985155814e-015 -7.45891472405448e-016 1.0
outer loop
vertex 3.09085213861879 11.5352172200084 5.99999999999997
vertex 1.75499814951868 12.5602540378444 6.00000000000002
vertex 3.00499814951863 10.3951905283833 5.99999999999996
endloop
endfacet
endsolid 60 End
