solid 60 Inside
facet normal 0.38268339912895 0.923879546278146 -9.40058938110002e-018
outer loop
vertex 8.76487206222487 38.4443649237653 5.99999999999926
vertex 10.3205070040159 37.7999998983389 -7.23412202193268e-013
vertex 8.76487206222485 38.4443649237652 -7.28123381762726e-013
endloop
endfacet
facet normal 0.38268339912895 0.923879546278146 -9.40058938110002e-018
outer loop
vertex 10.3205070040159 37.7999998983389 -7.23412202193268e-013
vertex 8.76487206222487 38.4443649237653 5.99999999999926
vertex 10.3205070040159 37.7999998983389 5.99999999999931
endloop
endfacet
facet normal -0.866025396334202 -0.500000012904188 -1.42377036994479e-014
outer loop
vertex 4.88418194777296e-012 5.19615237799517 25.9999999999995
vertex 3.00000007742455 -5.63993296509579e-015 -7.62848870234418e-013
vertex 3.00000007743024 -9.83040315816197e-012 25.9999999999978
endloop
endfacet
facet normal -0.866025396334202 -0.500000012904188 -1.42377036994479e-014
outer loop
vertex 3.00000007742455 -5.63993296509579e-015 -7.62848870234418e-013
vertex 4.88418194777296e-012 5.19615237799517 25.9999999999995
vertex -2.8199664825479e-015 5.19615237800557 -4.80889607822729e-028
endloop
endfacet
facet normal -0.866025396334202 -0.500000012904188 -1.42377036994479e-014
outer loop
vertex -2.8199664825479e-015 5.19615237800557 -4.80889607822729e-028
vertex 4.88418194777296e-012 5.19615237799517 25.9999999999995
vertex 2.53796983429311e-014 5.19615237800358 5.99999999999909
endloop
endfacet
facet normal -4.3512639721694e-015 -3.34276780154545e-015 1.0
outer loop
vertex 8.1205076443628 19.9999998191951 5.99999999999915
vertex 8.76487206222487 38.4443649237653 5.99999999999926
vertex 8.12050692487194 39.999999819195 5.99999999999926
endloop
endfacet
facet normal -4.3512639721694e-015 -3.34276780154545e-015 1.0
outer loop
vertex 8.76487206222487 38.4443649237653 5.99999999999926
vertex 8.1205076443628 19.9999998191951 5.99999999999915
vertex 8.76487266978913 21.5556347609861 5.99999999999916
endloop
endfacet
facet normal -4.3512639721694e-015 -3.34276780154545e-015 1.0
outer loop
vertex 8.76487206222487 38.4443649237653 5.99999999999926
vertex 8.76487266978913 21.5556347609861 5.99999999999916
vertex 10.3205070040159 37.7999998983389 5.99999999999931
endloop
endfacet
facet normal -4.3512639721694e-015 -3.34276780154545e-015 1.0
outer loop
vertex 10.3205070040159 37.7999998983389 5.99999999999931
vertex 8.76487266978913 21.5556347609861 5.99999999999916
vertex 10.3205075652188 22.199999898339 5.99999999999922
endloop
endfacet
facet normal -4.3512639721694e-015 -3.34276780154545e-015 1.0
outer loop
vertex 10.3205070040159 37.7999998983389 5.99999999999931
vertex 10.3205075652188 22.199999898339 5.99999999999922
vertex 11.8761418994456 38.4443650356917 5.99999999999928
endloop
endfacet
facet normal -4.3512639721694e-015 -3.34276780154545e-015 1.0
outer loop
vertex 11.8761418994456 38.4443650356917 5.99999999999928
vertex 10.3205075652188 22.199999898339 5.99999999999922
vertex 11.8761425070099 21.5556348729125 5.99999999999923
endloop
endfacet
facet normal -4.3512639721694e-015 -3.34276780154545e-015 1.0
outer loop
vertex 11.8761418994456 38.4443650356917 5.99999999999928
vertex 11.8761425070099 21.5556348729125 5.99999999999923
vertex 12.5205069248719 39.999999977483 5.99999999999929
endloop
endfacet
facet normal -4.3512639721694e-015 -3.34276780154545e-015 1.0
outer loop
vertex 12.5205069248719 39.999999977483 5.99999999999929
vertex 11.8761425070099 21.5556348729125 5.99999999999923
vertex 12.5205076443627 19.9999999774828 5.99999999999922
endloop
endfacet
facet normal -4.3512639721694e-015 -3.34276780154545e-015 1.0
outer loop
vertex 2.53796983429311e-014 5.19615237800358 5.99999999999909
vertex 8.1205076443628 19.9999998191951 5.99999999999915
vertex 8.12050692487194 39.999999819195 5.99999999999926
endloop
endfacet
facet normal -4.3512639721694e-015 -3.34276780154545e-015 1.0
outer loop
vertex 8.1205076443628 19.9999998191951 5.99999999999915
vertex 2.53796983429311e-014 5.19615237800358 5.99999999999909
vertex 8.76487278171562 18.4443649237653 5.99999999999914
endloop
endfacet
facet normal -4.3512639721694e-015 -3.34276780154545e-015 1.0
outer loop
vertex 8.76487278171562 18.4443649237653 5.99999999999914
vertex 2.53796983429311e-014 5.19615237800358 5.99999999999909
vertex 15.3205078587187 14.0414520187347 5.99999999999923
endloop
endfacet
facet normal -4.3512639721694e-015 -3.34276780154545e-015 1.0
outer loop
vertex 8.76487278171562 18.4443649237653 5.99999999999914
vertex 15.3205078587187 14.0414520187347 5.99999999999923
vertex 10.3205077235067 17.7999998983389 5.99999999999924
endloop
endfacet
facet normal -4.3512639721694e-015 -3.34276780154545e-015 1.0
outer loop
vertex 10.3205077235067 17.7999998983389 5.99999999999924
vertex 15.3205078587187 14.0414520187347 5.99999999999923
vertex 11.8761426189364 18.4443650356918 5.99999999999921
endloop
endfacet
facet normal -4.3512639721694e-015 -3.34276780154545e-015 1.0
outer loop
vertex 11.8761426189364 18.4443650356918 5.99999999999921
vertex 15.3205078587187 14.0414520187347 5.99999999999923
vertex 12.5205076443627 19.9999999774828 5.99999999999922
endloop
endfacet
facet normal -4.3512639721694e-015 -3.34276780154545e-015 1.0
outer loop
vertex 12.5205076443627 19.9999999774828 5.99999999999922
vertex 15.3205078587187 14.0414520187347 5.99999999999923
vertex 15.3205065651266 50.0000000782116 5.99999999999931
endloop
endfacet
facet normal -4.3512639721694e-015 -3.34276780154545e-015 1.0
outer loop
vertex -1.29359213361102e-006 41.1547007354918 5.99999999999926
vertex 8.76487195029835 41.5556347609861 5.99999999999928
vertex 15.3205065651266 50.0000000782116 5.99999999999931
endloop
endfacet
facet normal -4.3512639721694e-015 -3.34276780154545e-015 1.0
outer loop
vertex 8.76487195029835 41.5556347609861 5.99999999999928
vertex -1.29359213361102e-006 41.1547007354918 5.99999999999926
vertex 8.12050692487194 39.999999819195 5.99999999999926
endloop
endfacet
facet normal -4.3512639721694e-015 -3.34276780154545e-015 1.0
outer loop
vertex 8.12050692487194 39.999999819195 5.99999999999926
vertex -1.29359213361102e-006 41.1547007354918 5.99999999999926
vertex 2.53796983429311e-014 5.19615237800358 5.99999999999909
endloop
endfacet
facet normal -4.3512639721694e-015 -3.34276780154545e-015 1.0
outer loop
vertex 15.3205065651266 50.0000000782116 5.99999999999931
vertex 8.76487195029835 41.5556347609861 5.99999999999928
vertex 10.3205068457279 42.1999998983389 5.99999999999934
endloop
endfacet
facet normal -4.3512639721694e-015 -3.34276780154545e-015 1.0
outer loop
vertex 15.3205065651266 50.0000000782116 5.99999999999931
vertex 10.3205068457279 42.1999998983389 5.99999999999934
vertex 11.8761417875191 41.5556348729125 5.9999999999993
endloop
endfacet
facet normal -4.3512639721694e-015 -3.34276780154545e-015 1.0
outer loop
vertex 15.3205065651266 50.0000000782116 5.99999999999931
vertex 11.8761417875191 41.5556348729125 5.9999999999993
vertex 12.5205069248719 39.999999977483 5.99999999999929
endloop
endfacet
facet normal -4.3512639721694e-015 -3.34276780154545e-015 1.0
outer loop
vertex 15.3205065651266 50.0000000782116 5.99999999999931
vertex 12.5205069248719 39.999999977483 5.99999999999929
vertex 12.5205076443627 19.9999999774828 5.99999999999922
endloop
endfacet
facet normal -0.331413571184647 -0.191341721120563 -0.923879532511279
outer loop
vertex 10.0074733102862 10.9739699864191 17.55563491861
vertex 11.6602540407709 5.00000012903436 18.1999999999979
vertex 8.66025396334547 10.1961525070395 18.1999999999996
endloop
endfacet
facet normal -0.331413571184647 -0.191341721120563 -0.923879532511279
outer loop
vertex 11.6602540407709 5.00000012903436 18.1999999999979
vertex 10.0074733102862 10.9739699864191 17.55563491861
vertex 13.0074733877116 5.77781760841405 17.5556349186083
endloop
endfacet
facet normal -0.999999999999999 -3.59745378486487e-008 4.49689268076706e-015
outer loop
vertex -1.29359213361102e-006 41.1547007354918 5.99999999999926
vertex -2.8199664825479e-015 5.19615237800557 -4.80889607822729e-028
vertex 2.53796983429311e-014 5.19615237800358 5.99999999999909
endloop
endfacet
facet normal -0.999999999999999 -3.59745378486487e-008 4.49689268076706e-015
outer loop
vertex -2.8199664825479e-015 5.19615237800557 -4.80889607822729e-028
vertex -1.29359213361102e-006 41.1547007354918 5.99999999999926
vertex -1.29359215899072e-006 41.1547007354919 -5.33739806074714e-013
endloop
endfacet
facet normal -0.500000000269924 0.866025403628598 1.3629837998247e-014
outer loop
vertex -1.29359213361102e-006 41.1547007354918 5.99999999999926
vertex 15.3205065651265 50.0000000782117 -4.85095384250763e-013
vertex -1.29359215899072e-006 41.1547007354919 -5.33739806074714e-013
endloop
endfacet
facet normal -0.500000000269924 0.866025403628598 1.3629837998247e-014
outer loop
vertex 15.3205065651265 50.0000000782117 -4.85095384250763e-013
vertex -1.29359213361102e-006 41.1547007354918 5.99999999999926
vertex 15.3205065651266 50.0000000782116 5.99999999999931
endloop
endfacet
facet normal -0.500000012904229 0.866025396334179 4.8602122326833e-013
outer loop
vertex 2.53796983429311e-014 5.19615237800358 5.99999999999909
vertex 7.31303461640412 9.41833502766094 14.4443650813893
vertex 15.3205078587187 14.0414520187347 5.99999999999923
endloop
endfacet
facet normal -0.500000012904229 0.866025396334179 4.8602122326833e-013
outer loop
vertex 7.31303461640412 9.41833502766094 14.4443650813893
vertex 2.53796983429311e-014 5.19615237800358 5.99999999999909
vertex 4.88418194777296e-012 5.19615237799517 25.9999999999995
endloop
endfacet
facet normal -0.500000012904229 0.866025396334179 4.8602122326833e-013
outer loop
vertex 15.3205078587187 14.0414520187347 5.99999999999923
vertex 7.31303461640412 9.41833502766094 14.4443650813893
vertex 8.66025396334483 10.1961525070405 13.7999999999996
endloop
endfacet
facet normal -0.500000012904229 0.866025396334179 4.8602122326833e-013
outer loop
vertex 7.31303461640412 9.41833502766094 14.4443650813893
vertex 4.88418194777296e-012 5.19615237799517 25.9999999999995
vertex 6.75499809141003 9.09615247865072 15.9999999999997
endloop
endfacet
facet normal -0.500000012904229 0.866025396334179 4.8602122326833e-013
outer loop
vertex 6.75499809141003 9.09615247865072 15.9999999999997
vertex 4.88418194777296e-012 5.19615237799517 25.9999999999995
vertex 7.31303461640452 9.41833502766016 17.55563491861
endloop
endfacet
facet normal -0.500000012904229 0.866025396334179 4.8602122326833e-013
outer loop
vertex 7.31303461640452 9.41833502766016 17.55563491861
vertex 4.88418194777296e-012 5.19615237799517 25.9999999999995
vertex 8.66025396334547 10.1961525070395 18.1999999999996
endloop
endfacet
facet normal -0.500000012904229 0.866025396334179 4.8602122326833e-013
outer loop
vertex 15.3205078587187 14.0414520187347 5.99999999999923
vertex 10.0074733102858 10.9739699864198 14.4443650813892
vertex 15.3205078587236 14.0414520187262 25.9999999999995
endloop
endfacet
facet normal -0.500000012904229 0.866025396334179 4.8602122326833e-013
outer loop
vertex 10.0074733102858 10.9739699864198 14.4443650813892
vertex 15.3205078587187 14.0414520187347 5.99999999999923
vertex 8.66025396334483 10.1961525070405 13.7999999999996
endloop
endfacet
facet normal -0.500000012904229 0.866025396334179 4.8602122326833e-013
outer loop
vertex 15.3205078587236 14.0414520187262 25.9999999999995
vertex 10.0074733102858 10.9739699864198 14.4443650813892
vertex 10.5655098352803 11.2961525354293 15.9999999999995
endloop
endfacet
facet normal -0.500000012904229 0.866025396334179 4.8602122326833e-013
outer loop
vertex 15.3205078587236 14.0414520187262 25.9999999999995
vertex 10.5655098352803 11.2961525354293 15.9999999999995
vertex 10.0074733102862 10.9739699864191 17.55563491861
endloop
endfacet
facet normal -0.500000012904229 0.866025396334179 4.8602122326833e-013
outer loop
vertex 15.3205078587236 14.0414520187262 25.9999999999995
vertex 10.0074733102862 10.9739699864191 17.55563491861
vertex 8.66025396334547 10.1961525070395 18.1999999999996
endloop
endfacet
facet normal -0.500000012904229 0.866025396334179 4.8602122326833e-013
outer loop
vertex 15.3205078587236 14.0414520187262 25.9999999999995
vertex 8.66025396334547 10.1961525070395 18.1999999999996
vertex 4.88418194777296e-012 5.19615237799517 25.9999999999995
endloop
endfacet
facet normal -2.44483550961006e-014 7.35141117865676e-015 -1.0
outer loop
vertex 3.00000007742455 -5.63993296509579e-015 -7.62848870234418e-013
vertex 8.1205076443628 19.9999998191951 -8.42222727724021e-013
vertex 9.49519054993092 3.75000009678167 -7.48702547577722e-013
endloop
endfacet
facet normal -2.44483550961006e-014 7.35141117865676e-015 -1.0
outer loop
vertex 8.1205076443628 19.9999998191951 -8.42222727724021e-013
vertex 3.00000007742455 -5.63993296509579e-015 -7.62848870234418e-013
vertex 8.12050692487195 39.9999998191949 -7.678200168862e-013
endloop
endfacet
facet normal -2.44483550961006e-014 7.35141117865676e-015 -1.0
outer loop
vertex 9.49519054993092 3.75000009678167 -7.48702547577722e-013
vertex 8.1205076443628 19.9999998191951 -8.42222727724021e-013
vertex 8.76487278171562 18.4443649237653 -8.47645556321314e-013
endloop
endfacet
facet normal -2.44483550961006e-014 7.35141117865676e-015 -1.0
outer loop
vertex 9.49519054993092 3.75000009678167 -7.48702547577722e-013
vertex 8.76487278171562 18.4443649237653 -8.47645556321314e-013
vertex 10.3205077235067 17.7999998983389 -8.42581880941537e-013
endloop
endfacet
facet normal -2.44483550961006e-014 7.35141117865676e-015 -1.0
outer loop
vertex 9.49519054993092 3.75000009678167 -7.48702547577722e-013
vertex 10.3205077235067 17.7999998983389 -8.42581880941537e-013
vertex 10.4951906088994 2.01794924667855 -1.33108532901513e-012
endloop
endfacet
facet normal -2.44483550961006e-014 7.35141117865676e-015 -1.0
outer loop
vertex 10.4951906088994 2.01794924667855 -1.33108532901513e-012
vertex 10.3205077235067 17.7999998983389 -8.42581880941537e-013
vertex 11.8761426189364 18.4443650356918 -8.30037659650743e-013
endloop
endfacet
facet normal -2.44483550961006e-014 7.35141117865676e-015 -1.0
outer loop
vertex 10.4951906088994 2.01794924667855 -1.33108532901513e-012
vertex 11.8761426189364 18.4443650356918 -8.30037659650743e-013
vertex 13.8253175316018 6.25000016130285 -7.57162425718912e-013
endloop
endfacet
facet normal -2.44483550961006e-014 7.35141117865676e-015 -1.0
outer loop
vertex 10.4951906088994 2.01794924667855 -1.33108532901513e-012
vertex 13.8253175316018 6.25000016130285 -7.57162425718912e-013
vertex 14.8253175905702 4.51794931119979 -1.2408464015736e-012
endloop
endfacet
facet normal -2.44483550961006e-014 7.35141117865676e-015 -1.0
outer loop
vertex 13.8253175316018 6.25000016130285 -7.57162425718912e-013
vertex 11.8761426189364 18.4443650356918 -8.30037659650743e-013
vertex 12.5205076443627 19.9999999774829 -8.16977501817864e-013
endloop
endfacet
facet normal -2.44483550961006e-014 7.35141117865676e-015 -1.0
outer loop
vertex -1.29359215899072e-006 41.1547007354919 -5.33739806074714e-013
vertex 8.12050692487195 39.9999998191949 -7.678200168862e-013
vertex -2.8199664825479e-015 5.19615237800557 -4.80889607822729e-028
endloop
endfacet
facet normal -2.44483550961006e-014 7.35141117865676e-015 -1.0
outer loop
vertex 8.12050692487195 39.9999998191949 -7.678200168862e-013
vertex -1.29359215899072e-006 41.1547007354919 -5.33739806074714e-013
vertex 8.76487195029835 41.5556347609861 -7.09640395332554e-013
endloop
endfacet
facet normal -2.44483550961006e-014 7.35141117865676e-015 -1.0
outer loop
vertex 8.76487195029835 41.5556347609861 -7.09640395332554e-013
vertex -1.29359215899072e-006 41.1547007354919 -5.33739806074714e-013
vertex 15.3205065651265 50.0000000782117 -4.85095384250763e-013
endloop
endfacet
facet normal -2.44483550961006e-014 7.35141117865676e-015 -1.0
outer loop
vertex -2.8199664825479e-015 5.19615237800557 -4.80889607822729e-028
vertex 8.12050692487195 39.9999998191949 -7.678200168862e-013
vertex 3.00000007742455 -5.63993296509579e-015 -7.62848870234418e-013
endloop
endfacet
facet normal -2.44483550961006e-014 7.35141117865676e-015 -1.0
outer loop
vertex 8.76487195029835 41.5556347609861 -7.09640395332554e-013
vertex 15.3205065651265 50.0000000782117 -4.85095384250763e-013
vertex 10.320506845728 42.1999998983389 -6.9709617404176e-013
endloop
endfacet
facet normal -2.44483550961006e-014 7.35141117865676e-015 -1.0
outer loop
vertex 10.320506845728 42.1999998983389 -6.9709617404176e-013
vertex 15.3205065651265 50.0000000782117 -4.85095384250763e-013
vertex 11.8761417875191 41.5556348729126 -6.92032498661983e-013
endloop
endfacet
facet normal -2.44483550961006e-014 7.35141117865676e-015 -1.0
outer loop
vertex 11.8761417875191 41.5556348729126 -6.92032498661983e-013
vertex 15.3205065651265 50.0000000782117 -4.85095384250763e-013
vertex 12.5205069248719 39.999999977483 -6.97455327259276e-013
endloop
endfacet
facet normal -2.44483550961006e-014 7.35141117865676e-015 -1.0
outer loop
vertex 12.5205069248719 39.999999977483 -6.97455327259276e-013
vertex 15.3205065651265 50.0000000782117 -4.85095384250763e-013
vertex 12.5205076443627 19.9999999774829 -8.16977501817864e-013
endloop
endfacet
facet normal -2.44483550961006e-014 7.35141117865676e-015 -1.0
outer loop
vertex 12.5205076443627 19.9999999774829 -8.16977501817864e-013
vertex 15.3205065651265 50.0000000782117 -4.85095384250763e-013
vertex 13.8253175316018 6.25000016130285 -7.57162425718912e-013
endloop
endfacet
facet normal -2.44483550961006e-014 7.35141117865676e-015 -1.0
outer loop
vertex 13.8253175316018 6.25000016130285 -7.57162425718912e-013
vertex 15.3205065651265 50.0000000782117 -4.85095384250763e-013
vertex 20.3205080041081 10.0000002580845 -7.0499301383214e-013
endloop
endfacet
facet normal -2.44483550961006e-014 7.35141117865676e-015 -1.0
outer loop
vertex 20.3205080041081 10.0000002580845 -7.0499301383214e-013
vertex 15.3205065651265 50.0000000782117 -4.85095384250763e-013
vertex 20.3205065651266 50.0000002580844 -7.28876541998252e-013
endloop
endfacet
facet normal -2.44483550961006e-014 7.35141117865676e-015 -1.0
outer loop
vertex 8.76487206222485 38.4443649237652 -7.28123381762726e-013
vertex 8.1205076443628 19.9999998191951 -8.42222727724021e-013
vertex 8.12050692487195 39.9999998191949 -7.678200168862e-013
endloop
endfacet
facet normal -2.44483550961006e-014 7.35141117865676e-015 -1.0
outer loop
vertex 8.1205076443628 19.9999998191951 -8.42222727724021e-013
vertex 8.76487206222485 38.4443649237652 -7.28123381762726e-013
vertex 8.76487266978917 21.5556347609861 -8.29162569891141e-013
endloop
endfacet
facet normal -2.44483550961006e-014 7.35141117865676e-015 -1.0
outer loop
vertex 8.76487266978917 21.5556347609861 -8.29162569891141e-013
vertex 8.76487206222485 38.4443649237652 -7.28123381762726e-013
vertex 10.3205070040159 37.7999998983389 -7.23412202193268e-013
endloop
endfacet
facet normal -2.44483550961006e-014 7.35141117865676e-015 -1.0
outer loop
vertex 8.76487266978917 21.5556347609861 -8.29162569891141e-013
vertex 10.3205070040159 37.7999998983389 -7.23412202193268e-013
vertex 10.3205075652188 22.199999898339 -8.16618348600347e-013
endloop
endfacet
facet normal -2.44483550961006e-014 7.35141117865676e-015 -1.0
outer loop
vertex 10.3205075652188 22.199999898339 -8.16618348600347e-013
vertex 10.3205070040159 37.7999998983389 -7.23412202193268e-013
vertex 11.8761418994456 38.4443650356917 -7.10515485092156e-013
endloop
endfacet
facet normal -2.44483550961006e-014 7.35141117865676e-015 -1.0
outer loop
vertex 10.3205075652188 22.199999898339 -8.16618348600347e-013
vertex 11.8761418994456 38.4443650356917 -7.10515485092156e-013
vertex 11.8761425070099 21.5556348729125 -8.11554673220571e-013
endloop
endfacet
facet normal -2.44483550961006e-014 7.35141117865676e-015 -1.0
outer loop
vertex 11.8761425070099 21.5556348729125 -8.11554673220571e-013
vertex 11.8761418994456 38.4443650356917 -7.10515485092156e-013
vertex 12.5205069248719 39.999999977483 -6.97455327259276e-013
endloop
endfacet
facet normal -2.44483550961006e-014 7.35141117865676e-015 -1.0
outer loop
vertex 11.8761425070099 21.5556348729125 -8.11554673220571e-013
vertex 12.5205069248719 39.999999977483 -6.97455327259276e-013
vertex 12.5205076443627 19.9999999774829 -8.16977501817864e-013
endloop
endfacet
facet normal 0.923879518744415 0.382683465601258 -1.12911626645826e-015
outer loop
vertex 8.12050692487195 39.9999998191949 -7.678200168862e-013
vertex 8.76487206222487 38.4443649237653 5.99999999999926
vertex 8.76487206222485 38.4443649237652 -7.28123381762726e-013
endloop
endfacet
facet normal 0.923879518744415 0.382683465601258 -1.12911626645826e-015
outer loop
vertex 8.76487206222487 38.4443649237653 5.99999999999926
vertex 8.12050692487195 39.9999998191949 -7.678200168862e-013
vertex 8.12050692487194 39.999999819195 5.99999999999926
endloop
endfacet
facet normal -0.92387951874443 -0.382683465601221 -4.03937544189259e-015
outer loop
vertex 11.8761425070099 21.5556348729125 5.99999999999923
vertex 12.5205076443627 19.9999999774829 -8.16977501817864e-013
vertex 12.5205076443627 19.9999999774828 5.99999999999922
endloop
endfacet
facet normal -0.92387951874443 -0.382683465601221 -4.03937544189259e-015
outer loop
vertex 12.5205076443627 19.9999999774829 -8.16977501817864e-013
vertex 11.8761425070099 21.5556348729125 5.99999999999923
vertex 11.8761425070099 21.5556348729125 -8.11554673220571e-013
endloop
endfacet
facet normal -3.59745345734908e-008 0.999999999999999 1.19921416619676e-014
outer loop
vertex 15.3205065651265 50.0000000782117 -4.85095384250763e-013
vertex 20.3205065651266 50.0000002580843 5.99999999999931
vertex 20.3205065651266 50.0000002580844 -7.28876541998252e-013
endloop
endfacet
facet normal -3.59745345734908e-008 0.999999999999999 1.19921416619676e-014
outer loop
vertex 20.3205065651266 50.0000002580843 5.99999999999931
vertex 15.3205065651265 50.0000000782117 -4.85095384250763e-013
vertex 15.3205065651266 50.0000000782116 5.99999999999931
endloop
endfacet
facet normal 0.382683465601195 -0.92387951874444 2.80454005669445e-016
outer loop
vertex 10.320506845728 42.1999998983389 -6.9709617404176e-013
vertex 8.76487195029835 41.5556347609861 5.99999999999928
vertex 8.76487195029835 41.5556347609861 -7.09640395332554e-013
endloop
endfacet
facet normal 0.382683465601195 -0.92387951874444 2.80454005669445e-016
outer loop
vertex 8.76487195029835 41.5556347609861 5.99999999999928
vertex 10.320506845728 42.1999998983389 -6.9709617404176e-013
vertex 10.3205068457279 42.1999998983389 5.99999999999934
endloop
endfacet
facet normal -0.382683465601198 0.923879518744439 3.3905890785348e-015
outer loop
vertex 10.3205070040159 37.7999998983389 5.99999999999931
vertex 11.8761418994456 38.4443650356917 -7.10515485092156e-013
vertex 10.3205070040159 37.7999998983389 -7.23412202193268e-013
endloop
endfacet
facet normal -0.382683465601198 0.923879518744439 3.3905890785348e-015
outer loop
vertex 11.8761418994456 38.4443650356917 -7.10515485092156e-013
vertex 10.3205070040159 37.7999998983389 5.99999999999931
vertex 11.8761418994456 38.4443650356917 5.99999999999928
endloop
endfacet
facet normal -0.382683465601247 0.923879518744419 3.78223269887764e-015
outer loop
vertex 10.3205077235067 17.7999998983389 5.99999999999924
vertex 11.8761426189364 18.4443650356918 -8.30037659650743e-013
vertex 10.3205077235067 17.7999998983389 -8.42581880941537e-013
endloop
endfacet
facet normal -0.382683465601247 0.923879518744419 3.78223269887764e-015
outer loop
vertex 11.8761426189364 18.4443650356918 -8.30037659650743e-013
vertex 10.3205077235067 17.7999998983389 5.99999999999924
vertex 11.8761426189364 18.4443650356918 5.99999999999921
endloop
endfacet
facet normal 0.923879546278132 -0.382683399128984 5.34883125938198e-016
outer loop
vertex 8.76487266978917 21.5556347609861 -8.29162569891141e-013
vertex 8.1205076443628 19.9999998191951 5.99999999999915
vertex 8.1205076443628 19.9999998191951 -8.42222727724021e-013
endloop
endfacet
facet normal 0.923879546278132 -0.382683399128984 5.34883125938198e-016
outer loop
vertex 8.1205076443628 19.9999998191951 5.99999999999915
vertex 8.76487266978917 21.5556347609861 -8.29162569891141e-013
vertex 8.76487266978913 21.5556347609861 5.99999999999916
endloop
endfacet
facet normal 0.92387951874444 0.382683465601197 8.3590598205413e-016
outer loop
vertex 8.1205076443628 19.9999998191951 -8.42222727724021e-013
vertex 8.76487278171562 18.4443649237653 5.99999999999914
vertex 8.76487278171562 18.4443649237653 -8.47645556321314e-013
endloop
endfacet
facet normal 0.92387951874444 0.382683465601197 8.3590598205413e-016
outer loop
vertex 8.76487278171562 18.4443649237653 5.99999999999914
vertex 8.1205076443628 19.9999998191951 -8.42222727724021e-013
vertex 8.1205076443628 19.9999998191951 5.99999999999915
endloop
endfacet
facet normal -0.382683399128924 -0.923879546278157 -4.84752620850346e-015
outer loop
vertex 11.8761417875191 41.5556348729126 -6.92032498661983e-013
vertex 10.3205068457279 42.1999998983389 5.99999999999934
vertex 10.320506845728 42.1999998983389 -6.9709617404176e-013
endloop
endfacet
facet normal -0.382683399128924 -0.923879546278157 -4.84752620850346e-015
outer loop
vertex 10.3205068457279 42.1999998983389 5.99999999999934
vertex 11.8761417875191 41.5556348729126 -6.92032498661983e-013
vertex 11.8761417875191 41.5556348729125 5.9999999999993
endloop
endfacet
facet normal -0.382683399129017 -0.923879546278118 -3.17895780373853e-015
outer loop
vertex 11.8761425070099 21.5556348729125 -8.11554673220571e-013
vertex 10.3205075652188 22.199999898339 5.99999999999922
vertex 10.3205075652188 22.199999898339 -8.16618348600347e-013
endloop
endfacet
facet normal -0.382683399129017 -0.923879546278118 -3.17895780373853e-015
outer loop
vertex 10.3205075652188 22.199999898339 5.99999999999922
vertex 11.8761425070099 21.5556348729125 -8.11554673220571e-013
vertex 11.8761425070099 21.5556348729125 5.99999999999923
endloop
endfacet
facet normal 0.999999999999999 3.59745566669289e-008 -1.9363762749498e-013
outer loop
vertex 20.3205080041081 10.0000002580845 -7.0499301383214e-013
vertex 20.3205078587236 14.0414521985989 25.9999999999995
vertex 20.3205080041137 10.0000002580748 25.9999999999979
endloop
endfacet
facet normal 0.999999999999999 3.59745566669289e-008 -1.9363762749498e-013
outer loop
vertex 20.3205078587236 14.0414521985989 25.9999999999995
vertex 20.3205080041081 10.0000002580845 -7.0499301383214e-013
vertex 20.3205065651266 50.0000002580844 -7.28876541998252e-013
endloop
endfacet
facet normal 0.999999999999999 3.59745566669289e-008 -1.9363762749498e-013
outer loop
vertex 20.3205078587236 14.0414521985989 25.9999999999995
vertex 20.3205065651266 50.0000002580844 -7.28876541998252e-013
vertex 20.3205065651266 50.0000002580843 5.99999999999931
endloop
endfacet
facet normal 0.800103138308177 0.461939778177507 0.382683432365083
outer loop
vertex 10.3130346938295 4.22218264965585 14.4443650813876
vertex 6.75499809141003 9.09615247865072 15.9999999999997
vertex 9.75499816883542 3.90000010064562 15.999999999998
endloop
endfacet
facet normal 0.800103138308177 0.461939778177507 0.382683432365083
outer loop
vertex 6.75499809141003 9.09615247865072 15.9999999999997
vertex 10.3130346938295 4.22218264965585 14.4443650813876
vertex 7.31303461640412 9.41833502766094 14.4443650813893
endloop
endfacet
facet normal 0.800103138308073 0.461939778177689 -0.382683432365083
outer loop
vertex 6.75499809141003 9.09615247865072 15.9999999999997
vertex 10.3130346938299 4.22218264965506 17.5556349186083
vertex 9.75499816883542 3.90000010064562 15.999999999998
endloop
endfacet
facet normal 0.800103138308073 0.461939778177689 -0.382683432365083
outer loop
vertex 10.3130346938299 4.22218264965506 17.5556349186083
vertex 6.75499809141003 9.09615247865072 15.9999999999997
vertex 7.31303461640452 9.41833502766016 17.55563491861
endloop
endfacet
facet normal -1.74861624624434e-008 0.486070554917582 0.87391957046522
outer loop
vertex 15.3205078587236 14.0414520187262 25.9999999999995
vertex 20.3205065651266 50.0000002580843 5.99999999999931
vertex 15.3205065651266 50.0000000782116 5.99999999999931
endloop
endfacet
facet normal -1.74861624624434e-008 0.486070554917582 0.87391957046522
outer loop
vertex 20.3205065651266 50.0000002580843 5.99999999999931
vertex 15.3205078587236 14.0414520187262 25.9999999999995
vertex 20.3205078587236 14.0414521985989 25.9999999999995
endloop
endfacet
facet normal -0.800103138308056 -0.461939778177683 0.382683432365125
outer loop
vertex 13.5655099127057 6.10000015742425 15.9999999999978
vertex 10.0074733102858 10.9739699864198 14.4443650813892
vertex 13.0074733877112 5.7778176084148 14.4443650813875
endloop
endfacet
facet normal -0.800103138308056 -0.461939778177683 0.382683432365125
outer loop
vertex 10.0074733102858 10.9739699864198 14.4443650813892
vertex 13.5655099127057 6.10000015742425 15.9999999999978
vertex 10.5655098352803 11.2961525354293 15.9999999999995
endloop
endfacet
facet normal 0.331413571184691 0.191341721120591 0.923879532511258
outer loop
vertex 10.3130346938295 4.22218264965585 14.4443650813876
vertex 8.66025396334483 10.1961525070405 13.7999999999996
vertex 7.31303461640412 9.41833502766094 14.4443650813893
endloop
endfacet
facet normal 0.331413571184691 0.191341721120591 0.923879532511258
outer loop
vertex 8.66025396334483 10.1961525070405 13.7999999999996
vertex 10.3130346938295 4.22218264965585 14.4443650813876
vertex 11.6602540407702 5.00000012903544 13.7999999999979
endloop
endfacet
facet normal 0.382683465601254 -0.923879518744416 -4.95893746487156e-015
outer loop
vertex 10.3205075652188 22.199999898339 -8.16618348600347e-013
vertex 8.76487266978913 21.5556347609861 5.99999999999916
vertex 8.76487266978917 21.5556347609861 -8.29162569891141e-013
endloop
endfacet
facet normal 0.382683465601254 -0.923879518744416 -4.95893746487156e-015
outer loop
vertex 8.76487266978913 21.5556347609861 5.99999999999916
vertex 10.3205075652188 22.199999898339 -8.16618348600347e-013
vertex 10.3205075652188 22.199999898339 5.99999999999922
endloop
endfacet
facet normal 1.27417258165784e-013 -2.54478374770244e-013 1.0
outer loop
vertex 3.00000007743024 -9.83040315816197e-012 25.9999999999978
vertex 15.3205078587236 14.0414520187262 25.9999999999995
vertex 4.88418194777296e-012 5.19615237799517 25.9999999999995
endloop
endfacet
facet normal 1.27417258165784e-013 -2.54478374770244e-013 1.0
outer loop
vertex 15.3205078587236 14.0414520187262 25.9999999999995
vertex 3.00000007743024 -9.83040315816197e-012 25.9999999999978
vertex 20.3205080041137 10.0000002580748 25.9999999999979
endloop
endfacet
facet normal 1.27417258165784e-013 -2.54478374770244e-013 1.0
outer loop
vertex 15.3205078587236 14.0414520187262 25.9999999999995
vertex 20.3205080041137 10.0000002580748 25.9999999999979
vertex 20.3205078587236 14.0414521985989 25.9999999999995
endloop
endfacet
facet normal 0.86602539633418 0.500000012904226 4.10219772331277e-015
outer loop
vertex 13.8253175316018 6.25000016130285 -7.57162425718912e-013
vertex 14.8253175574136 4.51794936862854 13.7999999999973
vertex 14.8253175905702 4.51794931119979 -1.2408464015736e-012
endloop
endfacet
facet normal 0.86602539633418 0.500000012904226 4.10219772331277e-015
outer loop
vertex 14.8253175574136 4.51794936862854 13.7999999999973
vertex 13.8253175316018 6.25000016130285 -7.57162425718912e-013
vertex 13.8253175316057 6.25000016129607 13.7999999999979
endloop
endfacet
facet normal -0.923879518744423 -0.382683465601236 -5.67491596520866e-015
outer loop
vertex 11.8761417875191 41.5556348729125 5.9999999999993
vertex 12.5205069248719 39.999999977483 -6.97455327259276e-013
vertex 12.5205069248719 39.999999977483 5.99999999999929
endloop
endfacet
facet normal -0.923879518744423 -0.382683465601236 -5.67491596520866e-015
outer loop
vertex 12.5205069248719 39.999999977483 -6.97455327259276e-013
vertex 11.8761417875191 41.5556348729125 5.9999999999993
vertex 11.8761417875191 41.5556348729126 -6.92032498661983e-013
endloop
endfacet
facet normal 0.500000012904249 -0.866025396334167 4.80529399846036e-009
outer loop
vertex 14.8253175905702 4.51794931119979 -1.2408464015736e-012
vertex 10.4951905757429 2.01794930410738 13.7999999999973
vertex 10.4951906088994 2.01794924667855 -1.33108532901513e-012
endloop
endfacet
facet normal 0.500000012904249 -0.866025396334167 4.80529399846036e-009
outer loop
vertex 10.4951905757429 2.01794930410738 13.7999999999973
vertex 14.8253175905702 4.51794931119979 -1.2408464015736e-012
vertex 14.8253175574136 4.51794936862854 13.7999999999973
endloop
endfacet
facet normal 0.33141357118439 0.191341721121013 -0.923879532511278
outer loop
vertex 8.66025396334547 10.1961525070395 18.1999999999996
vertex 10.3130346938299 4.22218264965506 17.5556349186083
vertex 7.31303461640452 9.41833502766016 17.55563491861
endloop
endfacet
facet normal 0.33141357118439 0.191341721121013 -0.923879532511278
outer loop
vertex 10.3130346938299 4.22218264965506 17.5556349186083
vertex 8.66025396334547 10.1961525070395 18.1999999999996
vertex 11.6602540407709 5.00000012903436 18.1999999999979
endloop
endfacet
facet normal -0.923879546278149 0.382683399128943 2.48058357113177e-015
outer loop
vertex 12.5205076443627 19.9999999774828 5.99999999999922
vertex 11.8761426189364 18.4443650356918 -8.30037659650743e-013
vertex 11.8761426189364 18.4443650356918 5.99999999999921
endloop
endfacet
facet normal -0.923879546278149 0.382683399128943 2.48058357113177e-015
outer loop
vertex 11.8761426189364 18.4443650356918 -8.30037659650743e-013
vertex 12.5205076443627 19.9999999774828 5.99999999999922
vertex 12.5205076443627 19.9999999774829 -8.16977501817864e-013
endloop
endfacet
facet normal -0.331413571184394 -0.191341721121014 0.923879532511277
outer loop
vertex 11.6602540407702 5.00000012903544 13.7999999999979
vertex 10.0074733102858 10.9739699864198 14.4443650813892
vertex 8.66025396334483 10.1961525070405 13.7999999999996
endloop
endfacet
facet normal -0.331413571184394 -0.191341721121014 0.923879532511277
outer loop
vertex 10.0074733102858 10.9739699864198 14.4443650813892
vertex 11.6602540407702 5.00000012903544 13.7999999999979
vertex 13.0074733877112 5.7778176084148 14.4443650813875
endloop
endfacet
facet normal 0.50000001290423 -0.866025396334178 -4.66879132825026e-013
outer loop
vertex 10.3130346938295 4.22218264965585 14.4443650813876
vertex 9.49519054993487 3.75000009677491 13.799999999998
vertex 11.6602540407702 5.00000012903544 13.7999999999979
endloop
endfacet
facet normal 0.50000001290423 -0.866025396334178 -4.66879132825026e-013
outer loop
vertex 20.3205080041081 10.0000002580845 -7.0499301383214e-013
vertex 13.8253175316057 6.25000016129607 13.7999999999979
vertex 13.8253175316018 6.25000016130285 -7.57162425718912e-013
endloop
endfacet
facet normal 0.50000001290423 -0.866025396334178 -4.66879132825026e-013
outer loop
vertex 13.8253175316057 6.25000016129607 13.7999999999979
vertex 20.3205080041081 10.0000002580845 -7.0499301383214e-013
vertex 20.3205080041137 10.0000002580748 25.9999999999979
endloop
endfacet
facet normal 0.50000001290423 -0.866025396334178 -4.66879132825026e-013
outer loop
vertex 13.8253175316057 6.25000016129607 13.7999999999979
vertex 20.3205080041137 10.0000002580748 25.9999999999979
vertex 13.0074733877112 5.7778176084148 14.4443650813875
endloop
endfacet
facet normal 0.50000001290423 -0.866025396334178 -4.66879132825026e-013
outer loop
vertex 13.0074733877112 5.7778176084148 14.4443650813875
vertex 20.3205080041137 10.0000002580748 25.9999999999979
vertex 13.5655099127057 6.10000015742425 15.9999999999978
endloop
endfacet
facet normal 0.50000001290423 -0.866025396334178 -4.66879132825026e-013
outer loop
vertex 13.5655099127057 6.10000015742425 15.9999999999978
vertex 20.3205080041137 10.0000002580748 25.9999999999979
vertex 13.0074733877116 5.77781760841405 17.5556349186083
endloop
endfacet
facet normal 0.50000001290423 -0.866025396334178 -4.66879132825026e-013
outer loop
vertex 13.0074733877116 5.77781760841405 17.5556349186083
vertex 20.3205080041137 10.0000002580748 25.9999999999979
vertex 11.6602540407709 5.00000012903436 18.1999999999979
endloop
endfacet
facet normal 0.50000001290423 -0.866025396334178 -4.66879132825026e-013
outer loop
vertex 11.6602540407709 5.00000012903436 18.1999999999979
vertex 20.3205080041137 10.0000002580748 25.9999999999979
vertex 3.00000007743024 -9.83040315816197e-012 25.9999999999978
endloop
endfacet
facet normal 0.50000001290423 -0.866025396334178 -4.66879132825026e-013
outer loop
vertex 9.49519054993092 3.75000009678167 -7.48702547577722e-013
vertex 3.00000007743024 -9.83040315816197e-012 25.9999999999978
vertex 3.00000007742455 -5.63993296509579e-015 -7.62848870234418e-013
endloop
endfacet
facet normal 0.50000001290423 -0.866025396334178 -4.66879132825026e-013
outer loop
vertex 3.00000007743024 -9.83040315816197e-012 25.9999999999978
vertex 9.49519054993092 3.75000009678167 -7.48702547577722e-013
vertex 9.49519054993487 3.75000009677491 13.799999999998
endloop
endfacet
facet normal 0.50000001290423 -0.866025396334178 -4.66879132825026e-013
outer loop
vertex 3.00000007743024 -9.83040315816197e-012 25.9999999999978
vertex 9.49519054993487 3.75000009677491 13.799999999998
vertex 10.3130346938295 4.22218264965585 14.4443650813876
endloop
endfacet
facet normal 0.50000001290423 -0.866025396334178 -4.66879132825026e-013
outer loop
vertex 3.00000007743024 -9.83040315816197e-012 25.9999999999978
vertex 10.3130346938295 4.22218264965585 14.4443650813876
vertex 9.75499816883542 3.90000010064562 15.999999999998
endloop
endfacet
facet normal 0.50000001290423 -0.866025396334178 -4.66879132825026e-013
outer loop
vertex 3.00000007743024 -9.83040315816197e-012 25.9999999999978
vertex 9.75499816883542 3.90000010064562 15.999999999998
vertex 10.3130346938299 4.22218264965506 17.5556349186083
endloop
endfacet
facet normal 0.50000001290423 -0.866025396334178 -4.66879132825026e-013
outer loop
vertex 3.00000007743024 -9.83040315816197e-012 25.9999999999978
vertex 10.3130346938299 4.22218264965506 17.5556349186083
vertex 11.6602540407709 5.00000012903436 18.1999999999979
endloop
endfacet
facet normal 0.50000001290423 -0.866025396334178 -4.66879132825026e-013
outer loop
vertex 13.0074733877112 5.7778176084148 14.4443650813875
vertex 11.6602540407702 5.00000012903544 13.7999999999979
vertex 13.8253175316057 6.25000016129607 13.7999999999979
endloop
endfacet
facet normal -0.866025396334168 -0.500000012904248 3.35640933381762e-015
outer loop
vertex 10.4951905757429 2.01794930410738 13.7999999999973
vertex 9.49519054993092 3.75000009678167 -7.48702547577722e-013
vertex 10.4951906088994 2.01794924667855 -1.33108532901513e-012
endloop
endfacet
facet normal -0.866025396334168 -0.500000012904248 3.35640933381762e-015
outer loop
vertex 9.49519054993092 3.75000009678167 -7.48702547577722e-013
vertex 10.4951905757429 2.01794930410738 13.7999999999973
vertex 9.49519054993487 3.75000009677491 13.799999999998
endloop
endfacet
facet normal 1.53365687577516e-013 -2.5661326136981e-013 1.0
outer loop
vertex 10.4951905757429 2.01794930410738 13.7999999999973
vertex 11.6602540407702 5.00000012903544 13.7999999999979
vertex 9.49519054993487 3.75000009677491 13.799999999998
endloop
endfacet
facet normal 1.53365687577516e-013 -2.5661326136981e-013 1.0
outer loop
vertex 11.6602540407702 5.00000012903544 13.7999999999979
vertex 10.4951905757429 2.01794930410738 13.7999999999973
vertex 14.8253175574136 4.51794936862854 13.7999999999973
endloop
endfacet
facet normal 1.53365687577516e-013 -2.5661326136981e-013 1.0
outer loop
vertex 11.6602540407702 5.00000012903544 13.7999999999979
vertex 14.8253175574136 4.51794936862854 13.7999999999973
vertex 13.8253175316057 6.25000016129607 13.7999999999979
endloop
endfacet
facet normal -0.923879546278163 0.382683399128909 -1.89522154407268e-015
outer loop
vertex 11.8761418994456 38.4443650356917 5.99999999999928
vertex 12.5205069248719 39.999999977483 -6.97455327259276e-013
vertex 11.8761418994456 38.4443650356917 -7.10515485092156e-013
endloop
endfacet
facet normal -0.923879546278163 0.382683399128909 -1.89522154407268e-015
outer loop
vertex 12.5205069248719 39.999999977483 -6.97455327259276e-013
vertex 11.8761418994456 38.4443650356917 5.99999999999928
vertex 12.5205069248719 39.999999977483 5.99999999999929
endloop
endfacet
facet normal -0.800103138308188 -0.461939778177509 -0.382683432365059
outer loop
vertex 10.0074733102862 10.9739699864191 17.55563491861
vertex 13.5655099127057 6.10000015742425 15.9999999999978
vertex 13.0074733877116 5.77781760841405 17.5556349186083
endloop
endfacet
facet normal -0.800103138308188 -0.461939778177509 -0.382683432365059
outer loop
vertex 13.5655099127057 6.10000015742425 15.9999999999978
vertex 10.0074733102862 10.9739699864191 17.55563491861
vertex 10.5655098352803 11.2961525354293 15.9999999999995
endloop
endfacet
facet normal 0.923879546278135 -0.382683399128975 2.57153023823526e-015
outer loop
vertex 8.76487195029835 41.5556347609861 -7.09640395332554e-013
vertex 8.12050692487194 39.999999819195 5.99999999999926
vertex 8.12050692487195 39.9999998191949 -7.678200168862e-013
endloop
endfacet
facet normal 0.923879546278135 -0.382683399128975 2.57153023823526e-015
outer loop
vertex 8.12050692487194 39.999999819195 5.99999999999926
vertex 8.76487195029835 41.5556347609861 -7.09640395332554e-013
vertex 8.76487195029835 41.5556347609861 5.99999999999928
endloop
endfacet
facet normal 0.382683399128967 0.923879546278139 1.42876738988211e-015
outer loop
vertex 8.76487278171562 18.4443649237653 5.99999999999914
vertex 10.3205077235067 17.7999998983389 -8.42581880941537e-013
vertex 8.76487278171562 18.4443649237653 -8.47645556321314e-013
endloop
endfacet
facet normal 0.382683399128967 0.923879546278139 1.42876738988211e-015
outer loop
vertex 10.3205077235067 17.7999998983389 -8.42581880941537e-013
vertex 8.76487278171562 18.4443649237653 5.99999999999914
vertex 10.3205077235067 17.7999998983389 5.99999999999924
endloop
endfacet
facet normal -0.999999999999999 -3.59745385147825e-008 2.42963525594823e-013
outer loop
vertex 15.3205065651266 50.0000000782116 5.99999999999931
vertex 15.3205078587187 14.0414520187347 5.99999999999923
vertex 15.3205078587236 14.0414520187262 25.9999999999995
endloop
endfacet
facet normal 4.3512639721694e-015 -3.34276780154545e-015 1.0
outer loop
vertex 28.3205081495087 14.0414520187347 5.99999999999923
vertex 31.1205083638647 19.9999999774828 5.99999999999922
vertex 28.3205094431008 50.0000000782116 5.99999999999931
endloop
endfacet
facet normal 4.3512639721694e-015 -3.34276780154545e-015 1.0
outer loop
vertex 31.1205083638647 19.9999999774828 5.99999999999922
vertex 28.3205081495087 14.0414520187347 5.99999999999923
vertex 31.764873389291 18.4443650356918 5.99999999999921
endloop
endfacet
facet normal 4.3512639721694e-015 -3.34276780154545e-015 1.0
outer loop
vertex 31.764873389291 18.4443650356918 5.99999999999921
vertex 28.3205081495087 14.0414520187347 5.99999999999923
vertex 43.6410160082274 5.19615237800358 5.99999999999909
endloop
endfacet
facet normal 4.3512639721694e-015 -3.34276780154545e-015 1.0
outer loop
vertex 31.764873389291 18.4443650356918 5.99999999999921
vertex 43.6410160082274 5.19615237800358 5.99999999999909
vertex 33.3205082847207 17.7999998983389 5.99999999999924
endloop
endfacet
facet normal 4.3512639721694e-015 -3.34276780154545e-015 1.0
outer loop
vertex 33.3205082847207 17.7999998983389 5.99999999999924
vertex 43.6410160082274 5.19615237800358 5.99999999999909
vertex 34.8761432265118 18.4443649237653 5.99999999999914
endloop
endfacet
facet normal 4.3512639721694e-015 -3.34276780154545e-015 1.0
outer loop
vertex 34.8761432265118 18.4443649237653 5.99999999999914
vertex 43.6410160082274 5.19615237800358 5.99999999999909
vertex 35.5205083638646 19.9999998191951 5.99999999999915
endloop
endfacet
facet normal 4.3512639721694e-015 -3.34276780154545e-015 1.0
outer loop
vertex 35.5205083638646 19.9999998191951 5.99999999999915
vertex 43.6410160082274 5.19615237800358 5.99999999999909
vertex 35.5205090833555 39.999999819195 5.99999999999926
endloop
endfacet
facet normal 4.3512639721694e-015 -3.34276780154545e-015 1.0
outer loop
vertex 28.3205094431008 50.0000000782116 5.99999999999931
vertex 33.3205091624995 42.1999998983389 5.99999999999934
vertex 43.6410173018195 41.1547007354918 5.99999999999926
endloop
endfacet
facet normal 4.3512639721694e-015 -3.34276780154545e-015 1.0
outer loop
vertex 33.3205091624995 42.1999998983389 5.99999999999934
vertex 28.3205094431008 50.0000000782116 5.99999999999931
vertex 31.7648742207083 41.5556348729125 5.9999999999993
endloop
endfacet
facet normal 4.3512639721694e-015 -3.34276780154545e-015 1.0
outer loop
vertex 31.7648742207083 41.5556348729125 5.9999999999993
vertex 28.3205094431008 50.0000000782116 5.99999999999931
vertex 31.1205090833555 39.999999977483 5.99999999999929
endloop
endfacet
facet normal 4.3512639721694e-015 -3.34276780154545e-015 1.0
outer loop
vertex 31.1205090833555 39.999999977483 5.99999999999929
vertex 28.3205094431008 50.0000000782116 5.99999999999931
vertex 31.1205083638647 19.9999999774828 5.99999999999922
endloop
endfacet
facet normal 4.3512639721694e-015 -3.34276780154545e-015 1.0
outer loop
vertex 43.6410173018195 41.1547007354918 5.99999999999926
vertex 33.3205091624995 42.1999998983389 5.99999999999934
vertex 34.8761440579291 41.5556347609861 5.99999999999928
endloop
endfacet
facet normal 4.3512639721694e-015 -3.34276780154545e-015 1.0
outer loop
vertex 43.6410173018195 41.1547007354918 5.99999999999926
vertex 34.8761440579291 41.5556347609861 5.99999999999928
vertex 35.5205090833555 39.999999819195 5.99999999999926
endloop
endfacet
facet normal 4.3512639721694e-015 -3.34276780154545e-015 1.0
outer loop
vertex 43.6410173018195 41.1547007354918 5.99999999999926
vertex 35.5205090833555 39.999999819195 5.99999999999926
vertex 43.6410160082274 5.19615237800358 5.99999999999909
endloop
endfacet
facet normal 4.3512639721694e-015 -3.34276780154545e-015 1.0
outer loop
vertex 31.7648735012175 21.5556348729125 5.99999999999923
vertex 31.1205090833555 39.999999977483 5.99999999999929
vertex 31.1205083638647 19.9999999774828 5.99999999999922
endloop
endfacet
facet normal 4.3512639721694e-015 -3.34276780154545e-015 1.0
outer loop
vertex 31.1205090833555 39.999999977483 5.99999999999929
vertex 31.7648735012175 21.5556348729125 5.99999999999923
vertex 31.7648741087818 38.4443650356917 5.99999999999928
endloop
endfacet
facet normal 4.3512639721694e-015 -3.34276780154545e-015 1.0
outer loop
vertex 31.7648741087818 38.4443650356917 5.99999999999928
vertex 31.7648735012175 21.5556348729125 5.99999999999923
vertex 33.3205084430086 22.199999898339 5.99999999999922
endloop
endfacet
facet normal 4.3512639721694e-015 -3.34276780154545e-015 1.0
outer loop
vertex 31.7648741087818 38.4443650356917 5.99999999999928
vertex 33.3205084430086 22.199999898339 5.99999999999922
vertex 33.3205090042115 37.7999998983389 5.99999999999931
endloop
endfacet
facet normal 4.3512639721694e-015 -3.34276780154545e-015 1.0
outer loop
vertex 33.3205090042115 37.7999998983389 5.99999999999931
vertex 33.3205084430086 22.199999898339 5.99999999999922
vertex 34.8761433384383 21.5556347609861 5.99999999999916
endloop
endfacet
facet normal 4.3512639721694e-015 -3.34276780154545e-015 1.0
outer loop
vertex 33.3205090042115 37.7999998983389 5.99999999999931
vertex 34.8761433384383 21.5556347609861 5.99999999999916
vertex 34.8761439460025 38.4443649237653 5.99999999999926
endloop
endfacet
facet normal 4.3512639721694e-015 -3.34276780154545e-015 1.0
outer loop
vertex 34.8761439460025 38.4443649237653 5.99999999999926
vertex 34.8761433384383 21.5556347609861 5.99999999999916
vertex 35.5205083638646 19.9999998191951 5.99999999999915
endloop
endfacet
facet normal 4.3512639721694e-015 -3.34276780154545e-015 1.0
outer loop
vertex 34.8761439460025 38.4443649237653 5.99999999999926
vertex 35.5205083638646 19.9999998191951 5.99999999999915
vertex 35.5205090833555 39.999999819195 5.99999999999926
endloop
endfacet
facet normal 0.382683465601198 0.923879518744439 3.3905890785348e-015
outer loop
vertex 31.7648741087818 38.4443650356917 -7.10454335839631e-013
vertex 33.3205090042115 37.7999998983389 5.99999999999931
vertex 33.3205090042115 37.7999998983389 -7.23351052940743e-013
endloop
endfacet
facet normal 0.382683465601198 0.923879518744439 3.3905890785348e-015
outer loop
vertex 33.3205090042115 37.7999998983389 5.99999999999931
vertex 31.7648741087818 38.4443650356917 -7.10454335839631e-013
vertex 31.7648741087818 38.4443650356917 5.99999999999928
endloop
endfacet
facet normal -0.800103138308073 0.461939778177689 -0.382683432365083
outer loop
vertex 33.3279813143975 4.22218264965506 17.5556349186083
vertex 36.8860179168174 9.09615247865072 15.9999999999997
vertex 33.886017839392 3.90000010064562 15.999999999998
endloop
endfacet
facet normal -0.800103138308073 0.461939778177689 -0.382683432365083
outer loop
vertex 36.8860179168174 9.09615247865072 15.9999999999997
vertex 33.3279813143975 4.22218264965506 17.5556349186083
vertex 36.3279813918229 9.41833502766016 17.55563491861
endloop
endfacet
facet normal 0.382683465601247 0.923879518744419 3.78223269887764e-015
outer loop
vertex 31.764873389291 18.4443650356918 -8.29976510398218e-013
vertex 33.3205082847207 17.7999998983389 5.99999999999924
vertex 33.3205082847207 17.7999998983389 -8.42520731689013e-013
endloop
endfacet
facet normal 0.382683465601247 0.923879518744419 3.78223269887764e-015
outer loop
vertex 33.3205082847207 17.7999998983389 5.99999999999924
vertex 31.764873389291 18.4443650356918 -8.29976510398218e-013
vertex 31.764873389291 18.4443650356918 5.99999999999921
endloop
endfacet
facet normal -0.923879518744415 0.382683465601258 -1.12911626645826e-015
outer loop
vertex 34.8761439460025 38.4443649237653 5.99999999999926
vertex 35.5205090833555 39.9999998191949 -7.67758867633675e-013
vertex 34.8761439460026 38.4443649237652 -7.28062232510201e-013
endloop
endfacet
facet normal -0.923879518744415 0.382683465601258 -1.12911626645826e-015
outer loop
vertex 35.5205090833555 39.9999998191949 -7.67758867633675e-013
vertex 34.8761439460025 38.4443649237653 5.99999999999926
vertex 35.5205090833555 39.999999819195 5.99999999999926
endloop
endfacet
facet normal -1.53365687577516e-013 -2.5661326136981e-013 1.0
outer loop
vertex 33.1458254324845 2.01794930410738 13.7999999999973
vertex 29.8156984766217 6.25000016129607 13.7999999999979
vertex 28.8156984508138 4.51794936862854 13.7999999999973
endloop
endfacet
facet normal -1.53365687577516e-013 -2.5661326136981e-013 1.0
outer loop
vertex 29.8156984766217 6.25000016129607 13.7999999999979
vertex 33.1458254324845 2.01794930410738 13.7999999999973
vertex 31.9807619674572 5.00000012903544 13.7999999999979
endloop
endfacet
facet normal -1.53365687577516e-013 -2.5661326136981e-013 1.0
outer loop
vertex 31.9807619674572 5.00000012903544 13.7999999999979
vertex 33.1458254324845 2.01794930410738 13.7999999999973
vertex 34.1458254582925 3.75000009677491 13.799999999998
endloop
endfacet
facet normal 0.923879546278163 0.382683399128909 -1.89522154407268e-015
outer loop
vertex 31.1205090833555 39.999999977483 -6.97394178006751e-013
vertex 31.7648741087818 38.4443650356917 5.99999999999928
vertex 31.7648741087818 38.4443650356917 -7.10454335839631e-013
endloop
endfacet
facet normal 0.923879546278163 0.382683399128909 -1.89522154407268e-015
outer loop
vertex 31.7648741087818 38.4443650356917 5.99999999999928
vertex 31.1205090833555 39.999999977483 -6.97394178006751e-013
vertex 31.1205090833555 39.999999977483 5.99999999999929
endloop
endfacet
facet normal 0.923879546278149 0.382683399128942 2.48058357113177e-015
outer loop
vertex 31.764873389291 18.4443650356918 -8.29976510398218e-013
vertex 31.1205083638647 19.9999999774828 5.99999999999922
vertex 31.764873389291 18.4443650356918 5.99999999999921
endloop
endfacet
facet normal 0.923879546278149 0.382683399128942 2.48058357113177e-015
outer loop
vertex 31.1205083638647 19.9999999774828 5.99999999999922
vertex 31.764873389291 18.4443650356918 -8.29976510398218e-013
vertex 31.1205083638647 19.9999999774829 -8.16916352565339e-013
endloop
endfacet
facet normal 0.331413571184394 -0.191341721121014 0.923879532511277
outer loop
vertex 31.9807619674572 5.00000012903544 13.7999999999979
vertex 33.6335426979416 10.9739699864198 14.4443650813892
vertex 30.6335426205163 5.7778176084148 14.4443650813875
endloop
endfacet
facet normal 0.331413571184394 -0.191341721121014 0.923879532511277
outer loop
vertex 33.6335426979416 10.9739699864198 14.4443650813892
vertex 31.9807619674572 5.00000012903544 13.7999999999979
vertex 34.9807620448826 10.1961525070405 13.7999999999996
endloop
endfacet
facet normal -0.382683465601254 -0.923879518744416 -4.95893746487156e-015
outer loop
vertex 34.8761433384383 21.5556347609861 5.99999999999916
vertex 33.3205084430086 22.199999898339 -8.16557199347822e-013
vertex 34.8761433384382 21.5556347609861 -8.29101420638616e-013
endloop
endfacet
facet normal -0.382683465601254 -0.923879518744416 -4.95893746487156e-015
outer loop
vertex 33.3205084430086 22.199999898339 -8.16557199347822e-013
vertex 34.8761433384383 21.5556347609861 5.99999999999916
vertex 33.3205084430086 22.199999898339 5.99999999999922
endloop
endfacet
facet normal 0.866025396334202 -0.500000012904188 -1.42377036994479e-014
outer loop
vertex 40.6410159308029 -5.63993296509579e-015 -7.62787720981893e-013
vertex 43.6410160082225 5.19615237799517 25.9999999999995
vertex 40.6410159307972 -9.83040315816197e-012 25.9999999999978
endloop
endfacet
facet normal 0.866025396334202 -0.500000012904188 -1.42377036994479e-014
outer loop
vertex 43.6410160082225 5.19615237799517 25.9999999999995
vertex 40.6410159308029 -5.63993296509579e-015 -7.62787720981893e-013
vertex 43.6410160082274 5.19615237800557 6.11492525243993e-017
endloop
endfacet
facet normal 0.866025396334202 -0.500000012904188 -1.42377036994479e-014
outer loop
vertex 43.6410160082225 5.19615237799517 25.9999999999995
vertex 43.6410160082274 5.19615237800557 6.11492525243993e-017
vertex 43.6410160082274 5.19615237800358 5.99999999999909
endloop
endfacet
facet normal 0.500000012904229 0.866025396334179 4.8602122326833e-013
outer loop
vertex 28.3205081495087 14.0414520187347 5.99999999999923
vertex 33.6335426979416 10.9739699864198 14.4443650813892
vertex 34.9807620448826 10.1961525070405 13.7999999999996
endloop
endfacet
facet normal 0.500000012904229 0.866025396334179 4.8602122326833e-013
outer loop
vertex 33.6335426979416 10.9739699864198 14.4443650813892
vertex 28.3205081495087 14.0414520187347 5.99999999999923
vertex 28.3205081495038 14.0414520187262 25.9999999999995
endloop
endfacet
facet normal 0.500000012904229 0.866025396334179 4.8602122326833e-013
outer loop
vertex 33.6335426979416 10.9739699864198 14.4443650813892
vertex 28.3205081495038 14.0414520187262 25.9999999999995
vertex 33.0755061729471 11.2961525354293 15.9999999999995
endloop
endfacet
facet normal 0.500000012904229 0.866025396334179 4.8602122326833e-013
outer loop
vertex 33.0755061729471 11.2961525354293 15.9999999999995
vertex 28.3205081495038 14.0414520187262 25.9999999999995
vertex 33.6335426979412 10.9739699864191 17.55563491861
endloop
endfacet
facet normal 0.500000012904229 0.866025396334179 4.8602122326833e-013
outer loop
vertex 33.6335426979412 10.9739699864191 17.55563491861
vertex 28.3205081495038 14.0414520187262 25.9999999999995
vertex 34.9807620448819 10.1961525070395 18.1999999999996
endloop
endfacet
facet normal 0.500000012904229 0.866025396334179 4.8602122326833e-013
outer loop
vertex 34.9807620448819 10.1961525070395 18.1999999999996
vertex 28.3205081495038 14.0414520187262 25.9999999999995
vertex 43.6410160082225 5.19615237799517 25.9999999999995
endloop
endfacet
facet normal 0.500000012904229 0.866025396334179 4.8602122326833e-013
outer loop
vertex 43.6410160082274 5.19615237800358 5.99999999999909
vertex 36.3279813918233 9.41833502766094 14.4443650813893
vertex 43.6410160082225 5.19615237799517 25.9999999999995
endloop
endfacet
facet normal 0.500000012904229 0.866025396334179 4.8602122326833e-013
outer loop
vertex 36.3279813918233 9.41833502766094 14.4443650813893
vertex 43.6410160082274 5.19615237800358 5.99999999999909
vertex 28.3205081495087 14.0414520187347 5.99999999999923
endloop
endfacet
facet normal 0.500000012904229 0.866025396334179 4.8602122326833e-013
outer loop
vertex 36.3279813918233 9.41833502766094 14.4443650813893
vertex 28.3205081495087 14.0414520187347 5.99999999999923
vertex 34.9807620448826 10.1961525070405 13.7999999999996
endloop
endfacet
facet normal 0.500000012904229 0.866025396334179 4.8602122326833e-013
outer loop
vertex 43.6410160082225 5.19615237799517 25.9999999999995
vertex 36.3279813918233 9.41833502766094 14.4443650813893
vertex 36.8860179168174 9.09615247865072 15.9999999999997
endloop
endfacet
facet normal 0.500000012904229 0.866025396334179 4.8602122326833e-013
outer loop
vertex 43.6410160082225 5.19615237799517 25.9999999999995
vertex 36.8860179168174 9.09615247865072 15.9999999999997
vertex 36.3279813918229 9.41833502766016 17.55563491861
endloop
endfacet
facet normal 0.500000012904229 0.866025396334179 4.8602122326833e-013
outer loop
vertex 43.6410160082225 5.19615237799517 25.9999999999995
vertex 36.3279813918229 9.41833502766016 17.55563491861
vertex 34.9807620448819 10.1961525070395 18.1999999999996
endloop
endfacet
facet normal 0.92387951874443 -0.382683465601221 -4.03937544189259e-015
outer loop
vertex 31.1205083638647 19.9999999774829 -8.16916352565339e-013
vertex 31.7648735012175 21.5556348729125 5.99999999999923
vertex 31.1205083638647 19.9999999774828 5.99999999999922
endloop
endfacet
facet normal 0.92387951874443 -0.382683465601221 -4.03937544189259e-015
outer loop
vertex 31.7648735012175 21.5556348729125 5.99999999999923
vertex 31.1205083638647 19.9999999774829 -8.16916352565339e-013
vertex 31.7648735012175 21.5556348729125 -8.11493523968046e-013
endloop
endfacet
facet normal 3.59745345734908e-008 0.999999999999999 1.19921416619676e-014
outer loop
vertex 23.3205094431008 50.0000002580843 5.99999999999931
vertex 28.3205094431009 50.0000000782117 -4.85034234998238e-013
vertex 23.3205094431008 50.0000002580844 -7.28815392745727e-013
endloop
endfacet
facet normal 3.59745345734908e-008 0.999999999999999 1.19921416619676e-014
outer loop
vertex 28.3205094431009 50.0000000782117 -4.85034234998238e-013
vertex 23.3205094431008 50.0000002580843 5.99999999999931
vertex 28.3205094431008 50.0000000782116 5.99999999999931
endloop
endfacet
facet normal -0.382683465601195 -0.92387951874444 2.80454005669445e-016
outer loop
vertex 34.8761440579291 41.5556347609861 5.99999999999928
vertex 33.3205091624994 42.1999998983389 -6.97035024789235e-013
vertex 34.8761440579291 41.5556347609861 -7.09579246080029e-013
endloop
endfacet
facet normal -0.382683465601195 -0.92387951874444 2.80454005669445e-016
outer loop
vertex 33.3205091624994 42.1999998983389 -6.97035024789235e-013
vertex 34.8761440579291 41.5556347609861 5.99999999999928
vertex 33.3205091624995 42.1999998983389 5.99999999999934
endloop
endfacet
facet normal -0.382683399128967 0.923879546278139 1.42876738988211e-015
outer loop
vertex 33.3205082847207 17.7999998983389 -8.42520731689013e-013
vertex 34.8761432265118 18.4443649237653 5.99999999999914
vertex 34.8761432265118 18.4443649237653 -8.47584407068789e-013
endloop
endfacet
facet normal -0.382683399128967 0.923879546278139 1.42876738988211e-015
outer loop
vertex 34.8761432265118 18.4443649237653 5.99999999999914
vertex 33.3205082847207 17.7999998983389 -8.42520731689013e-013
vertex 33.3205082847207 17.7999998983389 5.99999999999924
endloop
endfacet
facet normal -0.500000012904249 -0.866025396334167 4.80529399846036e-009
outer loop
vertex 33.1458254324845 2.01794930410738 13.7999999999973
vertex 28.8156984176572 4.51794931119979 -1.24078525232107e-012
vertex 33.145825399328 2.01794924667855 -1.33102417976261e-012
endloop
endfacet
facet normal -0.500000012904249 -0.866025396334167 4.80529399846036e-009
outer loop
vertex 28.8156984176572 4.51794931119979 -1.24078525232107e-012
vertex 33.1458254324845 2.01794930410738 13.7999999999973
vertex 28.8156984508138 4.51794936862854 13.7999999999973
endloop
endfacet
facet normal 0.999999999999999 -3.59745385147825e-008 2.42963525594823e-013
outer loop
vertex 28.3205094431008 50.0000000782116 5.99999999999931
vertex 28.3205081495038 14.0414520187262 25.9999999999995
vertex 28.3205081495087 14.0414520187347 5.99999999999923
endloop
endfacet
facet normal 1.74861624624434e-008 0.486070554917582 0.87391957046522
outer loop
vertex 28.3205081495038 14.0414520187262 25.9999999999995
vertex 23.3205094431008 50.0000002580843 5.99999999999931
vertex 23.3205081495038 14.0414521985989 25.9999999999995
endloop
endfacet
facet normal 1.74861624624434e-008 0.486070554917582 0.87391957046522
outer loop
vertex 23.3205094431008 50.0000002580843 5.99999999999931
vertex 28.3205081495038 14.0414520187262 25.9999999999995
vertex 28.3205094431008 50.0000000782116 5.99999999999931
endloop
endfacet
facet normal -0.92387951874444 0.382683465601197 8.3590598205413e-016
outer loop
vertex 35.5205083638646 19.9999998191951 5.99999999999915
vertex 34.8761432265118 18.4443649237653 -8.47584407068789e-013
vertex 34.8761432265118 18.4443649237653 5.99999999999914
endloop
endfacet
facet normal -0.92387951874444 0.382683465601197 8.3590598205413e-016
outer loop
vertex 34.8761432265118 18.4443649237653 -8.47584407068789e-013
vertex 35.5205083638646 19.9999998191951 5.99999999999915
vertex 35.5205083638646 19.9999998191951 -8.42161578471496e-013
endloop
endfacet
facet normal 0.800103138308188 -0.461939778177509 -0.382683432365059
outer loop
vertex 30.0755060955217 6.10000015742425 15.9999999999978
vertex 33.6335426979412 10.9739699864191 17.55563491861
vertex 30.6335426205158 5.77781760841405 17.5556349186083
endloop
endfacet
facet normal 0.800103138308188 -0.461939778177509 -0.382683432365059
outer loop
vertex 33.6335426979412 10.9739699864191 17.55563491861
vertex 30.0755060955217 6.10000015742425 15.9999999999978
vertex 33.0755061729471 11.2961525354293 15.9999999999995
endloop
endfacet
facet normal -0.923879546278135 -0.382683399128975 2.57153023823526e-015
outer loop
vertex 35.5205090833555 39.999999819195 5.99999999999926
vertex 34.8761440579291 41.5556347609861 -7.09579246080029e-013
vertex 35.5205090833555 39.9999998191949 -7.67758867633675e-013
endloop
endfacet
facet normal -0.923879546278135 -0.382683399128975 2.57153023823526e-015
outer loop
vertex 34.8761440579291 41.5556347609861 -7.09579246080029e-013
vertex 35.5205090833555 39.999999819195 5.99999999999926
vertex 34.8761440579291 41.5556347609861 5.99999999999928
endloop
endfacet
facet normal -0.800103138308177 0.461939778177507 0.382683432365083
outer loop
vertex 36.8860179168174 9.09615247865072 15.9999999999997
vertex 33.3279813143979 4.22218264965585 14.4443650813876
vertex 33.886017839392 3.90000010064562 15.999999999998
endloop
endfacet
facet normal -0.800103138308177 0.461939778177507 0.382683432365083
outer loop
vertex 33.3279813143979 4.22218264965585 14.4443650813876
vertex 36.8860179168174 9.09615247865072 15.9999999999997
vertex 36.3279813918233 9.41833502766094 14.4443650813893
endloop
endfacet
facet normal -1.27417258165784e-013 -2.54478374770244e-013 1.0
outer loop
vertex 40.6410159307972 -9.83040315816197e-012 25.9999999999978
vertex 23.3205081495038 14.0414521985989 25.9999999999995
vertex 23.3205080041137 10.0000002580748 25.9999999999979
endloop
endfacet
facet normal -1.27417258165784e-013 -2.54478374770244e-013 1.0
outer loop
vertex 23.3205081495038 14.0414521985989 25.9999999999995
vertex 40.6410159307972 -9.83040315816197e-012 25.9999999999978
vertex 28.3205081495038 14.0414520187262 25.9999999999995
endloop
endfacet
facet normal -1.27417258165784e-013 -2.54478374770244e-013 1.0
outer loop
vertex 28.3205081495038 14.0414520187262 25.9999999999995
vertex 40.6410159307972 -9.83040315816197e-012 25.9999999999978
vertex 43.6410160082225 5.19615237799517 25.9999999999995
endloop
endfacet
facet normal -0.86602539633418 0.500000012904226 4.10219772331277e-015
outer loop
vertex 28.8156984508138 4.51794936862854 13.7999999999973
vertex 29.8156984766256 6.25000016130285 -7.57101276466387e-013
vertex 28.8156984176572 4.51794931119979 -1.24078525232107e-012
endloop
endfacet
facet normal -0.86602539633418 0.500000012904226 4.10219772331277e-015
outer loop
vertex 29.8156984766256 6.25000016130285 -7.57101276466387e-013
vertex 28.8156984508138 4.51794936862854 13.7999999999973
vertex 29.8156984766217 6.25000016129607 13.7999999999979
endloop
endfacet
facet normal 0.923879518744423 -0.382683465601236 -5.67491596520866e-015
outer loop
vertex 31.1205090833555 39.999999977483 -6.97394178006751e-013
vertex 31.7648742207083 41.5556348729125 5.9999999999993
vertex 31.1205090833555 39.999999977483 5.99999999999929
endloop
endfacet
facet normal 0.923879518744423 -0.382683465601236 -5.67491596520866e-015
outer loop
vertex 31.7648742207083 41.5556348729125 5.9999999999993
vertex 31.1205090833555 39.999999977483 -6.97394178006751e-013
vertex 31.7648742207083 41.5556348729126 -6.91971349409458e-013
endloop
endfacet
facet normal -0.38268339912895 0.923879546278146 -9.40058938110002e-018
outer loop
vertex 33.3205090042115 37.7999998983389 -7.23351052940743e-013
vertex 34.8761439460025 38.4443649237653 5.99999999999926
vertex 34.8761439460026 38.4443649237652 -7.28062232510201e-013
endloop
endfacet
facet normal -0.38268339912895 0.923879546278146 -9.40058938110002e-018
outer loop
vertex 34.8761439460025 38.4443649237653 5.99999999999926
vertex 33.3205090042115 37.7999998983389 -7.23351052940743e-013
vertex 33.3205090042115 37.7999998983389 5.99999999999931
endloop
endfacet
facet normal 0.866025396334168 -0.500000012904248 3.35640933381762e-015
outer loop
vertex 34.1458254582965 3.75000009678167 -7.48641398325197e-013
vertex 33.1458254324845 2.01794930410738 13.7999999999973
vertex 33.145825399328 2.01794924667855 -1.33102417976261e-012
endloop
endfacet
facet normal 0.866025396334168 -0.500000012904248 3.35640933381762e-015
outer loop
vertex 33.1458254324845 2.01794930410738 13.7999999999973
vertex 34.1458254582965 3.75000009678167 -7.48641398325197e-013
vertex 34.1458254582925 3.75000009677491 13.799999999998
endloop
endfacet
facet normal 0.382683399128924 -0.923879546278157 -4.84752620850346e-015
outer loop
vertex 33.3205091624995 42.1999998983389 5.99999999999934
vertex 31.7648742207083 41.5556348729126 -6.91971349409458e-013
vertex 33.3205091624994 42.1999998983389 -6.97035024789235e-013
endloop
endfacet
facet normal 0.382683399128924 -0.923879546278157 -4.84752620850346e-015
outer loop
vertex 31.7648742207083 41.5556348729126 -6.91971349409458e-013
vertex 33.3205091624995 42.1999998983389 5.99999999999934
vertex 31.7648742207083 41.5556348729125 5.9999999999993
endloop
endfacet
facet normal 0.382683399129017 -0.923879546278118 -3.17895780373853e-015
outer loop
vertex 33.3205084430086 22.199999898339 5.99999999999922
vertex 31.7648735012175 21.5556348729125 -8.11493523968046e-013
vertex 33.3205084430086 22.199999898339 -8.16557199347822e-013
endloop
endfacet
facet normal 0.382683399129017 -0.923879546278118 -3.17895780373853e-015
outer loop
vertex 31.7648735012175 21.5556348729125 -8.11493523968046e-013
vertex 33.3205084430086 22.199999898339 5.99999999999922
vertex 31.7648735012175 21.5556348729125 5.99999999999923
endloop
endfacet
facet normal -0.999999999999999 3.59745566669289e-008 -1.9363762749498e-013
outer loop
vertex 23.3205081495038 14.0414521985989 25.9999999999995
vertex 23.3205080041193 10.0000002580845 -7.04931864579615e-013
vertex 23.3205080041137 10.0000002580748 25.9999999999979
endloop
endfacet
facet normal -0.999999999999999 3.59745566669289e-008 -1.9363762749498e-013
outer loop
vertex 23.3205080041193 10.0000002580845 -7.04931864579615e-013
vertex 23.3205081495038 14.0414521985989 25.9999999999995
vertex 23.3205094431008 50.0000002580844 -7.28815392745727e-013
endloop
endfacet
facet normal -0.999999999999999 3.59745566669289e-008 -1.9363762749498e-013
outer loop
vertex 23.3205094431008 50.0000002580844 -7.28815392745727e-013
vertex 23.3205081495038 14.0414521985989 25.9999999999995
vertex 23.3205094431008 50.0000002580843 5.99999999999931
endloop
endfacet
facet normal 0.999999999999999 -3.59745378486487e-008 4.49689268076706e-015
outer loop
vertex 43.6410160082274 5.19615237800557 6.11492525243993e-017
vertex 43.6410173018195 41.1547007354918 5.99999999999926
vertex 43.6410160082274 5.19615237800358 5.99999999999909
endloop
endfacet
facet normal 0.999999999999999 -3.59745378486487e-008 4.49689268076706e-015
outer loop
vertex 43.6410173018195 41.1547007354918 5.99999999999926
vertex 43.6410160082274 5.19615237800557 6.11492525243993e-017
vertex 43.6410173018196 41.1547007354919 -5.3367865682219e-013
endloop
endfacet
facet normal 0.500000000269924 0.866025403628598 1.3629837998247e-014
outer loop
vertex 28.3205094431009 50.0000000782117 -4.85034234998238e-013
vertex 43.6410173018195 41.1547007354918 5.99999999999926
vertex 43.6410173018196 41.1547007354919 -5.3367865682219e-013
endloop
endfacet
facet normal 0.500000000269924 0.866025403628598 1.3629837998247e-014
outer loop
vertex 43.6410173018195 41.1547007354918 5.99999999999926
vertex 28.3205094431009 50.0000000782117 -4.85034234998238e-013
vertex 28.3205094431008 50.0000000782116 5.99999999999931
endloop
endfacet
facet normal -0.923879546278132 -0.382683399128984 5.34883125938198e-016
outer loop
vertex 35.5205083638646 19.9999998191951 5.99999999999915
vertex 34.8761433384382 21.5556347609861 -8.29101420638616e-013
vertex 35.5205083638646 19.9999998191951 -8.42161578471496e-013
endloop
endfacet
facet normal -0.923879546278132 -0.382683399128984 5.34883125938198e-016
outer loop
vertex 34.8761433384382 21.5556347609861 -8.29101420638616e-013
vertex 35.5205083638646 19.9999998191951 5.99999999999915
vertex 34.8761433384383 21.5556347609861 5.99999999999916
endloop
endfacet
facet normal 2.44483550961006e-014 7.35141117865676e-015 -1.0
outer loop
vertex 31.1205090833555 39.999999977483 -6.97394178006751e-013
vertex 31.7648735012175 21.5556348729125 -8.11493523968046e-013
vertex 31.1205083638647 19.9999999774829 -8.16916352565339e-013
endloop
endfacet
facet normal 2.44483550961006e-014 7.35141117865676e-015 -1.0
outer loop
vertex 31.7648735012175 21.5556348729125 -8.11493523968046e-013
vertex 31.1205090833555 39.999999977483 -6.97394178006751e-013
vertex 31.7648741087818 38.4443650356917 -7.10454335839631e-013
endloop
endfacet
facet normal 2.44483550961006e-014 7.35141117865676e-015 -1.0
outer loop
vertex 31.7648735012175 21.5556348729125 -8.11493523968046e-013
vertex 31.7648741087818 38.4443650356917 -7.10454335839631e-013
vertex 33.3205084430086 22.199999898339 -8.16557199347822e-013
endloop
endfacet
facet normal 2.44483550961006e-014 7.35141117865676e-015 -1.0
outer loop
vertex 33.3205084430086 22.199999898339 -8.16557199347822e-013
vertex 31.7648741087818 38.4443650356917 -7.10454335839631e-013
vertex 33.3205090042115 37.7999998983389 -7.23351052940743e-013
endloop
endfacet
facet normal 2.44483550961006e-014 7.35141117865676e-015 -1.0
outer loop
vertex 33.3205084430086 22.199999898339 -8.16557199347822e-013
vertex 33.3205090042115 37.7999998983389 -7.23351052940743e-013
vertex 34.8761433384382 21.5556347609861 -8.29101420638616e-013
endloop
endfacet
facet normal 2.44483550961006e-014 7.35141117865676e-015 -1.0
outer loop
vertex 34.8761433384382 21.5556347609861 -8.29101420638616e-013
vertex 33.3205090042115 37.7999998983389 -7.23351052940743e-013
vertex 34.8761439460026 38.4443649237652 -7.28062232510201e-013
endloop
endfacet
facet normal 2.44483550961006e-014 7.35141117865676e-015 -1.0
outer loop
vertex 34.8761433384382 21.5556347609861 -8.29101420638616e-013
vertex 34.8761439460026 38.4443649237652 -7.28062232510201e-013
vertex 35.5205083638646 19.9999998191951 -8.42161578471496e-013
endloop
endfacet
facet normal 2.44483550961006e-014 7.35141117865676e-015 -1.0
outer loop
vertex 35.5205083638646 19.9999998191951 -8.42161578471496e-013
vertex 34.8761439460026 38.4443649237652 -7.28062232510201e-013
vertex 35.5205090833555 39.9999998191949 -7.67758867633675e-013
endloop
endfacet
facet normal 2.44483550961006e-014 7.35141117865676e-015 -1.0
outer loop
vertex 23.3205094431008 50.0000002580844 -7.28815392745727e-013
vertex 29.8156984766256 6.25000016130285 -7.57101276466387e-013
vertex 23.3205080041193 10.0000002580845 -7.04931864579615e-013
endloop
endfacet
facet normal 2.44483550961006e-014 7.35141117865676e-015 -1.0
outer loop
vertex 29.8156984766256 6.25000016130285 -7.57101276466387e-013
vertex 23.3205094431008 50.0000002580844 -7.28815392745727e-013
vertex 28.3205094431009 50.0000000782117 -4.85034234998238e-013
endloop
endfacet
facet normal 2.44483550961006e-014 7.35141117865676e-015 -1.0
outer loop
vertex 29.8156984766256 6.25000016130285 -7.57101276466387e-013
vertex 28.3205094431009 50.0000000782117 -4.85034234998238e-013
vertex 31.1205090833555 39.999999977483 -6.97394178006751e-013
endloop
endfacet
facet normal 2.44483550961006e-014 7.35141117865676e-015 -1.0
outer loop
vertex 31.1205090833555 39.999999977483 -6.97394178006751e-013
vertex 28.3205094431009 50.0000000782117 -4.85034234998238e-013
vertex 31.7648742207083 41.5556348729126 -6.91971349409458e-013
endloop
endfacet
facet normal 2.44483550961006e-014 7.35141117865676e-015 -1.0
outer loop
vertex 31.7648742207083 41.5556348729126 -6.91971349409458e-013
vertex 28.3205094431009 50.0000000782117 -4.85034234998238e-013
vertex 33.3205091624994 42.1999998983389 -6.97035024789235e-013
endloop
endfacet
facet normal 2.44483550961006e-014 7.35141117865676e-015 -1.0
outer loop
vertex 33.3205091624994 42.1999998983389 -6.97035024789235e-013
vertex 28.3205094431009 50.0000000782117 -4.85034234998238e-013
vertex 43.6410173018196 41.1547007354919 -5.3367865682219e-013
endloop
endfacet
facet normal 2.44483550961006e-014 7.35141117865676e-015 -1.0
outer loop
vertex 29.8156984766256 6.25000016130285 -7.57101276466387e-013
vertex 31.1205090833555 39.999999977483 -6.97394178006751e-013
vertex 31.1205083638647 19.9999999774829 -8.16916352565339e-013
endloop
endfacet
facet normal 2.44483550961006e-014 7.35141117865676e-015 -1.0
outer loop
vertex 33.3205091624994 42.1999998983389 -6.97035024789235e-013
vertex 43.6410173018196 41.1547007354919 -5.3367865682219e-013
vertex 34.8761440579291 41.5556347609861 -7.09579246080029e-013
endloop
endfacet
facet normal 2.44483550961006e-014 7.35141117865676e-015 -1.0
outer loop
vertex 34.8761440579291 41.5556347609861 -7.09579246080029e-013
vertex 43.6410173018196 41.1547007354919 -5.3367865682219e-013
vertex 35.5205090833555 39.9999998191949 -7.67758867633675e-013
endloop
endfacet
facet normal 2.44483550961006e-014 7.35141117865676e-015 -1.0
outer loop
vertex 35.5205090833555 39.9999998191949 -7.67758867633675e-013
vertex 43.6410173018196 41.1547007354919 -5.3367865682219e-013
vertex 40.6410159308029 -5.63993296509579e-015 -7.62787720981893e-013
endloop
endfacet
facet normal 2.44483550961006e-014 7.35141117865676e-015 -1.0
outer loop
vertex 40.6410159308029 -5.63993296509579e-015 -7.62787720981893e-013
vertex 43.6410173018196 41.1547007354919 -5.3367865682219e-013
vertex 43.6410160082274 5.19615237800557 6.11492525243993e-017
endloop
endfacet
facet normal 2.44483550961006e-014 7.35141117865676e-015 -1.0
outer loop
vertex 29.8156984766256 6.25000016130285 -7.57101276466387e-013
vertex 33.145825399328 2.01794924667855 -1.33102417976261e-012
vertex 28.8156984176572 4.51794931119979 -1.24078525232107e-012
endloop
endfacet
facet normal 2.44483550961006e-014 7.35141117865676e-015 -1.0
outer loop
vertex 33.145825399328 2.01794924667855 -1.33102417976261e-012
vertex 29.8156984766256 6.25000016130285 -7.57101276466387e-013
vertex 31.1205083638647 19.9999999774829 -8.16916352565339e-013
endloop
endfacet
facet normal 2.44483550961006e-014 7.35141117865676e-015 -1.0
outer loop
vertex 33.145825399328 2.01794924667855 -1.33102417976261e-012
vertex 31.1205083638647 19.9999999774829 -8.16916352565339e-013
vertex 31.764873389291 18.4443650356918 -8.29976510398218e-013
endloop
endfacet
facet normal 2.44483550961006e-014 7.35141117865676e-015 -1.0
outer loop
vertex 33.145825399328 2.01794924667855 -1.33102417976261e-012
vertex 31.764873389291 18.4443650356918 -8.29976510398218e-013
vertex 33.3205082847207 17.7999998983389 -8.42520731689013e-013
endloop
endfacet
facet normal 2.44483550961006e-014 7.35141117865676e-015 -1.0
outer loop
vertex 33.145825399328 2.01794924667855 -1.33102417976261e-012
vertex 33.3205082847207 17.7999998983389 -8.42520731689013e-013
vertex 34.1458254582965 3.75000009678167 -7.48641398325197e-013
endloop
endfacet
facet normal 2.44483550961006e-014 7.35141117865676e-015 -1.0
outer loop
vertex 34.1458254582965 3.75000009678167 -7.48641398325197e-013
vertex 33.3205082847207 17.7999998983389 -8.42520731689013e-013
vertex 34.8761432265118 18.4443649237653 -8.47584407068789e-013
endloop
endfacet
facet normal 2.44483550961006e-014 7.35141117865676e-015 -1.0
outer loop
vertex 34.1458254582965 3.75000009678167 -7.48641398325197e-013
vertex 34.8761432265118 18.4443649237653 -8.47584407068789e-013
vertex 40.6410159308029 -5.63993296509579e-015 -7.62787720981893e-013
endloop
endfacet
facet normal 2.44483550961006e-014 7.35141117865676e-015 -1.0
outer loop
vertex 40.6410159308029 -5.63993296509579e-015 -7.62787720981893e-013
vertex 34.8761432265118 18.4443649237653 -8.47584407068789e-013
vertex 35.5205083638646 19.9999998191951 -8.42161578471496e-013
endloop
endfacet
facet normal 2.44483550961006e-014 7.35141117865676e-015 -1.0
outer loop
vertex 40.6410159308029 -5.63993296509579e-015 -7.62787720981893e-013
vertex 35.5205083638646 19.9999998191951 -8.42161578471496e-013
vertex 35.5205090833555 39.9999998191949 -7.67758867633675e-013
endloop
endfacet
facet normal -0.33141357118439 0.191341721121013 -0.923879532511278
outer loop
vertex 34.9807620448819 10.1961525070395 18.1999999999996
vertex 33.3279813143975 4.22218264965506 17.5556349186083
vertex 31.9807619674565 5.00000012903436 18.1999999999979
endloop
endfacet
facet normal -0.33141357118439 0.191341721121013 -0.923879532511278
outer loop
vertex 33.3279813143975 4.22218264965506 17.5556349186083
vertex 34.9807620448819 10.1961525070395 18.1999999999996
vertex 36.3279813918229 9.41833502766016 17.55563491861
endloop
endfacet
facet normal -0.50000001290423 -0.866025396334178 -4.66879132825026e-013
outer loop
vertex 30.6335426205163 5.7778176084148 14.4443650813875
vertex 29.8156984766217 6.25000016129607 13.7999999999979
vertex 31.9807619674572 5.00000012903544 13.7999999999979
endloop
endfacet
facet normal -0.50000001290423 -0.866025396334178 -4.66879132825026e-013
outer loop
vertex 40.6410159307972 -9.83040315816197e-012 25.9999999999978
vertex 34.1458254582965 3.75000009678167 -7.48641398325197e-013
vertex 40.6410159308029 -5.63993296509579e-015 -7.62787720981893e-013
endloop
endfacet
facet normal -0.50000001290423 -0.866025396334178 -4.66879132825026e-013
outer loop
vertex 34.1458254582965 3.75000009678167 -7.48641398325197e-013
vertex 40.6410159307972 -9.83040315816197e-012 25.9999999999978
vertex 34.1458254582925 3.75000009677491 13.799999999998
endloop
endfacet
facet normal -0.50000001290423 -0.866025396334178 -4.66879132825026e-013
outer loop
vertex 34.1458254582925 3.75000009677491 13.799999999998
vertex 40.6410159307972 -9.83040315816197e-012 25.9999999999978
vertex 33.3279813143979 4.22218264965585 14.4443650813876
endloop
endfacet
facet normal -0.50000001290423 -0.866025396334178 -4.66879132825026e-013
outer loop
vertex 33.3279813143979 4.22218264965585 14.4443650813876
vertex 40.6410159307972 -9.83040315816197e-012 25.9999999999978
vertex 33.886017839392 3.90000010064562 15.999999999998
endloop
endfacet
facet normal -0.50000001290423 -0.866025396334178 -4.66879132825026e-013
outer loop
vertex 33.886017839392 3.90000010064562 15.999999999998
vertex 40.6410159307972 -9.83040315816197e-012 25.9999999999978
vertex 33.3279813143975 4.22218264965506 17.5556349186083
endloop
endfacet
facet normal -0.50000001290423 -0.866025396334178 -4.66879132825026e-013
outer loop
vertex 33.3279813143975 4.22218264965506 17.5556349186083
vertex 40.6410159307972 -9.83040315816197e-012 25.9999999999978
vertex 31.9807619674565 5.00000012903436 18.1999999999979
endloop
endfacet
facet normal -0.50000001290423 -0.866025396334178 -4.66879132825026e-013
outer loop
vertex 29.8156984766217 6.25000016129607 13.7999999999979
vertex 23.3205080041193 10.0000002580845 -7.04931864579615e-013
vertex 29.8156984766256 6.25000016130285 -7.57101276466387e-013
endloop
endfacet
facet normal -0.50000001290423 -0.866025396334178 -4.66879132825026e-013
outer loop
vertex 23.3205080041193 10.0000002580845 -7.04931864579615e-013
vertex 29.8156984766217 6.25000016129607 13.7999999999979
vertex 23.3205080041137 10.0000002580748 25.9999999999979
endloop
endfacet
facet normal -0.50000001290423 -0.866025396334178 -4.66879132825026e-013
outer loop
vertex 23.3205080041137 10.0000002580748 25.9999999999979
vertex 29.8156984766217 6.25000016129607 13.7999999999979
vertex 30.6335426205163 5.7778176084148 14.4443650813875
endloop
endfacet
facet normal -0.50000001290423 -0.866025396334178 -4.66879132825026e-013
outer loop
vertex 23.3205080041137 10.0000002580748 25.9999999999979
vertex 30.6335426205163 5.7778176084148 14.4443650813875
vertex 30.0755060955217 6.10000015742425 15.9999999999978
endloop
endfacet
facet normal -0.50000001290423 -0.866025396334178 -4.66879132825026e-013
outer loop
vertex 23.3205080041137 10.0000002580748 25.9999999999979
vertex 30.0755060955217 6.10000015742425 15.9999999999978
vertex 30.6335426205158 5.77781760841405 17.5556349186083
endloop
endfacet
facet normal -0.50000001290423 -0.866025396334178 -4.66879132825026e-013
outer loop
vertex 23.3205080041137 10.0000002580748 25.9999999999979
vertex 30.6335426205158 5.77781760841405 17.5556349186083
vertex 31.9807619674565 5.00000012903436 18.1999999999979
endloop
endfacet
facet normal -0.50000001290423 -0.866025396334178 -4.66879132825026e-013
outer loop
vertex 23.3205080041137 10.0000002580748 25.9999999999979
vertex 31.9807619674565 5.00000012903436 18.1999999999979
vertex 40.6410159307972 -9.83040315816197e-012 25.9999999999978
endloop
endfacet
facet normal -0.50000001290423 -0.866025396334178 -4.66879132825026e-013
outer loop
vertex 33.3279813143979 4.22218264965585 14.4443650813876
vertex 31.9807619674572 5.00000012903544 13.7999999999979
vertex 34.1458254582925 3.75000009677491 13.799999999998
endloop
endfacet
facet normal 0.800103138308056 -0.461939778177683 0.382683432365125
outer loop
vertex 33.6335426979416 10.9739699864198 14.4443650813892
vertex 30.0755060955217 6.10000015742425 15.9999999999978
vertex 30.6335426205163 5.7778176084148 14.4443650813875
endloop
endfacet
facet normal 0.800103138308056 -0.461939778177683 0.382683432365125
outer loop
vertex 30.0755060955217 6.10000015742425 15.9999999999978
vertex 33.6335426979416 10.9739699864198 14.4443650813892
vertex 33.0755061729471 11.2961525354293 15.9999999999995
endloop
endfacet
facet normal -0.331413571184691 0.191341721120591 0.923879532511258
outer loop
vertex 33.3279813143979 4.22218264965585 14.4443650813876
vertex 34.9807620448826 10.1961525070405 13.7999999999996
vertex 31.9807619674572 5.00000012903544 13.7999999999979
endloop
endfacet
facet normal -0.331413571184691 0.191341721120591 0.923879532511258
outer loop
vertex 34.9807620448826 10.1961525070405 13.7999999999996
vertex 33.3279813143979 4.22218264965585 14.4443650813876
vertex 36.3279813918233 9.41833502766094 14.4443650813893
endloop
endfacet
facet normal 0.331413571184647 -0.191341721120563 -0.923879532511279
outer loop
vertex 33.6335426979412 10.9739699864191 17.55563491861
vertex 31.9807619674565 5.00000012903436 18.1999999999979
vertex 30.6335426205158 5.77781760841405 17.5556349186083
endloop
endfacet
facet normal 0.331413571184647 -0.191341721120563 -0.923879532511279
outer loop
vertex 31.9807619674565 5.00000012903436 18.1999999999979
vertex 33.6335426979412 10.9739699864191 17.55563491861
vertex 34.9807620448819 10.1961525070395 18.1999999999996
endloop
endfacet
endsolid 60 Inside
