solid inside corner
facet normal -0.331413590029557 -0.191341688480184 -0.923879532511286
outer loop
vertex 33.0074755813955 45.7778159137105 17.5556346801254
vertex 34.1602562334749 40.6698714743821 18.1999995765352
vertex 31.6602562392393 44.9999984260439 18.1999997615149
endloop
endfacet
facet normal -0.331413590029557 -0.191341688480184 -0.923879532511286
outer loop
vertex 34.1602562334749 40.6698714743821 18.1999995765352
vertex 33.0074755813955 45.7778159137105 17.5556346801254
vertex 35.5074755756311 41.4476889620488 17.5556344951456
endloop
endfacet
facet normal -0.382683432365098 -0.923879532511283 -1.67186966542176e-008
outer loop
vertex 34.5556384918144 31.5556349186103 5.43384451301421e-007
vertex 33.0000034637003 32.1999999367807 6.00000052178262
vertex 33.000003573204 32.1999999999999 5.21782504137036e-007
endloop
endfacet
facet normal -0.382683432365098 -0.923879532511283 -1.67186966542176e-008
outer loop
vertex 33.0000034637003 32.1999999367807 6.00000052178262
vertex 34.5556384918144 31.5556349186103 5.43384451301421e-007
vertex 34.5556383823108 31.5556348553911 6.00000054338449
endloop
endfacet
facet normal 0.923879532511283 -0.3826834323651 1.28292024642798e-008
outer loop
vertex 30.800003573204 29.9999999999999 4.58450918561226e-007
vertex 31.4443685450899 31.5556348553911 6.00000048660193
vertex 30.8000034637003 29.9999999367807 6.00000045845091
endloop
endfacet
facet normal 0.923879532511283 -0.3826834323651 1.28292024642798e-008
outer loop
vertex 31.4443685450899 31.5556348553911 6.00000048660193
vertex 30.800003573204 29.9999999999999 4.58450918561226e-007
vertex 31.4443686545936 31.5556349186103 4.86601893845417e-007
endloop
endfacet
facet normal 0.382683432365087 -0.923879532511288 -2.75028673661379e-009
outer loop
vertex 33.000003573204 32.1999999999999 5.21782504137036e-007
vertex 31.4443685450899 31.5556348553911 6.00000048660193
vertex 31.4443686545936 31.5556349186103 4.86601893845417e-007
endloop
endfacet
facet normal 0.382683432365087 -0.923879532511288 -2.75028673661379e-009
outer loop
vertex 31.4443685450899 31.5556348553911 6.00000048660193
vertex 33.000003573204 32.1999999999999 5.21782504137036e-007
vertex 33.0000034637003 32.1999999367807 6.00000052178262
endloop
endfacet
facet normal 0.923879532511288 0.382683432365085 2.08935169942983e-008
outer loop
vertex 31.4443686545934 8.44436508138951 2.43089113860506e-007
vertex 30.8000034637002 9.99999993678071 6.0000002477201
vertex 31.4443685450898 8.4443650181703 6.00000024308915
endloop
endfacet
facet normal 0.923879532511288 0.382683432365085 2.08935169942983e-008
outer loop
vertex 30.8000034637002 9.99999993678071 6.0000002477201
vertex 31.4443686545934 8.44436508138951 2.43089113860506e-007
vertex 30.8000035732038 9.99999999999994 2.47720068458079e-007
endloop
endfacet
facet normal -0.382683432365076 0.923879532511292 2.75028738031643e-009
outer loop
vertex 33.0000034637001 7.7999999367807 6.00000026469109
vertex 34.5556384918142 8.4443650813895 2.99871676956442e-007
vertex 33.0000035732038 7.79999999999992 2.6469102154536e-007
endloop
endfacet
facet normal -0.382683432365076 0.923879532511292 2.75028738031643e-009
outer loop
vertex 34.5556384918142 8.4443650813895 2.99871676956442e-007
vertex 33.0000034637001 7.7999999367807 6.00000026469109
vertex 34.5556383823106 8.44436501817026 6.00000029987167
endloop
endfacet
facet normal 0.382683432365091 0.923879532511286 1.67186934677638e-008
outer loop
vertex 31.4443685450898 8.4443650181703 6.00000024308915
vertex 33.0000035732038 7.79999999999992 2.6469102154536e-007
vertex 31.4443686545934 8.44436508138951 2.43089113860506e-007
endloop
endfacet
facet normal 0.382683432365091 0.923879532511286 1.67186934677638e-008
outer loop
vertex 33.0000035732038 7.79999999999992 2.6469102154536e-007
vertex 31.4443685450898 8.4443650181703 6.00000024308915
vertex 33.0000034637001 7.7999999367807 6.00000026469109
endloop
endfacet
facet normal -0.800103149624317 -0.461939758577376 -0.382683432365086
outer loop
vertex 33.0074755813955 45.7778159137105 17.5556346801254
vertex 36.0655120748047 41.7698715557815 15.9999995765352
vertex 35.5074755756311 41.4476889620488 17.5556344951456
endloop
endfacet
facet normal -0.800103149624317 -0.461939758577376 -0.382683432365086
outer loop
vertex 36.0655120748047 41.7698715557815 15.9999995765352
vertex 33.0074755813955 45.7778159137105 17.5556346801254
vertex 33.5655120805691 46.0999985074432 15.999999761515
endloop
endfacet
facet normal 0.999999999999984 -1.01176417815283e-014 1.78660214467106e-007
outer loop
vertex 28.0000034637004 37.1132485908326 6.00000036206005
vertex 27.9999998904961 37.1132452848651 26.0000003620598
vertex 28.0000034637001 -6.32192691307765e-008 6.00000009125302
endloop
endfacet
facet normal -0.92387953251129 -0.382683432365082 -2.08935179532724e-008
outer loop
vertex 34.5556383823106 11.5556348553911 6.00000033265368
vertex 35.2000035732038 9.99999999999988 3.28022697360097e-007
vertex 35.2000034637001 9.99999993678067 6.00000032802278
endloop
endfacet
facet normal -0.92387953251129 -0.382683432365082 -2.08935179532724e-008
outer loop
vertex 35.2000035732038 9.99999999999988 3.28022697360097e-007
vertex 34.5556383823106 11.5556348553911 6.00000033265368
vertex 34.5556384918142 11.5556349186103 3.32653691437201e-007
endloop
endfacet
facet normal -0.923879532511282 0.382683432365101 -1.28292015984218e-008
outer loop
vertex 35.2000034637003 29.9999999367807 6.00000053875349
vertex 34.5556384918143 28.4443650813895 5.10602476300193e-007
vertex 34.5556383823107 28.4443650181703 6.00000051060251
endloop
endfacet
facet normal -0.923879532511282 0.382683432365101 -1.28292015984218e-008
outer loop
vertex 34.5556384918143 28.4443650813895 5.10602476300193e-007
vertex 35.2000034637003 29.9999999367807 6.00000053875349
vertex 35.200003573204 29.9999999999999 5.38753496703848e-007
endloop
endfacet
facet normal 1.0 -8.29054458675861e-015 1.82506040576531e-008
outer loop
vertex 43.0000035732038 8.66025426694956 4.56261186387863e-007
vertex 43.0000034637004 39.9999999367806 6.00000078647361
vertex 43.0000034637001 8.66025420373035 6.00000045626117
endloop
endfacet
facet normal 1.0 -8.29054458675861e-015 1.82506040576531e-008
outer loop
vertex 43.0000034637004 39.9999999367806 6.00000078647361
vertex 43.0000035732038 8.66025426694956 4.56261186387863e-007
vertex 43.000003573204 39.9999999999998 7.8647357080186e-007
endloop
endfacet
facet normal 0.999499289416957 0.031641277708047 1.85747597426127e-008
outer loop
vertex 43.000003573204 39.9999999999998 7.8647357080186e-007
vertex 42.8205115641906 45.6698729321775 6.00000060246235
vertex 43.0000034637004 39.9999999367806 6.00000078647361
endloop
endfacet
facet normal 0.999499289416957 0.031641277708047 1.85747597426127e-008
outer loop
vertex 42.8205115641906 45.6698729321775 6.00000060246235
vertex 43.000003573204 39.9999999999998 7.8647357080186e-007
vertex 42.820511673693 45.6698729953988 8.42936507616798e-007
endloop
endfacet
facet normal 0.500000005796995 -0.866025400437541 -4.80948500149222e-008
outer loop
vertex 42.8205115641906 45.6698729321775 6.00000060246235
vertex 35.507475518079 41.4476890617321 14.4443646579248
vertex 34.1602561520838 40.6698716153556 13.7999995765352
endloop
endfacet
facet normal 0.500000005796995 -0.866025400437541 -4.80948500149222e-008
outer loop
vertex 35.507475518079 41.4476890617321 14.4443646579248
vertex 42.8205115641906 45.6698729321775 6.00000060246235
vertex 42.8205093205669 45.6698706583918 26.0000006024621
endloop
endfacet
facet normal 0.500000005796995 -0.866025400437541 -4.80948500149222e-008
outer loop
vertex 35.507475518079 41.4476890617321 14.4443646579248
vertex 42.8205093205669 45.6698706583918 26.0000006024621
vertex 36.0655120748047 41.7698715557815 15.9999995765352
endloop
endfacet
facet normal 0.500000005796995 -0.866025400437541 -4.80948500149222e-008
outer loop
vertex 36.0655120748047 41.7698715557815 15.9999995765352
vertex 42.8205093205669 45.6698706583918 26.0000006024621
vertex 35.5074755756311 41.4476889620488 17.5556344951456
endloop
endfacet
facet normal 0.500000005796995 -0.866025400437541 -4.80948500149222e-008
outer loop
vertex 35.5074755756311 41.4476889620488 17.5556344951456
vertex 42.8205093205669 45.6698706583918 26.0000006024621
vertex 34.1602562334749 40.6698714743821 18.1999995765352
endloop
endfacet
facet normal 0.500000005796995 -0.866025400437541 -4.80948500149222e-008
outer loop
vertex 34.1602562334749 40.6698714743821 18.1999995765352
vertex 42.8205093205669 45.6698706583918 26.0000006024621
vertex 27.9999998904961 37.1132452848651 26.0000003620598
endloop
endfacet
facet normal 0.500000005796995 -0.866025400437541 -4.80948500149222e-008
outer loop
vertex 28.0000034637004 37.1132485908326 6.00000036206005
vertex 32.8130368099276 39.8920541276889 14.4443646579248
vertex 27.9999998904961 37.1132452848651 26.0000003620598
endloop
endfacet
facet normal 0.500000005796995 -0.866025400437541 -4.80948500149222e-008
outer loop
vertex 32.8130368099276 39.8920541276889 14.4443646579248
vertex 28.0000034637004 37.1132485908326 6.00000036206005
vertex 42.8205115641906 45.6698729321775 6.00000060246235
endloop
endfacet
facet normal 0.500000005796995 -0.866025400437541 -4.80948500149222e-008
outer loop
vertex 32.8130368099276 39.8920541276889 14.4443646579248
vertex 42.8205115641906 45.6698729321775 6.00000060246235
vertex 34.1602561520838 40.6698716153556 13.7999995765352
endloop
endfacet
facet normal 0.500000005796995 -0.866025400437541 -4.80948500149222e-008
outer loop
vertex 27.9999998904961 37.1132452848651 26.0000003620598
vertex 32.8130368099276 39.8920541276889 14.4443646579248
vertex 32.255000310754 39.5698715339563 15.9999995765352
endloop
endfacet
facet normal 0.500000005796995 -0.866025400437541 -4.80948500149222e-008
outer loop
vertex 27.9999998904961 37.1132452848651 26.0000003620598
vertex 32.255000310754 39.5698715339563 15.9999995765352
vertex 32.8130368674798 39.8920540280056 17.5556344951456
endloop
endfacet
facet normal 0.500000005796995 -0.866025400437541 -4.80948500149222e-008
outer loop
vertex 27.9999998904961 37.1132452848651 26.0000003620598
vertex 32.8130368674798 39.8920540280056 17.5556344951456
vertex 34.1602562334749 40.6698714743821 18.1999995765352
endloop
endfacet
facet normal 0.331413555849759 0.19134174768133 -0.923879532511286
outer loop
vertex 31.6602562392393 44.9999984260439 18.1999997615149
vertex 32.8130368674798 39.8920540280056 17.5556344951456
vertex 30.3130368732441 44.2221809796674 17.5556346801254
endloop
endfacet
facet normal 0.331413555849759 0.19134174768133 -0.923879532511286
outer loop
vertex 32.8130368674798 39.8920540280056 17.5556344951456
vertex 31.6602562392393 44.9999984260439 18.1999997615149
vertex 34.1602562334749 40.6698714743821 18.1999995765352
endloop
endfacet
facet normal 0.331413590029557 0.191341688480184 0.923879532511286
outer loop
vertex 32.8130368099276 39.8920541276889 14.4443646579248
vertex 31.6602561578482 44.9999985670173 13.799999761515
vertex 30.313036815692 44.2221810793507 14.4443648429046
endloop
endfacet
facet normal 0.331413590029557 0.191341688480184 0.923879532511286
outer loop
vertex 31.6602561578482 44.9999985670173 13.799999761515
vertex 32.8130368099276 39.8920541276889 14.4443646579248
vertex 34.1602561520838 40.6698716153556 13.7999995765352
endloop
endfacet
facet normal -0.923879532511287 0.382683432365088 -1.28292011768628e-008
outer loop
vertex 35.2000034637001 9.99999993678067 6.00000032802278
vertex 34.5556384918142 8.4443650813895 2.99871676956442e-007
vertex 34.5556383823106 8.44436501817026 6.00000029987167
endloop
endfacet
facet normal -0.923879532511287 0.382683432365088 -1.28292011768628e-008
outer loop
vertex 34.5556384918142 8.4443650813895 2.99871676956442e-007
vertex 35.2000034637001 9.99999993678067 6.00000032802278
vertex 35.2000035732038 9.99999999999988 3.28022697360097e-007
endloop
endfacet
facet normal -0.923879532511289 -0.382683432365085 -2.08935183539515e-008
outer loop
vertex 34.5556383823108 31.5556348553911 6.00000054338449
vertex 35.200003573204 29.9999999999999 5.38753496703848e-007
vertex 35.2000034637003 29.9999999367807 6.00000053875349
endloop
endfacet
facet normal -0.923879532511289 -0.382683432365085 -2.08935183539515e-008
outer loop
vertex 35.200003573204 29.9999999999999 5.38753496703848e-007
vertex 34.5556383823108 31.5556348553911 6.00000054338449
vertex 34.5556384918144 31.5556349186103 5.43384451301421e-007
endloop
endfacet
facet normal 1.82505618664666e-008 1.05365399784641e-008 -1.0
outer loop
vertex 30.800003573204 29.9999999999999 4.58450918561226e-007
vertex 31.4443686545934 11.5556349186103 2.75871133981198e-007
vertex 30.8000035732038 9.99999999999994 2.47720068458079e-007
endloop
endfacet
facet normal 1.82505618664666e-008 1.05365399784641e-008 -1.0
outer loop
vertex 31.4443686545934 11.5556349186103 2.75871133981198e-007
vertex 30.800003573204 29.9999999999999 4.58450918561226e-007
vertex 31.4443686545935 28.4443650813895 4.53819918844189e-007
endloop
endfacet
facet normal 1.82505618664666e-008 1.05365399784641e-008 -1.0
outer loop
vertex 31.4443686545934 11.5556349186103 2.75871133981198e-007
vertex 31.4443686545935 28.4443650813895 4.53819918844189e-007
vertex 33.0000035732038 12.1999999999999 3.1105178939228e-007
endloop
endfacet
facet normal 1.82505618664666e-008 1.05365399784641e-008 -1.0
outer loop
vertex 33.0000035732038 12.1999999999999 3.1105178939228e-007
vertex 31.4443686545935 28.4443650813895 4.53819918844189e-007
vertex 33.0000035732039 27.7999999999999 4.75421775769647e-007
endloop
endfacet
facet normal 1.82505618664666e-008 1.05365399784641e-008 -1.0
outer loop
vertex 33.0000035732038 12.1999999999999 3.1105178939228e-007
vertex 33.0000035732039 27.7999999999999 4.75421775769647e-007
vertex 34.5556384918142 11.5556349186103 3.32653691437201e-007
endloop
endfacet
facet normal 1.82505618664666e-008 1.05365399784641e-008 -1.0
outer loop
vertex 34.5556384918142 11.5556349186103 3.32653691437201e-007
vertex 33.0000035732039 27.7999999999999 4.75421775769647e-007
vertex 34.5556384918143 28.4443650813895 5.10602476300193e-007
endloop
endfacet
facet normal 1.82505618664666e-008 1.05365399784641e-008 -1.0
outer loop
vertex 34.5556384918142 11.5556349186103 3.32653691437201e-007
vertex 34.5556384918143 28.4443650813895 5.10602476300193e-007
vertex 35.2000035732038 9.99999999999988 3.28022697360097e-007
endloop
endfacet
facet normal 1.82505618664666e-008 1.05365399784641e-008 -1.0
outer loop
vertex 35.2000035732038 9.99999999999988 3.28022697360097e-007
vertex 34.5556384918143 28.4443650813895 5.10602476300193e-007
vertex 35.200003573204 29.9999999999999 5.38753496703848e-007
endloop
endfacet
facet normal 1.82505618664666e-008 1.05365399784641e-008 -1.0
outer loop
vertex 32.8253211034295 47.9820508142419 6.84883340310853e-007
vertex 29.4951941087469 43.7499999875993 5.79514709233712e-007
vertex 28.4951940988264 45.4820507894405 5.79514709213483e-007
endloop
endfacet
facet normal 1.82505618664666e-008 1.05365399784641e-008 -1.0
outer loop
vertex 29.4951941087469 43.7499999875993 5.79514709233712e-007
vertex 32.8253211034295 47.9820508142419 6.84883340310853e-007
vertex 30.800003573204 29.9999999999999 4.58450918561226e-007
endloop
endfacet
facet normal 1.82505618664666e-008 1.05365399784641e-008 -1.0
outer loop
vertex 29.4951941087469 43.7499999875993 5.79514709233712e-007
vertex 30.800003573204 29.9999999999999 4.58450918561226e-007
vertex 30.8000035732038 9.99999999999994 2.47720068458079e-007
endloop
endfacet
facet normal 1.82505618664666e-008 1.05365399784641e-008 -1.0
outer loop
vertex 30.800003573204 29.9999999999999 4.58450918561226e-007
vertex 32.8253211034295 47.9820508142419 6.84883340310853e-007
vertex 31.4443686545936 31.5556349186103 4.86601893845417e-007
endloop
endfacet
facet normal 1.82505618664666e-008 1.05365399784641e-008 -1.0
outer loop
vertex 31.4443686545936 31.5556349186103 4.86601893845417e-007
vertex 32.8253211034295 47.9820508142419 6.84883340310853e-007
vertex 33.000003573204 32.1999999999999 5.21782504137036e-007
endloop
endfacet
facet normal 1.82505618664666e-008 1.05365399784641e-008 -1.0
outer loop
vertex 33.000003573204 32.1999999999999 5.21782504137036e-007
vertex 32.8253211034295 47.9820508142419 6.84883340310853e-007
vertex 33.82532111335 46.2500000124006 6.84883340331081e-007
endloop
endfacet
facet normal 1.82505618664666e-008 1.05365399784641e-008 -1.0
outer loop
vertex 33.000003573204 32.1999999999999 5.21782504137036e-007
vertex 33.82532111335 46.2500000124006 6.84883340331081e-007
vertex 34.5556384918144 31.5556349186103 5.43384451301421e-007
endloop
endfacet
facet normal 1.82505618664666e-008 1.05365399784641e-008 -1.0
outer loop
vertex 34.5556384918144 31.5556349186103 5.43384451301421e-007
vertex 33.82532111335 46.2500000124006 6.84883340331081e-007
vertex 40.3205116488929 49.9999999999999 8.42936564016128e-007
endloop
endfacet
facet normal 1.82505618664666e-008 1.05365399784641e-008 -1.0
outer loop
vertex 34.5556384918144 31.5556349186103 5.43384451301421e-007
vertex 40.3205116488929 49.9999999999999 8.42936564016128e-007
vertex 35.200003573204 29.9999999999999 5.38753496703848e-007
endloop
endfacet
facet normal 1.82505618664666e-008 1.05365399784641e-008 -1.0
outer loop
vertex 23.000003573204 40.0 4.21461508448573e-007
vertex 28.0000035732037 -5.06892292189889e-014 9.12530268681877e-008
vertex 23.0000035732037 0.0 0.0
endloop
endfacet
facet normal 1.82505618664666e-008 1.05365399784641e-008 -1.0
outer loop
vertex 28.0000035732037 -5.06892292189889e-014 9.12530268681877e-008
vertex 23.000003573204 40.0 4.21461508448573e-007
vertex 29.4951941087469 43.7499999875993 5.79514709233712e-007
endloop
endfacet
facet normal 1.82505618664666e-008 1.05365399784641e-008 -1.0
outer loop
vertex 28.0000035732037 -5.06892292189889e-014 9.12530268681877e-008
vertex 29.4951941087469 43.7499999875993 5.79514709233712e-007
vertex 30.8000035732038 9.99999999999994 2.47720068458079e-007
endloop
endfacet
facet normal 1.82505618664666e-008 1.05365399784641e-008 -1.0
outer loop
vertex 28.0000035732037 -5.06892292189889e-014 9.12530268681877e-008
vertex 30.8000035732038 9.99999999999994 2.47720068458079e-007
vertex 31.4443686545934 8.44436508138951 2.43089113860506e-007
endloop
endfacet
facet normal 1.82505618664666e-008 1.05365399784641e-008 -1.0
outer loop
vertex 28.0000035732037 -5.06892292189889e-014 9.12530268681877e-008
vertex 31.4443686545934 8.44436508138951 2.43089113860506e-007
vertex 33.0000035732038 7.79999999999992 2.6469102154536e-007
endloop
endfacet
facet normal 1.82505618664666e-008 1.05365399784641e-008 -1.0
outer loop
vertex 28.0000035732037 -5.06892292189889e-014 9.12530268681877e-008
vertex 33.0000035732038 7.79999999999992 2.6469102154536e-007
vertex 43.0000035732038 8.66025426694956 4.56261186387863e-007
endloop
endfacet
facet normal 1.82505618664666e-008 1.05365399784641e-008 -1.0
outer loop
vertex 43.0000035732038 8.66025426694956 4.56261186387863e-007
vertex 33.0000035732038 7.79999999999992 2.6469102154536e-007
vertex 34.5556384918142 8.4443650813895 2.99871676956442e-007
endloop
endfacet
facet normal 1.82505618664666e-008 1.05365399784641e-008 -1.0
outer loop
vertex 43.0000035732038 8.66025426694956 4.56261186387863e-007
vertex 34.5556384918142 8.4443650813895 2.99871676956442e-007
vertex 35.2000035732038 9.99999999999988 3.28022697360097e-007
endloop
endfacet
facet normal 1.82505618664666e-008 1.05365399784641e-008 -1.0
outer loop
vertex 43.0000035732038 8.66025426694956 4.56261186387863e-007
vertex 35.2000035732038 9.99999999999988 3.28022697360097e-007
vertex 35.200003573204 29.9999999999999 5.38753496703848e-007
endloop
endfacet
facet normal 1.82505618664666e-008 1.05365399784641e-008 -1.0
outer loop
vertex 43.0000035732038 8.66025426694956 4.56261186387863e-007
vertex 35.200003573204 29.9999999999999 5.38753496703848e-007
vertex 40.3205116488929 49.9999999999999 8.42936564016128e-007
endloop
endfacet
facet normal 1.82505618664666e-008 1.05365399784641e-008 -1.0
outer loop
vertex 43.0000035732038 8.66025426694956 4.56261186387863e-007
vertex 40.3205116488929 49.9999999999999 8.42936564016128e-007
vertex 42.820511673693 45.6698729953988 8.42936507616798e-007
endloop
endfacet
facet normal 1.82505618664666e-008 1.05365399784641e-008 -1.0
outer loop
vertex 43.0000035732038 8.66025426694956 4.56261186387863e-007
vertex 42.820511673693 45.6698729953988 8.42936507616798e-007
vertex 43.000003573204 39.9999999999998 7.8647357080186e-007
endloop
endfacet
facet normal -0.382683432365092 -0.923879532511286 -1.6718696479478e-008
outer loop
vertex 34.5556384918142 11.5556349186103 3.32653691437201e-007
vertex 33.0000034637002 12.1999999367807 6.00000031105182
vertex 33.0000035732038 12.1999999999999 3.1105178939228e-007
endloop
endfacet
facet normal -0.382683432365092 -0.923879532511286 -1.6718696479478e-008
outer loop
vertex 33.0000034637002 12.1999999367807 6.00000031105182
vertex 34.5556384918142 11.5556349186103 3.32653691437201e-007
vertex 34.5556383823106 11.5556348553911 6.00000033265368
endloop
endfacet
facet normal 0.382683432365095 0.923879532511284 1.67186983895903e-008
outer loop
vertex 31.4443685450899 28.4443650181703 6.00000045381995
vertex 33.0000035732039 27.7999999999999 4.75421775769647e-007
vertex 31.4443686545935 28.4443650813895 4.53819918844189e-007
endloop
endfacet
facet normal 0.382683432365095 0.923879532511284 1.67186983895903e-008
outer loop
vertex 33.0000035732039 27.7999999999999 4.75421775769647e-007
vertex 31.4443685450899 28.4443650181703 6.00000045381995
vertex 33.0000034637003 27.7999999367807 6.00000047542181
endloop
endfacet
facet normal -2.92938078904878e-010 -1.0 -1.02924296709362e-008
outer loop
vertex 28.0000035732037 -5.06892292189889e-014 9.12530268681877e-008
vertex 23.0000035943533 -6.0289918968337e-008 5.99999823324607
vertex 23.0000035732037 0.0 0.0
endloop
endfacet
facet normal -2.92938078904878e-010 -1.0 -1.02924296709362e-008
outer loop
vertex 23.0000035943533 -6.0289918968337e-008 5.99999823324607
vertex 28.0000035732037 -5.06892292189889e-014 9.12530268681877e-008
vertex 28.0000034637001 -6.32192691307765e-008 6.00000009125302
endloop
endfacet
facet normal 0.382683432365081 -0.92387953251129 -2.75028936802142e-009
outer loop
vertex 33.0000035732038 12.1999999999999 3.1105178939228e-007
vertex 31.4443685450898 11.5556348553911 6.00000027587112
vertex 31.4443686545934 11.5556349186103 2.75871133981198e-007
endloop
endfacet
facet normal 0.382683432365081 -0.92387953251129 -2.75028936802142e-009
outer loop
vertex 31.4443685450898 11.5556348553911 6.00000027587112
vertex 33.0000035732038 12.1999999999999 3.1105178939228e-007
vertex 33.0000034637002 12.1999999367807 6.00000031105182
endloop
endfacet
facet normal 0.923879532511287 0.382683432365088 2.08935197647099e-008
outer loop
vertex 31.4443686545935 28.4443650813895 4.53819918844189e-007
vertex 30.8000034637003 29.9999999367807 6.00000045845091
vertex 31.4443685450899 28.4443650181703 6.00000045381995
endloop
endfacet
facet normal 0.923879532511287 0.382683432365088 2.08935197647099e-008
outer loop
vertex 30.8000034637003 29.9999999367807 6.00000045845091
vertex 31.4443686545935 28.4443650813895 4.53819918844189e-007
vertex 30.800003573204 29.9999999999999 4.58450918561226e-007
endloop
endfacet
facet normal 0.923879532511281 -0.382683432365103 1.2829199774888e-008
outer loop
vertex 30.8000035732038 9.99999999999994 2.47720068458079e-007
vertex 31.4443685450898 11.5556348553911 6.00000027587112
vertex 30.8000034637002 9.99999993678071 6.0000002477201
endloop
endfacet
facet normal 0.923879532511281 -0.382683432365103 1.2829199774888e-008
outer loop
vertex 31.4443685450898 11.5556348553911 6.00000027587112
vertex 30.8000035732038 9.99999999999994 2.47720068458079e-007
vertex 31.4443686545934 11.5556349186103 2.75871133981198e-007
endloop
endfacet
facet normal -0.382683432365083 0.92387953251129 2.75028962616668e-009
outer loop
vertex 33.0000034637003 27.7999999367807 6.00000047542181
vertex 34.5556384918143 28.4443650813895 5.10602476300193e-007
vertex 33.0000035732039 27.7999999999999 4.75421775769647e-007
endloop
endfacet
facet normal -0.382683432365083 0.92387953251129 2.75028962616668e-009
outer loop
vertex 34.5556384918143 28.4443650813895 5.10602476300193e-007
vertex 33.0000034637003 27.7999999367807 6.00000047542181
vertex 34.5556383823107 28.4443650181703 6.00000051060251
endloop
endfacet
facet normal 0.800103135466581 0.461939783099293 -0.382683432365088
outer loop
vertex 29.7550003165184 43.899998485618 15.999999761515
vertex 32.8130368674798 39.8920540280056 17.5556344951456
vertex 32.255000310754 39.5698715339563 15.9999995765352
endloop
endfacet
facet normal 0.800103135466581 0.461939783099293 -0.382683432365088
outer loop
vertex 32.8130368674798 39.8920540280056 17.5556344951456
vertex 29.7550003165184 43.899998485618 15.999999761515
vertex 30.3130368732441 44.2221809796674 17.5556346801254
endloop
endfacet
facet normal -1.71734890082945e-007 -0.474393013883443 0.880313164946744
outer loop
vertex 23.0000035943533 -6.0289918968337e-008 5.99999823324607
vertex 27.9999998904961 37.1132452848651 26.0000003620598
vertex 22.9999998904961 37.1132452848652 26.0000002708067
endloop
endfacet
facet normal -1.71734890082945e-007 -0.474393013883443 0.880313164946744
outer loop
vertex 27.9999998904961 37.1132452848651 26.0000003620598
vertex 23.0000035943533 -6.0289918968337e-008 5.99999823324607
vertex 28.0000034637001 -6.32192691307765e-008 6.00000009125302
endloop
endfacet
facet normal -0.800103135466581 -0.461939783099294 0.382683432365086
outer loop
vertex 36.0655120748047 41.7698715557815 15.9999995765352
vertex 33.0074755238433 45.7778160133938 14.4443648429046
vertex 35.507475518079 41.4476890617321 14.4443646579248
endloop
endfacet
facet normal -0.800103135466581 -0.461939783099294 0.382683432365086
outer loop
vertex 33.0074755238433 45.7778160133938 14.4443648429046
vertex 36.0655120748047 41.7698715557815 15.9999995765352
vertex 33.5655120805691 46.0999985074432 15.999999761515
endloop
endfacet
facet normal 0.800103149624317 0.461939758577375 0.382683432365088
outer loop
vertex 32.8130368099276 39.8920541276889 14.4443646579248
vertex 29.7550003165184 43.899998485618 15.999999761515
vertex 32.255000310754 39.5698715339563 15.9999995765352
endloop
endfacet
facet normal 0.800103149624317 0.461939758577375 0.382683432365088
outer loop
vertex 29.7550003165184 43.899998485618 15.999999761515
vertex 32.8130368099276 39.8920541276889 14.4443646579248
vertex 30.313036815692 44.2221810793507 14.4443648429046
endloop
endfacet
facet normal -0.331413555849759 -0.19134174768133 0.923879532511286
outer loop
vertex 34.1602561520838 40.6698716153556 13.7999995765352
vertex 33.0074755238433 45.7778160133938 14.4443648429046
vertex 31.6602561578482 44.9999985670173 13.799999761515
endloop
endfacet
facet normal -0.331413555849759 -0.19134174768133 0.923879532511286
outer loop
vertex 33.0074755238433 45.7778160133938 14.4443648429046
vertex 34.1602561520838 40.6698716153556 13.7999995765352
vertex 35.507475518079 41.4476890617321 14.4443646579248
endloop
endfacet
facet normal -0.50000000496027 0.866025400920626 -1.01141374644985e-017
outer loop
vertex 28.4951940988264 45.4820507894405 10.0000005795147
vertex 32.8253211034295 47.9820508142419 6.84883340310853e-007
vertex 28.4951940988264 45.4820507894405 5.79514709213483e-007
endloop
endfacet
facet normal -0.50000000496027 0.866025400920626 -1.01141374644985e-017
outer loop
vertex 32.8253211034295 47.9820508142419 6.84883340310853e-007
vertex 28.4951940988264 45.4820507894405 10.0000005795147
vertex 32.8253211034295 47.9820508142419 10.0000006848833
endloop
endfacet
facet normal -0.866025400920626 -0.50000000496027 3.97610552079189e-032
outer loop
vertex 28.4951940988264 45.4820507894405 10.0000005795147
vertex 29.4951941087469 43.7499999875993 5.79514709233712e-007
vertex 29.4951941087469 43.7499999875993 10.0000005795147
endloop
endfacet
facet normal -0.866025400920626 -0.50000000496027 3.97610552079189e-032
outer loop
vertex 29.4951941087469 43.7499999875993 5.79514709233712e-007
vertex 28.4951940988264 45.4820507894405 10.0000005795147
vertex 28.4951940988264 45.4820507894405 5.79514709213483e-007
endloop
endfacet
facet normal -1.82503822424683e-008 -1.05368632398777e-008 1.0
outer loop
vertex 29.4951941087469 43.7499999875993 10.0000005795147
vertex 32.8253211034295 47.9820508142419 10.0000006848833
vertex 28.4951940988264 45.4820507894405 10.0000005795147
endloop
endfacet
facet normal -1.82503822424683e-008 -1.05368632398777e-008 1.0
outer loop
vertex 32.8253211034295 47.9820508142419 10.0000006848833
vertex 29.4951941087469 43.7499999875993 10.0000005795147
vertex 33.82532111335 46.2500000124006 10.0000006848833
endloop
endfacet
facet normal 0.866025400920628 0.500000004960266 -0.0
outer loop
vertex 32.8253211034295 47.9820508142419 6.84883340310853e-007
vertex 33.82532111335 46.2500000124006 10.0000006848833
vertex 33.82532111335 46.2500000124006 6.84883340331081e-007
endloop
endfacet
facet normal 0.866025400920628 0.500000004960266 -0.0
outer loop
vertex 33.82532111335 46.2500000124006 10.0000006848833
vertex 32.8253211034295 47.9820508142419 6.84883340310853e-007
vertex 32.8253211034295 47.9820508142419 10.0000006848833
endloop
endfacet
facet normal -0.999999999999991 -1.27939158229454e-008 -1.36898823428104e-007
outer loop
vertex 22.9999998904961 37.1132452848652 26.0000002708067
vertex 23.0000035732037 0.0 0.0
vertex 23.0000035943533 -6.0289918968337e-008 5.99999823324607
endloop
endfacet
facet normal -0.999999999999991 -1.27939158229454e-008 -1.36898823428104e-007
outer loop
vertex 23.0000035732037 0.0 0.0
vertex 22.9999998904961 37.1132452848652 26.0000002708067
vertex 23.000003573204 40.0 4.21461508448573e-007
endloop
endfacet
facet normal -0.999999999999991 -1.27939158229454e-008 -1.36898823428104e-007
outer loop
vertex 23.000003573204 40.0 4.21461508448573e-007
vertex 22.9999998904961 37.1132452848652 26.0000002708067
vertex 22.9999998904961 39.9999966308133 26.0000004214612
endloop
endfacet
facet normal 0.866025381413632 0.500000038747355 1.27361852691501e-007
outer loop
vertex 42.8205115641906 45.6698729321775 6.00000060246235
vertex 40.3205092957656 49.9999976629949 26.0000008429363
vertex 42.8205093205669 45.6698706583918 26.0000006024621
endloop
endfacet
facet normal 0.866025381413632 0.500000038747355 1.27361852691501e-007
outer loop
vertex 40.3205092957656 49.9999976629949 26.0000008429363
vertex 42.8205115641906 45.6698729321775 6.00000060246235
vertex 42.820511673693 45.6698729953988 8.42936507616798e-007
endloop
endfacet
facet normal 0.866025381413632 0.500000038747355 1.27361852691501e-007
outer loop
vertex 40.3205092957656 49.9999976629949 26.0000008429363
vertex 42.820511673693 45.6698729953988 8.42936507616798e-007
vertex 40.3205116488929 49.9999999999999 8.42936564016128e-007
endloop
endfacet
facet normal 9.28284585253726e-010 -4.0587292358412e-008 0.999999999999999
outer loop
vertex 27.9999998904961 37.1132452848651 26.0000003620598
vertex 22.9999998904961 39.9999966308133 26.0000004214612
vertex 22.9999998904961 37.1132452848652 26.0000002708067
endloop
endfacet
facet normal 9.28284585253726e-010 -4.0587292358412e-008 0.999999999999999
outer loop
vertex 22.9999998904961 39.9999966308133 26.0000004214612
vertex 27.9999998904961 37.1132452848651 26.0000003620598
vertex 40.3205092957656 49.9999976629949 26.0000008429363
endloop
endfacet
facet normal 9.28284585253726e-010 -4.0587292358412e-008 0.999999999999999
outer loop
vertex 40.3205092957656 49.9999976629949 26.0000008429363
vertex 27.9999998904961 37.1132452848651 26.0000003620598
vertex 42.8205093205669 45.6698706583918 26.0000006024621
endloop
endfacet
facet normal -0.500000004960271 0.866025400920624 3.61774535840732e-008
outer loop
vertex 22.9999998904961 39.9999966308133 26.0000004214612
vertex 29.4951941087469 43.7499999875993 5.79514709233712e-007
vertex 23.000003573204 40.0 4.21461508448573e-007
endloop
endfacet
facet normal -0.500000004960271 0.866025400920624 3.61774535840732e-008
outer loop
vertex 29.4951941087469 43.7499999875993 5.79514709233712e-007
vertex 22.9999998904961 39.9999966308133 26.0000004214612
vertex 29.4951941087469 43.7499999875993 10.0000005795147
endloop
endfacet
facet normal -0.500000004960271 0.866025400920624 3.61774535840732e-008
outer loop
vertex 29.4951941087469 43.7499999875993 10.0000005795147
vertex 22.9999998904961 39.9999966308133 26.0000004214612
vertex 30.313036815692 44.2221810793507 14.4443648429046
endloop
endfacet
facet normal -0.500000004960271 0.866025400920624 3.61774535840732e-008
outer loop
vertex 29.4951941087469 43.7499999875993 10.0000005795147
vertex 30.313036815692 44.2221810793507 14.4443648429046
vertex 33.82532111335 46.2500000124006 10.0000006848833
endloop
endfacet
facet normal -0.500000004960271 0.866025400920624 3.61774535840732e-008
outer loop
vertex 33.82532111335 46.2500000124006 10.0000006848833
vertex 30.313036815692 44.2221810793507 14.4443648429046
vertex 31.6602561578482 44.9999985670173 13.799999761515
endloop
endfacet
facet normal -0.500000004960271 0.866025400920624 3.61774535840732e-008
outer loop
vertex 30.313036815692 44.2221810793507 14.4443648429046
vertex 22.9999998904961 39.9999966308133 26.0000004214612
vertex 29.7550003165184 43.899998485618 15.999999761515
endloop
endfacet
facet normal -0.500000004960271 0.866025400920624 3.61774535840732e-008
outer loop
vertex 29.7550003165184 43.899998485618 15.999999761515
vertex 22.9999998904961 39.9999966308133 26.0000004214612
vertex 30.3130368732441 44.2221809796674 17.5556346801254
endloop
endfacet
facet normal -0.500000004960271 0.866025400920624 3.61774535840732e-008
outer loop
vertex 30.3130368732441 44.2221809796674 17.5556346801254
vertex 22.9999998904961 39.9999966308133 26.0000004214612
vertex 31.6602562392393 44.9999984260439 18.1999997615149
endloop
endfacet
facet normal -0.500000004960271 0.866025400920624 3.61774535840732e-008
outer loop
vertex 33.82532111335 46.2500000124006 10.0000006848833
vertex 40.3205116488929 49.9999999999999 8.42936564016128e-007
vertex 33.82532111335 46.2500000124006 6.84883340331081e-007
endloop
endfacet
facet normal -0.500000004960271 0.866025400920624 3.61774535840732e-008
outer loop
vertex 40.3205116488929 49.9999999999999 8.42936564016128e-007
vertex 33.82532111335 46.2500000124006 10.0000006848833
vertex 40.3205092957656 49.9999976629949 26.0000008429363
endloop
endfacet
facet normal -0.500000004960271 0.866025400920624 3.61774535840732e-008
outer loop
vertex 40.3205092957656 49.9999976629949 26.0000008429363
vertex 33.82532111335 46.2500000124006 10.0000006848833
vertex 33.0074755238433 45.7778160133938 14.4443648429046
endloop
endfacet
facet normal -0.500000004960271 0.866025400920624 3.61774535840732e-008
outer loop
vertex 33.0074755238433 45.7778160133938 14.4443648429046
vertex 33.82532111335 46.2500000124006 10.0000006848833
vertex 31.6602561578482 44.9999985670173 13.799999761515
endloop
endfacet
facet normal -0.500000004960271 0.866025400920624 3.61774535840732e-008
outer loop
vertex 40.3205092957656 49.9999976629949 26.0000008429363
vertex 33.0074755238433 45.7778160133938 14.4443648429046
vertex 33.5655120805691 46.0999985074432 15.999999761515
endloop
endfacet
facet normal -0.500000004960271 0.866025400920624 3.61774535840732e-008
outer loop
vertex 40.3205092957656 49.9999976629949 26.0000008429363
vertex 33.5655120805691 46.0999985074432 15.999999761515
vertex 33.0074755813955 45.7778159137105 17.5556346801254
endloop
endfacet
facet normal -0.500000004960271 0.866025400920624 3.61774535840732e-008
outer loop
vertex 40.3205092957656 49.9999976629949 26.0000008429363
vertex 33.0074755813955 45.7778159137105 17.5556346801254
vertex 31.6602562392393 44.9999984260439 18.1999997615149
endloop
endfacet
facet normal -0.500000004960271 0.866025400920624 3.61774535840732e-008
outer loop
vertex 40.3205092957656 49.9999976629949 26.0000008429363
vertex 31.6602562392393 44.9999984260439 18.1999997615149
vertex 22.9999998904961 39.9999966308133 26.0000004214612
endloop
endfacet
facet normal -2.02734042810747e-008 -6.71852059890929e-009 1.0
outer loop
vertex 28.0000034637001 -6.32192691307765e-008 6.00000009125302
vertex 30.8000034637002 9.99999993678071 6.0000002477201
vertex 28.0000034637004 37.1132485908326 6.00000036206005
endloop
endfacet
facet normal -2.02734042810747e-008 -6.71852059890929e-009 1.0
outer loop
vertex 30.8000034637002 9.99999993678071 6.0000002477201
vertex 28.0000034637001 -6.32192691307765e-008 6.00000009125302
vertex 31.4443685450898 8.4443650181703 6.00000024308915
endloop
endfacet
facet normal -2.02734042810747e-008 -6.71852059890929e-009 1.0
outer loop
vertex 31.4443685450898 8.4443650181703 6.00000024308915
vertex 28.0000034637001 -6.32192691307765e-008 6.00000009125302
vertex 33.0000034637001 7.7999999367807 6.00000026469109
endloop
endfacet
facet normal -2.02734042810747e-008 -6.71852059890929e-009 1.0
outer loop
vertex 33.0000034637001 7.7999999367807 6.00000026469109
vertex 28.0000034637001 -6.32192691307765e-008 6.00000009125302
vertex 43.0000034637001 8.66025420373035 6.00000045626117
endloop
endfacet
facet normal -2.02734042810747e-008 -6.71852059890929e-009 1.0
outer loop
vertex 33.0000034637001 7.7999999367807 6.00000026469109
vertex 43.0000034637001 8.66025420373035 6.00000045626117
vertex 34.5556383823106 8.44436501817026 6.00000029987167
endloop
endfacet
facet normal -2.02734042810747e-008 -6.71852059890929e-009 1.0
outer loop
vertex 34.5556383823106 8.44436501817026 6.00000029987167
vertex 43.0000034637001 8.66025420373035 6.00000045626117
vertex 35.2000034637001 9.99999993678067 6.00000032802278
endloop
endfacet
facet normal -2.02734042810747e-008 -6.71852059890929e-009 1.0
outer loop
vertex 35.2000034637001 9.99999993678067 6.00000032802278
vertex 43.0000034637001 8.66025420373035 6.00000045626117
vertex 35.2000034637003 29.9999999367807 6.00000053875349
endloop
endfacet
facet normal -2.02734042810747e-008 -6.71852059890929e-009 1.0
outer loop
vertex 35.2000034637003 29.9999999367807 6.00000053875349
vertex 43.0000034637001 8.66025420373035 6.00000045626117
vertex 42.8205115641906 45.6698729321775 6.00000060246235
endloop
endfacet
facet normal -2.02734042810747e-008 -6.71852059890929e-009 1.0
outer loop
vertex 42.8205115641906 45.6698729321775 6.00000060246235
vertex 43.0000034637001 8.66025420373035 6.00000045626117
vertex 43.0000034637004 39.9999999367806 6.00000078647361
endloop
endfacet
facet normal -2.02734042810747e-008 -6.71852059890929e-009 1.0
outer loop
vertex 28.0000034637004 37.1132485908326 6.00000036206005
vertex 31.4443685450899 31.5556348553911 6.00000048660193
vertex 42.8205115641906 45.6698729321775 6.00000060246235
endloop
endfacet
facet normal -2.02734042810747e-008 -6.71852059890929e-009 1.0
outer loop
vertex 31.4443685450899 31.5556348553911 6.00000048660193
vertex 28.0000034637004 37.1132485908326 6.00000036206005
vertex 30.8000034637003 29.9999999367807 6.00000045845091
endloop
endfacet
facet normal -2.02734042810747e-008 -6.71852059890929e-009 1.0
outer loop
vertex 30.8000034637003 29.9999999367807 6.00000045845091
vertex 28.0000034637004 37.1132485908326 6.00000036206005
vertex 30.8000034637002 9.99999993678071 6.0000002477201
endloop
endfacet
facet normal -2.02734042810747e-008 -6.71852059890929e-009 1.0
outer loop
vertex 42.8205115641906 45.6698729321775 6.00000060246235
vertex 31.4443685450899 31.5556348553911 6.00000048660193
vertex 33.0000034637003 32.1999999367807 6.00000052178262
endloop
endfacet
facet normal -2.02734042810747e-008 -6.71852059890929e-009 1.0
outer loop
vertex 42.8205115641906 45.6698729321775 6.00000060246235
vertex 33.0000034637003 32.1999999367807 6.00000052178262
vertex 34.5556383823108 31.5556348553911 6.00000054338449
endloop
endfacet
facet normal -2.02734042810747e-008 -6.71852059890929e-009 1.0
outer loop
vertex 42.8205115641906 45.6698729321775 6.00000060246235
vertex 34.5556383823108 31.5556348553911 6.00000054338449
vertex 35.2000034637003 29.9999999367807 6.00000053875349
endloop
endfacet
facet normal -2.02734042810747e-008 -6.71852059890929e-009 1.0
outer loop
vertex 31.4443685450898 11.5556348553911 6.00000027587112
vertex 30.8000034637003 29.9999999367807 6.00000045845091
vertex 30.8000034637002 9.99999993678071 6.0000002477201
endloop
endfacet
facet normal -2.02734042810747e-008 -6.71852059890929e-009 1.0
outer loop
vertex 30.8000034637003 29.9999999367807 6.00000045845091
vertex 31.4443685450898 11.5556348553911 6.00000027587112
vertex 31.4443685450899 28.4443650181703 6.00000045381995
endloop
endfacet
facet normal -2.02734042810747e-008 -6.71852059890929e-009 1.0
outer loop
vertex 31.4443685450899 28.4443650181703 6.00000045381995
vertex 31.4443685450898 11.5556348553911 6.00000027587112
vertex 33.0000034637002 12.1999999367807 6.00000031105182
endloop
endfacet
facet normal -2.02734042810747e-008 -6.71852059890929e-009 1.0
outer loop
vertex 31.4443685450899 28.4443650181703 6.00000045381995
vertex 33.0000034637002 12.1999999367807 6.00000031105182
vertex 33.0000034637003 27.7999999367807 6.00000047542181
endloop
endfacet
facet normal -2.02734042810747e-008 -6.71852059890929e-009 1.0
outer loop
vertex 33.0000034637003 27.7999999367807 6.00000047542181
vertex 33.0000034637002 12.1999999367807 6.00000031105182
vertex 34.5556383823106 11.5556348553911 6.00000033265368
endloop
endfacet
facet normal -2.02734042810747e-008 -6.71852059890929e-009 1.0
outer loop
vertex 33.0000034637003 27.7999999367807 6.00000047542181
vertex 34.5556383823106 11.5556348553911 6.00000033265368
vertex 34.5556383823107 28.4443650181703 6.00000051060251
endloop
endfacet
facet normal -2.02734042810747e-008 -6.71852059890929e-009 1.0
outer loop
vertex 34.5556383823107 28.4443650181703 6.00000051060251
vertex 34.5556383823106 11.5556348553911 6.00000033265368
vertex 35.2000034637001 9.99999993678067 6.00000032802278
endloop
endfacet
facet normal -2.02734042810747e-008 -6.71852059890929e-009 1.0
outer loop
vertex 34.5556383823107 28.4443650181703 6.00000051060251
vertex 35.2000034637001 9.99999993678067 6.00000032802278
vertex 35.2000034637003 29.9999999367807 6.00000053875349
endloop
endfacet
facet normal 0.500000009920546 -0.866025398056809 3.95057582158652e-013
outer loop
vertex 43.0000035732038 8.66025426694956 4.56261186387863e-007
vertex 28.0000034637001 -6.32192691307765e-008 6.00000009125302
vertex 28.0000035732037 -5.06892292189889e-014 9.12530268681877e-008
endloop
endfacet
facet normal 0.500000009920546 -0.866025398056809 3.95057582158652e-013
outer loop
vertex 28.0000034637001 -6.32192691307765e-008 6.00000009125302
vertex 43.0000035732038 8.66025426694956 4.56261186387863e-007
vertex 43.0000034637001 8.66025420373035 6.00000045626117
endloop
endfacet
facet normal -1.82505618664666e-008 1.05365399784641e-008 -1.0
outer loop
vertex 9.17468235035012 46.2500000124006 6.84883340331081e-007
vertex 7.79999989049618 29.9999999999999 5.38753496703848e-007
vertex 2.67949181480725 49.9999999999999 8.42936564016128e-007
endloop
endfacet
facet normal -1.82505618664666e-008 1.05365399784641e-008 -1.0
outer loop
vertex 7.79999989049618 29.9999999999999 5.38753496703848e-007
vertex 9.17468235035012 46.2500000124006 6.84883340331081e-007
vertex 8.44436497188576 31.5556349186103 5.43384451301421e-007
endloop
endfacet
facet normal -1.82505618664666e-008 1.05365399784641e-008 -1.0
outer loop
vertex 8.44436497188576 31.5556349186103 5.43384451301421e-007
vertex 9.17468235035012 46.2500000124006 6.84883340331081e-007
vertex 9.99999989049616 32.1999999999999 5.21782504137036e-007
endloop
endfacet
facet normal -1.82505618664666e-008 1.05365399784641e-008 -1.0
outer loop
vertex 9.99999989049616 32.1999999999999 5.21782504137036e-007
vertex 9.17468235035012 46.2500000124006 6.84883340331081e-007
vertex 10.1746823602707 47.9820508142419 6.84883340310853e-007
endloop
endfacet
facet normal -1.82505618664666e-008 1.05365399784641e-008 -1.0
outer loop
vertex 9.99999989049616 32.1999999999999 5.21782504137036e-007
vertex 10.1746823602707 47.9820508142419 6.84883340310853e-007
vertex 11.5556348091066 31.5556349186103 4.86601893845417e-007
endloop
endfacet
facet normal -1.82505618664666e-008 1.05365399784641e-008 -1.0
outer loop
vertex 11.5556348091066 31.5556349186103 4.86601893845417e-007
vertex 10.1746823602707 47.9820508142419 6.84883340310853e-007
vertex 13.5048093549532 43.7499999875993 5.79514709233712e-007
endloop
endfacet
facet normal -1.82505618664666e-008 1.05365399784641e-008 -1.0
outer loop
vertex 13.5048093549532 43.7499999875993 5.79514709233712e-007
vertex 10.1746823602707 47.9820508142419 6.84883340310853e-007
vertex 14.5048093648738 45.4820507894405 5.79514709213483e-007
endloop
endfacet
facet normal -1.82505618664666e-008 1.05365399784641e-008 -1.0
outer loop
vertex 11.5556348091066 31.5556349186103 4.86601893845417e-007
vertex 13.5048093549532 43.7499999875993 5.79514709233712e-007
vertex 12.1999998904962 29.9999999999999 4.58450918561226e-007
endloop
endfacet
facet normal -1.82505618664666e-008 1.05365399784641e-008 -1.0
outer loop
vertex 12.1999998904962 29.9999999999999 4.58450918561226e-007
vertex 13.5048093549532 43.7499999875993 5.79514709233712e-007
vertex 12.1999998904964 9.99999999999994 2.47720068458079e-007
endloop
endfacet
facet normal -1.82505618664666e-008 1.05365399784641e-008 -1.0
outer loop
vertex 0.179491790007117 45.6698729953988 8.42936507616798e-007
vertex -1.09503629985852e-007 8.66025426694956 4.56261186387863e-007
vertex -1.09503883782835e-007 39.9999999999998 7.8647357080186e-007
endloop
endfacet
facet normal -1.82505618664666e-008 1.05365399784641e-008 -1.0
outer loop
vertex -1.09503629985852e-007 8.66025426694956 4.56261186387863e-007
vertex 0.179491790007117 45.6698729953988 8.42936507616798e-007
vertex 7.79999989049636 9.99999999999988 3.28022697360097e-007
endloop
endfacet
facet normal -1.82505618664666e-008 1.05365399784641e-008 -1.0
outer loop
vertex -1.09503629985852e-007 8.66025426694956 4.56261186387863e-007
vertex 7.79999989049636 9.99999999999988 3.28022697360097e-007
vertex 8.44436497188596 8.4443650813895 2.99871676956442e-007
endloop
endfacet
facet normal -1.82505618664666e-008 1.05365399784641e-008 -1.0
outer loop
vertex -1.09503629985852e-007 8.66025426694956 4.56261186387863e-007
vertex 8.44436497188596 8.4443650813895 2.99871676956442e-007
vertex 14.9999998904964 -5.06892292189889e-014 9.12530268681877e-008
endloop
endfacet
facet normal -1.82505618664666e-008 1.05365399784641e-008 -1.0
outer loop
vertex 7.79999989049636 9.99999999999988 3.28022697360097e-007
vertex 0.179491790007117 45.6698729953988 8.42936507616798e-007
vertex 2.67949181480725 49.9999999999999 8.42936564016128e-007
endloop
endfacet
facet normal -1.82505618664666e-008 1.05365399784641e-008 -1.0
outer loop
vertex 7.79999989049636 9.99999999999988 3.28022697360097e-007
vertex 2.67949181480725 49.9999999999999 8.42936564016128e-007
vertex 7.79999989049618 29.9999999999999 5.38753496703848e-007
endloop
endfacet
facet normal -1.82505618664666e-008 1.05365399784641e-008 -1.0
outer loop
vertex 14.9999998904964 -5.06892292189889e-014 9.12530268681877e-008
vertex 8.44436497188596 8.4443650813895 2.99871676956442e-007
vertex 9.99999989049636 7.79999999999992 2.6469102154536e-007
endloop
endfacet
facet normal -1.82505618664666e-008 1.05365399784641e-008 -1.0
outer loop
vertex 14.9999998904964 -5.06892292189889e-014 9.12530268681877e-008
vertex 9.99999989049636 7.79999999999992 2.6469102154536e-007
vertex 11.5556348091068 8.44436508138951 2.43089113860506e-007
endloop
endfacet
facet normal -1.82505618664666e-008 1.05365399784641e-008 -1.0
outer loop
vertex 14.9999998904964 -5.06892292189889e-014 9.12530268681877e-008
vertex 11.5556348091068 8.44436508138951 2.43089113860506e-007
vertex 12.1999998904964 9.99999999999994 2.47720068458079e-007
endloop
endfacet
facet normal -1.82505618664666e-008 1.05365399784641e-008 -1.0
outer loop
vertex 14.9999998904964 -5.06892292189889e-014 9.12530268681877e-008
vertex 12.1999998904964 9.99999999999994 2.47720068458079e-007
vertex 13.5048093549532 43.7499999875993 5.79514709233712e-007
endloop
endfacet
facet normal -1.82505618664666e-008 1.05365399784641e-008 -1.0
outer loop
vertex 14.9999998904964 -5.06892292189889e-014 9.12530268681877e-008
vertex 13.5048093549532 43.7499999875993 5.79514709233712e-007
vertex 19.9999998904961 40.0 4.21461508448573e-007
endloop
endfacet
facet normal -1.82505618664666e-008 1.05365399784641e-008 -1.0
outer loop
vertex 14.9999998904964 -5.06892292189889e-014 9.12530268681877e-008
vertex 19.9999998904961 40.0 4.21461508448573e-007
vertex 19.9999998904965 0.0 0.0
endloop
endfacet
facet normal -1.82505618664666e-008 1.05365399784641e-008 -1.0
outer loop
vertex 8.44436497188579 28.4443650813895 5.10602476300193e-007
vertex 7.79999989049636 9.99999999999988 3.28022697360097e-007
vertex 7.79999989049618 29.9999999999999 5.38753496703848e-007
endloop
endfacet
facet normal -1.82505618664666e-008 1.05365399784641e-008 -1.0
outer loop
vertex 7.79999989049636 9.99999999999988 3.28022697360097e-007
vertex 8.44436497188579 28.4443650813895 5.10602476300193e-007
vertex 8.44436497188596 11.5556349186103 3.32653691437201e-007
endloop
endfacet
facet normal -1.82505618664666e-008 1.05365399784641e-008 -1.0
outer loop
vertex 8.44436497188596 11.5556349186103 3.32653691437201e-007
vertex 8.44436497188579 28.4443650813895 5.10602476300193e-007
vertex 9.9999998904962 27.7999999999999 4.75421775769647e-007
endloop
endfacet
facet normal -1.82505618664666e-008 1.05365399784641e-008 -1.0
outer loop
vertex 8.44436497188596 11.5556349186103 3.32653691437201e-007
vertex 9.9999998904962 27.7999999999999 4.75421775769647e-007
vertex 9.99999989049635 12.1999999999999 3.1105178939228e-007
endloop
endfacet
facet normal -1.82505618664666e-008 1.05365399784641e-008 -1.0
outer loop
vertex 9.99999989049635 12.1999999999999 3.1105178939228e-007
vertex 9.9999998904962 27.7999999999999 4.75421775769647e-007
vertex 11.5556348091066 28.4443650813895 4.53819918844189e-007
endloop
endfacet
facet normal -1.82505618664666e-008 1.05365399784641e-008 -1.0
outer loop
vertex 9.99999989049635 12.1999999999999 3.1105178939228e-007
vertex 11.5556348091066 28.4443650813895 4.53819918844189e-007
vertex 11.5556348091067 11.5556349186103 2.75871133981198e-007
endloop
endfacet
facet normal -1.82505618664666e-008 1.05365399784641e-008 -1.0
outer loop
vertex 11.5556348091067 11.5556349186103 2.75871133981198e-007
vertex 11.5556348091066 28.4443650813895 4.53819918844189e-007
vertex 12.1999998904962 29.9999999999999 4.58450918561226e-007
endloop
endfacet
facet normal -1.82505618664666e-008 1.05365399784641e-008 -1.0
outer loop
vertex 11.5556348091067 11.5556349186103 2.75871133981198e-007
vertex 12.1999998904962 29.9999999999999 4.58450918561226e-007
vertex 12.1999998904964 9.99999999999994 2.47720068458079e-007
endloop
endfacet
facet normal 0.382683432365092 -0.923879532511286 -1.67186966579319e-008
outer loop
vertex 9.99999999999998 12.1999999367807 6.00000031105182
vertex 8.44436497188596 11.5556349186103 3.32653691437201e-007
vertex 9.99999989049635 12.1999999999999 3.1105178939228e-007
endloop
endfacet
facet normal 0.382683432365092 -0.923879532511286 -1.67186966579319e-008
outer loop
vertex 8.44436497188596 11.5556349186103 3.32653691437201e-007
vertex 9.99999999999998 12.1999999367807 6.00000031105182
vertex 8.44436508138958 11.5556348553911 6.00000033265368
endloop
endfacet
facet normal -0.331413590029557 0.191341688480185 0.923879532511286
outer loop
vertex 10.1869666537726 39.8920541276889 14.4443646579248
vertex 11.3397473058519 44.9999985670173 13.799999761515
vertex 8.83974731161632 40.6698716153556 13.7999995765352
endloop
endfacet
facet normal -0.331413590029557 0.191341688480185 0.923879532511286
outer loop
vertex 11.3397473058519 44.9999985670173 13.799999761515
vertex 10.1869666537726 39.8920541276889 14.4443646579248
vertex 12.6869666480082 44.2221810793507 14.4443648429046
endloop
endfacet
facet normal 0.92387953251129 -0.382683432365082 -2.0893518794932e-008
outer loop
vertex 7.79999989049618 29.9999999999999 5.38753496703848e-007
vertex 8.44436508138939 31.5556348553911 6.00000054338449
vertex 7.79999999999981 29.9999999367807 6.00000053875349
endloop
endfacet
facet normal 0.92387953251129 -0.382683432365082 -2.0893518794932e-008
outer loop
vertex 8.44436508138939 31.5556348553911 6.00000054338449
vertex 7.79999989049618 29.9999999999999 5.38753496703848e-007
vertex 8.44436497188576 31.5556349186103 5.43384451301421e-007
endloop
endfacet
facet normal 0.923879532511286 0.382683432365091 -1.28292011768627e-008
outer loop
vertex 8.44436497188596 8.4443650813895 2.99871676956442e-007
vertex 7.79999999999999 9.99999993678067 6.00000032802278
vertex 8.44436508138958 8.44436501817026 6.00000029987167
endloop
endfacet
facet normal 0.923879532511286 0.382683432365091 -1.28292011768627e-008
outer loop
vertex 7.79999999999999 9.99999993678067 6.00000032802278
vertex 8.44436497188596 8.4443650813895 2.99871676956442e-007
vertex 7.79999989049636 9.99999999999988 3.28022697360097e-007
endloop
endfacet
facet normal -0.331413555849759 0.19134174768133 -0.923879532511286
outer loop
vertex 11.3397472244609 44.9999984260438 18.1999997615149
vertex 10.1869665962204 39.8920540280056 17.5556344951456
vertex 8.83974723022524 40.6698714743821 18.1999995765352
endloop
endfacet
facet normal -0.331413555849759 0.19134174768133 -0.923879532511286
outer loop
vertex 10.1869665962204 39.8920540280056 17.5556344951456
vertex 11.3397472244609 44.9999984260438 18.1999997615149
vertex 12.686966590456 44.2221809796674 17.5556346801254
endloop
endfacet
facet normal -0.500000005796994 -0.866025400437541 -4.80948500514963e-008
outer loop
vertex 14.9999999999997 37.1132485908326 6.00000036206005
vertex 10.1869666537726 39.8920541276889 14.4443646579248
vertex 0.179491899509526 45.6698729321775 6.00000060246235
endloop
endfacet
facet normal -0.500000005796994 -0.866025400437541 -4.80948500514963e-008
outer loop
vertex 10.1869666537726 39.8920541276889 14.4443646579248
vertex 14.9999999999997 37.1132485908326 6.00000036206005
vertex 15.000003573204 37.1132452848651 26.0000003620598
endloop
endfacet
facet normal -0.500000005796994 -0.866025400437541 -4.80948500514963e-008
outer loop
vertex 0.179491899509526 45.6698729321775 6.00000060246235
vertex 10.1869666537726 39.8920541276889 14.4443646579248
vertex 8.83974731161632 40.6698716153556 13.7999995765352
endloop
endfacet
facet normal -0.500000005796994 -0.866025400437541 -4.80948500514963e-008
outer loop
vertex 10.1869666537726 39.8920541276889 14.4443646579248
vertex 15.000003573204 37.1132452848651 26.0000003620598
vertex 10.7450031529462 39.5698715339563 15.9999995765352
endloop
endfacet
facet normal -0.500000005796994 -0.866025400437541 -4.80948500514963e-008
outer loop
vertex 10.7450031529462 39.5698715339563 15.9999995765352
vertex 15.000003573204 37.1132452848651 26.0000003620598
vertex 10.1869665962204 39.8920540280056 17.5556344951456
endloop
endfacet
facet normal -0.500000005796994 -0.866025400437541 -4.80948500514963e-008
outer loop
vertex 10.1869665962204 39.8920540280056 17.5556344951456
vertex 15.000003573204 37.1132452848651 26.0000003620598
vertex 8.83974723022524 40.6698714743821 18.1999995765352
endloop
endfacet
facet normal -0.500000005796994 -0.866025400437541 -4.80948500514963e-008
outer loop
vertex 0.179491899509526 45.6698729321775 6.00000060246235
vertex 7.49252794562117 41.4476890617321 14.4443646579248
vertex 0.179494143133187 45.6698706583918 26.0000006024621
endloop
endfacet
facet normal -0.500000005796994 -0.866025400437541 -4.80948500514963e-008
outer loop
vertex 7.49252794562117 41.4476890617321 14.4443646579248
vertex 0.179491899509526 45.6698729321775 6.00000060246235
vertex 8.83974731161632 40.6698716153556 13.7999995765352
endloop
endfacet
facet normal -0.500000005796994 -0.866025400437541 -4.80948500514963e-008
outer loop
vertex 0.179494143133187 45.6698706583918 26.0000006024621
vertex 7.49252794562117 41.4476890617321 14.4443646579248
vertex 6.93449138889541 41.7698715557814 15.9999995765352
endloop
endfacet
facet normal -0.500000005796994 -0.866025400437541 -4.80948500514963e-008
outer loop
vertex 0.179494143133187 45.6698706583918 26.0000006024621
vertex 6.93449138889541 41.7698715557814 15.9999995765352
vertex 7.49252788806899 41.4476889620488 17.5556344951456
endloop
endfacet
facet normal -0.500000005796994 -0.866025400437541 -4.80948500514963e-008
outer loop
vertex 0.179494143133187 45.6698706583918 26.0000006024621
vertex 7.49252788806899 41.4476889620488 17.5556344951456
vertex 8.83974723022524 40.6698714743821 18.1999995765352
endloop
endfacet
facet normal -0.500000005796994 -0.866025400437541 -4.80948500514963e-008
outer loop
vertex 0.179494143133187 45.6698706583918 26.0000006024621
vertex 8.83974723022524 40.6698714743821 18.1999995765352
vertex 15.000003573204 37.1132452848651 26.0000003620598
endloop
endfacet
facet normal -0.999499289416957 0.0316412777080468 1.85747594771323e-008
outer loop
vertex 0.179491899509526 45.6698729321775 6.00000060246235
vertex -1.09503883782835e-007 39.9999999999998 7.8647357080186e-007
vertex -2.65076849359502e-013 39.9999999367806 6.00000078647361
endloop
endfacet
facet normal -0.999499289416957 0.0316412777080468 1.85747594771323e-008
outer loop
vertex -1.09503883782835e-007 39.9999999999998 7.8647357080186e-007
vertex 0.179491899509526 45.6698729321775 6.00000060246235
vertex 0.179491790007117 45.6698729953988 8.42936507616798e-007
endloop
endfacet
facet normal -1.0 -8.47050561829722e-015 1.82506040576531e-008
outer loop
vertex -2.65076849359502e-013 39.9999999367806 6.00000078647361
vertex -1.09503629985852e-007 8.66025426694956 4.56261186387863e-007
vertex 0.0 8.66025420373035 6.00000045626117
endloop
endfacet
facet normal -1.0 -8.47050561829722e-015 1.82506040576531e-008
outer loop
vertex -1.09503629985852e-007 8.66025426694956 4.56261186387863e-007
vertex -2.65076849359502e-013 39.9999999367806 6.00000078647361
vertex -1.09503883782835e-007 39.9999999999998 7.8647357080186e-007
endloop
endfacet
facet normal 0.923879532511282 0.382683432365101 -1.28292011646217e-008
outer loop
vertex 8.44436497188579 28.4443650813895 5.10602476300193e-007
vertex 7.79999999999981 29.9999999367807 6.00000053875349
vertex 8.44436508138942 28.4443650181703 6.00000051060251
endloop
endfacet
facet normal 0.923879532511282 0.382683432365101 -1.28292011646217e-008
outer loop
vertex 7.79999999999981 29.9999999367807 6.00000053875349
vertex 8.44436497188579 28.4443650813895 5.10602476300193e-007
vertex 7.79999989049618 29.9999999999999 5.38753496703848e-007
endloop
endfacet
facet normal 0.923879532511288 -0.382683432365085 -2.08935179532724e-008
outer loop
vertex 7.79999989049636 9.99999999999988 3.28022697360097e-007
vertex 8.44436508138958 11.5556348553911 6.00000033265368
vertex 7.79999999999999 9.99999993678067 6.00000032802278
endloop
endfacet
facet normal 0.923879532511288 -0.382683432365085 -2.08935179532724e-008
outer loop
vertex 8.44436508138958 11.5556348553911 6.00000033265368
vertex 7.79999989049636 9.99999999999988 3.28022697360097e-007
vertex 8.44436497188596 11.5556349186103 3.32653691437201e-007
endloop
endfacet
facet normal -0.999999999999984 -9.96567628848702e-015 1.78660214185109e-007
outer loop
vertex 14.9999999999997 37.1132485908326 6.00000036206005
vertex 15.0000000000001 -6.32192691307765e-008 6.00000009125302
vertex 15.000003573204 37.1132452848651 26.0000003620598
endloop
endfacet
facet normal 0.800103149624315 -0.461939758577376 -0.38268343236509
outer loop
vertex 6.93449138889541 41.7698715557814 15.9999995765352
vertex 9.99252788230461 45.7778159137105 17.5556346801254
vertex 7.49252788806899 41.4476889620488 17.5556344951456
endloop
endfacet
facet normal 0.800103149624315 -0.461939758577376 -0.38268343236509
outer loop
vertex 9.99252788230461 45.7778159137105 17.5556346801254
vertex 6.93449138889541 41.7698715557814 15.9999995765352
vertex 9.43449138313103 46.0999985074432 15.999999761515
endloop
endfacet
facet normal -0.382683432365091 0.923879532511286 1.67186936462178e-008
outer loop
vertex 9.99999989049636 7.79999999999992 2.6469102154536e-007
vertex 11.5556349186104 8.4443650181703 6.00000024308915
vertex 11.5556348091068 8.44436508138951 2.43089113860506e-007
endloop
endfacet
facet normal -0.382683432365091 0.923879532511286 1.67186936462178e-008
outer loop
vertex 11.5556349186104 8.4443650181703 6.00000024308915
vertex 9.99999989049636 7.79999999999992 2.6469102154536e-007
vertex 9.99999999999999 7.7999999367807 6.00000026469109
endloop
endfacet
facet normal 0.382683432365076 0.923879532511292 2.7502873773422e-009
outer loop
vertex 8.44436497188596 8.4443650813895 2.99871676956442e-007
vertex 9.99999999999999 7.7999999367807 6.00000026469109
vertex 9.99999989049636 7.79999999999992 2.6469102154536e-007
endloop
endfacet
facet normal 0.382683432365076 0.923879532511292 2.7502873773422e-009
outer loop
vertex 9.99999999999999 7.7999999367807 6.00000026469109
vertex 8.44436497188596 8.4443650813895 2.99871676956442e-007
vertex 8.44436508138958 8.44436501817026 6.00000029987167
endloop
endfacet
facet normal -0.923879532511289 0.382683432365084 2.08935174323046e-008
outer loop
vertex 12.2 9.99999993678071 6.0000002477201
vertex 11.5556348091068 8.44436508138951 2.43089113860506e-007
vertex 11.5556349186104 8.4443650181703 6.00000024308915
endloop
endfacet
facet normal -0.923879532511289 0.382683432365084 2.08935174323046e-008
outer loop
vertex 11.5556348091068 8.44436508138951 2.43089113860506e-007
vertex 12.2 9.99999993678071 6.0000002477201
vertex 12.1999998904964 9.99999999999994 2.47720068458079e-007
endloop
endfacet
facet normal 0.331413590029557 -0.191341688480185 -0.923879532511286
outer loop
vertex 9.99252788230461 45.7778159137105 17.5556346801254
vertex 8.83974723022524 40.6698714743821 18.1999995765352
vertex 7.49252788806899 41.4476889620488 17.5556344951456
endloop
endfacet
facet normal 0.331413590029557 -0.191341688480185 -0.923879532511286
outer loop
vertex 8.83974723022524 40.6698714743821 18.1999995765352
vertex 9.99252788230461 45.7778159137105 17.5556346801254
vertex 11.3397472244609 44.9999984260438 18.1999997615149
endloop
endfacet
facet normal 0.382683432365098 -0.923879532511284 -1.67186968326715e-008
outer loop
vertex 9.9999999999998 32.1999999367807 6.00000052178262
vertex 8.44436497188576 31.5556349186103 5.43384451301421e-007
vertex 9.99999989049616 32.1999999999999 5.21782504137036e-007
endloop
endfacet
facet normal 0.382683432365098 -0.923879532511284 -1.67186968326715e-008
outer loop
vertex 8.44436497188576 31.5556349186103 5.43384451301421e-007
vertex 9.9999999999998 32.1999999367807 6.00000052178262
vertex 8.44436508138939 31.5556348553911 6.00000054338449
endloop
endfacet
facet normal -0.923879532511283 -0.382683432365098 1.2829202033454e-008
outer loop
vertex 11.5556349186102 31.5556348553911 6.00000048660193
vertex 12.1999998904962 29.9999999999999 4.58450918561226e-007
vertex 12.1999999999998 29.9999999367807 6.00000045845091
endloop
endfacet
facet normal -0.923879532511283 -0.382683432365098 1.2829202033454e-008
outer loop
vertex 12.1999998904962 29.9999999999999 4.58450918561226e-007
vertex 11.5556349186102 31.5556348553911 6.00000048660193
vertex 11.5556348091066 31.5556349186103 4.86601893845417e-007
endloop
endfacet
facet normal -0.382683432365087 -0.923879532511288 -2.75028691804196e-009
outer loop
vertex 11.5556349186102 31.5556348553911 6.00000048660193
vertex 9.99999989049616 32.1999999999999 5.21782504137036e-007
vertex 11.5556348091066 31.5556349186103 4.86601893845417e-007
endloop
endfacet
facet normal -0.382683432365087 -0.923879532511288 -2.75028691804196e-009
outer loop
vertex 9.99999989049616 32.1999999999999 5.21782504137036e-007
vertex 11.5556349186102 31.5556348553911 6.00000048660193
vertex 9.9999999999998 32.1999999367807 6.00000052178262
endloop
endfacet
facet normal -0.382683432365096 0.923879532511284 1.67186975207581e-008
outer loop
vertex 9.9999998904962 27.7999999999999 4.75421775769647e-007
vertex 11.5556349186102 28.4443650181703 6.00000045381995
vertex 11.5556348091066 28.4443650813895 4.53819918844189e-007
endloop
endfacet
facet normal -0.382683432365096 0.923879532511284 1.67186975207581e-008
outer loop
vertex 11.5556349186102 28.4443650181703 6.00000045381995
vertex 9.9999998904962 27.7999999999999 4.75421775769647e-007
vertex 9.99999999999983 27.7999999367807 6.00000047542181
endloop
endfacet
facet normal 2.92938078904878e-010 -1.0 -1.02924296709362e-008
outer loop
vertex 19.9999998693468 -6.0289918968337e-008 5.99999823324607
vertex 14.9999998904964 -5.06892292189889e-014 9.12530268681877e-008
vertex 19.9999998904965 0.0 0.0
endloop
endfacet
facet normal 2.92938078904878e-010 -1.0 -1.02924296709362e-008
outer loop
vertex 14.9999998904964 -5.06892292189889e-014 9.12530268681877e-008
vertex 19.9999998693468 -6.0289918968337e-008 5.99999823324607
vertex 15.0000000000001 -6.32192691307765e-008 6.00000009125302
endloop
endfacet
facet normal -0.382683432365081 -0.923879532511291 -2.75028919254173e-009
outer loop
vertex 11.5556349186104 11.5556348553911 6.00000027587112
vertex 9.99999989049635 12.1999999999999 3.1105178939228e-007
vertex 11.5556348091067 11.5556349186103 2.75871133981198e-007
endloop
endfacet
facet normal -0.382683432365081 -0.923879532511291 -2.75028919254173e-009
outer loop
vertex 9.99999989049635 12.1999999999999 3.1105178939228e-007
vertex 11.5556349186104 11.5556348553911 6.00000027587112
vertex 9.99999999999998 12.1999999367807 6.00000031105182
endloop
endfacet
facet normal -0.923879532511288 0.382683432365087 2.0893519586256e-008
outer loop
vertex 12.1999999999998 29.9999999367807 6.00000045845091
vertex 11.5556348091066 28.4443650813895 4.53819918844189e-007
vertex 11.5556349186102 28.4443650181703 6.00000045381995
endloop
endfacet
facet normal -0.923879532511288 0.382683432365087 2.0893519586256e-008
outer loop
vertex 11.5556348091066 28.4443650813895 4.53819918844189e-007
vertex 12.1999999999998 29.9999999367807 6.00000045845091
vertex 12.1999998904962 29.9999999999999 4.58450918561226e-007
endloop
endfacet
facet normal -0.923879532511282 -0.3826834323651 1.28291997755041e-008
outer loop
vertex 11.5556349186104 11.5556348553911 6.00000027587112
vertex 12.1999998904964 9.99999999999994 2.47720068458079e-007
vertex 12.2 9.99999993678071 6.0000002477201
endloop
endfacet
facet normal -0.923879532511282 -0.3826834323651 1.28291997755041e-008
outer loop
vertex 12.1999998904964 9.99999999999994 2.47720068458079e-007
vertex 11.5556349186104 11.5556348553911 6.00000027587112
vertex 11.5556348091067 11.5556349186103 2.75871133981198e-007
endloop
endfacet
facet normal 0.382683432365082 0.92387953251129 2.75028937317874e-009
outer loop
vertex 8.44436497188579 28.4443650813895 5.10602476300193e-007
vertex 9.99999999999983 27.7999999367807 6.00000047542181
vertex 9.9999998904962 27.7999999999999 4.75421775769647e-007
endloop
endfacet
facet normal 0.382683432365082 0.92387953251129 2.75028937317874e-009
outer loop
vertex 9.99999999999983 27.7999999367807 6.00000047542181
vertex 8.44436497188579 28.4443650813895 5.10602476300193e-007
vertex 8.44436508138942 28.4443650181703 6.00000051060251
endloop
endfacet
facet normal -0.80010313546658 0.461939783099293 -0.38268343236509
outer loop
vertex 10.1869665962204 39.8920540280056 17.5556344951456
vertex 13.2450031471818 43.899998485618 15.999999761515
vertex 10.7450031529462 39.5698715339563 15.9999995765352
endloop
endfacet
facet normal -0.80010313546658 0.461939783099293 -0.38268343236509
outer loop
vertex 13.2450031471818 43.899998485618 15.999999761515
vertex 10.1869665962204 39.8920540280056 17.5556344951456
vertex 12.686966590456 44.2221809796674 17.5556346801254
endloop
endfacet
facet normal 1.71734890377217e-007 -0.474393013883443 0.880313164946744
outer loop
vertex 19.9999998693468 -6.0289918968337e-008 5.99999823324607
vertex 15.000003573204 37.1132452848651 26.0000003620598
vertex 15.0000000000001 -6.32192691307765e-008 6.00000009125302
endloop
endfacet
facet normal 1.71734890377217e-007 -0.474393013883443 0.880313164946744
outer loop
vertex 15.000003573204 37.1132452848651 26.0000003620598
vertex 19.9999998693468 -6.0289918968337e-008 5.99999823324607
vertex 20.000003573204 37.1132452848652 26.0000002708067
endloop
endfacet
facet normal 0.80010313546658 -0.461939783099294 0.382683432365088
outer loop
vertex 9.99252793985679 45.7778160133938 14.4443648429046
vertex 6.93449138889541 41.7698715557814 15.9999995765352
vertex 7.49252794562117 41.4476890617321 14.4443646579248
endloop
endfacet
facet normal 0.80010313546658 -0.461939783099294 0.382683432365088
outer loop
vertex 6.93449138889541 41.7698715557814 15.9999995765352
vertex 9.99252793985679 45.7778160133938 14.4443648429046
vertex 9.43449138313103 46.0999985074432 15.999999761515
endloop
endfacet
facet normal -0.800103149624315 0.461939758577376 0.38268343236509
outer loop
vertex 13.2450031471818 43.899998485618 15.999999761515
vertex 10.1869666537726 39.8920541276889 14.4443646579248
vertex 10.7450031529462 39.5698715339563 15.9999995765352
endloop
endfacet
facet normal -0.800103149624315 0.461939758577376 0.38268343236509
outer loop
vertex 10.1869666537726 39.8920541276889 14.4443646579248
vertex 13.2450031471818 43.899998485618 15.999999761515
vertex 12.6869666480082 44.2221810793507 14.4443648429046
endloop
endfacet
facet normal 0.331413555849759 -0.19134174768133 0.923879532511286
outer loop
vertex 8.83974731161632 40.6698716153556 13.7999995765352
vertex 9.99252793985679 45.7778160133938 14.4443648429046
vertex 7.49252794562117 41.4476890617321 14.4443646579248
endloop
endfacet
facet normal 0.331413555849759 -0.19134174768133 0.923879532511286
outer loop
vertex 9.99252793985679 45.7778160133938 14.4443648429046
vertex 8.83974731161632 40.6698716153556 13.7999995765352
vertex 11.3397473058519 44.9999985670173 13.799999761515
endloop
endfacet
facet normal 0.500000004960269 0.866025400920626 -1.01141452293762e-017
outer loop
vertex 10.1746823602707 47.9820508142419 6.84883340310853e-007
vertex 14.5048093648738 45.4820507894405 10.0000005795147
vertex 14.5048093648738 45.4820507894405 5.79514709213483e-007
endloop
endfacet
facet normal 0.500000004960269 0.866025400920626 -1.01141452293762e-017
outer loop
vertex 14.5048093648738 45.4820507894405 10.0000005795147
vertex 10.1746823602707 47.9820508142419 6.84883340310853e-007
vertex 10.1746823602707 47.9820508142419 10.0000006848833
endloop
endfacet
facet normal 0.866025400920626 -0.500000004960269 -0.0
outer loop
vertex 14.5048093648738 45.4820507894405 5.79514709213483e-007
vertex 13.5048093549532 43.7499999875993 10.0000005795147
vertex 13.5048093549532 43.7499999875993 5.79514709233712e-007
endloop
endfacet
facet normal 0.866025400920626 -0.500000004960269 -0.0
outer loop
vertex 13.5048093549532 43.7499999875993 10.0000005795147
vertex 14.5048093648738 45.4820507894405 5.79514709213483e-007
vertex 14.5048093648738 45.4820507894405 10.0000005795147
endloop
endfacet
facet normal 1.82503822424683e-008 -1.05368632398778e-008 1.0
outer loop
vertex 13.5048093549532 43.7499999875993 10.0000005795147
vertex 10.1746823602707 47.9820508142419 10.0000006848833
vertex 9.17468235035012 46.2500000124006 10.0000006848833
endloop
endfacet
facet normal 1.82503822424683e-008 -1.05368632398778e-008 1.0
outer loop
vertex 10.1746823602707 47.9820508142419 10.0000006848833
vertex 13.5048093549532 43.7499999875993 10.0000005795147
vertex 14.5048093648738 45.4820507894405 10.0000005795147
endloop
endfacet
facet normal -0.866025400920625 0.500000004960271 0.0
outer loop
vertex 10.1746823602707 47.9820508142419 10.0000006848833
vertex 9.17468235035012 46.2500000124006 6.84883340331081e-007
vertex 9.17468235035012 46.2500000124006 10.0000006848833
endloop
endfacet
facet normal -0.866025400920625 0.500000004960271 0.0
outer loop
vertex 9.17468235035012 46.2500000124006 6.84883340331081e-007
vertex 10.1746823602707 47.9820508142419 10.0000006848833
vertex 10.1746823602707 47.9820508142419 6.84883340310853e-007
endloop
endfacet
facet normal 0.999999999999991 -1.27939157283597e-008 -1.36898823671311e-007
outer loop
vertex 19.9999998904965 0.0 0.0
vertex 20.000003573204 37.1132452848652 26.0000002708067
vertex 19.9999998693468 -6.0289918968337e-008 5.99999823324607
endloop
endfacet
facet normal 0.999999999999991 -1.27939157283597e-008 -1.36898823671311e-007
outer loop
vertex 20.000003573204 37.1132452848652 26.0000002708067
vertex 19.9999998904965 0.0 0.0
vertex 19.9999998904961 40.0 4.21461508448573e-007
endloop
endfacet
facet normal 0.999999999999991 -1.27939157283597e-008 -1.36898823671311e-007
outer loop
vertex 20.000003573204 37.1132452848652 26.0000002708067
vertex 19.9999998904961 40.0 4.21461508448573e-007
vertex 20.000003573204 39.9999966308133 26.0000004214612
endloop
endfacet
facet normal -0.866025381413632 0.500000038747356 1.27361852856946e-007
outer loop
vertex 2.67949416793454 49.9999976629949 26.0000008429363
vertex 0.179491899509526 45.6698729321775 6.00000060246235
vertex 0.179494143133187 45.6698706583918 26.0000006024621
endloop
endfacet
facet normal -0.866025381413632 0.500000038747356 1.27361852856946e-007
outer loop
vertex 0.179491899509526 45.6698729321775 6.00000060246235
vertex 2.67949416793454 49.9999976629949 26.0000008429363
vertex 0.179491790007117 45.6698729953988 8.42936507616798e-007
endloop
endfacet
facet normal -0.866025381413632 0.500000038747356 1.27361852856946e-007
outer loop
vertex 0.179491790007117 45.6698729953988 8.42936507616798e-007
vertex 2.67949416793454 49.9999976629949 26.0000008429363
vertex 2.67949181480725 49.9999999999999 8.42936564016128e-007
endloop
endfacet
facet normal -9.28284585253727e-010 -4.05872923584121e-008 0.999999999999999
outer loop
vertex 15.000003573204 37.1132452848651 26.0000003620598
vertex 2.67949416793454 49.9999976629949 26.0000008429363
vertex 0.179494143133187 45.6698706583918 26.0000006024621
endloop
endfacet
facet normal -9.28284585253727e-010 -4.05872923584121e-008 0.999999999999999
outer loop
vertex 2.67949416793454 49.9999976629949 26.0000008429363
vertex 15.000003573204 37.1132452848651 26.0000003620598
vertex 20.000003573204 39.9999966308133 26.0000004214612
endloop
endfacet
facet normal -9.28284585253727e-010 -4.05872923584121e-008 0.999999999999999
outer loop
vertex 20.000003573204 39.9999966308133 26.0000004214612
vertex 15.000003573204 37.1132452848651 26.0000003620598
vertex 20.000003573204 37.1132452848652 26.0000002708067
endloop
endfacet
facet normal 0.500000004960271 0.866025400920624 3.61774535724949e-008
outer loop
vertex 2.67949181480725 49.9999999999999 8.42936564016128e-007
vertex 9.17468235035012 46.2500000124006 10.0000006848833
vertex 9.17468235035012 46.2500000124006 6.84883340331081e-007
endloop
endfacet
facet normal 0.500000004960271 0.866025400920624 3.61774535724949e-008
outer loop
vertex 9.17468235035012 46.2500000124006 10.0000006848833
vertex 2.67949181480725 49.9999999999999 8.42936564016128e-007
vertex 2.67949416793454 49.9999976629949 26.0000008429363
endloop
endfacet
facet normal 0.500000004960271 0.866025400920624 3.61774535724949e-008
outer loop
vertex 9.17468235035012 46.2500000124006 10.0000006848833
vertex 2.67949416793454 49.9999976629949 26.0000008429363
vertex 9.99252793985679 45.7778160133938 14.4443648429046
endloop
endfacet
facet normal 0.500000004960271 0.866025400920624 3.61774535724949e-008
outer loop
vertex 9.17468235035012 46.2500000124006 10.0000006848833
vertex 9.99252793985679 45.7778160133938 14.4443648429046
vertex 11.3397473058519 44.9999985670173 13.799999761515
endloop
endfacet
facet normal 0.500000004960271 0.866025400920624 3.61774535724949e-008
outer loop
vertex 9.99252793985679 45.7778160133938 14.4443648429046
vertex 2.67949416793454 49.9999976629949 26.0000008429363
vertex 9.43449138313103 46.0999985074432 15.999999761515
endloop
endfacet
facet normal 0.500000004960271 0.866025400920624 3.61774535724949e-008
outer loop
vertex 9.43449138313103 46.0999985074432 15.999999761515
vertex 2.67949416793454 49.9999976629949 26.0000008429363
vertex 9.99252788230461 45.7778159137105 17.5556346801254
endloop
endfacet
facet normal 0.500000004960271 0.866025400920624 3.61774535724949e-008
outer loop
vertex 9.99252788230461 45.7778159137105 17.5556346801254
vertex 2.67949416793454 49.9999976629949 26.0000008429363
vertex 11.3397472244609 44.9999984260438 18.1999997615149
endloop
endfacet
facet normal 0.500000004960271 0.866025400920624 3.61774535724949e-008
outer loop
vertex 11.3397472244609 44.9999984260438 18.1999997615149
vertex 2.67949416793454 49.9999976629949 26.0000008429363
vertex 20.000003573204 39.9999966308133 26.0000004214612
endloop
endfacet
facet normal 0.500000004960271 0.866025400920624 3.61774535724949e-008
outer loop
vertex 13.5048093549532 43.7499999875993 5.79514709233712e-007
vertex 20.000003573204 39.9999966308133 26.0000004214612
vertex 19.9999998904961 40.0 4.21461508448573e-007
endloop
endfacet
facet normal 0.500000004960271 0.866025400920624 3.61774535724949e-008
outer loop
vertex 20.000003573204 39.9999966308133 26.0000004214612
vertex 13.5048093549532 43.7499999875993 5.79514709233712e-007
vertex 13.5048093549532 43.7499999875993 10.0000005795147
endloop
endfacet
facet normal 0.500000004960271 0.866025400920624 3.61774535724949e-008
outer loop
vertex 20.000003573204 39.9999966308133 26.0000004214612
vertex 13.5048093549532 43.7499999875993 10.0000005795147
vertex 12.6869666480082 44.2221810793507 14.4443648429046
endloop
endfacet
facet normal 0.500000004960271 0.866025400920624 3.61774535724949e-008
outer loop
vertex 12.6869666480082 44.2221810793507 14.4443648429046
vertex 13.5048093549532 43.7499999875993 10.0000005795147
vertex 9.17468235035012 46.2500000124006 10.0000006848833
endloop
endfacet
facet normal 0.500000004960271 0.866025400920624 3.61774535724949e-008
outer loop
vertex 12.6869666480082 44.2221810793507 14.4443648429046
vertex 9.17468235035012 46.2500000124006 10.0000006848833
vertex 11.3397473058519 44.9999985670173 13.799999761515
endloop
endfacet
facet normal 0.500000004960271 0.866025400920624 3.61774535724949e-008
outer loop
vertex 20.000003573204 39.9999966308133 26.0000004214612
vertex 12.6869666480082 44.2221810793507 14.4443648429046
vertex 13.2450031471818 43.899998485618 15.999999761515
endloop
endfacet
facet normal 0.500000004960271 0.866025400920624 3.61774535724949e-008
outer loop
vertex 20.000003573204 39.9999966308133 26.0000004214612
vertex 13.2450031471818 43.899998485618 15.999999761515
vertex 12.686966590456 44.2221809796674 17.5556346801254
endloop
endfacet
facet normal 0.500000004960271 0.866025400920624 3.61774535724949e-008
outer loop
vertex 20.000003573204 39.9999966308133 26.0000004214612
vertex 12.686966590456 44.2221809796674 17.5556346801254
vertex 11.3397472244609 44.9999984260438 18.1999997615149
endloop
endfacet
facet normal 2.02734042810746e-008 -6.71852059890929e-009 1.0
outer loop
vertex 7.79999999999999 9.99999993678067 6.00000032802278
vertex 8.44436508138942 28.4443650181703 6.00000051060251
vertex 7.79999999999981 29.9999999367807 6.00000053875349
endloop
endfacet
facet normal 2.02734042810746e-008 -6.71852059890929e-009 1.0
outer loop
vertex 8.44436508138942 28.4443650181703 6.00000051060251
vertex 7.79999999999999 9.99999993678067 6.00000032802278
vertex 8.44436508138958 11.5556348553911 6.00000033265368
endloop
endfacet
facet normal 2.02734042810746e-008 -6.71852059890929e-009 1.0
outer loop
vertex 8.44436508138942 28.4443650181703 6.00000051060251
vertex 8.44436508138958 11.5556348553911 6.00000033265368
vertex 9.99999999999983 27.7999999367807 6.00000047542181
endloop
endfacet
facet normal 2.02734042810746e-008 -6.71852059890929e-009 1.0
outer loop
vertex 9.99999999999983 27.7999999367807 6.00000047542181
vertex 8.44436508138958 11.5556348553911 6.00000033265368
vertex 9.99999999999998 12.1999999367807 6.00000031105182
endloop
endfacet
facet normal 2.02734042810746e-008 -6.71852059890929e-009 1.0
outer loop
vertex 9.99999999999983 27.7999999367807 6.00000047542181
vertex 9.99999999999998 12.1999999367807 6.00000031105182
vertex 11.5556349186102 28.4443650181703 6.00000045381995
endloop
endfacet
facet normal 2.02734042810746e-008 -6.71852059890929e-009 1.0
outer loop
vertex 11.5556349186102 28.4443650181703 6.00000045381995
vertex 9.99999999999998 12.1999999367807 6.00000031105182
vertex 11.5556349186104 11.5556348553911 6.00000027587112
endloop
endfacet
facet normal 2.02734042810746e-008 -6.71852059890929e-009 1.0
outer loop
vertex 11.5556349186102 28.4443650181703 6.00000045381995
vertex 11.5556349186104 11.5556348553911 6.00000027587112
vertex 12.1999999999998 29.9999999367807 6.00000045845091
endloop
endfacet
facet normal 2.02734042810746e-008 -6.71852059890929e-009 1.0
outer loop
vertex 12.1999999999998 29.9999999367807 6.00000045845091
vertex 11.5556349186104 11.5556348553911 6.00000027587112
vertex 12.2 9.99999993678071 6.0000002477201
endloop
endfacet
facet normal 2.02734042810746e-008 -6.71852059890929e-009 1.0
outer loop
vertex 0.0 8.66025420373035 6.00000045626117
vertex 0.179491899509526 45.6698729321775 6.00000060246235
vertex -2.65076849359502e-013 39.9999999367806 6.00000078647361
endloop
endfacet
facet normal 2.02734042810746e-008 -6.71852059890929e-009 1.0
outer loop
vertex 0.179491899509526 45.6698729321775 6.00000060246235
vertex 0.0 8.66025420373035 6.00000045626117
vertex 7.79999999999999 9.99999993678067 6.00000032802278
endloop
endfacet
facet normal 2.02734042810746e-008 -6.71852059890929e-009 1.0
outer loop
vertex 7.79999999999999 9.99999993678067 6.00000032802278
vertex 0.0 8.66025420373035 6.00000045626117
vertex 8.44436508138958 8.44436501817026 6.00000029987167
endloop
endfacet
facet normal 2.02734042810746e-008 -6.71852059890929e-009 1.0
outer loop
vertex 8.44436508138958 8.44436501817026 6.00000029987167
vertex 0.0 8.66025420373035 6.00000045626117
vertex 15.0000000000001 -6.32192691307765e-008 6.00000009125302
endloop
endfacet
facet normal 2.02734042810746e-008 -6.71852059890929e-009 1.0
outer loop
vertex 0.179491899509526 45.6698729321775 6.00000060246235
vertex 7.79999999999999 9.99999993678067 6.00000032802278
vertex 7.79999999999981 29.9999999367807 6.00000053875349
endloop
endfacet
facet normal 2.02734042810746e-008 -6.71852059890929e-009 1.0
outer loop
vertex 8.44436508138958 8.44436501817026 6.00000029987167
vertex 15.0000000000001 -6.32192691307765e-008 6.00000009125302
vertex 9.99999999999999 7.7999999367807 6.00000026469109
endloop
endfacet
facet normal 2.02734042810746e-008 -6.71852059890929e-009 1.0
outer loop
vertex 9.99999999999999 7.7999999367807 6.00000026469109
vertex 15.0000000000001 -6.32192691307765e-008 6.00000009125302
vertex 11.5556349186104 8.4443650181703 6.00000024308915
endloop
endfacet
facet normal 2.02734042810746e-008 -6.71852059890929e-009 1.0
outer loop
vertex 11.5556349186104 8.4443650181703 6.00000024308915
vertex 15.0000000000001 -6.32192691307765e-008 6.00000009125302
vertex 12.2 9.99999993678071 6.0000002477201
endloop
endfacet
facet normal 2.02734042810746e-008 -6.71852059890929e-009 1.0
outer loop
vertex 12.2 9.99999993678071 6.0000002477201
vertex 15.0000000000001 -6.32192691307765e-008 6.00000009125302
vertex 14.9999999999997 37.1132485908326 6.00000036206005
endloop
endfacet
facet normal 2.02734042810746e-008 -6.71852059890929e-009 1.0
outer loop
vertex 0.179491899509526 45.6698729321775 6.00000060246235
vertex 8.44436508138939 31.5556348553911 6.00000054338449
vertex 14.9999999999997 37.1132485908326 6.00000036206005
endloop
endfacet
facet normal 2.02734042810746e-008 -6.71852059890929e-009 1.0
outer loop
vertex 8.44436508138939 31.5556348553911 6.00000054338449
vertex 0.179491899509526 45.6698729321775 6.00000060246235
vertex 7.79999999999981 29.9999999367807 6.00000053875349
endloop
endfacet
facet normal 2.02734042810746e-008 -6.71852059890929e-009 1.0
outer loop
vertex 14.9999999999997 37.1132485908326 6.00000036206005
vertex 8.44436508138939 31.5556348553911 6.00000054338449
vertex 9.9999999999998 32.1999999367807 6.00000052178262
endloop
endfacet
facet normal 2.02734042810746e-008 -6.71852059890929e-009 1.0
outer loop
vertex 14.9999999999997 37.1132485908326 6.00000036206005
vertex 9.9999999999998 32.1999999367807 6.00000052178262
vertex 11.5556349186102 31.5556348553911 6.00000048660193
endloop
endfacet
facet normal 2.02734042810746e-008 -6.71852059890929e-009 1.0
outer loop
vertex 14.9999999999997 37.1132485908326 6.00000036206005
vertex 11.5556349186102 31.5556348553911 6.00000048660193
vertex 12.1999999999998 29.9999999367807 6.00000045845091
endloop
endfacet
facet normal 2.02734042810746e-008 -6.71852059890929e-009 1.0
outer loop
vertex 14.9999999999997 37.1132485908326 6.00000036206005
vertex 12.1999999999998 29.9999999367807 6.00000045845091
vertex 12.2 9.99999993678071 6.0000002477201
endloop
endfacet
facet normal -0.500000009920546 -0.866025398056809 3.94746700522334e-013
outer loop
vertex 15.0000000000001 -6.32192691307765e-008 6.00000009125302
vertex -1.09503629985852e-007 8.66025426694956 4.56261186387863e-007
vertex 14.9999998904964 -5.06892292189889e-014 9.12530268681877e-008
endloop
endfacet
facet normal -0.500000009920546 -0.866025398056809 3.94746700522334e-013
outer loop
vertex -1.09503629985852e-007 8.66025426694956 4.56261186387863e-007
vertex 15.0000000000001 -6.32192691307765e-008 6.00000009125302
vertex 0.0 8.66025420373035 6.00000045626117
endloop
endfacet
endsolid inside corner
