solid 90
facet normal 0.38268343236509 -0.923879532511287 1.25443067807398e-018
outer loop
vertex 9.99999999999998 12.1999970190178 12.9999992014963
vertex 8.44436508138959 11.5556319376282 -7.98503688814733e-007
vertex 9.99999999999998 12.1999970190178 -7.98503688814733e-007
endloop
endfacet
facet normal 0.38268343236509 -0.923879532511287 1.25443067807398e-018
outer loop
vertex 8.44436508138959 11.5556319376282 -7.98503688814733e-007
vertex 9.99999999999998 12.1999970190178 12.9999992014963
vertex 8.44436508138959 11.5556319376282 12.9999992014963
endloop
endfacet
facet normal -5.27000095983929e-016 -1.0 -1.60405341545162e-032
outer loop
vertex 40.0 7.79999701901779 14.1999992014963
vertex 32.2 7.79999701901779 12.9999992014963
vertex 40.0 7.79999701901779 12.9999992014963
endloop
endfacet
facet normal -5.27000095983929e-016 -1.0 -1.60405341545162e-032
outer loop
vertex 32.2 7.79999701901779 12.9999992014963
vertex 40.0 7.79999701901779 14.1999992014963
vertex 32.2 7.79999701901779 14.1999992014963
endloop
endfacet
facet normal 0.0 0.0 1.0
outer loop
vertex 7.79999999999999 7.79999701901781 14.1999992014963
vertex 0.0 12.1999970190178 14.1999992014963
vertex 0.0 7.79999701901781 14.1999992014963
endloop
endfacet
facet normal 0.0 0.0 1.0
outer loop
vertex 0.0 12.1999970190178 14.1999992014963
vertex 7.79999999999999 7.79999701901781 14.1999992014963
vertex 7.79999999999999 12.1999970190178 14.1999992014963
endloop
endfacet
facet normal 0.38268343236509 0.923879532511287 -1.33052465849181e-018
outer loop
vertex 28.4443650813896 8.44436210040739 12.9999992014963
vertex 30.0 7.79999701901779 -7.98503688814733e-007
vertex 28.4443650813896 8.44436210040739 -7.98503688814733e-007
endloop
endfacet
facet normal 0.38268343236509 0.923879532511287 -1.33052465849181e-018
outer loop
vertex 30.0 7.79999701901779 -7.98503688814733e-007
vertex 28.4443650813896 8.44436210040739 12.9999992014963
vertex 30.0 7.79999701901779 12.9999992014963
endloop
endfacet
facet normal -7.07767178198537e-016 -1.0 0.0
outer loop
vertex 12.2000000000001 32.1999970190178 12.9999992014963
vertex 7.80000000000008 32.1999970190178 12.9999992014963
vertex 10.0000000000001 32.1999970190178 12.9999992014963
endloop
endfacet
facet normal -7.07767178198537e-016 -1.0 0.0
outer loop
vertex 7.80000000000008 32.1999970190178 12.9999992014963
vertex 12.2000000000001 32.1999970190178 12.9999992014963
vertex 7.80000000000008 32.1999970190178 14.1999992014963
endloop
endfacet
facet normal -7.07767178198537e-016 -1.0 0.0
outer loop
vertex 7.80000000000008 32.1999970190178 14.1999992014963
vertex 12.2000000000001 32.1999970190178 12.9999992014963
vertex 12.2000000000001 32.1999970190178 14.1999992014963
endloop
endfacet
facet normal -0.923879532511287 -0.382683432365089 0.0
outer loop
vertex 31.5556349186104 11.5556319376282 12.9999992014963
vertex 32.2 9.99999701901779 -7.98503688814733e-007
vertex 32.2 9.99999701901779 12.9999992014963
endloop
endfacet
facet normal -0.923879532511287 -0.382683432365089 0.0
outer loop
vertex 32.2 9.99999701901779 -7.98503688814733e-007
vertex 31.5556349186104 11.5556319376282 12.9999992014963
vertex 31.5556349186104 11.5556319376282 -7.98503688814733e-007
endloop
endfacet
facet normal 7.07767178198537e-016 1.0 0.0
outer loop
vertex 12.2 12.1999970190178 14.1999992014963
vertex 27.8 12.1999970190178 12.9999992014963
vertex 12.2 12.1999970190178 12.9999992014963
endloop
endfacet
facet normal 7.07767178198537e-016 1.0 0.0
outer loop
vertex 27.8 12.1999970190178 12.9999992014963
vertex 12.2 12.1999970190178 14.1999992014963
vertex 27.8 12.1999970190178 14.1999992014963
endloop
endfacet
facet normal 0.38268343236509 0.923879532511287 0.0
outer loop
vertex 8.44436508138959 8.4443621004074 12.9999992014963
vertex 9.99999999999998 7.7999970190178 -7.98503688814733e-007
vertex 8.44436508138959 8.4443621004074 -7.98503688814733e-007
endloop
endfacet
facet normal 0.38268343236509 0.923879532511287 0.0
outer loop
vertex 9.99999999999998 7.7999970190178 -7.98503688814733e-007
vertex 8.44436508138959 8.4443621004074 12.9999992014963
vertex 9.99999999999998 7.7999970190178 12.9999992014963
endloop
endfacet
facet normal 1.0 -7.07767178198537e-016 0.0
outer loop
vertex 7.79999999999999 9.9999970190178 12.9999992014963
vertex 7.79999999999999 7.79999701901781 14.1999992014963
vertex 7.79999999999999 7.79999701901781 12.9999992014963
endloop
endfacet
facet normal 1.0 -7.07767178198537e-016 0.0
outer loop
vertex 7.79999999999999 7.79999701901781 14.1999992014963
vertex 7.79999999999999 9.9999970190178 12.9999992014963
vertex 7.79999999999999 12.1999970190178 14.1999992014963
endloop
endfacet
facet normal 1.0 -7.07767178198537e-016 0.0
outer loop
vertex 7.79999999999999 12.1999970190178 14.1999992014963
vertex 7.79999999999999 9.9999970190178 12.9999992014963
vertex 7.79999999999999 12.1999970190178 12.9999992014963
endloop
endfacet
facet normal 0.38268343236509 0.923879532511287 0.0
outer loop
vertex 8.44436508138964 28.4443621004074 12.9999992014963
vertex 10.0 27.7999970190178 -7.98503688814733e-007
vertex 8.44436508138964 28.4443621004074 -7.98503688814733e-007
endloop
endfacet
facet normal 0.38268343236509 0.923879532511287 0.0
outer loop
vertex 10.0 27.7999970190178 -7.98503688814733e-007
vertex 8.44436508138964 28.4443621004074 12.9999992014963
vertex 10.0 27.7999970190178 12.9999992014963
endloop
endfacet
facet normal 0.923879532511287 -0.38268343236509 0.0
outer loop
vertex 8.44436508138959 11.5556319376282 -7.98503688814733e-007
vertex 7.79999999999999 9.9999970190178 12.9999992014963
vertex 7.79999999999999 9.9999970190178 -7.98503688814733e-007
endloop
endfacet
facet normal 0.923879532511287 -0.38268343236509 0.0
outer loop
vertex 7.79999999999999 9.9999970190178 12.9999992014963
vertex 8.44436508138959 11.5556319376282 -7.98503688814733e-007
vertex 8.44436508138959 11.5556319376282 12.9999992014963
endloop
endfacet
facet normal 1.0 -7.07767178198537e-016 0.0
outer loop
vertex 12.2000000000001 59.9999970190178 12.9999992014963
vertex 12.2000000000001 52.1999970190178 14.1999992014963
vertex 12.2000000000001 52.1999970190178 12.9999992014963
endloop
endfacet
facet normal 1.0 -7.07767178198537e-016 0.0
outer loop
vertex 12.2000000000001 52.1999970190178 14.1999992014963
vertex 12.2000000000001 59.9999970190178 12.9999992014963
vertex 12.2000000000001 59.9999970190178 14.1999992014963
endloop
endfacet
facet normal -0.923879532511287 0.38268343236509 0.0
outer loop
vertex 12.2000000000001 49.9999970190178 12.9999992014963
vertex 11.5556349186105 48.4443621004074 -7.98503688814733e-007
vertex 11.5556349186105 48.4443621004074 12.9999992014963
endloop
endfacet
facet normal -0.923879532511287 0.38268343236509 0.0
outer loop
vertex 11.5556349186105 48.4443621004074 -7.98503688814733e-007
vertex 12.2000000000001 49.9999970190178 12.9999992014963
vertex 12.2000000000001 49.9999970190178 -7.98503688814733e-007
endloop
endfacet
facet normal 0.923879532511287 -0.382683432365089 0.0
outer loop
vertex 8.44436508138964 51.5556319376282 -7.98503688814733e-007
vertex 7.80000000000008 49.9999970190178 12.9999992014963
vertex 7.80000000000008 49.9999970190178 -7.98503688814733e-007
endloop
endfacet
facet normal 0.923879532511287 -0.382683432365089 0.0
outer loop
vertex 7.80000000000008 49.9999970190178 12.9999992014963
vertex 8.44436508138964 51.5556319376282 -7.98503688814733e-007
vertex 8.44436508138964 51.5556319376282 12.9999992014963
endloop
endfacet
facet normal -0.923879532511287 -0.38268343236509 0.0
outer loop
vertex 11.5556349186104 11.5556319376282 12.9999992014963
vertex 12.2 9.9999970190178 -7.98503688814733e-007
vertex 12.2 9.9999970190178 12.9999992014963
endloop
endfacet
facet normal -0.923879532511287 -0.38268343236509 0.0
outer loop
vertex 12.2 9.9999970190178 -7.98503688814733e-007
vertex 11.5556349186104 11.5556319376282 12.9999992014963
vertex 11.5556349186104 11.5556319376282 -7.98503688814733e-007
endloop
endfacet
facet normal 9.45640468225087e-018 1.36061393283884e-017 1.0
outer loop
vertex 7.80000000000003 27.7999970190178 12.9999992014963
vertex 8.44436508138964 28.4443621004074 12.9999992014963
vertex 7.80000000000003 29.9999970190178 12.9999992014963
endloop
endfacet
facet normal 9.45640468225087e-018 1.36061393283884e-017 1.0
outer loop
vertex 8.44436508138964 28.4443621004074 12.9999992014963
vertex 7.80000000000003 27.7999970190178 12.9999992014963
vertex 10.0 27.7999970190178 12.9999992014963
endloop
endfacet
facet normal 9.45640468225087e-018 1.36061393283884e-017 1.0
outer loop
vertex 7.79999999999999 12.1999970190178 12.9999992014963
vertex 4.51194637207664e-014 59.9999970190178 12.9999992014963
vertex 0.0 12.1999970190178 12.9999992014963
endloop
endfacet
facet normal 9.45640468225087e-018 1.36061393283884e-017 1.0
outer loop
vertex 4.51194637207664e-014 59.9999970190178 12.9999992014963
vertex 7.79999999999999 12.1999970190178 12.9999992014963
vertex 7.80000000000003 59.9999970190178 12.9999992014963
endloop
endfacet
facet normal 9.45640468225087e-018 1.36061393283884e-017 1.0
outer loop
vertex 7.80000000000003 59.9999970190178 12.9999992014963
vertex 7.79999999999999 12.1999970190178 12.9999992014963
vertex 7.80000000000003 20.9999970190178 12.9999992014963
endloop
endfacet
facet normal 9.45640468225087e-018 1.36061393283884e-017 1.0
outer loop
vertex 7.80000000000003 59.9999970190178 12.9999992014963
vertex 7.80000000000003 20.9999970190178 12.9999992014963
vertex 7.80000000000003 27.7999970190178 12.9999992014963
endloop
endfacet
facet normal 9.45640468225087e-018 1.36061393283884e-017 1.0
outer loop
vertex 7.80000000000003 59.9999970190178 12.9999992014963
vertex 7.80000000000003 27.7999970190178 12.9999992014963
vertex 7.80000000000003 29.9999970190178 12.9999992014963
endloop
endfacet
facet normal 9.45640468225087e-018 1.36061393283884e-017 1.0
outer loop
vertex 7.80000000000003 59.9999970190178 12.9999992014963
vertex 7.80000000000003 29.9999970190178 12.9999992014963
vertex 7.80000000000008 32.1999970190178 12.9999992014963
endloop
endfacet
facet normal 9.45640468225087e-018 1.36061393283884e-017 1.0
outer loop
vertex 7.80000000000008 32.1999970190178 12.9999992014963
vertex 7.80000000000003 29.9999970190178 12.9999992014963
vertex 8.44436508138964 31.5556319376282 12.9999992014963
endloop
endfacet
facet normal 9.45640468225087e-018 1.36061393283884e-017 1.0
outer loop
vertex 7.80000000000008 32.1999970190178 12.9999992014963
vertex 8.44436508138964 31.5556319376282 12.9999992014963
vertex 10.0000000000001 32.1999970190178 12.9999992014963
endloop
endfacet
facet normal 9.45640468225087e-018 1.36061393283884e-017 1.0
outer loop
vertex 7.80000000000008 47.7999970190178 12.9999992014963
vertex 8.44436508138964 48.4443621004074 12.9999992014963
vertex 7.80000000000008 49.9999970190178 12.9999992014963
endloop
endfacet
facet normal 9.45640468225087e-018 1.36061393283884e-017 1.0
outer loop
vertex 8.44436508138964 48.4443621004074 12.9999992014963
vertex 7.80000000000008 47.7999970190178 12.9999992014963
vertex 10.0000000000001 47.7999970190178 12.9999992014963
endloop
endfacet
facet normal 9.45640468225087e-018 1.36061393283884e-017 1.0
outer loop
vertex 7.80000000000008 32.1999970190178 12.9999992014963
vertex 7.80000000000008 52.1999970190178 12.9999992014963
vertex 7.80000000000003 59.9999970190178 12.9999992014963
endloop
endfacet
facet normal 9.45640468225087e-018 1.36061393283884e-017 1.0
outer loop
vertex 7.80000000000008 52.1999970190178 12.9999992014963
vertex 7.80000000000008 32.1999970190178 12.9999992014963
vertex 7.80000000000008 47.7999970190178 12.9999992014963
endloop
endfacet
facet normal 9.45640468225087e-018 1.36061393283884e-017 1.0
outer loop
vertex 7.80000000000008 52.1999970190178 12.9999992014963
vertex 7.80000000000008 47.7999970190178 12.9999992014963
vertex 7.80000000000008 49.9999970190178 12.9999992014963
endloop
endfacet
facet normal 9.45640468225087e-018 1.36061393283884e-017 1.0
outer loop
vertex 7.80000000000008 52.1999970190178 12.9999992014963
vertex 7.80000000000008 49.9999970190178 12.9999992014963
vertex 8.44436508138964 51.5556319376282 12.9999992014963
endloop
endfacet
facet normal 9.45640468225087e-018 1.36061393283884e-017 1.0
outer loop
vertex 7.80000000000008 52.1999970190178 12.9999992014963
vertex 8.44436508138964 51.5556319376282 12.9999992014963
vertex 10.0000000000001 52.1999970190178 12.9999992014963
endloop
endfacet
facet normal 9.45640468225087e-018 1.36061393283884e-017 1.0
outer loop
vertex 28.4443650813896 11.5556319376282 12.9999992014963
vertex 27.8 12.1999970190178 12.9999992014963
vertex 27.8 9.99999701901779 12.9999992014963
endloop
endfacet
facet normal 9.45640468225087e-018 1.36061393283884e-017 1.0
outer loop
vertex 8.44436508138959 11.5556319376282 12.9999992014963
vertex 7.79999999999999 12.1999970190178 12.9999992014963
vertex 7.79999999999999 9.9999970190178 12.9999992014963
endloop
endfacet
facet normal 9.45640468225087e-018 1.36061393283884e-017 1.0
outer loop
vertex 7.79999999999999 12.1999970190178 12.9999992014963
vertex 8.44436508138959 11.5556319376282 12.9999992014963
vertex 7.80000000000003 20.9999970190178 12.9999992014963
endloop
endfacet
facet normal 9.45640468225087e-018 1.36061393283884e-017 1.0
outer loop
vertex 7.80000000000003 20.9999970190178 12.9999992014963
vertex 8.44436508138959 11.5556319376282 12.9999992014963
vertex 12.2 20.9999970190178 12.9999992014963
endloop
endfacet
facet normal 9.45640468225087e-018 1.36061393283884e-017 1.0
outer loop
vertex 12.2 20.9999970190178 12.9999992014963
vertex 8.44436508138959 11.5556319376282 12.9999992014963
vertex 9.99999999999998 12.1999970190178 12.9999992014963
endloop
endfacet
facet normal 9.45640468225087e-018 1.36061393283884e-017 1.0
outer loop
vertex 12.2 20.9999970190178 12.9999992014963
vertex 9.99999999999998 12.1999970190178 12.9999992014963
vertex 11.5556349186104 11.5556319376282 12.9999992014963
endloop
endfacet
facet normal 9.45640468225087e-018 1.36061393283884e-017 1.0
outer loop
vertex 12.2 20.9999970190178 12.9999992014963
vertex 11.5556349186104 11.5556319376282 12.9999992014963
vertex 12.2 12.1999970190178 12.9999992014963
endloop
endfacet
facet normal 9.45640468225087e-018 1.36061393283884e-017 1.0
outer loop
vertex 12.2 12.1999970190178 12.9999992014963
vertex 11.5556349186104 11.5556319376282 12.9999992014963
vertex 12.2 9.9999970190178 12.9999992014963
endloop
endfacet
facet normal 9.45640468225087e-018 1.36061393283884e-017 1.0
outer loop
vertex 12.2 20.9999970190178 12.9999992014963
vertex 12.2 12.1999970190178 12.9999992014963
vertex 27.8 12.1999970190178 12.9999992014963
endloop
endfacet
facet normal 9.45640468225087e-018 1.36061393283884e-017 1.0
outer loop
vertex 12.2 20.9999970190178 12.9999992014963
vertex 27.8 12.1999970190178 12.9999992014963
vertex 12.2 27.7999970190178 12.9999992014963
endloop
endfacet
facet normal 9.45640468225087e-018 1.36061393283884e-017 1.0
outer loop
vertex 12.2 27.7999970190178 12.9999992014963
vertex 27.8 12.1999970190178 12.9999992014963
vertex 12.2 29.9999970190178 12.9999992014963
endloop
endfacet
facet normal 9.45640468225087e-018 1.36061393283884e-017 1.0
outer loop
vertex 12.2 29.9999970190178 12.9999992014963
vertex 27.8 12.1999970190178 12.9999992014963
vertex 12.2000000000001 32.1999970190178 12.9999992014963
endloop
endfacet
facet normal 9.45640468225087e-018 1.36061393283884e-017 1.0
outer loop
vertex 12.2000000000001 32.1999970190178 12.9999992014963
vertex 27.8 12.1999970190178 12.9999992014963
vertex 12.2000000000001 47.7999970190178 12.9999992014963
endloop
endfacet
facet normal 9.45640468225087e-018 1.36061393283884e-017 1.0
outer loop
vertex 12.2000000000001 47.7999970190178 12.9999992014963
vertex 27.8 12.1999970190178 12.9999992014963
vertex 12.2000000000001 49.9999970190178 12.9999992014963
endloop
endfacet
facet normal 9.45640468225087e-018 1.36061393283884e-017 1.0
outer loop
vertex 12.2000000000001 49.9999970190178 12.9999992014963
vertex 27.8 12.1999970190178 12.9999992014963
vertex 12.2000000000001 52.1999970190178 12.9999992014963
endloop
endfacet
facet normal 9.45640468225087e-018 1.36061393283884e-017 1.0
outer loop
vertex 12.2000000000001 52.1999970190178 12.9999992014963
vertex 27.8 12.1999970190178 12.9999992014963
vertex 12.2000000000001 59.9999970190178 12.9999992014963
endloop
endfacet
facet normal 9.45640468225087e-018 1.36061393283884e-017 1.0
outer loop
vertex 12.2000000000001 59.9999970190178 12.9999992014963
vertex 27.8 12.1999970190178 12.9999992014963
vertex 20.0000000000001 59.9999970190178 12.9999992014963
endloop
endfacet
facet normal 9.45640468225087e-018 1.36061393283884e-017 1.0
outer loop
vertex 20.0000000000001 59.9999970190178 12.9999992014963
vertex 27.8 12.1999970190178 12.9999992014963
vertex 40.0 19.9999970190178 12.9999992014963
endloop
endfacet
facet normal 9.45640468225087e-018 1.36061393283884e-017 1.0
outer loop
vertex 40.0 19.9999970190178 12.9999992014963
vertex 27.8 12.1999970190178 12.9999992014963
vertex 28.4443650813896 11.5556319376282 12.9999992014963
endloop
endfacet
facet normal 9.45640468225087e-018 1.36061393283884e-017 1.0
outer loop
vertex 40.0 19.9999970190178 12.9999992014963
vertex 28.4443650813896 11.5556319376282 12.9999992014963
vertex 30.0 12.1999970190178 12.9999992014963
endloop
endfacet
facet normal 9.45640468225087e-018 1.36061393283884e-017 1.0
outer loop
vertex 40.0 19.9999970190178 12.9999992014963
vertex 30.0 12.1999970190178 12.9999992014963
vertex 31.5556349186104 11.5556319376282 12.9999992014963
endloop
endfacet
facet normal 9.45640468225087e-018 1.36061393283884e-017 1.0
outer loop
vertex 40.0 19.9999970190178 12.9999992014963
vertex 31.5556349186104 11.5556319376282 12.9999992014963
vertex 32.2 12.1999970190178 12.9999992014963
endloop
endfacet
facet normal 9.45640468225087e-018 1.36061393283884e-017 1.0
outer loop
vertex 32.2 12.1999970190178 12.9999992014963
vertex 31.5556349186104 11.5556319376282 12.9999992014963
vertex 32.2 9.99999701901779 12.9999992014963
endloop
endfacet
facet normal 9.45640468225087e-018 1.36061393283884e-017 1.0
outer loop
vertex 40.0 19.9999970190178 12.9999992014963
vertex 32.2 12.1999970190178 12.9999992014963
vertex 40.0 12.1999970190178 12.9999992014963
endloop
endfacet
facet normal 9.45640468225087e-018 1.36061393283884e-017 1.0
outer loop
vertex 11.5556349186105 51.5556319376282 12.9999992014963
vertex 12.2000000000001 52.1999970190178 12.9999992014963
vertex 10.0000000000001 52.1999970190178 12.9999992014963
endloop
endfacet
facet normal 9.45640468225087e-018 1.36061393283884e-017 1.0
outer loop
vertex 12.2000000000001 52.1999970190178 12.9999992014963
vertex 11.5556349186105 51.5556319376282 12.9999992014963
vertex 12.2000000000001 49.9999970190178 12.9999992014963
endloop
endfacet
facet normal 9.45640468225087e-018 1.36061393283884e-017 1.0
outer loop
vertex 12.2000000000001 47.7999970190178 12.9999992014963
vertex 11.5556349186105 48.4443621004074 12.9999992014963
vertex 10.0000000000001 47.7999970190178 12.9999992014963
endloop
endfacet
facet normal 9.45640468225087e-018 1.36061393283884e-017 1.0
outer loop
vertex 11.5556349186105 48.4443621004074 12.9999992014963
vertex 12.2000000000001 47.7999970190178 12.9999992014963
vertex 12.2000000000001 49.9999970190178 12.9999992014963
endloop
endfacet
facet normal 9.45640468225087e-018 1.36061393283884e-017 1.0
outer loop
vertex 11.5556349186104 31.5556319376282 12.9999992014963
vertex 12.2000000000001 32.1999970190178 12.9999992014963
vertex 10.0000000000001 32.1999970190178 12.9999992014963
endloop
endfacet
facet normal 9.45640468225087e-018 1.36061393283884e-017 1.0
outer loop
vertex 12.2000000000001 32.1999970190178 12.9999992014963
vertex 11.5556349186104 31.5556319376282 12.9999992014963
vertex 12.2 29.9999970190178 12.9999992014963
endloop
endfacet
facet normal 9.45640468225087e-018 1.36061393283884e-017 1.0
outer loop
vertex 12.2 27.7999970190178 12.9999992014963
vertex 11.5556349186104 28.4443621004074 12.9999992014963
vertex 10.0 27.7999970190178 12.9999992014963
endloop
endfacet
facet normal 9.45640468225087e-018 1.36061393283884e-017 1.0
outer loop
vertex 11.5556349186104 28.4443621004074 12.9999992014963
vertex 12.2 27.7999970190178 12.9999992014963
vertex 12.2 29.9999970190178 12.9999992014963
endloop
endfacet
facet normal -9.591069181396e-018 -9.06746774732405e-017 1.0
outer loop
vertex 40.0 -2.98098221478416e-006 12.9999992014963
vertex 0.0 7.79999701901781 12.9999992014963
vertex 0.0 -2.98098218647347e-006 12.9999992014963
endloop
endfacet
facet normal -9.591069181396e-018 -9.06746774732405e-017 1.0
outer loop
vertex 0.0 7.79999701901781 12.9999992014963
vertex 40.0 -2.98098221478416e-006 12.9999992014963
vertex 7.79999999999999 7.79999701901781 12.9999992014963
endloop
endfacet
facet normal -9.591069181396e-018 -9.06746774732405e-017 1.0
outer loop
vertex 7.79999999999999 7.79999701901781 12.9999992014963
vertex 40.0 -2.98098221478416e-006 12.9999992014963
vertex 9.99999999999998 7.7999970190178 12.9999992014963
endloop
endfacet
facet normal -9.591069181396e-018 -9.06746774732405e-017 1.0
outer loop
vertex 7.79999999999999 7.79999701901781 12.9999992014963
vertex 9.99999999999998 7.7999970190178 12.9999992014963
vertex 8.44436508138959 8.4443621004074 12.9999992014963
endloop
endfacet
facet normal -9.591069181396e-018 -9.06746774732405e-017 1.0
outer loop
vertex 7.79999999999999 7.79999701901781 12.9999992014963
vertex 8.44436508138959 8.4443621004074 12.9999992014963
vertex 7.79999999999999 9.9999970190178 12.9999992014963
endloop
endfacet
facet normal -9.591069181396e-018 -9.06746774732405e-017 1.0
outer loop
vertex 9.99999999999998 7.7999970190178 12.9999992014963
vertex 40.0 -2.98098221478416e-006 12.9999992014963
vertex 12.2 7.7999970190178 12.9999992014963
endloop
endfacet
facet normal -9.591069181396e-018 -9.06746774732405e-017 1.0
outer loop
vertex 9.99999999999998 7.7999970190178 12.9999992014963
vertex 12.2 7.7999970190178 12.9999992014963
vertex 11.5556349186104 8.4443621004074 12.9999992014963
endloop
endfacet
facet normal -9.591069181396e-018 -9.06746774732405e-017 1.0
outer loop
vertex 12.2 7.7999970190178 12.9999992014963
vertex 40.0 -2.98098221478416e-006 12.9999992014963
vertex 27.8 7.79999701901779 12.9999992014963
endloop
endfacet
facet normal -9.591069181396e-018 -9.06746774732405e-017 1.0
outer loop
vertex 27.8 7.79999701901779 12.9999992014963
vertex 40.0 -2.98098221478416e-006 12.9999992014963
vertex 28.4443650813896 8.44436210040739 12.9999992014963
endloop
endfacet
facet normal -9.591069181396e-018 -9.06746774732405e-017 1.0
outer loop
vertex 27.8 7.79999701901779 12.9999992014963
vertex 28.4443650813896 8.44436210040739 12.9999992014963
vertex 27.8 9.99999701901779 12.9999992014963
endloop
endfacet
facet normal -9.591069181396e-018 -9.06746774732405e-017 1.0
outer loop
vertex 28.4443650813896 8.44436210040739 12.9999992014963
vertex 40.0 -2.98098221478416e-006 12.9999992014963
vertex 30.0 7.79999701901779 12.9999992014963
endloop
endfacet
facet normal -9.591069181396e-018 -9.06746774732405e-017 1.0
outer loop
vertex 30.0 7.79999701901779 12.9999992014963
vertex 40.0 -2.98098221478416e-006 12.9999992014963
vertex 31.5556349186104 8.44436210040739 12.9999992014963
endloop
endfacet
facet normal -9.591069181396e-018 -9.06746774732405e-017 1.0
outer loop
vertex 31.5556349186104 8.44436210040739 12.9999992014963
vertex 40.0 -2.98098221478416e-006 12.9999992014963
vertex 32.2 7.79999701901779 12.9999992014963
endloop
endfacet
facet normal -9.591069181396e-018 -9.06746774732405e-017 1.0
outer loop
vertex 32.2 7.79999701901779 12.9999992014963
vertex 40.0 -2.98098221478416e-006 12.9999992014963
vertex 40.0 7.79999701901779 12.9999992014963
endloop
endfacet
facet normal -9.591069181396e-018 -9.06746774732405e-017 1.0
outer loop
vertex 32.2 9.99999701901779 12.9999992014963
vertex 31.5556349186104 8.44436210040739 12.9999992014963
vertex 32.2 7.79999701901779 12.9999992014963
endloop
endfacet
facet normal -9.591069181396e-018 -9.06746774732405e-017 1.0
outer loop
vertex 12.2 9.9999970190178 12.9999992014963
vertex 11.5556349186104 8.4443621004074 12.9999992014963
vertex 12.2 7.7999970190178 12.9999992014963
endloop
endfacet
facet normal 0.923879532511287 0.382683432365089 8.10922458576701e-019
outer loop
vertex 7.80000000000008 49.9999970190178 -7.98503688814733e-007
vertex 8.44436508138964 48.4443621004074 12.9999992014963
vertex 8.44436508138964 48.4443621004074 -7.98503688814733e-007
endloop
endfacet
facet normal 0.923879532511287 0.382683432365089 8.10922458576701e-019
outer loop
vertex 8.44436508138964 48.4443621004074 12.9999992014963
vertex 7.80000000000008 49.9999970190178 -7.98503688814733e-007
vertex 7.80000000000008 49.9999970190178 12.9999992014963
endloop
endfacet
facet normal -1.0 7.07767178198537e-016 0.0
outer loop
vertex 0.0 12.1999970190178 14.1999992014963
vertex 0.0 7.79999701901781 12.9999992014963
vertex 0.0 7.79999701901781 14.1999992014963
endloop
endfacet
facet normal -1.0 7.07767178198537e-016 0.0
outer loop
vertex 0.0 7.79999701901781 12.9999992014963
vertex 0.0 -2.98098218647347e-006 -7.98503688814733e-007
vertex 0.0 -2.98098218647347e-006 12.9999992014963
endloop
endfacet
facet normal -1.0 7.07767178198537e-016 0.0
outer loop
vertex 0.0 -2.98098218647347e-006 -7.98503688814733e-007
vertex 0.0 7.79999701901781 12.9999992014963
vertex 4.51194637207664e-014 59.9999970190178 -7.98503688814733e-007
endloop
endfacet
facet normal -1.0 7.07767178198537e-016 0.0
outer loop
vertex 4.51194637207664e-014 59.9999970190178 -7.98503688814733e-007
vertex 0.0 7.79999701901781 12.9999992014963
vertex 0.0 12.1999970190178 12.9999992014963
endloop
endfacet
facet normal -1.0 7.07767178198537e-016 0.0
outer loop
vertex 0.0 12.1999970190178 12.9999992014963
vertex 0.0 7.79999701901781 12.9999992014963
vertex 0.0 12.1999970190178 14.1999992014963
endloop
endfacet
facet normal -1.0 7.07767178198537e-016 0.0
outer loop
vertex 4.51194637207664e-014 59.9999970190178 -7.98503688814733e-007
vertex 0.0 12.1999970190178 12.9999992014963
vertex 4.51194637207664e-014 59.9999970190178 12.9999992014963
endloop
endfacet
facet normal -7.07767178198537e-016 -1.0 0.0
outer loop
vertex 12.2 20.9999970190178 14.1999992014963
vertex 7.80000000000003 20.9999970190178 12.9999992014963
vertex 12.2 20.9999970190178 12.9999992014963
endloop
endfacet
facet normal -7.07767178198537e-016 -1.0 0.0
outer loop
vertex 7.80000000000003 20.9999970190178 12.9999992014963
vertex 12.2 20.9999970190178 14.1999992014963
vertex 7.80000000000003 20.9999970190178 14.1999992014963
endloop
endfacet
facet normal -1.0 7.07767178198537e-016 0.0
outer loop
vertex 7.80000000000003 27.7999970190178 14.1999992014963
vertex 7.80000000000003 20.9999970190178 12.9999992014963
vertex 7.80000000000003 20.9999970190178 14.1999992014963
endloop
endfacet
facet normal -1.0 7.07767178198537e-016 0.0
outer loop
vertex 7.80000000000003 20.9999970190178 12.9999992014963
vertex 7.80000000000003 27.7999970190178 14.1999992014963
vertex 7.80000000000003 27.7999970190178 12.9999992014963
endloop
endfacet
facet normal -1.0 3.87316441545367e-016 0.0
outer loop
vertex 12.2 12.1999970190178 14.1999992014963
vertex 12.2 7.7999970190178 12.9999992014963
vertex 12.2 7.7999970190178 14.1999992014963
endloop
endfacet
facet normal -1.0 3.87316441545367e-016 0.0
outer loop
vertex 12.2 7.7999970190178 12.9999992014963
vertex 12.2 12.1999970190178 14.1999992014963
vertex 12.2 9.9999970190178 12.9999992014963
endloop
endfacet
facet normal -1.0 3.87316441545367e-016 0.0
outer loop
vertex 12.2 9.9999970190178 12.9999992014963
vertex 12.2 12.1999970190178 14.1999992014963
vertex 12.2 12.1999970190178 12.9999992014963
endloop
endfacet
facet normal -0.382683432365092 0.923879532511286 0.0
outer loop
vertex 10.0000000000001 47.7999970190178 12.9999992014963
vertex 11.5556349186105 48.4443621004074 -7.98503688814733e-007
vertex 10.0000000000001 47.7999970190178 -7.98503688814733e-007
endloop
endfacet
facet normal -0.382683432365092 0.923879532511286 0.0
outer loop
vertex 11.5556349186105 48.4443621004074 -7.98503688814733e-007
vertex 10.0000000000001 47.7999970190178 12.9999992014963
vertex 11.5556349186105 48.4443621004074 12.9999992014963
endloop
endfacet
facet normal 0.0 0.0 1.0
outer loop
vertex 12.2000000000001 32.1999970190178 14.1999992014963
vertex 7.80000000000008 47.7999970190178 14.1999992014963
vertex 7.80000000000008 32.1999970190178 14.1999992014963
endloop
endfacet
facet normal 0.0 0.0 1.0
outer loop
vertex 7.80000000000008 47.7999970190178 14.1999992014963
vertex 12.2000000000001 32.1999970190178 14.1999992014963
vertex 12.2000000000001 47.7999970190178 14.1999992014963
endloop
endfacet
facet normal -0.38268343236509 -0.923879532511287 0.0
outer loop
vertex 11.5556349186104 11.5556319376282 12.9999992014963
vertex 9.99999999999998 12.1999970190178 -7.98503688814733e-007
vertex 11.5556349186104 11.5556319376282 -7.98503688814733e-007
endloop
endfacet
facet normal -0.38268343236509 -0.923879532511287 0.0
outer loop
vertex 9.99999999999998 12.1999970190178 -7.98503688814733e-007
vertex 11.5556349186104 11.5556319376282 12.9999992014963
vertex 9.99999999999998 12.1999970190178 12.9999992014963
endloop
endfacet
facet normal -0.923879532511287 0.38268343236509 0.0
outer loop
vertex 32.2 9.99999701901779 12.9999992014963
vertex 31.5556349186104 8.44436210040739 -7.98503688814733e-007
vertex 31.5556349186104 8.44436210040739 12.9999992014963
endloop
endfacet
facet normal -0.923879532511287 0.38268343236509 0.0
outer loop
vertex 31.5556349186104 8.44436210040739 -7.98503688814733e-007
vertex 32.2 9.99999701901779 12.9999992014963
vertex 32.2 9.99999701901779 -7.98503688814733e-007
endloop
endfacet
facet normal -0.382683432365084 -0.923879532511289 0.0
outer loop
vertex 11.5556349186105 51.5556319376282 12.9999992014963
vertex 10.0000000000001 52.1999970190178 -7.98503688814733e-007
vertex 11.5556349186105 51.5556319376282 -7.98503688814733e-007
endloop
endfacet
facet normal -0.382683432365084 -0.923879532511289 0.0
outer loop
vertex 10.0000000000001 52.1999970190178 -7.98503688814733e-007
vertex 11.5556349186105 51.5556319376282 12.9999992014963
vertex 10.0000000000001 52.1999970190178 12.9999992014963
endloop
endfacet
facet normal -0.38268343236509 -0.923879532511287 -1.33052465849182e-018
outer loop
vertex 11.5556349186104 31.5556319376282 12.9999992014963
vertex 10.0000000000001 32.1999970190178 -7.98503688814733e-007
vertex 11.5556349186104 31.5556319376282 -7.98503688814733e-007
endloop
endfacet
facet normal -0.38268343236509 -0.923879532511287 -1.33052465849182e-018
outer loop
vertex 10.0000000000001 32.1999970190178 -7.98503688814733e-007
vertex 11.5556349186104 31.5556319376282 12.9999992014963
vertex 10.0000000000001 32.1999970190178 12.9999992014963
endloop
endfacet
facet normal 7.07767178198537e-016 1.0 0.0
outer loop
vertex 0.0 12.1999970190178 14.1999992014963
vertex 7.79999999999999 12.1999970190178 12.9999992014963
vertex 0.0 12.1999970190178 12.9999992014963
endloop
endfacet
facet normal 7.07767178198537e-016 1.0 0.0
outer loop
vertex 7.79999999999999 12.1999970190178 12.9999992014963
vertex 0.0 12.1999970190178 14.1999992014963
vertex 7.79999999999999 12.1999970190178 14.1999992014963
endloop
endfacet
facet normal 0.0 0.0 1.0
outer loop
vertex 12.2 20.9999970190178 14.1999992014963
vertex 7.80000000000003 27.7999970190178 14.1999992014963
vertex 7.80000000000003 20.9999970190178 14.1999992014963
endloop
endfacet
facet normal 0.0 0.0 1.0
outer loop
vertex 7.80000000000003 27.7999970190178 14.1999992014963
vertex 12.2 20.9999970190178 14.1999992014963
vertex 12.2 27.7999970190178 14.1999992014963
endloop
endfacet
facet normal 0.382683432365089 -0.923879532511287 1.25443067807396e-018
outer loop
vertex 30.0 12.1999970190178 12.9999992014963
vertex 28.4443650813896 11.5556319376282 -7.98503688814733e-007
vertex 30.0 12.1999970190178 -7.98503688814733e-007
endloop
endfacet
facet normal 0.382683432365089 -0.923879532511287 1.25443067807396e-018
outer loop
vertex 28.4443650813896 11.5556319376282 -7.98503688814733e-007
vertex 30.0 12.1999970190178 12.9999992014963
vertex 28.4443650813896 11.5556319376282 12.9999992014963
endloop
endfacet
facet normal 0.923879532511287 -0.38268343236509 0.0
outer loop
vertex 28.4443650813896 11.5556319376282 -7.98503688814733e-007
vertex 27.8 9.99999701901779 12.9999992014963
vertex 27.8 9.99999701901779 -7.98503688814733e-007
endloop
endfacet
facet normal 0.923879532511287 -0.38268343236509 0.0
outer loop
vertex 27.8 9.99999701901779 12.9999992014963
vertex 28.4443650813896 11.5556319376282 -7.98503688814733e-007
vertex 28.4443650813896 11.5556319376282 12.9999992014963
endloop
endfacet
facet normal 1.0 -7.07767178198537e-016 0.0
outer loop
vertex 12.2000000000001 47.7999970190178 12.9999992014963
vertex 12.2000000000001 32.1999970190178 14.1999992014963
vertex 12.2000000000001 32.1999970190178 12.9999992014963
endloop
endfacet
facet normal 1.0 -7.07767178198537e-016 0.0
outer loop
vertex 12.2000000000001 32.1999970190178 14.1999992014963
vertex 12.2000000000001 47.7999970190178 12.9999992014963
vertex 12.2000000000001 47.7999970190178 14.1999992014963
endloop
endfacet
facet normal 0.923879532511287 0.382683432365089 0.0
outer loop
vertex 7.80000000000003 29.9999970190178 -7.98503688814733e-007
vertex 8.44436508138964 28.4443621004074 12.9999992014963
vertex 8.44436508138964 28.4443621004074 -7.98503688814733e-007
endloop
endfacet
facet normal 0.923879532511287 0.382683432365089 0.0
outer loop
vertex 8.44436508138964 28.4443621004074 12.9999992014963
vertex 7.80000000000003 29.9999970190178 -7.98503688814733e-007
vertex 7.80000000000003 29.9999970190178 12.9999992014963
endloop
endfacet
facet normal -1.0 7.07767178198537e-016 0.0
outer loop
vertex 7.80000000000003 59.9999970190178 14.1999992014963
vertex 7.80000000000008 52.1999970190178 12.9999992014963
vertex 7.80000000000008 52.1999970190178 14.1999992014963
endloop
endfacet
facet normal -1.0 7.07767178198537e-016 0.0
outer loop
vertex 7.80000000000008 52.1999970190178 12.9999992014963
vertex 7.80000000000003 59.9999970190178 14.1999992014963
vertex 7.80000000000003 59.9999970190178 12.9999992014963
endloop
endfacet
facet normal 0.923879532511287 0.38268343236509 -1.25443067807398e-018
outer loop
vertex 7.79999999999999 9.9999970190178 -7.98503688814733e-007
vertex 8.44436508138959 8.4443621004074 12.9999992014963
vertex 8.44436508138959 8.4443621004074 -7.98503688814733e-007
endloop
endfacet
facet normal 0.923879532511287 0.38268343236509 -1.25443067807398e-018
outer loop
vertex 8.44436508138959 8.4443621004074 12.9999992014963
vertex 7.79999999999999 9.9999970190178 -7.98503688814733e-007
vertex 7.79999999999999 9.9999970190178 12.9999992014963
endloop
endfacet
facet normal 0.0 0.0 1.0
outer loop
vertex 7.80000000000008 52.1999970190178 14.1999992014963
vertex 12.2000000000001 59.9999970190178 14.1999992014963
vertex 7.80000000000003 59.9999970190178 14.1999992014963
endloop
endfacet
facet normal 0.0 0.0 1.0
outer loop
vertex 12.2000000000001 59.9999970190178 14.1999992014963
vertex 7.80000000000008 52.1999970190178 14.1999992014963
vertex 12.2000000000001 52.1999970190178 14.1999992014963
endloop
endfacet
facet normal 7.07767178198537e-016 1.0 0.0
outer loop
vertex 32.2 12.1999970190178 14.1999992014963
vertex 40.0 12.1999970190178 12.9999992014963
vertex 32.2 12.1999970190178 12.9999992014963
endloop
endfacet
facet normal 7.07767178198537e-016 1.0 0.0
outer loop
vertex 40.0 12.1999970190178 12.9999992014963
vertex 32.2 12.1999970190178 14.1999992014963
vertex 40.0 12.1999970190178 14.1999992014963
endloop
endfacet
facet normal 7.07767178198537e-016 1.0 0.0
outer loop
vertex 7.80000000000008 47.7999970190178 12.9999992014963
vertex 12.2000000000001 47.7999970190178 12.9999992014963
vertex 10.0000000000001 47.7999970190178 12.9999992014963
endloop
endfacet
facet normal 7.07767178198537e-016 1.0 0.0
outer loop
vertex 12.2000000000001 47.7999970190178 12.9999992014963
vertex 7.80000000000008 47.7999970190178 12.9999992014963
vertex 12.2000000000001 47.7999970190178 14.1999992014963
endloop
endfacet
facet normal 7.07767178198537e-016 1.0 0.0
outer loop
vertex 12.2000000000001 47.7999970190178 14.1999992014963
vertex 7.80000000000008 47.7999970190178 12.9999992014963
vertex 7.80000000000008 47.7999970190178 14.1999992014963
endloop
endfacet
facet normal 0.38268343236509 0.923879532511287 -1.77403287798909e-018
outer loop
vertex 8.44436508138964 48.4443621004074 12.9999992014963
vertex 10.0000000000001 47.7999970190178 -7.98503688814733e-007
vertex 8.44436508138964 48.4443621004074 -7.98503688814733e-007
endloop
endfacet
facet normal 0.38268343236509 0.923879532511287 -1.77403287798909e-018
outer loop
vertex 10.0000000000001 47.7999970190178 -7.98503688814733e-007
vertex 8.44436508138964 48.4443621004074 12.9999992014963
vertex 10.0000000000001 47.7999970190178 12.9999992014963
endloop
endfacet
facet normal -1.0 7.07767178198537e-016 0.0
outer loop
vertex 7.80000000000008 47.7999970190178 14.1999992014963
vertex 7.80000000000008 32.1999970190178 12.9999992014963
vertex 7.80000000000008 32.1999970190178 14.1999992014963
endloop
endfacet
facet normal -1.0 7.07767178198537e-016 0.0
outer loop
vertex 7.80000000000008 32.1999970190178 12.9999992014963
vertex 7.80000000000008 47.7999970190178 14.1999992014963
vertex 7.80000000000008 47.7999970190178 12.9999992014963
endloop
endfacet
facet normal -0.923879532511287 -0.382683432365091 1.254430678074e-018
outer loop
vertex 11.5556349186104 31.5556319376282 12.9999992014963
vertex 12.2 29.9999970190178 -7.98503688814733e-007
vertex 12.2 29.9999970190178 12.9999992014963
endloop
endfacet
facet normal -0.923879532511287 -0.382683432365091 1.254430678074e-018
outer loop
vertex 12.2 29.9999970190178 -7.98503688814733e-007
vertex 11.5556349186104 31.5556319376282 12.9999992014963
vertex 11.5556349186104 31.5556319376282 -7.98503688814733e-007
endloop
endfacet
facet normal -7.07767178198537e-016 -1.0 0.0
outer loop
vertex 12.2000000000001 52.1999970190178 14.1999992014963
vertex 10.0000000000001 52.1999970190178 12.9999992014963
vertex 12.2000000000001 52.1999970190178 12.9999992014963
endloop
endfacet
facet normal -7.07767178198537e-016 -1.0 0.0
outer loop
vertex 10.0000000000001 52.1999970190178 12.9999992014963
vertex 12.2000000000001 52.1999970190178 14.1999992014963
vertex 7.80000000000008 52.1999970190178 12.9999992014963
endloop
endfacet
facet normal -7.07767178198537e-016 -1.0 0.0
outer loop
vertex 7.80000000000008 52.1999970190178 12.9999992014963
vertex 12.2000000000001 52.1999970190178 14.1999992014963
vertex 7.80000000000008 52.1999970190178 14.1999992014963
endloop
endfacet
facet normal -1.0 7.07767178198537e-016 0.0
outer loop
vertex 32.2 12.1999970190178 14.1999992014963
vertex 32.2 7.79999701901779 12.9999992014963
vertex 32.2 7.79999701901779 14.1999992014963
endloop
endfacet
facet normal -1.0 7.07767178198537e-016 0.0
outer loop
vertex 32.2 7.79999701901779 12.9999992014963
vertex 32.2 12.1999970190178 14.1999992014963
vertex 32.2 9.99999701901779 12.9999992014963
endloop
endfacet
facet normal -1.0 7.07767178198537e-016 0.0
outer loop
vertex 32.2 9.99999701901779 12.9999992014963
vertex 32.2 12.1999970190178 14.1999992014963
vertex 32.2 12.1999970190178 12.9999992014963
endloop
endfacet
facet normal -0.38268343236509 0.923879532511287 0.0
outer loop
vertex 9.99999999999998 7.7999970190178 12.9999992014963
vertex 11.5556349186104 8.4443621004074 -7.98503688814733e-007
vertex 9.99999999999998 7.7999970190178 -7.98503688814733e-007
endloop
endfacet
facet normal -0.38268343236509 0.923879532511287 0.0
outer loop
vertex 11.5556349186104 8.4443621004074 -7.98503688814733e-007
vertex 9.99999999999998 7.7999970190178 12.9999992014963
vertex 11.5556349186104 8.4443621004074 12.9999992014963
endloop
endfacet
facet normal 0.894427190999916 0.447213595499957 0.0
outer loop
vertex 20.0000000000001 59.9999970190178 -7.98503688814733e-007
vertex 40.0 19.9999970190178 12.9999992014963
vertex 40.0 19.9999970190178 -7.98503688814733e-007
endloop
endfacet
facet normal 0.894427190999916 0.447213595499957 0.0
outer loop
vertex 40.0 19.9999970190178 12.9999992014963
vertex 20.0000000000001 59.9999970190178 -7.98503688814733e-007
vertex 20.0000000000001 59.9999970190178 12.9999992014963
endloop
endfacet
facet normal 0.0 0.0 1.0
outer loop
vertex 27.8 7.79999701901779 14.1999992014963
vertex 12.2 12.1999970190178 14.1999992014963
vertex 12.2 7.7999970190178 14.1999992014963
endloop
endfacet
facet normal 0.0 0.0 1.0
outer loop
vertex 12.2 12.1999970190178 14.1999992014963
vertex 27.8 7.79999701901779 14.1999992014963
vertex 27.8 12.1999970190178 14.1999992014963
endloop
endfacet
facet normal 0.0 0.0 1.0
outer loop
vertex 40.0 7.79999701901779 14.1999992014963
vertex 32.2 12.1999970190178 14.1999992014963
vertex 32.2 7.79999701901779 14.1999992014963
endloop
endfacet
facet normal 0.0 0.0 1.0
outer loop
vertex 32.2 12.1999970190178 14.1999992014963
vertex 40.0 7.79999701901779 14.1999992014963
vertex 40.0 12.1999970190178 14.1999992014963
endloop
endfacet
facet normal 7.07767178198537e-016 1.0 0.0
outer loop
vertex 7.80000000000003 27.7999970190178 14.1999992014963
vertex 10.0 27.7999970190178 12.9999992014963
vertex 7.80000000000003 27.7999970190178 12.9999992014963
endloop
endfacet
facet normal 7.07767178198537e-016 1.0 0.0
outer loop
vertex 10.0 27.7999970190178 12.9999992014963
vertex 7.80000000000003 27.7999970190178 14.1999992014963
vertex 12.2 27.7999970190178 12.9999992014963
endloop
endfacet
facet normal 7.07767178198537e-016 1.0 0.0
outer loop
vertex 12.2 27.7999970190178 12.9999992014963
vertex 7.80000000000003 27.7999970190178 14.1999992014963
vertex 12.2 27.7999970190178 14.1999992014963
endloop
endfacet
facet normal 0.382683432365083 -0.92387953251129 0.0
outer loop
vertex 10.0000000000001 52.1999970190178 12.9999992014963
vertex 8.44436508138964 51.5556319376282 -7.98503688814733e-007
vertex 10.0000000000001 52.1999970190178 -7.98503688814733e-007
endloop
endfacet
facet normal 0.382683432365083 -0.92387953251129 0.0
outer loop
vertex 8.44436508138964 51.5556319376282 -7.98503688814733e-007
vertex 10.0000000000001 52.1999970190178 12.9999992014963
vertex 8.44436508138964 51.5556319376282 12.9999992014963
endloop
endfacet
facet normal 1.0 -7.07767178198537e-016 0.0
outer loop
vertex 40.0 19.9999970190178 -7.98503688814733e-007
vertex 40.0 -2.98098221478416e-006 12.9999992014963
vertex 40.0 -2.98098221478416e-006 -7.98503688814733e-007
endloop
endfacet
facet normal 1.0 -7.07767178198537e-016 0.0
outer loop
vertex 40.0 -2.98098221478416e-006 12.9999992014963
vertex 40.0 19.9999970190178 -7.98503688814733e-007
vertex 40.0 7.79999701901779 12.9999992014963
endloop
endfacet
facet normal 1.0 -7.07767178198537e-016 0.0
outer loop
vertex 40.0 7.79999701901779 12.9999992014963
vertex 40.0 19.9999970190178 -7.98503688814733e-007
vertex 40.0 7.79999701901779 14.1999992014963
endloop
endfacet
facet normal 1.0 -7.07767178198537e-016 0.0
outer loop
vertex 40.0 7.79999701901779 14.1999992014963
vertex 40.0 19.9999970190178 -7.98503688814733e-007
vertex 40.0 12.1999970190178 12.9999992014963
endloop
endfacet
facet normal 1.0 -7.07767178198537e-016 0.0
outer loop
vertex 40.0 12.1999970190178 12.9999992014963
vertex 40.0 19.9999970190178 -7.98503688814733e-007
vertex 40.0 19.9999970190178 12.9999992014963
endloop
endfacet
facet normal 1.0 -7.07767178198537e-016 0.0
outer loop
vertex 40.0 12.1999970190178 14.1999992014963
vertex 40.0 7.79999701901779 14.1999992014963
vertex 40.0 12.1999970190178 12.9999992014963
endloop
endfacet
facet normal -0.923879532511287 0.38268343236509 -1.33052465849181e-018
outer loop
vertex 12.2 29.9999970190178 12.9999992014963
vertex 11.5556349186104 28.4443621004074 -7.98503688814733e-007
vertex 11.5556349186104 28.4443621004074 12.9999992014963
endloop
endfacet
facet normal -0.923879532511287 0.38268343236509 -1.33052465849181e-018
outer loop
vertex 11.5556349186104 28.4443621004074 -7.98503688814733e-007
vertex 12.2 29.9999970190178 12.9999992014963
vertex 12.2 29.9999970190178 -7.98503688814733e-007
endloop
endfacet
facet normal 0.923879532511286 0.382683432365092 3.67344247332222e-032
outer loop
vertex 27.8 9.99999701901779 -7.98503688814733e-007
vertex 28.4443650813896 8.44436210040739 12.9999992014963
vertex 28.4443650813896 8.44436210040739 -7.98503688814733e-007
endloop
endfacet
facet normal 0.923879532511286 0.382683432365092 3.67344247332222e-032
outer loop
vertex 28.4443650813896 8.44436210040739 12.9999992014963
vertex 27.8 9.99999701901779 -7.98503688814733e-007
vertex 27.8 9.99999701901779 12.9999992014963
endloop
endfacet
facet normal -7.07767178198537e-016 -1.0 0.0
outer loop
vertex 40.0 -2.98098221478416e-006 12.9999992014963
vertex 0.0 -2.98098218647347e-006 -7.98503688814733e-007
vertex 40.0 -2.98098221478416e-006 -7.98503688814733e-007
endloop
endfacet
facet normal -7.07767178198537e-016 -1.0 0.0
outer loop
vertex 0.0 -2.98098218647347e-006 -7.98503688814733e-007
vertex 40.0 -2.98098221478416e-006 12.9999992014963
vertex 0.0 -2.98098218647347e-006 12.9999992014963
endloop
endfacet
facet normal -0.38268343236509 -0.923879532511287 0.0
outer loop
vertex 31.5556349186104 11.5556319376282 12.9999992014963
vertex 30.0 12.1999970190178 -7.98503688814733e-007
vertex 31.5556349186104 11.5556319376282 -7.98503688814733e-007
endloop
endfacet
facet normal -0.38268343236509 -0.923879532511287 0.0
outer loop
vertex 30.0 12.1999970190178 -7.98503688814733e-007
vertex 31.5556349186104 11.5556319376282 12.9999992014963
vertex 30.0 12.1999970190178 12.9999992014963
endloop
endfacet
facet normal -0.923879532511287 0.38268343236509 0.0
outer loop
vertex 12.2 9.9999970190178 12.9999992014963
vertex 11.5556349186104 8.4443621004074 -7.98503688814733e-007
vertex 11.5556349186104 8.4443621004074 12.9999992014963
endloop
endfacet
facet normal -0.923879532511287 0.38268343236509 0.0
outer loop
vertex 11.5556349186104 8.4443621004074 -7.98503688814733e-007
vertex 12.2 9.9999970190178 12.9999992014963
vertex 12.2 9.9999970190178 -7.98503688814733e-007
endloop
endfacet
facet normal 0.0 0.0 -1.0
outer loop
vertex 7.80000000000003 29.9999970190178 -7.98503688814733e-007
vertex 8.44436508138959 11.5556319376282 -7.98503688814733e-007
vertex 7.79999999999999 9.9999970190178 -7.98503688814733e-007
endloop
endfacet
facet normal 0.0 0.0 -1.0
outer loop
vertex 8.44436508138959 11.5556319376282 -7.98503688814733e-007
vertex 7.80000000000003 29.9999970190178 -7.98503688814733e-007
vertex 8.44436508138964 28.4443621004074 -7.98503688814733e-007
endloop
endfacet
facet normal 0.0 0.0 -1.0
outer loop
vertex 8.44436508138959 11.5556319376282 -7.98503688814733e-007
vertex 8.44436508138964 28.4443621004074 -7.98503688814733e-007
vertex 9.99999999999998 12.1999970190178 -7.98503688814733e-007
endloop
endfacet
facet normal 0.0 0.0 -1.0
outer loop
vertex 9.99999999999998 12.1999970190178 -7.98503688814733e-007
vertex 8.44436508138964 28.4443621004074 -7.98503688814733e-007
vertex 10.0 27.7999970190178 -7.98503688814733e-007
endloop
endfacet
facet normal 0.0 0.0 -1.0
outer loop
vertex 9.99999999999998 12.1999970190178 -7.98503688814733e-007
vertex 10.0 27.7999970190178 -7.98503688814733e-007
vertex 11.5556349186104 11.5556319376282 -7.98503688814733e-007
endloop
endfacet
facet normal 0.0 0.0 -1.0
outer loop
vertex 11.5556349186104 11.5556319376282 -7.98503688814733e-007
vertex 10.0 27.7999970190178 -7.98503688814733e-007
vertex 11.5556349186104 28.4443621004074 -7.98503688814733e-007
endloop
endfacet
facet normal 0.0 0.0 -1.0
outer loop
vertex 11.5556349186104 11.5556319376282 -7.98503688814733e-007
vertex 11.5556349186104 28.4443621004074 -7.98503688814733e-007
vertex 12.2 9.9999970190178 -7.98503688814733e-007
endloop
endfacet
facet normal 0.0 0.0 -1.0
outer loop
vertex 12.2 9.9999970190178 -7.98503688814733e-007
vertex 11.5556349186104 28.4443621004074 -7.98503688814733e-007
vertex 12.2 29.9999970190178 -7.98503688814733e-007
endloop
endfacet
facet normal 0.0 0.0 -1.0
outer loop
vertex 7.80000000000008 49.9999970190178 -7.98503688814733e-007
vertex 8.44436508138964 31.5556319376282 -7.98503688814733e-007
vertex 7.80000000000003 29.9999970190178 -7.98503688814733e-007
endloop
endfacet
facet normal 0.0 0.0 -1.0
outer loop
vertex 8.44436508138964 31.5556319376282 -7.98503688814733e-007
vertex 7.80000000000008 49.9999970190178 -7.98503688814733e-007
vertex 8.44436508138964 48.4443621004074 -7.98503688814733e-007
endloop
endfacet
facet normal 0.0 0.0 -1.0
outer loop
vertex 8.44436508138964 31.5556319376282 -7.98503688814733e-007
vertex 8.44436508138964 48.4443621004074 -7.98503688814733e-007
vertex 10.0000000000001 47.7999970190178 -7.98503688814733e-007
endloop
endfacet
facet normal 0.0 0.0 -1.0
outer loop
vertex 8.44436508138964 31.5556319376282 -7.98503688814733e-007
vertex 10.0000000000001 47.7999970190178 -7.98503688814733e-007
vertex 10.0000000000001 32.1999970190178 -7.98503688814733e-007
endloop
endfacet
facet normal 0.0 0.0 -1.0
outer loop
vertex 10.0000000000001 32.1999970190178 -7.98503688814733e-007
vertex 10.0000000000001 47.7999970190178 -7.98503688814733e-007
vertex 11.5556349186105 48.4443621004074 -7.98503688814733e-007
endloop
endfacet
facet normal 0.0 0.0 -1.0
outer loop
vertex 10.0000000000001 32.1999970190178 -7.98503688814733e-007
vertex 11.5556349186105 48.4443621004074 -7.98503688814733e-007
vertex 11.5556349186104 31.5556319376282 -7.98503688814733e-007
endloop
endfacet
facet normal 0.0 0.0 -1.0
outer loop
vertex 11.5556349186104 31.5556319376282 -7.98503688814733e-007
vertex 11.5556349186105 48.4443621004074 -7.98503688814733e-007
vertex 12.2 29.9999970190178 -7.98503688814733e-007
endloop
endfacet
facet normal 0.0 0.0 -1.0
outer loop
vertex 12.2 29.9999970190178 -7.98503688814733e-007
vertex 11.5556349186105 48.4443621004074 -7.98503688814733e-007
vertex 12.2000000000001 49.9999970190178 -7.98503688814733e-007
endloop
endfacet
facet normal 0.0 0.0 -1.0
outer loop
vertex 4.51194637207664e-014 59.9999970190178 -7.98503688814733e-007
vertex 7.80000000000008 49.9999970190178 -7.98503688814733e-007
vertex 7.79999999999999 9.9999970190178 -7.98503688814733e-007
endloop
endfacet
facet normal 0.0 0.0 -1.0
outer loop
vertex 7.80000000000008 49.9999970190178 -7.98503688814733e-007
vertex 4.51194637207664e-014 59.9999970190178 -7.98503688814733e-007
vertex 8.44436508138964 51.5556319376282 -7.98503688814733e-007
endloop
endfacet
facet normal 0.0 0.0 -1.0
outer loop
vertex 8.44436508138964 51.5556319376282 -7.98503688814733e-007
vertex 4.51194637207664e-014 59.9999970190178 -7.98503688814733e-007
vertex 20.0000000000001 59.9999970190178 -7.98503688814733e-007
endloop
endfacet
facet normal 0.0 0.0 -1.0
outer loop
vertex 7.79999999999999 9.9999970190178 -7.98503688814733e-007
vertex 7.80000000000008 49.9999970190178 -7.98503688814733e-007
vertex 7.80000000000003 29.9999970190178 -7.98503688814733e-007
endloop
endfacet
facet normal 0.0 0.0 -1.0
outer loop
vertex 8.44436508138964 51.5556319376282 -7.98503688814733e-007
vertex 20.0000000000001 59.9999970190178 -7.98503688814733e-007
vertex 10.0000000000001 52.1999970190178 -7.98503688814733e-007
endloop
endfacet
facet normal 0.0 0.0 -1.0
outer loop
vertex 10.0000000000001 52.1999970190178 -7.98503688814733e-007
vertex 20.0000000000001 59.9999970190178 -7.98503688814733e-007
vertex 11.5556349186105 51.5556319376282 -7.98503688814733e-007
endloop
endfacet
facet normal 0.0 0.0 -1.0
outer loop
vertex 11.5556349186105 51.5556319376282 -7.98503688814733e-007
vertex 20.0000000000001 59.9999970190178 -7.98503688814733e-007
vertex 12.2000000000001 49.9999970190178 -7.98503688814733e-007
endloop
endfacet
facet normal 0.0 0.0 -1.0
outer loop
vertex 20.0000000000001 59.9999970190178 -7.98503688814733e-007
vertex 28.4443650813896 11.5556319376282 -7.98503688814733e-007
vertex 27.8 9.99999701901779 -7.98503688814733e-007
endloop
endfacet
facet normal 0.0 0.0 -1.0
outer loop
vertex 28.4443650813896 11.5556319376282 -7.98503688814733e-007
vertex 20.0000000000001 59.9999970190178 -7.98503688814733e-007
vertex 40.0 19.9999970190178 -7.98503688814733e-007
endloop
endfacet
facet normal 0.0 0.0 -1.0
outer loop
vertex 28.4443650813896 11.5556319376282 -7.98503688814733e-007
vertex 40.0 19.9999970190178 -7.98503688814733e-007
vertex 30.0 12.1999970190178 -7.98503688814733e-007
endloop
endfacet
facet normal 0.0 0.0 -1.0
outer loop
vertex 30.0 12.1999970190178 -7.98503688814733e-007
vertex 40.0 19.9999970190178 -7.98503688814733e-007
vertex 31.5556349186104 11.5556319376282 -7.98503688814733e-007
endloop
endfacet
facet normal 0.0 0.0 -1.0
outer loop
vertex 31.5556349186104 11.5556319376282 -7.98503688814733e-007
vertex 40.0 19.9999970190178 -7.98503688814733e-007
vertex 32.2 9.99999701901779 -7.98503688814733e-007
endloop
endfacet
facet normal 0.0 0.0 -1.0
outer loop
vertex 0.0 -2.98098218647347e-006 -7.98503688814733e-007
vertex 9.99999999999998 7.7999970190178 -7.98503688814733e-007
vertex 40.0 -2.98098221478416e-006 -7.98503688814733e-007
endloop
endfacet
facet normal 0.0 0.0 -1.0
outer loop
vertex 9.99999999999998 7.7999970190178 -7.98503688814733e-007
vertex 0.0 -2.98098218647347e-006 -7.98503688814733e-007
vertex 8.44436508138959 8.4443621004074 -7.98503688814733e-007
endloop
endfacet
facet normal 0.0 0.0 -1.0
outer loop
vertex 8.44436508138959 8.4443621004074 -7.98503688814733e-007
vertex 0.0 -2.98098218647347e-006 -7.98503688814733e-007
vertex 7.79999999999999 9.9999970190178 -7.98503688814733e-007
endloop
endfacet
facet normal 0.0 0.0 -1.0
outer loop
vertex 7.79999999999999 9.9999970190178 -7.98503688814733e-007
vertex 0.0 -2.98098218647347e-006 -7.98503688814733e-007
vertex 4.51194637207664e-014 59.9999970190178 -7.98503688814733e-007
endloop
endfacet
facet normal 0.0 0.0 -1.0
outer loop
vertex 40.0 -2.98098221478416e-006 -7.98503688814733e-007
vertex 9.99999999999998 7.7999970190178 -7.98503688814733e-007
vertex 11.5556349186104 8.4443621004074 -7.98503688814733e-007
endloop
endfacet
facet normal 0.0 0.0 -1.0
outer loop
vertex 40.0 -2.98098221478416e-006 -7.98503688814733e-007
vertex 11.5556349186104 8.4443621004074 -7.98503688814733e-007
vertex 12.2 9.9999970190178 -7.98503688814733e-007
endloop
endfacet
facet normal 0.0 0.0 -1.0
outer loop
vertex 40.0 -2.98098221478416e-006 -7.98503688814733e-007
vertex 12.2 9.9999970190178 -7.98503688814733e-007
vertex 28.4443650813896 8.44436210040739 -7.98503688814733e-007
endloop
endfacet
facet normal 0.0 0.0 -1.0
outer loop
vertex 28.4443650813896 8.44436210040739 -7.98503688814733e-007
vertex 12.2 9.9999970190178 -7.98503688814733e-007
vertex 12.2 29.9999970190178 -7.98503688814733e-007
endloop
endfacet
facet normal 0.0 0.0 -1.0
outer loop
vertex 28.4443650813896 8.44436210040739 -7.98503688814733e-007
vertex 12.2 29.9999970190178 -7.98503688814733e-007
vertex 27.8 9.99999701901779 -7.98503688814733e-007
endloop
endfacet
facet normal 0.0 0.0 -1.0
outer loop
vertex 27.8 9.99999701901779 -7.98503688814733e-007
vertex 12.2 29.9999970190178 -7.98503688814733e-007
vertex 12.2000000000001 49.9999970190178 -7.98503688814733e-007
endloop
endfacet
facet normal 0.0 0.0 -1.0
outer loop
vertex 27.8 9.99999701901779 -7.98503688814733e-007
vertex 12.2000000000001 49.9999970190178 -7.98503688814733e-007
vertex 20.0000000000001 59.9999970190178 -7.98503688814733e-007
endloop
endfacet
facet normal 0.0 0.0 -1.0
outer loop
vertex 40.0 -2.98098221478416e-006 -7.98503688814733e-007
vertex 28.4443650813896 8.44436210040739 -7.98503688814733e-007
vertex 30.0 7.79999701901779 -7.98503688814733e-007
endloop
endfacet
facet normal 0.0 0.0 -1.0
outer loop
vertex 40.0 -2.98098221478416e-006 -7.98503688814733e-007
vertex 30.0 7.79999701901779 -7.98503688814733e-007
vertex 31.5556349186104 8.44436210040739 -7.98503688814733e-007
endloop
endfacet
facet normal 0.0 0.0 -1.0
outer loop
vertex 40.0 -2.98098221478416e-006 -7.98503688814733e-007
vertex 31.5556349186104 8.44436210040739 -7.98503688814733e-007
vertex 32.2 9.99999701901779 -7.98503688814733e-007
endloop
endfacet
facet normal 0.0 0.0 -1.0
outer loop
vertex 40.0 -2.98098221478416e-006 -7.98503688814733e-007
vertex 32.2 9.99999701901779 -7.98503688814733e-007
vertex 40.0 19.9999970190178 -7.98503688814733e-007
endloop
endfacet
facet normal 0.382683432365089 -0.923879532511287 0.0
outer loop
vertex 10.0000000000001 32.1999970190178 12.9999992014963
vertex 8.44436508138964 31.5556319376282 -7.98503688814733e-007
vertex 10.0000000000001 32.1999970190178 -7.98503688814733e-007
endloop
endfacet
facet normal 0.382683432365089 -0.923879532511287 0.0
outer loop
vertex 8.44436508138964 31.5556319376282 -7.98503688814733e-007
vertex 10.0000000000001 32.1999970190178 12.9999992014963
vertex 8.44436508138964 31.5556319376282 12.9999992014963
endloop
endfacet
facet normal 0.923879532511287 -0.38268343236509 0.0
outer loop
vertex 8.44436508138964 31.5556319376282 -7.98503688814733e-007
vertex 7.80000000000003 29.9999970190178 12.9999992014963
vertex 7.80000000000003 29.9999970190178 -7.98503688814733e-007
endloop
endfacet
facet normal 0.923879532511287 -0.38268343236509 0.0
outer loop
vertex 7.80000000000003 29.9999970190178 12.9999992014963
vertex 8.44436508138964 31.5556319376282 -7.98503688814733e-007
vertex 8.44436508138964 31.5556319376282 12.9999992014963
endloop
endfacet
facet normal 7.07767178198537e-016 1.0 0.0
outer loop
vertex 7.80000000000003 59.9999970190178 14.1999992014963
vertex 12.2000000000001 59.9999970190178 12.9999992014963
vertex 7.80000000000003 59.9999970190178 12.9999992014963
endloop
endfacet
facet normal 7.07767178198537e-016 1.0 0.0
outer loop
vertex 12.2000000000001 59.9999970190178 12.9999992014963
vertex 7.80000000000003 59.9999970190178 14.1999992014963
vertex 12.2000000000001 59.9999970190178 14.1999992014963
endloop
endfacet
facet normal 7.07767178198537e-016 1.0 0.0
outer loop
vertex 4.51194637207664e-014 59.9999970190178 12.9999992014963
vertex 20.0000000000001 59.9999970190178 -7.98503688814733e-007
vertex 4.51194637207664e-014 59.9999970190178 -7.98503688814733e-007
endloop
endfacet
facet normal 7.07767178198537e-016 1.0 0.0
outer loop
vertex 20.0000000000001 59.9999970190178 -7.98503688814733e-007
vertex 4.51194637207664e-014 59.9999970190178 12.9999992014963
vertex 20.0000000000001 59.9999970190178 12.9999992014963
endloop
endfacet
facet normal 7.07767178198537e-016 1.0 0.0
outer loop
vertex 20.0000000000001 59.9999970190178 12.9999992014963
vertex 4.51194637207664e-014 59.9999970190178 12.9999992014963
vertex 7.80000000000003 59.9999970190178 12.9999992014963
endloop
endfacet
facet normal 7.07767178198537e-016 1.0 0.0
outer loop
vertex 20.0000000000001 59.9999970190178 12.9999992014963
vertex 7.80000000000003 59.9999970190178 12.9999992014963
vertex 12.2000000000001 59.9999970190178 12.9999992014963
endloop
endfacet
facet normal -7.07767178198537e-016 -1.0 0.0
outer loop
vertex 27.8 7.79999701901779 12.9999992014963
vertex 12.2 7.7999970190178 14.1999992014963
vertex 12.2 7.7999970190178 12.9999992014963
endloop
endfacet
facet normal -7.07767178198537e-016 -1.0 0.0
outer loop
vertex 12.2 7.7999970190178 14.1999992014963
vertex 27.8 7.79999701901779 12.9999992014963
vertex 27.8 7.79999701901779 14.1999992014963
endloop
endfacet
facet normal -0.923879532511287 -0.382683432365089 0.0
outer loop
vertex 11.5556349186105 51.5556319376282 12.9999992014963
vertex 12.2000000000001 49.9999970190178 -7.98503688814733e-007
vertex 12.2000000000001 49.9999970190178 12.9999992014963
endloop
endfacet
facet normal -0.923879532511287 -0.382683432365089 0.0
outer loop
vertex 12.2000000000001 49.9999970190178 -7.98503688814733e-007
vertex 11.5556349186105 51.5556319376282 12.9999992014963
vertex 11.5556349186105 51.5556319376282 -7.98503688814733e-007
endloop
endfacet
facet normal 1.0 -7.07767178198537e-016 0.0
outer loop
vertex 12.2 27.7999970190178 12.9999992014963
vertex 12.2 20.9999970190178 14.1999992014963
vertex 12.2 20.9999970190178 12.9999992014963
endloop
endfacet
facet normal 1.0 -7.07767178198537e-016 0.0
outer loop
vertex 12.2 20.9999970190178 14.1999992014963
vertex 12.2 27.7999970190178 12.9999992014963
vertex 12.2 27.7999970190178 14.1999992014963
endloop
endfacet
facet normal -5.27000095983929e-016 -1.0 0.0
outer loop
vertex 7.79999999999999 7.79999701901781 14.1999992014963
vertex 0.0 7.79999701901781 12.9999992014963
vertex 7.79999999999999 7.79999701901781 12.9999992014963
endloop
endfacet
facet normal -5.27000095983929e-016 -1.0 0.0
outer loop
vertex 0.0 7.79999701901781 12.9999992014963
vertex 7.79999999999999 7.79999701901781 14.1999992014963
vertex 0.0 7.79999701901781 14.1999992014963
endloop
endfacet
facet normal 1.0 -7.07767178198537e-016 0.0
outer loop
vertex 27.8 9.99999701901779 12.9999992014963
vertex 27.8 7.79999701901779 14.1999992014963
vertex 27.8 7.79999701901779 12.9999992014963
endloop
endfacet
facet normal 1.0 -7.07767178198537e-016 0.0
outer loop
vertex 27.8 7.79999701901779 14.1999992014963
vertex 27.8 9.99999701901779 12.9999992014963
vertex 27.8 12.1999970190178 14.1999992014963
endloop
endfacet
facet normal 1.0 -7.07767178198537e-016 0.0
outer loop
vertex 27.8 12.1999970190178 14.1999992014963
vertex 27.8 9.99999701901779 12.9999992014963
vertex 27.8 12.1999970190178 12.9999992014963
endloop
endfacet
facet normal -0.382683432365091 0.923879532511287 0.0
outer loop
vertex 30.0 7.79999701901779 12.9999992014963
vertex 31.5556349186104 8.44436210040739 -7.98503688814733e-007
vertex 30.0 7.79999701901779 -7.98503688814733e-007
endloop
endfacet
facet normal -0.382683432365091 0.923879532511287 0.0
outer loop
vertex 31.5556349186104 8.44436210040739 -7.98503688814733e-007
vertex 30.0 7.79999701901779 12.9999992014963
vertex 31.5556349186104 8.44436210040739 12.9999992014963
endloop
endfacet
facet normal -0.382683432365092 0.923879532511286 -1.33052465849178e-018
outer loop
vertex 10.0 27.7999970190178 12.9999992014963
vertex 11.5556349186104 28.4443621004074 -7.98503688814733e-007
vertex 10.0 27.7999970190178 -7.98503688814733e-007
endloop
endfacet
facet normal -0.382683432365092 0.923879532511286 -1.33052465849178e-018
outer loop
vertex 11.5556349186104 28.4443621004074 -7.98503688814733e-007
vertex 10.0 27.7999970190178 12.9999992014963
vertex 11.5556349186104 28.4443621004074 12.9999992014963
endloop
endfacet
endsolid 90
