solid 90 R
facet normal 2.25597318603834e-015 -1.0 9.39988827515968e-016
outer loop
vertex 32.4999999999999 32.2 16.0
vertex 29.9999999999999 32.2 14.0
vertex 32.4999999999999 32.2 14.0
endloop
endfacet
facet normal 2.25597318603834e-015 -1.0 9.39988827515968e-016
outer loop
vertex 29.9999999999999 32.2 14.0
vertex 32.4999999999999 32.2 16.0
vertex 27.5 32.2 14.0
endloop
endfacet
facet normal 2.25597318603834e-015 -1.0 9.39988827515968e-016
outer loop
vertex 27.5 32.2 14.0
vertex 32.4999999999999 32.2 16.0
vertex 27.5 32.2 16.0
endloop
endfacet
facet normal 0.923879532511285 -0.382683432365095 0.0
outer loop
vertex 8.44436508138964 11.5556349186104 0.0
vertex 7.80000000000003 9.99999999999998 14.0
vertex 7.80000000000003 9.99999999999998 0.0
endloop
endfacet
facet normal 0.923879532511285 -0.382683432365095 0.0
outer loop
vertex 7.80000000000003 9.99999999999998 14.0
vertex 8.44436508138964 11.5556349186104 0.0
vertex 8.44436508138964 11.5556349186104 14.0
endloop
endfacet
facet normal -6.3268478775113e-016 1.0 -6.13301526569861e-032
outer loop
vertex 12.2 12.5 14.0
vertex 27.8 12.5 16.0
vertex 27.8 12.5 14.0
endloop
endfacet
facet normal -6.3268478775113e-016 1.0 -6.13301526569861e-032
outer loop
vertex 27.8 12.5 16.0
vertex 12.2 12.5 14.0
vertex 12.2 12.5 16.0
endloop
endfacet
facet normal -0.382683432365092 0.923879532511286 0.0
outer loop
vertex 30.0 7.79999999999999 14.0
vertex 31.5556349186104 8.44436508138959 0.0
vertex 30.0 7.79999999999999 0.0
endloop
endfacet
facet normal -0.382683432365092 0.923879532511286 0.0
outer loop
vertex 31.5556349186104 8.44436508138959 0.0
vertex 30.0 7.79999999999999 14.0
vertex 31.5556349186104 8.44436508138959 14.0
endloop
endfacet
facet normal -1.0 0.0 0.0
outer loop
vertex 32.2 12.5 16.0
vertex 32.2 7.49999999999999 14.0
vertex 32.2 7.49999999999999 16.0
endloop
endfacet
facet normal -1.0 0.0 0.0
outer loop
vertex 32.2 7.49999999999999 14.0
vertex 32.2 12.5 16.0
vertex 32.2 9.99999999999999 14.0
endloop
endfacet
facet normal -1.0 0.0 0.0
outer loop
vertex 32.2 9.99999999999999 14.0
vertex 32.2 12.5 16.0
vertex 32.2 12.5 14.0
endloop
endfacet
facet normal -0.382683432365095 0.923879532511285 0.0
outer loop
vertex 30.0 27.8 14.0
vertex 31.5556349186104 28.4443650813896 0.0
vertex 30.0 27.8 0.0
endloop
endfacet
facet normal -0.382683432365095 0.923879532511285 0.0
outer loop
vertex 31.5556349186104 28.4443650813896 0.0
vertex 30.0 27.8 14.0
vertex 31.5556349186104 28.4443650813896 14.0
endloop
endfacet
facet normal -0.923879532511285 -0.382683432365095 0.0
outer loop
vertex 31.5556349186104 11.5556349186104 14.0
vertex 32.2 9.99999999999999 0.0
vertex 32.2 9.99999999999999 14.0
endloop
endfacet
facet normal -0.923879532511285 -0.382683432365095 0.0
outer loop
vertex 32.2 9.99999999999999 0.0
vertex 31.5556349186104 11.5556349186104 14.0
vertex 31.5556349186104 11.5556349186104 0.0
endloop
endfacet
facet normal -0.382683432365094 -0.923879532511285 4.13735948253485e-019
outer loop
vertex 31.5556349186104 11.5556349186104 14.0
vertex 30.0 12.2 0.0
vertex 31.5556349186104 11.5556349186104 0.0
endloop
endfacet
facet normal -0.382683432365094 -0.923879532511285 4.13735948253485e-019
outer loop
vertex 30.0 12.2 0.0
vertex 31.5556349186104 11.5556349186104 14.0
vertex 30.0 12.2 14.0
endloop
endfacet
facet normal -1.0 0.0 0.0
outer loop
vertex 27.5 60.0 16.0
vertex 27.5 52.2 14.0
vertex 27.5 52.2 16.0
endloop
endfacet
facet normal -1.0 0.0 0.0
outer loop
vertex 27.5 52.2 14.0
vertex 27.5 60.0 16.0
vertex 27.5 60.0 14.0
endloop
endfacet
facet normal 0.923879532511284 0.382683432365096 0.0
outer loop
vertex 27.7999999999999 50.0 0.0
vertex 28.4443650813896 48.4443650813896 14.0
vertex 28.4443650813896 48.4443650813896 0.0
endloop
endfacet
facet normal 0.923879532511284 0.382683432365096 0.0
outer loop
vertex 28.4443650813896 48.4443650813896 14.0
vertex 27.7999999999999 50.0 0.0
vertex 27.7999999999999 50.0 14.0
endloop
endfacet
facet normal -0.923879532511295 -0.38268343236507 0.0
outer loop
vertex 31.5556349186104 51.5556349186104 14.0
vertex 32.1999999999999 50.0 0.0
vertex 32.1999999999999 50.0 14.0
endloop
endfacet
facet normal -0.923879532511295 -0.38268343236507 0.0
outer loop
vertex 32.1999999999999 50.0 0.0
vertex 31.5556349186104 51.5556349186104 14.0
vertex 31.5556349186104 51.5556349186104 0.0
endloop
endfacet
facet normal 0.923879532511285 -0.382683432365095 0.0
outer loop
vertex 28.4443650813896 11.5556349186104 0.0
vertex 27.8 9.99999999999999 14.0
vertex 27.8 9.99999999999999 0.0
endloop
endfacet
facet normal 0.923879532511285 -0.382683432365095 0.0
outer loop
vertex 27.8 9.99999999999999 14.0
vertex 28.4443650813896 11.5556349186104 0.0
vertex 28.4443650813896 11.5556349186104 14.0
endloop
endfacet
facet normal -1.19290103302978e-017 2.06395078181601e-017 1.0
outer loop
vertex 12.2 9.99999999999998 14.0
vertex 12.2 12.5 14.0
vertex 11.5556349186104 11.5556349186104 14.0
endloop
endfacet
facet normal -1.19290103302978e-017 2.06395078181601e-017 1.0
outer loop
vertex 28.4443650813896 11.5556349186104 14.0
vertex 27.8 12.5 14.0
vertex 27.8 9.99999999999999 14.0
endloop
endfacet
facet normal -1.19290103302978e-017 2.06395078181601e-017 1.0
outer loop
vertex 27.5 47.8 14.0
vertex 27.7999999999999 50.0 14.0
vertex 27.5 52.2 14.0
endloop
endfacet
facet normal -1.19290103302978e-017 2.06395078181601e-017 1.0
outer loop
vertex 27.7999999999999 50.0 14.0
vertex 27.5 47.8 14.0
vertex 28.4443650813896 48.4443650813896 14.0
endloop
endfacet
facet normal -1.19290103302978e-017 2.06395078181601e-017 1.0
outer loop
vertex 28.4443650813896 48.4443650813896 14.0
vertex 27.5 47.8 14.0
vertex 29.9999999999999 47.8 14.0
endloop
endfacet
facet normal -1.19290103302978e-017 2.06395078181601e-017 1.0
outer loop
vertex 27.5 52.2 14.0
vertex 28.4443650813896 51.5556349186104 14.0
vertex 29.9999999999999 52.2 14.0
endloop
endfacet
facet normal -1.19290103302978e-017 2.06395078181601e-017 1.0
outer loop
vertex 28.4443650813896 51.5556349186104 14.0
vertex 27.5 52.2 14.0
vertex 27.7999999999999 50.0 14.0
endloop
endfacet
facet normal -1.19290103302978e-017 2.06395078181601e-017 1.0
outer loop
vertex 27.5 27.8 14.0
vertex 28.4443650813896 28.4443650813896 14.0
vertex 27.8 30.0 14.0
endloop
endfacet
facet normal -1.19290103302978e-017 2.06395078181601e-017 1.0
outer loop
vertex 28.4443650813896 28.4443650813896 14.0
vertex 27.5 27.8 14.0
vertex 30.0 27.8 14.0
endloop
endfacet
facet normal -1.19290103302978e-017 2.06395078181601e-017 1.0
outer loop
vertex 32.5 27.8 14.0
vertex 31.5556349186104 28.4443650813896 14.0
vertex 30.0 27.8 14.0
endloop
endfacet
facet normal -1.19290103302978e-017 2.06395078181601e-017 1.0
outer loop
vertex 31.5556349186104 28.4443650813896 14.0
vertex 32.5 27.8 14.0
vertex 32.2 30.0 14.0
endloop
endfacet
facet normal -1.19290103302978e-017 2.06395078181601e-017 1.0
outer loop
vertex 32.2 30.0 14.0
vertex 32.5 27.8 14.0
vertex 32.4999999999999 32.2 14.0
endloop
endfacet
facet normal -1.19290103302978e-017 2.06395078181601e-017 1.0
outer loop
vertex 32.4999999999999 32.2 14.0
vertex 32.5 27.8 14.0
vertex 32.4999999999999 47.8 14.0
endloop
endfacet
facet normal -1.19290103302978e-017 2.06395078181601e-017 1.0
outer loop
vertex 3.94795307556706e-014 12.5 14.0
vertex 20.0 60.0 14.0
vertex 0.0 20.0 14.0
endloop
endfacet
facet normal -1.19290103302978e-017 2.06395078181601e-017 1.0
outer loop
vertex 20.0 60.0 14.0
vertex 3.94795307556706e-014 12.5 14.0
vertex 7.80000000000003 12.5 14.0
endloop
endfacet
facet normal -1.19290103302978e-017 2.06395078181601e-017 1.0
outer loop
vertex 20.0 60.0 14.0
vertex 7.80000000000003 12.5 14.0
vertex 7.80000000000003 9.99999999999998 14.0
endloop
endfacet
facet normal -1.19290103302978e-017 2.06395078181601e-017 1.0
outer loop
vertex 20.0 60.0 14.0
vertex 7.80000000000003 9.99999999999998 14.0
vertex 8.44436508138964 11.5556349186104 14.0
endloop
endfacet
facet normal -1.19290103302978e-017 2.06395078181601e-017 1.0
outer loop
vertex 20.0 60.0 14.0
vertex 8.44436508138964 11.5556349186104 14.0
vertex 10.0 12.2 14.0
endloop
endfacet
facet normal -1.19290103302978e-017 2.06395078181601e-017 1.0
outer loop
vertex 20.0 60.0 14.0
vertex 10.0 12.2 14.0
vertex 11.5556349186104 11.5556349186104 14.0
endloop
endfacet
facet normal -1.19290103302978e-017 2.06395078181601e-017 1.0
outer loop
vertex 20.0 60.0 14.0
vertex 11.5556349186104 11.5556349186104 14.0
vertex 12.2 12.5 14.0
endloop
endfacet
facet normal -1.19290103302978e-017 2.06395078181601e-017 1.0
outer loop
vertex 20.0 60.0 14.0
vertex 12.2 12.5 14.0
vertex 27.8 12.5 14.0
endloop
endfacet
facet normal -1.19290103302978e-017 2.06395078181601e-017 1.0
outer loop
vertex 20.0 60.0 14.0
vertex 27.8 12.5 14.0
vertex 27.5 21.0 14.0
endloop
endfacet
facet normal -1.19290103302978e-017 2.06395078181601e-017 1.0
outer loop
vertex 20.0 60.0 14.0
vertex 27.5 21.0 14.0
vertex 27.5 32.2 14.0
endloop
endfacet
facet normal -1.19290103302978e-017 2.06395078181601e-017 1.0
outer loop
vertex 27.5 21.0 14.0
vertex 27.8 12.5 14.0
vertex 32.5 21.0 14.0
endloop
endfacet
facet normal -1.19290103302978e-017 2.06395078181601e-017 1.0
outer loop
vertex 32.5 21.0 14.0
vertex 27.8 12.5 14.0
vertex 28.4443650813896 11.5556349186104 14.0
endloop
endfacet
facet normal -1.19290103302978e-017 2.06395078181601e-017 1.0
outer loop
vertex 32.5 21.0 14.0
vertex 28.4443650813896 11.5556349186104 14.0
vertex 30.0 12.2 14.0
endloop
endfacet
facet normal -1.19290103302978e-017 2.06395078181601e-017 1.0
outer loop
vertex 32.5 21.0 14.0
vertex 30.0 12.2 14.0
vertex 31.5556349186104 11.5556349186104 14.0
endloop
endfacet
facet normal -1.19290103302978e-017 2.06395078181601e-017 1.0
outer loop
vertex 32.5 21.0 14.0
vertex 31.5556349186104 11.5556349186104 14.0
vertex 32.2 12.5 14.0
endloop
endfacet
facet normal -1.19290103302978e-017 2.06395078181601e-017 1.0
outer loop
vertex 32.2 12.5 14.0
vertex 31.5556349186104 11.5556349186104 14.0
vertex 32.2 9.99999999999999 14.0
endloop
endfacet
facet normal -1.19290103302978e-017 2.06395078181601e-017 1.0
outer loop
vertex 32.5 21.0 14.0
vertex 32.2 12.5 14.0
vertex 40.0 12.5 14.0
endloop
endfacet
facet normal -1.19290103302978e-017 2.06395078181601e-017 1.0
outer loop
vertex 32.5 21.0 14.0
vertex 40.0 12.5 14.0
vertex 32.5 27.8 14.0
endloop
endfacet
facet normal -1.19290103302978e-017 2.06395078181601e-017 1.0
outer loop
vertex 32.5 27.8 14.0
vertex 40.0 12.5 14.0
vertex 40.0 60.0 14.0
endloop
endfacet
facet normal -1.19290103302978e-017 2.06395078181601e-017 1.0
outer loop
vertex 32.4999999999999 47.8 14.0
vertex 31.5556349186104 48.4443650813896 14.0
vertex 29.9999999999999 47.8 14.0
endloop
endfacet
facet normal -1.19290103302978e-017 2.06395078181601e-017 1.0
outer loop
vertex 31.5556349186104 48.4443650813896 14.0
vertex 32.4999999999999 47.8 14.0
vertex 32.1999999999999 50.0 14.0
endloop
endfacet
facet normal -1.19290103302978e-017 2.06395078181601e-017 1.0
outer loop
vertex 32.1999999999999 50.0 14.0
vertex 32.4999999999999 47.8 14.0
vertex 32.4999999999999 52.2 14.0
endloop
endfacet
facet normal -1.19290103302978e-017 2.06395078181601e-017 1.0
outer loop
vertex 32.4999999999999 52.2 14.0
vertex 32.4999999999999 47.8 14.0
vertex 32.4999999999999 60.0 14.0
endloop
endfacet
facet normal -1.19290103302978e-017 2.06395078181601e-017 1.0
outer loop
vertex 32.4999999999999 60.0 14.0
vertex 32.4999999999999 47.8 14.0
vertex 40.0 60.0 14.0
endloop
endfacet
facet normal -1.19290103302978e-017 2.06395078181601e-017 1.0
outer loop
vertex 40.0 60.0 14.0
vertex 32.4999999999999 47.8 14.0
vertex 32.5 27.8 14.0
endloop
endfacet
facet normal -1.19290103302978e-017 2.06395078181601e-017 1.0
outer loop
vertex 31.5556349186104 31.5556349186104 14.0
vertex 32.4999999999999 32.2 14.0
vertex 29.9999999999999 32.2 14.0
endloop
endfacet
facet normal -1.19290103302978e-017 2.06395078181601e-017 1.0
outer loop
vertex 32.4999999999999 32.2 14.0
vertex 31.5556349186104 31.5556349186104 14.0
vertex 32.2 30.0 14.0
endloop
endfacet
facet normal -1.19290103302978e-017 2.06395078181601e-017 1.0
outer loop
vertex 31.5556349186104 51.5556349186104 14.0
vertex 32.4999999999999 52.2 14.0
vertex 29.9999999999999 52.2 14.0
endloop
endfacet
facet normal -1.19290103302978e-017 2.06395078181601e-017 1.0
outer loop
vertex 32.4999999999999 52.2 14.0
vertex 31.5556349186104 51.5556349186104 14.0
vertex 32.1999999999999 50.0 14.0
endloop
endfacet
facet normal -1.19290103302978e-017 2.06395078181601e-017 1.0
outer loop
vertex 27.5 32.2 14.0
vertex 28.4443650813896 31.5556349186104 14.0
vertex 29.9999999999999 32.2 14.0
endloop
endfacet
facet normal -1.19290103302978e-017 2.06395078181601e-017 1.0
outer loop
vertex 28.4443650813896 31.5556349186104 14.0
vertex 27.5 32.2 14.0
vertex 27.8 30.0 14.0
endloop
endfacet
facet normal -1.19290103302978e-017 2.06395078181601e-017 1.0
outer loop
vertex 27.8 30.0 14.0
vertex 27.5 32.2 14.0
vertex 27.5 27.8 14.0
endloop
endfacet
facet normal -1.19290103302978e-017 2.06395078181601e-017 1.0
outer loop
vertex 27.5 27.8 14.0
vertex 27.5 32.2 14.0
vertex 27.5 21.0 14.0
endloop
endfacet
facet normal -1.19290103302978e-017 2.06395078181601e-017 1.0
outer loop
vertex 27.5 32.2 14.0
vertex 27.5 60.0 14.0
vertex 20.0 60.0 14.0
endloop
endfacet
facet normal -1.19290103302978e-017 2.06395078181601e-017 1.0
outer loop
vertex 27.5 60.0 14.0
vertex 27.5 32.2 14.0
vertex 27.5 47.8 14.0
endloop
endfacet
facet normal -1.19290103302978e-017 2.06395078181601e-017 1.0
outer loop
vertex 27.5 60.0 14.0
vertex 27.5 47.8 14.0
vertex 27.5 52.2 14.0
endloop
endfacet
facet normal 1.0956801120778e-017 -1.21458218448288e-016 1.0
outer loop
vertex 40.0 0.0 14.0
vertex 0.0 7.49999999999997 14.0
vertex 0.0 -2.83106870750019e-014 14.0
endloop
endfacet
facet normal 1.0956801120778e-017 -1.21458218448288e-016 1.0
outer loop
vertex 0.0 7.49999999999997 14.0
vertex 40.0 0.0 14.0
vertex 7.80000000000003 7.49999999999998 14.0
endloop
endfacet
facet normal 1.0956801120778e-017 -1.21458218448288e-016 1.0
outer loop
vertex 7.80000000000003 7.49999999999998 14.0
vertex 40.0 0.0 14.0
vertex 10.0 7.79999999999998 14.0
endloop
endfacet
facet normal 1.0956801120778e-017 -1.21458218448288e-016 1.0
outer loop
vertex 7.80000000000003 7.49999999999998 14.0
vertex 10.0 7.79999999999998 14.0
vertex 8.44436508138964 8.44436508138957 14.0
endloop
endfacet
facet normal 1.0956801120778e-017 -1.21458218448288e-016 1.0
outer loop
vertex 7.80000000000003 7.49999999999998 14.0
vertex 8.44436508138964 8.44436508138957 14.0
vertex 7.80000000000003 9.99999999999998 14.0
endloop
endfacet
facet normal 1.0956801120778e-017 -1.21458218448288e-016 1.0
outer loop
vertex 10.0 7.79999999999998 14.0
vertex 40.0 0.0 14.0
vertex 12.2 7.49999999999998 14.0
endloop
endfacet
facet normal 1.0956801120778e-017 -1.21458218448288e-016 1.0
outer loop
vertex 10.0 7.79999999999998 14.0
vertex 12.2 7.49999999999998 14.0
vertex 11.5556349186104 8.44436508138957 14.0
endloop
endfacet
facet normal 1.0956801120778e-017 -1.21458218448288e-016 1.0
outer loop
vertex 12.2 7.49999999999998 14.0
vertex 40.0 0.0 14.0
vertex 27.8 7.49999999999999 14.0
endloop
endfacet
facet normal 1.0956801120778e-017 -1.21458218448288e-016 1.0
outer loop
vertex 27.8 7.49999999999999 14.0
vertex 40.0 0.0 14.0
vertex 28.4443650813896 8.44436508138959 14.0
endloop
endfacet
facet normal 1.0956801120778e-017 -1.21458218448288e-016 1.0
outer loop
vertex 27.8 7.49999999999999 14.0
vertex 28.4443650813896 8.44436508138959 14.0
vertex 27.8 9.99999999999999 14.0
endloop
endfacet
facet normal 1.0956801120778e-017 -1.21458218448288e-016 1.0
outer loop
vertex 28.4443650813896 8.44436508138959 14.0
vertex 40.0 0.0 14.0
vertex 30.0 7.79999999999999 14.0
endloop
endfacet
facet normal 1.0956801120778e-017 -1.21458218448288e-016 1.0
outer loop
vertex 30.0 7.79999999999999 14.0
vertex 40.0 0.0 14.0
vertex 32.2 7.49999999999999 14.0
endloop
endfacet
facet normal 1.0956801120778e-017 -1.21458218448288e-016 1.0
outer loop
vertex 30.0 7.79999999999999 14.0
vertex 32.2 7.49999999999999 14.0
vertex 31.5556349186104 8.44436508138959 14.0
endloop
endfacet
facet normal 1.0956801120778e-017 -1.21458218448288e-016 1.0
outer loop
vertex 32.2 7.49999999999999 14.0
vertex 40.0 0.0 14.0
vertex 40.0 7.5 14.0
endloop
endfacet
facet normal 1.0956801120778e-017 -1.21458218448288e-016 1.0
outer loop
vertex 32.2 9.99999999999999 14.0
vertex 31.5556349186104 8.44436508138959 14.0
vertex 32.2 7.49999999999999 14.0
endloop
endfacet
facet normal 1.0956801120778e-017 -1.21458218448288e-016 1.0
outer loop
vertex 12.2 9.99999999999998 14.0
vertex 11.5556349186104 8.44436508138957 14.0
vertex 12.2 7.49999999999998 14.0
endloop
endfacet
facet normal -0.923879532511294 0.382683432365071 4.13735948253158e-019
outer loop
vertex 32.1999999999999 50.0 14.0
vertex 31.5556349186104 48.4443650813896 0.0
vertex 31.5556349186104 48.4443650813896 14.0
endloop
endfacet
facet normal -0.923879532511294 0.382683432365071 4.13735948253158e-019
outer loop
vertex 31.5556349186104 48.4443650813896 0.0
vertex 32.1999999999999 50.0 14.0
vertex 32.1999999999999 50.0 0.0
endloop
endfacet
facet normal 1.0 7.92305030324676e-016 -3.26171521539389e-016
outer loop
vertex 40.0 60.0 0.0
vertex 40.0 0.0 14.0
vertex 40.0 0.0 0.0
endloop
endfacet
facet normal 1.0 7.92305030324676e-016 -3.26171521539389e-016
outer loop
vertex 40.0 0.0 14.0
vertex 40.0 60.0 0.0
vertex 40.0 7.5 14.0
endloop
endfacet
facet normal 1.0 7.92305030324676e-016 -3.26171521539389e-016
outer loop
vertex 40.0 7.5 14.0
vertex 40.0 60.0 0.0
vertex 40.0 12.5 14.0
endloop
endfacet
facet normal 1.0 7.92305030324676e-016 -3.26171521539389e-016
outer loop
vertex 40.0 7.5 14.0
vertex 40.0 12.5 14.0
vertex 40.0 7.5 16.0
endloop
endfacet
facet normal 1.0 7.92305030324676e-016 -3.26171521539389e-016
outer loop
vertex 40.0 12.5 14.0
vertex 40.0 60.0 0.0
vertex 40.0 60.0 14.0
endloop
endfacet
facet normal 1.0 7.92305030324676e-016 -3.26171521539389e-016
outer loop
vertex 40.0 12.5 16.0
vertex 40.0 7.5 16.0
vertex 40.0 12.5 14.0
endloop
endfacet
facet normal 5.63993296509581e-016 -1.0 0.0
outer loop
vertex 32.5 21.0 16.0
vertex 27.5 21.0 14.0
vertex 32.5 21.0 14.0
endloop
endfacet
facet normal 5.63993296509581e-016 -1.0 0.0
outer loop
vertex 27.5 21.0 14.0
vertex 32.5 21.0 16.0
vertex 27.5 21.0 16.0
endloop
endfacet
facet normal 1.0 0.0 0.0
outer loop
vertex 32.5 27.8 14.0
vertex 32.5 21.0 16.0
vertex 32.5 21.0 14.0
endloop
endfacet
facet normal 1.0 0.0 0.0
outer loop
vertex 32.5 21.0 16.0
vertex 32.5 27.8 14.0
vertex 32.5 27.8 16.0
endloop
endfacet
facet normal 1.0 8.4598994476437e-016 1.17498603439496e-016
outer loop
vertex 27.8 9.99999999999999 14.0
vertex 27.8 7.49999999999999 16.0
vertex 27.8 7.49999999999999 14.0
endloop
endfacet
facet normal 1.0 8.4598994476437e-016 1.17498603439496e-016
outer loop
vertex 27.8 7.49999999999999 16.0
vertex 27.8 9.99999999999999 14.0
vertex 27.8 12.5 16.0
endloop
endfacet
facet normal 1.0 8.4598994476437e-016 1.17498603439496e-016
outer loop
vertex 27.8 12.5 16.0
vertex 27.8 9.99999999999999 14.0
vertex 27.8 12.5 14.0
endloop
endfacet
facet normal 0.382683432365095 0.923879532511285 0.0
outer loop
vertex 28.4443650813896 48.4443650813896 14.0
vertex 29.9999999999999 47.8 0.0
vertex 28.4443650813896 48.4443650813896 0.0
endloop
endfacet
facet normal 0.382683432365095 0.923879532511285 0.0
outer loop
vertex 29.9999999999999 47.8 0.0
vertex 28.4443650813896 48.4443650813896 14.0
vertex 29.9999999999999 47.8 14.0
endloop
endfacet
facet normal 0.0 0.0 1.0
outer loop
vertex 32.4999999999999 32.2 16.0
vertex 27.5 47.8 16.0
vertex 27.5 32.2 16.0
endloop
endfacet
facet normal 0.0 0.0 1.0
outer loop
vertex 27.5 47.8 16.0
vertex 32.4999999999999 32.2 16.0
vertex 32.4999999999999 47.8 16.0
endloop
endfacet
facet normal 0.382683432365093 -0.923879532511286 0.0
outer loop
vertex 30.0 12.2 14.0
vertex 28.4443650813896 11.5556349186104 0.0
vertex 30.0 12.2 0.0
endloop
endfacet
facet normal 0.382683432365093 -0.923879532511286 0.0
outer loop
vertex 28.4443650813896 11.5556349186104 0.0
vertex 30.0 12.2 14.0
vertex 28.4443650813896 11.5556349186104 14.0
endloop
endfacet
facet normal 0.923879532511285 0.382683432365095 0.0
outer loop
vertex 7.80000000000003 9.99999999999998 0.0
vertex 8.44436508138964 8.44436508138957 14.0
vertex 8.44436508138964 8.44436508138957 0.0
endloop
endfacet
facet normal 0.923879532511285 0.382683432365095 0.0
outer loop
vertex 8.44436508138964 8.44436508138957 14.0
vertex 7.80000000000003 9.99999999999998 0.0
vertex 7.80000000000003 9.99999999999998 14.0
endloop
endfacet
facet normal 0.382683432365087 -0.923879532511288 0.0
outer loop
vertex 29.9999999999999 52.2 14.0
vertex 28.4443650813896 51.5556349186104 0.0
vertex 29.9999999999999 52.2 0.0
endloop
endfacet
facet normal 0.382683432365087 -0.923879532511288 0.0
outer loop
vertex 28.4443650813896 51.5556349186104 0.0
vertex 29.9999999999999 52.2 14.0
vertex 28.4443650813896 51.5556349186104 14.0
endloop
endfacet
facet normal 0.382683432365102 -0.923879532511282 -9.05118815300386e-019
outer loop
vertex 29.9999999999999 32.2 14.0
vertex 28.4443650813896 31.5556349186104 0.0
vertex 29.9999999999999 32.2 0.0
endloop
endfacet
facet normal 0.382683432365102 -0.923879532511282 -9.05118815300386e-019
outer loop
vertex 28.4443650813896 31.5556349186104 0.0
vertex 29.9999999999999 32.2 14.0
vertex 28.4443650813896 31.5556349186104 14.0
endloop
endfacet
facet normal -7.23068328858437e-016 1.0 -3.50458015182844e-032
outer loop
vertex 32.2 12.5 14.0
vertex 40.0 12.5 16.0
vertex 40.0 12.5 14.0
endloop
endfacet
facet normal -7.23068328858437e-016 1.0 -3.50458015182844e-032
outer loop
vertex 40.0 12.5 16.0
vertex 32.2 12.5 14.0
vertex 32.2 12.5 16.0
endloop
endfacet
facet normal 0.0 0.0 1.0
outer loop
vertex 32.5 21.0 16.0
vertex 27.5 27.8 16.0
vertex 27.5 21.0 16.0
endloop
endfacet
facet normal 0.0 0.0 1.0
outer loop
vertex 27.5 27.8 16.0
vertex 32.5 21.0 16.0
vertex 32.5 27.8 16.0
endloop
endfacet
facet normal -0.382683432365094 -0.923879532511285 4.13735948253466e-019
outer loop
vertex 11.5556349186104 11.5556349186104 14.0
vertex 10.0 12.2 0.0
vertex 11.5556349186104 11.5556349186104 0.0
endloop
endfacet
facet normal -0.382683432365094 -0.923879532511285 4.13735948253466e-019
outer loop
vertex 10.0 12.2 0.0
vertex 11.5556349186104 11.5556349186104 14.0
vertex 10.0 12.2 14.0
endloop
endfacet
facet normal -0.923879532511285 -0.382683432365095 0.0
outer loop
vertex 11.5556349186104 11.5556349186104 14.0
vertex 12.2 9.99999999999998 0.0
vertex 12.2 9.99999999999998 14.0
endloop
endfacet
facet normal -0.923879532511285 -0.382683432365095 0.0
outer loop
vertex 12.2 9.99999999999998 0.0
vertex 11.5556349186104 11.5556349186104 14.0
vertex 11.5556349186104 11.5556349186104 0.0
endloop
endfacet
facet normal -1.0 0.0 0.0
outer loop
vertex 27.5 47.8 16.0
vertex 27.5 32.2 14.0
vertex 27.5 32.2 16.0
endloop
endfacet
facet normal -1.0 0.0 0.0
outer loop
vertex 27.5 32.2 14.0
vertex 27.5 47.8 16.0
vertex 27.5 47.8 14.0
endloop
endfacet
facet normal -0.923879532511285 0.382683432365094 0.0
outer loop
vertex 32.2 30.0 14.0
vertex 31.5556349186104 28.4443650813896 0.0
vertex 31.5556349186104 28.4443650813896 14.0
endloop
endfacet
facet normal -0.923879532511285 0.382683432365094 0.0
outer loop
vertex 31.5556349186104 28.4443650813896 0.0
vertex 32.2 30.0 14.0
vertex 32.2 30.0 0.0
endloop
endfacet
facet normal 1.0 -5.78454663086748e-015 0.0
outer loop
vertex 32.4999999999999 60.0 14.0
vertex 32.4999999999999 52.2 16.0
vertex 32.4999999999999 52.2 14.0
endloop
endfacet
facet normal 1.0 -5.78454663086748e-015 0.0
outer loop
vertex 32.4999999999999 52.2 16.0
vertex 32.4999999999999 60.0 14.0
vertex 32.4999999999999 60.0 16.0
endloop
endfacet
facet normal -0.923879532511285 0.382683432365095 9.05118815300486e-019
outer loop
vertex 32.2 9.99999999999999 14.0
vertex 31.5556349186104 8.44436508138959 0.0
vertex 31.5556349186104 8.44436508138959 14.0
endloop
endfacet
facet normal -0.923879532511285 0.382683432365095 9.05118815300486e-019
outer loop
vertex 31.5556349186104 8.44436508138959 0.0
vertex 32.2 9.99999999999999 14.0
vertex 32.2 9.99999999999999 0.0
endloop
endfacet
facet normal 0.0 0.0 1.0
outer loop
vertex 32.4999999999999 52.2 16.0
vertex 27.5 60.0 16.0
vertex 27.5 52.2 16.0
endloop
endfacet
facet normal 0.0 0.0 1.0
outer loop
vertex 27.5 60.0 16.0
vertex 32.4999999999999 52.2 16.0
vertex 32.4999999999999 60.0 16.0
endloop
endfacet
facet normal -7.23068328858437e-016 1.0 0.0
outer loop
vertex 3.94795307556706e-014 12.5 16.0
vertex 7.80000000000003 12.5 14.0
vertex 3.94795307556706e-014 12.5 14.0
endloop
endfacet
facet normal -7.23068328858437e-016 1.0 0.0
outer loop
vertex 7.80000000000003 12.5 14.0
vertex 3.94795307556706e-014 12.5 16.0
vertex 7.80000000000003 12.5 16.0
endloop
endfacet
facet normal -2.25597318603834e-015 1.0 -9.39988827515968e-016
outer loop
vertex 27.5 47.8 16.0
vertex 29.9999999999999 47.8 14.0
vertex 27.5 47.8 14.0
endloop
endfacet
facet normal -2.25597318603834e-015 1.0 -9.39988827515968e-016
outer loop
vertex 29.9999999999999 47.8 14.0
vertex 27.5 47.8 16.0
vertex 32.4999999999999 47.8 14.0
endloop
endfacet
facet normal -2.25597318603834e-015 1.0 -9.39988827515968e-016
outer loop
vertex 32.4999999999999 47.8 14.0
vertex 27.5 47.8 16.0
vertex 32.4999999999999 47.8 16.0
endloop
endfacet
facet normal -0.382683432365086 0.923879532511289 -9.05118815300645e-019
outer loop
vertex 29.9999999999999 47.8 14.0
vertex 31.5556349186104 48.4443650813896 0.0
vertex 29.9999999999999 47.8 0.0
endloop
endfacet
facet normal -0.382683432365086 0.923879532511289 -9.05118815300645e-019
outer loop
vertex 31.5556349186104 48.4443650813896 0.0
vertex 29.9999999999999 47.8 14.0
vertex 31.5556349186104 48.4443650813896 14.0
endloop
endfacet
facet normal 1.0 0.0 0.0
outer loop
vertex 32.4999999999999 47.8 14.0
vertex 32.4999999999999 32.2 16.0
vertex 32.4999999999999 32.2 14.0
endloop
endfacet
facet normal 1.0 0.0 0.0
outer loop
vertex 32.4999999999999 32.2 16.0
vertex 32.4999999999999 47.8 14.0
vertex 32.4999999999999 47.8 16.0
endloop
endfacet
facet normal 0.923879532511284 -0.382683432365096 -9.0511881530047e-019
outer loop
vertex 28.4443650813896 31.5556349186104 0.0
vertex 27.8 30.0 14.0
vertex 27.8 30.0 0.0
endloop
endfacet
facet normal 0.923879532511284 -0.382683432365096 -9.0511881530047e-019
outer loop
vertex 27.8 30.0 14.0
vertex 28.4443650813896 31.5556349186104 0.0
vertex 28.4443650813896 31.5556349186104 14.0
endloop
endfacet
facet normal 0.0 -1.0 0.0
outer loop
vertex 32.4999999999999 52.2 16.0
vertex 29.9999999999999 52.2 14.0
vertex 32.4999999999999 52.2 14.0
endloop
endfacet
facet normal 0.0 -1.0 0.0
outer loop
vertex 29.9999999999999 52.2 14.0
vertex 32.4999999999999 52.2 16.0
vertex 27.5 52.2 14.0
endloop
endfacet
facet normal 0.0 -1.0 0.0
outer loop
vertex 27.5 52.2 14.0
vertex 32.4999999999999 52.2 16.0
vertex 27.5 52.2 16.0
endloop
endfacet
facet normal 1.0 1.12798659301916e-015 4.69994413757984e-016
outer loop
vertex 7.80000000000003 9.99999999999998 14.0
vertex 7.80000000000003 7.49999999999998 16.0
vertex 7.80000000000003 7.49999999999998 14.0
endloop
endfacet
facet normal 1.0 1.12798659301916e-015 4.69994413757984e-016
outer loop
vertex 7.80000000000003 7.49999999999998 16.0
vertex 7.80000000000003 9.99999999999998 14.0
vertex 7.80000000000003 12.5 16.0
endloop
endfacet
facet normal 1.0 1.12798659301916e-015 4.69994413757984e-016
outer loop
vertex 7.80000000000003 12.5 16.0
vertex 7.80000000000003 9.99999999999998 14.0
vertex 7.80000000000003 12.5 14.0
endloop
endfacet
facet normal 0.382683432365083 0.923879532511289 0.0
outer loop
vertex 28.4443650813896 8.44436508138959 14.0
vertex 30.0 7.79999999999999 0.0
vertex 28.4443650813896 8.44436508138959 0.0
endloop
endfacet
facet normal 0.382683432365083 0.923879532511289 0.0
outer loop
vertex 30.0 7.79999999999999 0.0
vertex 28.4443650813896 8.44436508138959 14.0
vertex 30.0 7.79999999999999 14.0
endloop
endfacet
facet normal -0.894427190999916 0.447213595499957 0.0
outer loop
vertex 20.0 60.0 14.0
vertex 0.0 20.0 0.0
vertex 0.0 20.0 14.0
endloop
endfacet
facet normal -0.894427190999916 0.447213595499957 0.0
outer loop
vertex 0.0 20.0 0.0
vertex 20.0 60.0 14.0
vertex 20.0 60.0 0.0
endloop
endfacet
facet normal 0.0 0.0 1.0
outer loop
vertex 12.2 7.49999999999998 16.0
vertex 27.8 12.5 16.0
vertex 12.2 12.5 16.0
endloop
endfacet
facet normal 0.0 0.0 1.0
outer loop
vertex 27.8 12.5 16.0
vertex 12.2 7.49999999999998 16.0
vertex 27.8 7.49999999999999 16.0
endloop
endfacet
facet normal 0.0 0.0 1.0
outer loop
vertex 7.80000000000003 7.49999999999998 16.0
vertex 3.94795307556706e-014 12.5 16.0
vertex 0.0 7.49999999999997 16.0
endloop
endfacet
facet normal 0.0 0.0 1.0
outer loop
vertex 3.94795307556706e-014 12.5 16.0
vertex 7.80000000000003 7.49999999999998 16.0
vertex 7.80000000000003 12.5 16.0
endloop
endfacet
facet normal -1.12798659301916e-015 1.0 -4.69994413757985e-016
outer loop
vertex 27.5 27.8 14.0
vertex 32.5 27.8 14.0
vertex 30.0 27.8 14.0
endloop
endfacet
facet normal -1.12798659301916e-015 1.0 -4.69994413757985e-016
outer loop
vertex 32.5 27.8 14.0
vertex 27.5 27.8 14.0
vertex 32.5 27.8 16.0
endloop
endfacet
facet normal -1.12798659301916e-015 1.0 -4.69994413757985e-016
outer loop
vertex 32.5 27.8 16.0
vertex 27.5 27.8 14.0
vertex 27.5 27.8 16.0
endloop
endfacet
facet normal -0.382683432365077 -0.923879532511292 0.0
outer loop
vertex 31.5556349186104 51.5556349186104 14.0
vertex 29.9999999999999 52.2 0.0
vertex 31.5556349186104 51.5556349186104 0.0
endloop
endfacet
facet normal -0.382683432365077 -0.923879532511292 0.0
outer loop
vertex 29.9999999999999 52.2 0.0
vertex 31.5556349186104 51.5556349186104 14.0
vertex 29.9999999999999 52.2 14.0
endloop
endfacet
facet normal -1.0 4.6446506771377e-016 9.62915384284648e-016
outer loop
vertex 3.94795307556706e-014 12.5 16.0
vertex 0.0 7.49999999999997 14.0
vertex 0.0 7.49999999999997 16.0
endloop
endfacet
facet normal -1.0 4.6446506771377e-016 9.62915384284648e-016
outer loop
vertex 0.0 7.49999999999997 14.0
vertex 0.0 -2.83106870750019e-014 0.0
vertex 0.0 -2.83106870750019e-014 14.0
endloop
endfacet
facet normal -1.0 4.6446506771377e-016 9.62915384284648e-016
outer loop
vertex 0.0 -2.83106870750019e-014 0.0
vertex 0.0 7.49999999999997 14.0
vertex 0.0 20.0 0.0
endloop
endfacet
facet normal -1.0 4.6446506771377e-016 9.62915384284648e-016
outer loop
vertex 0.0 20.0 0.0
vertex 0.0 7.49999999999997 14.0
vertex 3.94795307556706e-014 12.5 14.0
endloop
endfacet
facet normal -1.0 4.6446506771377e-016 9.62915384284648e-016
outer loop
vertex 3.94795307556706e-014 12.5 14.0
vertex 0.0 7.49999999999997 14.0
vertex 3.94795307556706e-014 12.5 16.0
endloop
endfacet
facet normal -1.0 4.6446506771377e-016 9.62915384284648e-016
outer loop
vertex 0.0 20.0 0.0
vertex 3.94795307556706e-014 12.5 14.0
vertex 0.0 20.0 14.0
endloop
endfacet
facet normal 0.923879532511284 0.382683432365096 -9.0511881530047e-019
outer loop
vertex 27.8 30.0 0.0
vertex 28.4443650813896 28.4443650813896 14.0
vertex 28.4443650813896 28.4443650813896 0.0
endloop
endfacet
facet normal 0.923879532511284 0.382683432365096 -9.0511881530047e-019
outer loop
vertex 28.4443650813896 28.4443650813896 14.0
vertex 27.8 30.0 0.0
vertex 27.8 30.0 14.0
endloop
endfacet
facet normal -0.923879532511285 0.382683432365095 0.0
outer loop
vertex 12.2 9.99999999999998 14.0
vertex 11.5556349186104 8.44436508138957 0.0
vertex 11.5556349186104 8.44436508138957 14.0
endloop
endfacet
facet normal -0.923879532511285 0.382683432365095 0.0
outer loop
vertex 11.5556349186104 8.44436508138957 0.0
vertex 12.2 9.99999999999998 14.0
vertex 12.2 9.99999999999998 0.0
endloop
endfacet
facet normal 7.07767176875048e-016 -1.0 0.0
outer loop
vertex 40.0 0.0 14.0
vertex 0.0 -2.83106870750019e-014 0.0
vertex 40.0 0.0 0.0
endloop
endfacet
facet normal 7.07767176875048e-016 -1.0 0.0
outer loop
vertex 0.0 -2.83106870750019e-014 0.0
vertex 40.0 0.0 14.0
vertex 0.0 -2.83106870750019e-014 14.0
endloop
endfacet
facet normal 0.382683432365093 -0.923879532511286 0.0
outer loop
vertex 10.0 12.2 14.0
vertex 8.44436508138964 11.5556349186104 0.0
vertex 10.0 12.2 0.0
endloop
endfacet
facet normal 0.382683432365093 -0.923879532511286 0.0
outer loop
vertex 8.44436508138964 11.5556349186104 0.0
vertex 10.0 12.2 14.0
vertex 8.44436508138964 11.5556349186104 14.0
endloop
endfacet
facet normal 0.923879532511294 0.382683432365072 0.0
outer loop
vertex 27.8 9.99999999999999 0.0
vertex 28.4443650813896 8.44436508138959 14.0
vertex 28.4443650813896 8.44436508138959 0.0
endloop
endfacet
facet normal 0.923879532511294 0.382683432365072 0.0
outer loop
vertex 28.4443650813896 8.44436508138959 14.0
vertex 27.8 9.99999999999999 0.0
vertex 27.8 9.99999999999999 14.0
endloop
endfacet
facet normal 0.0 0.0 -1.0
outer loop
vertex 20.0 60.0 0.0
vertex 0.0 -2.83106870750019e-014 0.0
vertex 0.0 20.0 0.0
endloop
endfacet
facet normal 0.0 0.0 -1.0
outer loop
vertex 0.0 -2.83106870750019e-014 0.0
vertex 20.0 60.0 0.0
vertex 7.80000000000003 9.99999999999998 0.0
endloop
endfacet
facet normal 0.0 0.0 -1.0
outer loop
vertex 7.80000000000003 9.99999999999998 0.0
vertex 20.0 60.0 0.0
vertex 8.44436508138964 11.5556349186104 0.0
endloop
endfacet
facet normal 0.0 0.0 -1.0
outer loop
vertex 8.44436508138964 11.5556349186104 0.0
vertex 20.0 60.0 0.0
vertex 10.0 12.2 0.0
endloop
endfacet
facet normal 0.0 0.0 -1.0
outer loop
vertex 10.0 12.2 0.0
vertex 20.0 60.0 0.0
vertex 11.5556349186104 11.5556349186104 0.0
endloop
endfacet
facet normal 0.0 0.0 -1.0
outer loop
vertex 11.5556349186104 11.5556349186104 0.0
vertex 20.0 60.0 0.0
vertex 12.2 9.99999999999998 0.0
endloop
endfacet
facet normal 0.0 0.0 -1.0
outer loop
vertex 20.0 60.0 0.0
vertex 28.4443650813896 51.5556349186104 0.0
vertex 27.7999999999999 50.0 0.0
endloop
endfacet
facet normal 0.0 0.0 -1.0
outer loop
vertex 28.4443650813896 51.5556349186104 0.0
vertex 20.0 60.0 0.0
vertex 40.0 60.0 0.0
endloop
endfacet
facet normal 0.0 0.0 -1.0
outer loop
vertex 28.4443650813896 51.5556349186104 0.0
vertex 40.0 60.0 0.0
vertex 29.9999999999999 52.2 0.0
endloop
endfacet
facet normal 0.0 0.0 -1.0
outer loop
vertex 29.9999999999999 52.2 0.0
vertex 40.0 60.0 0.0
vertex 31.5556349186104 51.5556349186104 0.0
endloop
endfacet
facet normal 0.0 0.0 -1.0
outer loop
vertex 31.5556349186104 51.5556349186104 0.0
vertex 40.0 60.0 0.0
vertex 32.1999999999999 50.0 0.0
endloop
endfacet
facet normal 0.0 0.0 -1.0
outer loop
vertex 32.1999999999999 50.0 0.0
vertex 40.0 60.0 0.0
vertex 32.2 30.0 0.0
endloop
endfacet
facet normal 0.0 0.0 -1.0
outer loop
vertex 32.2 30.0 0.0
vertex 40.0 60.0 0.0
vertex 32.2 9.99999999999999 0.0
endloop
endfacet
facet normal 0.0 0.0 -1.0
outer loop
vertex 0.0 -2.83106870750019e-014 0.0
vertex 10.0 7.79999999999998 0.0
vertex 40.0 0.0 0.0
endloop
endfacet
facet normal 0.0 0.0 -1.0
outer loop
vertex 10.0 7.79999999999998 0.0
vertex 0.0 -2.83106870750019e-014 0.0
vertex 8.44436508138964 8.44436508138957 0.0
endloop
endfacet
facet normal 0.0 0.0 -1.0
outer loop
vertex 8.44436508138964 8.44436508138957 0.0
vertex 0.0 -2.83106870750019e-014 0.0
vertex 7.80000000000003 9.99999999999998 0.0
endloop
endfacet
facet normal 0.0 0.0 -1.0
outer loop
vertex 40.0 0.0 0.0
vertex 10.0 7.79999999999998 0.0
vertex 11.5556349186104 8.44436508138957 0.0
endloop
endfacet
facet normal 0.0 0.0 -1.0
outer loop
vertex 40.0 0.0 0.0
vertex 11.5556349186104 8.44436508138957 0.0
vertex 12.2 9.99999999999998 0.0
endloop
endfacet
facet normal 0.0 0.0 -1.0
outer loop
vertex 40.0 0.0 0.0
vertex 12.2 9.99999999999998 0.0
vertex 28.4443650813896 8.44436508138959 0.0
endloop
endfacet
facet normal 0.0 0.0 -1.0
outer loop
vertex 28.4443650813896 8.44436508138959 0.0
vertex 12.2 9.99999999999998 0.0
vertex 27.8 9.99999999999999 0.0
endloop
endfacet
facet normal 0.0 0.0 -1.0
outer loop
vertex 27.8 9.99999999999999 0.0
vertex 12.2 9.99999999999998 0.0
vertex 20.0 60.0 0.0
endloop
endfacet
facet normal 0.0 0.0 -1.0
outer loop
vertex 27.8 9.99999999999999 0.0
vertex 20.0 60.0 0.0
vertex 27.8 30.0 0.0
endloop
endfacet
facet normal 0.0 0.0 -1.0
outer loop
vertex 27.8 30.0 0.0
vertex 20.0 60.0 0.0
vertex 27.7999999999999 50.0 0.0
endloop
endfacet
facet normal 0.0 0.0 -1.0
outer loop
vertex 40.0 0.0 0.0
vertex 28.4443650813896 8.44436508138959 0.0
vertex 30.0 7.79999999999999 0.0
endloop
endfacet
facet normal 0.0 0.0 -1.0
outer loop
vertex 40.0 0.0 0.0
vertex 30.0 7.79999999999999 0.0
vertex 31.5556349186104 8.44436508138959 0.0
endloop
endfacet
facet normal 0.0 0.0 -1.0
outer loop
vertex 40.0 0.0 0.0
vertex 31.5556349186104 8.44436508138959 0.0
vertex 32.2 9.99999999999999 0.0
endloop
endfacet
facet normal 0.0 0.0 -1.0
outer loop
vertex 40.0 0.0 0.0
vertex 32.2 9.99999999999999 0.0
vertex 40.0 60.0 0.0
endloop
endfacet
facet normal 0.0 0.0 -1.0
outer loop
vertex 28.4443650813896 28.4443650813896 0.0
vertex 27.8 9.99999999999999 0.0
vertex 27.8 30.0 0.0
endloop
endfacet
facet normal 0.0 0.0 -1.0
outer loop
vertex 27.8 9.99999999999999 0.0
vertex 28.4443650813896 28.4443650813896 0.0
vertex 28.4443650813896 11.5556349186104 0.0
endloop
endfacet
facet normal 0.0 0.0 -1.0
outer loop
vertex 28.4443650813896 11.5556349186104 0.0
vertex 28.4443650813896 28.4443650813896 0.0
vertex 30.0 27.8 0.0
endloop
endfacet
facet normal 0.0 0.0 -1.0
outer loop
vertex 28.4443650813896 11.5556349186104 0.0
vertex 30.0 27.8 0.0
vertex 30.0 12.2 0.0
endloop
endfacet
facet normal 0.0 0.0 -1.0
outer loop
vertex 30.0 12.2 0.0
vertex 30.0 27.8 0.0
vertex 31.5556349186104 28.4443650813896 0.0
endloop
endfacet
facet normal 0.0 0.0 -1.0
outer loop
vertex 30.0 12.2 0.0
vertex 31.5556349186104 28.4443650813896 0.0
vertex 31.5556349186104 11.5556349186104 0.0
endloop
endfacet
facet normal 0.0 0.0 -1.0
outer loop
vertex 31.5556349186104 11.5556349186104 0.0
vertex 31.5556349186104 28.4443650813896 0.0
vertex 32.2 30.0 0.0
endloop
endfacet
facet normal 0.0 0.0 -1.0
outer loop
vertex 31.5556349186104 11.5556349186104 0.0
vertex 32.2 30.0 0.0
vertex 32.2 9.99999999999999 0.0
endloop
endfacet
facet normal 0.0 0.0 -1.0
outer loop
vertex 28.4443650813896 48.4443650813896 0.0
vertex 27.8 30.0 0.0
vertex 27.7999999999999 50.0 0.0
endloop
endfacet
facet normal 0.0 0.0 -1.0
outer loop
vertex 27.8 30.0 0.0
vertex 28.4443650813896 48.4443650813896 0.0
vertex 28.4443650813896 31.5556349186104 0.0
endloop
endfacet
facet normal 0.0 0.0 -1.0
outer loop
vertex 28.4443650813896 31.5556349186104 0.0
vertex 28.4443650813896 48.4443650813896 0.0
vertex 29.9999999999999 47.8 0.0
endloop
endfacet
facet normal 0.0 0.0 -1.0
outer loop
vertex 28.4443650813896 31.5556349186104 0.0
vertex 29.9999999999999 47.8 0.0
vertex 29.9999999999999 32.2 0.0
endloop
endfacet
facet normal 0.0 0.0 -1.0
outer loop
vertex 29.9999999999999 32.2 0.0
vertex 29.9999999999999 47.8 0.0
vertex 31.5556349186104 48.4443650813896 0.0
endloop
endfacet
facet normal 0.0 0.0 -1.0
outer loop
vertex 29.9999999999999 32.2 0.0
vertex 31.5556349186104 48.4443650813896 0.0
vertex 31.5556349186104 31.5556349186104 0.0
endloop
endfacet
facet normal 0.0 0.0 -1.0
outer loop
vertex 31.5556349186104 31.5556349186104 0.0
vertex 31.5556349186104 48.4443650813896 0.0
vertex 32.1999999999999 50.0 0.0
endloop
endfacet
facet normal 0.0 0.0 -1.0
outer loop
vertex 31.5556349186104 31.5556349186104 0.0
vertex 32.1999999999999 50.0 0.0
vertex 32.2 30.0 0.0
endloop
endfacet
facet normal -0.38268343236508 -0.923879532511291 0.0
outer loop
vertex 31.5556349186104 31.5556349186104 14.0
vertex 29.9999999999999 32.2 0.0
vertex 31.5556349186104 31.5556349186104 0.0
endloop
endfacet
facet normal -0.38268343236508 -0.923879532511291 0.0
outer loop
vertex 29.9999999999999 32.2 0.0
vertex 31.5556349186104 31.5556349186104 14.0
vertex 29.9999999999999 32.2 14.0
endloop
endfacet
facet normal -0.923879532511284 -0.382683432365096 0.0
outer loop
vertex 31.5556349186104 31.5556349186104 14.0
vertex 32.2 30.0 0.0
vertex 32.2 30.0 14.0
endloop
endfacet
facet normal -0.923879532511284 -0.382683432365096 0.0
outer loop
vertex 32.2 30.0 0.0
vertex 31.5556349186104 31.5556349186104 14.0
vertex 31.5556349186104 31.5556349186104 0.0
endloop
endfacet
facet normal 0.0 1.0 0.0
outer loop
vertex 27.5 60.0 16.0
vertex 32.4999999999999 60.0 14.0
vertex 27.5 60.0 14.0
endloop
endfacet
facet normal 0.0 1.0 0.0
outer loop
vertex 32.4999999999999 60.0 14.0
vertex 27.5 60.0 16.0
vertex 32.4999999999999 60.0 16.0
endloop
endfacet
facet normal 0.0 1.0 0.0
outer loop
vertex 20.0 60.0 14.0
vertex 40.0 60.0 0.0
vertex 20.0 60.0 0.0
endloop
endfacet
facet normal 0.0 1.0 0.0
outer loop
vertex 40.0 60.0 0.0
vertex 20.0 60.0 14.0
vertex 40.0 60.0 14.0
endloop
endfacet
facet normal 0.0 1.0 0.0
outer loop
vertex 40.0 60.0 14.0
vertex 20.0 60.0 14.0
vertex 27.5 60.0 14.0
endloop
endfacet
facet normal 0.0 1.0 0.0
outer loop
vertex 40.0 60.0 14.0
vertex 27.5 60.0 14.0
vertex 32.4999999999999 60.0 14.0
endloop
endfacet
facet normal 5.42301246643826e-016 -1.0 -9.91636883869569e-032
outer loop
vertex 27.8 7.49999999999999 16.0
vertex 12.2 7.49999999999998 14.0
vertex 27.8 7.49999999999999 14.0
endloop
endfacet
facet normal 5.42301246643826e-016 -1.0 -9.91636883869569e-032
outer loop
vertex 12.2 7.49999999999998 14.0
vertex 27.8 7.49999999999999 16.0
vertex 12.2 7.49999999999998 16.0
endloop
endfacet
facet normal 0.923879532511286 -0.382683432365092 0.0
outer loop
vertex 28.4443650813896 51.5556349186104 0.0
vertex 27.7999999999999 50.0 14.0
vertex 27.7999999999999 50.0 0.0
endloop
endfacet
facet normal 0.923879532511286 -0.382683432365092 0.0
outer loop
vertex 27.7999999999999 50.0 14.0
vertex 28.4443650813896 51.5556349186104 0.0
vertex 28.4443650813896 51.5556349186104 14.0
endloop
endfacet
facet normal -1.0 0.0 0.0
outer loop
vertex 27.5 27.8 16.0
vertex 27.5 21.0 14.0
vertex 27.5 21.0 16.0
endloop
endfacet
facet normal -1.0 0.0 0.0
outer loop
vertex 27.5 21.0 14.0
vertex 27.5 27.8 16.0
vertex 27.5 27.8 14.0
endloop
endfacet
facet normal 5.42301246643828e-016 -1.0 0.0
outer loop
vertex 40.0 7.5 16.0
vertex 32.2 7.49999999999999 14.0
vertex 40.0 7.5 14.0
endloop
endfacet
facet normal 5.42301246643828e-016 -1.0 0.0
outer loop
vertex 32.2 7.49999999999999 14.0
vertex 40.0 7.5 16.0
vertex 32.2 7.49999999999999 16.0
endloop
endfacet
facet normal -1.0 -2.25597318603832e-015 -9.39988827515965e-016
outer loop
vertex 12.2 12.5 16.0
vertex 12.2 7.49999999999998 14.0
vertex 12.2 7.49999999999998 16.0
endloop
endfacet
facet normal -1.0 -2.25597318603832e-015 -9.39988827515965e-016
outer loop
vertex 12.2 7.49999999999998 14.0
vertex 12.2 12.5 16.0
vertex 12.2 9.99999999999998 14.0
endloop
endfacet
facet normal -1.0 -2.25597318603832e-015 -9.39988827515965e-016
outer loop
vertex 12.2 9.99999999999998 14.0
vertex 12.2 12.5 16.0
vertex 12.2 12.5 14.0
endloop
endfacet
facet normal 0.382683432365093 0.923879532511286 0.0
outer loop
vertex 8.44436508138964 8.44436508138957 14.0
vertex 10.0 7.79999999999998 0.0
vertex 8.44436508138964 8.44436508138957 0.0
endloop
endfacet
facet normal 0.382683432365093 0.923879532511286 0.0
outer loop
vertex 10.0 7.79999999999998 0.0
vertex 8.44436508138964 8.44436508138957 14.0
vertex 10.0 7.79999999999998 14.0
endloop
endfacet
facet normal 0.382683432365095 0.923879532511285 -9.0511881530044e-019
outer loop
vertex 28.4443650813896 28.4443650813896 14.0
vertex 30.0 27.8 0.0
vertex 28.4443650813896 28.4443650813896 0.0
endloop
endfacet
facet normal 0.382683432365095 0.923879532511285 -9.0511881530044e-019
outer loop
vertex 30.0 27.8 0.0
vertex 28.4443650813896 28.4443650813896 14.0
vertex 30.0 27.8 14.0
endloop
endfacet
facet normal 3.61534164429216e-016 -1.0 0.0
outer loop
vertex 7.80000000000003 7.49999999999998 16.0
vertex 0.0 7.49999999999997 14.0
vertex 7.80000000000003 7.49999999999998 14.0
endloop
endfacet
facet normal 3.61534164429216e-016 -1.0 0.0
outer loop
vertex 0.0 7.49999999999997 14.0
vertex 7.80000000000003 7.49999999999998 16.0
vertex 0.0 7.49999999999997 16.0
endloop
endfacet
facet normal 0.0 0.0 1.0
outer loop
vertex 40.0 7.5 16.0
vertex 32.2 12.5 16.0
vertex 32.2 7.49999999999999 16.0
endloop
endfacet
facet normal 0.0 0.0 1.0
outer loop
vertex 32.2 12.5 16.0
vertex 40.0 7.5 16.0
vertex 40.0 12.5 16.0
endloop
endfacet
facet normal -0.382683432365092 0.923879532511286 -9.05118815300517e-019
outer loop
vertex 10.0 7.79999999999998 14.0
vertex 11.5556349186104 8.44436508138957 0.0
vertex 10.0 7.79999999999998 0.0
endloop
endfacet
facet normal -0.382683432365092 0.923879532511286 -9.05118815300517e-019
outer loop
vertex 11.5556349186104 8.44436508138957 0.0
vertex 10.0 7.79999999999998 14.0
vertex 11.5556349186104 8.44436508138957 14.0
endloop
endfacet
endsolid 90 R
