solid 90 thin R
facet normal 2.25597318603834e-015 -1.0 9.39988827515966e-016
outer loop
vertex 32.4999999999999 32.2 8.00000000000001
vertex 29.9999999999999 32.2 6.0
vertex 32.4999999999999 32.2 6.0
endloop
endfacet
facet normal 2.25597318603834e-015 -1.0 9.39988827515966e-016
outer loop
vertex 29.9999999999999 32.2 6.0
vertex 32.4999999999999 32.2 8.00000000000001
vertex 27.5 32.2 6.0
endloop
endfacet
facet normal 2.25597318603834e-015 -1.0 9.39988827515966e-016
outer loop
vertex 27.5 32.2 6.0
vertex 32.4999999999999 32.2 8.00000000000001
vertex 27.5 32.2 8.00000000000001
endloop
endfacet
facet normal 0.923879532511285 -0.382683432365095 0.0
outer loop
vertex 8.44436508138964 11.5556349186104 0.0
vertex 7.80000000000003 10.0 6.0
vertex 7.80000000000003 10.0 0.0
endloop
endfacet
facet normal 0.923879532511285 -0.382683432365095 0.0
outer loop
vertex 7.80000000000003 10.0 6.0
vertex 8.44436508138964 11.5556349186104 0.0
vertex 8.44436508138964 11.5556349186104 6.0
endloop
endfacet
facet normal -7.23068328858434e-016 1.0 -7.00916030365541e-032
outer loop
vertex 12.2 12.5 6.0
vertex 27.8 12.5 8.00000000000001
vertex 27.8 12.5 6.0
endloop
endfacet
facet normal -7.23068328858434e-016 1.0 -7.00916030365541e-032
outer loop
vertex 27.8 12.5 8.00000000000001
vertex 12.2 12.5 6.0
vertex 12.2 12.5 8.00000000000001
endloop
endfacet
facet normal -0.382683432365092 0.923879532511286 0.0
outer loop
vertex 30.0 7.80000000000002 6.0
vertex 31.5556349186104 8.44436508138961 0.0
vertex 30.0 7.80000000000002 0.0
endloop
endfacet
facet normal -0.382683432365092 0.923879532511286 0.0
outer loop
vertex 31.5556349186104 8.44436508138961 0.0
vertex 30.0 7.80000000000002 6.0
vertex 31.5556349186104 8.44436508138961 6.0
endloop
endfacet
facet normal -1.0 0.0 0.0
outer loop
vertex 32.2 12.5 8.00000000000001
vertex 32.2 7.50000000000002 6.0
vertex 32.2 7.50000000000002 8.00000000000001
endloop
endfacet
facet normal -1.0 0.0 0.0
outer loop
vertex 32.2 7.50000000000002 6.0
vertex 32.2 12.5 8.00000000000001
vertex 32.2 10.0 6.0
endloop
endfacet
facet normal -1.0 0.0 0.0
outer loop
vertex 32.2 10.0 6.0
vertex 32.2 12.5 8.00000000000001
vertex 32.2 12.5 6.0
endloop
endfacet
facet normal -0.382683432365095 0.923879532511285 0.0
outer loop
vertex 30.0 27.8 6.0
vertex 31.5556349186104 28.4443650813896 0.0
vertex 30.0 27.8 0.0
endloop
endfacet
facet normal -0.382683432365095 0.923879532511285 0.0
outer loop
vertex 31.5556349186104 28.4443650813896 0.0
vertex 30.0 27.8 6.0
vertex 31.5556349186104 28.4443650813896 6.0
endloop
endfacet
facet normal -0.923879532511285 -0.382683432365095 0.0
outer loop
vertex 31.5556349186104 11.5556349186104 6.0
vertex 32.2 10.0 0.0
vertex 32.2 10.0 6.0
endloop
endfacet
facet normal -0.923879532511285 -0.382683432365095 0.0
outer loop
vertex 32.2 10.0 0.0
vertex 31.5556349186104 11.5556349186104 6.0
vertex 31.5556349186104 11.5556349186104 0.0
endloop
endfacet
facet normal -0.382683432365094 -0.923879532511285 -1.3376533602947e-018
outer loop
vertex 31.5556349186104 11.5556349186104 6.0
vertex 30.0 12.2 0.0
vertex 31.5556349186104 11.5556349186104 0.0
endloop
endfacet
facet normal -0.382683432365094 -0.923879532511285 -1.3376533602947e-018
outer loop
vertex 30.0 12.2 0.0
vertex 31.5556349186104 11.5556349186104 6.0
vertex 30.0 12.2 6.0
endloop
endfacet
facet normal -1.0 0.0 0.0
outer loop
vertex 27.5 60.0 8.00000000000001
vertex 27.5 52.2 6.0
vertex 27.5 52.2 8.00000000000001
endloop
endfacet
facet normal -1.0 0.0 0.0
outer loop
vertex 27.5 52.2 6.0
vertex 27.5 60.0 8.00000000000001
vertex 27.5 60.0 6.0
endloop
endfacet
facet normal 0.923879532511284 0.382683432365096 0.0
outer loop
vertex 27.7999999999999 50.0 0.0
vertex 28.4443650813896 48.4443650813896 6.0
vertex 28.4443650813896 48.4443650813896 0.0
endloop
endfacet
facet normal 0.923879532511284 0.382683432365096 0.0
outer loop
vertex 28.4443650813896 48.4443650813896 6.0
vertex 27.7999999999999 50.0 0.0
vertex 27.7999999999999 50.0 6.0
endloop
endfacet
facet normal -0.923879532511296 -0.382683432365069 0.0
outer loop
vertex 31.5556349186104 51.5556349186104 6.0
vertex 32.1999999999999 50.0 0.0
vertex 32.1999999999999 50.0 6.0
endloop
endfacet
facet normal -0.923879532511296 -0.382683432365069 0.0
outer loop
vertex 32.1999999999999 50.0 0.0
vertex 31.5556349186104 51.5556349186104 6.0
vertex 31.5556349186104 51.5556349186104 0.0
endloop
endfacet
facet normal 0.923879532511285 -0.382683432365095 0.0
outer loop
vertex 28.4443650813896 11.5556349186104 0.0
vertex 27.8 10.0 6.0
vertex 27.8 10.0 0.0
endloop
endfacet
facet normal 0.923879532511285 -0.382683432365095 0.0
outer loop
vertex 27.8 10.0 6.0
vertex 28.4443650813896 11.5556349186104 0.0
vertex 28.4443650813896 11.5556349186104 6.0
endloop
endfacet
facet normal -1.19290103302978e-017 2.063950781816e-017 1.0
outer loop
vertex 12.2 10.0 6.0
vertex 12.2 12.5 6.0
vertex 11.5556349186104 11.5556349186104 6.0
endloop
endfacet
facet normal -1.19290103302978e-017 2.063950781816e-017 1.0
outer loop
vertex 28.4443650813896 11.5556349186104 6.0
vertex 27.8 12.5 6.0
vertex 27.8 10.0 6.0
endloop
endfacet
facet normal -1.19290103302978e-017 2.063950781816e-017 1.0
outer loop
vertex 27.5 47.8 6.0
vertex 27.7999999999999 50.0 6.0
vertex 27.5 52.2 6.0
endloop
endfacet
facet normal -1.19290103302978e-017 2.063950781816e-017 1.0
outer loop
vertex 27.7999999999999 50.0 6.0
vertex 27.5 47.8 6.0
vertex 28.4443650813896 48.4443650813896 6.0
endloop
endfacet
facet normal -1.19290103302978e-017 2.063950781816e-017 1.0
outer loop
vertex 28.4443650813896 48.4443650813896 6.0
vertex 27.5 47.8 6.0
vertex 29.9999999999999 47.8 6.0
endloop
endfacet
facet normal -1.19290103302978e-017 2.063950781816e-017 1.0
outer loop
vertex 27.5 52.2 6.0
vertex 28.4443650813896 51.5556349186104 6.0
vertex 29.9999999999999 52.2 6.0
endloop
endfacet
facet normal -1.19290103302978e-017 2.063950781816e-017 1.0
outer loop
vertex 28.4443650813896 51.5556349186104 6.0
vertex 27.5 52.2 6.0
vertex 27.7999999999999 50.0 6.0
endloop
endfacet
facet normal -1.19290103302978e-017 2.063950781816e-017 1.0
outer loop
vertex 27.5 27.8 6.0
vertex 28.4443650813896 28.4443650813896 6.0
vertex 27.8 30.0 6.0
endloop
endfacet
facet normal -1.19290103302978e-017 2.063950781816e-017 1.0
outer loop
vertex 28.4443650813896 28.4443650813896 6.0
vertex 27.5 27.8 6.0
vertex 30.0 27.8 6.0
endloop
endfacet
facet normal -1.19290103302978e-017 2.063950781816e-017 1.0
outer loop
vertex 32.5 27.8 6.0
vertex 31.5556349186104 28.4443650813896 6.0
vertex 30.0 27.8 6.0
endloop
endfacet
facet normal -1.19290103302978e-017 2.063950781816e-017 1.0
outer loop
vertex 31.5556349186104 28.4443650813896 6.0
vertex 32.5 27.8 6.0
vertex 32.2 30.0 6.0
endloop
endfacet
facet normal -1.19290103302978e-017 2.063950781816e-017 1.0
outer loop
vertex 32.2 30.0 6.0
vertex 32.5 27.8 6.0
vertex 32.4999999999999 32.2 6.0
endloop
endfacet
facet normal -1.19290103302978e-017 2.063950781816e-017 1.0
outer loop
vertex 32.4999999999999 32.2 6.0
vertex 32.5 27.8 6.0
vertex 32.4999999999999 47.8 6.0
endloop
endfacet
facet normal -1.19290103302978e-017 2.063950781816e-017 1.0
outer loop
vertex 3.94795307556706e-014 12.5 6.0
vertex 20.0 60.0 6.0
vertex 0.0 20.0 6.0
endloop
endfacet
facet normal -1.19290103302978e-017 2.063950781816e-017 1.0
outer loop
vertex 20.0 60.0 6.0
vertex 3.94795307556706e-014 12.5 6.0
vertex 7.80000000000003 12.5 6.0
endloop
endfacet
facet normal -1.19290103302978e-017 2.063950781816e-017 1.0
outer loop
vertex 20.0 60.0 6.0
vertex 7.80000000000003 12.5 6.0
vertex 7.80000000000003 10.0 6.0
endloop
endfacet
facet normal -1.19290103302978e-017 2.063950781816e-017 1.0
outer loop
vertex 20.0 60.0 6.0
vertex 7.80000000000003 10.0 6.0
vertex 8.44436508138964 11.5556349186104 6.0
endloop
endfacet
facet normal -1.19290103302978e-017 2.063950781816e-017 1.0
outer loop
vertex 20.0 60.0 6.0
vertex 8.44436508138964 11.5556349186104 6.0
vertex 10.0 12.2 6.0
endloop
endfacet
facet normal -1.19290103302978e-017 2.063950781816e-017 1.0
outer loop
vertex 20.0 60.0 6.0
vertex 10.0 12.2 6.0
vertex 11.5556349186104 11.5556349186104 6.0
endloop
endfacet
facet normal -1.19290103302978e-017 2.063950781816e-017 1.0
outer loop
vertex 20.0 60.0 6.0
vertex 11.5556349186104 11.5556349186104 6.0
vertex 12.2 12.5 6.0
endloop
endfacet
facet normal -1.19290103302978e-017 2.063950781816e-017 1.0
outer loop
vertex 20.0 60.0 6.0
vertex 12.2 12.5 6.0
vertex 27.8 12.5 6.0
endloop
endfacet
facet normal -1.19290103302978e-017 2.063950781816e-017 1.0
outer loop
vertex 20.0 60.0 6.0
vertex 27.8 12.5 6.0
vertex 27.5 21.0 6.0
endloop
endfacet
facet normal -1.19290103302978e-017 2.063950781816e-017 1.0
outer loop
vertex 20.0 60.0 6.0
vertex 27.5 21.0 6.0
vertex 27.5 32.2 6.0
endloop
endfacet
facet normal -1.19290103302978e-017 2.063950781816e-017 1.0
outer loop
vertex 27.5 21.0 6.0
vertex 27.8 12.5 6.0
vertex 32.5 21.0 6.0
endloop
endfacet
facet normal -1.19290103302978e-017 2.063950781816e-017 1.0
outer loop
vertex 32.5 21.0 6.0
vertex 27.8 12.5 6.0
vertex 28.4443650813896 11.5556349186104 6.0
endloop
endfacet
facet normal -1.19290103302978e-017 2.063950781816e-017 1.0
outer loop
vertex 32.5 21.0 6.0
vertex 28.4443650813896 11.5556349186104 6.0
vertex 30.0 12.2 6.0
endloop
endfacet
facet normal -1.19290103302978e-017 2.063950781816e-017 1.0
outer loop
vertex 32.5 21.0 6.0
vertex 30.0 12.2 6.0
vertex 31.5556349186104 11.5556349186104 6.0
endloop
endfacet
facet normal -1.19290103302978e-017 2.063950781816e-017 1.0
outer loop
vertex 32.5 21.0 6.0
vertex 31.5556349186104 11.5556349186104 6.0
vertex 32.2 12.5 6.0
endloop
endfacet
facet normal -1.19290103302978e-017 2.063950781816e-017 1.0
outer loop
vertex 32.2 12.5 6.0
vertex 31.5556349186104 11.5556349186104 6.0
vertex 32.2 10.0 6.0
endloop
endfacet
facet normal -1.19290103302978e-017 2.063950781816e-017 1.0
outer loop
vertex 32.5 21.0 6.0
vertex 32.2 12.5 6.0
vertex 40.0 12.5 6.0
endloop
endfacet
facet normal -1.19290103302978e-017 2.063950781816e-017 1.0
outer loop
vertex 32.5 21.0 6.0
vertex 40.0 12.5 6.0
vertex 32.5 27.8 6.0
endloop
endfacet
facet normal -1.19290103302978e-017 2.063950781816e-017 1.0
outer loop
vertex 32.5 27.8 6.0
vertex 40.0 12.5 6.0
vertex 40.0 60.0 6.0
endloop
endfacet
facet normal -1.19290103302978e-017 2.063950781816e-017 1.0
outer loop
vertex 32.4999999999999 47.8 6.0
vertex 31.5556349186104 48.4443650813896 6.0
vertex 29.9999999999999 47.8 6.0
endloop
endfacet
facet normal -1.19290103302978e-017 2.063950781816e-017 1.0
outer loop
vertex 31.5556349186104 48.4443650813896 6.0
vertex 32.4999999999999 47.8 6.0
vertex 32.1999999999999 50.0 6.0
endloop
endfacet
facet normal -1.19290103302978e-017 2.063950781816e-017 1.0
outer loop
vertex 32.1999999999999 50.0 6.0
vertex 32.4999999999999 47.8 6.0
vertex 32.4999999999999 52.2 6.0
endloop
endfacet
facet normal -1.19290103302978e-017 2.063950781816e-017 1.0
outer loop
vertex 32.4999999999999 52.2 6.0
vertex 32.4999999999999 47.8 6.0
vertex 32.4999999999999 60.0 6.0
endloop
endfacet
facet normal -1.19290103302978e-017 2.063950781816e-017 1.0
outer loop
vertex 32.4999999999999 60.0 6.0
vertex 32.4999999999999 47.8 6.0
vertex 40.0 60.0 6.0
endloop
endfacet
facet normal -1.19290103302978e-017 2.063950781816e-017 1.0
outer loop
vertex 40.0 60.0 6.0
vertex 32.4999999999999 47.8 6.0
vertex 32.5 27.8 6.0
endloop
endfacet
facet normal -1.19290103302978e-017 2.063950781816e-017 1.0
outer loop
vertex 31.5556349186104 31.5556349186104 6.0
vertex 32.4999999999999 32.2 6.0
vertex 29.9999999999999 32.2 6.0
endloop
endfacet
facet normal -1.19290103302978e-017 2.063950781816e-017 1.0
outer loop
vertex 32.4999999999999 32.2 6.0
vertex 31.5556349186104 31.5556349186104 6.0
vertex 32.2 30.0 6.0
endloop
endfacet
facet normal -1.19290103302978e-017 2.063950781816e-017 1.0
outer loop
vertex 31.5556349186104 51.5556349186104 6.0
vertex 32.4999999999999 52.2 6.0
vertex 29.9999999999999 52.2 6.0
endloop
endfacet
facet normal -1.19290103302978e-017 2.063950781816e-017 1.0
outer loop
vertex 32.4999999999999 52.2 6.0
vertex 31.5556349186104 51.5556349186104 6.0
vertex 32.1999999999999 50.0 6.0
endloop
endfacet
facet normal -1.19290103302978e-017 2.063950781816e-017 1.0
outer loop
vertex 27.5 32.2 6.0
vertex 28.4443650813896 31.5556349186104 6.0
vertex 29.9999999999999 32.2 6.0
endloop
endfacet
facet normal -1.19290103302978e-017 2.063950781816e-017 1.0
outer loop
vertex 28.4443650813896 31.5556349186104 6.0
vertex 27.5 32.2 6.0
vertex 27.8 30.0 6.0
endloop
endfacet
facet normal -1.19290103302978e-017 2.063950781816e-017 1.0
outer loop
vertex 27.8 30.0 6.0
vertex 27.5 32.2 6.0
vertex 27.5 27.8 6.0
endloop
endfacet
facet normal -1.19290103302978e-017 2.063950781816e-017 1.0
outer loop
vertex 27.5 27.8 6.0
vertex 27.5 32.2 6.0
vertex 27.5 21.0 6.0
endloop
endfacet
facet normal -1.19290103302978e-017 2.063950781816e-017 1.0
outer loop
vertex 27.5 32.2 6.0
vertex 27.5 60.0 6.0
vertex 20.0 60.0 6.0
endloop
endfacet
facet normal -1.19290103302978e-017 2.063950781816e-017 1.0
outer loop
vertex 27.5 60.0 6.0
vertex 27.5 32.2 6.0
vertex 27.5 47.8 6.0
endloop
endfacet
facet normal -1.19290103302978e-017 2.063950781816e-017 1.0
outer loop
vertex 27.5 60.0 6.0
vertex 27.5 47.8 6.0
vertex 27.5 52.2 6.0
endloop
endfacet
facet normal 1.0956801120778e-017 -1.21458218448288e-016 1.0
outer loop
vertex 40.0 2.82666250987121e-014 6.0
vertex 0.0 7.5 6.0
vertex 0.0 -2.11636793464762e-017 6.0
endloop
endfacet
facet normal 1.0956801120778e-017 -1.21458218448288e-016 1.0
outer loop
vertex 0.0 7.5 6.0
vertex 40.0 2.82666250987121e-014 6.0
vertex 7.80000000000003 7.5 6.0
endloop
endfacet
facet normal 1.0956801120778e-017 -1.21458218448288e-016 1.0
outer loop
vertex 7.80000000000003 7.5 6.0
vertex 40.0 2.82666250987121e-014 6.0
vertex 10.0 7.80000000000001 6.0
endloop
endfacet
facet normal 1.0956801120778e-017 -1.21458218448288e-016 1.0
outer loop
vertex 7.80000000000003 7.5 6.0
vertex 10.0 7.80000000000001 6.0
vertex 8.44436508138964 8.4443650813896 6.0
endloop
endfacet
facet normal 1.0956801120778e-017 -1.21458218448288e-016 1.0
outer loop
vertex 7.80000000000003 7.5 6.0
vertex 8.44436508138964 8.4443650813896 6.0
vertex 7.80000000000003 10.0 6.0
endloop
endfacet
facet normal 1.0956801120778e-017 -1.21458218448288e-016 1.0
outer loop
vertex 10.0 7.80000000000001 6.0
vertex 40.0 2.82666250987121e-014 6.0
vertex 12.2 7.50000000000001 6.0
endloop
endfacet
facet normal 1.0956801120778e-017 -1.21458218448288e-016 1.0
outer loop
vertex 10.0 7.80000000000001 6.0
vertex 12.2 7.50000000000001 6.0
vertex 11.5556349186104 8.4443650813896 6.0
endloop
endfacet
facet normal 1.0956801120778e-017 -1.21458218448288e-016 1.0
outer loop
vertex 12.2 7.50000000000001 6.0
vertex 40.0 2.82666250987121e-014 6.0
vertex 27.8 7.50000000000002 6.0
endloop
endfacet
facet normal 1.0956801120778e-017 -1.21458218448288e-016 1.0
outer loop
vertex 27.8 7.50000000000002 6.0
vertex 40.0 2.82666250987121e-014 6.0
vertex 28.4443650813896 8.44436508138961 6.0
endloop
endfacet
facet normal 1.0956801120778e-017 -1.21458218448288e-016 1.0
outer loop
vertex 27.8 7.50000000000002 6.0
vertex 28.4443650813896 8.44436508138961 6.0
vertex 27.8 10.0 6.0
endloop
endfacet
facet normal 1.0956801120778e-017 -1.21458218448288e-016 1.0
outer loop
vertex 28.4443650813896 8.44436508138961 6.0
vertex 40.0 2.82666250987121e-014 6.0
vertex 30.0 7.80000000000002 6.0
endloop
endfacet
facet normal 1.0956801120778e-017 -1.21458218448288e-016 1.0
outer loop
vertex 30.0 7.80000000000002 6.0
vertex 40.0 2.82666250987121e-014 6.0
vertex 32.2 7.50000000000002 6.0
endloop
endfacet
facet normal 1.0956801120778e-017 -1.21458218448288e-016 1.0
outer loop
vertex 30.0 7.80000000000002 6.0
vertex 32.2 7.50000000000002 6.0
vertex 31.5556349186104 8.44436508138961 6.0
endloop
endfacet
facet normal 1.0956801120778e-017 -1.21458218448288e-016 1.0
outer loop
vertex 32.2 7.50000000000002 6.0
vertex 40.0 2.82666250987121e-014 6.0
vertex 40.0 7.50000000000003 6.0
endloop
endfacet
facet normal 1.0956801120778e-017 -1.21458218448288e-016 1.0
outer loop
vertex 32.2 10.0 6.0
vertex 31.5556349186104 8.44436508138961 6.0
vertex 32.2 7.50000000000002 6.0
endloop
endfacet
facet normal 1.0956801120778e-017 -1.21458218448288e-016 1.0
outer loop
vertex 12.2 10.0 6.0
vertex 11.5556349186104 8.4443650813896 6.0
vertex 12.2 7.50000000000001 6.0
endloop
endfacet
facet normal -0.923879532511295 0.382683432365072 2.25256238493394e-018
outer loop
vertex 32.1999999999999 50.0 6.0
vertex 31.5556349186104 48.4443650813896 0.0
vertex 31.5556349186104 48.4443650813896 6.0
endloop
endfacet
facet normal -0.923879532511295 0.382683432365072 2.25256238493394e-018
outer loop
vertex 31.5556349186104 48.4443650813896 0.0
vertex 32.1999999999999 50.0 6.0
vertex 32.1999999999999 50.0 0.0
endloop
endfacet
facet normal 1.0 7.88435680035235e-016 -7.5455758440872e-016
outer loop
vertex 40.0 60.0 0.0
vertex 40.0 2.82666250987121e-014 6.0
vertex 40.0 2.82666250987121e-014 0.0
endloop
endfacet
facet normal 1.0 7.88435680035235e-016 -7.5455758440872e-016
outer loop
vertex 40.0 2.82666250987121e-014 6.0
vertex 40.0 60.0 0.0
vertex 40.0 7.50000000000003 6.0
endloop
endfacet
facet normal 1.0 7.88435680035235e-016 -7.5455758440872e-016
outer loop
vertex 40.0 7.50000000000003 6.0
vertex 40.0 60.0 0.0
vertex 40.0 12.5 6.0
endloop
endfacet
facet normal 1.0 7.88435680035235e-016 -7.5455758440872e-016
outer loop
vertex 40.0 7.50000000000003 6.0
vertex 40.0 12.5 6.0
vertex 40.0 7.50000000000003 8.00000000000001
endloop
endfacet
facet normal 1.0 7.88435680035235e-016 -7.5455758440872e-016
outer loop
vertex 40.0 12.5 6.0
vertex 40.0 60.0 0.0
vertex 40.0 60.0 6.0
endloop
endfacet
facet normal 1.0 7.88435680035235e-016 -7.5455758440872e-016
outer loop
vertex 40.0 12.5 8.00000000000001
vertex 40.0 7.50000000000003 8.00000000000001
vertex 40.0 12.5 6.0
endloop
endfacet
facet normal 5.63993296509581e-016 -1.0 0.0
outer loop
vertex 32.5 21.0 8.0
vertex 27.5 21.0 6.0
vertex 32.5 21.0 6.0
endloop
endfacet
facet normal 5.63993296509581e-016 -1.0 0.0
outer loop
vertex 27.5 21.0 6.0
vertex 32.5 21.0 8.0
vertex 27.5 21.0 8.0
endloop
endfacet
facet normal 1.0 0.0 0.0
outer loop
vertex 32.5 27.8 6.0
vertex 32.5 21.0 8.0
vertex 32.5 21.0 6.0
endloop
endfacet
facet normal 1.0 0.0 0.0
outer loop
vertex 32.5 21.0 8.0
vertex 32.5 27.8 6.0
vertex 32.5 27.8 8.0
endloop
endfacet
facet normal 1.0 0.0 0.0
outer loop
vertex 27.8 10.0 6.0
vertex 27.8 7.50000000000002 8.00000000000001
vertex 27.8 7.50000000000002 6.0
endloop
endfacet
facet normal 1.0 0.0 0.0
outer loop
vertex 27.8 7.50000000000002 8.00000000000001
vertex 27.8 10.0 6.0
vertex 27.8 12.5 8.00000000000001
endloop
endfacet
facet normal 1.0 0.0 0.0
outer loop
vertex 27.8 12.5 8.00000000000001
vertex 27.8 10.0 6.0
vertex 27.8 12.5 6.0
endloop
endfacet
facet normal 0.382683432365095 0.923879532511285 0.0
outer loop
vertex 28.4443650813896 48.4443650813896 6.0
vertex 29.9999999999999 47.8 0.0
vertex 28.4443650813896 48.4443650813896 0.0
endloop
endfacet
facet normal 0.382683432365095 0.923879532511285 0.0
outer loop
vertex 29.9999999999999 47.8 0.0
vertex 28.4443650813896 48.4443650813896 6.0
vertex 29.9999999999999 47.8 6.0
endloop
endfacet
facet normal 0.0 0.0 1.0
outer loop
vertex 32.4999999999999 32.2 8.00000000000001
vertex 27.5 47.8 8.00000000000001
vertex 27.5 32.2 8.00000000000001
endloop
endfacet
facet normal 0.0 0.0 1.0
outer loop
vertex 27.5 47.8 8.00000000000001
vertex 32.4999999999999 32.2 8.00000000000001
vertex 32.4999999999999 47.8 8.00000000000001
endloop
endfacet
facet normal 0.382683432365093 -0.923879532511286 0.0
outer loop
vertex 30.0 12.2 6.0
vertex 28.4443650813896 11.5556349186104 0.0
vertex 30.0 12.2 0.0
endloop
endfacet
facet normal 0.382683432365093 -0.923879532511286 0.0
outer loop
vertex 28.4443650813896 11.5556349186104 0.0
vertex 30.0 12.2 6.0
vertex 28.4443650813896 11.5556349186104 6.0
endloop
endfacet
facet normal 0.923879532511285 0.382683432365095 0.0
outer loop
vertex 7.80000000000003 10.0 0.0
vertex 8.44436508138964 8.4443650813896 6.0
vertex 8.44436508138964 8.4443650813896 0.0
endloop
endfacet
facet normal 0.923879532511285 0.382683432365095 0.0
outer loop
vertex 8.44436508138964 8.4443650813896 6.0
vertex 7.80000000000003 10.0 0.0
vertex 7.80000000000003 10.0 6.0
endloop
endfacet
facet normal 0.382683432365087 -0.923879532511288 0.0
outer loop
vertex 29.9999999999999 52.2 6.0
vertex 28.4443650813896 51.5556349186104 0.0
vertex 29.9999999999999 52.2 0.0
endloop
endfacet
facet normal 0.382683432365087 -0.923879532511288 0.0
outer loop
vertex 28.4443650813896 51.5556349186104 0.0
vertex 29.9999999999999 52.2 6.0
vertex 28.4443650813896 51.5556349186104 6.0
endloop
endfacet
facet normal 0.382683432365102 -0.923879532511282 -1.3376533602941e-018
outer loop
vertex 29.9999999999999 32.2 6.0
vertex 28.4443650813896 31.5556349186104 0.0
vertex 29.9999999999999 32.2 0.0
endloop
endfacet
facet normal 0.382683432365102 -0.923879532511282 -1.3376533602941e-018
outer loop
vertex 28.4443650813896 31.5556349186104 0.0
vertex 29.9999999999999 32.2 6.0
vertex 28.4443650813896 31.5556349186104 6.0
endloop
endfacet
facet normal -7.23068328858436e-016 1.0 -3.50458015182843e-032
outer loop
vertex 32.2 12.5 6.0
vertex 40.0 12.5 8.00000000000001
vertex 40.0 12.5 6.0
endloop
endfacet
facet normal -7.23068328858436e-016 1.0 -3.50458015182843e-032
outer loop
vertex 40.0 12.5 8.00000000000001
vertex 32.2 12.5 6.0
vertex 32.2 12.5 8.00000000000001
endloop
endfacet
facet normal 0.0 0.0 1.0
outer loop
vertex 32.5 21.0 8.0
vertex 27.5 27.8 8.0
vertex 27.5 21.0 8.0
endloop
endfacet
facet normal 0.0 0.0 1.0
outer loop
vertex 27.5 27.8 8.0
vertex 32.5 21.0 8.0
vertex 32.5 27.8 8.0
endloop
endfacet
facet normal -0.382683432365094 -0.923879532511285 2.25256238493554e-018
outer loop
vertex 11.5556349186104 11.5556349186104 6.0
vertex 10.0 12.2 0.0
vertex 11.5556349186104 11.5556349186104 0.0
endloop
endfacet
facet normal -0.382683432365094 -0.923879532511285 2.25256238493554e-018
outer loop
vertex 10.0 12.2 0.0
vertex 11.5556349186104 11.5556349186104 6.0
vertex 10.0 12.2 6.0
endloop
endfacet
facet normal -0.923879532511285 -0.382683432365095 0.0
outer loop
vertex 11.5556349186104 11.5556349186104 6.0
vertex 12.2 10.0 0.0
vertex 12.2 10.0 6.0
endloop
endfacet
facet normal -0.923879532511285 -0.382683432365095 0.0
outer loop
vertex 12.2 10.0 0.0
vertex 11.5556349186104 11.5556349186104 6.0
vertex 11.5556349186104 11.5556349186104 0.0
endloop
endfacet
facet normal -1.0 0.0 0.0
outer loop
vertex 27.5 47.8 8.00000000000001
vertex 27.5 32.2 6.0
vertex 27.5 32.2 8.00000000000001
endloop
endfacet
facet normal -1.0 0.0 0.0
outer loop
vertex 27.5 32.2 6.0
vertex 27.5 47.8 8.00000000000001
vertex 27.5 47.8 6.0
endloop
endfacet
facet normal -0.923879532511285 0.382683432365094 0.0
outer loop
vertex 32.2 30.0 6.0
vertex 31.5556349186104 28.4443650813896 0.0
vertex 31.5556349186104 28.4443650813896 6.0
endloop
endfacet
facet normal -0.923879532511285 0.382683432365094 0.0
outer loop
vertex 31.5556349186104 28.4443650813896 0.0
vertex 32.2 30.0 6.0
vertex 32.2 30.0 0.0
endloop
endfacet
facet normal 1.0 -5.78454663086748e-015 0.0
outer loop
vertex 32.4999999999999 60.0 6.0
vertex 32.4999999999999 52.2 8.00000000000001
vertex 32.4999999999999 52.2 6.0
endloop
endfacet
facet normal 1.0 -5.78454663086748e-015 0.0
outer loop
vertex 32.4999999999999 52.2 8.00000000000001
vertex 32.4999999999999 60.0 6.0
vertex 32.4999999999999 60.0 8.00000000000001
endloop
endfacet
facet normal -0.923879532511285 0.382683432365095 4.31188546733424e-018
outer loop
vertex 32.2 10.0 6.0
vertex 31.5556349186104 8.44436508138961 0.0
vertex 31.5556349186104 8.44436508138961 6.0
endloop
endfacet
facet normal -0.923879532511285 0.382683432365095 4.31188546733424e-018
outer loop
vertex 31.5556349186104 8.44436508138961 0.0
vertex 32.2 10.0 6.0
vertex 32.2 10.0 0.0
endloop
endfacet
facet normal 0.0 0.0 1.0
outer loop
vertex 32.4999999999999 52.2 8.00000000000001
vertex 27.5 60.0 8.00000000000001
vertex 27.5 52.2 8.00000000000001
endloop
endfacet
facet normal 0.0 0.0 1.0
outer loop
vertex 27.5 60.0 8.00000000000001
vertex 32.4999999999999 52.2 8.00000000000001
vertex 32.4999999999999 60.0 8.00000000000001
endloop
endfacet
facet normal -7.23068328858437e-016 1.0 0.0
outer loop
vertex 3.94795307556706e-014 12.5 8.0
vertex 7.80000000000003 12.5 6.0
vertex 3.94795307556706e-014 12.5 6.0
endloop
endfacet
facet normal -7.23068328858437e-016 1.0 0.0
outer loop
vertex 7.80000000000003 12.5 6.0
vertex 3.94795307556706e-014 12.5 8.0
vertex 7.80000000000003 12.5 8.0
endloop
endfacet
facet normal -2.25597318603834e-015 1.0 -9.39988827515966e-016
outer loop
vertex 27.5 47.8 8.00000000000001
vertex 29.9999999999999 47.8 6.0
vertex 27.5 47.8 6.0
endloop
endfacet
facet normal -2.25597318603834e-015 1.0 -9.39988827515966e-016
outer loop
vertex 29.9999999999999 47.8 6.0
vertex 27.5 47.8 8.00000000000001
vertex 32.4999999999999 47.8 6.0
endloop
endfacet
facet normal -2.25597318603834e-015 1.0 -9.39988827515966e-016
outer loop
vertex 32.4999999999999 47.8 6.0
vertex 27.5 47.8 8.00000000000001
vertex 32.4999999999999 47.8 8.00000000000001
endloop
endfacet
facet normal -0.382683432365086 0.923879532511289 -1.33765336029529e-018
outer loop
vertex 29.9999999999999 47.8 6.0
vertex 31.5556349186104 48.4443650813896 0.0
vertex 29.9999999999999 47.8 0.0
endloop
endfacet
facet normal -0.382683432365086 0.923879532511289 -1.33765336029529e-018
outer loop
vertex 31.5556349186104 48.4443650813896 0.0
vertex 29.9999999999999 47.8 6.0
vertex 31.5556349186104 48.4443650813896 6.0
endloop
endfacet
facet normal 1.0 0.0 0.0
outer loop
vertex 32.4999999999999 47.8 6.0
vertex 32.4999999999999 32.2 8.00000000000001
vertex 32.4999999999999 32.2 6.0
endloop
endfacet
facet normal 1.0 0.0 0.0
outer loop
vertex 32.4999999999999 32.2 8.00000000000001
vertex 32.4999999999999 47.8 6.0
vertex 32.4999999999999 47.8 8.00000000000001
endloop
endfacet
facet normal 0.923879532511284 -0.382683432365096 -1.33765336029456e-018
outer loop
vertex 28.4443650813896 31.5556349186104 0.0
vertex 27.8 30.0 6.0
vertex 27.8 30.0 0.0
endloop
endfacet
facet normal 0.923879532511284 -0.382683432365096 -1.33765336029456e-018
outer loop
vertex 27.8 30.0 6.0
vertex 28.4443650813896 31.5556349186104 0.0
vertex 28.4443650813896 31.5556349186104 6.0
endloop
endfacet
facet normal 0.0 -1.0 0.0
outer loop
vertex 32.4999999999999 52.2 8.00000000000001
vertex 29.9999999999999 52.2 6.0
vertex 32.4999999999999 52.2 6.0
endloop
endfacet
facet normal 0.0 -1.0 0.0
outer loop
vertex 29.9999999999999 52.2 6.0
vertex 32.4999999999999 52.2 8.00000000000001
vertex 27.5 52.2 6.0
endloop
endfacet
facet normal 0.0 -1.0 0.0
outer loop
vertex 27.5 52.2 6.0
vertex 32.4999999999999 52.2 8.00000000000001
vertex 27.5 52.2 8.00000000000001
endloop
endfacet
facet normal 1.0 1.12798659301916e-015 4.69994413757984e-016
outer loop
vertex 7.80000000000003 10.0 6.0
vertex 7.80000000000003 7.5 8.0
vertex 7.80000000000003 7.5 6.0
endloop
endfacet
facet normal 1.0 1.12798659301916e-015 4.69994413757984e-016
outer loop
vertex 7.80000000000003 7.5 8.0
vertex 7.80000000000003 10.0 6.0
vertex 7.80000000000003 12.5 8.0
endloop
endfacet
facet normal 1.0 1.12798659301916e-015 4.69994413757984e-016
outer loop
vertex 7.80000000000003 12.5 8.0
vertex 7.80000000000003 10.0 6.0
vertex 7.80000000000003 12.5 6.0
endloop
endfacet
facet normal 0.382683432365083 0.923879532511289 0.0
outer loop
vertex 28.4443650813896 8.44436508138961 6.0
vertex 30.0 7.80000000000002 0.0
vertex 28.4443650813896 8.44436508138961 0.0
endloop
endfacet
facet normal 0.382683432365083 0.923879532511289 0.0
outer loop
vertex 30.0 7.80000000000002 0.0
vertex 28.4443650813896 8.44436508138961 6.0
vertex 30.0 7.80000000000002 6.0
endloop
endfacet
facet normal -0.894427190999916 0.447213595499957 0.0
outer loop
vertex 20.0 60.0 6.0
vertex 0.0 20.0 0.0
vertex 0.0 20.0 6.0
endloop
endfacet
facet normal -0.894427190999916 0.447213595499957 0.0
outer loop
vertex 0.0 20.0 0.0
vertex 20.0 60.0 6.0
vertex 20.0 60.0 0.0
endloop
endfacet
facet normal 0.0 0.0 1.0
outer loop
vertex 12.2 7.50000000000001 8.00000000000001
vertex 27.8 12.5 8.00000000000001
vertex 12.2 12.5 8.00000000000001
endloop
endfacet
facet normal 0.0 0.0 1.0
outer loop
vertex 27.8 12.5 8.00000000000001
vertex 12.2 7.50000000000001 8.00000000000001
vertex 27.8 7.50000000000002 8.00000000000001
endloop
endfacet
facet normal 0.0 0.0 1.0
outer loop
vertex 7.80000000000003 7.5 8.0
vertex 3.94795307556706e-014 12.5 8.0
vertex 0.0 7.5 8.0
endloop
endfacet
facet normal 0.0 0.0 1.0
outer loop
vertex 3.94795307556706e-014 12.5 8.0
vertex 7.80000000000003 7.5 8.0
vertex 7.80000000000003 12.5 8.0
endloop
endfacet
facet normal -1.12798659301916e-015 1.0 -4.69994413757984e-016
outer loop
vertex 27.5 27.8 6.0
vertex 32.5 27.8 6.0
vertex 30.0 27.8 6.0
endloop
endfacet
facet normal -1.12798659301916e-015 1.0 -4.69994413757984e-016
outer loop
vertex 32.5 27.8 6.0
vertex 27.5 27.8 6.0
vertex 32.5 27.8 8.0
endloop
endfacet
facet normal -1.12798659301916e-015 1.0 -4.69994413757984e-016
outer loop
vertex 32.5 27.8 8.0
vertex 27.5 27.8 6.0
vertex 27.5 27.8 8.0
endloop
endfacet
facet normal -0.382683432365077 -0.923879532511292 0.0
outer loop
vertex 31.5556349186104 51.5556349186104 6.0
vertex 29.9999999999999 52.2 0.0
vertex 31.5556349186104 51.5556349186104 0.0
endloop
endfacet
facet normal -0.382683432365077 -0.923879532511292 0.0
outer loop
vertex 29.9999999999999 52.2 0.0
vertex 31.5556349186104 51.5556349186104 6.0
vertex 29.9999999999999 52.2 6.0
endloop
endfacet
facet normal -1.0 4.6446506771377e-016 2.19330726420392e-015
outer loop
vertex 3.94795307556706e-014 12.5 8.0
vertex 0.0 7.5 6.0
vertex 0.0 7.5 8.0
endloop
endfacet
facet normal -1.0 4.6446506771377e-016 2.19330726420392e-015
outer loop
vertex 0.0 7.5 6.0
vertex 0.0 -2.11636793464762e-017 0.0
vertex 0.0 -2.11636793464762e-017 6.0
endloop
endfacet
facet normal -1.0 4.6446506771377e-016 2.19330726420392e-015
outer loop
vertex 0.0 -2.11636793464762e-017 0.0
vertex 0.0 7.5 6.0
vertex 0.0 20.0 0.0
endloop
endfacet
facet normal -1.0 4.6446506771377e-016 2.19330726420392e-015
outer loop
vertex 0.0 20.0 0.0
vertex 0.0 7.5 6.0
vertex 3.94795307556706e-014 12.5 6.0
endloop
endfacet
facet normal -1.0 4.6446506771377e-016 2.19330726420392e-015
outer loop
vertex 3.94795307556706e-014 12.5 6.0
vertex 0.0 7.5 6.0
vertex 3.94795307556706e-014 12.5 8.0
endloop
endfacet
facet normal -1.0 4.6446506771377e-016 2.19330726420392e-015
outer loop
vertex 0.0 20.0 0.0
vertex 3.94795307556706e-014 12.5 6.0
vertex 0.0 20.0 6.0
endloop
endfacet
facet normal 0.923879532511284 0.382683432365096 -1.33765336029456e-018
outer loop
vertex 27.8 30.0 0.0
vertex 28.4443650813896 28.4443650813896 6.0
vertex 28.4443650813896 28.4443650813896 0.0
endloop
endfacet
facet normal 0.923879532511284 0.382683432365096 -1.33765336029456e-018
outer loop
vertex 28.4443650813896 28.4443650813896 6.0
vertex 27.8 30.0 0.0
vertex 27.8 30.0 6.0
endloop
endfacet
facet normal -0.923879532511285 0.382683432365095 0.0
outer loop
vertex 12.2 10.0 6.0
vertex 11.5556349186104 8.4443650813896 0.0
vertex 11.5556349186104 8.4443650813896 6.0
endloop
endfacet
facet normal -0.923879532511285 0.382683432365095 0.0
outer loop
vertex 11.5556349186104 8.4443650813896 0.0
vertex 12.2 10.0 6.0
vertex 12.2 10.0 0.0
endloop
endfacet
facet normal 7.07194719451465e-016 -1.0 0.0
outer loop
vertex 40.0 2.82666250987121e-014 6.0
vertex 0.0 -2.11636793464762e-017 0.0
vertex 40.0 2.82666250987121e-014 0.0
endloop
endfacet
facet normal 7.07194719451465e-016 -1.0 0.0
outer loop
vertex 0.0 -2.11636793464762e-017 0.0
vertex 40.0 2.82666250987121e-014 6.0
vertex 0.0 -2.11636793464762e-017 6.0
endloop
endfacet
facet normal 0.382683432365093 -0.923879532511286 0.0
outer loop
vertex 10.0 12.2 6.0
vertex 8.44436508138964 11.5556349186104 0.0
vertex 10.0 12.2 0.0
endloop
endfacet
facet normal 0.382683432365093 -0.923879532511286 0.0
outer loop
vertex 8.44436508138964 11.5556349186104 0.0
vertex 10.0 12.2 6.0
vertex 8.44436508138964 11.5556349186104 6.0
endloop
endfacet
facet normal 0.923879532511294 0.382683432365072 0.0
outer loop
vertex 27.8 10.0 0.0
vertex 28.4443650813896 8.44436508138961 6.0
vertex 28.4443650813896 8.44436508138961 0.0
endloop
endfacet
facet normal 0.923879532511294 0.382683432365072 0.0
outer loop
vertex 28.4443650813896 8.44436508138961 6.0
vertex 27.8 10.0 0.0
vertex 27.8 10.0 6.0
endloop
endfacet
facet normal 0.0 0.0 -1.0
outer loop
vertex 20.0 60.0 0.0
vertex 0.0 -2.11636793464762e-017 0.0
vertex 0.0 20.0 0.0
endloop
endfacet
facet normal 0.0 0.0 -1.0
outer loop
vertex 0.0 -2.11636793464762e-017 0.0
vertex 20.0 60.0 0.0
vertex 7.80000000000003 10.0 0.0
endloop
endfacet
facet normal 0.0 0.0 -1.0
outer loop
vertex 7.80000000000003 10.0 0.0
vertex 20.0 60.0 0.0
vertex 8.44436508138964 11.5556349186104 0.0
endloop
endfacet
facet normal 0.0 0.0 -1.0
outer loop
vertex 8.44436508138964 11.5556349186104 0.0
vertex 20.0 60.0 0.0
vertex 10.0 12.2 0.0
endloop
endfacet
facet normal 0.0 0.0 -1.0
outer loop
vertex 10.0 12.2 0.0
vertex 20.0 60.0 0.0
vertex 11.5556349186104 11.5556349186104 0.0
endloop
endfacet
facet normal 0.0 0.0 -1.0
outer loop
vertex 11.5556349186104 11.5556349186104 0.0
vertex 20.0 60.0 0.0
vertex 12.2 10.0 0.0
endloop
endfacet
facet normal 0.0 0.0 -1.0
outer loop
vertex 20.0 60.0 0.0
vertex 28.4443650813896 51.5556349186104 0.0
vertex 27.7999999999999 50.0 0.0
endloop
endfacet
facet normal 0.0 0.0 -1.0
outer loop
vertex 28.4443650813896 51.5556349186104 0.0
vertex 20.0 60.0 0.0
vertex 40.0 60.0 0.0
endloop
endfacet
facet normal 0.0 0.0 -1.0
outer loop
vertex 28.4443650813896 51.5556349186104 0.0
vertex 40.0 60.0 0.0
vertex 29.9999999999999 52.2 0.0
endloop
endfacet
facet normal 0.0 0.0 -1.0
outer loop
vertex 29.9999999999999 52.2 0.0
vertex 40.0 60.0 0.0
vertex 31.5556349186104 51.5556349186104 0.0
endloop
endfacet
facet normal 0.0 0.0 -1.0
outer loop
vertex 31.5556349186104 51.5556349186104 0.0
vertex 40.0 60.0 0.0
vertex 32.1999999999999 50.0 0.0
endloop
endfacet
facet normal 0.0 0.0 -1.0
outer loop
vertex 32.1999999999999 50.0 0.0
vertex 40.0 60.0 0.0
vertex 32.2 30.0 0.0
endloop
endfacet
facet normal 0.0 0.0 -1.0
outer loop
vertex 32.2 30.0 0.0
vertex 40.0 60.0 0.0
vertex 32.2 10.0 0.0
endloop
endfacet
facet normal 0.0 0.0 -1.0
outer loop
vertex 0.0 -2.11636793464762e-017 0.0
vertex 10.0 7.80000000000001 0.0
vertex 40.0 2.82666250987121e-014 0.0
endloop
endfacet
facet normal 0.0 0.0 -1.0
outer loop
vertex 10.0 7.80000000000001 0.0
vertex 0.0 -2.11636793464762e-017 0.0
vertex 8.44436508138964 8.4443650813896 0.0
endloop
endfacet
facet normal 0.0 0.0 -1.0
outer loop
vertex 8.44436508138964 8.4443650813896 0.0
vertex 0.0 -2.11636793464762e-017 0.0
vertex 7.80000000000003 10.0 0.0
endloop
endfacet
facet normal 0.0 0.0 -1.0
outer loop
vertex 40.0 2.82666250987121e-014 0.0
vertex 10.0 7.80000000000001 0.0
vertex 11.5556349186104 8.4443650813896 0.0
endloop
endfacet
facet normal 0.0 0.0 -1.0
outer loop
vertex 40.0 2.82666250987121e-014 0.0
vertex 11.5556349186104 8.4443650813896 0.0
vertex 12.2 10.0 0.0
endloop
endfacet
facet normal 0.0 0.0 -1.0
outer loop
vertex 40.0 2.82666250987121e-014 0.0
vertex 12.2 10.0 0.0
vertex 28.4443650813896 8.44436508138961 0.0
endloop
endfacet
facet normal 0.0 0.0 -1.0
outer loop
vertex 28.4443650813896 8.44436508138961 0.0
vertex 12.2 10.0 0.0
vertex 27.8 10.0 0.0
endloop
endfacet
facet normal 0.0 0.0 -1.0
outer loop
vertex 27.8 10.0 0.0
vertex 12.2 10.0 0.0
vertex 20.0 60.0 0.0
endloop
endfacet
facet normal 0.0 0.0 -1.0
outer loop
vertex 27.8 10.0 0.0
vertex 20.0 60.0 0.0
vertex 27.8 30.0 0.0
endloop
endfacet
facet normal 0.0 0.0 -1.0
outer loop
vertex 27.8 30.0 0.0
vertex 20.0 60.0 0.0
vertex 27.7999999999999 50.0 0.0
endloop
endfacet
facet normal 0.0 0.0 -1.0
outer loop
vertex 40.0 2.82666250987121e-014 0.0
vertex 28.4443650813896 8.44436508138961 0.0
vertex 30.0 7.80000000000002 0.0
endloop
endfacet
facet normal 0.0 0.0 -1.0
outer loop
vertex 40.0 2.82666250987121e-014 0.0
vertex 30.0 7.80000000000002 0.0
vertex 31.5556349186104 8.44436508138961 0.0
endloop
endfacet
facet normal 0.0 0.0 -1.0
outer loop
vertex 40.0 2.82666250987121e-014 0.0
vertex 31.5556349186104 8.44436508138961 0.0
vertex 32.2 10.0 0.0
endloop
endfacet
facet normal 0.0 0.0 -1.0
outer loop
vertex 40.0 2.82666250987121e-014 0.0
vertex 32.2 10.0 0.0
vertex 40.0 60.0 0.0
endloop
endfacet
facet normal 0.0 0.0 -1.0
outer loop
vertex 28.4443650813896 28.4443650813896 0.0
vertex 27.8 10.0 0.0
vertex 27.8 30.0 0.0
endloop
endfacet
facet normal 0.0 0.0 -1.0
outer loop
vertex 27.8 10.0 0.0
vertex 28.4443650813896 28.4443650813896 0.0
vertex 28.4443650813896 11.5556349186104 0.0
endloop
endfacet
facet normal 0.0 0.0 -1.0
outer loop
vertex 28.4443650813896 11.5556349186104 0.0
vertex 28.4443650813896 28.4443650813896 0.0
vertex 30.0 27.8 0.0
endloop
endfacet
facet normal 0.0 0.0 -1.0
outer loop
vertex 28.4443650813896 11.5556349186104 0.0
vertex 30.0 27.8 0.0
vertex 30.0 12.2 0.0
endloop
endfacet
facet normal 0.0 0.0 -1.0
outer loop
vertex 30.0 12.2 0.0
vertex 30.0 27.8 0.0
vertex 31.5556349186104 28.4443650813896 0.0
endloop
endfacet
facet normal 0.0 0.0 -1.0
outer loop
vertex 30.0 12.2 0.0
vertex 31.5556349186104 28.4443650813896 0.0
vertex 31.5556349186104 11.5556349186104 0.0
endloop
endfacet
facet normal 0.0 0.0 -1.0
outer loop
vertex 31.5556349186104 11.5556349186104 0.0
vertex 31.5556349186104 28.4443650813896 0.0
vertex 32.2 30.0 0.0
endloop
endfacet
facet normal 0.0 0.0 -1.0
outer loop
vertex 31.5556349186104 11.5556349186104 0.0
vertex 32.2 30.0 0.0
vertex 32.2 10.0 0.0
endloop
endfacet
facet normal 0.0 0.0 -1.0
outer loop
vertex 28.4443650813896 48.4443650813896 0.0
vertex 27.8 30.0 0.0
vertex 27.7999999999999 50.0 0.0
endloop
endfacet
facet normal 0.0 0.0 -1.0
outer loop
vertex 27.8 30.0 0.0
vertex 28.4443650813896 48.4443650813896 0.0
vertex 28.4443650813896 31.5556349186104 0.0
endloop
endfacet
facet normal 0.0 0.0 -1.0
outer loop
vertex 28.4443650813896 31.5556349186104 0.0
vertex 28.4443650813896 48.4443650813896 0.0
vertex 29.9999999999999 47.8 0.0
endloop
endfacet
facet normal 0.0 0.0 -1.0
outer loop
vertex 28.4443650813896 31.5556349186104 0.0
vertex 29.9999999999999 47.8 0.0
vertex 29.9999999999999 32.2 0.0
endloop
endfacet
facet normal 0.0 0.0 -1.0
outer loop
vertex 29.9999999999999 32.2 0.0
vertex 29.9999999999999 47.8 0.0
vertex 31.5556349186104 48.4443650813896 0.0
endloop
endfacet
facet normal 0.0 0.0 -1.0
outer loop
vertex 29.9999999999999 32.2 0.0
vertex 31.5556349186104 48.4443650813896 0.0
vertex 31.5556349186104 31.5556349186104 0.0
endloop
endfacet
facet normal 0.0 0.0 -1.0
outer loop
vertex 31.5556349186104 31.5556349186104 0.0
vertex 31.5556349186104 48.4443650813896 0.0
vertex 32.1999999999999 50.0 0.0
endloop
endfacet
facet normal 0.0 0.0 -1.0
outer loop
vertex 31.5556349186104 31.5556349186104 0.0
vertex 32.1999999999999 50.0 0.0
vertex 32.2 30.0 0.0
endloop
endfacet
facet normal -0.38268343236508 -0.923879532511291 0.0
outer loop
vertex 31.5556349186104 31.5556349186104 6.0
vertex 29.9999999999999 32.2 0.0
vertex 31.5556349186104 31.5556349186104 0.0
endloop
endfacet
facet normal -0.38268343236508 -0.923879532511291 0.0
outer loop
vertex 29.9999999999999 32.2 0.0
vertex 31.5556349186104 31.5556349186104 6.0
vertex 29.9999999999999 32.2 6.0
endloop
endfacet
facet normal -0.923879532511284 -0.382683432365096 0.0
outer loop
vertex 31.5556349186104 31.5556349186104 6.0
vertex 32.2 30.0 0.0
vertex 32.2 30.0 6.0
endloop
endfacet
facet normal -0.923879532511284 -0.382683432365096 0.0
outer loop
vertex 32.2 30.0 0.0
vertex 31.5556349186104 31.5556349186104 6.0
vertex 31.5556349186104 31.5556349186104 0.0
endloop
endfacet
facet normal 0.0 1.0 0.0
outer loop
vertex 27.5 60.0 8.00000000000001
vertex 32.4999999999999 60.0 6.0
vertex 27.5 60.0 6.0
endloop
endfacet
facet normal 0.0 1.0 0.0
outer loop
vertex 32.4999999999999 60.0 6.0
vertex 27.5 60.0 8.00000000000001
vertex 32.4999999999999 60.0 8.00000000000001
endloop
endfacet
facet normal 0.0 1.0 0.0
outer loop
vertex 20.0 60.0 6.0
vertex 40.0 60.0 0.0
vertex 20.0 60.0 0.0
endloop
endfacet
facet normal 0.0 1.0 0.0
outer loop
vertex 40.0 60.0 0.0
vertex 20.0 60.0 6.0
vertex 40.0 60.0 6.0
endloop
endfacet
facet normal 0.0 1.0 0.0
outer loop
vertex 40.0 60.0 6.0
vertex 20.0 60.0 6.0
vertex 27.5 60.0 6.0
endloop
endfacet
facet normal 0.0 1.0 0.0
outer loop
vertex 40.0 60.0 6.0
vertex 27.5 60.0 6.0
vertex 32.4999999999999 60.0 6.0
endloop
endfacet
facet normal 5.42301246643826e-016 -1.0 5.25687022774181e-032
outer loop
vertex 27.8 7.50000000000002 8.00000000000001
vertex 12.2 7.50000000000001 6.0
vertex 27.8 7.50000000000002 6.0
endloop
endfacet
facet normal 5.42301246643826e-016 -1.0 5.25687022774181e-032
outer loop
vertex 12.2 7.50000000000001 6.0
vertex 27.8 7.50000000000002 8.00000000000001
vertex 12.2 7.50000000000001 8.00000000000001
endloop
endfacet
facet normal 0.923879532511287 -0.382683432365091 0.0
outer loop
vertex 28.4443650813896 51.5556349186104 0.0
vertex 27.7999999999999 50.0 6.0
vertex 27.7999999999999 50.0 0.0
endloop
endfacet
facet normal 0.923879532511287 -0.382683432365091 0.0
outer loop
vertex 27.7999999999999 50.0 6.0
vertex 28.4443650813896 51.5556349186104 0.0
vertex 28.4443650813896 51.5556349186104 6.0
endloop
endfacet
facet normal -1.0 0.0 0.0
outer loop
vertex 27.5 27.8 8.0
vertex 27.5 21.0 6.0
vertex 27.5 21.0 8.0
endloop
endfacet
facet normal -1.0 0.0 0.0
outer loop
vertex 27.5 21.0 6.0
vertex 27.5 27.8 8.0
vertex 27.5 27.8 6.0
endloop
endfacet
facet normal 5.42301246643827e-016 -1.0 0.0
outer loop
vertex 40.0 7.50000000000003 8.00000000000001
vertex 32.2 7.50000000000002 6.0
vertex 40.0 7.50000000000003 6.0
endloop
endfacet
facet normal 5.42301246643827e-016 -1.0 0.0
outer loop
vertex 32.2 7.50000000000002 6.0
vertex 40.0 7.50000000000003 8.00000000000001
vertex 32.2 7.50000000000002 8.00000000000001
endloop
endfacet
facet normal -1.0 -2.25597318603832e-015 -9.39988827515965e-016
outer loop
vertex 12.2 12.5 8.00000000000001
vertex 12.2 7.50000000000001 6.0
vertex 12.2 7.50000000000001 8.00000000000001
endloop
endfacet
facet normal -1.0 -2.25597318603832e-015 -9.39988827515965e-016
outer loop
vertex 12.2 7.50000000000001 6.0
vertex 12.2 12.5 8.00000000000001
vertex 12.2 10.0 6.0
endloop
endfacet
facet normal -1.0 -2.25597318603832e-015 -9.39988827515965e-016
outer loop
vertex 12.2 10.0 6.0
vertex 12.2 12.5 8.00000000000001
vertex 12.2 12.5 6.0
endloop
endfacet
facet normal 0.382683432365093 0.923879532511286 0.0
outer loop
vertex 8.44436508138964 8.4443650813896 6.0
vertex 10.0 7.80000000000001 0.0
vertex 8.44436508138964 8.4443650813896 0.0
endloop
endfacet
facet normal 0.382683432365093 0.923879532511286 0.0
outer loop
vertex 10.0 7.80000000000001 0.0
vertex 8.44436508138964 8.4443650813896 6.0
vertex 10.0 7.80000000000001 6.0
endloop
endfacet
facet normal 0.382683432365095 0.923879532511285 -1.33765336029459e-018
outer loop
vertex 28.4443650813896 28.4443650813896 6.0
vertex 30.0 27.8 0.0
vertex 28.4443650813896 28.4443650813896 0.0
endloop
endfacet
facet normal 0.382683432365095 0.923879532511285 -1.33765336029459e-018
outer loop
vertex 30.0 27.8 0.0
vertex 28.4443650813896 28.4443650813896 6.0
vertex 30.0 27.8 6.0
endloop
endfacet
facet normal 3.61534164429216e-016 -1.0 0.0
outer loop
vertex 7.80000000000003 7.5 8.0
vertex 0.0 7.5 6.0
vertex 7.80000000000003 7.5 6.0
endloop
endfacet
facet normal 3.61534164429216e-016 -1.0 0.0
outer loop
vertex 0.0 7.5 6.0
vertex 7.80000000000003 7.5 8.0
vertex 0.0 7.5 8.0
endloop
endfacet
facet normal 0.0 0.0 1.0
outer loop
vertex 40.0 7.50000000000003 8.00000000000001
vertex 32.2 12.5 8.00000000000001
vertex 32.2 7.50000000000002 8.00000000000001
endloop
endfacet
facet normal 0.0 0.0 1.0
outer loop
vertex 32.2 12.5 8.00000000000001
vertex 40.0 7.50000000000003 8.00000000000001
vertex 40.0 12.5 8.00000000000001
endloop
endfacet
facet normal -0.382683432365092 0.923879532511286 -1.3376533602948e-018
outer loop
vertex 10.0 7.80000000000001 6.0
vertex 11.5556349186104 8.4443650813896 0.0
vertex 10.0 7.80000000000001 0.0
endloop
endfacet
facet normal -0.382683432365092 0.923879532511286 -1.3376533602948e-018
outer loop
vertex 11.5556349186104 8.4443650813896 0.0
vertex 10.0 7.80000000000001 6.0
vertex 11.5556349186104 8.4443650813896 6.0
endloop
endfacet
endsolid 90 thin R
