solid 90 thin L
facet normal -0.382683432362648 0.923879532512298 2.77555756156289e-017
outer loop
vertex 10.0000000000735 27.7999999999735 2.25597318603832e-014
vertex 11.5556349186856 28.444365081359 6.00000000000001
vertex 11.5556349186856 28.444365081359 0.0
endloop
endfacet
facet normal -0.382683432362648 0.923879532512298 2.77555756156289e-017
outer loop
vertex 11.5556349186856 28.444365081359 6.00000000000001
vertex 10.0000000000735 27.7999999999735 2.25597318603832e-014
vertex 10.0000000000735 27.7999999999735 6.00000000000001
endloop
endfacet
facet normal -2.39865243323966e-028 -9.06746774732398e-017 1.0
outer loop
vertex 40.0 -1.05813602324645e-010 5.99999999999999
vertex 2.06392826440638e-011 7.8 6.00000000000001
vertex 5.63993296509579e-015 -4.99600361887498e-017 5.99999999999999
endloop
endfacet
facet normal -2.39865243323966e-028 -9.06746774732398e-017 1.0
outer loop
vertex 2.06392826440638e-011 7.8 6.00000000000001
vertex 40.0 -1.05813602324645e-010 5.99999999999999
vertex 7.80000000002063 7.79999999997936 5.99999999999999
endloop
endfacet
facet normal -2.39865243323966e-028 -9.06746774732398e-017 1.0
outer loop
vertex 7.80000000002063 7.79999999997936 5.99999999999999
vertex 40.0 -1.05813602324645e-010 5.99999999999999
vertex 10.0000000000206 7.79999999997355 5.99999999999999
endloop
endfacet
facet normal -2.39865243323966e-028 -9.06746774732398e-017 1.0
outer loop
vertex 7.80000000002063 7.79999999997936 5.99999999999999
vertex 10.0000000000206 7.79999999997355 5.99999999999999
vertex 8.44436508141193 8.44436508136725 6.00000000000001
endloop
endfacet
facet normal -2.39865243323966e-028 -9.06746774732398e-017 1.0
outer loop
vertex 7.80000000002063 7.79999999997936 5.99999999999999
vertex 8.44436508141193 8.44436508136725 6.00000000000001
vertex 7.80000000002644 9.99999999997936 6.00000000000001
endloop
endfacet
facet normal -2.39865243323966e-028 -9.06746774732398e-017 1.0
outer loop
vertex 10.0000000000206 7.79999999997355 5.99999999999999
vertex 40.0 -1.05813602324645e-010 5.99999999999999
vertex 12.2000000000206 7.79999999996772 5.99999999999999
endloop
endfacet
facet normal -2.39865243323966e-028 -9.06746774732398e-017 1.0
outer loop
vertex 10.0000000000206 7.79999999997355 5.99999999999999
vertex 12.2000000000206 7.79999999996772 5.99999999999999
vertex 11.5556349186328 8.44436508135903 6.00000000000001
endloop
endfacet
facet normal -2.39865243323966e-028 -9.06746774732398e-017 1.0
outer loop
vertex 12.2000000000206 7.79999999996772 5.99999999999999
vertex 40.0 -1.05813602324645e-010 5.99999999999999
vertex 27.8000000000206 7.79999999992646 5.99999999999997
endloop
endfacet
facet normal -2.39865243323966e-028 -9.06746774732398e-017 1.0
outer loop
vertex 27.8000000000206 7.79999999992646 5.99999999999997
vertex 40.0 -1.05813602324645e-010 5.99999999999999
vertex 28.4443650814119 8.44436508131435 5.99999999999999
endloop
endfacet
facet normal -2.39865243323966e-028 -9.06746774732398e-017 1.0
outer loop
vertex 27.8000000000206 7.79999999992646 5.99999999999997
vertex 28.4443650814119 8.44436508131435 5.99999999999999
vertex 27.8000000000265 9.99999999992646 5.99999999999999
endloop
endfacet
facet normal -2.39865243323966e-028 -9.06746774732398e-017 1.0
outer loop
vertex 28.4443650814119 8.44436508131435 5.99999999999999
vertex 40.0 -1.05813602324645e-010 5.99999999999999
vertex 30.0000000000206 7.79999999992064 6.00000000000001
endloop
endfacet
facet normal -2.39865243323966e-028 -9.06746774732398e-017 1.0
outer loop
vertex 30.0000000000206 7.79999999992064 6.00000000000001
vertex 40.0 -1.05813602324645e-010 5.99999999999999
vertex 31.5556349186327 8.44436508130612 5.99999999999999
endloop
endfacet
facet normal -2.39865243323966e-028 -9.06746774732398e-017 1.0
outer loop
vertex 31.5556349186327 8.44436508130612 5.99999999999999
vertex 40.0 -1.05813602324645e-010 5.99999999999999
vertex 32.2000000000206 7.79999999991482 5.99999999999999
endloop
endfacet
facet normal -2.39865243323966e-028 -9.06746774732398e-017 1.0
outer loop
vertex 32.2000000000206 7.79999999991482 5.99999999999999
vertex 40.0 -1.05813602324645e-010 5.99999999999999
vertex 40.0000000000207 7.79999999989419 5.99999999999997
endloop
endfacet
facet normal -2.39865243323966e-028 -9.06746774732398e-017 1.0
outer loop
vertex 32.2000000000264 9.99999999991482 5.99999999999999
vertex 31.5556349186327 8.44436508130612 5.99999999999999
vertex 32.2000000000206 7.79999999991482 5.99999999999999
endloop
endfacet
facet normal -2.39865243323966e-028 -9.06746774732398e-017 1.0
outer loop
vertex 12.2000000000264 9.99999999996773 6.00000000000001
vertex 11.5556349186328 8.44436508135903 6.00000000000001
vertex 12.2000000000206 7.79999999996772 5.99999999999999
endloop
endfacet
facet normal -0.923879532512299 -0.382683432362647 0.0
outer loop
vertex 11.5556349186409 11.5556349185798 6.00000000000001
vertex 12.2000000000264 9.99999999996773 0.0
vertex 12.2000000000264 9.99999999996773 6.00000000000001
endloop
endfacet
facet normal -0.923879532512299 -0.382683432362647 0.0
outer loop
vertex 12.2000000000264 9.99999999996773 0.0
vertex 11.5556349186409 11.5556349185798 6.00000000000001
vertex 11.5556349186409 11.5556349185798 0.0
endloop
endfacet
facet normal 5.21701091893726e-042 1.97215226305253e-030 1.0
outer loop
vertex 12.2000000001381 52.1999999999677 7.20000000000001
vertex 7.80000000015871 59.9999999999794 7.19999999999999
vertex 7.80000000013812 52.1999999999794 7.19999999999999
endloop
endfacet
facet normal 5.21701091893726e-042 1.97215226305253e-030 1.0
outer loop
vertex 7.80000000015871 59.9999999999794 7.19999999999999
vertex 12.2000000001381 52.1999999999677 7.20000000000001
vertex 12.2000000001587 59.9999999999677 7.19999999999999
endloop
endfacet
facet normal 0.923879532512299 0.382683432362646 5.55111512312578e-017
outer loop
vertex 7.80000000007935 29.9999999999794 -2.25597318603832e-014
vertex 8.44436508146484 28.4443650813673 5.99999999999999
vertex 8.44436508146484 28.4443650813673 -2.25597318603832e-014
endloop
endfacet
facet normal 0.923879532512299 0.382683432362646 5.55111512312578e-017
outer loop
vertex 8.44436508146484 28.4443650813673 5.99999999999999
vertex 7.80000000007935 29.9999999999794 -2.25597318603832e-014
vertex 7.80000000007931 29.9999999999794 5.99999999999999
endloop
endfacet
facet normal 0.923879532512299 0.382683432362647 0.0
outer loop
vertex 7.8000000000264 9.99999999997936 0.0
vertex 8.44436508141193 8.44436508136725 6.00000000000001
vertex 8.44436508141189 8.44436508136725 0.0
endloop
endfacet
facet normal 0.923879532512299 0.382683432362647 0.0
outer loop
vertex 8.44436508141193 8.44436508136725 6.00000000000001
vertex 7.8000000000264 9.99999999997936 0.0
vertex 7.80000000002644 9.99999999997936 6.00000000000001
endloop
endfacet
facet normal 5.21701091893726e-042 1.97215226305253e-030 1.0
outer loop
vertex 7.80000000002063 7.79999999997936 7.19999999999999
vertex 3.22787734041707e-011 12.2 7.20000000000001
vertex 2.06392826440638e-011 7.8 7.20000000000001
endloop
endfacet
facet normal 5.21701091893726e-042 1.97215226305253e-030 1.0
outer loop
vertex 3.22787734041707e-011 12.2 7.20000000000001
vertex 7.80000000002063 7.79999999997936 7.19999999999999
vertex 7.80000000003226 12.1999999999794 7.20000000000001
endloop
endfacet
facet normal 0.923879532510275 -0.382683432367533 0.0
outer loop
vertex 8.44436508142017 11.5556349185881 -2.25597318603832e-014
vertex 7.80000000002644 9.99999999997936 6.00000000000001
vertex 7.8000000000264 9.99999999997936 0.0
endloop
endfacet
facet normal 0.923879532510275 -0.382683432367533 0.0
outer loop
vertex 7.80000000002644 9.99999999997936 6.00000000000001
vertex 8.44436508142017 11.5556349185881 -2.25597318603832e-014
vertex 8.44436508142017 11.5556349185881 6.00000000000001
endloop
endfacet
facet normal -1.0 2.64533880911522e-012 0.0
outer loop
vertex 3.22787734041707e-011 12.2 7.20000000000001
vertex 2.06392826440638e-011 7.8 6.00000000000001
vertex 2.06392826440638e-011 7.8 7.20000000000001
endloop
endfacet
facet normal -1.0 2.64533880911522e-012 0.0
outer loop
vertex 5.63993296509579e-015 -4.99600361887498e-017 5.99999999999999
vertex 1.58680849016157e-010 60.0 -2.25597318603832e-014
vertex -3.94795307556706e-014 -4.99603722355945e-017 0.0
endloop
endfacet
facet normal -1.0 2.64533880911522e-012 0.0
outer loop
vertex 1.58680849016157e-010 60.0 -2.25597318603832e-014
vertex 5.63993296509579e-015 -4.99600361887498e-017 5.99999999999999
vertex 2.06392826440638e-011 7.8 6.00000000000001
endloop
endfacet
facet normal -1.0 2.64533880911522e-012 0.0
outer loop
vertex 1.58680849016157e-010 60.0 -2.25597318603832e-014
vertex 2.06392826440638e-011 7.8 6.00000000000001
vertex 3.22787734041707e-011 12.2 6.00000000000003
endloop
endfacet
facet normal -1.0 2.64533880911522e-012 0.0
outer loop
vertex 3.22787734041707e-011 12.2 6.00000000000003
vertex 2.06392826440638e-011 7.8 6.00000000000001
vertex 3.22787734041707e-011 12.2 7.20000000000001
endloop
endfacet
facet normal -1.0 2.64533880911522e-012 0.0
outer loop
vertex 1.58680849016157e-010 60.0 -2.25597318603832e-014
vertex 3.22787734041707e-011 12.2 6.00000000000003
vertex 1.58680849016157e-010 60.0 5.99999999999999
endloop
endfacet
facet normal 0.923879532510275 -0.382683432367533 -5.55111512312578e-017
outer loop
vertex 8.44436508152598 51.5556349185881 -2.25597318603832e-014
vertex 7.80000000013226 49.9999999999794 5.99999999999999
vertex 7.80000000013226 49.9999999999794 0.0
endloop
endfacet
facet normal 0.923879532510275 -0.382683432367533 -5.55111512312578e-017
outer loop
vertex 7.80000000013226 49.9999999999794 5.99999999999999
vertex 8.44436508152598 51.5556349185881 -2.25597318603832e-014
vertex 8.44436508152598 51.5556349185881 5.99999999999999
endloop
endfacet
facet normal 0.923879532512299 0.382683432362646 5.55111512312578e-017
outer loop
vertex 7.80000000013226 49.9999999999794 0.0
vertex 8.44436508151775 48.4443650813673 5.99999999999999
vertex 8.44436508151775 48.4443650813673 -2.25597318603832e-014
endloop
endfacet
facet normal 0.923879532512299 0.382683432362646 5.55111512312578e-017
outer loop
vertex 8.44436508151775 48.4443650813673 5.99999999999999
vertex 7.80000000013226 49.9999999999794 0.0
vertex 7.80000000013226 49.9999999999794 5.99999999999999
endloop
endfacet
facet normal -0.923879532510274 0.382683432367534 5.55111512312578e-017
outer loop
vertex 12.2000000001322 49.9999999999677 5.99999999999999
vertex 11.5556349187385 48.444365081359 -2.25597318603832e-014
vertex 11.5556349187385 48.444365081359 5.99999999999999
endloop
endfacet
facet normal -0.923879532510274 0.382683432367534 5.55111512312578e-017
outer loop
vertex 11.5556349187385 48.444365081359 -2.25597318603832e-014
vertex 12.2000000001322 49.9999999999677 5.99999999999999
vertex 12.2000000001323 49.9999999999677 0.0
endloop
endfacet
facet normal 1.0 -2.64533880911522e-012 0.0
outer loop
vertex 12.2000000001587 59.9999999999677 5.99999999999999
vertex 12.2000000001381 52.1999999999677 7.20000000000001
vertex 12.2000000001381 52.1999999999677 6.00000000000001
endloop
endfacet
facet normal 1.0 -2.64533880911522e-012 0.0
outer loop
vertex 12.2000000001381 52.1999999999677 7.20000000000001
vertex 12.2000000001587 59.9999999999677 5.99999999999999
vertex 12.2000000001587 59.9999999999677 7.19999999999999
endloop
endfacet
facet normal -1.0 2.64501835837856e-012 0.0
outer loop
vertex 12.2000000000323 12.1999999999677 7.20000000000001
vertex 12.2000000000206 7.79999999996772 5.99999999999999
vertex 12.2000000000206 7.79999999996772 7.19999999999999
endloop
endfacet
facet normal -1.0 2.64501835837856e-012 0.0
outer loop
vertex 12.2000000000206 7.79999999996772 5.99999999999999
vertex 12.2000000000323 12.1999999999677 7.20000000000001
vertex 12.2000000000264 9.99999999996773 6.00000000000001
endloop
endfacet
facet normal -1.0 2.64501835837856e-012 0.0
outer loop
vertex 12.2000000000264 9.99999999996773 6.00000000000001
vertex 12.2000000000323 12.1999999999677 7.20000000000001
vertex 12.2000000000323 12.1999999999677 6.00000000000001
endloop
endfacet
facet normal -2.645158042033e-012 -1.0 -1.23259516440783e-030
outer loop
vertex 40.0000000000207 7.79999999989419 7.20000000000001
vertex 32.2000000000206 7.79999999991482 5.99999999999999
vertex 40.0000000000207 7.79999999989419 5.99999999999997
endloop
endfacet
facet normal -2.645158042033e-012 -1.0 -1.23259516440783e-030
outer loop
vertex 32.2000000000206 7.79999999991482 5.99999999999999
vertex 40.0000000000207 7.79999999989419 7.20000000000001
vertex 32.2000000000206 7.79999999991482 7.19999999999999
endloop
endfacet
facet normal 2.64533880911522e-012 1.0 -2.6131017485446e-030
outer loop
vertex 32.2000000000322 12.1999999999148 7.19999999999999
vertex 40.0000000000323 12.1999999998942 6.00000000000001
vertex 32.2000000000323 12.1999999999148 5.99999999999999
endloop
endfacet
facet normal 2.64533880911522e-012 1.0 -2.6131017485446e-030
outer loop
vertex 40.0000000000323 12.1999999998942 6.00000000000001
vertex 32.2000000000322 12.1999999999148 7.19999999999999
vertex 40.0000000000323 12.1999999998942 7.20000000000001
endloop
endfacet
facet normal 2.64533880911522e-012 1.0 -2.6131017485446e-030
outer loop
vertex 7.80000000012644 47.7999999999794 6.00000000000001
vertex 12.2000000001264 47.7999999999677 6.00000000000001
vertex 10.0000000001264 47.7999999999736 5.99999999999999
endloop
endfacet
facet normal 2.64533880911522e-012 1.0 -2.6131017485446e-030
outer loop
vertex 12.2000000001264 47.7999999999677 6.00000000000001
vertex 7.80000000012644 47.7999999999794 6.00000000000001
vertex 7.80000000012648 47.7999999999794 7.20000000000001
endloop
endfacet
facet normal 2.64533880911522e-012 1.0 -2.6131017485446e-030
outer loop
vertex 12.2000000001264 47.7999999999677 6.00000000000001
vertex 7.80000000012648 47.7999999999794 7.20000000000001
vertex 12.2000000001265 47.7999999999677 7.20000000000001
endloop
endfacet
facet normal 0.382683432367533 0.923879532510275 2.77555756156289e-017
outer loop
vertex 8.44436508151775 48.4443650813673 5.99999999999999
vertex 10.0000000001264 47.7999999999735 0.0
vertex 8.44436508151775 48.4443650813673 -2.25597318603832e-014
endloop
endfacet
facet normal 0.382683432367533 0.923879532510275 2.77555756156289e-017
outer loop
vertex 10.0000000001264 47.7999999999735 0.0
vertex 8.44436508151775 48.4443650813673 5.99999999999999
vertex 10.0000000001264 47.7999999999736 5.99999999999999
endloop
endfacet
facet normal -1.0 2.64533880911522e-012 0.0
outer loop
vertex 7.80000000012648 47.7999999999794 7.20000000000001
vertex 7.80000000008517 32.1999999999794 6.00000000000001
vertex 7.80000000008522 32.1999999999794 7.19999999999999
endloop
endfacet
facet normal -1.0 2.64533880911522e-012 0.0
outer loop
vertex 7.80000000008517 32.1999999999794 6.00000000000001
vertex 7.80000000012648 47.7999999999794 7.20000000000001
vertex 7.80000000012644 47.7999999999794 6.00000000000001
endloop
endfacet
facet normal -0.923879532512299 -0.382683432362647 0.0
outer loop
vertex 11.5556349186938 31.5556349185798 6.00000000000001
vertex 12.2000000000793 29.9999999999677 -2.25597318603832e-014
vertex 12.2000000000793 29.9999999999677 5.99999999999999
endloop
endfacet
facet normal -0.923879532512299 -0.382683432362647 0.0
outer loop
vertex 12.2000000000793 29.9999999999677 -2.25597318603832e-014
vertex 11.5556349186938 31.5556349185798 6.00000000000001
vertex 11.5556349186939 31.5556349185798 -2.25597318603832e-014
endloop
endfacet
facet normal -2.64533880911522e-012 -1.0 2.6131017485446e-030
outer loop
vertex 12.2000000001381 52.1999999999677 6.00000000000001
vertex 7.80000000013808 52.1999999999794 6.00000000000001
vertex 10.0000000001381 52.1999999999735 5.99999999999997
endloop
endfacet
facet normal -2.64533880911522e-012 -1.0 2.6131017485446e-030
outer loop
vertex 7.80000000013808 52.1999999999794 6.00000000000001
vertex 12.2000000001381 52.1999999999677 6.00000000000001
vertex 12.2000000001381 52.1999999999677 7.20000000000001
endloop
endfacet
facet normal -2.64533880911522e-012 -1.0 2.6131017485446e-030
outer loop
vertex 7.80000000013808 52.1999999999794 6.00000000000001
vertex 12.2000000001381 52.1999999999677 7.20000000000001
vertex 7.80000000013812 52.1999999999794 7.19999999999999
endloop
endfacet
facet normal -1.0 2.64533880911522e-012 0.0
outer loop
vertex 32.2000000000322 12.1999999999148 7.19999999999999
vertex 32.2000000000206 7.79999999991482 5.99999999999999
vertex 32.2000000000206 7.79999999991482 7.19999999999999
endloop
endfacet
facet normal -1.0 2.64533880911522e-012 0.0
outer loop
vertex 32.2000000000206 7.79999999991482 5.99999999999999
vertex 32.2000000000322 12.1999999999148 7.19999999999999
vertex 32.2000000000264 9.99999999991482 5.99999999999999
endloop
endfacet
facet normal -1.0 2.64533880911522e-012 0.0
outer loop
vertex 32.2000000000264 9.99999999991482 5.99999999999999
vertex 32.2000000000322 12.1999999999148 7.19999999999999
vertex 32.2000000000323 12.1999999999148 5.99999999999999
endloop
endfacet
facet normal -0.923879532510275 0.382683432367533 0.0
outer loop
vertex 11.5556349186328 8.44436508135903 6.00000000000001
vertex 12.2000000000264 9.99999999996773 0.0
vertex 11.5556349186327 8.44436508135903 0.0
endloop
endfacet
facet normal -0.923879532510275 0.382683432367533 0.0
outer loop
vertex 12.2000000000264 9.99999999996773 0.0
vertex 11.5556349186328 8.44436508135903 6.00000000000001
vertex 12.2000000000264 9.99999999996773 6.00000000000001
endloop
endfacet
facet normal -0.382683432367534 -0.923879532510274 -2.77555756156289e-017
outer loop
vertex 31.555634918641 11.5556349185269 5.99999999999999
vertex 30.0000000000323 12.1999999999206 0.0
vertex 31.5556349186409 11.5556349185269 0.0
endloop
endfacet
facet normal -0.382683432367534 -0.923879532510274 -2.77555756156289e-017
outer loop
vertex 30.0000000000323 12.1999999999206 0.0
vertex 31.555634918641 11.5556349185269 5.99999999999999
vertex 30.0000000000323 12.1999999999206 6.00000000000003
endloop
endfacet
facet normal -2.64533880911522e-012 -1.0 2.6131017485446e-030
outer loop
vertex 40.0 -1.05813602324645e-010 5.99999999999999
vertex -3.94795307556706e-014 -4.99603722355945e-017 0.0
vertex 40.0 -1.05813602324981e-010 0.0
endloop
endfacet
facet normal -2.64533880911522e-012 -1.0 2.6131017485446e-030
outer loop
vertex -3.94795307556706e-014 -4.99603722355945e-017 0.0
vertex 40.0 -1.05813602324645e-010 5.99999999999999
vertex 5.63993296509579e-015 -4.99600361887498e-017 5.99999999999999
endloop
endfacet
facet normal -0.923879532510274 0.382683432367534 1.11022302462516e-016
outer loop
vertex 12.2000000000793 29.9999999999677 5.99999999999999
vertex 11.5556349186856 28.444365081359 0.0
vertex 11.5556349186856 28.444365081359 6.00000000000001
endloop
endfacet
facet normal -0.923879532510274 0.382683432367534 1.11022302462516e-016
outer loop
vertex 11.5556349186856 28.444365081359 0.0
vertex 12.2000000000793 29.9999999999677 5.99999999999999
vertex 12.2000000000793 29.9999999999677 -2.25597318603832e-014
endloop
endfacet
facet normal 1.0 -2.64533880911522e-012 0.0
outer loop
vertex 40.0000000000529 19.9999999998942 0.0
vertex 40.0 -1.05813602324645e-010 5.99999999999999
vertex 40.0 -1.05813602324981e-010 0.0
endloop
endfacet
facet normal 1.0 -2.64533880911522e-012 0.0
outer loop
vertex 40.0 -1.05813602324645e-010 5.99999999999999
vertex 40.0000000000529 19.9999999998942 0.0
vertex 40.0000000000207 7.79999999989419 5.99999999999997
endloop
endfacet
facet normal 1.0 -2.64533880911522e-012 0.0
outer loop
vertex 40.0000000000207 7.79999999989419 5.99999999999997
vertex 40.0000000000529 19.9999999998942 0.0
vertex 40.0000000000207 7.79999999989419 7.20000000000001
endloop
endfacet
facet normal 1.0 -2.64533880911522e-012 0.0
outer loop
vertex 40.0000000000207 7.79999999989419 7.20000000000001
vertex 40.0000000000529 19.9999999998942 0.0
vertex 40.0000000000323 12.1999999998942 6.00000000000001
endloop
endfacet
facet normal 1.0 -2.64533880911522e-012 0.0
outer loop
vertex 40.0000000000323 12.1999999998942 6.00000000000001
vertex 40.0000000000529 19.9999999998942 0.0
vertex 40.0000000000529 19.9999999998942 5.99999999999999
endloop
endfacet
facet normal 1.0 -2.64533880911522e-012 0.0
outer loop
vertex 40.0000000000323 12.1999999998942 7.20000000000001
vertex 40.0000000000207 7.79999999989419 7.20000000000001
vertex 40.0000000000323 12.1999999998942 6.00000000000001
endloop
endfacet
facet normal 0.38268343236264 -0.923879532512302 0.0
outer loop
vertex 10.0000000001381 52.1999999999736 0.0
vertex 8.44436508152598 51.5556349185881 5.99999999999999
vertex 8.44436508152598 51.5556349185881 -2.25597318603832e-014
endloop
endfacet
facet normal 0.38268343236264 -0.923879532512302 0.0
outer loop
vertex 8.44436508152598 51.5556349185881 5.99999999999999
vertex 10.0000000001381 52.1999999999736 0.0
vertex 10.0000000001381 52.1999999999735 5.99999999999997
endloop
endfacet
facet normal 2.64533880911522e-012 1.0 -2.6131017485446e-030
outer loop
vertex 7.80000000007353 27.7999999999794 7.20000000000003
vertex 10.0000000000735 27.7999999999735 6.00000000000001
vertex 7.80000000007349 27.7999999999794 5.99999999999999
endloop
endfacet
facet normal 2.64533880911522e-012 1.0 -2.6131017485446e-030
outer loop
vertex 10.0000000000735 27.7999999999735 6.00000000000001
vertex 7.80000000007353 27.7999999999794 7.20000000000003
vertex 12.2000000000735 27.7999999999677 6.00000000000001
endloop
endfacet
facet normal 2.64533880911522e-012 1.0 -2.6131017485446e-030
outer loop
vertex 12.2000000000735 27.7999999999677 6.00000000000001
vertex 7.80000000007353 27.7999999999794 7.20000000000003
vertex 12.2000000000735 27.7999999999677 7.20000000000001
endloop
endfacet
facet normal 5.21701091893726e-042 1.97215226305253e-030 1.0
outer loop
vertex 40.0000000000207 7.79999999989419 7.20000000000001
vertex 32.2000000000322 12.1999999999148 7.19999999999999
vertex 32.2000000000206 7.79999999991482 7.19999999999999
endloop
endfacet
facet normal 5.21701091893726e-042 1.97215226305253e-030 1.0
outer loop
vertex 32.2000000000322 12.1999999999148 7.19999999999999
vertex 40.0000000000207 7.79999999989419 7.20000000000001
vertex 40.0000000000323 12.1999999998942 7.20000000000001
endloop
endfacet
facet normal 5.21701091893726e-042 1.97215226305253e-030 1.0
outer loop
vertex 27.8000000000206 7.79999999992646 7.19999999999996
vertex 12.2000000000323 12.1999999999677 7.20000000000001
vertex 12.2000000000206 7.79999999996772 7.19999999999999
endloop
endfacet
facet normal 5.21701091893726e-042 1.97215226305253e-030 1.0
outer loop
vertex 12.2000000000323 12.1999999999677 7.20000000000001
vertex 27.8000000000206 7.79999999992646 7.19999999999996
vertex 27.8000000000322 12.1999999999265 7.19999999999999
endloop
endfacet
facet normal 0.894427191001099 0.447213595497592 0.0
outer loop
vertex 40.0000000000529 19.9999999998942 0.0
vertex 20.0000000001587 59.9999999999471 6.00000000000001
vertex 40.0000000000529 19.9999999998942 5.99999999999999
endloop
endfacet
facet normal 0.894427191001099 0.447213595497592 0.0
outer loop
vertex 20.0000000001587 59.9999999999471 6.00000000000001
vertex 40.0000000000529 19.9999999998942 0.0
vertex 20.0000000001587 59.9999999999471 -2.25597318603832e-014
endloop
endfacet
facet normal -2.64533880911522e-012 -1.0 2.6131017485446e-030
outer loop
vertex 12.2000000000852 32.1999999999677 6.00000000000001
vertex 7.80000000008517 32.1999999999794 6.00000000000001
vertex 10.0000000000852 32.1999999999735 5.99999999999999
endloop
endfacet
facet normal -2.64533880911522e-012 -1.0 2.6131017485446e-030
outer loop
vertex 7.80000000008517 32.1999999999794 6.00000000000001
vertex 12.2000000000852 32.1999999999677 6.00000000000001
vertex 12.2000000000852 32.1999999999677 7.20000000000001
endloop
endfacet
facet normal -2.64533880911522e-012 -1.0 2.6131017485446e-030
outer loop
vertex 7.80000000008517 32.1999999999794 6.00000000000001
vertex 12.2000000000852 32.1999999999677 7.20000000000001
vertex 7.80000000008522 32.1999999999794 7.19999999999999
endloop
endfacet
facet normal 3.59928484076189e-029 1.360613932839e-017 1.0
outer loop
vertex 8.44436508147307 31.5556349185881 5.99999999999999
vertex 7.80000000008517 32.1999999999794 6.00000000000001
vertex 7.80000000007931 29.9999999999794 5.99999999999999
endloop
endfacet
facet normal 3.59928484076189e-029 1.360613932839e-017 1.0
outer loop
vertex 7.80000000008517 32.1999999999794 6.00000000000001
vertex 8.44436508147307 31.5556349185881 5.99999999999999
vertex 10.0000000000852 32.1999999999735 5.99999999999999
endloop
endfacet
facet normal 3.59928484076189e-029 1.360613932839e-017 1.0
outer loop
vertex 7.80000000012644 47.7999999999794 6.00000000000001
vertex 8.44436508151775 48.4443650813673 5.99999999999999
vertex 7.80000000013226 49.9999999999794 5.99999999999999
endloop
endfacet
facet normal 3.59928484076189e-029 1.360613932839e-017 1.0
outer loop
vertex 8.44436508151775 48.4443650813673 5.99999999999999
vertex 7.80000000012644 47.7999999999794 6.00000000000001
vertex 10.0000000001264 47.7999999999736 5.99999999999999
endloop
endfacet
facet normal 3.59928484076189e-029 1.360613932839e-017 1.0
outer loop
vertex 8.44436508152598 51.5556349185881 5.99999999999999
vertex 7.80000000013808 52.1999999999794 6.00000000000001
vertex 7.80000000013226 49.9999999999794 5.99999999999999
endloop
endfacet
facet normal 3.59928484076189e-029 1.360613932839e-017 1.0
outer loop
vertex 7.80000000013808 52.1999999999794 6.00000000000001
vertex 8.44436508152598 51.5556349185881 5.99999999999999
vertex 10.0000000001381 52.1999999999735 5.99999999999997
endloop
endfacet
facet normal 3.59928484076189e-029 1.360613932839e-017 1.0
outer loop
vertex 28.4443650814202 11.5556349185352 5.99999999999999
vertex 27.8000000000323 12.1999999999265 5.99999999999999
vertex 27.8000000000265 9.99999999992646 5.99999999999999
endloop
endfacet
facet normal 3.59928484076189e-029 1.360613932839e-017 1.0
outer loop
vertex 8.44436508142017 11.5556349185881 6.00000000000001
vertex 7.80000000003226 12.1999999999794 6.00000000000001
vertex 7.80000000002644 9.99999999997936 6.00000000000001
endloop
endfacet
facet normal 3.59928484076189e-029 1.360613932839e-017 1.0
outer loop
vertex 7.80000000003226 12.1999999999794 6.00000000000001
vertex 8.44436508142017 11.5556349185881 6.00000000000001
vertex 7.8000000000555 20.9999999999794 5.99999999999999
endloop
endfacet
facet normal 3.59928484076189e-029 1.360613932839e-017 1.0
outer loop
vertex 7.8000000000555 20.9999999999794 5.99999999999999
vertex 8.44436508142017 11.5556349185881 6.00000000000001
vertex 12.2000000000555 20.9999999999677 6.00000000000001
endloop
endfacet
facet normal 3.59928484076189e-029 1.360613932839e-017 1.0
outer loop
vertex 12.2000000000555 20.9999999999677 6.00000000000001
vertex 8.44436508142017 11.5556349185881 6.00000000000001
vertex 10.0000000000322 12.1999999999735 6.00000000000001
endloop
endfacet
facet normal 3.59928484076189e-029 1.360613932839e-017 1.0
outer loop
vertex 12.2000000000555 20.9999999999677 6.00000000000001
vertex 10.0000000000322 12.1999999999735 6.00000000000001
vertex 11.5556349186409 11.5556349185798 6.00000000000001
endloop
endfacet
facet normal 3.59928484076189e-029 1.360613932839e-017 1.0
outer loop
vertex 12.2000000000555 20.9999999999677 6.00000000000001
vertex 11.5556349186409 11.5556349185798 6.00000000000001
vertex 12.2000000000264 9.99999999996773 6.00000000000001
endloop
endfacet
facet normal 3.59928484076189e-029 1.360613932839e-017 1.0
outer loop
vertex 12.2000000000555 20.9999999999677 6.00000000000001
vertex 12.2000000000264 9.99999999996773 6.00000000000001
vertex 12.2000000000323 12.1999999999677 6.00000000000001
endloop
endfacet
facet normal 3.59928484076189e-029 1.360613932839e-017 1.0
outer loop
vertex 12.2000000000555 20.9999999999677 6.00000000000001
vertex 12.2000000000323 12.1999999999677 6.00000000000001
vertex 27.8000000000323 12.1999999999265 5.99999999999999
endloop
endfacet
facet normal 3.59928484076189e-029 1.360613932839e-017 1.0
outer loop
vertex 12.2000000000555 20.9999999999677 6.00000000000001
vertex 27.8000000000323 12.1999999999265 5.99999999999999
vertex 12.2000000000735 27.7999999999677 6.00000000000001
endloop
endfacet
facet normal 3.59928484076189e-029 1.360613932839e-017 1.0
outer loop
vertex 12.2000000000735 27.7999999999677 6.00000000000001
vertex 27.8000000000323 12.1999999999265 5.99999999999999
vertex 12.2000000000793 29.9999999999677 5.99999999999999
endloop
endfacet
facet normal 3.59928484076189e-029 1.360613932839e-017 1.0
outer loop
vertex 12.2000000000793 29.9999999999677 5.99999999999999
vertex 27.8000000000323 12.1999999999265 5.99999999999999
vertex 12.2000000000852 32.1999999999677 6.00000000000001
endloop
endfacet
facet normal 3.59928484076189e-029 1.360613932839e-017 1.0
outer loop
vertex 12.2000000000852 32.1999999999677 6.00000000000001
vertex 27.8000000000323 12.1999999999265 5.99999999999999
vertex 12.2000000001264 47.7999999999677 6.00000000000001
endloop
endfacet
facet normal 3.59928484076189e-029 1.360613932839e-017 1.0
outer loop
vertex 12.2000000001264 47.7999999999677 6.00000000000001
vertex 27.8000000000323 12.1999999999265 5.99999999999999
vertex 12.2000000001322 49.9999999999677 5.99999999999999
endloop
endfacet
facet normal 3.59928484076189e-029 1.360613932839e-017 1.0
outer loop
vertex 12.2000000001322 49.9999999999677 5.99999999999999
vertex 27.8000000000323 12.1999999999265 5.99999999999999
vertex 12.2000000001381 52.1999999999677 6.00000000000001
endloop
endfacet
facet normal 3.59928484076189e-029 1.360613932839e-017 1.0
outer loop
vertex 12.2000000001381 52.1999999999677 6.00000000000001
vertex 27.8000000000323 12.1999999999265 5.99999999999999
vertex 12.2000000001587 59.9999999999677 5.99999999999999
endloop
endfacet
facet normal 3.59928484076189e-029 1.360613932839e-017 1.0
outer loop
vertex 12.2000000001587 59.9999999999677 5.99999999999999
vertex 27.8000000000323 12.1999999999265 5.99999999999999
vertex 20.0000000001587 59.9999999999471 6.00000000000001
endloop
endfacet
facet normal 3.59928484076189e-029 1.360613932839e-017 1.0
outer loop
vertex 20.0000000001587 59.9999999999471 6.00000000000001
vertex 27.8000000000323 12.1999999999265 5.99999999999999
vertex 40.0000000000529 19.9999999998942 5.99999999999999
endloop
endfacet
facet normal 3.59928484076189e-029 1.360613932839e-017 1.0
outer loop
vertex 40.0000000000529 19.9999999998942 5.99999999999999
vertex 27.8000000000323 12.1999999999265 5.99999999999999
vertex 28.4443650814202 11.5556349185352 5.99999999999999
endloop
endfacet
facet normal 3.59928484076189e-029 1.360613932839e-017 1.0
outer loop
vertex 40.0000000000529 19.9999999998942 5.99999999999999
vertex 28.4443650814202 11.5556349185352 5.99999999999999
vertex 30.0000000000323 12.1999999999206 6.00000000000003
endloop
endfacet
facet normal 3.59928484076189e-029 1.360613932839e-017 1.0
outer loop
vertex 40.0000000000529 19.9999999998942 5.99999999999999
vertex 30.0000000000323 12.1999999999206 6.00000000000003
vertex 31.555634918641 11.5556349185269 5.99999999999999
endloop
endfacet
facet normal 3.59928484076189e-029 1.360613932839e-017 1.0
outer loop
vertex 40.0000000000529 19.9999999998942 5.99999999999999
vertex 31.555634918641 11.5556349185269 5.99999999999999
vertex 32.2000000000323 12.1999999999148 5.99999999999999
endloop
endfacet
facet normal 3.59928484076189e-029 1.360613932839e-017 1.0
outer loop
vertex 32.2000000000323 12.1999999999148 5.99999999999999
vertex 31.555634918641 11.5556349185269 5.99999999999999
vertex 32.2000000000264 9.99999999991482 5.99999999999999
endloop
endfacet
facet normal 3.59928484076189e-029 1.360613932839e-017 1.0
outer loop
vertex 40.0000000000529 19.9999999998942 5.99999999999999
vertex 32.2000000000323 12.1999999999148 5.99999999999999
vertex 40.0000000000323 12.1999999998942 6.00000000000001
endloop
endfacet
facet normal 3.59928484076189e-029 1.360613932839e-017 1.0
outer loop
vertex 11.5556349187468 51.5556349185798 5.99999999999999
vertex 12.2000000001381 52.1999999999677 6.00000000000001
vertex 10.0000000001381 52.1999999999735 5.99999999999997
endloop
endfacet
facet normal 3.59928484076189e-029 1.360613932839e-017 1.0
outer loop
vertex 12.2000000001381 52.1999999999677 6.00000000000001
vertex 11.5556349187468 51.5556349185798 5.99999999999999
vertex 12.2000000001322 49.9999999999677 5.99999999999999
endloop
endfacet
facet normal 3.59928484076189e-029 1.360613932839e-017 1.0
outer loop
vertex 12.2000000001264 47.7999999999677 6.00000000000001
vertex 11.5556349187385 48.444365081359 5.99999999999999
vertex 10.0000000001264 47.7999999999736 5.99999999999999
endloop
endfacet
facet normal 3.59928484076189e-029 1.360613932839e-017 1.0
outer loop
vertex 11.5556349187385 48.444365081359 5.99999999999999
vertex 12.2000000001264 47.7999999999677 6.00000000000001
vertex 12.2000000001322 49.9999999999677 5.99999999999999
endloop
endfacet
facet normal 3.59928484076189e-029 1.360613932839e-017 1.0
outer loop
vertex 11.5556349186938 31.5556349185798 6.00000000000001
vertex 12.2000000000852 32.1999999999677 6.00000000000001
vertex 10.0000000000852 32.1999999999735 5.99999999999999
endloop
endfacet
facet normal 3.59928484076189e-029 1.360613932839e-017 1.0
outer loop
vertex 12.2000000000852 32.1999999999677 6.00000000000001
vertex 11.5556349186938 31.5556349185798 6.00000000000001
vertex 12.2000000000793 29.9999999999677 5.99999999999999
endloop
endfacet
facet normal 3.59928484076189e-029 1.360613932839e-017 1.0
outer loop
vertex 12.2000000000735 27.7999999999677 6.00000000000001
vertex 11.5556349186856 28.444365081359 6.00000000000001
vertex 10.0000000000735 27.7999999999735 6.00000000000001
endloop
endfacet
facet normal 3.59928484076189e-029 1.360613932839e-017 1.0
outer loop
vertex 11.5556349186856 28.444365081359 6.00000000000001
vertex 12.2000000000735 27.7999999999677 6.00000000000001
vertex 12.2000000000793 29.9999999999677 5.99999999999999
endloop
endfacet
facet normal 3.59928484076189e-029 1.360613932839e-017 1.0
outer loop
vertex 7.80000000003226 12.1999999999794 6.00000000000001
vertex 1.58680849016157e-010 60.0 5.99999999999999
vertex 3.22787734041707e-011 12.2 6.00000000000003
endloop
endfacet
facet normal 3.59928484076189e-029 1.360613932839e-017 1.0
outer loop
vertex 1.58680849016157e-010 60.0 5.99999999999999
vertex 7.80000000003226 12.1999999999794 6.00000000000001
vertex 7.8000000000555 20.9999999999794 5.99999999999999
endloop
endfacet
facet normal 3.59928484076189e-029 1.360613932839e-017 1.0
outer loop
vertex 1.58680849016157e-010 60.0 5.99999999999999
vertex 7.8000000000555 20.9999999999794 5.99999999999999
vertex 7.80000000007931 29.9999999999794 5.99999999999999
endloop
endfacet
facet normal 3.59928484076189e-029 1.360613932839e-017 1.0
outer loop
vertex 1.58680849016157e-010 60.0 5.99999999999999
vertex 7.80000000007931 29.9999999999794 5.99999999999999
vertex 7.80000000015867 59.9999999999794 5.99999999999999
endloop
endfacet
facet normal 3.59928484076189e-029 1.360613932839e-017 1.0
outer loop
vertex 7.80000000007931 29.9999999999794 5.99999999999999
vertex 7.8000000000555 20.9999999999794 5.99999999999999
vertex 7.80000000007349 27.7999999999794 5.99999999999999
endloop
endfacet
facet normal 3.59928484076189e-029 1.360613932839e-017 1.0
outer loop
vertex 7.80000000015867 59.9999999999794 5.99999999999999
vertex 7.80000000007931 29.9999999999794 5.99999999999999
vertex 7.80000000008517 32.1999999999794 6.00000000000001
endloop
endfacet
facet normal 3.59928484076189e-029 1.360613932839e-017 1.0
outer loop
vertex 7.80000000015867 59.9999999999794 5.99999999999999
vertex 7.80000000008517 32.1999999999794 6.00000000000001
vertex 7.80000000012644 47.7999999999794 6.00000000000001
endloop
endfacet
facet normal 3.59928484076189e-029 1.360613932839e-017 1.0
outer loop
vertex 7.80000000015867 59.9999999999794 5.99999999999999
vertex 7.80000000012644 47.7999999999794 6.00000000000001
vertex 7.80000000013226 49.9999999999794 5.99999999999999
endloop
endfacet
facet normal 3.59928484076189e-029 1.360613932839e-017 1.0
outer loop
vertex 7.80000000015867 59.9999999999794 5.99999999999999
vertex 7.80000000013226 49.9999999999794 5.99999999999999
vertex 7.80000000013808 52.1999999999794 6.00000000000001
endloop
endfacet
facet normal 3.59928484076189e-029 1.360613932839e-017 1.0
outer loop
vertex 7.80000000007349 27.7999999999794 5.99999999999999
vertex 8.44436508146484 28.4443650813673 5.99999999999999
vertex 7.80000000007931 29.9999999999794 5.99999999999999
endloop
endfacet
facet normal 3.59928484076189e-029 1.360613932839e-017 1.0
outer loop
vertex 8.44436508146484 28.4443650813673 5.99999999999999
vertex 7.80000000007349 27.7999999999794 5.99999999999999
vertex 10.0000000000735 27.7999999999735 6.00000000000001
endloop
endfacet
facet normal 0.382683432367533 0.923879532510275 0.0
outer loop
vertex 8.44436508146484 28.4443650813673 5.99999999999999
vertex 10.0000000000735 27.7999999999735 2.25597318603832e-014
vertex 8.44436508146484 28.4443650813673 -2.25597318603832e-014
endloop
endfacet
facet normal 0.382683432367533 0.923879532510275 0.0
outer loop
vertex 10.0000000000735 27.7999999999735 2.25597318603832e-014
vertex 8.44436508146484 28.4443650813673 5.99999999999999
vertex 10.0000000000735 27.7999999999735 6.00000000000001
endloop
endfacet
facet normal -2.64533880911522e-012 -1.0 2.6131017485446e-030
outer loop
vertex 12.2000000000555 20.9999999999677 6.00000000000001
vertex 7.80000000005554 20.9999999999794 7.20000000000001
vertex 7.8000000000555 20.9999999999794 5.99999999999999
endloop
endfacet
facet normal -2.64533880911522e-012 -1.0 2.6131017485446e-030
outer loop
vertex 7.80000000005554 20.9999999999794 7.20000000000001
vertex 12.2000000000555 20.9999999999677 6.00000000000001
vertex 12.2000000000555 20.9999999999677 7.20000000000001
endloop
endfacet
facet normal 0.382683432367533 0.923879532510275 0.0
outer loop
vertex 8.44436508141189 8.44436508136725 0.0
vertex 10.0000000000206 7.79999999997355 5.99999999999999
vertex 10.0000000000206 7.79999999997355 -2.25597318603832e-014
endloop
endfacet
facet normal 0.382683432367533 0.923879532510275 0.0
outer loop
vertex 10.0000000000206 7.79999999997355 5.99999999999999
vertex 8.44436508141189 8.44436508136725 0.0
vertex 8.44436508141193 8.44436508136725 6.00000000000001
endloop
endfacet
facet normal -0.382683432362647 0.923879532512299 2.77555756156289e-017
outer loop
vertex 10.0000000000206 7.79999999997355 5.99999999999999
vertex 11.5556349186327 8.44436508135903 0.0
vertex 10.0000000000206 7.79999999997355 -2.25597318603832e-014
endloop
endfacet
facet normal -0.382683432362647 0.923879532512299 2.77555756156289e-017
outer loop
vertex 11.5556349186327 8.44436508135903 0.0
vertex 10.0000000000206 7.79999999997355 5.99999999999999
vertex 11.5556349186328 8.44436508135903 6.00000000000001
endloop
endfacet
facet normal -0.923879532510275 0.382683432367533 0.0
outer loop
vertex 31.5556349186327 8.44436508130612 5.99999999999999
vertex 32.2000000000264 9.99999999991482 -2.25597318603832e-014
vertex 31.5556349186327 8.44436508130612 -2.25597318603832e-014
endloop
endfacet
facet normal -0.923879532510275 0.382683432367533 0.0
outer loop
vertex 32.2000000000264 9.99999999991482 -2.25597318603832e-014
vertex 31.5556349186327 8.44436508130612 5.99999999999999
vertex 32.2000000000264 9.99999999991482 5.99999999999999
endloop
endfacet
facet normal -0.923879532512299 -0.382683432362645 -5.55111512312578e-017
outer loop
vertex 32.2000000000264 9.99999999991482 5.99999999999999
vertex 31.5556349186409 11.5556349185269 0.0
vertex 32.2000000000264 9.99999999991482 -2.25597318603832e-014
endloop
endfacet
facet normal -0.923879532512299 -0.382683432362645 -5.55111512312578e-017
outer loop
vertex 31.5556349186409 11.5556349185269 0.0
vertex 32.2000000000264 9.99999999991482 5.99999999999999
vertex 31.555634918641 11.5556349185269 5.99999999999999
endloop
endfacet
facet normal -0.382683432362648 0.923879532512298 2.77555756156289e-017
outer loop
vertex 10.0000000001264 47.7999999999735 0.0
vertex 11.5556349187385 48.444365081359 5.99999999999999
vertex 11.5556349187385 48.444365081359 -2.25597318603832e-014
endloop
endfacet
facet normal -0.382683432362648 0.923879532512298 2.77555756156289e-017
outer loop
vertex 11.5556349187385 48.444365081359 5.99999999999999
vertex 10.0000000001264 47.7999999999735 0.0
vertex 10.0000000001264 47.7999999999736 5.99999999999999
endloop
endfacet
facet normal 1.0 -2.64533880911522e-012 0.0
outer loop
vertex 7.80000000002644 9.99999999997936 6.00000000000001
vertex 7.80000000002063 7.79999999997936 7.19999999999999
vertex 7.80000000002063 7.79999999997936 5.99999999999999
endloop
endfacet
facet normal 1.0 -2.64533880911522e-012 0.0
outer loop
vertex 7.80000000002063 7.79999999997936 7.19999999999999
vertex 7.80000000002644 9.99999999997936 6.00000000000001
vertex 7.80000000003226 12.1999999999794 7.20000000000001
endloop
endfacet
facet normal 1.0 -2.64533880911522e-012 0.0
outer loop
vertex 7.80000000003226 12.1999999999794 7.20000000000001
vertex 7.80000000002644 9.99999999997936 6.00000000000001
vertex 7.80000000003226 12.1999999999794 6.00000000000001
endloop
endfacet
facet normal 2.64533880911522e-012 1.0 -2.6131017485446e-030
outer loop
vertex 12.2000000000323 12.1999999999677 6.00000000000001
vertex 27.8000000000322 12.1999999999265 7.19999999999999
vertex 27.8000000000323 12.1999999999265 5.99999999999999
endloop
endfacet
facet normal 2.64533880911522e-012 1.0 -2.6131017485446e-030
outer loop
vertex 27.8000000000322 12.1999999999265 7.19999999999999
vertex 12.2000000000323 12.1999999999677 6.00000000000001
vertex 12.2000000000323 12.1999999999677 7.20000000000001
endloop
endfacet
facet normal 1.0 -2.64533880911522e-012 0.0
outer loop
vertex 12.2000000000852 32.1999999999677 6.00000000000001
vertex 12.2000000001265 47.7999999999677 7.20000000000001
vertex 12.2000000000852 32.1999999999677 7.20000000000001
endloop
endfacet
facet normal 1.0 -2.64533880911522e-012 0.0
outer loop
vertex 12.2000000001265 47.7999999999677 7.20000000000001
vertex 12.2000000000852 32.1999999999677 6.00000000000001
vertex 12.2000000001264 47.7999999999677 6.00000000000001
endloop
endfacet
facet normal 2.64533880911522e-012 1.0 -2.6131017485446e-030
outer loop
vertex 3.22787734041707e-011 12.2 6.00000000000003
vertex 7.80000000003226 12.1999999999794 7.20000000000001
vertex 7.80000000003226 12.1999999999794 6.00000000000001
endloop
endfacet
facet normal 2.64533880911522e-012 1.0 -2.6131017485446e-030
outer loop
vertex 7.80000000003226 12.1999999999794 7.20000000000001
vertex 3.22787734041707e-011 12.2 6.00000000000003
vertex 3.22787734041707e-011 12.2 7.20000000000001
endloop
endfacet
facet normal -1.0 2.64533880911522e-012 0.0
outer loop
vertex 7.80000000015871 59.9999999999794 7.19999999999999
vertex 7.80000000013808 52.1999999999794 6.00000000000001
vertex 7.80000000013812 52.1999999999794 7.19999999999999
endloop
endfacet
facet normal -1.0 2.64533880911522e-012 0.0
outer loop
vertex 7.80000000013808 52.1999999999794 6.00000000000001
vertex 7.80000000015871 59.9999999999794 7.19999999999999
vertex 7.80000000015867 59.9999999999794 5.99999999999999
endloop
endfacet
facet normal 5.21701091893726e-042 1.97215226305253e-030 1.0
outer loop
vertex 12.2000000000555 20.9999999999677 7.20000000000001
vertex 7.80000000007353 27.7999999999794 7.20000000000003
vertex 7.80000000005554 20.9999999999794 7.20000000000001
endloop
endfacet
facet normal 5.21701091893726e-042 1.97215226305253e-030 1.0
outer loop
vertex 7.80000000007353 27.7999999999794 7.20000000000003
vertex 12.2000000000555 20.9999999999677 7.20000000000001
vertex 12.2000000000735 27.7999999999677 7.20000000000001
endloop
endfacet
facet normal 0.382683432362646 -0.923879532512299 0.0
outer loop
vertex 30.0000000000323 12.1999999999206 6.00000000000003
vertex 28.4443650814202 11.5556349185352 0.0
vertex 30.0000000000323 12.1999999999206 0.0
endloop
endfacet
facet normal 0.382683432362646 -0.923879532512299 0.0
outer loop
vertex 28.4443650814202 11.5556349185352 0.0
vertex 30.0000000000323 12.1999999999206 6.00000000000003
vertex 28.4443650814202 11.5556349185352 5.99999999999999
endloop
endfacet
facet normal 0.923879532510275 -0.382683432367533 0.0
outer loop
vertex 27.8000000000264 9.99999999992646 0.0
vertex 28.4443650814202 11.5556349185352 5.99999999999999
vertex 27.8000000000265 9.99999999992646 5.99999999999999
endloop
endfacet
facet normal 0.923879532510275 -0.382683432367533 0.0
outer loop
vertex 28.4443650814202 11.5556349185352 5.99999999999999
vertex 27.8000000000264 9.99999999992646 0.0
vertex 28.4443650814202 11.5556349185352 0.0
endloop
endfacet
facet normal -0.382683432367533 -0.923879532510275 -2.77555756156289e-017
outer loop
vertex 11.5556349186938 31.5556349185798 6.00000000000001
vertex 10.0000000000852 32.1999999999735 2.25597318603832e-014
vertex 11.5556349186939 31.5556349185798 -2.25597318603832e-014
endloop
endfacet
facet normal -0.382683432367533 -0.923879532510275 -2.77555756156289e-017
outer loop
vertex 10.0000000000852 32.1999999999735 2.25597318603832e-014
vertex 11.5556349186938 31.5556349185798 6.00000000000001
vertex 10.0000000000852 32.1999999999735 5.99999999999999
endloop
endfacet
facet normal -0.923879532512299 -0.382683432362646 -5.55111512312578e-017
outer loop
vertex 11.5556349187468 51.5556349185798 5.99999999999999
vertex 12.2000000001323 49.9999999999677 0.0
vertex 12.2000000001322 49.9999999999677 5.99999999999999
endloop
endfacet
facet normal -0.923879532512299 -0.382683432362646 -5.55111512312578e-017
outer loop
vertex 12.2000000001323 49.9999999999677 0.0
vertex 11.5556349187468 51.5556349185798 5.99999999999999
vertex 11.5556349187468 51.5556349185799 0.0
endloop
endfacet
facet normal 1.0 -2.64533880911522e-012 0.0
outer loop
vertex 12.2000000000735 27.7999999999677 6.00000000000001
vertex 12.2000000000555 20.9999999999677 7.20000000000001
vertex 12.2000000000555 20.9999999999677 6.00000000000001
endloop
endfacet
facet normal 1.0 -2.64533880911522e-012 0.0
outer loop
vertex 12.2000000000555 20.9999999999677 7.20000000000001
vertex 12.2000000000735 27.7999999999677 6.00000000000001
vertex 12.2000000000735 27.7999999999677 7.20000000000001
endloop
endfacet
facet normal -2.645158042033e-012 -1.0 -1.23259516440783e-030
outer loop
vertex 7.80000000002063 7.79999999997936 7.19999999999999
vertex 2.06392826440638e-011 7.8 6.00000000000001
vertex 7.80000000002063 7.79999999997936 5.99999999999999
endloop
endfacet
facet normal -2.645158042033e-012 -1.0 -1.23259516440783e-030
outer loop
vertex 2.06392826440638e-011 7.8 6.00000000000001
vertex 7.80000000002063 7.79999999997936 7.19999999999999
vertex 2.06392826440638e-011 7.8 7.20000000000001
endloop
endfacet
facet normal 1.0 -2.64533880911522e-012 0.0
outer loop
vertex 27.8000000000265 9.99999999992646 5.99999999999999
vertex 27.8000000000206 7.79999999992646 7.19999999999996
vertex 27.8000000000206 7.79999999992646 5.99999999999997
endloop
endfacet
facet normal 1.0 -2.64533880911522e-012 0.0
outer loop
vertex 27.8000000000206 7.79999999992646 7.19999999999996
vertex 27.8000000000265 9.99999999992646 5.99999999999999
vertex 27.8000000000322 12.1999999999265 7.19999999999999
endloop
endfacet
facet normal 1.0 -2.64533880911522e-012 0.0
outer loop
vertex 27.8000000000322 12.1999999999265 7.19999999999999
vertex 27.8000000000265 9.99999999992646 5.99999999999999
vertex 27.8000000000323 12.1999999999265 5.99999999999999
endloop
endfacet
facet normal -0.382683432362647 0.923879532512298 2.77555756156289e-017
outer loop
vertex 30.0000000000206 7.79999999992064 6.00000000000001
vertex 31.5556349186327 8.44436508130612 -2.25597318603832e-014
vertex 30.0000000000206 7.79999999992064 -2.25597318603832e-014
endloop
endfacet
facet normal -0.382683432362647 0.923879532512298 2.77555756156289e-017
outer loop
vertex 31.5556349186327 8.44436508130612 -2.25597318603832e-014
vertex 30.0000000000206 7.79999999992064 6.00000000000001
vertex 31.5556349186327 8.44436508130612 5.99999999999999
endloop
endfacet
facet normal -0.382683432367527 -0.923879532510277 0.0
outer loop
vertex 11.5556349187468 51.5556349185798 5.99999999999999
vertex 10.0000000001381 52.1999999999736 0.0
vertex 11.5556349187468 51.5556349185799 0.0
endloop
endfacet
facet normal -0.382683432367527 -0.923879532510277 0.0
outer loop
vertex 10.0000000001381 52.1999999999736 0.0
vertex 11.5556349187468 51.5556349185798 5.99999999999999
vertex 10.0000000001381 52.1999999999735 5.99999999999997
endloop
endfacet
facet normal -0.382683432367533 -0.923879532510275 0.0
outer loop
vertex 11.5556349186409 11.5556349185798 6.00000000000001
vertex 10.0000000000322 12.1999999999735 0.0
vertex 11.5556349186409 11.5556349185798 0.0
endloop
endfacet
facet normal -0.382683432367533 -0.923879532510275 0.0
outer loop
vertex 10.0000000000322 12.1999999999735 0.0
vertex 11.5556349186409 11.5556349185798 6.00000000000001
vertex 10.0000000000322 12.1999999999735 6.00000000000001
endloop
endfacet
facet normal -1.0 2.64533880911522e-012 0.0
outer loop
vertex 7.80000000005554 20.9999999999794 7.20000000000001
vertex 7.80000000007349 27.7999999999794 5.99999999999999
vertex 7.8000000000555 20.9999999999794 5.99999999999999
endloop
endfacet
facet normal -1.0 2.64533880911522e-012 0.0
outer loop
vertex 7.80000000007349 27.7999999999794 5.99999999999999
vertex 7.80000000005554 20.9999999999794 7.20000000000001
vertex 7.80000000007353 27.7999999999794 7.20000000000003
endloop
endfacet
facet normal 5.21701091893726e-042 1.97215226305253e-030 1.0
outer loop
vertex 12.2000000000852 32.1999999999677 7.20000000000001
vertex 7.80000000012648 47.7999999999794 7.20000000000001
vertex 7.80000000008522 32.1999999999794 7.19999999999999
endloop
endfacet
facet normal 5.21701091893726e-042 1.97215226305253e-030 1.0
outer loop
vertex 7.80000000012648 47.7999999999794 7.20000000000001
vertex 12.2000000000852 32.1999999999677 7.20000000000001
vertex 12.2000000001265 47.7999999999677 7.20000000000001
endloop
endfacet
facet normal 0.382683432362647 -0.923879532512299 -2.77555756156289e-017
outer loop
vertex 10.0000000000322 12.1999999999735 0.0
vertex 8.44436508142017 11.5556349185881 6.00000000000001
vertex 8.44436508142017 11.5556349185881 -2.25597318603832e-014
endloop
endfacet
facet normal 0.382683432362647 -0.923879532512299 -2.77555756156289e-017
outer loop
vertex 8.44436508142017 11.5556349185881 6.00000000000001
vertex 10.0000000000322 12.1999999999735 0.0
vertex 10.0000000000322 12.1999999999735 6.00000000000001
endloop
endfacet
facet normal 0.382683432367534 0.923879532510274 2.77555756156289e-017
outer loop
vertex 28.4443650814119 8.44436508131434 0.0
vertex 30.0000000000206 7.79999999992064 6.00000000000001
vertex 30.0000000000206 7.79999999992064 -2.25597318603832e-014
endloop
endfacet
facet normal 0.382683432367534 0.923879532510274 2.77555756156289e-017
outer loop
vertex 30.0000000000206 7.79999999992064 6.00000000000001
vertex 28.4443650814119 8.44436508131434 0.0
vertex 28.4443650814119 8.44436508131435 5.99999999999999
endloop
endfacet
facet normal -5.21701091893726e-042 -1.97215226305253e-030 -1.0
outer loop
vertex 7.80000000007935 29.9999999999794 -2.25597318603832e-014
vertex 8.44436508142017 11.5556349185881 -2.25597318603832e-014
vertex 7.8000000000264 9.99999999997936 0.0
endloop
endfacet
facet normal -5.21701091893726e-042 -1.97215226305253e-030 -1.0
outer loop
vertex 8.44436508142017 11.5556349185881 -2.25597318603832e-014
vertex 7.80000000007935 29.9999999999794 -2.25597318603832e-014
vertex 8.44436508146484 28.4443650813673 -2.25597318603832e-014
endloop
endfacet
facet normal -5.21701091893726e-042 -1.97215226305253e-030 -1.0
outer loop
vertex 8.44436508142017 11.5556349185881 -2.25597318603832e-014
vertex 8.44436508146484 28.4443650813673 -2.25597318603832e-014
vertex 10.0000000000322 12.1999999999735 0.0
endloop
endfacet
facet normal -5.21701091893726e-042 -1.97215226305253e-030 -1.0
outer loop
vertex 10.0000000000322 12.1999999999735 0.0
vertex 8.44436508146484 28.4443650813673 -2.25597318603832e-014
vertex 10.0000000000735 27.7999999999735 2.25597318603832e-014
endloop
endfacet
facet normal -5.21701091893726e-042 -1.97215226305253e-030 -1.0
outer loop
vertex 10.0000000000322 12.1999999999735 0.0
vertex 10.0000000000735 27.7999999999735 2.25597318603832e-014
vertex 11.5556349186409 11.5556349185798 0.0
endloop
endfacet
facet normal -5.21701091893726e-042 -1.97215226305253e-030 -1.0
outer loop
vertex 11.5556349186409 11.5556349185798 0.0
vertex 10.0000000000735 27.7999999999735 2.25597318603832e-014
vertex 11.5556349186856 28.444365081359 0.0
endloop
endfacet
facet normal -5.21701091893726e-042 -1.97215226305253e-030 -1.0
outer loop
vertex 11.5556349186409 11.5556349185798 0.0
vertex 11.5556349186856 28.444365081359 0.0
vertex 12.2000000000264 9.99999999996773 0.0
endloop
endfacet
facet normal -5.21701091893726e-042 -1.97215226305253e-030 -1.0
outer loop
vertex 12.2000000000264 9.99999999996773 0.0
vertex 11.5556349186856 28.444365081359 0.0
vertex 12.2000000000793 29.9999999999677 -2.25597318603832e-014
endloop
endfacet
facet normal -5.21701091893726e-042 -1.97215226305253e-030 -1.0
outer loop
vertex 7.80000000013226 49.9999999999794 0.0
vertex 8.44436508147307 31.5556349185881 -2.25597318603832e-014
vertex 7.80000000007935 29.9999999999794 -2.25597318603832e-014
endloop
endfacet
facet normal -5.21701091893726e-042 -1.97215226305253e-030 -1.0
outer loop
vertex 8.44436508147307 31.5556349185881 -2.25597318603832e-014
vertex 7.80000000013226 49.9999999999794 0.0
vertex 8.44436508151775 48.4443650813673 -2.25597318603832e-014
endloop
endfacet
facet normal -5.21701091893726e-042 -1.97215226305253e-030 -1.0
outer loop
vertex 8.44436508147307 31.5556349185881 -2.25597318603832e-014
vertex 8.44436508151775 48.4443650813673 -2.25597318603832e-014
vertex 10.0000000000852 32.1999999999735 2.25597318603832e-014
endloop
endfacet
facet normal -5.21701091893726e-042 -1.97215226305253e-030 -1.0
outer loop
vertex 10.0000000000852 32.1999999999735 2.25597318603832e-014
vertex 8.44436508151775 48.4443650813673 -2.25597318603832e-014
vertex 10.0000000001264 47.7999999999735 0.0
endloop
endfacet
facet normal -5.21701091893726e-042 -1.97215226305253e-030 -1.0
outer loop
vertex 10.0000000000852 32.1999999999735 2.25597318603832e-014
vertex 10.0000000001264 47.7999999999735 0.0
vertex 11.5556349186939 31.5556349185798 -2.25597318603832e-014
endloop
endfacet
facet normal -5.21701091893726e-042 -1.97215226305253e-030 -1.0
outer loop
vertex 11.5556349186939 31.5556349185798 -2.25597318603832e-014
vertex 10.0000000001264 47.7999999999735 0.0
vertex 11.5556349187385 48.444365081359 -2.25597318603832e-014
endloop
endfacet
facet normal -5.21701091893726e-042 -1.97215226305253e-030 -1.0
outer loop
vertex 11.5556349186939 31.5556349185798 -2.25597318603832e-014
vertex 11.5556349187385 48.444365081359 -2.25597318603832e-014
vertex 12.2000000000793 29.9999999999677 -2.25597318603832e-014
endloop
endfacet
facet normal -5.21701091893726e-042 -1.97215226305253e-030 -1.0
outer loop
vertex 12.2000000000793 29.9999999999677 -2.25597318603832e-014
vertex 11.5556349187385 48.444365081359 -2.25597318603832e-014
vertex 12.2000000001323 49.9999999999677 0.0
endloop
endfacet
facet normal -5.21701091893726e-042 -1.97215226305253e-030 -1.0
outer loop
vertex 1.58680849016157e-010 60.0 -2.25597318603832e-014
vertex 7.80000000013226 49.9999999999794 0.0
vertex 7.8000000000264 9.99999999997936 0.0
endloop
endfacet
facet normal -5.21701091893726e-042 -1.97215226305253e-030 -1.0
outer loop
vertex 7.80000000013226 49.9999999999794 0.0
vertex 1.58680849016157e-010 60.0 -2.25597318603832e-014
vertex 8.44436508152598 51.5556349185881 -2.25597318603832e-014
endloop
endfacet
facet normal -5.21701091893726e-042 -1.97215226305253e-030 -1.0
outer loop
vertex 8.44436508152598 51.5556349185881 -2.25597318603832e-014
vertex 1.58680849016157e-010 60.0 -2.25597318603832e-014
vertex 20.0000000001587 59.9999999999471 -2.25597318603832e-014
endloop
endfacet
facet normal -5.21701091893726e-042 -1.97215226305253e-030 -1.0
outer loop
vertex 7.8000000000264 9.99999999997936 0.0
vertex 7.80000000013226 49.9999999999794 0.0
vertex 7.80000000007935 29.9999999999794 -2.25597318603832e-014
endloop
endfacet
facet normal -5.21701091893726e-042 -1.97215226305253e-030 -1.0
outer loop
vertex 8.44436508152598 51.5556349185881 -2.25597318603832e-014
vertex 20.0000000001587 59.9999999999471 -2.25597318603832e-014
vertex 10.0000000001381 52.1999999999736 0.0
endloop
endfacet
facet normal -5.21701091893726e-042 -1.97215226305253e-030 -1.0
outer loop
vertex 10.0000000001381 52.1999999999736 0.0
vertex 20.0000000001587 59.9999999999471 -2.25597318603832e-014
vertex 11.5556349187468 51.5556349185799 0.0
endloop
endfacet
facet normal -5.21701091893726e-042 -1.97215226305253e-030 -1.0
outer loop
vertex 11.5556349187468 51.5556349185799 0.0
vertex 20.0000000001587 59.9999999999471 -2.25597318603832e-014
vertex 12.2000000001323 49.9999999999677 0.0
endloop
endfacet
facet normal -5.21701091893726e-042 -1.97215226305253e-030 -1.0
outer loop
vertex 20.0000000001587 59.9999999999471 -2.25597318603832e-014
vertex 28.4443650814202 11.5556349185352 0.0
vertex 27.8000000000264 9.99999999992646 0.0
endloop
endfacet
facet normal -5.21701091893726e-042 -1.97215226305253e-030 -1.0
outer loop
vertex 28.4443650814202 11.5556349185352 0.0
vertex 20.0000000001587 59.9999999999471 -2.25597318603832e-014
vertex 40.0000000000529 19.9999999998942 0.0
endloop
endfacet
facet normal -5.21701091893726e-042 -1.97215226305253e-030 -1.0
outer loop
vertex 28.4443650814202 11.5556349185352 0.0
vertex 40.0000000000529 19.9999999998942 0.0
vertex 30.0000000000323 12.1999999999206 0.0
endloop
endfacet
facet normal -5.21701091893726e-042 -1.97215226305253e-030 -1.0
outer loop
vertex 30.0000000000323 12.1999999999206 0.0
vertex 40.0000000000529 19.9999999998942 0.0
vertex 31.5556349186409 11.5556349185269 0.0
endloop
endfacet
facet normal -5.21701091893726e-042 -1.97215226305253e-030 -1.0
outer loop
vertex 31.5556349186409 11.5556349185269 0.0
vertex 40.0000000000529 19.9999999998942 0.0
vertex 32.2000000000264 9.99999999991482 -2.25597318603832e-014
endloop
endfacet
facet normal -5.21701091893726e-042 -1.97215226305253e-030 -1.0
outer loop
vertex 32.2000000000264 9.99999999991482 -2.25597318603832e-014
vertex 40.0000000000529 19.9999999998942 0.0
vertex 40.0 -1.05813602324981e-010 0.0
endloop
endfacet
facet normal -5.21701091893726e-042 -1.97215226305253e-030 -1.0
outer loop
vertex -3.94795307556706e-014 -4.99603722355945e-017 0.0
vertex 10.0000000000206 7.79999999997355 -2.25597318603832e-014
vertex 40.0 -1.05813602324981e-010 0.0
endloop
endfacet
facet normal -5.21701091893726e-042 -1.97215226305253e-030 -1.0
outer loop
vertex 10.0000000000206 7.79999999997355 -2.25597318603832e-014
vertex -3.94795307556706e-014 -4.99603722355945e-017 0.0
vertex 8.44436508141189 8.44436508136725 0.0
endloop
endfacet
facet normal -5.21701091893726e-042 -1.97215226305253e-030 -1.0
outer loop
vertex 8.44436508141189 8.44436508136725 0.0
vertex -3.94795307556706e-014 -4.99603722355945e-017 0.0
vertex 7.8000000000264 9.99999999997936 0.0
endloop
endfacet
facet normal -5.21701091893726e-042 -1.97215226305253e-030 -1.0
outer loop
vertex 7.8000000000264 9.99999999997936 0.0
vertex -3.94795307556706e-014 -4.99603722355945e-017 0.0
vertex 1.58680849016157e-010 60.0 -2.25597318603832e-014
endloop
endfacet
facet normal -5.21701091893726e-042 -1.97215226305253e-030 -1.0
outer loop
vertex 40.0 -1.05813602324981e-010 0.0
vertex 10.0000000000206 7.79999999997355 -2.25597318603832e-014
vertex 11.5556349186327 8.44436508135903 0.0
endloop
endfacet
facet normal -5.21701091893726e-042 -1.97215226305253e-030 -1.0
outer loop
vertex 40.0 -1.05813602324981e-010 0.0
vertex 11.5556349186327 8.44436508135903 0.0
vertex 12.2000000000264 9.99999999996773 0.0
endloop
endfacet
facet normal -5.21701091893726e-042 -1.97215226305253e-030 -1.0
outer loop
vertex 40.0 -1.05813602324981e-010 0.0
vertex 12.2000000000264 9.99999999996773 0.0
vertex 28.4443650814119 8.44436508131434 0.0
endloop
endfacet
facet normal -5.21701091893726e-042 -1.97215226305253e-030 -1.0
outer loop
vertex 28.4443650814119 8.44436508131434 0.0
vertex 12.2000000000264 9.99999999996773 0.0
vertex 12.2000000000793 29.9999999999677 -2.25597318603832e-014
endloop
endfacet
facet normal -5.21701091893726e-042 -1.97215226305253e-030 -1.0
outer loop
vertex 28.4443650814119 8.44436508131434 0.0
vertex 12.2000000000793 29.9999999999677 -2.25597318603832e-014
vertex 27.8000000000264 9.99999999992646 0.0
endloop
endfacet
facet normal -5.21701091893726e-042 -1.97215226305253e-030 -1.0
outer loop
vertex 27.8000000000264 9.99999999992646 0.0
vertex 12.2000000000793 29.9999999999677 -2.25597318603832e-014
vertex 12.2000000001323 49.9999999999677 0.0
endloop
endfacet
facet normal -5.21701091893726e-042 -1.97215226305253e-030 -1.0
outer loop
vertex 27.8000000000264 9.99999999992646 0.0
vertex 12.2000000001323 49.9999999999677 0.0
vertex 20.0000000001587 59.9999999999471 -2.25597318603832e-014
endloop
endfacet
facet normal -5.21701091893726e-042 -1.97215226305253e-030 -1.0
outer loop
vertex 40.0 -1.05813602324981e-010 0.0
vertex 28.4443650814119 8.44436508131434 0.0
vertex 30.0000000000206 7.79999999992064 -2.25597318603832e-014
endloop
endfacet
facet normal -5.21701091893726e-042 -1.97215226305253e-030 -1.0
outer loop
vertex 40.0 -1.05813602324981e-010 0.0
vertex 30.0000000000206 7.79999999992064 -2.25597318603832e-014
vertex 31.5556349186327 8.44436508130612 -2.25597318603832e-014
endloop
endfacet
facet normal -5.21701091893726e-042 -1.97215226305253e-030 -1.0
outer loop
vertex 40.0 -1.05813602324981e-010 0.0
vertex 31.5556349186327 8.44436508130612 -2.25597318603832e-014
vertex 32.2000000000264 9.99999999991482 -2.25597318603832e-014
endloop
endfacet
facet normal 0.382683432362645 -0.923879532512299 0.0
outer loop
vertex 10.0000000000852 32.1999999999735 2.25597318603832e-014
vertex 8.44436508147307 31.5556349185881 5.99999999999999
vertex 8.44436508147307 31.5556349185881 -2.25597318603832e-014
endloop
endfacet
facet normal 0.382683432362645 -0.923879532512299 0.0
outer loop
vertex 8.44436508147307 31.5556349185881 5.99999999999999
vertex 10.0000000000852 32.1999999999735 2.25597318603832e-014
vertex 10.0000000000852 32.1999999999735 5.99999999999999
endloop
endfacet
facet normal 0.923879532510274 -0.382683432367534 -5.55111512312578e-017
outer loop
vertex 8.44436508147307 31.5556349185881 -2.25597318603832e-014
vertex 7.80000000007931 29.9999999999794 5.99999999999999
vertex 7.80000000007935 29.9999999999794 -2.25597318603832e-014
endloop
endfacet
facet normal 0.923879532510274 -0.382683432367534 -5.55111512312578e-017
outer loop
vertex 7.80000000007931 29.9999999999794 5.99999999999999
vertex 8.44436508147307 31.5556349185881 -2.25597318603832e-014
vertex 8.44436508147307 31.5556349185881 5.99999999999999
endloop
endfacet
facet normal 2.64533880911522e-012 1.0 -2.6131017485446e-030
outer loop
vertex 7.80000000015871 59.9999999999794 7.19999999999999
vertex 12.2000000001587 59.9999999999677 5.99999999999999
vertex 7.80000000015867 59.9999999999794 5.99999999999999
endloop
endfacet
facet normal 2.64533880911522e-012 1.0 -2.6131017485446e-030
outer loop
vertex 12.2000000001587 59.9999999999677 5.99999999999999
vertex 7.80000000015871 59.9999999999794 7.19999999999999
vertex 12.2000000001587 59.9999999999677 7.19999999999999
endloop
endfacet
facet normal 2.64533880911522e-012 1.0 -2.6131017485446e-030
outer loop
vertex 1.58680849016157e-010 60.0 5.99999999999999
vertex 20.0000000001587 59.9999999999471 -2.25597318603832e-014
vertex 1.58680849016157e-010 60.0 -2.25597318603832e-014
endloop
endfacet
facet normal 2.64533880911522e-012 1.0 -2.6131017485446e-030
outer loop
vertex 20.0000000001587 59.9999999999471 -2.25597318603832e-014
vertex 1.58680849016157e-010 60.0 5.99999999999999
vertex 12.2000000001587 59.9999999999677 5.99999999999999
endloop
endfacet
facet normal 2.64533880911522e-012 1.0 -2.6131017485446e-030
outer loop
vertex 20.0000000001587 59.9999999999471 -2.25597318603832e-014
vertex 12.2000000001587 59.9999999999677 5.99999999999999
vertex 20.0000000001587 59.9999999999471 6.00000000000001
endloop
endfacet
facet normal 2.64533880911522e-012 1.0 -2.6131017485446e-030
outer loop
vertex 12.2000000001587 59.9999999999677 5.99999999999999
vertex 1.58680849016157e-010 60.0 5.99999999999999
vertex 7.80000000015867 59.9999999999794 5.99999999999999
endloop
endfacet
facet normal -2.64533880911522e-012 -1.0 2.6131017485446e-030
outer loop
vertex 27.8000000000206 7.79999999992646 7.19999999999996
vertex 12.2000000000206 7.79999999996772 5.99999999999999
vertex 27.8000000000206 7.79999999992646 5.99999999999997
endloop
endfacet
facet normal -2.64533880911522e-012 -1.0 2.6131017485446e-030
outer loop
vertex 12.2000000000206 7.79999999996772 5.99999999999999
vertex 27.8000000000206 7.79999999992646 7.19999999999996
vertex 12.2000000000206 7.79999999996772 7.19999999999999
endloop
endfacet
facet normal 0.923879532512298 0.382683432362648 0.0
outer loop
vertex 27.8000000000264 9.99999999992646 0.0
vertex 28.4443650814119 8.44436508131435 5.99999999999999
vertex 28.4443650814119 8.44436508131434 0.0
endloop
endfacet
facet normal 0.923879532512298 0.382683432362648 0.0
outer loop
vertex 28.4443650814119 8.44436508131435 5.99999999999999
vertex 27.8000000000264 9.99999999992646 0.0
vertex 27.8000000000265 9.99999999992646 5.99999999999999
endloop
endfacet
endsolid 90 thin L
