solid 90 thin R
facet normal -0.382683432367536 -0.923879532510273 2.77555756156289e-017
outer loop
vertex 11.5556349186939 31.5556349185798 6.00000000000001
vertex 10.0000000000851 32.1999999999736 2.25597318603832e-014
vertex 11.5556349186938 31.5556349185798 0.0
endloop
endfacet
facet normal -0.382683432367536 -0.923879532510273 2.77555756156289e-017
outer loop
vertex 10.0000000000851 32.1999999999736 2.25597318603832e-014
vertex 11.5556349186939 31.5556349185798 6.00000000000001
vertex 10.0000000000852 32.1999999999735 6.00000000000001
endloop
endfacet
facet normal 2.39865243323966e-028 9.06746774732398e-017 1.0
outer loop
vertex 8.44436508152598 51.5556349185881 6.00000000000001
vertex 7.80000000013808 52.1999999999794 5.99999999999999
vertex 7.80000000013226 49.9999999999794 6.00000000000001
endloop
endfacet
facet normal 2.39865243323966e-028 9.06746774732398e-017 1.0
outer loop
vertex 28.444365081526 51.5556349185352 5.99999999999999
vertex 27.8000000001381 52.1999999999265 5.99999999999997
vertex 27.8000000001323 49.9999999999265 5.99999999999999
endloop
endfacet
facet normal 2.39865243323966e-028 9.06746774732398e-017 1.0
outer loop
vertex 7.80000000013808 52.1999999999794 5.99999999999999
vertex 1.58725968479878e-010 60.0 5.99999999999999
vertex 1.38092325768779e-010 52.2 6.00000000000001
endloop
endfacet
facet normal 2.39865243323966e-028 9.06746774732398e-017 1.0
outer loop
vertex 1.58725968479878e-010 60.0 5.99999999999999
vertex 7.80000000013808 52.1999999999794 5.99999999999999
vertex 40.0000000001587 59.9999999998942 5.99999999999999
endloop
endfacet
facet normal 2.39865243323966e-028 9.06746774732398e-017 1.0
outer loop
vertex 40.0000000001587 59.9999999998942 5.99999999999999
vertex 7.80000000013808 52.1999999999794 5.99999999999999
vertex 10.000000000138 52.1999999999736 5.99999999999999
endloop
endfacet
facet normal 2.39865243323966e-028 9.06746774732398e-017 1.0
outer loop
vertex 10.000000000138 52.1999999999736 5.99999999999999
vertex 7.80000000013808 52.1999999999794 5.99999999999999
vertex 8.44436508152598 51.5556349185881 6.00000000000001
endloop
endfacet
facet normal 2.39865243323966e-028 9.06746774732398e-017 1.0
outer loop
vertex 40.0000000001587 59.9999999998942 5.99999999999999
vertex 10.000000000138 52.1999999999736 5.99999999999999
vertex 12.2000000001381 52.1999999999677 5.99999999999999
endloop
endfacet
facet normal 2.39865243323966e-028 9.06746774732398e-017 1.0
outer loop
vertex 12.2000000001381 52.1999999999677 5.99999999999999
vertex 10.000000000138 52.1999999999736 5.99999999999999
vertex 11.5556349187468 51.5556349185798 6.00000000000001
endloop
endfacet
facet normal 2.39865243323966e-028 9.06746774732398e-017 1.0
outer loop
vertex 12.2000000001381 52.1999999999677 5.99999999999999
vertex 11.5556349187468 51.5556349185798 6.00000000000001
vertex 12.2000000001323 49.9999999999677 6.00000000000001
endloop
endfacet
facet normal 2.39865243323966e-028 9.06746774732398e-017 1.0
outer loop
vertex 40.0000000001587 59.9999999998942 5.99999999999999
vertex 12.2000000001381 52.1999999999677 5.99999999999999
vertex 27.8000000001381 52.1999999999265 5.99999999999997
endloop
endfacet
facet normal 2.39865243323966e-028 9.06746774732398e-017 1.0
outer loop
vertex 40.0000000001587 59.9999999998942 5.99999999999999
vertex 27.8000000001381 52.1999999999265 5.99999999999997
vertex 28.444365081526 51.5556349185352 5.99999999999999
endloop
endfacet
facet normal 2.39865243323966e-028 9.06746774732398e-017 1.0
outer loop
vertex 40.0000000001587 59.9999999998942 5.99999999999999
vertex 28.444365081526 51.5556349185352 5.99999999999999
vertex 30.0000000001381 52.1999999999206 6.00000000000001
endloop
endfacet
facet normal 2.39865243323966e-028 9.06746774732398e-017 1.0
outer loop
vertex 40.0000000001587 59.9999999998942 5.99999999999999
vertex 30.0000000001381 52.1999999999206 6.00000000000001
vertex 31.5556349187468 51.5556349185269 5.99999999999999
endloop
endfacet
facet normal 2.39865243323966e-028 9.06746774732398e-017 1.0
outer loop
vertex 40.0000000001587 59.9999999998942 5.99999999999999
vertex 31.5556349187468 51.5556349185269 5.99999999999999
vertex 32.2000000001381 52.1999999999148 5.99999999999999
endloop
endfacet
facet normal 2.39865243323966e-028 9.06746774732398e-017 1.0
outer loop
vertex 32.2000000001381 52.1999999999148 5.99999999999999
vertex 31.5556349187468 51.5556349185269 5.99999999999999
vertex 32.2000000001323 49.9999999999148 5.99999999999999
endloop
endfacet
facet normal 2.39865243323966e-028 9.06746774732398e-017 1.0
outer loop
vertex 40.0000000001587 59.9999999998942 5.99999999999999
vertex 32.2000000001381 52.1999999999148 5.99999999999999
vertex 40.0000000001381 52.1999999998942 5.99999999999997
endloop
endfacet
facet normal -0.923879532510274 0.382683432367535 0.0
outer loop
vertex 12.2000000001323 49.9999999999677 6.00000000000001
vertex 11.5556349187385 48.444365081359 0.0
vertex 11.5556349187385 48.444365081359 6.00000000000001
endloop
endfacet
facet normal -0.923879532510274 0.382683432367535 0.0
outer loop
vertex 11.5556349187385 48.444365081359 0.0
vertex 12.2000000001323 49.9999999999677 6.00000000000001
vertex 12.2000000001323 49.9999999999677 0.0
endloop
endfacet
facet normal -5.21701091893726e-042 -1.97215226305253e-030 1.0
outer loop
vertex 12.2 -3.22716964262781e-011 7.19999999999999
vertex 7.80000000002067 7.79999999997939 7.19999999999999
vertex 7.79999999999999 -2.06195949203902e-011 7.19999999999999
endloop
endfacet
facet normal -5.21701091893726e-042 -1.97215226305253e-030 1.0
outer loop
vertex 7.80000000002067 7.79999999997939 7.19999999999999
vertex 12.2 -3.22716964262781e-011 7.19999999999999
vertex 12.2000000000207 7.79999999996774 7.20000000000001
endloop
endfacet
facet normal 0.923879532510274 -0.382683432367534 5.55111512312578e-017
outer loop
vertex 7.80000000007935 29.9999999999794 -2.25597318603832e-014
vertex 8.44436508147307 31.5556349185881 5.99999999999999
vertex 7.80000000007931 29.9999999999794 5.99999999999999
endloop
endfacet
facet normal 0.923879532510274 -0.382683432367534 5.55111512312578e-017
outer loop
vertex 8.44436508147307 31.5556349185881 5.99999999999999
vertex 7.80000000007935 29.9999999999794 -2.25597318603832e-014
vertex 8.44436508147307 31.5556349185881 -2.25597318603832e-014
endloop
endfacet
facet normal 0.923879532510274 -0.382683432367535 0.0
outer loop
vertex 8.44436508152593 51.5556349185881 0.0
vertex 7.80000000013226 49.9999999999794 6.00000000000001
vertex 7.80000000013221 49.9999999999794 0.0
endloop
endfacet
facet normal 0.923879532510274 -0.382683432367535 0.0
outer loop
vertex 7.80000000013226 49.9999999999794 6.00000000000001
vertex 8.44436508152593 51.5556349185881 0.0
vertex 8.44436508152598 51.5556349185881 6.00000000000001
endloop
endfacet
facet normal -5.21701091893726e-042 -1.97215226305253e-030 1.0
outer loop
vertex 7.80000000012644 47.7999999999794 7.20000000000001
vertex 1.38092325768779e-010 52.2 7.20000000000001
vertex 1.26452835008672e-010 47.8 7.20000000000001
endloop
endfacet
facet normal -5.21701091893726e-042 -1.97215226305253e-030 1.0
outer loop
vertex 1.38092325768779e-010 52.2 7.20000000000001
vertex 7.80000000012644 47.7999999999794 7.20000000000001
vertex 7.80000000013808 52.1999999999794 7.19999999999999
endloop
endfacet
facet normal 0.923879532512299 0.382683432362645 0.0
outer loop
vertex 7.80000000013221 49.9999999999794 0.0
vertex 8.44436508151775 48.4443650813673 6.00000000000001
vertex 8.44436508151775 48.4443650813673 -2.25597318603832e-014
endloop
endfacet
facet normal 0.923879532512299 0.382683432362645 0.0
outer loop
vertex 8.44436508151775 48.4443650813673 6.00000000000001
vertex 7.80000000013221 49.9999999999794 0.0
vertex 7.80000000013226 49.9999999999794 6.00000000000001
endloop
endfacet
facet normal -1.0 2.64533880911522e-012 0.0
outer loop
vertex 1.38092325768779e-010 52.2 7.20000000000001
vertex 1.26452835008672e-010 47.8 6.00000000000003
vertex 1.26452835008672e-010 47.8 7.20000000000001
endloop
endfacet
facet normal -1.0 2.64533880911522e-012 0.0
outer loop
vertex 1.26452835008672e-010 47.8 6.00000000000003
vertex -3.94795307556706e-014 0.0 -2.25597318603832e-014
vertex -3.94795307556706e-014 0.0 5.99999999999999
endloop
endfacet
facet normal -1.0 2.64533880911522e-012 0.0
outer loop
vertex -3.94795307556706e-014 0.0 -2.25597318603832e-014
vertex 1.26452835008672e-010 47.8 6.00000000000003
vertex 1.58680849016157e-010 60.0 0.0
endloop
endfacet
facet normal -1.0 2.64533880911522e-012 0.0
outer loop
vertex 1.58680849016157e-010 60.0 0.0
vertex 1.26452835008672e-010 47.8 6.00000000000003
vertex 1.38092325768779e-010 52.2 6.00000000000001
endloop
endfacet
facet normal -1.0 2.64533880911522e-012 0.0
outer loop
vertex 1.38092325768779e-010 52.2 6.00000000000001
vertex 1.26452835008672e-010 47.8 6.00000000000003
vertex 1.38092325768779e-010 52.2 7.20000000000001
endloop
endfacet
facet normal -1.0 2.64533880911522e-012 0.0
outer loop
vertex 1.58680849016157e-010 60.0 0.0
vertex 1.38092325768779e-010 52.2 6.00000000000001
vertex 1.58725968479878e-010 60.0 5.99999999999999
endloop
endfacet
facet normal 0.9238795325123 0.382683432362645 -5.55111512312578e-017
outer loop
vertex 7.80000000002645 9.99999999997937 0.0
vertex 8.44436508141193 8.44436508136726 5.99999999999999
vertex 8.44436508141193 8.44436508136726 -2.25597318603832e-014
endloop
endfacet
facet normal 0.9238795325123 0.382683432362645 -5.55111512312578e-017
outer loop
vertex 8.44436508141193 8.44436508136726 5.99999999999999
vertex 7.80000000002645 9.99999999997937 0.0
vertex 7.80000000002645 9.99999999997936 5.99999999999999
endloop
endfacet
facet normal 0.923879532510274 -0.382683432367534 5.55111512312578e-017
outer loop
vertex 7.80000000002645 9.99999999997937 0.0
vertex 8.44436508142017 11.5556349185881 5.99999999999999
vertex 7.80000000002645 9.99999999997936 5.99999999999999
endloop
endfacet
facet normal 0.923879532510274 -0.382683432367534 5.55111512312578e-017
outer loop
vertex 8.44436508142017 11.5556349185881 5.99999999999999
vertex 7.80000000002645 9.99999999997937 0.0
vertex 8.44436508142017 11.5556349185881 -2.25597318603832e-014
endloop
endfacet
facet normal -0.923879532512299 -0.382683432362646 5.55111512312578e-017
outer loop
vertex 11.5556349186409 11.5556349185798 5.99999999999999
vertex 12.2000000000265 9.99999999996772 0.0
vertex 12.2000000000264 9.99999999996772 5.99999999999999
endloop
endfacet
facet normal -0.923879532512299 -0.382683432362646 5.55111512312578e-017
outer loop
vertex 12.2000000000265 9.99999999996772 0.0
vertex 11.5556349186409 11.5556349185798 5.99999999999999
vertex 11.5556349186409 11.5556349185798 -2.25597318603832e-014
endloop
endfacet
facet normal 1.0 -2.64533880911522e-012 0.0
outer loop
vertex 12.2000000000206 7.79999999996774 6.00000000000001
vertex 12.2 -3.22716964262781e-011 7.19999999999999
vertex 12.2 -3.22716964262781e-011 5.99999999999999
endloop
endfacet
facet normal 1.0 -2.64533880911522e-012 0.0
outer loop
vertex 12.2 -3.22716964262781e-011 7.19999999999999
vertex 12.2000000000206 7.79999999996774 6.00000000000001
vertex 12.2000000000207 7.79999999996774 7.20000000000001
endloop
endfacet
facet normal -1.0 2.64565925985187e-012 0.0
outer loop
vertex 12.2000000001381 52.1999999999677 7.19999999999999
vertex 12.2000000001264 47.7999999999677 6.00000000000001
vertex 12.2000000001264 47.7999999999677 7.20000000000001
endloop
endfacet
facet normal -1.0 2.64565925985187e-012 0.0
outer loop
vertex 12.2000000001264 47.7999999999677 6.00000000000001
vertex 12.2000000001381 52.1999999999677 7.19999999999999
vertex 12.2000000001323 49.9999999999677 6.00000000000001
endloop
endfacet
facet normal -1.0 2.64565925985187e-012 0.0
outer loop
vertex 12.2000000001323 49.9999999999677 6.00000000000001
vertex 12.2000000001381 52.1999999999677 7.19999999999999
vertex 12.2000000001381 52.1999999999677 5.99999999999999
endloop
endfacet
facet normal 2.64551957619743e-012 1.0 -1.23259516440783e-030
outer loop
vertex 32.2000000001381 52.1999999999148 5.99999999999999
vertex 40.0000000001381 52.1999999998942 7.20000000000001
vertex 40.0000000001381 52.1999999998942 5.99999999999997
endloop
endfacet
facet normal 2.64551957619743e-012 1.0 -1.23259516440783e-030
outer loop
vertex 40.0000000001381 52.1999999998942 7.20000000000001
vertex 32.2000000001381 52.1999999999148 5.99999999999999
vertex 32.200000000138 52.1999999999148 7.19999999999999
endloop
endfacet
facet normal -2.64533880911522e-012 -1.0 -2.6131017485446e-030
outer loop
vertex 40.0000000001264 47.7999999998942 6.00000000000001
vertex 32.2000000001264 47.7999999999148 7.19999999999999
vertex 32.2000000001264 47.7999999999148 5.99999999999999
endloop
endfacet
facet normal -2.64533880911522e-012 -1.0 -2.6131017485446e-030
outer loop
vertex 32.2000000001264 47.7999999999148 7.19999999999999
vertex 40.0000000001264 47.7999999998942 6.00000000000001
vertex 40.0000000001264 47.7999999998942 7.20000000000001
endloop
endfacet
facet normal -2.64533880911522e-012 -1.0 -2.6131017485446e-030
outer loop
vertex 12.2000000000323 12.1999999999677 6.00000000000001
vertex 7.80000000003226 12.1999999999794 6.00000000000001
vertex 10.0000000000323 12.1999999999735 5.99999999999999
endloop
endfacet
facet normal -2.64533880911522e-012 -1.0 -2.6131017485446e-030
outer loop
vertex 7.80000000003226 12.1999999999794 6.00000000000001
vertex 12.2000000000323 12.1999999999677 6.00000000000001
vertex 12.2000000000323 12.1999999999677 7.20000000000001
endloop
endfacet
facet normal -2.64533880911522e-012 -1.0 -2.6131017485446e-030
outer loop
vertex 7.80000000003226 12.1999999999794 6.00000000000001
vertex 12.2000000000323 12.1999999999677 7.20000000000001
vertex 7.80000000003231 12.1999999999794 7.20000000000001
endloop
endfacet
facet normal 0.382683432362645 -0.923879532512299 2.77555756156289e-017
outer loop
vertex 10.0000000000323 12.1999999999736 0.0
vertex 8.44436508142017 11.5556349185881 5.99999999999999
vertex 8.44436508142017 11.5556349185881 -2.25597318603832e-014
endloop
endfacet
facet normal 0.382683432362645 -0.923879532512299 2.77555756156289e-017
outer loop
vertex 8.44436508142017 11.5556349185881 5.99999999999999
vertex 10.0000000000323 12.1999999999736 0.0
vertex 10.0000000000323 12.1999999999735 5.99999999999999
endloop
endfacet
facet normal -1.0 2.64533880911522e-012 0.0
outer loop
vertex 7.80000000003231 12.1999999999794 7.20000000000001
vertex 7.80000000007353 27.7999999999794 6.00000000000001
vertex 7.80000000003226 12.1999999999794 6.00000000000001
endloop
endfacet
facet normal -1.0 2.64533880911522e-012 0.0
outer loop
vertex 7.80000000007353 27.7999999999794 6.00000000000001
vertex 7.80000000003231 12.1999999999794 7.20000000000001
vertex 7.80000000007358 27.7999999999794 7.19999999999999
endloop
endfacet
facet normal -0.923879532510274 0.382683432367535 0.0
outer loop
vertex 11.5556349186856 28.444365081359 6.00000000000001
vertex 12.2000000000793 29.9999999999677 -2.25597318603832e-014
vertex 11.5556349186856 28.444365081359 -2.25597318603832e-014
endloop
endfacet
facet normal -0.923879532510274 0.382683432367535 0.0
outer loop
vertex 12.2000000000793 29.9999999999677 -2.25597318603832e-014
vertex 11.5556349186856 28.444365081359 6.00000000000001
vertex 12.2000000000793 29.9999999999677 5.99999999999999
endloop
endfacet
facet normal 2.64533880911522e-012 1.0 2.6131017485446e-030
outer loop
vertex 7.80000000002063 7.79999999997939 6.00000000000001
vertex 12.2000000000206 7.79999999996774 6.00000000000001
vertex 10.0000000000207 7.79999999997356 5.99999999999997
endloop
endfacet
facet normal 2.64533880911522e-012 1.0 2.6131017485446e-030
outer loop
vertex 12.2000000000206 7.79999999996774 6.00000000000001
vertex 7.80000000002063 7.79999999997939 6.00000000000001
vertex 7.80000000002067 7.79999999997939 7.19999999999999
endloop
endfacet
facet normal 2.64533880911522e-012 1.0 2.6131017485446e-030
outer loop
vertex 12.2000000000206 7.79999999996774 6.00000000000001
vertex 7.80000000002067 7.79999999997939 7.19999999999999
vertex 12.2000000000207 7.79999999996774 7.20000000000001
endloop
endfacet
facet normal -1.0 2.64533880911522e-012 0.0
outer loop
vertex 32.200000000138 52.1999999999148 7.19999999999999
vertex 32.2000000001264 47.7999999999148 5.99999999999999
vertex 32.2000000001264 47.7999999999148 7.19999999999999
endloop
endfacet
facet normal -1.0 2.64533880911522e-012 0.0
outer loop
vertex 32.2000000001264 47.7999999999148 5.99999999999999
vertex 32.200000000138 52.1999999999148 7.19999999999999
vertex 32.2000000001323 49.9999999999148 5.99999999999999
endloop
endfacet
facet normal -1.0 2.64533880911522e-012 0.0
outer loop
vertex 32.2000000001323 49.9999999999148 5.99999999999999
vertex 32.200000000138 52.1999999999148 7.19999999999999
vertex 32.2000000001381 52.1999999999148 5.99999999999999
endloop
endfacet
facet normal -0.923879532512299 -0.382683432362645 0.0
outer loop
vertex 11.5556349187468 51.5556349185798 6.00000000000001
vertex 12.2000000001323 49.9999999999677 0.0
vertex 12.2000000001323 49.9999999999677 6.00000000000001
endloop
endfacet
facet normal -0.923879532512299 -0.382683432362645 0.0
outer loop
vertex 12.2000000001323 49.9999999999677 0.0
vertex 11.5556349187468 51.5556349185798 6.00000000000001
vertex 11.5556349187468 51.5556349185798 0.0
endloop
endfacet
facet normal -0.382683432362646 0.923879532512299 -2.77555756156289e-017
outer loop
vertex 30.0000000001264 47.7999999999206 6.00000000000003
vertex 31.5556349187385 48.4443650813061 0.0
vertex 30.0000000001264 47.7999999999206 0.0
endloop
endfacet
facet normal -0.382683432362646 0.923879532512299 -2.77555756156289e-017
outer loop
vertex 31.5556349187385 48.4443650813061 0.0
vertex 30.0000000001264 47.7999999999206 6.00000000000003
vertex 31.5556349187385 48.4443650813061 5.99999999999999
endloop
endfacet
facet normal 2.64533880911522e-012 1.0 2.6131017485446e-030
outer loop
vertex 1.58725968479878e-010 60.0 5.99999999999999
vertex 40.0000000001587 59.9999999998942 0.0
vertex 1.58680849016157e-010 60.0 0.0
endloop
endfacet
facet normal 2.64533880911522e-012 1.0 2.6131017485446e-030
outer loop
vertex 40.0000000001587 59.9999999998942 0.0
vertex 1.58725968479878e-010 60.0 5.99999999999999
vertex 40.0000000001587 59.9999999998942 5.99999999999999
endloop
endfacet
facet normal 0.382683432367535 0.923879532510274 -2.77555756156289e-017
outer loop
vertex 8.44436508151775 48.4443650813673 6.00000000000001
vertex 10.0000000001264 47.7999999999736 0.0
vertex 8.44436508151775 48.4443650813673 -2.25597318603832e-014
endloop
endfacet
facet normal 0.382683432367535 0.923879532510274 -2.77555756156289e-017
outer loop
vertex 10.0000000001264 47.7999999999736 0.0
vertex 8.44436508151775 48.4443650813673 6.00000000000001
vertex 10.0000000001264 47.7999999999736 6.00000000000001
endloop
endfacet
facet normal 2.64533880911522e-012 1.0 2.6131017485446e-030
outer loop
vertex 12.2000000001381 52.1999999999677 5.99999999999999
vertex 27.800000000138 52.1999999999265 7.19999999999996
vertex 27.8000000001381 52.1999999999265 5.99999999999997
endloop
endfacet
facet normal 2.64533880911522e-012 1.0 2.6131017485446e-030
outer loop
vertex 27.800000000138 52.1999999999265 7.19999999999996
vertex 12.2000000001381 52.1999999999677 5.99999999999999
vertex 12.2000000001381 52.1999999999677 7.19999999999999
endloop
endfacet
facet normal -0.382683432362639 0.923879532512302 0.0
outer loop
vertex 10.0000000000207 7.79999999997356 5.99999999999997
vertex 11.5556349186327 8.44436508135901 0.0
vertex 10.0000000000206 7.79999999997355 0.0
endloop
endfacet
facet normal -0.382683432362639 0.923879532512302 0.0
outer loop
vertex 11.5556349186327 8.44436508135901 0.0
vertex 10.0000000000207 7.79999999997356 5.99999999999997
vertex 11.5556349186327 8.44436508135902 5.99999999999999
endloop
endfacet
facet normal -0.382683432362645 0.923879532512299 0.0
outer loop
vertex 10.0000000001264 47.7999999999736 6.00000000000001
vertex 11.5556349187385 48.444365081359 0.0
vertex 10.0000000001264 47.7999999999736 0.0
endloop
endfacet
facet normal -0.382683432362645 0.923879532512299 0.0
outer loop
vertex 11.5556349187385 48.444365081359 0.0
vertex 10.0000000001264 47.7999999999736 6.00000000000001
vertex 11.5556349187385 48.444365081359 6.00000000000001
endloop
endfacet
facet normal -1.0 2.64533880911522e-012 0.0
outer loop
vertex 7.80000000008517 32.1999999999794 7.20000000000003
vertex 7.80000000010311 38.9999999999794 5.99999999999999
vertex 7.80000000008513 32.1999999999794 5.99999999999999
endloop
endfacet
facet normal -1.0 2.64533880911522e-012 0.0
outer loop
vertex 7.80000000010311 38.9999999999794 5.99999999999999
vertex 7.80000000008517 32.1999999999794 7.20000000000003
vertex 7.80000000010316 38.9999999999794 7.20000000000001
endloop
endfacet
facet normal -5.21701091893726e-042 -1.97215226305253e-030 1.0
outer loop
vertex 12.2000000000323 12.1999999999677 7.20000000000001
vertex 7.80000000007358 27.7999999999794 7.19999999999999
vertex 7.80000000003231 12.1999999999794 7.20000000000001
endloop
endfacet
facet normal -5.21701091893726e-042 -1.97215226305253e-030 1.0
outer loop
vertex 7.80000000007358 27.7999999999794 7.19999999999999
vertex 12.2000000000323 12.1999999999677 7.20000000000001
vertex 12.2000000000735 27.7999999999677 7.20000000000001
endloop
endfacet
facet normal 0.382683432367533 0.923879532510275 0.0
outer loop
vertex 8.44436508146484 28.4443650813673 5.99999999999999
vertex 10.0000000000736 27.7999999999736 2.25597318603832e-014
vertex 8.44436508146484 28.4443650813673 -2.25597318603832e-014
endloop
endfacet
facet normal 0.382683432367533 0.923879532510275 0.0
outer loop
vertex 10.0000000000736 27.7999999999736 2.25597318603832e-014
vertex 8.44436508146484 28.4443650813673 5.99999999999999
vertex 10.0000000000736 27.7999999999736 5.99999999999999
endloop
endfacet
facet normal -2.64533880911522e-012 -1.0 -2.6131017485446e-030
outer loop
vertex 20.0 -5.28912913466684e-011 6.00000000000001
vertex -3.94795307556706e-014 0.0 -2.25597318603832e-014
vertex 20.0 -5.28912913466684e-011 -2.25597318603832e-014
endloop
endfacet
facet normal -2.64533880911522e-012 -1.0 -2.6131017485446e-030
outer loop
vertex -3.94795307556706e-014 0.0 -2.25597318603832e-014
vertex 20.0 -5.28912913466684e-011 6.00000000000001
vertex 12.2 -3.22716964262781e-011 5.99999999999999
endloop
endfacet
facet normal -2.64533880911522e-012 -1.0 -2.6131017485446e-030
outer loop
vertex 12.2 -3.22716964262781e-011 7.19999999999999
vertex 7.79999999999995 -2.06195949203902e-011 5.99999999999999
vertex 12.2 -3.22716964262781e-011 5.99999999999999
endloop
endfacet
facet normal -2.64533880911522e-012 -1.0 -2.6131017485446e-030
outer loop
vertex 7.79999999999995 -2.06195949203902e-011 5.99999999999999
vertex 12.2 -3.22716964262781e-011 7.19999999999999
vertex 7.79999999999999 -2.06195949203902e-011 7.19999999999999
endloop
endfacet
facet normal -2.64533880911522e-012 -1.0 -2.6131017485446e-030
outer loop
vertex 12.2 -3.22716964262781e-011 5.99999999999999
vertex -3.94795307556706e-014 0.0 5.99999999999999
vertex -3.94795307556706e-014 0.0 -2.25597318603832e-014
endloop
endfacet
facet normal -2.64533880911522e-012 -1.0 -2.6131017485446e-030
outer loop
vertex -3.94795307556706e-014 0.0 5.99999999999999
vertex 12.2 -3.22716964262781e-011 5.99999999999999
vertex 7.79999999999995 -2.06195949203902e-011 5.99999999999999
endloop
endfacet
facet normal 0.923879532512299 0.382683432362646 -5.55111512312578e-017
outer loop
vertex 7.80000000007935 29.9999999999794 -2.25597318603832e-014
vertex 8.44436508146484 28.4443650813673 5.99999999999999
vertex 8.44436508146484 28.4443650813673 -2.25597318603832e-014
endloop
endfacet
facet normal 0.923879532512299 0.382683432362646 -5.55111512312578e-017
outer loop
vertex 8.44436508146484 28.4443650813673 5.99999999999999
vertex 7.80000000007935 29.9999999999794 -2.25597318603832e-014
vertex 7.80000000007931 29.9999999999794 5.99999999999999
endloop
endfacet
facet normal 5.21701091893726e-042 1.97215226305253e-030 -1.0
outer loop
vertex 1.58680849016157e-010 60.0 0.0
vertex 7.80000000013221 49.9999999999794 0.0
vertex 7.80000000002645 9.99999999997937 0.0
endloop
endfacet
facet normal 5.21701091893726e-042 1.97215226305253e-030 -1.0
outer loop
vertex 7.80000000013221 49.9999999999794 0.0
vertex 1.58680849016157e-010 60.0 0.0
vertex 8.44436508152593 51.5556349185881 0.0
endloop
endfacet
facet normal 5.21701091893726e-042 1.97215226305253e-030 -1.0
outer loop
vertex 8.44436508152593 51.5556349185881 0.0
vertex 1.58680849016157e-010 60.0 0.0
vertex 10.000000000138 52.1999999999736 -2.25597318603832e-014
endloop
endfacet
facet normal 5.21701091893726e-042 1.97215226305253e-030 -1.0
outer loop
vertex 10.000000000138 52.1999999999736 -2.25597318603832e-014
vertex 1.58680849016157e-010 60.0 0.0
vertex 40.0000000001587 59.9999999998942 0.0
endloop
endfacet
facet normal 5.21701091893726e-042 1.97215226305253e-030 -1.0
outer loop
vertex 7.80000000002645 9.99999999997937 0.0
vertex 7.80000000013221 49.9999999999794 0.0
vertex 7.80000000007935 29.9999999999794 -2.25597318603832e-014
endloop
endfacet
facet normal 5.21701091893726e-042 1.97215226305253e-030 -1.0
outer loop
vertex 10.000000000138 52.1999999999736 -2.25597318603832e-014
vertex 40.0000000001587 59.9999999998942 0.0
vertex 11.5556349187468 51.5556349185798 0.0
endloop
endfacet
facet normal 5.21701091893726e-042 1.97215226305253e-030 -1.0
outer loop
vertex 11.5556349187468 51.5556349185798 0.0
vertex 40.0000000001587 59.9999999998942 0.0
vertex 12.2000000001323 49.9999999999677 0.0
endloop
endfacet
facet normal 5.21701091893726e-042 1.97215226305253e-030 -1.0
outer loop
vertex 12.2000000001323 49.9999999999677 0.0
vertex 40.0000000001587 59.9999999998942 0.0
vertex 28.4443650815259 51.5556349185352 0.0
endloop
endfacet
facet normal 5.21701091893726e-042 1.97215226305253e-030 -1.0
outer loop
vertex 12.2000000001323 49.9999999999677 0.0
vertex 28.4443650815259 51.5556349185352 0.0
vertex 27.8000000001322 49.9999999999265 0.0
endloop
endfacet
facet normal 5.21701091893726e-042 1.97215226305253e-030 -1.0
outer loop
vertex 12.2000000001323 49.9999999999677 0.0
vertex 27.8000000001322 49.9999999999265 0.0
vertex 20.0 -5.28912913466684e-011 -2.25597318603832e-014
endloop
endfacet
facet normal 5.21701091893726e-042 1.97215226305253e-030 -1.0
outer loop
vertex 28.4443650815259 51.5556349185352 0.0
vertex 40.0000000001587 59.9999999998942 0.0
vertex 30.0000000001381 52.1999999999206 -2.25597318603832e-014
endloop
endfacet
facet normal 5.21701091893726e-042 1.97215226305253e-030 -1.0
outer loop
vertex 30.0000000001381 52.1999999999206 -2.25597318603832e-014
vertex 40.0000000001587 59.9999999998942 0.0
vertex 31.5556349187467 51.5556349185269 -2.25597318603832e-014
endloop
endfacet
facet normal 5.21701091893726e-042 1.97215226305253e-030 -1.0
outer loop
vertex 31.5556349187467 51.5556349185269 -2.25597318603832e-014
vertex 40.0000000001587 59.9999999998942 0.0
vertex 32.2000000001322 49.9999999999148 -2.25597318603832e-014
endloop
endfacet
facet normal 5.21701091893726e-042 1.97215226305253e-030 -1.0
outer loop
vertex 32.2000000001322 49.9999999999148 -2.25597318603832e-014
vertex 40.0000000001587 59.9999999998942 0.0
vertex 40.0000000001058 39.9999999998942 0.0
endloop
endfacet
facet normal 5.21701091893726e-042 1.97215226305253e-030 -1.0
outer loop
vertex 20.0 -5.28912913466684e-011 -2.25597318603832e-014
vertex 28.4443650815178 48.4443650813144 0.0
vertex 40.0000000001058 39.9999999998942 0.0
endloop
endfacet
facet normal 5.21701091893726e-042 1.97215226305253e-030 -1.0
outer loop
vertex 28.4443650815178 48.4443650813144 0.0
vertex 20.0 -5.28912913466684e-011 -2.25597318603832e-014
vertex 27.8000000001322 49.9999999999265 0.0
endloop
endfacet
facet normal 5.21701091893726e-042 1.97215226305253e-030 -1.0
outer loop
vertex 40.0000000001058 39.9999999998942 0.0
vertex 28.4443650815178 48.4443650813144 0.0
vertex 30.0000000001264 47.7999999999206 0.0
endloop
endfacet
facet normal 5.21701091893726e-042 1.97215226305253e-030 -1.0
outer loop
vertex 40.0000000001058 39.9999999998942 0.0
vertex 30.0000000001264 47.7999999999206 0.0
vertex 31.5556349187385 48.4443650813061 0.0
endloop
endfacet
facet normal 5.21701091893726e-042 1.97215226305253e-030 -1.0
outer loop
vertex 40.0000000001058 39.9999999998942 0.0
vertex 31.5556349187385 48.4443650813061 0.0
vertex 32.2000000001322 49.9999999999148 -2.25597318603832e-014
endloop
endfacet
facet normal 5.21701091893726e-042 1.97215226305253e-030 -1.0
outer loop
vertex 7.80000000007935 29.9999999999794 -2.25597318603832e-014
vertex 8.44436508142017 11.5556349185881 -2.25597318603832e-014
vertex 7.80000000002645 9.99999999997937 0.0
endloop
endfacet
facet normal 5.21701091893726e-042 1.97215226305253e-030 -1.0
outer loop
vertex 8.44436508142017 11.5556349185881 -2.25597318603832e-014
vertex 7.80000000007935 29.9999999999794 -2.25597318603832e-014
vertex 8.44436508146484 28.4443650813673 -2.25597318603832e-014
endloop
endfacet
facet normal 5.21701091893726e-042 1.97215226305253e-030 -1.0
outer loop
vertex 8.44436508142017 11.5556349185881 -2.25597318603832e-014
vertex 8.44436508146484 28.4443650813673 -2.25597318603832e-014
vertex 10.0000000000323 12.1999999999736 0.0
endloop
endfacet
facet normal 5.21701091893726e-042 1.97215226305253e-030 -1.0
outer loop
vertex 10.0000000000323 12.1999999999736 0.0
vertex 8.44436508146484 28.4443650813673 -2.25597318603832e-014
vertex 10.0000000000736 27.7999999999736 2.25597318603832e-014
endloop
endfacet
facet normal 5.21701091893726e-042 1.97215226305253e-030 -1.0
outer loop
vertex 10.0000000000323 12.1999999999736 0.0
vertex 10.0000000000736 27.7999999999736 2.25597318603832e-014
vertex 11.5556349186409 11.5556349185798 -2.25597318603832e-014
endloop
endfacet
facet normal 5.21701091893726e-042 1.97215226305253e-030 -1.0
outer loop
vertex 11.5556349186409 11.5556349185798 -2.25597318603832e-014
vertex 10.0000000000736 27.7999999999736 2.25597318603832e-014
vertex 11.5556349186856 28.444365081359 -2.25597318603832e-014
endloop
endfacet
facet normal 5.21701091893726e-042 1.97215226305253e-030 -1.0
outer loop
vertex 11.5556349186409 11.5556349185798 -2.25597318603832e-014
vertex 11.5556349186856 28.444365081359 -2.25597318603832e-014
vertex 12.2000000000265 9.99999999996772 0.0
endloop
endfacet
facet normal 5.21701091893726e-042 1.97215226305253e-030 -1.0
outer loop
vertex 12.2000000000265 9.99999999996772 0.0
vertex 11.5556349186856 28.444365081359 -2.25597318603832e-014
vertex 12.2000000000793 29.9999999999677 -2.25597318603832e-014
endloop
endfacet
facet normal 5.21701091893726e-042 1.97215226305253e-030 -1.0
outer loop
vertex 7.80000000013221 49.9999999999794 0.0
vertex 8.44436508147307 31.5556349185881 -2.25597318603832e-014
vertex 7.80000000007935 29.9999999999794 -2.25597318603832e-014
endloop
endfacet
facet normal 5.21701091893726e-042 1.97215226305253e-030 -1.0
outer loop
vertex 8.44436508147307 31.5556349185881 -2.25597318603832e-014
vertex 7.80000000013221 49.9999999999794 0.0
vertex 8.44436508151775 48.4443650813673 -2.25597318603832e-014
endloop
endfacet
facet normal 5.21701091893726e-042 1.97215226305253e-030 -1.0
outer loop
vertex 8.44436508147307 31.5556349185881 -2.25597318603832e-014
vertex 8.44436508151775 48.4443650813673 -2.25597318603832e-014
vertex 10.0000000000851 32.1999999999736 2.25597318603832e-014
endloop
endfacet
facet normal 5.21701091893726e-042 1.97215226305253e-030 -1.0
outer loop
vertex 10.0000000000851 32.1999999999736 2.25597318603832e-014
vertex 8.44436508151775 48.4443650813673 -2.25597318603832e-014
vertex 10.0000000001264 47.7999999999736 0.0
endloop
endfacet
facet normal 5.21701091893726e-042 1.97215226305253e-030 -1.0
outer loop
vertex 10.0000000000851 32.1999999999736 2.25597318603832e-014
vertex 10.0000000001264 47.7999999999736 0.0
vertex 11.5556349186938 31.5556349185798 0.0
endloop
endfacet
facet normal 5.21701091893726e-042 1.97215226305253e-030 -1.0
outer loop
vertex 11.5556349186938 31.5556349185798 0.0
vertex 10.0000000001264 47.7999999999736 0.0
vertex 11.5556349187385 48.444365081359 0.0
endloop
endfacet
facet normal 5.21701091893726e-042 1.97215226305253e-030 -1.0
outer loop
vertex 11.5556349186938 31.5556349185798 0.0
vertex 11.5556349187385 48.444365081359 0.0
vertex 12.2000000000793 29.9999999999677 -2.25597318603832e-014
endloop
endfacet
facet normal 5.21701091893726e-042 1.97215226305253e-030 -1.0
outer loop
vertex 12.2000000000793 29.9999999999677 -2.25597318603832e-014
vertex 11.5556349187385 48.444365081359 0.0
vertex 12.2000000001323 49.9999999999677 0.0
endloop
endfacet
facet normal 5.21701091893726e-042 1.97215226305253e-030 -1.0
outer loop
vertex -3.94795307556706e-014 0.0 -2.25597318603832e-014
vertex 8.44436508141193 8.44436508136726 -2.25597318603832e-014
vertex 20.0 -5.28912913466684e-011 -2.25597318603832e-014
endloop
endfacet
facet normal 5.21701091893726e-042 1.97215226305253e-030 -1.0
outer loop
vertex 8.44436508141193 8.44436508136726 -2.25597318603832e-014
vertex -3.94795307556706e-014 0.0 -2.25597318603832e-014
vertex 7.80000000002645 9.99999999997937 0.0
endloop
endfacet
facet normal 5.21701091893726e-042 1.97215226305253e-030 -1.0
outer loop
vertex 7.80000000002645 9.99999999997937 0.0
vertex -3.94795307556706e-014 0.0 -2.25597318603832e-014
vertex 1.58680849016157e-010 60.0 0.0
endloop
endfacet
facet normal 5.21701091893726e-042 1.97215226305253e-030 -1.0
outer loop
vertex 20.0 -5.28912913466684e-011 -2.25597318603832e-014
vertex 8.44436508141193 8.44436508136726 -2.25597318603832e-014
vertex 10.0000000000206 7.79999999997355 0.0
endloop
endfacet
facet normal 5.21701091893726e-042 1.97215226305253e-030 -1.0
outer loop
vertex 20.0 -5.28912913466684e-011 -2.25597318603832e-014
vertex 10.0000000000206 7.79999999997355 0.0
vertex 11.5556349186327 8.44436508135901 0.0
endloop
endfacet
facet normal 5.21701091893726e-042 1.97215226305253e-030 -1.0
outer loop
vertex 20.0 -5.28912913466684e-011 -2.25597318603832e-014
vertex 11.5556349186327 8.44436508135901 0.0
vertex 12.2000000000265 9.99999999996772 0.0
endloop
endfacet
facet normal 5.21701091893726e-042 1.97215226305253e-030 -1.0
outer loop
vertex 20.0 -5.28912913466684e-011 -2.25597318603832e-014
vertex 12.2000000000265 9.99999999996772 0.0
vertex 12.2000000000793 29.9999999999677 -2.25597318603832e-014
endloop
endfacet
facet normal 5.21701091893726e-042 1.97215226305253e-030 -1.0
outer loop
vertex 20.0 -5.28912913466684e-011 -2.25597318603832e-014
vertex 12.2000000000793 29.9999999999677 -2.25597318603832e-014
vertex 12.2000000001323 49.9999999999677 0.0
endloop
endfacet
facet normal 0.382683432362646 -0.923879532512299 2.77555756156289e-017
outer loop
vertex 30.0000000001381 52.1999999999206 6.00000000000001
vertex 28.4443650815259 51.5556349185352 0.0
vertex 30.0000000001381 52.1999999999206 -2.25597318603832e-014
endloop
endfacet
facet normal 0.382683432362646 -0.923879532512299 2.77555756156289e-017
outer loop
vertex 28.4443650815259 51.5556349185352 0.0
vertex 30.0000000001381 52.1999999999206 6.00000000000001
vertex 28.444365081526 51.5556349185352 5.99999999999999
endloop
endfacet
facet normal -0.382683432367535 -0.923879532510274 2.77555756156289e-017
outer loop
vertex 31.5556349187468 51.5556349185269 5.99999999999999
vertex 30.0000000001381 52.1999999999206 -2.25597318603832e-014
vertex 31.5556349187467 51.5556349185269 -2.25597318603832e-014
endloop
endfacet
facet normal -0.382683432367535 -0.923879532510274 2.77555756156289e-017
outer loop
vertex 30.0000000001381 52.1999999999206 -2.25597318603832e-014
vertex 31.5556349187468 51.5556349185269 5.99999999999999
vertex 30.0000000001381 52.1999999999206 6.00000000000001
endloop
endfacet
facet normal 1.0 -2.64533880911522e-012 0.0
outer loop
vertex 27.8000000001323 49.9999999999265 5.99999999999999
vertex 27.8000000001264 47.7999999999265 7.19999999999999
vertex 27.8000000001264 47.7999999999265 5.99999999999999
endloop
endfacet
facet normal 1.0 -2.64533880911522e-012 0.0
outer loop
vertex 27.8000000001264 47.7999999999265 7.19999999999999
vertex 27.8000000001323 49.9999999999265 5.99999999999999
vertex 27.800000000138 52.1999999999265 7.19999999999996
endloop
endfacet
facet normal 1.0 -2.64533880911522e-012 0.0
outer loop
vertex 27.800000000138 52.1999999999265 7.19999999999996
vertex 27.8000000001323 49.9999999999265 5.99999999999999
vertex 27.8000000001381 52.1999999999265 5.99999999999997
endloop
endfacet
facet normal 2.64551957619743e-012 1.0 -1.23259516440783e-030
outer loop
vertex 1.38092325768779e-010 52.2 6.00000000000001
vertex 7.80000000013808 52.1999999999794 7.19999999999999
vertex 7.80000000013808 52.1999999999794 5.99999999999999
endloop
endfacet
facet normal 2.64551957619743e-012 1.0 -1.23259516440783e-030
outer loop
vertex 7.80000000013808 52.1999999999794 7.19999999999999
vertex 1.38092325768779e-010 52.2 6.00000000000001
vertex 1.38092325768779e-010 52.2 7.20000000000001
endloop
endfacet
facet normal 1.0 -2.64533880911522e-012 0.0
outer loop
vertex 12.2000000001032 38.9999999999677 6.00000000000001
vertex 12.2000000000851 32.1999999999677 7.20000000000001
vertex 12.2000000000852 32.1999999999677 6.00000000000001
endloop
endfacet
facet normal 1.0 -2.64533880911522e-012 0.0
outer loop
vertex 12.2000000000851 32.1999999999677 7.20000000000001
vertex 12.2000000001032 38.9999999999677 6.00000000000001
vertex 12.2000000001032 38.9999999999677 7.20000000000001
endloop
endfacet
facet normal -0.923879532510274 0.382683432367534 -5.55111512312578e-017
outer loop
vertex 11.5556349186327 8.44436508135902 5.99999999999999
vertex 12.2000000000265 9.99999999996772 0.0
vertex 11.5556349186327 8.44436508135901 0.0
endloop
endfacet
facet normal -0.923879532510274 0.382683432367534 -5.55111512312578e-017
outer loop
vertex 12.2000000000265 9.99999999996772 0.0
vertex 11.5556349186327 8.44436508135902 5.99999999999999
vertex 12.2000000000264 9.99999999996772 5.99999999999999
endloop
endfacet
facet normal -0.382683432362645 0.923879532512299 -2.77555756156289e-017
outer loop
vertex 10.0000000000736 27.7999999999736 2.25597318603832e-014
vertex 11.5556349186856 28.444365081359 6.00000000000001
vertex 11.5556349186856 28.444365081359 -2.25597318603832e-014
endloop
endfacet
facet normal -0.382683432362645 0.923879532512299 -2.77555756156289e-017
outer loop
vertex 11.5556349186856 28.444365081359 6.00000000000001
vertex 10.0000000000736 27.7999999999736 2.25597318603832e-014
vertex 10.0000000000736 27.7999999999736 5.99999999999999
endloop
endfacet
facet normal 0.923879532512299 0.382683432362645 0.0
outer loop
vertex 27.8000000001322 49.9999999999265 0.0
vertex 28.4443650815178 48.4443650813144 5.99999999999999
vertex 28.4443650815178 48.4443650813144 0.0
endloop
endfacet
facet normal 0.923879532512299 0.382683432362645 0.0
outer loop
vertex 28.4443650815178 48.4443650813144 5.99999999999999
vertex 27.8000000001322 49.9999999999265 0.0
vertex 27.8000000001323 49.9999999999265 5.99999999999999
endloop
endfacet
facet normal 0.382683432367534 0.923879532510274 0.0
outer loop
vertex 28.4443650815178 48.4443650813144 5.99999999999999
vertex 30.0000000001264 47.7999999999206 0.0
vertex 28.4443650815178 48.4443650813144 0.0
endloop
endfacet
facet normal 0.382683432367534 0.923879532510274 0.0
outer loop
vertex 30.0000000001264 47.7999999999206 0.0
vertex 28.4443650815178 48.4443650813144 5.99999999999999
vertex 30.0000000001264 47.7999999999206 6.00000000000003
endloop
endfacet
facet normal -5.21701091893726e-042 -1.97215226305253e-030 1.0
outer loop
vertex 12.2000000000851 32.1999999999677 7.20000000000001
vertex 7.80000000010316 38.9999999999794 7.20000000000001
vertex 7.80000000008517 32.1999999999794 7.20000000000003
endloop
endfacet
facet normal -5.21701091893726e-042 -1.97215226305253e-030 1.0
outer loop
vertex 7.80000000010316 38.9999999999794 7.20000000000001
vertex 12.2000000000851 32.1999999999677 7.20000000000001
vertex 12.2000000001032 38.9999999999677 7.20000000000001
endloop
endfacet
facet normal -1.0 2.64533880911522e-012 0.0
outer loop
vertex 7.80000000002067 7.79999999997939 7.19999999999999
vertex 7.79999999999995 -2.06195949203902e-011 5.99999999999999
vertex 7.79999999999999 -2.06195949203902e-011 7.19999999999999
endloop
endfacet
facet normal -1.0 2.64533880911522e-012 0.0
outer loop
vertex 7.79999999999995 -2.06195949203902e-011 5.99999999999999
vertex 7.80000000002067 7.79999999997939 7.19999999999999
vertex 7.80000000002063 7.79999999997939 6.00000000000001
endloop
endfacet
facet normal -0.382683432367535 -0.923879532510274 2.77555756156289e-017
outer loop
vertex 11.5556349187468 51.5556349185798 0.0
vertex 10.000000000138 52.1999999999736 5.99999999999999
vertex 10.000000000138 52.1999999999736 -2.25597318603832e-014
endloop
endfacet
facet normal -0.382683432367535 -0.923879532510274 2.77555756156289e-017
outer loop
vertex 10.000000000138 52.1999999999736 5.99999999999999
vertex 11.5556349187468 51.5556349185798 0.0
vertex 11.5556349187468 51.5556349185798 6.00000000000001
endloop
endfacet
facet normal 2.64533880911522e-012 1.0 2.6131017485446e-030
outer loop
vertex 7.80000000007353 27.7999999999794 6.00000000000001
vertex 12.2000000000735 27.7999999999677 6.00000000000001
vertex 10.0000000000736 27.7999999999736 5.99999999999999
endloop
endfacet
facet normal 2.64533880911522e-012 1.0 2.6131017485446e-030
outer loop
vertex 12.2000000000735 27.7999999999677 6.00000000000001
vertex 7.80000000007353 27.7999999999794 6.00000000000001
vertex 7.80000000007358 27.7999999999794 7.19999999999999
endloop
endfacet
facet normal 2.64533880911522e-012 1.0 2.6131017485446e-030
outer loop
vertex 12.2000000000735 27.7999999999677 6.00000000000001
vertex 7.80000000007358 27.7999999999794 7.19999999999999
vertex 12.2000000000735 27.7999999999677 7.20000000000001
endloop
endfacet
facet normal -0.923879532512299 -0.382683432362646 1.11022302462516e-016
outer loop
vertex 11.5556349186939 31.5556349185798 6.00000000000001
vertex 12.2000000000793 29.9999999999677 -2.25597318603832e-014
vertex 12.2000000000793 29.9999999999677 5.99999999999999
endloop
endfacet
facet normal -0.923879532512299 -0.382683432362646 1.11022302462516e-016
outer loop
vertex 12.2000000000793 29.9999999999677 -2.25597318603832e-014
vertex 11.5556349186939 31.5556349185798 6.00000000000001
vertex 11.5556349186938 31.5556349185798 0.0
endloop
endfacet
facet normal 0.923879532510274 -0.382683432367536 0.0
outer loop
vertex 28.4443650815259 51.5556349185352 0.0
vertex 27.8000000001323 49.9999999999265 5.99999999999999
vertex 27.8000000001322 49.9999999999265 0.0
endloop
endfacet
facet normal 0.923879532510274 -0.382683432367536 0.0
outer loop
vertex 27.8000000001323 49.9999999999265 5.99999999999999
vertex 28.4443650815259 51.5556349185352 0.0
vertex 28.444365081526 51.5556349185352 5.99999999999999
endloop
endfacet
facet normal -0.923879532512299 -0.382683432362645 0.0
outer loop
vertex 31.5556349187468 51.5556349185269 5.99999999999999
vertex 32.2000000001322 49.9999999999148 -2.25597318603832e-014
vertex 32.2000000001323 49.9999999999148 5.99999999999999
endloop
endfacet
facet normal -0.923879532512299 -0.382683432362645 0.0
outer loop
vertex 32.2000000001322 49.9999999999148 -2.25597318603832e-014
vertex 31.5556349187468 51.5556349185269 5.99999999999999
vertex 31.5556349187467 51.5556349185269 -2.25597318603832e-014
endloop
endfacet
facet normal -0.923879532510275 0.382683432367533 -5.55111512312578e-017
outer loop
vertex 32.2000000001323 49.9999999999148 5.99999999999999
vertex 31.5556349187385 48.4443650813061 0.0
vertex 31.5556349187385 48.4443650813061 5.99999999999999
endloop
endfacet
facet normal -0.923879532510275 0.382683432367533 -5.55111512312578e-017
outer loop
vertex 31.5556349187385 48.4443650813061 0.0
vertex 32.2000000001323 49.9999999999148 5.99999999999999
vertex 32.2000000001322 49.9999999999148 -2.25597318603832e-014
endloop
endfacet
facet normal 0.894427190998733 -0.447213595502324 0.0
outer loop
vertex 40.0000000001058 39.9999999998942 0.0
vertex 20.0 -5.28912913466684e-011 6.00000000000001
vertex 20.0 -5.28912913466684e-011 -2.25597318603832e-014
endloop
endfacet
facet normal 0.894427190998733 -0.447213595502324 0.0
outer loop
vertex 20.0 -5.28912913466684e-011 6.00000000000001
vertex 40.0000000001058 39.9999999998942 0.0
vertex 40.0000000001058 39.9999999998942 5.99999999999999
endloop
endfacet
facet normal 0.382683432362645 -0.923879532512299 0.0
outer loop
vertex 10.000000000138 52.1999999999736 5.99999999999999
vertex 8.44436508152593 51.5556349185881 0.0
vertex 10.000000000138 52.1999999999736 -2.25597318603832e-014
endloop
endfacet
facet normal 0.382683432362645 -0.923879532512299 0.0
outer loop
vertex 8.44436508152593 51.5556349185881 0.0
vertex 10.000000000138 52.1999999999736 5.99999999999999
vertex 8.44436508152598 51.5556349185881 6.00000000000001
endloop
endfacet
facet normal -2.64533880911522e-012 -1.0 -2.6131017485446e-030
outer loop
vertex 12.2000000000851 32.1999999999677 7.20000000000001
vertex 10.0000000000852 32.1999999999735 6.00000000000001
vertex 12.2000000000852 32.1999999999677 6.00000000000001
endloop
endfacet
facet normal -2.64533880911522e-012 -1.0 -2.6131017485446e-030
outer loop
vertex 10.0000000000852 32.1999999999735 6.00000000000001
vertex 7.80000000008517 32.1999999999794 7.20000000000003
vertex 7.80000000008513 32.1999999999794 5.99999999999999
endloop
endfacet
facet normal -2.64533880911522e-012 -1.0 -2.6131017485446e-030
outer loop
vertex 7.80000000008517 32.1999999999794 7.20000000000003
vertex 10.0000000000852 32.1999999999735 6.00000000000001
vertex 12.2000000000851 32.1999999999677 7.20000000000001
endloop
endfacet
facet normal 0.382683432367527 0.923879532510277 0.0
outer loop
vertex 8.44436508141193 8.44436508136726 5.99999999999999
vertex 10.0000000000206 7.79999999997355 0.0
vertex 8.44436508141193 8.44436508136726 -2.25597318603832e-014
endloop
endfacet
facet normal 0.382683432367527 0.923879532510277 0.0
outer loop
vertex 10.0000000000206 7.79999999997355 0.0
vertex 8.44436508141193 8.44436508136726 5.99999999999999
vertex 10.0000000000207 7.79999999997356 5.99999999999997
endloop
endfacet
facet normal 1.0 -2.64533880911522e-012 0.0
outer loop
vertex 40.0000000001587 59.9999999998942 0.0
vertex 40.0000000001058 39.9999999998942 5.99999999999999
vertex 40.0000000001058 39.9999999998942 0.0
endloop
endfacet
facet normal 1.0 -2.64533880911522e-012 0.0
outer loop
vertex 40.0000000001058 39.9999999998942 5.99999999999999
vertex 40.0000000001587 59.9999999998942 0.0
vertex 40.0000000001264 47.7999999998942 6.00000000000001
endloop
endfacet
facet normal 1.0 -2.64533880911522e-012 0.0
outer loop
vertex 40.0000000001264 47.7999999998942 6.00000000000001
vertex 40.0000000001587 59.9999999998942 0.0
vertex 40.0000000001264 47.7999999998942 7.20000000000001
endloop
endfacet
facet normal 1.0 -2.64533880911522e-012 0.0
outer loop
vertex 40.0000000001264 47.7999999998942 7.20000000000001
vertex 40.0000000001587 59.9999999998942 0.0
vertex 40.0000000001381 52.1999999998942 5.99999999999997
endloop
endfacet
facet normal 1.0 -2.64533880911522e-012 0.0
outer loop
vertex 40.0000000001381 52.1999999998942 5.99999999999997
vertex 40.0000000001587 59.9999999998942 0.0
vertex 40.0000000001587 59.9999999998942 5.99999999999999
endloop
endfacet
facet normal 1.0 -2.64533880911522e-012 0.0
outer loop
vertex 40.0000000001381 52.1999999998942 7.20000000000001
vertex 40.0000000001264 47.7999999998942 7.20000000000001
vertex 40.0000000001381 52.1999999998942 5.99999999999997
endloop
endfacet
facet normal -5.21701091893726e-042 -1.97215226305253e-030 1.0
outer loop
vertex 40.0000000001264 47.7999999998942 7.20000000000001
vertex 32.200000000138 52.1999999999148 7.19999999999999
vertex 32.2000000001264 47.7999999999148 7.19999999999999
endloop
endfacet
facet normal -5.21701091893726e-042 -1.97215226305253e-030 1.0
outer loop
vertex 32.200000000138 52.1999999999148 7.19999999999999
vertex 40.0000000001264 47.7999999998942 7.20000000000001
vertex 40.0000000001381 52.1999999998942 7.20000000000001
endloop
endfacet
facet normal -2.64533880911522e-012 -1.0 -2.6131017485446e-030
outer loop
vertex 7.80000000012644 47.7999999999794 7.20000000000001
vertex 1.26452835008672e-010 47.8 6.00000000000003
vertex 7.80000000012644 47.7999999999794 6.00000000000001
endloop
endfacet
facet normal -2.64533880911522e-012 -1.0 -2.6131017485446e-030
outer loop
vertex 1.26452835008672e-010 47.8 6.00000000000003
vertex 7.80000000012644 47.7999999999794 7.20000000000001
vertex 1.26452835008672e-010 47.8 7.20000000000001
endloop
endfacet
facet normal 1.0 -2.64533880911522e-012 0.0
outer loop
vertex 12.2000000000735 27.7999999999677 6.00000000000001
vertex 12.2000000000323 12.1999999999677 7.20000000000001
vertex 12.2000000000323 12.1999999999677 6.00000000000001
endloop
endfacet
facet normal 1.0 -2.64533880911522e-012 0.0
outer loop
vertex 12.2000000000323 12.1999999999677 7.20000000000001
vertex 12.2000000000735 27.7999999999677 6.00000000000001
vertex 12.2000000000735 27.7999999999677 7.20000000000001
endloop
endfacet
facet normal -2.64533880911522e-012 -1.0 -2.6131017485446e-030
outer loop
vertex 27.8000000001264 47.7999999999265 7.19999999999999
vertex 12.2000000001264 47.7999999999677 6.00000000000001
vertex 27.8000000001264 47.7999999999265 5.99999999999999
endloop
endfacet
facet normal -2.64533880911522e-012 -1.0 -2.6131017485446e-030
outer loop
vertex 12.2000000001264 47.7999999999677 6.00000000000001
vertex 27.8000000001264 47.7999999999265 7.19999999999999
vertex 12.2000000001264 47.7999999999677 7.20000000000001
endloop
endfacet
facet normal 1.0 -2.64533880911522e-012 0.0
outer loop
vertex 7.80000000013226 49.9999999999794 6.00000000000001
vertex 7.80000000012644 47.7999999999794 7.20000000000001
vertex 7.80000000012644 47.7999999999794 6.00000000000001
endloop
endfacet
facet normal 1.0 -2.64533880911522e-012 0.0
outer loop
vertex 7.80000000012644 47.7999999999794 7.20000000000001
vertex 7.80000000013226 49.9999999999794 6.00000000000001
vertex 7.80000000013808 52.1999999999794 7.19999999999999
endloop
endfacet
facet normal 1.0 -2.64533880911522e-012 0.0
outer loop
vertex 7.80000000013808 52.1999999999794 7.19999999999999
vertex 7.80000000013226 49.9999999999794 6.00000000000001
vertex 7.80000000013808 52.1999999999794 5.99999999999999
endloop
endfacet
facet normal -0.382683432367536 -0.923879532510273 2.77555756156289e-017
outer loop
vertex 11.5556349186409 11.5556349185798 5.99999999999999
vertex 10.0000000000323 12.1999999999736 0.0
vertex 11.5556349186409 11.5556349185798 -2.25597318603832e-014
endloop
endfacet
facet normal -0.382683432367536 -0.923879532510273 2.77555756156289e-017
outer loop
vertex 10.0000000000323 12.1999999999736 0.0
vertex 11.5556349186409 11.5556349185798 5.99999999999999
vertex 10.0000000000323 12.1999999999735 5.99999999999999
endloop
endfacet
facet normal -5.21701091893726e-042 -1.97215226305253e-030 1.0
outer loop
vertex 27.8000000001264 47.7999999999265 7.19999999999999
vertex 12.2000000001381 52.1999999999677 7.19999999999999
vertex 12.2000000001264 47.7999999999677 7.20000000000001
endloop
endfacet
facet normal -5.21701091893726e-042 -1.97215226305253e-030 1.0
outer loop
vertex 12.2000000001381 52.1999999999677 7.19999999999999
vertex 27.8000000001264 47.7999999999265 7.19999999999999
vertex 27.800000000138 52.1999999999265 7.19999999999996
endloop
endfacet
facet normal 2.64533880911522e-012 1.0 2.6131017485446e-030
outer loop
vertex 7.80000000010316 38.9999999999794 7.20000000000001
vertex 12.2000000001032 38.9999999999677 6.00000000000001
vertex 7.80000000010311 38.9999999999794 5.99999999999999
endloop
endfacet
facet normal 2.64533880911522e-012 1.0 2.6131017485446e-030
outer loop
vertex 12.2000000001032 38.9999999999677 6.00000000000001
vertex 7.80000000010316 38.9999999999794 7.20000000000001
vertex 12.2000000001032 38.9999999999677 7.20000000000001
endloop
endfacet
facet normal 0.382683432362645 -0.923879532512299 0.0
outer loop
vertex 10.0000000000851 32.1999999999736 2.25597318603832e-014
vertex 8.44436508147307 31.5556349185881 5.99999999999999
vertex 8.44436508147307 31.5556349185881 -2.25597318603832e-014
endloop
endfacet
facet normal 0.382683432362645 -0.923879532512299 0.0
outer loop
vertex 8.44436508147307 31.5556349185881 5.99999999999999
vertex 10.0000000000851 32.1999999999736 2.25597318603832e-014
vertex 10.0000000000852 32.1999999999735 6.00000000000001
endloop
endfacet
facet normal -3.59928484076189e-029 -1.360613932839e-017 1.0
outer loop
vertex 8.44436508142017 11.5556349185881 5.99999999999999
vertex 7.80000000003226 12.1999999999794 6.00000000000001
vertex 7.80000000002645 9.99999999997936 5.99999999999999
endloop
endfacet
facet normal -3.59928484076189e-029 -1.360613932839e-017 1.0
outer loop
vertex 7.80000000003226 12.1999999999794 6.00000000000001
vertex 8.44436508142017 11.5556349185881 5.99999999999999
vertex 10.0000000000323 12.1999999999735 5.99999999999999
endloop
endfacet
facet normal -3.59928484076189e-029 -1.360613932839e-017 1.0
outer loop
vertex 7.80000000007353 27.7999999999794 6.00000000000001
vertex 8.44436508146484 28.4443650813673 5.99999999999999
vertex 7.80000000007931 29.9999999999794 5.99999999999999
endloop
endfacet
facet normal -3.59928484076189e-029 -1.360613932839e-017 1.0
outer loop
vertex 8.44436508146484 28.4443650813673 5.99999999999999
vertex 7.80000000007353 27.7999999999794 6.00000000000001
vertex 10.0000000000736 27.7999999999736 5.99999999999999
endloop
endfacet
facet normal -3.59928484076189e-029 -1.360613932839e-017 1.0
outer loop
vertex 8.44436508147307 31.5556349185881 5.99999999999999
vertex 7.80000000008513 32.1999999999794 5.99999999999999
vertex 7.80000000007931 29.9999999999794 5.99999999999999
endloop
endfacet
facet normal -3.59928484076189e-029 -1.360613932839e-017 1.0
outer loop
vertex 7.80000000008513 32.1999999999794 5.99999999999999
vertex 8.44436508147307 31.5556349185881 5.99999999999999
vertex 10.0000000000852 32.1999999999735 6.00000000000001
endloop
endfacet
facet normal -3.59928484076189e-029 -1.360613932839e-017 1.0
outer loop
vertex 7.79999999999995 -2.06195949203902e-011 5.99999999999999
vertex 1.26452835008672e-010 47.8 6.00000000000003
vertex -3.94795307556706e-014 0.0 5.99999999999999
endloop
endfacet
facet normal -3.59928484076189e-029 -1.360613932839e-017 1.0
outer loop
vertex 1.26452835008672e-010 47.8 6.00000000000003
vertex 7.79999999999995 -2.06195949203902e-011 5.99999999999999
vertex 7.80000000008513 32.1999999999794 5.99999999999999
endloop
endfacet
facet normal -3.59928484076189e-029 -1.360613932839e-017 1.0
outer loop
vertex 1.26452835008672e-010 47.8 6.00000000000003
vertex 7.80000000008513 32.1999999999794 5.99999999999999
vertex 7.80000000010311 38.9999999999794 5.99999999999999
endloop
endfacet
facet normal -3.59928484076189e-029 -1.360613932839e-017 1.0
outer loop
vertex 1.26452835008672e-010 47.8 6.00000000000003
vertex 7.80000000010311 38.9999999999794 5.99999999999999
vertex 7.80000000012644 47.7999999999794 6.00000000000001
endloop
endfacet
facet normal -3.59928484076189e-029 -1.360613932839e-017 1.0
outer loop
vertex 7.80000000008513 32.1999999999794 5.99999999999999
vertex 7.79999999999995 -2.06195949203902e-011 5.99999999999999
vertex 7.80000000007931 29.9999999999794 5.99999999999999
endloop
endfacet
facet normal -3.59928484076189e-029 -1.360613932839e-017 1.0
outer loop
vertex 7.80000000007931 29.9999999999794 5.99999999999999
vertex 7.79999999999995 -2.06195949203902e-011 5.99999999999999
vertex 7.80000000002063 7.79999999997939 6.00000000000001
endloop
endfacet
facet normal -3.59928484076189e-029 -1.360613932839e-017 1.0
outer loop
vertex 7.80000000007931 29.9999999999794 5.99999999999999
vertex 7.80000000002063 7.79999999997939 6.00000000000001
vertex 7.80000000002645 9.99999999997936 5.99999999999999
endloop
endfacet
facet normal -3.59928484076189e-029 -1.360613932839e-017 1.0
outer loop
vertex 7.80000000007931 29.9999999999794 5.99999999999999
vertex 7.80000000002645 9.99999999997936 5.99999999999999
vertex 7.80000000003226 12.1999999999794 6.00000000000001
endloop
endfacet
facet normal -3.59928484076189e-029 -1.360613932839e-017 1.0
outer loop
vertex 7.80000000007931 29.9999999999794 5.99999999999999
vertex 7.80000000003226 12.1999999999794 6.00000000000001
vertex 7.80000000007353 27.7999999999794 6.00000000000001
endloop
endfacet
facet normal -3.59928484076189e-029 -1.360613932839e-017 1.0
outer loop
vertex 7.80000000012644 47.7999999999794 6.00000000000001
vertex 7.80000000010311 38.9999999999794 5.99999999999999
vertex 12.2000000001032 38.9999999999677 6.00000000000001
endloop
endfacet
facet normal -3.59928484076189e-029 -1.360613932839e-017 1.0
outer loop
vertex 7.80000000012644 47.7999999999794 6.00000000000001
vertex 12.2000000001032 38.9999999999677 6.00000000000001
vertex 7.80000000013226 49.9999999999794 6.00000000000001
endloop
endfacet
facet normal -3.59928484076189e-029 -1.360613932839e-017 1.0
outer loop
vertex 7.80000000013226 49.9999999999794 6.00000000000001
vertex 12.2000000001032 38.9999999999677 6.00000000000001
vertex 8.44436508151775 48.4443650813673 6.00000000000001
endloop
endfacet
facet normal -3.59928484076189e-029 -1.360613932839e-017 1.0
outer loop
vertex 8.44436508151775 48.4443650813673 6.00000000000001
vertex 12.2000000001032 38.9999999999677 6.00000000000001
vertex 10.0000000001264 47.7999999999736 6.00000000000001
endloop
endfacet
facet normal -3.59928484076189e-029 -1.360613932839e-017 1.0
outer loop
vertex 10.0000000001264 47.7999999999736 6.00000000000001
vertex 12.2000000001032 38.9999999999677 6.00000000000001
vertex 11.5556349187385 48.444365081359 6.00000000000001
endloop
endfacet
facet normal -3.59928484076189e-029 -1.360613932839e-017 1.0
outer loop
vertex 11.5556349187385 48.444365081359 6.00000000000001
vertex 12.2000000001032 38.9999999999677 6.00000000000001
vertex 12.2000000001264 47.7999999999677 6.00000000000001
endloop
endfacet
facet normal -3.59928484076189e-029 -1.360613932839e-017 1.0
outer loop
vertex 11.5556349187385 48.444365081359 6.00000000000001
vertex 12.2000000001264 47.7999999999677 6.00000000000001
vertex 12.2000000001323 49.9999999999677 6.00000000000001
endloop
endfacet
facet normal -3.59928484076189e-029 -1.360613932839e-017 1.0
outer loop
vertex 11.5556349186939 31.5556349185798 6.00000000000001
vertex 12.2000000000852 32.1999999999677 6.00000000000001
vertex 10.0000000000852 32.1999999999735 6.00000000000001
endloop
endfacet
facet normal -3.59928484076189e-029 -1.360613932839e-017 1.0
outer loop
vertex 12.2000000000852 32.1999999999677 6.00000000000001
vertex 11.5556349186939 31.5556349185798 6.00000000000001
vertex 12.2000000000793 29.9999999999677 5.99999999999999
endloop
endfacet
facet normal -3.59928484076189e-029 -1.360613932839e-017 1.0
outer loop
vertex 12.2000000000735 27.7999999999677 6.00000000000001
vertex 11.5556349186856 28.444365081359 6.00000000000001
vertex 10.0000000000736 27.7999999999736 5.99999999999999
endloop
endfacet
facet normal -3.59928484076189e-029 -1.360613932839e-017 1.0
outer loop
vertex 11.5556349186856 28.444365081359 6.00000000000001
vertex 12.2000000000735 27.7999999999677 6.00000000000001
vertex 12.2000000000793 29.9999999999677 5.99999999999999
endloop
endfacet
facet normal -3.59928484076189e-029 -1.360613932839e-017 1.0
outer loop
vertex 11.5556349186409 11.5556349185798 5.99999999999999
vertex 12.2000000000323 12.1999999999677 6.00000000000001
vertex 10.0000000000323 12.1999999999735 5.99999999999999
endloop
endfacet
facet normal -3.59928484076189e-029 -1.360613932839e-017 1.0
outer loop
vertex 12.2000000000323 12.1999999999677 6.00000000000001
vertex 11.5556349186409 11.5556349185798 5.99999999999999
vertex 12.2000000000264 9.99999999996772 5.99999999999999
endloop
endfacet
facet normal -3.59928484076189e-029 -1.360613932839e-017 1.0
outer loop
vertex 12.2000000000206 7.79999999996774 6.00000000000001
vertex 11.5556349186327 8.44436508135902 5.99999999999999
vertex 10.0000000000207 7.79999999997356 5.99999999999997
endloop
endfacet
facet normal -3.59928484076189e-029 -1.360613932839e-017 1.0
outer loop
vertex 11.5556349186327 8.44436508135902 5.99999999999999
vertex 12.2000000000206 7.79999999996774 6.00000000000001
vertex 12.2000000000264 9.99999999996772 5.99999999999999
endloop
endfacet
facet normal -3.59928484076189e-029 -1.360613932839e-017 1.0
outer loop
vertex 7.80000000002063 7.79999999997939 6.00000000000001
vertex 8.44436508141193 8.44436508136726 5.99999999999999
vertex 7.80000000002645 9.99999999997936 5.99999999999999
endloop
endfacet
facet normal -3.59928484076189e-029 -1.360613932839e-017 1.0
outer loop
vertex 8.44436508141193 8.44436508136726 5.99999999999999
vertex 7.80000000002063 7.79999999997939 6.00000000000001
vertex 10.0000000000207 7.79999999997356 5.99999999999997
endloop
endfacet
facet normal -3.59928484076189e-029 -1.360613932839e-017 1.0
outer loop
vertex 20.0 -5.28912913466684e-011 6.00000000000001
vertex 12.2000000000206 7.79999999996774 6.00000000000001
vertex 12.2 -3.22716964262781e-011 5.99999999999999
endloop
endfacet
facet normal -3.59928484076189e-029 -1.360613932839e-017 1.0
outer loop
vertex 12.2000000000206 7.79999999996774 6.00000000000001
vertex 20.0 -5.28912913466684e-011 6.00000000000001
vertex 12.2000000000264 9.99999999996772 5.99999999999999
endloop
endfacet
facet normal -3.59928484076189e-029 -1.360613932839e-017 1.0
outer loop
vertex 12.2000000000264 9.99999999996772 5.99999999999999
vertex 20.0 -5.28912913466684e-011 6.00000000000001
vertex 12.2000000000323 12.1999999999677 6.00000000000001
endloop
endfacet
facet normal -3.59928484076189e-029 -1.360613932839e-017 1.0
outer loop
vertex 12.2000000000323 12.1999999999677 6.00000000000001
vertex 20.0 -5.28912913466684e-011 6.00000000000001
vertex 12.2000000000735 27.7999999999677 6.00000000000001
endloop
endfacet
facet normal -3.59928484076189e-029 -1.360613932839e-017 1.0
outer loop
vertex 12.2000000000735 27.7999999999677 6.00000000000001
vertex 20.0 -5.28912913466684e-011 6.00000000000001
vertex 12.2000000000793 29.9999999999677 5.99999999999999
endloop
endfacet
facet normal -3.59928484076189e-029 -1.360613932839e-017 1.0
outer loop
vertex 12.2000000000793 29.9999999999677 5.99999999999999
vertex 20.0 -5.28912913466684e-011 6.00000000000001
vertex 12.2000000000852 32.1999999999677 6.00000000000001
endloop
endfacet
facet normal -3.59928484076189e-029 -1.360613932839e-017 1.0
outer loop
vertex 12.2000000000852 32.1999999999677 6.00000000000001
vertex 20.0 -5.28912913466684e-011 6.00000000000001
vertex 12.2000000001032 38.9999999999677 6.00000000000001
endloop
endfacet
facet normal -3.59928484076189e-029 -1.360613932839e-017 1.0
outer loop
vertex 12.2000000001032 38.9999999999677 6.00000000000001
vertex 20.0 -5.28912913466684e-011 6.00000000000001
vertex 12.2000000001264 47.7999999999677 6.00000000000001
endloop
endfacet
facet normal -3.59928484076189e-029 -1.360613932839e-017 1.0
outer loop
vertex 12.2000000001264 47.7999999999677 6.00000000000001
vertex 20.0 -5.28912913466684e-011 6.00000000000001
vertex 27.8000000001264 47.7999999999265 5.99999999999999
endloop
endfacet
facet normal -3.59928484076189e-029 -1.360613932839e-017 1.0
outer loop
vertex 27.8000000001264 47.7999999999265 5.99999999999999
vertex 20.0 -5.28912913466684e-011 6.00000000000001
vertex 40.0000000001058 39.9999999998942 5.99999999999999
endloop
endfacet
facet normal -3.59928484076189e-029 -1.360613932839e-017 1.0
outer loop
vertex 27.8000000001264 47.7999999999265 5.99999999999999
vertex 40.0000000001058 39.9999999998942 5.99999999999999
vertex 28.4443650815178 48.4443650813144 5.99999999999999
endloop
endfacet
facet normal -3.59928484076189e-029 -1.360613932839e-017 1.0
outer loop
vertex 27.8000000001264 47.7999999999265 5.99999999999999
vertex 28.4443650815178 48.4443650813144 5.99999999999999
vertex 27.8000000001323 49.9999999999265 5.99999999999999
endloop
endfacet
facet normal -3.59928484076189e-029 -1.360613932839e-017 1.0
outer loop
vertex 28.4443650815178 48.4443650813144 5.99999999999999
vertex 40.0000000001058 39.9999999998942 5.99999999999999
vertex 30.0000000001264 47.7999999999206 6.00000000000003
endloop
endfacet
facet normal -3.59928484076189e-029 -1.360613932839e-017 1.0
outer loop
vertex 30.0000000001264 47.7999999999206 6.00000000000003
vertex 40.0000000001058 39.9999999998942 5.99999999999999
vertex 31.5556349187385 48.4443650813061 5.99999999999999
endloop
endfacet
facet normal -3.59928484076189e-029 -1.360613932839e-017 1.0
outer loop
vertex 31.5556349187385 48.4443650813061 5.99999999999999
vertex 40.0000000001058 39.9999999998942 5.99999999999999
vertex 32.2000000001264 47.7999999999148 5.99999999999999
endloop
endfacet
facet normal -3.59928484076189e-029 -1.360613932839e-017 1.0
outer loop
vertex 32.2000000001264 47.7999999999148 5.99999999999999
vertex 40.0000000001058 39.9999999998942 5.99999999999999
vertex 40.0000000001264 47.7999999998942 6.00000000000001
endloop
endfacet
facet normal -3.59928484076189e-029 -1.360613932839e-017 1.0
outer loop
vertex 32.2000000001323 49.9999999999148 5.99999999999999
vertex 31.5556349187385 48.4443650813061 5.99999999999999
vertex 32.2000000001264 47.7999999999148 5.99999999999999
endloop
endfacet
endsolid 90 thin R
