solid Rod Holder - Y and Zbottom
facet normal -0.923879532511285 -0.382683432365093 0.0
outer loop
vertex 11.5556349186104 41.5556349186104 6.0
vertex 12.2 40.0 0.0
vertex 12.2 40.0 6.0
endloop
endfacet
facet normal -0.923879532511285 -0.382683432365093 0.0
outer loop
vertex 12.2 40.0 0.0
vertex 11.5556349186104 41.5556349186104 6.0
vertex 11.5556349186104 41.5556349186104 0.0
endloop
endfacet
facet normal -0.923879532511285 0.382683432365093 0.0
outer loop
vertex 12.2 40.0 6.0
vertex 11.5556349186104 38.4443650813896 0.0
vertex 11.5556349186104 38.4443650813896 6.0
endloop
endfacet
facet normal -0.923879532511285 0.382683432365093 0.0
outer loop
vertex 11.5556349186104 38.4443650813896 0.0
vertex 12.2 40.0 6.0
vertex 12.2 40.0 0.0
endloop
endfacet
facet normal -0.382683432365077 0.923879532511292 -0.0
outer loop
vertex 9.99999999999998 37.8 6.0
vertex 11.5556349186104 38.4443650813896 0.0
vertex 9.99999999999998 37.8 0.0
endloop
endfacet
facet normal -0.382683432365077 0.923879532511292 -0.0
outer loop
vertex 11.5556349186104 38.4443650813896 0.0
vertex 9.99999999999998 37.8 6.0
vertex 11.5556349186104 38.4443650813896 6.0
endloop
endfacet
facet normal -1.0 1.24693676214966e-015 -1.43247430774083e-015
outer loop
vertex 0.0 16.5941511030469 20.0
vertex 0.0 23.441154273188 17.15
vertex 4.72835276590078e-017 16.5941511030469 6.0
endloop
endfacet
facet normal -1.0 1.24693676214966e-015 -1.43247430774083e-015
outer loop
vertex 0.0 23.441154273188 17.15
vertex 0.0 16.5941511030469 20.0
vertex 0.0 25.0 18.05
endloop
endfacet
facet normal -1.0 1.24693676214966e-015 -1.43247430774083e-015
outer loop
vertex 0.0 25.0 18.05
vertex 0.0 16.5941511030469 20.0
vertex 0.0 33.4058488969531 20.0
endloop
endfacet
facet normal -1.0 1.24693676214966e-015 -1.43247430774083e-015
outer loop
vertex 0.0 25.0 18.05
vertex 0.0 33.4058488969531 20.0
vertex 0.0 26.558845726812 17.15
endloop
endfacet
facet normal -1.0 1.24693676214966e-015 -1.43247430774083e-015
outer loop
vertex 0.0 26.558845726812 17.15
vertex 0.0 33.4058488969531 20.0
vertex 0.0 26.558845726812 15.35
endloop
endfacet
facet normal -1.0 1.24693676214966e-015 -1.43247430774083e-015
outer loop
vertex 0.0 25.0 14.45
vertex 2.87091429066947e-014 24.4226497308103 5.0
vertex 0.0 23.441154273188 15.35
endloop
endfacet
facet normal -1.0 1.24693676214966e-015 -1.43247430774083e-015
outer loop
vertex 2.87091429066947e-014 24.4226497308103 5.0
vertex 0.0 25.0 14.45
vertex 3.05774015651368e-014 25.5773502691896 5.0
endloop
endfacet
facet normal -1.0 1.24693676214966e-015 -1.43247430774083e-015
outer loop
vertex 3.05774015651368e-014 25.5773502691896 5.0
vertex 0.0 25.0 14.45
vertex 0.0 26.558845726812 15.35
endloop
endfacet
facet normal -1.0 1.24693676214966e-015 -1.43247430774083e-015
outer loop
vertex 3.05774015651368e-014 25.5773502691896 5.0
vertex 0.0 26.558845726812 15.35
vertex 3.05538132755208e-014 25.5773502691896 1.90914690395628e-015
endloop
endfacet
facet normal -1.0 1.24693676214966e-015 -1.43247430774083e-015
outer loop
vertex 3.05538132755208e-014 25.5773502691896 1.90914690395628e-015
vertex 0.0 26.558845726812 15.35
vertex 4.72835276590078e-017 33.4058488969531 6.0
endloop
endfacet
facet normal -1.0 1.24693676214966e-015 -1.43247430774083e-015
outer loop
vertex 3.05538132755208e-014 25.5773502691896 1.90914690395628e-015
vertex 4.72835276590078e-017 33.4058488969531 6.0
vertex 5.92192961335058e-014 42.6794919243112 7.04991620636974e-016
endloop
endfacet
facet normal -1.0 1.24693676214966e-015 -1.43247430774083e-015
outer loop
vertex 4.72835276590078e-017 33.4058488969531 6.0
vertex 0.0 26.558845726812 15.35
vertex 0.0 33.4058488969531 20.0
endloop
endfacet
facet normal -1.0 1.24693676214966e-015 -1.43247430774083e-015
outer loop
vertex 5.92192961335058e-014 42.6794919243112 7.04991620636974e-016
vertex 4.72835276590078e-017 33.4058488969531 6.0
vertex 5.92665796611649e-014 42.6794919243112 6.0
endloop
endfacet
facet normal -1.0 1.24693676214966e-015 -1.43247430774083e-015
outer loop
vertex 4.72835276590078e-017 16.5941511030469 6.0
vertex 0.0 7.32050807568873 3.17246229286638e-015
vertex 4.72835276590078e-017 7.32050807568873 6.0
endloop
endfacet
facet normal -1.0 1.24693676214966e-015 -1.43247430774083e-015
outer loop
vertex 0.0 7.32050807568873 3.17246229286638e-015
vertex 4.72835276590078e-017 16.5941511030469 6.0
vertex 2.86855546170787e-014 24.4226497308103 1.95887169370068e-015
endloop
endfacet
facet normal -1.0 1.24693676214966e-015 -1.43247430774083e-015
outer loop
vertex 2.86855546170787e-014 24.4226497308103 1.95887169370068e-015
vertex 4.72835276590078e-017 16.5941511030469 6.0
vertex 0.0 23.441154273188 15.35
endloop
endfacet
facet normal -1.0 1.24693676214966e-015 -1.43247430774083e-015
outer loop
vertex 0.0 23.441154273188 15.35
vertex 4.72835276590078e-017 16.5941511030469 6.0
vertex 0.0 23.441154273188 17.15
endloop
endfacet
facet normal -1.0 1.24693676214966e-015 -1.43247430774083e-015
outer loop
vertex 2.86855546170787e-014 24.4226497308103 1.95887169370068e-015
vertex 0.0 23.441154273188 15.35
vertex 2.87091429066947e-014 24.4226497308103 5.0
endloop
endfacet
facet normal 1.0 -1.81378636275869e-015 -5.36194006748972e-032
outer loop
vertex 20.0 24.4226497308104 7.04991620636974e-016
vertex 20.0 7.32050807568881 6.0
vertex 20.0 7.32050807568881 3.52495810318487e-015
endloop
endfacet
facet normal 1.0 -1.81378636275869e-015 -5.36194006748972e-032
outer loop
vertex 20.0 7.32050807568881 6.0
vertex 20.0 24.4226497308104 7.04991620636974e-016
vertex 20.0 24.4226497308104 6.0
endloop
endfacet
facet normal 3.90746017873139e-015 1.0 3.22317852902421e-032
outer loop
vertex 4.22649730810381 50.0000000000001 6.0
vertex 15.7735026918963 50.0 4.22994972382185e-015
vertex 4.22649730810381 50.0000000000001 7.04991620636974e-016
endloop
endfacet
facet normal 3.90746017873139e-015 1.0 3.22317852902421e-032
outer loop
vertex 15.7735026918963 50.0 4.22994972382185e-015
vertex 4.22649730810381 50.0000000000001 6.0
vertex 15.7735026918963 50.0 6.0
endloop
endfacet
facet normal 0.382683432365087 0.923879532511288 -0.0
outer loop
vertex 8.44436508138959 38.4443650813896 6.0
vertex 9.99999999999998 37.8 0.0
vertex 8.44436508138959 38.4443650813896 0.0
endloop
endfacet
facet normal 0.382683432365087 0.923879532511288 -0.0
outer loop
vertex 9.99999999999998 37.8 0.0
vertex 8.44436508138959 38.4443650813896 6.0
vertex 9.99999999999998 37.8 6.0
endloop
endfacet
facet normal 0.923879532511285 0.382683432365093 -0.0
outer loop
vertex 7.79999999999999 40.0 0.0
vertex 8.44436508138959 38.4443650813896 6.0
vertex 8.44436508138959 38.4443650813896 0.0
endloop
endfacet
facet normal 0.923879532511285 0.382683432365093 -0.0
outer loop
vertex 8.44436508138959 38.4443650813896 6.0
vertex 7.79999999999999 40.0 0.0
vertex 7.79999999999999 40.0 6.0
endloop
endfacet
facet normal 0.923879532511285 -0.382683432365093 -0.0
outer loop
vertex 8.44436508138959 41.5556349186104 0.0
vertex 7.79999999999999 40.0 6.0
vertex 7.79999999999999 40.0 0.0
endloop
endfacet
facet normal 0.923879532511285 -0.382683432365093 -0.0
outer loop
vertex 7.79999999999999 40.0 6.0
vertex 8.44436508138959 41.5556349186104 0.0
vertex 8.44436508138959 41.5556349186104 6.0
endloop
endfacet
facet normal 0.382683432365098 -0.923879532511284 0.0
outer loop
vertex 9.99999999999998 42.2 6.0
vertex 8.44436508138959 41.5556349186104 0.0
vertex 9.99999999999998 42.2 0.0
endloop
endfacet
facet normal 0.382683432365098 -0.923879532511284 0.0
outer loop
vertex 8.44436508138959 41.5556349186104 0.0
vertex 9.99999999999998 42.2 6.0
vertex 8.44436508138959 41.5556349186104 6.0
endloop
endfacet
facet normal -0.382683432365088 -0.923879532511287 0.0
outer loop
vertex 11.5556349186104 41.5556349186104 6.0
vertex 9.99999999999998 42.2 0.0
vertex 11.5556349186104 41.5556349186104 0.0
endloop
endfacet
facet normal -0.382683432365088 -0.923879532511287 0.0
outer loop
vertex 9.99999999999998 42.2 0.0
vertex 11.5556349186104 41.5556349186104 6.0
vertex 9.99999999999998 42.2 6.0
endloop
endfacet
facet normal -0.923879532511284 -0.382683432365096 -4.55156549848443e-016
outer loop
vertex 12.2 10.0 6.0
vertex 11.5556349186104 11.5556349186104 0.0
vertex 12.2 10.0 0.0
endloop
endfacet
facet normal -0.923879532511284 -0.382683432365096 -4.55156549848443e-016
outer loop
vertex 11.5556349186104 11.5556349186104 0.0
vertex 12.2 10.0 6.0
vertex 11.5556349186104 11.5556349186104 6.0
endloop
endfacet
facet normal -0.923879532511286 0.382683432365092 -6.29233333839711e-016
outer loop
vertex 12.2 10.0 6.0
vertex 11.5556349186104 8.44436508138959 0.0
vertex 11.5556349186104 8.44436508138959 6.0
endloop
endfacet
facet normal -0.923879532511286 0.382683432365092 -6.29233333839711e-016
outer loop
vertex 11.5556349186104 8.44436508138959 0.0
vertex 12.2 10.0 6.0
vertex 12.2 10.0 0.0
endloop
endfacet
facet normal -0.382683432365077 0.923879532511292 1.07072355853422e-016
outer loop
vertex 9.99999999999998 7.8 6.0
vertex 11.5556349186104 8.44436508138959 0.0
vertex 9.99999999999998 7.8 0.0
endloop
endfacet
facet normal -0.382683432365077 0.923879532511292 1.07072355853422e-016
outer loop
vertex 11.5556349186104 8.44436508138959 0.0
vertex 9.99999999999998 7.8 6.0
vertex 11.5556349186104 8.44436508138959 6.0
endloop
endfacet
facet normal 0.382683432365086 0.923879532511288 -1.07072355853424e-016
outer loop
vertex 8.44436508138959 8.44436508138959 6.0
vertex 9.99999999999998 7.8 0.0
vertex 8.44436508138959 8.44436508138959 0.0
endloop
endfacet
facet normal 0.382683432365086 0.923879532511288 -1.07072355853424e-016
outer loop
vertex 9.99999999999998 7.8 0.0
vertex 8.44436508138959 8.44436508138959 6.0
vertex 9.99999999999998 7.8 6.0
endloop
endfacet
facet normal 0.923879532511285 0.382683432365093 -1.11355250087563e-016
outer loop
vertex 7.79999999999999 10.0 0.0
vertex 8.44436508138959 8.44436508138959 6.0
vertex 8.44436508138959 8.44436508138959 0.0
endloop
endfacet
facet normal 0.923879532511285 0.382683432365093 -1.11355250087563e-016
outer loop
vertex 8.44436508138959 8.44436508138959 6.0
vertex 7.79999999999999 10.0 0.0
vertex 7.79999999999999 10.0 6.0
endloop
endfacet
facet normal 0.923879532511284 -0.382683432365098 6.18345174647114e-017
outer loop
vertex 8.44436508138959 11.5556349186104 0.0
vertex 7.79999999999999 10.0 6.0
vertex 7.79999999999999 10.0 0.0
endloop
endfacet
facet normal 0.923879532511284 -0.382683432365098 6.18345174647114e-017
outer loop
vertex 7.79999999999999 10.0 6.0
vertex 8.44436508138959 11.5556349186104 0.0
vertex 8.4443650813896 11.5556349186104 6.0
endloop
endfacet
facet normal 0.382683432365092 -0.923879532511286 3.08016266279434e-016
outer loop
vertex 9.99999999999998 12.2 6.0
vertex 8.44436508138959 11.5556349186104 0.0
vertex 9.99999999999998 12.2 0.0
endloop
endfacet
facet normal 0.382683432365092 -0.923879532511286 3.08016266279434e-016
outer loop
vertex 8.44436508138959 11.5556349186104 0.0
vertex 9.99999999999998 12.2 6.0
vertex 8.4443650813896 11.5556349186104 6.0
endloop
endfacet
facet normal -0.382683432365083 -0.92387953251129 5.22160977986287e-016
outer loop
vertex 11.5556349186104 11.5556349186104 6.0
vertex 9.99999999999998 12.2 0.0
vertex 11.5556349186104 11.5556349186104 0.0
endloop
endfacet
facet normal -0.382683432365083 -0.92387953251129 5.22160977986287e-016
outer loop
vertex 9.99999999999998 12.2 0.0
vertex 11.5556349186104 11.5556349186104 6.0
vertex 9.99999999999998 12.2 6.0
endloop
endfacet
facet normal 0.0 -1.0 0.0
outer loop
vertex 2.49999999999997 26.558845726812 17.15
vertex 0.0 26.558845726812 15.35
vertex 2.49999999999997 26.558845726812 15.35
endloop
endfacet
facet normal 0.0 -1.0 0.0
outer loop
vertex 0.0 26.558845726812 15.35
vertex 2.49999999999997 26.558845726812 17.15
vertex 0.0 26.558845726812 17.15
endloop
endfacet
facet normal 1.957851238773e-015 -0.5 -0.866025403784439
outer loop
vertex 2.49999999999997 26.558845726812 17.15
vertex 0.0 25.0 18.05
vertex 0.0 26.558845726812 17.15
endloop
endfacet
facet normal 1.957851238773e-015 -0.5 -0.866025403784439
outer loop
vertex 0.0 25.0 18.05
vertex 2.49999999999997 26.558845726812 17.15
vertex 2.49999999999997 25.0 18.05
endloop
endfacet
facet normal 1.94815890590779e-015 0.499999999999996 -0.866025403784441
outer loop
vertex 2.49999999999997 25.0 18.05
vertex 0.0 23.441154273188 17.15
vertex 0.0 25.0 18.05
endloop
endfacet
facet normal 1.94815890590779e-015 0.499999999999996 -0.866025403784441
outer loop
vertex 0.0 23.441154273188 17.15
vertex 2.49999999999997 25.0 18.05
vertex 2.49999999999997 23.441154273188 17.15
endloop
endfacet
facet normal -0.0 -0.500000000000002 0.866025403784437
outer loop
vertex 2.49999999999997 25.0 14.45
vertex 0.0 26.558845726812 15.35
vertex 0.0 25.0 14.45
endloop
endfacet
facet normal -0.0 -0.500000000000002 0.866025403784437
outer loop
vertex 0.0 26.558845726812 15.35
vertex 2.49999999999997 25.0 14.45
vertex 2.49999999999997 26.558845726812 15.35
endloop
endfacet
facet normal -9.78925619386498e-016 0.5 0.866025403784439
outer loop
vertex 2.49999999999997 23.441154273188 15.35
vertex 0.0 25.0 14.45
vertex 0.0 23.441154273188 15.35
endloop
endfacet
facet normal -9.78925619386498e-016 0.5 0.866025403784439
outer loop
vertex 0.0 25.0 14.45
vertex 2.49999999999997 23.441154273188 15.35
vertex 2.49999999999997 25.0 14.45
endloop
endfacet
facet normal -0.0 1.0 -0.0
outer loop
vertex 0.0 23.441154273188 17.15
vertex 2.49999999999997 23.441154273188 15.35
vertex 0.0 23.441154273188 15.35
endloop
endfacet
facet normal -0.0 1.0 -0.0
outer loop
vertex 2.49999999999997 23.441154273188 15.35
vertex 0.0 23.441154273188 17.15
vertex 2.49999999999997 23.441154273188 17.15
endloop
endfacet
facet normal 1.0 1.8955118539724e-030 -2.85713957626055e-016
outer loop
vertex 2.49999999999998 21.5212269241877 14.2084705717698
vertex 2.49999999999997 23.441154273188 15.35
vertex 2.49999999999998 21.5212269241877 20.0
endloop
endfacet
facet normal 1.0 1.8955118539724e-030 -2.85713957626055e-016
outer loop
vertex 2.49999999999997 23.441154273188 15.35
vertex 2.49999999999998 21.5212269241877 14.2084705717698
vertex 2.49999999999997 25.0000000000001 12.2
endloop
endfacet
facet normal 1.0 1.8955118539724e-030 -2.85713957626055e-016
outer loop
vertex 2.49999999999997 23.441154273188 15.35
vertex 2.49999999999997 25.0000000000001 12.2
vertex 2.49999999999997 25.0 14.45
endloop
endfacet
facet normal 1.0 1.8955118539724e-030 -2.85713957626055e-016
outer loop
vertex 2.49999999999997 25.0 14.45
vertex 2.49999999999997 25.0000000000001 12.2
vertex 2.49999999999997 26.558845726812 15.35
endloop
endfacet
facet normal 1.0 1.8955118539724e-030 -2.85713957626055e-016
outer loop
vertex 2.49999999999997 26.558845726812 15.35
vertex 2.49999999999997 25.0000000000001 12.2
vertex 2.49999999999998 28.4787730758123 14.2084705717699
endloop
endfacet
facet normal 1.0 1.8955118539724e-030 -2.85713957626055e-016
outer loop
vertex 2.49999999999997 26.558845726812 15.35
vertex 2.49999999999998 28.4787730758123 14.2084705717699
vertex 2.49999999999997 26.558845726812 17.15
endloop
endfacet
facet normal 1.0 1.8955118539724e-030 -2.85713957626055e-016
outer loop
vertex 2.49999999999998 21.5212269241877 20.0
vertex 2.49999999999997 25.0 18.05
vertex 2.49999999999998 28.4787730758123 20.0
endloop
endfacet
facet normal 1.0 1.8955118539724e-030 -2.85713957626055e-016
outer loop
vertex 2.49999999999997 25.0 18.05
vertex 2.49999999999998 21.5212269241877 20.0
vertex 2.49999999999997 23.441154273188 17.15
endloop
endfacet
facet normal 1.0 1.8955118539724e-030 -2.85713957626055e-016
outer loop
vertex 2.49999999999997 23.441154273188 17.15
vertex 2.49999999999998 21.5212269241877 20.0
vertex 2.49999999999997 23.441154273188 15.35
endloop
endfacet
facet normal 1.0 1.8955118539724e-030 -2.85713957626055e-016
outer loop
vertex 2.49999999999998 28.4787730758123 20.0
vertex 2.49999999999997 25.0 18.05
vertex 2.49999999999997 26.558845726812 17.15
endloop
endfacet
facet normal 1.0 1.8955118539724e-030 -2.85713957626055e-016
outer loop
vertex 2.49999999999998 28.4787730758123 20.0
vertex 2.49999999999997 26.558845726812 17.15
vertex 2.49999999999998 28.4787730758123 14.2084705717699
endloop
endfacet
facet normal 0.866025403784438 -0.5 -0.0
outer loop
vertex 15.7735026918962 -8.45989944764369e-015 3.52495810318487e-015
vertex 20.0 7.32050807568881 6.0
vertex 15.7735026918962 -8.46080793963975e-015 6.0
endloop
endfacet
facet normal 0.866025403784438 -0.5 -0.0
outer loop
vertex 20.0 7.32050807568881 6.0
vertex 15.7735026918962 -8.45989944764369e-015 3.52495810318487e-015
vertex 20.0 7.32050807568881 3.52495810318487e-015
endloop
endfacet
facet normal 0.866025403784438 0.500000000000001 -3.1595244091152e-017
outer loop
vertex 15.7735026918963 50.0 4.22994972382185e-015
vertex 20.0000000000001 42.6794919243113 6.0
vertex 20.0000000000001 42.6794919243113 1.40998324127395e-015
endloop
endfacet
facet normal 0.866025403784438 0.500000000000001 -3.1595244091152e-017
outer loop
vertex 20.0000000000001 42.6794919243113 6.0
vertex 15.7735026918963 50.0 4.22994972382185e-015
vertex 15.7735026918963 50.0 6.0
endloop
endfacet
facet normal -0.866025403784441 0.499999999999996 0.0
outer loop
vertex 4.22649730810381 50.0000000000001 6.0
vertex 5.92192961335058e-014 42.6794919243112 7.04991620636974e-016
vertex 5.92665796611649e-014 42.6794919243112 6.0
endloop
endfacet
facet normal -0.866025403784441 0.499999999999996 0.0
outer loop
vertex 5.92192961335058e-014 42.6794919243112 7.04991620636974e-016
vertex 4.22649730810381 50.0000000000001 6.0
vertex 4.22649730810381 50.0000000000001 7.04991620636974e-016
endloop
endfacet
facet normal -7.32648783512138e-016 -1.0 -1.39251804647025e-032
outer loop
vertex 15.7735026918962 -8.45989944764369e-015 3.52495810318487e-015
vertex 4.22649730810372 -9.08491996058774e-019 6.0
vertex 4.22649730810372 0.0 3.17246229286638e-015
endloop
endfacet
facet normal -7.32648783512138e-016 -1.0 -1.39251804647025e-032
outer loop
vertex 4.22649730810372 -9.08491996058774e-019 6.0
vertex 15.7735026918962 -8.45989944764369e-015 3.52495810318487e-015
vertex 15.7735026918962 -8.46080793963975e-015 6.0
endloop
endfacet
facet normal -0.866025403784438 -0.5 0.0
outer loop
vertex 4.72835276590078e-017 7.32050807568873 6.0
vertex 4.22649730810372 0.0 3.17246229286638e-015
vertex 4.22649730810372 -9.08491996058774e-019 6.0
endloop
endfacet
facet normal -0.866025403784438 -0.5 0.0
outer loop
vertex 4.22649730810372 0.0 3.17246229286638e-015
vertex 4.72835276590078e-017 7.32050807568873 6.0
vertex 0.0 7.32050807568873 3.17246229286638e-015
endloop
endfacet
facet normal 4.71765792319868e-018 4.30629311164948e-017 1.0
outer loop
vertex 3.05774015651368e-014 25.5773502691896 5.0
vertex -0.99999999999997 25.0 5.0
vertex 2.87091429066947e-014 24.4226497308103 5.0
endloop
endfacet
facet normal -0.500000000000002 0.866025403784437 -3.49347633467045e-017
outer loop
vertex -0.99999999999997 25.0 1.93872695675168e-015
vertex 3.05774015651368e-014 25.5773502691896 5.0
vertex 3.05538132755208e-014 25.5773502691896 1.90914690395628e-015
endloop
endfacet
facet normal -0.500000000000002 0.866025403784437 -3.49347633467045e-017
outer loop
vertex 3.05774015651368e-014 25.5773502691896 5.0
vertex -0.99999999999997 25.0 1.93872695675168e-015
vertex -0.99999999999997 25.0 5.0
endloop
endfacet
facet normal -0.499999999999999 -0.866025403784439 3.96524212699032e-017
outer loop
vertex 2.86855546170787e-014 24.4226497308103 1.95887169370068e-015
vertex -0.99999999999997 25.0 5.0
vertex -0.99999999999997 25.0 1.93872695675168e-015
endloop
endfacet
facet normal -0.499999999999999 -0.866025403784439 3.96524212699032e-017
outer loop
vertex -0.99999999999997 25.0 5.0
vertex 2.86855546170787e-014 24.4226497308103 1.95887169370068e-015
vertex 2.87091429066947e-014 24.4226497308103 5.0
endloop
endfacet
facet normal 0.500000000000002 -0.866025403784437 0.0
outer loop
vertex 21.0 25.0000000000001 6.0
vertex 20.0 24.4226497308104 7.04991620636974e-016
vertex 21.0 25.0000000000001 7.04991620636974e-016
endloop
endfacet
facet normal 0.500000000000002 -0.866025403784437 0.0
outer loop
vertex 20.0 24.4226497308104 7.04991620636974e-016
vertex 21.0 25.0000000000001 6.0
vertex 20.0 24.4226497308104 6.0
endloop
endfacet
facet normal 0.499999999999999 0.86602540378444 -0.0
outer loop
vertex 20.0 25.5773502691897 6.0
vertex 21.0 25.0000000000001 7.04991620636974e-016
vertex 20.0 25.5773502691897 7.04991620636974e-016
endloop
endfacet
facet normal 0.499999999999999 0.86602540378444 -0.0
outer loop
vertex 21.0 25.0000000000001 7.04991620636974e-016
vertex 20.0 25.5773502691897 6.0
vertex 21.0 25.0000000000001 6.0
endloop
endfacet
facet normal 1.0 -1.81378636275869e-015 -0.0
outer loop
vertex 20.0000000000001 42.6794919243113 1.40998324127395e-015
vertex 20.0 25.5773502691897 6.0
vertex 20.0 25.5773502691897 7.04991620636974e-016
endloop
endfacet
facet normal 1.0 -1.81378636275869e-015 -0.0
outer loop
vertex 20.0 25.5773502691897 6.0
vertex 20.0000000000001 42.6794919243113 1.40998324127395e-015
vertex 20.0000000000001 42.6794919243113 6.0
endloop
endfacet
facet normal -0.0 -0.0 1.0
outer loop
vertex 0.0 16.5941511030469 20.0
vertex 2.49999999999998 21.5212269241877 20.0
vertex 0.0 33.4058488969531 20.0
endloop
endfacet
facet normal -0.0 -0.0 1.0
outer loop
vertex 2.49999999999998 21.5212269241877 20.0
vertex 0.0 16.5941511030469 20.0
vertex 9.99999999999998 16.5941511030469 20.0
endloop
endfacet
facet normal -0.0 -0.0 1.0
outer loop
vertex 2.49999999999998 21.5212269241877 20.0
vertex 9.99999999999998 16.5941511030469 20.0
vertex 7.47252341514235 21.5212269241877 20.0
endloop
endfacet
facet normal -0.0 -0.0 1.0
outer loop
vertex 7.47252341514235 21.5212269241877 20.0
vertex 9.99999999999998 16.5941511030469 20.0
vertex 9.99999999999998 20.7 20.0
endloop
endfacet
facet normal -0.0 -0.0 1.0
outer loop
vertex 9.99999999999998 20.7 20.0
vertex 9.99999999999998 16.5941511030469 20.0
vertex 14.940834014628 18.1995253902171 20.0
endloop
endfacet
facet normal -0.0 -0.0 1.0
outer loop
vertex 9.99999999999998 20.7 20.0
vertex 14.940834014628 18.1995253902171 20.0
vertex 12.5274765848576 21.5212269241877 20.0
endloop
endfacet
facet normal -0.0 -0.0 1.0
outer loop
vertex 12.5274765848576 21.5212269241877 20.0
vertex 14.940834014628 18.1995253902171 20.0
vertex 14.0895430200691 23.6712269241877 20.0
endloop
endfacet
facet normal -0.0 -0.0 1.0
outer loop
vertex 14.0895430200691 23.6712269241877 20.0
vertex 14.940834014628 18.1995253902171 20.0
vertex 14.0895430200691 26.3287730758123 20.0
endloop
endfacet
facet normal -0.0 -0.0 1.0
outer loop
vertex 0.0 33.4058488969531 20.0
vertex 2.49999999999998 28.4787730758123 20.0
vertex 9.99999999999998 33.4058488969531 20.0
endloop
endfacet
facet normal -0.0 -0.0 1.0
outer loop
vertex 2.49999999999998 28.4787730758123 20.0
vertex 0.0 33.4058488969531 20.0
vertex 2.49999999999998 21.5212269241877 20.0
endloop
endfacet
facet normal -0.0 -0.0 1.0
outer loop
vertex 9.99999999999998 33.4058488969531 20.0
vertex 2.49999999999998 28.4787730758123 20.0
vertex 7.47252341514235 28.4787730758123 20.0
endloop
endfacet
facet normal -0.0 -0.0 1.0
outer loop
vertex 9.99999999999998 33.4058488969531 20.0
vertex 7.47252341514235 28.4787730758123 20.0
vertex 9.99999999999998 29.3 20.0
endloop
endfacet
facet normal -0.0 -0.0 1.0
outer loop
vertex 9.99999999999998 33.4058488969531 20.0
vertex 9.99999999999998 29.3 20.0
vertex 12.5274765848576 28.4787730758123 20.0
endloop
endfacet
facet normal -0.0 -0.0 1.0
outer loop
vertex 9.99999999999998 33.4058488969531 20.0
vertex 12.5274765848576 28.4787730758123 20.0
vertex 14.940834014628 31.8004746097829 20.0
endloop
endfacet
facet normal -0.0 -0.0 1.0
outer loop
vertex 14.940834014628 31.8004746097829 20.0
vertex 12.5274765848576 28.4787730758123 20.0
vertex 14.0895430200691 26.3287730758123 20.0
endloop
endfacet
facet normal -0.0 -0.0 1.0
outer loop
vertex 14.940834014628 31.8004746097829 20.0
vertex 14.0895430200691 26.3287730758123 20.0
vertex 14.940834014628 18.1995253902171 20.0
endloop
endfacet
facet normal -0.0 -0.0 1.0
outer loop
vertex 14.940834014628 31.8004746097829 20.0
vertex 14.940834014628 18.1995253902171 20.0
vertex 17.9944373684396 22.4024498386936 20.0
endloop
endfacet
facet normal -0.0 -0.0 1.0
outer loop
vertex 14.940834014628 31.8004746097829 20.0
vertex 17.9944373684396 22.4024498386936 20.0
vertex 17.9944373684396 27.5975501613064 20.0
endloop
endfacet
facet normal -1.0 0.0 -0.0
outer loop
vertex 14.0895430200691 26.3287730758123 20.0
vertex 14.0895430200691 23.6712269241877 1.83297821365613e-014
vertex 14.0895430200691 23.6712269241877 20.0
endloop
endfacet
facet normal -1.0 0.0 -0.0
outer loop
vertex 14.0895430200691 23.6712269241877 1.83297821365613e-014
vertex 14.0895430200691 26.3287730758123 20.0
vertex 14.0895430200691 26.3287730758123 1.83297821365613e-014
endloop
endfacet
facet normal -0.809016994374948 -0.587785252292472 -0.0
outer loop
vertex 12.5274765848576 28.4787730758123 20.0
vertex 14.0895430200691 26.3287730758123 1.83297821365613e-014
vertex 14.0895430200691 26.3287730758123 20.0
endloop
endfacet
facet normal -0.809016994374948 -0.587785252292472 -0.0
outer loop
vertex 14.0895430200691 26.3287730758123 1.83297821365613e-014
vertex 12.5274765848576 28.4787730758123 20.0
vertex 12.5274765848576 28.4787730758123 1.83297821365613e-014
endloop
endfacet
facet normal -0.309016994374947 -0.951056516295154 -0.0
outer loop
vertex 12.5274765848576 28.4787730758123 20.0
vertex 9.99999999999998 29.3 1.83297821365613e-014
vertex 12.5274765848576 28.4787730758123 1.83297821365613e-014
endloop
endfacet
facet normal -0.309016994374947 -0.951056516295154 -0.0
outer loop
vertex 9.99999999999998 29.3 1.83297821365613e-014
vertex 12.5274765848576 28.4787730758123 20.0
vertex 9.99999999999998 29.3 20.0
endloop
endfacet
facet normal 0.309016994374947 -0.951056516295154 -0.0
outer loop
vertex 9.99999999999998 29.3 20.0
vertex 7.47252341514235 28.4787730758123 1.83297821365613e-014
vertex 9.99999999999998 29.3 1.83297821365613e-014
endloop
endfacet
facet normal 0.309016994374947 -0.951056516295154 -0.0
outer loop
vertex 7.47252341514235 28.4787730758123 1.83297821365613e-014
vertex 9.99999999999998 29.3 20.0
vertex 7.47252341514235 28.4787730758123 12.9671607506943
endloop
endfacet
facet normal 0.309016994374947 -0.951056516295154 -0.0
outer loop
vertex 7.47252341514235 28.4787730758123 12.9671607506943
vertex 9.99999999999998 29.3 20.0
vertex 7.47252341514235 28.4787730758123 20.0
endloop
endfacet
facet normal 0.809016994374948 -0.587785252292473 -3.91224987116436e-018
outer loop
vertex 7.47252341514235 28.4787730758123 1.83297821365613e-014
vertex 5.91045697993082 26.3287730758123 12.9671607506943
vertex 5.91045697993082 26.3287730758123 1.83297821365613e-014
endloop
endfacet
facet normal 0.809016994374948 -0.587785252292473 -3.91224987116436e-018
outer loop
vertex 5.91045697993082 26.3287730758123 12.9671607506943
vertex 7.47252341514235 28.4787730758123 1.83297821365613e-014
vertex 7.47252341514235 28.4787730758123 12.9671607506943
endloop
endfacet
facet normal 0.809016994374947 0.587785252292473 -4.345167406395e-033
outer loop
vertex 5.91045697993082 23.6712269241877 1.83297821365613e-014
vertex 7.47252341514235 21.5212269241877 12.9502867717721
vertex 7.47252341514235 21.5212269241877 1.83297821365613e-014
endloop
endfacet
facet normal 0.809016994374947 0.587785252292473 -4.345167406395e-033
outer loop
vertex 7.47252341514235 21.5212269241877 12.9502867717721
vertex 5.91045697993082 23.6712269241877 1.83297821365613e-014
vertex 5.91045697993082 23.6712269241877 12.9502867717721
endloop
endfacet
facet normal 0.309016994374947 0.951056516295154 0.0
outer loop
vertex 7.47252341514235 21.5212269241877 12.9502867717721
vertex 9.99999999999998 20.7 1.83297821365613e-014
vertex 7.47252341514235 21.5212269241877 1.83297821365613e-014
endloop
endfacet
facet normal 0.309016994374947 0.951056516295154 0.0
outer loop
vertex 9.99999999999998 20.7 1.83297821365613e-014
vertex 7.47252341514235 21.5212269241877 12.9502867717721
vertex 9.99999999999998 20.7 20.0
endloop
endfacet
facet normal 0.309016994374947 0.951056516295154 0.0
outer loop
vertex 9.99999999999998 20.7 20.0
vertex 7.47252341514235 21.5212269241877 12.9502867717721
vertex 7.47252341514235 21.5212269241877 20.0
endloop
endfacet
facet normal -0.309016994374947 0.951056516295154 -0.0
outer loop
vertex 9.99999999999998 20.7 20.0
vertex 12.5274765848576 21.5212269241877 1.83297821365613e-014
vertex 9.99999999999998 20.7 1.83297821365613e-014
endloop
endfacet
facet normal -0.309016994374947 0.951056516295154 -0.0
outer loop
vertex 12.5274765848576 21.5212269241877 1.83297821365613e-014
vertex 9.99999999999998 20.7 20.0
vertex 12.5274765848576 21.5212269241877 20.0
endloop
endfacet
facet normal -0.809016994374948 0.587785252292472 -0.0
outer loop
vertex 14.0895430200691 23.6712269241877 20.0
vertex 12.5274765848576 21.5212269241877 1.83297821365613e-014
vertex 12.5274765848576 21.5212269241877 20.0
endloop
endfacet
facet normal -0.809016994374948 0.587785252292472 -0.0
outer loop
vertex 12.5274765848576 21.5212269241877 1.83297821365613e-014
vertex 14.0895430200691 23.6712269241877 20.0
vertex 14.0895430200691 23.6712269241877 1.83297821365613e-014
endloop
endfacet
facet normal 5.68981451997907e-006 -4.1338922252272e-006 0.999999999975268
outer loop
vertex 7.47252341514235 28.4787730758123 12.9671607506943
vertex 5.90684416914799 28.4787762545396 12.967169659132
vertex 5.91045697993082 26.3287730758123 12.9671607506943
endloop
endfacet
facet normal 0.0 -1.0 0.0
outer loop
vertex 7.47252341514235 28.4787730758123 20.0
vertex 5.90684416914799 28.4787762545396 12.967169659132
vertex 7.47252341514235 28.4787730758123 12.9671607506943
endloop
endfacet
facet normal 0.0 -1.0 0.0
outer loop
vertex 5.90684416914799 28.4787762545396 12.967169659132
vertex 7.47252341514235 28.4787730758123 20.0
vertex 5.90684416914798 28.4787762545396 14.2084794802075
endloop
endfacet
facet normal 0.0 -1.0 0.0
outer loop
vertex 5.90684416914798 28.4787762545396 14.2084794802075
vertex 2.49999999999998 28.4787730758123 20.0
vertex 2.49999999999998 28.4787730758123 14.2084705717699
endloop
endfacet
facet normal 0.0 -1.0 0.0
outer loop
vertex 2.49999999999998 28.4787730758123 20.0
vertex 5.90684416914798 28.4787762545396 14.2084794802075
vertex 7.47252341514235 28.4787730758123 20.0
endloop
endfacet
facet normal 0.00142189978655201 0.500246563588216 0.865881835944823
outer loop
vertex 2.49999999999998 21.5212269241877 14.2084705717698
vertex 5.89999999999997 25.0000000000001 12.2
vertex 2.49999999999997 25.0000000000001 12.2
endloop
endfacet
facet normal 0.00142189978655201 0.500246563588216 0.865881835944823
outer loop
vertex 5.89999999999997 25.0000000000001 12.2
vertex 2.49999999999998 21.5212269241877 14.2084705717698
vertex 5.90684416914798 21.5212237454604 14.2084794802074
endloop
endfacet
facet normal 0.00142189978655201 0.500246563588216 0.865881835944823
outer loop
vertex 5.89999999999997 25.0000000000001 12.2
vertex 5.90684416914798 21.5212237454604 14.2084794802074
vertex 5.91045697993082 23.6712269241877 12.9502867717721
endloop
endfacet
facet normal 5.68981451817795e-006 4.13389222391861e-006 0.999999999975268
outer loop
vertex 7.47252341514235 21.5212269241877 12.9502867717721
vertex 5.91045697993082 23.6712269241877 12.9502867717721
vertex 5.90684416914799 21.5212237454604 12.9502956802097
endloop
endfacet
facet normal -6.8851431045069e-008 -0.500000803747374 0.866024939740176
outer loop
vertex 5.89999999999997 25.0000000000001 12.2
vertex 2.49999999999998 28.4787730758123 14.2084705717699
vertex 2.49999999999997 25.0000000000001 12.2
endloop
endfacet
facet normal -6.8851431045069e-008 -0.500000803747374 0.866024939740176
outer loop
vertex 2.49999999999998 28.4787730758123 14.2084705717699
vertex 5.89999999999997 25.0000000000001 12.2
vertex 5.90684416914798 28.4787762545396 14.2084794802075
endloop
endfacet
facet normal -6.8851431045069e-008 -0.500000803747374 0.866024939740176
outer loop
vertex 5.90684416914798 28.4787762545396 14.2084794802075
vertex 5.89999999999997 25.0000000000001 12.2
vertex 5.91045697993082 26.3287730758123 12.9671607506943
endloop
endfacet
facet normal -0.0 1.0 -0.0
outer loop
vertex 2.49999999999998 21.5212269241877 20.0
vertex 5.90684416914798 21.5212237454604 14.2084794802074
vertex 2.49999999999998 21.5212269241877 14.2084705717698
endloop
endfacet
facet normal -0.0 1.0 -0.0
outer loop
vertex 5.90684416914799 21.5212237454604 12.9502956802097
vertex 7.47252341514235 21.5212269241877 20.0
vertex 7.47252341514235 21.5212269241877 12.9502867717721
endloop
endfacet
facet normal -0.0 1.0 -0.0
outer loop
vertex 7.47252341514235 21.5212269241877 20.0
vertex 5.90684416914799 21.5212237454604 12.9502956802097
vertex 5.90684416914798 21.5212237454604 14.2084794802074
endloop
endfacet
facet normal -0.0 1.0 -0.0
outer loop
vertex 7.47252341514235 21.5212269241877 20.0
vertex 5.90684416914798 21.5212237454604 14.2084794802074
vertex 2.49999999999998 21.5212269241877 20.0
endloop
endfacet
facet normal 0.999999980994404 -3.42151689818589e-007 0.000194964289302895
outer loop
vertex 5.90684416914798 28.4787762545396 14.2084794802075
vertex 5.91045697993082 26.3287730758123 12.9671607506943
vertex 5.90684416914799 28.4787762545396 12.967169659132
endloop
endfacet
facet normal 0.999999980994404 -3.42151689818589e-007 0.000194964289302895
outer loop
vertex 5.91045697993082 26.3287730758123 1.83297821365613e-014
vertex 5.91045697993082 23.6712269241877 12.9502867717721
vertex 5.91045697993082 23.6712269241877 1.83297821365613e-014
endloop
endfacet
facet normal 0.999999980994404 -3.42151689818589e-007 0.000194964289302895
outer loop
vertex 5.91045697993082 23.6712269241877 12.9502867717721
vertex 5.91045697993082 26.3287730758123 1.83297821365613e-014
vertex 5.89999999999997 25.0000000000001 12.2
endloop
endfacet
facet normal 0.999999980994404 -3.42151689818589e-007 0.000194964289302895
outer loop
vertex 5.89999999999997 25.0000000000001 12.2
vertex 5.91045697993082 26.3287730758123 1.83297821365613e-014
vertex 5.91045697993082 26.3287730758123 12.9671607506943
endloop
endfacet
facet normal 0.999999980994404 -3.42151689818589e-007 0.000194964289302895
outer loop
vertex 5.91045697993082 23.6712269241877 12.9502867717721
vertex 5.90684416914798 21.5212237454604 14.2084794802074
vertex 5.90684416914799 21.5212237454604 12.9502956802097
endloop
endfacet
facet normal 4.72835276590078e-017 -9.08491996058774e-019 1.0
outer loop
vertex 9.99999999999998 33.4058488969531 6.0
vertex 5.92665796611649e-014 42.6794919243112 6.0
vertex 4.72835276590078e-017 33.4058488969531 6.0
endloop
endfacet
facet normal 4.72835276590078e-017 -9.08491996058774e-019 1.0
outer loop
vertex 5.92665796611649e-014 42.6794919243112 6.0
vertex 9.99999999999998 33.4058488969531 6.0
vertex 4.22649730810381 50.0000000000001 6.0
endloop
endfacet
facet normal 4.72835276590078e-017 -9.08491996058774e-019 1.0
outer loop
vertex 4.22649730810381 50.0000000000001 6.0
vertex 9.99999999999998 33.4058488969531 6.0
vertex 7.79999999999999 40.0 6.0
endloop
endfacet
facet normal 4.72835276590078e-017 -9.08491996058774e-019 1.0
outer loop
vertex 7.79999999999999 40.0 6.0
vertex 9.99999999999998 33.4058488969531 6.0
vertex 8.44436508138959 38.4443650813896 6.0
endloop
endfacet
facet normal 4.72835276590078e-017 -9.08491996058774e-019 1.0
outer loop
vertex 8.44436508138959 38.4443650813896 6.0
vertex 9.99999999999998 33.4058488969531 6.0
vertex 9.99999999999998 37.8 6.0
endloop
endfacet
facet normal 4.72835276590078e-017 -9.08491996058774e-019 1.0
outer loop
vertex 9.99999999999998 37.8 6.0
vertex 9.99999999999998 33.4058488969531 6.0
vertex 14.940834014628 31.8004746097829 6.0
endloop
endfacet
facet normal 4.72835276590078e-017 -9.08491996058774e-019 1.0
outer loop
vertex 9.99999999999998 37.8 6.0
vertex 14.940834014628 31.8004746097829 6.0
vertex 11.5556349186104 38.4443650813896 6.0
endloop
endfacet
facet normal 4.72835276590078e-017 -9.08491996058774e-019 1.0
outer loop
vertex 11.5556349186104 38.4443650813896 6.0
vertex 14.940834014628 31.8004746097829 6.0
vertex 12.2 40.0 6.0
endloop
endfacet
facet normal 4.72835276590078e-017 -9.08491996058774e-019 1.0
outer loop
vertex 4.22649730810372 -9.08491996058774e-019 6.0
vertex 8.44436508138959 8.44436508138959 6.0
vertex 7.79999999999999 10.0 6.0
endloop
endfacet
facet normal 4.72835276590078e-017 -9.08491996058774e-019 1.0
outer loop
vertex 8.44436508138959 8.44436508138959 6.0
vertex 4.22649730810372 -9.08491996058774e-019 6.0
vertex 15.7735026918962 -8.46080793963975e-015 6.0
endloop
endfacet
facet normal 4.72835276590078e-017 -9.08491996058774e-019 1.0
outer loop
vertex 8.44436508138959 8.44436508138959 6.0
vertex 15.7735026918962 -8.46080793963975e-015 6.0
vertex 9.99999999999998 7.8 6.0
endloop
endfacet
facet normal 4.72835276590078e-017 -9.08491996058774e-019 1.0
outer loop
vertex 9.99999999999998 7.8 6.0
vertex 15.7735026918962 -8.46080793963975e-015 6.0
vertex 11.5556349186104 8.44436508138959 6.0
endloop
endfacet
facet normal 4.72835276590078e-017 -9.08491996058774e-019 1.0
outer loop
vertex 11.5556349186104 8.44436508138959 6.0
vertex 15.7735026918962 -8.46080793963975e-015 6.0
vertex 12.2 10.0 6.0
endloop
endfacet
facet normal 4.72835276590078e-017 -9.08491996058774e-019 1.0
outer loop
vertex 12.2 10.0 6.0
vertex 15.7735026918962 -8.46080793963975e-015 6.0
vertex 14.940834014628 18.1995253902171 6.0
endloop
endfacet
facet normal 4.72835276590078e-017 -9.08491996058774e-019 1.0
outer loop
vertex 14.940834014628 18.1995253902171 6.0
vertex 15.7735026918962 -8.46080793963975e-015 6.0
vertex 17.9944373684396 22.4024498386936 6.0
endloop
endfacet
facet normal 4.72835276590078e-017 -9.08491996058774e-019 1.0
outer loop
vertex 17.9944373684396 22.4024498386936 6.0
vertex 15.7735026918962 -8.46080793963975e-015 6.0
vertex 20.0 7.32050807568881 6.0
endloop
endfacet
facet normal 4.72835276590078e-017 -9.08491996058774e-019 1.0
outer loop
vertex 17.9944373684396 22.4024498386936 6.0
vertex 20.0 7.32050807568881 6.0
vertex 17.9944373684396 27.5975501613064 6.0
endloop
endfacet
facet normal 4.72835276590078e-017 -9.08491996058774e-019 1.0
outer loop
vertex 21.0 25.0000000000001 6.0
vertex 20.0 25.5773502691897 6.0
vertex 20.0 24.4226497308104 6.0
endloop
endfacet
facet normal 4.72835276590078e-017 -9.08491996058774e-019 1.0
outer loop
vertex 4.22649730810381 50.0000000000001 6.0
vertex 8.44436508138959 41.5556349186104 6.0
vertex 15.7735026918963 50.0 6.0
endloop
endfacet
facet normal 4.72835276590078e-017 -9.08491996058774e-019 1.0
outer loop
vertex 8.44436508138959 41.5556349186104 6.0
vertex 4.22649730810381 50.0000000000001 6.0
vertex 7.79999999999999 40.0 6.0
endloop
endfacet
facet normal 4.72835276590078e-017 -9.08491996058774e-019 1.0
outer loop
vertex 15.7735026918963 50.0 6.0
vertex 8.44436508138959 41.5556349186104 6.0
vertex 9.99999999999998 42.2 6.0
endloop
endfacet
facet normal 4.72835276590078e-017 -9.08491996058774e-019 1.0
outer loop
vertex 15.7735026918963 50.0 6.0
vertex 9.99999999999998 42.2 6.0
vertex 11.5556349186104 41.5556349186104 6.0
endloop
endfacet
facet normal 4.72835276590078e-017 -9.08491996058774e-019 1.0
outer loop
vertex 15.7735026918963 50.0 6.0
vertex 11.5556349186104 41.5556349186104 6.0
vertex 12.2 40.0 6.0
endloop
endfacet
facet normal 4.72835276590078e-017 -9.08491996058774e-019 1.0
outer loop
vertex 15.7735026918963 50.0 6.0
vertex 12.2 40.0 6.0
vertex 14.940834014628 31.8004746097829 6.0
endloop
endfacet
facet normal 4.72835276590078e-017 -9.08491996058774e-019 1.0
outer loop
vertex 15.7735026918963 50.0 6.0
vertex 14.940834014628 31.8004746097829 6.0
vertex 17.9944373684396 27.5975501613064 6.0
endloop
endfacet
facet normal 4.72835276590078e-017 -9.08491996058774e-019 1.0
outer loop
vertex 15.7735026918963 50.0 6.0
vertex 17.9944373684396 27.5975501613064 6.0
vertex 20.0000000000001 42.6794919243113 6.0
endloop
endfacet
facet normal 4.72835276590078e-017 -9.08491996058774e-019 1.0
outer loop
vertex 20.0000000000001 42.6794919243113 6.0
vertex 17.9944373684396 27.5975501613064 6.0
vertex 20.0 25.5773502691897 6.0
endloop
endfacet
facet normal 4.72835276590078e-017 -9.08491996058774e-019 1.0
outer loop
vertex 20.0 25.5773502691897 6.0
vertex 17.9944373684396 27.5975501613064 6.0
vertex 20.0 7.32050807568881 6.0
endloop
endfacet
facet normal 4.72835276590078e-017 -9.08491996058774e-019 1.0
outer loop
vertex 20.0 25.5773502691897 6.0
vertex 20.0 7.32050807568881 6.0
vertex 20.0 24.4226497308104 6.0
endloop
endfacet
facet normal 4.72835276590078e-017 -9.08491996058774e-019 1.0
outer loop
vertex 4.22649730810372 -9.08491996058774e-019 6.0
vertex 4.72835276590078e-017 16.5941511030469 6.0
vertex 4.72835276590078e-017 7.32050807568873 6.0
endloop
endfacet
facet normal 4.72835276590078e-017 -9.08491996058774e-019 1.0
outer loop
vertex 4.72835276590078e-017 16.5941511030469 6.0
vertex 4.22649730810372 -9.08491996058774e-019 6.0
vertex 9.99999999999998 16.5941511030469 6.0
endloop
endfacet
facet normal 4.72835276590078e-017 -9.08491996058774e-019 1.0
outer loop
vertex 9.99999999999998 16.5941511030469 6.0
vertex 4.22649730810372 -9.08491996058774e-019 6.0
vertex 7.79999999999999 10.0 6.0
endloop
endfacet
facet normal 4.72835276590078e-017 -9.08491996058774e-019 1.0
outer loop
vertex 9.99999999999998 16.5941511030469 6.0
vertex 7.79999999999999 10.0 6.0
vertex 8.4443650813896 11.5556349186104 6.0
endloop
endfacet
facet normal 4.72835276590078e-017 -9.08491996058774e-019 1.0
outer loop
vertex 9.99999999999998 16.5941511030469 6.0
vertex 8.4443650813896 11.5556349186104 6.0
vertex 9.99999999999998 12.2 6.0
endloop
endfacet
facet normal 4.72835276590078e-017 -9.08491996058774e-019 1.0
outer loop
vertex 9.99999999999998 16.5941511030469 6.0
vertex 9.99999999999998 12.2 6.0
vertex 14.940834014628 18.1995253902171 6.0
endloop
endfacet
facet normal 4.72835276590078e-017 -9.08491996058774e-019 1.0
outer loop
vertex 14.940834014628 18.1995253902171 6.0
vertex 9.99999999999998 12.2 6.0
vertex 11.5556349186104 11.5556349186104 6.0
endloop
endfacet
facet normal 4.72835276590078e-017 -9.08491996058774e-019 1.0
outer loop
vertex 14.940834014628 18.1995253902171 6.0
vertex 11.5556349186104 11.5556349186104 6.0
vertex 12.2 10.0 6.0
endloop
endfacet
facet normal -4.41583438249161e-018 -3.33474494739124e-017 -1.0
outer loop
vertex 9.99999999999998 20.7 1.83297821365613e-014
vertex 7.79999999999999 10.0 0.0
vertex 7.47252341514235 21.5212269241877 1.83297821365613e-014
endloop
endfacet
facet normal -4.41583438249161e-018 -3.33474494739124e-017 -1.0
outer loop
vertex 7.79999999999999 10.0 0.0
vertex 9.99999999999998 20.7 1.83297821365613e-014
vertex 8.44436508138959 11.5556349186104 0.0
endloop
endfacet
facet normal -4.41583438249161e-018 -3.33474494739124e-017 -1.0
outer loop
vertex 8.44436508138959 11.5556349186104 0.0
vertex 9.99999999999998 20.7 1.83297821365613e-014
vertex 9.99999999999998 12.2 0.0
endloop
endfacet
facet normal -4.41583438249161e-018 -3.33474494739124e-017 -1.0
outer loop
vertex 9.99999999999998 12.2 0.0
vertex 9.99999999999998 20.7 1.83297821365613e-014
vertex 12.5274765848576 21.5212269241877 1.83297821365613e-014
endloop
endfacet
facet normal -4.41583438249161e-018 -3.33474494739124e-017 -1.0
outer loop
vertex 9.99999999999998 12.2 0.0
vertex 12.5274765848576 21.5212269241877 1.83297821365613e-014
vertex 11.5556349186104 11.5556349186104 0.0
endloop
endfacet
facet normal -4.41583438249161e-018 -3.33474494739124e-017 -1.0
outer loop
vertex 11.5556349186104 11.5556349186104 0.0
vertex 12.5274765848576 21.5212269241877 1.83297821365613e-014
vertex 12.2 10.0 0.0
endloop
endfacet
facet normal -4.41583438249161e-018 -3.33474494739124e-017 -1.0
outer loop
vertex 2.86855546170787e-014 24.4226497308103 1.95887169370068e-015
vertex 4.22649730810372 0.0 3.17246229286638e-015
vertex 0.0 7.32050807568873 3.17246229286638e-015
endloop
endfacet
facet normal -4.41583438249161e-018 -3.33474494739124e-017 -1.0
outer loop
vertex 4.22649730810372 0.0 3.17246229286638e-015
vertex 2.86855546170787e-014 24.4226497308103 1.95887169370068e-015
vertex 3.05538132755208e-014 25.5773502691896 1.90914690395628e-015
endloop
endfacet
facet normal -4.41583438249161e-018 -3.33474494739124e-017 -1.0
outer loop
vertex 4.22649730810372 0.0 3.17246229286638e-015
vertex 3.05538132755208e-014 25.5773502691896 1.90914690395628e-015
vertex 5.92192961335058e-014 42.6794919243112 7.04991620636974e-016
endloop
endfacet
facet normal -4.41583438249161e-018 -3.33474494739124e-017 -1.0
outer loop
vertex 4.22649730810372 0.0 3.17246229286638e-015
vertex 5.92192961335058e-014 42.6794919243112 7.04991620636974e-016
vertex 4.22649730810381 50.0000000000001 7.04991620636974e-016
endloop
endfacet
facet normal -4.41583438249161e-018 -3.33474494739124e-017 -1.0
outer loop
vertex 4.22649730810372 0.0 3.17246229286638e-015
vertex 4.22649730810381 50.0000000000001 7.04991620636974e-016
vertex 5.91045697993082 23.6712269241877 1.83297821365613e-014
endloop
endfacet
facet normal -4.41583438249161e-018 -3.33474494739124e-017 -1.0
outer loop
vertex 4.22649730810372 0.0 3.17246229286638e-015
vertex 5.91045697993082 23.6712269241877 1.83297821365613e-014
vertex 7.79999999999999 10.0 0.0
endloop
endfacet
facet normal -4.41583438249161e-018 -3.33474494739124e-017 -1.0
outer loop
vertex 4.22649730810372 0.0 3.17246229286638e-015
vertex 7.79999999999999 10.0 0.0
vertex 8.44436508138959 8.44436508138959 0.0
endloop
endfacet
facet normal -4.41583438249161e-018 -3.33474494739124e-017 -1.0
outer loop
vertex 4.22649730810372 0.0 3.17246229286638e-015
vertex 8.44436508138959 8.44436508138959 0.0
vertex 15.7735026918962 -8.45989944764369e-015 3.52495810318487e-015
endloop
endfacet
facet normal -4.41583438249161e-018 -3.33474494739124e-017 -1.0
outer loop
vertex 5.91045697993082 23.6712269241877 1.83297821365613e-014
vertex 4.22649730810381 50.0000000000001 7.04991620636974e-016
vertex 5.91045697993082 26.3287730758123 1.83297821365613e-014
endloop
endfacet
facet normal -4.41583438249161e-018 -3.33474494739124e-017 -1.0
outer loop
vertex 7.79999999999999 10.0 0.0
vertex 5.91045697993082 23.6712269241877 1.83297821365613e-014
vertex 7.47252341514235 21.5212269241877 1.83297821365613e-014
endloop
endfacet
facet normal -4.41583438249161e-018 -3.33474494739124e-017 -1.0
outer loop
vertex 15.7735026918962 -8.45989944764369e-015 3.52495810318487e-015
vertex 8.44436508138959 8.44436508138959 0.0
vertex 9.99999999999998 7.8 0.0
endloop
endfacet
facet normal -4.41583438249161e-018 -3.33474494739124e-017 -1.0
outer loop
vertex 15.7735026918962 -8.45989944764369e-015 3.52495810318487e-015
vertex 9.99999999999998 7.8 0.0
vertex 11.5556349186104 8.44436508138959 0.0
endloop
endfacet
facet normal -4.41583438249161e-018 -3.33474494739124e-017 -1.0
outer loop
vertex 15.7735026918962 -8.45989944764369e-015 3.52495810318487e-015
vertex 11.5556349186104 8.44436508138959 0.0
vertex 12.2 10.0 0.0
endloop
endfacet
facet normal -4.41583438249161e-018 -3.33474494739124e-017 -1.0
outer loop
vertex 15.7735026918962 -8.45989944764369e-015 3.52495810318487e-015
vertex 12.2 10.0 0.0
vertex 12.5274765848576 21.5212269241877 1.83297821365613e-014
endloop
endfacet
facet normal -4.41583438249161e-018 -3.33474494739124e-017 -1.0
outer loop
vertex 15.7735026918962 -8.45989944764369e-015 3.52495810318487e-015
vertex 12.5274765848576 21.5212269241877 1.83297821365613e-014
vertex 14.0895430200691 23.6712269241877 1.83297821365613e-014
endloop
endfacet
facet normal -4.41583438249161e-018 -3.33474494739124e-017 -1.0
outer loop
vertex 7.79999999999999 40.0 0.0
vertex 9.99999999999998 29.3 1.83297821365613e-014
vertex 7.47252341514235 28.4787730758123 1.83297821365613e-014
endloop
endfacet
facet normal -4.41583438249161e-018 -3.33474494739124e-017 -1.0
outer loop
vertex 9.99999999999998 29.3 1.83297821365613e-014
vertex 7.79999999999999 40.0 0.0
vertex 8.44436508138959 38.4443650813896 0.0
endloop
endfacet
facet normal -4.41583438249161e-018 -3.33474494739124e-017 -1.0
outer loop
vertex 9.99999999999998 29.3 1.83297821365613e-014
vertex 8.44436508138959 38.4443650813896 0.0
vertex 9.99999999999998 37.8 0.0
endloop
endfacet
facet normal -4.41583438249161e-018 -3.33474494739124e-017 -1.0
outer loop
vertex 9.99999999999998 29.3 1.83297821365613e-014
vertex 9.99999999999998 37.8 0.0
vertex 11.5556349186104 38.4443650813896 0.0
endloop
endfacet
facet normal -4.41583438249161e-018 -3.33474494739124e-017 -1.0
outer loop
vertex 9.99999999999998 29.3 1.83297821365613e-014
vertex 11.5556349186104 38.4443650813896 0.0
vertex 12.5274765848576 28.4787730758123 1.83297821365613e-014
endloop
endfacet
facet normal -4.41583438249161e-018 -3.33474494739124e-017 -1.0
outer loop
vertex 12.5274765848576 28.4787730758123 1.83297821365613e-014
vertex 11.5556349186104 38.4443650813896 0.0
vertex 12.2 40.0 0.0
endloop
endfacet
facet normal -4.41583438249161e-018 -3.33474494739124e-017 -1.0
outer loop
vertex 3.05538132755208e-014 25.5773502691896 1.90914690395628e-015
vertex 2.86855546170787e-014 24.4226497308103 1.95887169370068e-015
vertex -0.99999999999997 25.0 1.93872695675168e-015
endloop
endfacet
facet normal -4.41583438249161e-018 -3.33474494739124e-017 -1.0
outer loop
vertex 4.22649730810381 50.0000000000001 7.04991620636974e-016
vertex 7.79999999999999 40.0 0.0
vertex 5.91045697993082 26.3287730758123 1.83297821365613e-014
endloop
endfacet
facet normal -4.41583438249161e-018 -3.33474494739124e-017 -1.0
outer loop
vertex 7.79999999999999 40.0 0.0
vertex 4.22649730810381 50.0000000000001 7.04991620636974e-016
vertex 8.44436508138959 41.5556349186104 0.0
endloop
endfacet
facet normal -4.41583438249161e-018 -3.33474494739124e-017 -1.0
outer loop
vertex 8.44436508138959 41.5556349186104 0.0
vertex 4.22649730810381 50.0000000000001 7.04991620636974e-016
vertex 15.7735026918963 50.0 4.22994972382185e-015
endloop
endfacet
facet normal -4.41583438249161e-018 -3.33474494739124e-017 -1.0
outer loop
vertex 5.91045697993082 26.3287730758123 1.83297821365613e-014
vertex 7.79999999999999 40.0 0.0
vertex 7.47252341514235 28.4787730758123 1.83297821365613e-014
endloop
endfacet
facet normal -4.41583438249161e-018 -3.33474494739124e-017 -1.0
outer loop
vertex 8.44436508138959 41.5556349186104 0.0
vertex 15.7735026918963 50.0 4.22994972382185e-015
vertex 9.99999999999998 42.2 0.0
endloop
endfacet
facet normal -4.41583438249161e-018 -3.33474494739124e-017 -1.0
outer loop
vertex 9.99999999999998 42.2 0.0
vertex 15.7735026918963 50.0 4.22994972382185e-015
vertex 11.5556349186104 41.5556349186104 0.0
endloop
endfacet
facet normal -4.41583438249161e-018 -3.33474494739124e-017 -1.0
outer loop
vertex 11.5556349186104 41.5556349186104 0.0
vertex 15.7735026918963 50.0 4.22994972382185e-015
vertex 12.2 40.0 0.0
endloop
endfacet
facet normal -4.41583438249161e-018 -3.33474494739124e-017 -1.0
outer loop
vertex 12.2 40.0 0.0
vertex 15.7735026918963 50.0 4.22994972382185e-015
vertex 12.5274765848576 28.4787730758123 1.83297821365613e-014
endloop
endfacet
facet normal -4.41583438249161e-018 -3.33474494739124e-017 -1.0
outer loop
vertex 12.5274765848576 28.4787730758123 1.83297821365613e-014
vertex 15.7735026918963 50.0 4.22994972382185e-015
vertex 14.0895430200691 26.3287730758123 1.83297821365613e-014
endloop
endfacet
facet normal -4.41583438249161e-018 -3.33474494739124e-017 -1.0
outer loop
vertex 14.0895430200691 26.3287730758123 1.83297821365613e-014
vertex 15.7735026918963 50.0 4.22994972382185e-015
vertex 14.0895430200691 23.6712269241877 1.83297821365613e-014
endloop
endfacet
facet normal -4.41583438249161e-018 -3.33474494739124e-017 -1.0
outer loop
vertex 14.0895430200691 23.6712269241877 1.83297821365613e-014
vertex 15.7735026918963 50.0 4.22994972382185e-015
vertex 15.7735026918962 -8.45989944764369e-015 3.52495810318487e-015
endloop
endfacet
facet normal -4.41583438249161e-018 -3.33474494739124e-017 -1.0
outer loop
vertex 15.7735026918962 -8.45989944764369e-015 3.52495810318487e-015
vertex 15.7735026918963 50.0 4.22994972382185e-015
vertex 20.0 7.32050807568881 3.52495810318487e-015
endloop
endfacet
facet normal -4.41583438249161e-018 -3.33474494739124e-017 -1.0
outer loop
vertex 20.0 7.32050807568881 3.52495810318487e-015
vertex 15.7735026918963 50.0 4.22994972382185e-015
vertex 20.0 25.5773502691897 7.04991620636974e-016
endloop
endfacet
facet normal -4.41583438249161e-018 -3.33474494739124e-017 -1.0
outer loop
vertex 20.0 25.5773502691897 7.04991620636974e-016
vertex 15.7735026918963 50.0 4.22994972382185e-015
vertex 20.0000000000001 42.6794919243113 1.40998324127395e-015
endloop
endfacet
facet normal -4.41583438249161e-018 -3.33474494739124e-017 -1.0
outer loop
vertex 20.0 25.5773502691897 7.04991620636974e-016
vertex 20.0 24.4226497308104 7.04991620636974e-016
vertex 20.0 7.32050807568881 3.52495810318487e-015
endloop
endfacet
facet normal -4.41583438249161e-018 -3.33474494739124e-017 -1.0
outer loop
vertex 20.0 24.4226497308104 7.04991620636974e-016
vertex 20.0 25.5773502691897 7.04991620636974e-016
vertex 21.0 25.0000000000001 7.04991620636974e-016
endloop
endfacet
facet normal 0.0 -1.0 0.0
outer loop
vertex 9.99999999999998 16.5941511030469 20.0
vertex 4.72835276590078e-017 16.5941511030469 6.0
vertex 9.99999999999998 16.5941511030469 6.0
endloop
endfacet
facet normal 0.0 -1.0 0.0
outer loop
vertex 4.72835276590078e-017 16.5941511030469 6.0
vertex 9.99999999999998 16.5941511030469 20.0
vertex 0.0 16.5941511030469 20.0
endloop
endfacet
facet normal 0.309016994374946 -0.951056516295154 0.0
outer loop
vertex 14.940834014628 18.1995253902171 20.0
vertex 9.99999999999998 16.5941511030469 6.0
vertex 14.940834014628 18.1995253902171 6.0
endloop
endfacet
facet normal 0.309016994374946 -0.951056516295154 0.0
outer loop
vertex 9.99999999999998 16.5941511030469 6.0
vertex 14.940834014628 18.1995253902171 20.0
vertex 9.99999999999998 16.5941511030469 20.0
endloop
endfacet
facet normal 0.809016994374948 -0.587785252292473 -0.0
outer loop
vertex 17.9944373684396 22.4024498386936 6.0
vertex 14.940834014628 18.1995253902171 20.0
vertex 14.940834014628 18.1995253902171 6.0
endloop
endfacet
facet normal 0.809016994374948 -0.587785252292473 -0.0
outer loop
vertex 14.940834014628 18.1995253902171 20.0
vertex 17.9944373684396 22.4024498386936 6.0
vertex 17.9944373684396 22.4024498386936 20.0
endloop
endfacet
facet normal 1.0 -0.0 -0.0
outer loop
vertex 17.9944373684396 27.5975501613064 6.0
vertex 17.9944373684396 22.4024498386936 20.0
vertex 17.9944373684396 22.4024498386936 6.0
endloop
endfacet
facet normal 1.0 -0.0 -0.0
outer loop
vertex 17.9944373684396 22.4024498386936 20.0
vertex 17.9944373684396 27.5975501613064 6.0
vertex 17.9944373684396 27.5975501613064 20.0
endloop
endfacet
facet normal 0.809016994374947 0.587785252292474 -0.0
outer loop
vertex 14.940834014628 31.8004746097829 6.0
vertex 17.9944373684396 27.5975501613064 20.0
vertex 17.9944373684396 27.5975501613064 6.0
endloop
endfacet
facet normal 0.809016994374947 0.587785252292474 -0.0
outer loop
vertex 17.9944373684396 27.5975501613064 20.0
vertex 14.940834014628 31.8004746097829 6.0
vertex 14.940834014628 31.8004746097829 20.0
endloop
endfacet
facet normal 0.309016994374946 0.951056516295154 -0.0
outer loop
vertex 9.99999999999998 33.4058488969531 20.0
vertex 14.940834014628 31.8004746097829 6.0
vertex 9.99999999999998 33.4058488969531 6.0
endloop
endfacet
facet normal 0.309016994374946 0.951056516295154 -0.0
outer loop
vertex 14.940834014628 31.8004746097829 6.0
vertex 9.99999999999998 33.4058488969531 20.0
vertex 14.940834014628 31.8004746097829 20.0
endloop
endfacet
facet normal -0.0 1.0 -0.0
outer loop
vertex 4.72835276590078e-017 33.4058488969531 6.0
vertex 9.99999999999998 33.4058488969531 20.0
vertex 9.99999999999998 33.4058488969531 6.0
endloop
endfacet
facet normal -0.0 1.0 -0.0
outer loop
vertex 9.99999999999998 33.4058488969531 20.0
vertex 4.72835276590078e-017 33.4058488969531 6.0
vertex 0.0 33.4058488969531 20.0
endloop
endfacet
endsolid Rod Holder - Y and Zbottom
