solid y idler
facet normal 0.382683432365089 -1.04214936904576e-012 0.923879532511287
outer loop
vertex 10.0 -1.33107191935267e-011 11.8
vertex 8.4443650813896 5.99999999998596 12.4443650813964
vertex 8.4443650813896 -1.40375722510676e-011 12.4443650813896
endloop
endfacet
facet normal 0.382683432365089 -1.04214936904576e-012 0.923879532511287
outer loop
vertex 8.4443650813896 5.99999999998596 12.4443650813964
vertex 10.0 -1.33107191935267e-011 11.8
vertex 10.0 5.99999999998669 11.8000000000068
endloop
endfacet
facet normal 0.923879532511287 -4.31672402677319e-013 0.38268343236509
outer loop
vertex 8.4443650813896 -1.40375722510676e-011 12.4443650813896
vertex 7.8 5.99999999998421 14.0000000000068
vertex 7.8 -1.57923507604352e-011 14.0
endloop
endfacet
facet normal 0.923879532511287 -4.31672402677319e-013 0.38268343236509
outer loop
vertex 7.8 5.99999999998421 14.0000000000068
vertex 8.4443650813896 -1.40375722510676e-011 12.4443650813896
vertex 8.4443650813896 5.99999999998596 12.4443650813964
endloop
endfacet
facet normal -0.38268343236509 1.04214936904576e-012 -0.923879532511287
outer loop
vertex 11.5556349186104 5.99999999998245 15.5556349186172
vertex 10.0 -1.82739823273437e-011 16.2
vertex 10.0 5.99999999998173 16.2000000000068
endloop
endfacet
facet normal -0.38268343236509 1.04214936904576e-012 -0.923879532511287
outer loop
vertex 10.0 -1.82739823273437e-011 16.2
vertex 11.5556349186104 5.99999999998245 15.5556349186172
vertex 11.5556349186104 -1.75471292698028e-011 15.5556349186104
endloop
endfacet
facet normal -0.923879532511287 -4.3167240267732e-013 0.38268343236509
outer loop
vertex 12.2 5.99999999998421 14.0000000000068
vertex 11.5556349186104 -1.40375722510676e-011 12.4443650813896
vertex 12.2 -1.57923507604352e-011 14.0
endloop
endfacet
facet normal -0.923879532511287 -4.3167240267732e-013 0.38268343236509
outer loop
vertex 11.5556349186104 -1.40375722510676e-011 12.4443650813896
vertex 12.2 5.99999999998421 14.0000000000068
vertex 11.5556349186104 5.99999999998596 12.4443650813964
endloop
endfacet
facet normal 9.39988827516114e-017 1.0 1.12793623647483e-012
outer loop
vertex 2.5 5.99999999999323 6.00000000000677
vertex 8.4443650813896 5.99999999998596 12.4443650813964
vertex 17.5 5.99999999999323 6.00000000000677
endloop
endfacet
facet normal 9.39988827516114e-017 1.0 1.12793623647483e-012
outer loop
vertex 8.4443650813896 5.99999999998596 12.4443650813964
vertex 2.5 5.99999999999323 6.00000000000677
vertex 2.5 5.99999999997744 20.0000000000068
endloop
endfacet
facet normal 9.39988827516114e-017 1.0 1.12793623647483e-012
outer loop
vertex 17.5 5.99999999999323 6.00000000000677
vertex 8.4443650813896 5.99999999998596 12.4443650813964
vertex 10.0 5.99999999998669 11.8000000000068
endloop
endfacet
facet normal 9.39988827516114e-017 1.0 1.12793623647483e-012
outer loop
vertex 8.4443650813896 5.99999999998596 12.4443650813964
vertex 2.5 5.99999999997744 20.0000000000068
vertex 7.8 5.99999999998421 14.0000000000068
endloop
endfacet
facet normal 9.39988827516114e-017 1.0 1.12793623647483e-012
outer loop
vertex 7.8 5.99999999998421 14.0000000000068
vertex 2.5 5.99999999997744 20.0000000000068
vertex 8.4443650813896 5.99999999998245 15.5556349186172
endloop
endfacet
facet normal 9.39988827516114e-017 1.0 1.12793623647483e-012
outer loop
vertex 8.4443650813896 5.99999999998245 15.5556349186172
vertex 2.5 5.99999999997744 20.0000000000068
vertex 10.0 5.99999999998173 16.2000000000068
endloop
endfacet
facet normal 9.39988827516114e-017 1.0 1.12793623647483e-012
outer loop
vertex 17.5 5.99999999999323 6.00000000000677
vertex 11.5556349186104 5.99999999998596 12.4443650813964
vertex 17.5 5.99999999997744 20.0000000000068
endloop
endfacet
facet normal 9.39988827516114e-017 1.0 1.12793623647483e-012
outer loop
vertex 11.5556349186104 5.99999999998596 12.4443650813964
vertex 17.5 5.99999999999323 6.00000000000677
vertex 10.0 5.99999999998669 11.8000000000068
endloop
endfacet
facet normal 9.39988827516114e-017 1.0 1.12793623647483e-012
outer loop
vertex 17.5 5.99999999997744 20.0000000000068
vertex 11.5556349186104 5.99999999998596 12.4443650813964
vertex 12.2 5.99999999998421 14.0000000000068
endloop
endfacet
facet normal 9.39988827516114e-017 1.0 1.12793623647483e-012
outer loop
vertex 17.5 5.99999999997744 20.0000000000068
vertex 12.2 5.99999999998421 14.0000000000068
vertex 11.5556349186104 5.99999999998245 15.5556349186172
endloop
endfacet
facet normal 9.39988827516114e-017 1.0 1.12793623647483e-012
outer loop
vertex 17.5 5.99999999997744 20.0000000000068
vertex 11.5556349186104 5.99999999998245 15.5556349186172
vertex 10.0 5.99999999998173 16.2000000000068
endloop
endfacet
facet normal 9.39988827516114e-017 1.0 1.12793623647483e-012
outer loop
vertex 17.5 5.99999999997744 20.0000000000068
vertex 10.0 5.99999999998173 16.2000000000068
vertex 2.5 5.99999999997744 20.0000000000068
endloop
endfacet
facet normal -0.923879532511287 4.3167240267732e-013 -0.382683432365091
outer loop
vertex 11.5556349186104 5.99999999998245 15.5556349186172
vertex 12.2 -1.57923507604352e-011 14.0
vertex 11.5556349186104 -1.75471292698028e-011 15.5556349186104
endloop
endfacet
facet normal -0.923879532511287 4.3167240267732e-013 -0.382683432365091
outer loop
vertex 12.2 -1.57923507604352e-011 14.0
vertex 11.5556349186104 5.99999999998245 15.5556349186172
vertex 12.2 5.99999999998421 14.0000000000068
endloop
endfacet
facet normal -0.382683432365089 -1.04214936904576e-012 0.923879532511287
outer loop
vertex 11.5556349186104 -1.40375722510676e-011 12.4443650813896
vertex 10.0 5.99999999998669 11.8000000000068
vertex 10.0 -1.33107191935267e-011 11.8
endloop
endfacet
facet normal -0.382683432365089 -1.04214936904576e-012 0.923879532511287
outer loop
vertex 10.0 5.99999999998669 11.8000000000068
vertex 11.5556349186104 -1.40375722510676e-011 12.4443650813896
vertex 11.5556349186104 5.99999999998596 12.4443650813964
endloop
endfacet
facet normal 0.923879532511287 4.3167240267732e-013 -0.38268343236509
outer loop
vertex 7.8 -1.57923507604352e-011 14.0
vertex 8.4443650813896 5.99999999998245 15.5556349186172
vertex 8.4443650813896 -1.75471292698028e-011 15.5556349186104
endloop
endfacet
facet normal 0.923879532511287 4.3167240267732e-013 -0.38268343236509
outer loop
vertex 8.4443650813896 5.99999999998245 15.5556349186172
vertex 7.8 -1.57923507604352e-011 14.0
vertex 7.8 5.99999999998421 14.0000000000068
endloop
endfacet
facet normal 6.08943227294742e-017 1.12812324233162e-012 -1.0
outer loop
vertex 10.0 28.0 3.15892645375015e-011
vertex 12.8 21.0 2.37243780176755e-011
vertex 12.75 -1.49880108322773e-016 2.974504830524e-015
endloop
endfacet
facet normal 6.08943227294742e-017 1.12812324233162e-012 -1.0
outer loop
vertex 12.8 21.0 2.37243780176755e-011
vertex 10.0 28.0 3.15892645375015e-011
vertex 13.4443650813896 22.5556349186104 2.54783971698203e-011
endloop
endfacet
facet normal 6.08943227294742e-017 1.12812324233162e-012 -1.0
outer loop
vertex 13.4443650813896 22.5556349186104 2.54783971698203e-011
vertex 10.0 28.0 3.15892645375015e-011
vertex 20.0 28.0 3.15920845039841e-011
endloop
endfacet
facet normal 6.08943227294742e-017 1.12812324233162e-012 -1.0
outer loop
vertex 13.4443650813896 22.5556349186104 2.54783971698203e-011
vertex 20.0 28.0 3.15920845039841e-011
vertex 15.0 23.2 2.62059485223176e-011
endloop
endfacet
facet normal 6.08943227294742e-017 1.12812324233162e-012 -1.0
outer loop
vertex 15.0 23.2 2.62059485223176e-011
vertex 20.0 28.0 3.15920845039841e-011
vertex 16.5556349186104 22.5556349186104 2.54783971698203e-011
endloop
endfacet
facet normal 6.08943227294742e-017 1.12812324233162e-012 -1.0
outer loop
vertex 16.5556349186104 22.5556349186104 2.54783971698203e-011
vertex 20.0 28.0 3.15920845039841e-011
vertex 17.2 21.0 2.37243780176755e-011
endloop
endfacet
facet normal 6.08943227294742e-017 1.12812324233162e-012 -1.0
outer loop
vertex 25.0 23.0 2.59521515388883e-011
vertex 20.0 6.0 6.77355949108005e-012
vertex 20.0 28.0 3.15920845039841e-011
endloop
endfacet
facet normal 6.08943227294742e-017 1.12812324233162e-012 -1.0
outer loop
vertex 12.8 21.0 2.37243780176755e-011
vertex 20.0 -1.49880108322599e-016 2.8199664825479e-015
vertex 12.75 -1.49880108322773e-016 2.974504830524e-015
endloop
endfacet
facet normal 6.08943227294742e-017 1.12812324233162e-012 -1.0
outer loop
vertex 20.0 -1.49880108322599e-016 2.8199664825479e-015
vertex 12.8 21.0 2.37243780176755e-011
vertex 13.4443650813896 19.4443650813896 2.19703588655307e-011
endloop
endfacet
facet normal 6.08943227294742e-017 1.12812324233162e-012 -1.0
outer loop
vertex 20.0 -1.49880108322599e-016 2.8199664825479e-015
vertex 13.4443650813896 19.4443650813896 2.19703588655307e-011
vertex 15.0 18.8 2.12428075130333e-011
endloop
endfacet
facet normal 6.08943227294742e-017 1.12812324233162e-012 -1.0
outer loop
vertex 20.0 -1.49880108322599e-016 2.8199664825479e-015
vertex 15.0 18.8 2.12428075130333e-011
vertex 16.5556349186104 19.4443650813896 2.19703588655307e-011
endloop
endfacet
facet normal 6.08943227294742e-017 1.12812324233162e-012 -1.0
outer loop
vertex 20.0 -1.49880108322599e-016 2.8199664825479e-015
vertex 16.5556349186104 19.4443650813896 2.19703588655307e-011
vertex 17.2 21.0 2.37243780176755e-011
endloop
endfacet
facet normal 6.08943227294742e-017 1.12812324233162e-012 -1.0
outer loop
vertex 20.0 -1.49880108322599e-016 2.8199664825479e-015
vertex 17.2 21.0 2.37243780176755e-011
vertex 20.0 28.0 3.15920845039841e-011
endloop
endfacet
facet normal 6.08943227294742e-017 1.12812324233162e-012 -1.0
outer loop
vertex 20.0 -1.49880108322599e-016 2.8199664825479e-015
vertex 20.0 28.0 3.15920845039841e-011
vertex 20.0 6.0 6.77355949108005e-012
endloop
endfacet
facet normal 6.08943227294742e-017 1.12812324233162e-012 -1.0
outer loop
vertex 5.0 23.0 2.59493315724058e-011
vertex 0.0 -1.49880108322599e-016 2.8199664825479e-015
vertex 0.0 6.0 6.77355949108005e-012
endloop
endfacet
facet normal 6.08943227294742e-017 1.12812324233162e-012 -1.0
outer loop
vertex 0.0 -1.49880108322599e-016 2.8199664825479e-015
vertex 5.0 23.0 2.59493315724058e-011
vertex 7.25 -1.49880108322857e-016 2.65235171889242e-015
endloop
endfacet
facet normal 6.08943227294742e-017 1.12812324233162e-012 -1.0
outer loop
vertex 7.25 -1.49880108322857e-016 2.65235171889242e-015
vertex 5.0 23.0 2.59493315724058e-011
vertex 10.0 28.0 3.15892645375015e-011
endloop
endfacet
facet normal 6.08943227294742e-017 1.12812324233162e-012 -1.0
outer loop
vertex 7.25 -1.49880108322857e-016 2.65235171889242e-015
vertex 10.0 28.0 3.15892645375015e-011
vertex 7.25 -2.0 2.65235171889242e-015
endloop
endfacet
facet normal 6.08943227294742e-017 1.12812324233162e-012 -1.0
outer loop
vertex 7.25 -2.0 2.65235171889242e-015
vertex 10.0 28.0 3.15892645375015e-011
vertex 12.75 -2.0 2.974504830524e-015
endloop
endfacet
facet normal 6.08943227294742e-017 1.12812324233162e-012 -1.0
outer loop
vertex 12.75 -2.0 2.974504830524e-015
vertex 10.0 28.0 3.15892645375015e-011
vertex 12.75 -1.49880108322773e-016 2.974504830524e-015
endloop
endfacet
facet normal 1.28709443776669e-029 -1.12798659301916e-012 1.0
outer loop
vertex 20.0 -2.25604368520038e-011 20.0
vertex 0.0 5.99999999997744 20.0000000000068
vertex 0.0 -2.25604368520038e-011 20.0
endloop
endfacet
facet normal 1.28709443776669e-029 -1.12798659301916e-012 1.0
outer loop
vertex 0.0 5.99999999997744 20.0000000000068
vertex 20.0 -2.25604368520038e-011 20.0
vertex 2.5 5.99999999997744 20.0000000000068
endloop
endfacet
facet normal 1.28709443776669e-029 -1.12798659301916e-012 1.0
outer loop
vertex 2.5 5.99999999997744 20.0000000000068
vertex 20.0 -2.25604368520038e-011 20.0
vertex 17.5 5.99999999997744 20.0000000000068
endloop
endfacet
facet normal 1.28709443776669e-029 -1.12798659301916e-012 1.0
outer loop
vertex 17.5 5.99999999997744 20.0000000000068
vertex 20.0 -2.25604368520038e-011 20.0
vertex 20.0 5.99999999997744 20.0000000000068
endloop
endfacet
facet normal 0.38268343236509 1.04214936904576e-012 -0.923879532511287
outer loop
vertex 10.0 5.99999999998173 16.2000000000068
vertex 8.4443650813896 -1.75471292698028e-011 15.5556349186104
vertex 8.4443650813896 5.99999999998245 15.5556349186172
endloop
endfacet
facet normal 0.38268343236509 1.04214936904576e-012 -0.923879532511287
outer loop
vertex 8.4443650813896 -1.75471292698028e-011 15.5556349186104
vertex 10.0 5.99999999998173 16.2000000000068
vertex 10.0 -1.82739823273437e-011 16.2
endloop
endfacet
facet normal 0.0 1.0 1.12801434859477e-012
outer loop
vertex 10.0 27.9999999999932 6.00000000003159
vertex 20.0 28.0 3.15920845039841e-011
vertex 10.0 28.0 3.15892645375015e-011
endloop
endfacet
facet normal 0.0 1.0 1.12801434859477e-012
outer loop
vertex 20.0 28.0 3.15920845039841e-011
vertex 10.0 27.9999999999932 6.00000000003159
vertex 20.0 27.9999999999932 6.00000000003159
endloop
endfacet
facet normal 0.707106781186548 0.707106781186548 7.97626595167091e-013
outer loop
vertex 25.0 23.0 2.59521515388883e-011
vertex 20.0 27.9999999999932 6.00000000003159
vertex 25.0 22.9999999999932 6.00000000002595
endloop
endfacet
facet normal 0.707106781186548 0.707106781186548 7.97626595167091e-013
outer loop
vertex 20.0 27.9999999999932 6.00000000003159
vertex 25.0 23.0 2.59521515388883e-011
vertex 20.0 28.0 3.15920845039841e-011
endloop
endfacet
facet normal -0.707106781186548 0.707106781186547 7.97626595167091e-013
outer loop
vertex 10.0 27.9999999999932 6.00000000003159
vertex 5.0 23.0 2.59493315724058e-011
vertex 5.0 22.9999999999932 6.00000000002595
endloop
endfacet
facet normal -0.707106781186548 0.707106781186547 7.97626595167091e-013
outer loop
vertex 5.0 23.0 2.59493315724058e-011
vertex 10.0 27.9999999999932 6.00000000003159
vertex 10.0 28.0 3.15892645375015e-011
endloop
endfacet
facet normal 1.0 0.0 0.0
outer loop
vertex 20.0 -1.49880108322599e-016 2.8199664825479e-015
vertex 20.0 5.99999999997744 20.0000000000068
vertex 20.0 -2.25604368520038e-011 20.0
endloop
endfacet
facet normal 1.0 0.0 0.0
outer loop
vertex 20.0 5.99999999997744 20.0000000000068
vertex 20.0 -1.49880108322599e-016 2.8199664825479e-015
vertex 20.0 6.0 6.77355949108005e-012
endloop
endfacet
facet normal -0.923879532511287 0.382683432365091 4.3167240267732e-013
outer loop
vertex 17.2 20.9999999999932 6.00000000002369
vertex 16.5556349186104 19.4443650813896 2.19703588655307e-011
vertex 16.5556349186104 19.4443650813828 6.00000000002194
endloop
endfacet
facet normal -0.923879532511287 0.382683432365091 4.3167240267732e-013
outer loop
vertex 16.5556349186104 19.4443650813896 2.19703588655307e-011
vertex 17.2 20.9999999999932 6.00000000002369
vertex 17.2 21.0 2.37243780176755e-011
endloop
endfacet
facet normal -0.923879532511287 -0.38268343236509 -4.3167240267732e-013
outer loop
vertex 16.5556349186104 22.5556349186036 6.00000000002544
vertex 17.2 21.0 2.37243780176755e-011
vertex 17.2 20.9999999999932 6.00000000002369
endloop
endfacet
facet normal -0.923879532511287 -0.38268343236509 -4.3167240267732e-013
outer loop
vertex 17.2 21.0 2.37243780176755e-011
vertex 16.5556349186104 22.5556349186036 6.00000000002544
vertex 16.5556349186104 22.5556349186104 2.54783971698203e-011
endloop
endfacet
facet normal -0.382683432365089 -0.923879532511287 -1.04214936904576e-012
outer loop
vertex 16.5556349186104 22.5556349186036 6.00000000002544
vertex 15.0 23.2 2.62059485223176e-011
vertex 16.5556349186104 22.5556349186104 2.54783971698203e-011
endloop
endfacet
facet normal -0.382683432365089 -0.923879532511287 -1.04214936904576e-012
outer loop
vertex 15.0 23.2 2.62059485223176e-011
vertex 16.5556349186104 22.5556349186036 6.00000000002544
vertex 15.0 23.1999999999932 6.00000000002617
endloop
endfacet
facet normal 0.38268343236509 -0.923879532511287 -1.04214936904576e-012
outer loop
vertex 15.0 23.2 2.62059485223176e-011
vertex 13.4443650813896 22.5556349186036 6.00000000002544
vertex 13.4443650813896 22.5556349186104 2.54783971698203e-011
endloop
endfacet
facet normal 0.38268343236509 -0.923879532511287 -1.04214936904576e-012
outer loop
vertex 13.4443650813896 22.5556349186036 6.00000000002544
vertex 15.0 23.2 2.62059485223176e-011
vertex 15.0 23.1999999999932 6.00000000002617
endloop
endfacet
facet normal 0.923879532511287 -0.382683432365089 -4.31672402677319e-013
outer loop
vertex 12.8 21.0 2.37243780176755e-011
vertex 13.4443650813896 22.5556349186036 6.00000000002544
vertex 12.8 20.9999999999932 6.00000000002369
endloop
endfacet
facet normal 0.923879532511287 -0.382683432365089 -4.31672402677319e-013
outer loop
vertex 13.4443650813896 22.5556349186036 6.00000000002544
vertex 12.8 21.0 2.37243780176755e-011
vertex 13.4443650813896 22.5556349186104 2.54783971698203e-011
endloop
endfacet
facet normal 0.923879532511287 0.382683432365089 4.31672402677319e-013
outer loop
vertex 13.4443650813896 19.4443650813896 2.19703588655307e-011
vertex 12.8 20.9999999999932 6.00000000002369
vertex 13.4443650813896 19.4443650813828 6.00000000002194
endloop
endfacet
facet normal 0.923879532511287 0.382683432365089 4.31672402677319e-013
outer loop
vertex 12.8 20.9999999999932 6.00000000002369
vertex 13.4443650813896 19.4443650813896 2.19703588655307e-011
vertex 12.8 21.0 2.37243780176755e-011
endloop
endfacet
facet normal 0.38268343236509 0.923879532511287 1.04214936904576e-012
outer loop
vertex 13.4443650813896 19.4443650813896 2.19703588655307e-011
vertex 15.0 18.7999999999932 6.00000000002121
vertex 15.0 18.8 2.12428075130333e-011
endloop
endfacet
facet normal 0.38268343236509 0.923879532511287 1.04214936904576e-012
outer loop
vertex 15.0 18.7999999999932 6.00000000002121
vertex 13.4443650813896 19.4443650813896 2.19703588655307e-011
vertex 13.4443650813896 19.4443650813828 6.00000000002194
endloop
endfacet
facet normal -0.382683432365091 0.923879532511287 1.04214936904576e-012
outer loop
vertex 15.0 18.7999999999932 6.00000000002121
vertex 16.5556349186104 19.4443650813896 2.19703588655307e-011
vertex 15.0 18.8 2.12428075130333e-011
endloop
endfacet
facet normal -0.382683432365091 0.923879532511287 1.04214936904576e-012
outer loop
vertex 16.5556349186104 19.4443650813896 2.19703588655307e-011
vertex 15.0 18.7999999999932 6.00000000002121
vertex 16.5556349186104 19.4443650813828 6.00000000002194
endloop
endfacet
facet normal -1.0 0.0 0.0
outer loop
vertex 0.0 5.99999999997744 20.0000000000068
vertex 0.0 -1.49880108322599e-016 2.8199664825479e-015
vertex 0.0 -2.25604368520038e-011 20.0
endloop
endfacet
facet normal -1.0 0.0 0.0
outer loop
vertex 0.0 -1.49880108322599e-016 2.8199664825479e-015
vertex 0.0 5.99999999997744 20.0000000000068
vertex 0.0 6.0 6.77355949108005e-012
endloop
endfacet
facet normal -0.959365501571271 0.28216632399155 3.18262920504695e-013
outer loop
vertex 22.5 22.9999999999932 6.00000000002595
vertex 17.5 5.99999999999323 6.00000000000677
vertex 17.5 5.99999999997744 20.0000000000068
endloop
endfacet
facet normal -0.0 0.635707252860229 0.771930235617767
outer loop
vertex 20.0 5.99999999997744 20.0000000000068
vertex 22.5 22.9999999999932 6.00000000002595
vertex 17.5 5.99999999997744 20.0000000000068
endloop
endfacet
facet normal -0.0 0.635707252860229 0.771930235617767
outer loop
vertex 22.5 22.9999999999932 6.00000000002595
vertex 20.0 5.99999999997744 20.0000000000068
vertex 25.0 22.9999999999932 6.00000000002595
endloop
endfacet
facet normal 0.959365501571271 -0.28216632399155 -3.1828766215271e-013
outer loop
vertex 20.0 6.0 6.77355949108005e-012
vertex 25.0 22.9999999999932 6.00000000002595
vertex 20.0 5.99999999997744 20.0000000000068
endloop
endfacet
facet normal 0.959365501571271 -0.28216632399155 -3.1828766215271e-013
outer loop
vertex 25.0 22.9999999999932 6.00000000002595
vertex 20.0 6.0 6.77355949108005e-012
vertex 25.0 23.0 2.59521515388883e-011
endloop
endfacet
facet normal 0.959365501571271 -0.28216632399155 -3.18262920504695e-013
outer loop
vertex 7.49999999999999 22.9999999999932 6.00000000002595
vertex 2.5 5.99999999997744 20.0000000000068
vertex 2.5 5.99999999999323 6.00000000000677
endloop
endfacet
facet normal -0.0 0.635707252860229 0.771930235617766
outer loop
vertex 2.5 5.99999999997744 20.0000000000068
vertex 5.0 22.9999999999932 6.00000000002595
vertex 0.0 5.99999999997744 20.0000000000068
endloop
endfacet
facet normal -0.0 0.635707252860229 0.771930235617766
outer loop
vertex 5.0 22.9999999999932 6.00000000002595
vertex 2.5 5.99999999997744 20.0000000000068
vertex 7.49999999999999 22.9999999999932 6.00000000002595
endloop
endfacet
facet normal -0.959365501571271 0.28216632399155 3.18270191977302e-013
outer loop
vertex 5.0 22.9999999999932 6.00000000002595
vertex 0.0 6.0 6.77355949108005e-012
vertex 0.0 5.99999999997744 20.0000000000068
endloop
endfacet
facet normal -0.959365501571271 0.28216632399155 3.18270191977302e-013
outer loop
vertex 0.0 6.0 6.77355949108005e-012
vertex 5.0 22.9999999999932 6.00000000002595
vertex 5.0 23.0 2.59493315724058e-011
endloop
endfacet
facet normal 7.91947116922401e-029 -1.12798659301916e-012 1.0
outer loop
vertex 17.5 5.99999999999323 6.00000000000677
vertex 7.49999999999999 22.9999999999932 6.00000000002595
vertex 2.5 5.99999999999323 6.00000000000677
endloop
endfacet
facet normal 7.91947116922401e-029 -1.12798659301916e-012 1.0
outer loop
vertex 7.49999999999999 22.9999999999932 6.00000000002595
vertex 17.5 5.99999999999323 6.00000000000677
vertex 10.0 27.9999999999932 6.00000000003159
endloop
endfacet
facet normal 7.91947116922401e-029 -1.12798659301916e-012 1.0
outer loop
vertex 10.0 27.9999999999932 6.00000000003159
vertex 17.5 5.99999999999323 6.00000000000677
vertex 12.8 20.9999999999932 6.00000000002369
endloop
endfacet
facet normal 7.91947116922401e-029 -1.12798659301916e-012 1.0
outer loop
vertex 12.8 20.9999999999932 6.00000000002369
vertex 17.5 5.99999999999323 6.00000000000677
vertex 13.4443650813896 19.4443650813828 6.00000000002194
endloop
endfacet
facet normal 7.91947116922401e-029 -1.12798659301916e-012 1.0
outer loop
vertex 13.4443650813896 19.4443650813828 6.00000000002194
vertex 17.5 5.99999999999323 6.00000000000677
vertex 15.0 18.7999999999932 6.00000000002121
endloop
endfacet
facet normal 7.91947116922401e-029 -1.12798659301916e-012 1.0
outer loop
vertex 15.0 18.7999999999932 6.00000000002121
vertex 17.5 5.99999999999323 6.00000000000677
vertex 16.5556349186104 19.4443650813828 6.00000000002194
endloop
endfacet
facet normal 7.91947116922401e-029 -1.12798659301916e-012 1.0
outer loop
vertex 16.5556349186104 19.4443650813828 6.00000000002194
vertex 17.5 5.99999999999323 6.00000000000677
vertex 17.2 20.9999999999932 6.00000000002369
endloop
endfacet
facet normal 7.91947116922401e-029 -1.12798659301916e-012 1.0
outer loop
vertex 10.0 27.9999999999932 6.00000000003159
vertex 13.4443650813896 22.5556349186036 6.00000000002544
vertex 20.0 27.9999999999932 6.00000000003159
endloop
endfacet
facet normal 7.91947116922401e-029 -1.12798659301916e-012 1.0
outer loop
vertex 13.4443650813896 22.5556349186036 6.00000000002544
vertex 10.0 27.9999999999932 6.00000000003159
vertex 12.8 20.9999999999932 6.00000000002369
endloop
endfacet
facet normal 7.91947116922401e-029 -1.12798659301916e-012 1.0
outer loop
vertex 20.0 27.9999999999932 6.00000000003159
vertex 13.4443650813896 22.5556349186036 6.00000000002544
vertex 15.0 23.1999999999932 6.00000000002617
endloop
endfacet
facet normal 7.91947116922401e-029 -1.12798659301916e-012 1.0
outer loop
vertex 20.0 27.9999999999932 6.00000000003159
vertex 15.0 23.1999999999932 6.00000000002617
vertex 16.5556349186104 22.5556349186036 6.00000000002544
endloop
endfacet
facet normal 7.91947116922401e-029 -1.12798659301916e-012 1.0
outer loop
vertex 20.0 27.9999999999932 6.00000000003159
vertex 16.5556349186104 22.5556349186036 6.00000000002544
vertex 17.2 20.9999999999932 6.00000000002369
endloop
endfacet
facet normal 7.91947116922401e-029 -1.12798659301916e-012 1.0
outer loop
vertex 20.0 27.9999999999932 6.00000000003159
vertex 17.2 20.9999999999932 6.00000000002369
vertex 17.5 5.99999999999323 6.00000000000677
endloop
endfacet
facet normal 7.91947116922401e-029 -1.12798659301916e-012 1.0
outer loop
vertex 20.0 27.9999999999932 6.00000000003159
vertex 17.5 5.99999999999323 6.00000000000677
vertex 22.5 22.9999999999932 6.00000000002595
endloop
endfacet
facet normal 7.91947116922401e-029 -1.12798659301916e-012 1.0
outer loop
vertex 20.0 27.9999999999932 6.00000000003159
vertex 22.5 22.9999999999932 6.00000000002595
vertex 25.0 22.9999999999932 6.00000000002595
endloop
endfacet
facet normal 7.91947116922401e-029 -1.12798659301916e-012 1.0
outer loop
vertex 10.0 27.9999999999932 6.00000000003159
vertex 5.0 22.9999999999932 6.00000000002595
vertex 7.49999999999999 22.9999999999932 6.00000000002595
endloop
endfacet
facet normal 6.60519522691259e-029 -1.0 -1.02546758963161e-012
outer loop
vertex 20.0 -2.25604368520038e-011 20.0
vertex 12.75 -1.49880108322773e-016 2.974504830524e-015
vertex 20.0 -1.49880108322599e-016 2.8199664825479e-015
endloop
endfacet
facet normal 6.60519522691259e-029 -1.0 -1.02546758963161e-012
outer loop
vertex 12.75 -1.49880108322773e-016 2.974504830524e-015
vertex 20.0 -2.25604368520038e-011 20.0
vertex 12.75 -1.49880108322773e-016 11.5
endloop
endfacet
facet normal 6.60519522691259e-029 -1.0 -1.02546758963161e-012
outer loop
vertex 12.75 -1.49880108322773e-016 11.5
vertex 20.0 -2.25604368520038e-011 20.0
vertex 11.5556349186104 -1.40375722510676e-011 12.4443650813896
endloop
endfacet
facet normal 6.60519522691259e-029 -1.0 -1.02546758963161e-012
outer loop
vertex 12.75 -1.49880108322773e-016 11.5
vertex 11.5556349186104 -1.40375722510676e-011 12.4443650813896
vertex 10.0 -1.33107191935267e-011 11.8
endloop
endfacet
facet normal 6.60519522691259e-029 -1.0 -1.02546758963161e-012
outer loop
vertex 12.75 -1.49880108322773e-016 11.5
vertex 10.0 -1.33107191935267e-011 11.8
vertex 7.25 -1.49880108322857e-016 11.5
endloop
endfacet
facet normal 6.60519522691259e-029 -1.0 -1.02546758963161e-012
outer loop
vertex 11.5556349186104 -1.40375722510676e-011 12.4443650813896
vertex 20.0 -2.25604368520038e-011 20.0
vertex 12.2 -1.57923507604352e-011 14.0
endloop
endfacet
facet normal 6.60519522691259e-029 -1.0 -1.02546758963161e-012
outer loop
vertex 12.2 -1.57923507604352e-011 14.0
vertex 20.0 -2.25604368520038e-011 20.0
vertex 11.5556349186104 -1.75471292698028e-011 15.5556349186104
endloop
endfacet
facet normal 6.60519522691259e-029 -1.0 -1.02546758963161e-012
outer loop
vertex 11.5556349186104 -1.75471292698028e-011 15.5556349186104
vertex 20.0 -2.25604368520038e-011 20.0
vertex 10.0 -1.82739823273437e-011 16.2
endloop
endfacet
facet normal 6.60519522691259e-029 -1.0 -1.02546758963161e-012
outer loop
vertex 7.25 -1.49880108322857e-016 11.5
vertex 0.0 -1.49880108322599e-016 2.8199664825479e-015
vertex 7.25 -1.49880108322857e-016 2.65235171889242e-015
endloop
endfacet
facet normal 6.60519522691259e-029 -1.0 -1.02546758963161e-012
outer loop
vertex 0.0 -1.49880108322599e-016 2.8199664825479e-015
vertex 7.25 -1.49880108322857e-016 11.5
vertex 0.0 -2.25604368520038e-011 20.0
endloop
endfacet
facet normal 6.60519522691259e-029 -1.0 -1.02546758963161e-012
outer loop
vertex 0.0 -2.25604368520038e-011 20.0
vertex 7.25 -1.49880108322857e-016 11.5
vertex 8.4443650813896 -1.40375722510676e-011 12.4443650813896
endloop
endfacet
facet normal 6.60519522691259e-029 -1.0 -1.02546758963161e-012
outer loop
vertex 8.4443650813896 -1.40375722510676e-011 12.4443650813896
vertex 7.25 -1.49880108322857e-016 11.5
vertex 10.0 -1.33107191935267e-011 11.8
endloop
endfacet
facet normal 6.60519522691259e-029 -1.0 -1.02546758963161e-012
outer loop
vertex 0.0 -2.25604368520038e-011 20.0
vertex 8.4443650813896 -1.40375722510676e-011 12.4443650813896
vertex 7.8 -1.57923507604352e-011 14.0
endloop
endfacet
facet normal 6.60519522691259e-029 -1.0 -1.02546758963161e-012
outer loop
vertex 0.0 -2.25604368520038e-011 20.0
vertex 7.8 -1.57923507604352e-011 14.0
vertex 8.4443650813896 -1.75471292698028e-011 15.5556349186104
endloop
endfacet
facet normal 6.60519522691259e-029 -1.0 -1.02546758963161e-012
outer loop
vertex 0.0 -2.25604368520038e-011 20.0
vertex 8.4443650813896 -1.75471292698028e-011 15.5556349186104
vertex 10.0 -1.82739823273437e-011 16.2
endloop
endfacet
facet normal 6.60519522691259e-029 -1.0 -1.02546758963161e-012
outer loop
vertex 0.0 -2.25604368520038e-011 20.0
vertex 10.0 -1.82739823273437e-011 16.2
vertex 20.0 -2.25604368520038e-011 20.0
endloop
endfacet
facet normal 1.51701089588964e-029 -1.0 0.0
outer loop
vertex 12.75 -2.0 2.974504830524e-015
vertex 7.25 -2.0 11.5
vertex 7.25 -2.0 2.65235171889242e-015
endloop
endfacet
facet normal 1.51701089588964e-029 -1.0 0.0
outer loop
vertex 7.25 -2.0 11.5
vertex 12.75 -2.0 2.974504830524e-015
vertex 12.75 -2.0 11.5
endloop
endfacet
facet normal 1.0 1.51701089588964e-029 -0.0
outer loop
vertex 12.75 -1.49880108322773e-016 2.974504830524e-015
vertex 12.75 -2.0 11.5
vertex 12.75 -2.0 2.974504830524e-015
endloop
endfacet
facet normal 1.0 1.51701089588964e-029 -0.0
outer loop
vertex 12.75 -2.0 11.5
vertex 12.75 -1.49880108322773e-016 2.974504830524e-015
vertex 12.75 -1.49880108322773e-016 11.5
endloop
endfacet
facet normal 0.0 0.0 1.0
outer loop
vertex 12.75 -2.0 11.5
vertex 7.25 -1.49880108322857e-016 11.5
vertex 7.25 -2.0 11.5
endloop
endfacet
facet normal 0.0 0.0 1.0
outer loop
vertex 7.25 -1.49880108322857e-016 11.5
vertex 12.75 -2.0 11.5
vertex 12.75 -1.49880108322773e-016 11.5
endloop
endfacet
facet normal -1.0 -1.51701089588964e-029 -0.0
outer loop
vertex 7.25 -1.49880108322857e-016 11.5
vertex 7.25 -2.0 2.65235171889242e-015
vertex 7.25 -2.0 11.5
endloop
endfacet
facet normal -1.0 -1.51701089588964e-029 -0.0
outer loop
vertex 7.25 -2.0 2.65235171889242e-015
vertex 7.25 -1.49880108322857e-016 11.5
vertex 7.25 -1.49880108322857e-016 2.65235171889242e-015
endloop
endfacet
endsolid y idler
