solid Y Motor Bracket
facet normal -8.07549819208455e-009 -0.999999999999999 4.13393143189725e-008
outer loop
vertex 10.9999997857186 42.0000005792881 4.99999999999801
vertex 4.99999928651112 42.0000014545274 24.9999997394843
vertex 4.99999959299551 42.0000006277411 4.99999973948432
endloop
endfacet
facet normal -8.07549819208455e-009 -0.999999999999999 4.13393143189725e-008
outer loop
vertex 4.99999928651112 42.0000014545274 24.9999997394843
vertex 10.9999997857186 42.0000005792881 4.99999999999801
vertex 10.9999994792342 42.0000014060744 24.999999999998
endloop
endfacet
facet normal 9.41973051075162e-008 0.999999999999995 -2.99414067014147e-008
outer loop
vertex 36.0000007881147 47.0000012700469 19.9999995718603
vertex 47.0000001072283 46.9999997847555 4.99999991075464
vertex 36.0000006042217 47.0000008209258 4.99999923472459
endloop
endfacet
facet normal -0.195090322016146 -0.980785280403227 6.41520750592242e-014
outer loop
vertex 30.4008594721993 31.6246146238793 4.99999999999514
vertex 26.0 32.4999999999994 -4.29833391102363e-012
vertex 30.4008594721985 31.6246146238791 -4.85175233322366e-012
endloop
endfacet
facet normal -0.195090322016146 -0.980785280403227 6.41520750592242e-014
outer loop
vertex 26.0 32.4999999999994 -4.29833391102363e-012
vertex 30.4008594721993 31.6246146238793 4.99999999999514
vertex 26.0000000000007 32.4999999999996 4.99999999999569
endloop
endfacet
facet normal 1.0 9.69060116059473e-009 1.53242192853721e-008
outer loop
vertex 4.99999928651112 42.0000014545274 24.9999997394843
vertex 5.00000000000076 4.84532055367026e-008 5.00000007662108
vertex 4.99999959299551 42.0000006277411 4.99999973948432
endloop
endfacet
facet normal 0.831469612302514 -0.555570233019648 -1.02457070990561e-013
outer loop
vertex 17.8682720163547 29.1317279836449 -2.95884983181338e-012
vertex 15.3753853761209 25.4008594721987 4.99999999999762
vertex 15.3753853761202 25.4008594721985 -2.37370678668469e-012
endloop
endfacet
facet normal 0.831469612302514 -0.555570233019648 -1.02457070990561e-013
outer loop
vertex 15.3753853761209 25.4008594721987 4.99999999999762
vertex 17.8682720163547 29.1317279836449 -2.95884983181338e-012
vertex 17.8682720163554 29.131727983645 4.99999999999703
endloop
endfacet
facet normal -1.91131348212008e-008 -0.923879532511304 0.382683432365048
outer loop
vertex 10.9999986007246 54.2000003166983 9.99999972521419
vertex 5.99999864796801 53.5556353855133 8.44436491950438
vertex 10.9999985462408 53.5556352353088 8.44436480660378
endloop
endfacet
facet normal -1.91131348212008e-008 -0.923879532511304 0.382683432365048
outer loop
vertex 5.99999864796801 53.5556353855133 8.44436491950438
vertex 10.9999986007246 54.2000003166983 9.99999972521419
vertex 5.99999870245173 54.2000004669028 9.99999983811479
endloop
endfacet
facet normal -0.86602540378444 -0.499999999999997 1.45658748435236e-013
outer loop
vertex 12.3000000000008 5.50000000000019 4.99999999999904
vertex 11.4000000000001 7.05884572681201 -8.88994433623225e-013
vertex 12.3000000000001 5.50000000000001 -9.46803746515457e-013
endloop
endfacet
facet normal -0.86602540378444 -0.499999999999997 1.45658748435236e-013
outer loop
vertex 11.4000000000001 7.05884572681201 -8.88994433623225e-013
vertex 12.3000000000008 5.50000000000019 4.99999999999904
vertex 11.4000000000008 7.05884572681219 4.9999999999991
endloop
endfacet
facet normal -0.928476687426521 0.37139068500095 -2.36649453438065e-008
outer loop
vertex -5.16754819734899e-007 47.0000007446454 4.99999916117299
vertex 5.99999939918276 61.9999998107774 -9.21798560166165e-007
vertex -4.55458082493365e-007 47.0000005792881 -8.38827004301379e-007
endloop
endfacet
facet normal -0.928476687426521 0.37139068500095 -2.36649453438065e-008
outer loop
vertex 5.99999939918276 61.9999998107774 -9.21798560166165e-007
vertex -5.16754819734899e-007 47.0000007446454 4.99999916117299
vertex 5.99999933788603 61.9999999761347 4.99999907820143
endloop
endfacet
facet normal 0.768051342894178 -0.640388268692088 -9.02154647611806e-014
outer loop
vertex 47.0 29.1317279836449 -6.8165639799389e-012
vertex 45.3453576244962 27.1472283282853 4.99999999999348
vertex 45.3453576244955 27.1472283282851 -6.50989262496182e-012
endloop
endfacet
facet normal 0.768051342894178 -0.640388268692088 -9.02154647611806e-014
outer loop
vertex 45.3453576244962 27.1472283282853 4.99999999999348
vertex 47.0 29.1317279836449 -6.8165639799389e-012
vertex 47.0000000000007 29.131727983645 4.99999999999317
endloop
endfacet
facet normal -3.6395211420647e-008 -0.923879532511302 -0.382683432365052
outer loop
vertex 10.9999986164937 53.5556352353088 11.5556346438246
vertex 5.99999870245173 54.2000004669028 9.99999983811479
vertex 10.9999986007246 54.2000003166983 9.99999972521419
endloop
endfacet
facet normal -3.6395211420647e-008 -0.923879532511302 -0.382683432365052
outer loop
vertex 5.99999870245173 54.2000004669028 9.99999983811479
vertex 10.9999986164937 53.5556352353088 11.5556346438246
vertex 5.99999871822088 53.5556353855133 11.5556347567252
endloop
endfacet
facet normal -0.866025403784434 0.500000000000008 1.09679214610022e-013
outer loop
vertex 42.4000000000008 34.9411542731882 4.9999999999935
vertex 43.3 36.5 -6.68755051336234e-012
vertex 42.4 34.941154273188 -6.49367781768717e-012
endloop
endfacet
facet normal -0.866025403784434 0.500000000000008 1.09679214610022e-013
outer loop
vertex 43.3 36.5 -6.68755051336234e-012
vertex 42.4000000000008 34.9411542731882 4.9999999999935
vertex 43.3000000000008 36.5000000000002 4.9999999999933
endloop
endfacet
facet normal -3.23574667772162e-008 -0.382683432365088 -0.923879532511287
outer loop
vertex 5.99999871822088 53.5556353855133 11.5556347567252
vertex 10.9999985843109 52.0000003166984 12.1999997252142
vertex 5.99999868603812 52.0000004669029 12.1999998381148
endloop
endfacet
facet normal -3.23574667772162e-008 -0.382683432365088 -0.923879532511287
outer loop
vertex 10.9999985843109 52.0000003166984 12.1999997252142
vertex 5.99999871822088 53.5556353855133 11.5556347567252
vertex 10.9999986164937 53.5556352353088 11.5556346438246
endloop
endfacet
facet normal 5.05493978132693e-027 -1.0 3.60955709766132e-014
outer loop
vertex 42.4000000000008 38.0588457268121 4.99999999999336
vertex 40.6 38.058845726812 -6.37735420028207e-012
vertex 42.4 38.058845726812 -6.62903620884947e-012
endloop
endfacet
facet normal 5.05493978132693e-027 -1.0 3.60955709766132e-014
outer loop
vertex 40.6 38.058845726812 -6.37735420028207e-012
vertex 42.4000000000008 38.0588457268121 4.99999999999336
vertex 40.6000000000008 38.0588457268121 4.99999999999361
endloop
endfacet
facet normal 3.31575297959434e-008 4.094859036801e-008 0.999999999999999
outer loop
vertex 36.0000007396617 42.0000012700468 19.9999997364148
vertex 31.0000010750763 54.5000009051728 19.9999993863262
vertex 31.0000005469386 42.0000012119032 19.9999999999944
endloop
endfacet
facet normal 3.31575297959434e-008 4.094859036801e-008 0.999999999999999
outer loop
vertex 31.0000010750763 54.5000009051728 19.9999993863262
vertex 36.0000007396617 42.0000012700468 19.9999997364148
vertex 36.0000007881147 47.0000012700469 19.9999995718603
endloop
endfacet
facet normal 3.31575297959434e-008 4.094859036801e-008 0.999999999999999
outer loop
vertex 31.0000010750763 54.5000009051728 19.9999993863262
vertex 36.0000007881147 47.0000012700469 19.9999995718603
vertex 36.0000008607942 54.5000008567198 19.9999993250286
endloop
endfacet
facet normal 1.0 -3.72495376102099e-009 -1.5786198448144e-009
outer loop
vertex 47.0000000459306 46.9999996193982 -8.92453552558958e-008
vertex 47.0000000000007 29.131727983645 4.99999999999317
vertex 47.0 29.1317279836449 -6.8165639799389e-012
endloop
endfacet
facet normal 1.0 -3.72495376102099e-009 -1.5786198448144e-009
outer loop
vertex 47.0000000000007 29.131727983645 4.99999999999317
vertex 47.0000000459306 46.9999996193982 -8.92453552558958e-008
vertex 47.0000000000007 42.0000000000001 4.99999999999153
endloop
endfacet
facet normal 1.0 -3.72495376102099e-009 -1.5786198448144e-009
outer loop
vertex 47.0000000000007 42.0000000000001 4.99999999999153
vertex 47.0000000459306 46.9999996193982 -8.92453552558958e-008
vertex 47.0000001072283 46.9999997847555 4.99999991075464
endloop
endfacet
facet normal 7.04799373050966e-009 0.999999999999998 -5.65793382918524e-008
outer loop
vertex 22.0000001888467 42.0000000915861 1.32446156018229e-009
vertex 31.0000001566337 42.0000003110509 4.99999999999441
vertex 31.000000043733 42.0000000997477 -5.60468338406395e-012
endloop
endfacet
facet normal 7.04799373050966e-009 0.999999999999998 -5.65793382918524e-008
outer loop
vertex 31.0000001566337 42.0000003110509 4.99999999999441
vertex 22.0000001888467 42.0000000915861 1.32446156018229e-009
vertex 22.0000001162899 42.0000004460763 5.00000000132447
endloop
endfacet
facet normal -3.235747895899e-008 -0.382683432365081 -0.92387953251129
outer loop
vertex 31.0000006142509 53.5556359247945 11.5556346831635
vertex 36.0000008123423 52.0000008559793 12.1999996516525
vertex 31.0000005820682 52.000001006184 12.1999997645531
endloop
endfacet
facet normal -3.235747895899e-008 -0.382683432365081 -0.92387953251129
outer loop
vertex 36.0000008123423 52.0000008559793 12.1999996516525
vertex 31.0000006142509 53.5556359247945 11.5556346831635
vertex 36.0000008445251 53.5556357745898 11.5556345702629
endloop
endfacet
facet normal -5.05368804441614e-027 1.0 -3.60955709766132e-014
outer loop
vertex 40.6 34.941154273188 -6.24199580911977e-012
vertex 42.4000000000008 34.9411542731882 4.9999999999935
vertex 42.4 34.941154273188 -6.49367781768717e-012
endloop
endfacet
facet normal -5.05368804441614e-027 1.0 -3.60955709766132e-014
outer loop
vertex 42.4000000000008 34.9411542731882 4.9999999999935
vertex 40.6 34.941154273188 -6.24199580911977e-012
vertex 40.6000000000008 34.9411542731882 4.99999999999375
endloop
endfacet
facet normal 5.05089004426261e-027 -1.0 3.60955709766131e-014
outer loop
vertex 11.4000000000007 38.058845726812 4.99999999999764
vertex 9.60000000000002 38.0588457268119 -2.10299000436009e-012
vertex 11.4 38.0588457268119 -2.35537700454813e-012
endloop
endfacet
facet normal 5.05089004426261e-027 -1.0 3.60955709766131e-014
outer loop
vertex 9.60000000000002 38.0588457268119 -2.10299000436009e-012
vertex 11.4000000000007 38.058845726812 4.99999999999764
vertex 9.60000000000075 38.058845726812 4.99999999999789
endloop
endfacet
facet normal -0.501624483881058 -0.865085473910562 1.05266519024854e-013
outer loop
vertex 38.0215878881806 25.8511253729402 4.99999999999448
vertex 35.7863703591498 27.1472283282851 -5.31281685312024e-012
vertex 38.0215878881799 25.85112537294 -5.51373946500178e-012
endloop
endfacet
facet normal -0.501624483881058 -0.865085473910562 1.05266519024854e-013
outer loop
vertex 35.7863703591498 27.1472283282851 -5.31281685312024e-012
vertex 38.0215878881806 25.8511253729402 4.99999999999448
vertex 35.7863703591505 27.1472283282853 4.99999999999468
endloop
endfacet
facet normal 0.806405008401701 2.45414125691425e-009 0.591363646519342
outer loop
vertex 47.0000001072283 46.9999997847555 4.99999991075464
vertex 36.0000007396617 42.0000012700468 19.9999997364148
vertex 47.0000000000007 42.0000000000001 4.99999999999153
endloop
endfacet
facet normal 0.806405008401701 2.45414125691425e-009 0.591363646519342
outer loop
vertex 36.0000007396617 42.0000012700468 19.9999997364148
vertex 47.0000001072283 46.9999997847555 4.99999991075464
vertex 36.0000007881147 47.0000012700469 19.9999995718603
endloop
endfacet
facet normal -0.174264242772709 -0.984698925403524 6.12511067973496e-014
outer loop
vertex 40.5658639918234 25.4008594721987 4.99999999999418
vertex 38.0215878881799 25.85112537294 -5.51373946500178e-012
vertex 40.5658639918226 25.4008594721985 -5.80983594566931e-012
endloop
endfacet
facet normal -0.174264242772709 -0.984698925403524 6.12511067973496e-014
outer loop
vertex 38.0215878881799 25.85112537294 -5.51373946500178e-012
vertex 40.5658639918234 25.4008594721987 4.99999999999418
vertex 38.0215878881806 25.8511253729402 4.99999999999448
endloop
endfacet
facet normal 9.36514301521587e-009 -0.38268343236507 0.923879532511295
outer loop
vertex 36.0000007129898 52.0000008559793 7.79999965165251
vertex 31.0000005439981 53.5556359247945 8.4443648459427
vertex 31.0000004827156 52.000001006184 7.79999976455312
endloop
endfacet
facet normal 9.36514301521587e-009 -0.38268343236507 0.923879532511295
outer loop
vertex 31.0000005439981 53.5556359247945 8.4443648459427
vertex 36.0000007129898 52.0000008559793 7.79999965165251
vertex 36.0000007742722 53.5556357745898 8.44436473304209
endloop
endfacet
facet normal 0.866025403784434 0.500000000000008 -1.45664344306224e-013
outer loop
vertex 8.70000000000002 36.4999999999999 -1.90982230030556e-012
vertex 9.60000000000075 34.9411542731881 4.99999999999802
vertex 9.60000000000002 34.941154273188 -1.9676316131978e-012
endloop
endfacet
facet normal 0.866025403784434 0.500000000000008 -1.45664344306224e-013
outer loop
vertex 9.60000000000075 34.9411542731881 4.99999999999802
vertex 8.70000000000002 36.4999999999999 -1.90982230030556e-012
vertex 8.70000000000075 36.5000000000001 4.99999999999808
endloop
endfacet
facet normal 0.866025403784433 -0.500000000000009 -1.09684060776455e-013
outer loop
vertex 40.6 38.058845726812 -6.37735420028207e-012
vertex 39.7000000000008 36.5000000000002 4.99999999999381
vertex 39.7 36.5 -6.1834815046069e-012
endloop
endfacet
facet normal 0.866025403784433 -0.500000000000009 -1.09684060776455e-013
outer loop
vertex 39.7000000000008 36.5000000000002 4.99999999999381
vertex 40.6 38.058845726812 -6.37735420028207e-012
vertex 40.6000000000008 38.0588457268121 4.99999999999361
endloop
endfacet
facet normal 0.555570233019564 -0.831469612302571 -5.18704239971617e-014
outer loop
vertex 21.5991405278022 31.6246146238793 4.99999999999636
vertex 17.8682720163547 29.1317279836449 -2.95884983181338e-012
vertex 21.5991405278015 31.6246146238791 -3.63211682952169e-012
endloop
endfacet
facet normal 0.555570233019564 -0.831469612302571 -5.18704239971617e-014
outer loop
vertex 17.8682720163547 29.1317279836449 -2.95884983181338e-012
vertex 21.5991405278022 31.6246146238793 4.99999999999636
vertex 17.8682720163554 29.131727983645 4.99999999999703
endloop
endfacet
facet normal -3.63952425681923e-008 -0.923879532511302 -0.382683432365052
outer loop
vertex 36.0000008445251 53.5556357745898 11.5556345702629
vertex 31.0000005984818 54.200001006184 9.99999976455311
vertex 36.0000008287559 54.2000008559793 9.99999965165251
endloop
endfacet
facet normal -3.63952425681923e-008 -0.923879532511302 -0.382683432365052
outer loop
vertex 31.0000005984818 54.200001006184 9.99999976455311
vertex 36.0000008445251 53.5556357745898 11.5556345702629
vertex 31.0000006142509 53.5556359247945 11.5556346831635
endloop
endfacet
facet normal -0.555570233019563 -0.831469612302572 1.12031721154461e-013
outer loop
vertex 34.131727983646 29.131727983645 4.99999999999478
vertex 30.4008594721985 31.6246146238791 -4.85175233322366e-012
vertex 34.1317279836453 29.1317279836449 -5.2091830848866e-012
endloop
endfacet
facet normal -0.555570233019563 -0.831469612302572 1.12031721154461e-013
outer loop
vertex 30.4008594721985 31.6246146238791 -4.85175233322366e-012
vertex 34.131727983646 29.131727983645 4.99999999999478
vertex 30.4008594721993 31.6246146238793 4.99999999999514
endloop
endfacet
facet normal 5.0508900442626e-027 -1.0 3.60955709766132e-014
outer loop
vertex 11.4000000000008 7.05884572681219 4.9999999999991
vertex 9.60000000000006 7.05884572681201 -6.36607433435188e-013
vertex 11.4000000000001 7.05884572681201 -8.88994433623225e-013
endloop
endfacet
facet normal 5.0508900442626e-027 -1.0 3.60955709766132e-014
outer loop
vertex 9.60000000000006 7.05884572681201 -6.36607433435188e-013
vertex 11.4000000000008 7.05884572681219 4.9999999999991
vertex 9.60000000000079 7.05884572681219 4.99999999999935
endloop
endfacet
facet normal 0.980785280403231 -0.195090322016128 -1.37479202417957e-013
outer loop
vertex 15.3753853761202 25.4008594721985 -2.37370678668469e-012
vertex 14.5000000000007 21.0000000000002 4.99999999999801
vertex 14.5 21.0 -1.97961647074862e-012
endloop
endfacet
facet normal 0.980785280403231 -0.195090322016128 -1.37479202417957e-013
outer loop
vertex 14.5000000000007 21.0000000000002 4.99999999999801
vertex 15.3753853761202 25.4008594721985 -2.37370678668469e-012
vertex 15.3753853761209 25.4008594721987 4.99999999999762
endloop
endfacet
facet normal 0.174264242772709 -0.984698925403524 9.85399805722596e-015
outer loop
vertex 43.1101400954661 25.8511253729402 4.99999999999384
vertex 40.5658639918226 25.4008594721985 -5.80983594566931e-012
vertex 43.1101400954654 25.85112537294 -6.1510518900576e-012
endloop
endfacet
facet normal 0.174264242772709 -0.984698925403524 9.85399805722596e-015
outer loop
vertex 40.5658639918226 25.4008594721985 -5.80983594566931e-012
vertex 43.1101400954661 25.8511253729402 4.99999999999384
vertex 40.5658639918234 25.4008594721987 4.99999999999418
endloop
endfacet
facet normal -5.0508900442626e-027 1.0 -3.60955709766132e-014
outer loop
vertex 9.60000000000002 34.941154273188 -1.9676316131978e-012
vertex 11.4000000000007 34.9411542731881 4.99999999999777
vertex 11.4 34.941154273188 -2.22001861338583e-012
endloop
endfacet
facet normal -5.0508900442626e-027 1.0 -3.60955709766132e-014
outer loop
vertex 11.4000000000007 34.9411542731881 4.99999999999777
vertex 9.60000000000002 34.941154273188 -1.9676316131978e-012
vertex 9.60000000000075 34.9411542731881 4.99999999999802
endloop
endfacet
facet normal 1.91131348198834e-008 0.923879532511304 -0.382683432365048
outer loop
vertex 5.99999857027193 49.8000004669029 9.99999983811479
vertex 10.9999985230285 50.4443653980879 11.5556346438246
vertex 10.9999984685448 49.8000003166984 9.99999972521419
endloop
endfacet
facet normal 1.91131348198834e-008 0.923879532511304 -0.382683432365048
outer loop
vertex 10.9999985230285 50.4443653980879 11.5556346438246
vertex 5.99999857027193 49.8000004669029 9.99999983811479
vertex 5.99999862475565 50.4443655482924 11.5556347567252
endloop
endfacet
facet normal -0.866025403784433 -0.500000000000009 1.45784748762483e-013
outer loop
vertex 43.3000000000008 36.5000000000002 4.9999999999933
vertex 42.4 38.058845726812 -6.62903620884947e-012
vertex 43.3 36.5 -6.68755051336234e-012
endloop
endfacet
facet normal -0.866025403784433 -0.500000000000009 1.45784748762483e-013
outer loop
vertex 42.4 38.058845726812 -6.62903620884947e-012
vertex 43.3000000000008 36.5000000000002 4.9999999999933
vertex 42.4000000000008 38.0588457268121 4.99999999999336
endloop
endfacet
facet normal 1.91131666805618e-008 0.923879532511304 -0.382683432365048
outer loop
vertex 31.000000466302 49.800001006184 9.99999976455311
vertex 36.0000007510599 50.4443659373689 11.5556345702629
vertex 36.0000006965761 49.8000008559793 9.99999965165251
endloop
endfacet
facet normal 1.91131666805618e-008 0.923879532511304 -0.382683432365048
outer loop
vertex 36.0000007510599 50.4443659373689 11.5556345702629
vertex 31.000000466302 49.800001006184 9.99999976455311
vertex 31.0000005207857 50.4443660875735 11.5556346831635
endloop
endfacet
facet normal -6.14572791097034e-008 1.04351781006096e-008 0.999999999999998
outer loop
vertex 47.0000001072283 46.9999997847555 4.99999991075464
vertex 36.0000007495809 61.9999999942714 4.99999907819693
vertex 36.0000006042217 47.0000008209258 4.99999923472459
endloop
endfacet
facet normal 3.63952114296694e-008 0.923879532511302 0.382683432365052
outer loop
vertex 5.99999855450278 50.4443655482924 8.4443649195044
vertex 10.9999984685448 49.8000003166984 9.99999972521419
vertex 10.9999984527756 50.4443653980879 8.4443648066038
endloop
endfacet
facet normal 3.63952114296694e-008 0.923879532511302 0.382683432365052
outer loop
vertex 10.9999984685448 49.8000003166984 9.99999972521419
vertex 5.99999855450278 50.4443655482924 8.4443649195044
vertex 5.99999857027193 49.8000004669029 9.99999983811479
endloop
endfacet
facet normal -0.866025403784434 0.500000000000008 1.09563656320196e-013
outer loop
vertex 11.4000000000007 34.9411542731881 4.99999999999777
vertex 12.3 36.4999999999999 -2.41318631744036e-012
vertex 11.4 34.941154273188 -2.22001861338583e-012
endloop
endfacet
facet normal -0.866025403784434 0.500000000000008 1.09563656320196e-013
outer loop
vertex 12.3 36.4999999999999 -2.41318631744036e-012
vertex 11.4000000000007 34.9411542731881 4.99999999999777
vertex 12.3000000000007 36.5000000000001 4.99999999999758
endloop
endfacet
facet normal 0.866025403784434 -0.500000000000008 -1.09558060449207e-013
outer loop
vertex 9.60000000000002 38.0588457268119 -2.10299000436009e-012
vertex 8.70000000000075 36.5000000000001 4.99999999999808
vertex 8.70000000000002 36.4999999999999 -1.90982230030556e-012
endloop
endfacet
facet normal 0.866025403784434 -0.500000000000008 -1.09558060449207e-013
outer loop
vertex 8.70000000000075 36.5000000000001 4.99999999999808
vertex 9.60000000000002 38.0588457268119 -2.10299000436009e-012
vertex 9.60000000000075 38.058845726812 4.99999999999789
endloop
endfacet
facet normal -9.36515693887907e-009 0.382683432365077 -0.923879532511292
outer loop
vertex 5.99999868603812 52.0000004669029 12.1999998381148
vertex 10.9999985230285 50.4443653980879 11.5556346438246
vertex 5.99999862475565 50.4443655482924 11.5556347567252
endloop
endfacet
facet normal -9.36515693887907e-009 0.382683432365077 -0.923879532511292
outer loop
vertex 10.9999985230285 50.4443653980879 11.5556346438246
vertex 5.99999868603812 52.0000004669029 12.1999998381148
vertex 10.9999985843109 52.0000003166984 12.1999997252142
endloop
endfacet
facet normal 0.980785280403231 0.195090322016126 -1.51575919967059e-013
outer loop
vertex 14.5 21.0 -1.97961647074862e-012
vertex 15.3753853761209 16.5991405278016 4.99999999999816
vertex 15.3753853761202 16.5991405278015 -1.8322732220355e-012
endloop
endfacet
facet normal 0.980785280403231 0.195090322016126 -1.51575919967059e-013
outer loop
vertex 15.3753853761209 16.5991405278016 4.99999999999816
vertex 14.5 21.0 -1.97961647074862e-012
vertex 14.5000000000007 21.0000000000002 4.99999999999801
endloop
endfacet
facet normal -2.14929892633359e-008 4.12954688379737e-008 0.999999999999999
outer loop
vertex -7.13488884640512e-007 42.0000014060744 24.9999996628632
vertex 5.99999923805811 47.0000014642181 24.9999995718648
vertex -7.61941887139628e-007 47.0000014060744 24.9999994983087
endloop
endfacet
facet normal -2.14929892633359e-008 4.12954688379737e-008 0.999999999999999
outer loop
vertex 5.99999923805811 47.0000014642181 24.9999995718648
vertex -7.13488884640512e-007 42.0000014060744 24.9999996628632
vertex 4.99999928651112 42.0000014545274 24.9999997394843
endloop
endfacet
facet normal -2.14929892633359e-008 4.12954688379737e-008 0.999999999999999
outer loop
vertex 5.99999923805811 47.0000014642181 24.9999995718648
vertex 4.99999928651112 42.0000014545274 24.9999997394843
vertex 10.9999994792342 42.0000014060744 24.999999999998
endloop
endfacet
facet normal -2.14929892633359e-008 4.12954688379737e-008 0.999999999999999
outer loop
vertex 5.99999923805811 47.0000014642181 24.9999995718648
vertex 10.9999994792342 42.0000014060744 24.999999999998
vertex 10.9999989510965 54.500001099344 24.9999993863299
endloop
endfacet
facet normal -2.14929892633359e-008 4.12954688379737e-008 0.999999999999999
outer loop
vertex 10.9999989510965 54.500001099344 24.9999993863299
vertex 5.99999916537861 54.500001050891 24.9999993250331
vertex 5.99999923805811 47.0000014642181 24.9999995718648
endloop
endfacet
facet normal -9.6906076142993e-009 1.0 -3.307145201789e-008
outer loop
vertex -7.61941887139628e-007 47.0000014060744 24.9999994983087
vertex 5.99999948324518 47.000000802789 4.99999923472908
vertex -5.16754819734899e-007 47.0000007446454 4.99999916117299
endloop
endfacet
facet normal -9.6906076142993e-009 1.0 -3.307145201789e-008
outer loop
vertex 5.99999948324518 47.000000802789 4.99999923472908
vertex -7.61941887139628e-007 47.0000014060744 24.9999994983087
vertex 5.99999923805811 47.0000014642181 24.9999995718648
endloop
endfacet
facet normal -1.0 -1.04012934287809e-008 -1.20575649482219e-008
outer loop
vertex 7.55751017322837e-013 1.80477854883065e-013 4.99999999999999
vertex -4.55458082493365e-007 47.0000005792881 -8.38827004301379e-007
vertex 2.25597318603832e-014 0.0 0.0
endloop
endfacet
facet normal -1.0 -1.04012934287809e-008 -1.20575649482219e-008
outer loop
vertex -4.55458082493365e-007 47.0000005792881 -8.38827004301379e-007
vertex 7.55751017322837e-013 1.80477854883065e-013 4.99999999999999
vertex -7.13488884640512e-007 42.0000014060744 24.9999996628632
endloop
endfacet
facet normal -1.0 -1.04012934287809e-008 -1.20575649482219e-008
outer loop
vertex -4.55458082493365e-007 47.0000005792881 -8.38827004301379e-007
vertex -7.13488884640512e-007 42.0000014060744 24.9999996628632
vertex -5.16754819734899e-007 47.0000007446454 4.99999916117299
endloop
endfacet
facet normal -1.0 -1.04012934287809e-008 -1.20575649482219e-008
outer loop
vertex -5.16754819734899e-007 47.0000007446454 4.99999916117299
vertex -7.13488884640512e-007 42.0000014060744 24.9999996628632
vertex -7.61941887139628e-007 47.0000014060744 24.9999994983087
endloop
endfacet
facet normal -9.36514301949849e-009 0.382683432365077 -0.923879532511292
outer loop
vertex 31.0000005820682 52.000001006184 12.1999997645531
vertex 36.0000007510599 50.4443659373689 11.5556345702629
vertex 31.0000005207857 50.4443660875735 11.5556346831635
endloop
endfacet
facet normal -9.36514301949849e-009 0.382683432365077 -0.923879532511292
outer loop
vertex 36.0000007510599 50.4443659373689 11.5556345702629
vertex 31.0000005820682 52.000001006184 12.1999997645531
vertex 36.0000008123423 52.0000008559793 12.1999996516525
endloop
endfacet
facet normal -1.66764919752393e-008 -0.999999999999998 6.62485879340212e-008
outer loop
vertex 36.0000007396617 42.0000012700468 19.9999997364148
vertex 31.0000001566337 42.0000003110509 4.99999999999441
vertex 47.0000000000007 42.0000000000001 4.99999999999153
endloop
endfacet
facet normal -1.66764919752393e-008 -0.999999999999998 6.62485879340212e-008
outer loop
vertex 31.0000001566337 42.0000003110509 4.99999999999441
vertex 36.0000007396617 42.0000012700468 19.9999997364148
vertex 31.0000005469386 42.0000012119032 19.9999999999944
endloop
endfacet
facet normal 3.63952425734622e-008 0.923879532511302 0.382683432365052
outer loop
vertex 31.0000004505328 50.4443660875735 8.44436484594272
vertex 36.0000006965761 49.8000008559793 9.99999965165251
vertex 36.000000680807 50.4443659373689 8.44436473304212
endloop
endfacet
facet normal 3.63952425734622e-008 0.923879532511302 0.382683432365052
outer loop
vertex 36.0000006965761 49.8000008559793 9.99999965165251
vertex 31.0000004505328 50.4443660875735 8.44436484594272
vertex 31.000000466302 49.800001006184 9.99999976455311
endloop
endfacet
facet normal 0.195090322016146 -0.980785280403227 6.64731331104307e-015
outer loop
vertex 26.0000000000007 32.4999999999996 4.99999999999569
vertex 21.5991405278015 31.6246146238791 -3.63211682952169e-012
vertex 26.0 32.4999999999994 -4.29833391102363e-012
endloop
endfacet
facet normal 0.195090322016146 -0.980785280403227 6.64731331104307e-015
outer loop
vertex 21.5991405278015 31.6246146238791 -3.63211682952169e-012
vertex 26.0000000000007 32.4999999999996 4.99999999999569
vertex 21.5991405278022 31.6246146238793 4.99999999999636
endloop
endfacet
facet normal -1.22593498374146e-008 1.04351773862487e-008 1.0
outer loop
vertex 5.99999948324518 47.000000802789 4.99999923472908
vertex 5.99999933788603 61.9999999761347 4.99999907820143
vertex -5.16754819734899e-007 47.0000007446454 4.99999916117299
endloop
endfacet
facet normal 3.23574789603076e-008 0.382683432365088 0.923879532511287
outer loop
vertex 36.000000680807 50.4443659373689 8.44436473304212
vertex 31.0000004827156 52.000001006184 7.79999976455312
vertex 31.0000004505328 50.4443660875735 8.44436484594272
endloop
endfacet
facet normal 3.23574789603076e-008 0.382683432365088 0.923879532511287
outer loop
vertex 31.0000004827156 52.000001006184 7.79999976455312
vertex 36.000000680807 50.4443659373689 8.44436473304212
vertex 36.0000007129898 52.0000008559793 7.79999965165251
endloop
endfacet
facet normal 3.23574667694114e-008 0.382683432365088 0.923879532511287
outer loop
vertex 10.9999984527756 50.4443653980879 8.4443648066038
vertex 5.99999858668555 52.0000004669029 7.7999998381148
vertex 5.99999855450278 50.4443655482924 8.4443649195044
endloop
endfacet
facet normal 3.23574667694114e-008 0.382683432365088 0.923879532511287
outer loop
vertex 5.99999858668555 52.0000004669029 7.7999998381148
vertex 10.9999984527756 50.4443653980879 8.4443648066038
vertex 10.9999984849584 52.0000003166984 7.7999997252142
endloop
endfacet
facet normal 0.86602540378444 0.499999999999997 -1.45663594601669e-013
outer loop
vertex 8.70000000000006 5.50000000000001 -4.43439729380657e-013
vertex 9.60000000000079 3.94115427318819 4.99999999999949
vertex 9.60000000000006 3.94115427318801 -5.01249042272889e-013
endloop
endfacet
facet normal 0.86602540378444 0.499999999999997 -1.45663594601669e-013
outer loop
vertex 9.60000000000079 3.94115427318819 4.99999999999949
vertex 8.70000000000006 5.50000000000001 -4.43439729380657e-013
vertex 8.7000000000008 5.50000000000019 4.99999999999955
endloop
endfacet
facet normal 9.36515694480989e-009 -0.382683432365077 0.923879532511292
outer loop
vertex 10.9999984849584 52.0000003166984 7.7999997252142
vertex 5.99999864796801 53.5556353855133 8.44436491950438
vertex 5.99999858668555 52.0000004669029 7.7999998381148
endloop
endfacet
facet normal 9.36515694480989e-009 -0.382683432365077 0.923879532511292
outer loop
vertex 5.99999864796801 53.5556353855133 8.44436491950438
vertex 10.9999984849584 52.0000003166984 7.7999997252142
vertex 10.9999985462408 53.5556352353088 8.44436480660378
endloop
endfacet
facet normal 8.97538019536533e-009 -1.36714085009e-008 -1.0
outer loop
vertex 22.0000001888467 42.0000000915861 1.32446156018229e-009
vertex 20.0000001162899 42.0000000897725 -1.83583667141157e-009
vertex 20.000000043733 44.0000000906793 -3.15162622677004e-009
endloop
endfacet
facet normal 8.97538019536533e-009 -1.36714085009e-008 -1.0
outer loop
vertex 20.0000001162899 42.0000000897725 -1.83583667141157e-009
vertex 22.0000001888467 42.0000000915861 1.32446156018229e-009
vertex 21.5991405278015 31.6246146238791 -3.63211682952169e-012
endloop
endfacet
facet normal 8.97538019536533e-009 -1.36714085009e-008 -1.0
outer loop
vertex 21.5991405278015 31.6246146238791 -3.63211682952169e-012
vertex 22.0000001888467 42.0000000915861 1.32446156018229e-009
vertex 26.0 32.4999999999994 -4.29833391102363e-012
endloop
endfacet
facet normal 8.97538019536533e-009 -1.36714085009e-008 -1.0
outer loop
vertex 26.0 32.4999999999994 -4.29833391102363e-012
vertex 22.0000001888467 42.0000000915861 1.32446156018229e-009
vertex 31.000000043733 42.0000000997477 -5.60468338406395e-012
endloop
endfacet
facet normal 8.97538019536533e-009 -1.36714085009e-008 -1.0
outer loop
vertex 26.0 32.4999999999994 -4.29833391102363e-012
vertex 31.000000043733 42.0000000997477 -5.60468338406395e-012
vertex 30.4008594721985 31.6246146238791 -4.85175233322366e-012
endloop
endfacet
facet normal 8.97538019536533e-009 -1.36714085009e-008 -1.0
outer loop
vertex 30.4008594721985 31.6246146238791 -4.85175233322366e-012
vertex 31.000000043733 42.0000000997477 -5.60468338406395e-012
vertex 34.1317279836453 29.1317279836449 -5.2091830848866e-012
endloop
endfacet
facet normal 8.97538019536533e-009 -1.36714085009e-008 -1.0
outer loop
vertex 34.1317279836453 29.1317279836449 -5.2091830848866e-012
vertex 31.000000043733 42.0000000997477 -5.60468338406395e-012
vertex 31.0000006445503 61.9999998523815 -9.95360262934231e-007
endloop
endfacet
facet normal 8.97538019536533e-009 -1.36714085009e-008 -1.0
outer loop
vertex 34.1317279836453 29.1317279836449 -5.2091830848866e-012
vertex 31.0000006445503 61.9999998523815 -9.95360262934231e-007
vertex 36.0000006882832 61.9999998289142 -9.21803059422688e-007
endloop
endfacet
facet normal 8.97538019536533e-009 -1.36714085009e-008 -1.0
outer loop
vertex 34.1317279836453 29.1317279836449 -5.2091830848866e-012
vertex 36.0000006882832 61.9999998289142 -9.21803059422688e-007
vertex 35.7863703591498 27.1472283282851 -5.31281685312024e-012
endloop
endfacet
facet normal 8.97538019536533e-009 -1.36714085009e-008 -1.0
outer loop
vertex 35.7863703591498 27.1472283282851 -5.31281685312024e-012
vertex 36.0000006882832 61.9999998289142 -9.21803059422688e-007
vertex 38.0215878881799 25.85112537294 -5.51373946500178e-012
endloop
endfacet
facet normal 8.97538019536533e-009 -1.36714085009e-008 -1.0
outer loop
vertex 38.0215878881799 25.85112537294 -5.51373946500178e-012
vertex 36.0000006882832 61.9999998289142 -9.21803059422688e-007
vertex 39.7 36.5 -6.1834815046069e-012
endloop
endfacet
facet normal 8.97538019536533e-009 -1.36714085009e-008 -1.0
outer loop
vertex 39.7 36.5 -6.1834815046069e-012
vertex 36.0000006882832 61.9999998289142 -9.21803059422688e-007
vertex 40.6 38.058845726812 -6.37735420028207e-012
endloop
endfacet
facet normal 8.97538019536533e-009 -1.36714085009e-008 -1.0
outer loop
vertex 40.6 38.058845726812 -6.37735420028207e-012
vertex 36.0000006882832 61.9999998289142 -9.21803059422688e-007
vertex 47.0000000459306 46.9999996193982 -8.92453552558958e-008
endloop
endfacet
facet normal 8.97538019536533e-009 -1.36714085009e-008 -1.0
outer loop
vertex 40.6 38.058845726812 -6.37735420028207e-012
vertex 47.0000000459306 46.9999996193982 -8.92453552558958e-008
vertex 42.4 38.058845726812 -6.62903620884947e-012
endloop
endfacet
facet normal 8.97538019536533e-009 -1.36714085009e-008 -1.0
outer loop
vertex 42.4 38.058845726812 -6.62903620884947e-012
vertex 47.0000000459306 46.9999996193982 -8.92453552558958e-008
vertex 43.3 36.5 -6.68755051336234e-012
endloop
endfacet
facet normal 8.97538019536533e-009 -1.36714085009e-008 -1.0
outer loop
vertex 43.3 36.5 -6.68755051336234e-012
vertex 47.0000000459306 46.9999996193982 -8.92453552558958e-008
vertex 45.3453576244955 27.1472283282851 -6.50989262496182e-012
endloop
endfacet
facet normal 8.97538019536533e-009 -1.36714085009e-008 -1.0
outer loop
vertex 45.3453576244955 27.1472283282851 -6.50989262496182e-012
vertex 47.0000000459306 46.9999996193982 -8.92453552558958e-008
vertex 47.0 29.1317279836449 -6.8165639799389e-012
endloop
endfacet
facet normal 8.97538019536533e-009 -1.36714085009e-008 -1.0
outer loop
vertex 39.7 36.5 -6.1834815046069e-012
vertex 40.5658639918226 25.4008594721985 -5.80983594566931e-012
vertex 38.0215878881799 25.85112537294 -5.51373946500178e-012
endloop
endfacet
facet normal 8.97538019536533e-009 -1.36714085009e-008 -1.0
outer loop
vertex 40.5658639918226 25.4008594721985 -5.80983594566931e-012
vertex 39.7 36.5 -6.1834815046069e-012
vertex 40.6 34.941154273188 -6.24199580911977e-012
endloop
endfacet
facet normal 8.97538019536533e-009 -1.36714085009e-008 -1.0
outer loop
vertex 40.5658639918226 25.4008594721985 -5.80983594566931e-012
vertex 40.6 34.941154273188 -6.24199580911977e-012
vertex 43.1101400954654 25.85112537294 -6.1510518900576e-012
endloop
endfacet
facet normal 8.97538019536533e-009 -1.36714085009e-008 -1.0
outer loop
vertex 43.1101400954654 25.85112537294 -6.1510518900576e-012
vertex 40.6 34.941154273188 -6.24199580911977e-012
vertex 42.4 34.941154273188 -6.49367781768717e-012
endloop
endfacet
facet normal 8.97538019536533e-009 -1.36714085009e-008 -1.0
outer loop
vertex 43.1101400954654 25.85112537294 -6.1510518900576e-012
vertex 42.4 34.941154273188 -6.49367781768717e-012
vertex 43.3 36.5 -6.68755051336234e-012
endloop
endfacet
facet normal 8.97538019536533e-009 -1.36714085009e-008 -1.0
outer loop
vertex 43.1101400954654 25.85112537294 -6.1510518900576e-012
vertex 43.3 36.5 -6.68755051336234e-012
vertex 45.3453576244955 27.1472283282851 -6.50989262496182e-012
endloop
endfacet
facet normal 8.97538019536533e-009 -1.36714085009e-008 -1.0
outer loop
vertex 7.68769268806011 0.0 -8.26250179386534e-013
vertex 8.70000000000006 5.50000000000001 -4.43439729380657e-013
vertex 10.0368579500085 0.268956008202181 -1.05960240581737e-012
endloop
endfacet
facet normal 8.97538019536533e-009 -1.36714085009e-008 -1.0
outer loop
vertex 8.70000000000006 5.50000000000001 -4.43439729380657e-013
vertex 7.68769268806011 0.0 -8.26250179386534e-013
vertex 8.70000000000002 36.4999999999999 -1.90982230030556e-012
endloop
endfacet
facet normal 8.97538019536533e-009 -1.36714085009e-008 -1.0
outer loop
vertex 10.0368579500085 0.268956008202181 -1.05960240581737e-012
vertex 8.70000000000006 5.50000000000001 -4.43439729380657e-013
vertex 9.60000000000006 3.94115427318801 -5.01249042272889e-013
endloop
endfacet
facet normal 8.97538019536533e-009 -1.36714085009e-008 -1.0
outer loop
vertex 10.0368579500085 0.268956008202181 -1.05960240581737e-012
vertex 9.60000000000006 3.94115427318801 -5.01249042272889e-013
vertex 11.4000000000001 3.94115427318801 -7.53636042460926e-013
endloop
endfacet
facet normal 8.97538019536533e-009 -1.36714085009e-008 -1.0
outer loop
vertex 10.0368579500085 0.268956008202181 -1.05960240581737e-012
vertex 11.4000000000001 3.94115427318801 -7.53636042460926e-013
vertex 12.2644457168833 1.06190462139407 -1.28237975793866e-012
endloop
endfacet
facet normal 8.97538019536533e-009 -1.36714085009e-008 -1.0
outer loop
vertex 12.2644457168833 1.06190462139407 -1.28237975793866e-012
vertex 11.4000000000001 3.94115427318801 -7.53636042460926e-013
vertex 12.3000000000001 5.50000000000001 -9.46803746515457e-013
endloop
endfacet
facet normal 8.97538019536533e-009 -1.36714085009e-008 -1.0
outer loop
vertex 12.2644457168833 1.06190462139407 -1.28237975793866e-012
vertex 12.3000000000001 5.50000000000001 -9.46803746515457e-013
vertex 14.2551705529852 2.33780798341649 -1.50656709330121e-012
endloop
endfacet
facet normal 8.97538019536533e-009 -1.36714085009e-008 -1.0
outer loop
vertex 9.60000000000002 34.941154273188 -1.9676316131978e-012
vertex 8.70000000000006 5.50000000000001 -4.43439729380657e-013
vertex 8.70000000000002 36.4999999999999 -1.90982230030556e-012
endloop
endfacet
facet normal 8.97538019536533e-009 -1.36714085009e-008 -1.0
outer loop
vertex 8.70000000000006 5.50000000000001 -4.43439729380657e-013
vertex 9.60000000000002 34.941154273188 -1.9676316131978e-012
vertex 9.60000000000006 7.05884572681201 -6.36607433435188e-013
endloop
endfacet
facet normal 8.97538019536533e-009 -1.36714085009e-008 -1.0
outer loop
vertex 9.60000000000006 7.05884572681201 -6.36607433435188e-013
vertex 9.60000000000002 34.941154273188 -1.9676316131978e-012
vertex 11.4 34.941154273188 -2.22001861338583e-012
endloop
endfacet
facet normal 8.97538019536533e-009 -1.36714085009e-008 -1.0
outer loop
vertex 9.60000000000006 7.05884572681201 -6.36607433435188e-013
vertex 11.4 34.941154273188 -2.22001861338583e-012
vertex 11.4000000000001 7.05884572681201 -8.88994433623225e-013
endloop
endfacet
facet normal 8.97538019536533e-009 -1.36714085009e-008 -1.0
outer loop
vertex 11.4000000000001 7.05884572681201 -8.88994433623225e-013
vertex 11.4 34.941154273188 -2.22001861338583e-012
vertex 12.3 36.4999999999999 -2.41318631744036e-012
endloop
endfacet
facet normal 8.97538019536533e-009 -1.36714085009e-008 -1.0
outer loop
vertex 11.4000000000001 7.05884572681201 -8.88994433623225e-013
vertex 12.3 36.4999999999999 -2.41318631744036e-012
vertex 12.3000000000001 5.50000000000001 -9.46803746515457e-013
endloop
endfacet
facet normal 8.97538019536533e-009 -1.36714085009e-008 -1.0
outer loop
vertex 5.99999939918276 61.9999998107774 -9.21798560166165e-007
vertex 2.25597318603832e-014 0.0 0.0
vertex -4.55458082493365e-007 47.0000005792881 -8.38827004301379e-007
endloop
endfacet
facet normal 8.97538019536533e-009 -1.36714085009e-008 -1.0
outer loop
vertex 2.25597318603832e-014 0.0 0.0
vertex 5.99999939918276 61.9999998107774 -9.21798560166165e-007
vertex 7.68769268806011 0.0 -8.26250179386534e-013
endloop
endfacet
facet normal 8.97538019536533e-009 -1.36714085009e-008 -1.0
outer loop
vertex 7.68769268806011 0.0 -8.26250179386534e-013
vertex 5.99999939918276 61.9999998107774 -9.21798560166165e-007
vertex 8.70000000000002 36.4999999999999 -1.90982230030556e-012
endloop
endfacet
facet normal 8.97538019536533e-009 -1.36714085009e-008 -1.0
outer loop
vertex 8.70000000000002 36.4999999999999 -1.90982230030556e-012
vertex 5.99999939918276 61.9999998107774 -9.21798560166165e-007
vertex 10.9999994429157 61.9999998342448 -9.95356661837032e-007
endloop
endfacet
facet normal 8.97538019536533e-009 -1.36714085009e-008 -1.0
outer loop
vertex 8.70000000000002 36.4999999999999 -1.90982230030556e-012
vertex 10.9999994429157 61.9999998342448 -9.95356661837032e-007
vertex 9.60000000000002 38.0588457268119 -2.10299000436009e-012
endloop
endfacet
facet normal 8.97538019536533e-009 -1.36714085009e-008 -1.0
outer loop
vertex 9.60000000000002 38.0588457268119 -2.10299000436009e-012
vertex 10.9999994429157 61.9999998342448 -9.95356661837032e-007
vertex 11.000000043733 42.0000000816109 -2.00358618585028e-012
endloop
endfacet
facet normal 8.97538019536533e-009 -1.36714085009e-008 -1.0
outer loop
vertex 9.60000000000002 38.0588457268119 -2.10299000436009e-012
vertex 11.000000043733 42.0000000816109 -2.00358618585028e-012
vertex 11.4 38.0588457268119 -2.35537700454813e-012
endloop
endfacet
facet normal 8.97538019536533e-009 -1.36714085009e-008 -1.0
outer loop
vertex 11.4 38.0588457268119 -2.35537700454813e-012
vertex 11.000000043733 42.0000000816109 -2.00358618585028e-012
vertex 20.0000001162899 42.0000000897725 -1.83583667141157e-009
endloop
endfacet
facet normal 8.97538019536533e-009 -1.36714085009e-008 -1.0
outer loop
vertex 11.4 38.0588457268119 -2.35537700454813e-012
vertex 20.0000001162899 42.0000000897725 -1.83583667141157e-009
vertex 12.3 36.4999999999999 -2.41318631744036e-012
endloop
endfacet
facet normal 8.97538019536533e-009 -1.36714085009e-008 -1.0
outer loop
vertex 12.3 36.4999999999999 -2.41318631744036e-012
vertex 20.0000001162899 42.0000000897725 -1.83583667141157e-009
vertex 15.3753853761202 25.4008594721985 -2.37370678668469e-012
endloop
endfacet
facet normal 8.97538019536533e-009 -1.36714085009e-008 -1.0
outer loop
vertex 12.3 36.4999999999999 -2.41318631744036e-012
vertex 15.3753853761202 25.4008594721985 -2.37370678668469e-012
vertex 14.5 21.0 -1.97961647074862e-012
endloop
endfacet
facet normal 8.97538019536533e-009 -1.36714085009e-008 -1.0
outer loop
vertex 12.3 36.4999999999999 -2.41318631744036e-012
vertex 14.5 21.0 -1.97961647074862e-012
vertex 12.3000000000001 5.50000000000001 -9.46803746515457e-013
endloop
endfacet
facet normal 8.97538019536533e-009 -1.36714085009e-008 -1.0
outer loop
vertex 12.3000000000001 5.50000000000001 -9.46803746515457e-013
vertex 14.5 21.0 -1.97961647074862e-012
vertex 14.2551705529852 2.33780798341649 -1.50656709330121e-012
endloop
endfacet
facet normal 8.97538019536533e-009 -1.36714085009e-008 -1.0
outer loop
vertex 15.3753853761202 25.4008594721985 -2.37370678668469e-012
vertex 20.0000001162899 42.0000000897725 -1.83583667141157e-009
vertex 17.8682720163547 29.1317279836449 -2.95884983181338e-012
endloop
endfacet
facet normal 8.97538019536533e-009 -1.36714085009e-008 -1.0
outer loop
vertex 17.8682720163547 29.1317279836449 -2.95884983181338e-012
vertex 20.0000001162899 42.0000000897725 -1.83583667141157e-009
vertex 21.5991405278015 31.6246146238791 -3.63211682952169e-012
endloop
endfacet
facet normal 8.97538019536533e-009 -1.36714085009e-008 -1.0
outer loop
vertex 14.5 21.0 -1.97961647074862e-012
vertex 15.9060055053474 4.0306336455425 -1.67717506549536e-012
vertex 14.2551705529852 2.33780798341649 -1.50656709330121e-012
endloop
endfacet
facet normal 8.97538019536533e-009 -1.36714085009e-008 -1.0
outer loop
vertex 15.9060055053474 4.0306336455425 -1.67717506549536e-012
vertex 14.5 21.0 -1.97961647074862e-012
vertex 15.3753853761202 16.5991405278015 -1.8322732220355e-012
endloop
endfacet
facet normal 8.97538019536533e-009 -1.36714085009e-008 -1.0
outer loop
vertex 15.9060055053474 4.0306336455425 -1.67717506549536e-012
vertex 15.3753853761202 16.5991405278015 -1.8322732220355e-012
vertex 16.7426417804579 14.012903726553 -1.88796756006582e-012
endloop
endfacet
facet normal 8.97538019536533e-009 -1.36714085009e-008 -1.0
outer loop
vertex 15.9060055053474 4.0306336455425 -1.67717506549536e-012
vertex 16.7426417804579 14.012903726553 -1.88796756006582e-012
vertex 17.1315141078604 6.05277197598873 -1.80971349017511e-012
endloop
endfacet
facet normal 8.97538019536533e-009 -1.36714085009e-008 -1.0
outer loop
vertex 17.1315141078604 6.05277197598873 -1.80971349017511e-012
vertex 16.7426417804579 14.012903726553 -1.88796756006582e-012
vertex 17.5841854160413 11.2111515646473 -1.91828219975321e-012
endloop
endfacet
facet normal 8.97538019536533e-009 -1.36714085009e-008 -1.0
outer loop
vertex 17.1315141078604 6.05277197598873 -1.80971349017511e-012
vertex 17.5841854160413 11.2111515646473 -1.91828219975321e-012
vertex 17.8682720163547 8.29957026390073 -1.89854243437537e-012
endloop
endfacet
facet normal 6.48744072095362e-009 1.0 -3.21364883215183e-008
outer loop
vertex 31.0000010558094 62.0000002672851 12.4999995528216
vertex 36.0000006882832 61.9999998289142 -9.21803059422688e-007
vertex 31.0000006445503 61.9999998523815 -9.95360262934231e-007
endloop
endfacet
facet normal 6.48744072095362e-009 1.0 -3.21364883215183e-008
outer loop
vertex 36.0000006882832 61.9999998289142 -9.21803059422688e-007
vertex 31.0000010558094 62.0000002672851 12.4999995528216
vertex 36.0000007495809 61.9999999942714 4.99999907819693
endloop
endfacet
facet normal 6.48744072095362e-009 1.0 -3.21364883215183e-008
outer loop
vertex 36.0000007495809 61.9999999942714 4.99999907819693
vertex 31.0000010558094 62.0000002672851 12.4999995528216
vertex 36.0000008415273 62.0000002188321 12.499999491524
endloop
endfacet
facet normal -0.866025403784434 -0.500000000000008 1.45669190472657e-013
outer loop
vertex 12.3000000000007 36.5000000000001 4.99999999999758
vertex 11.4 38.0588457268119 -2.35537700454813e-012
vertex 12.3 36.4999999999999 -2.41318631744036e-012
endloop
endfacet
facet normal -0.866025403784434 -0.500000000000008 1.45669190472657e-013
outer loop
vertex 11.4 38.0588457268119 -2.35537700454813e-012
vertex 12.3000000000007 36.5000000000001 4.99999999999758
vertex 11.4000000000007 38.058845726812 4.99999999999764
endloop
endfacet
facet normal -4.97661067137163e-008 0.999999999999998 -4.24615917476208e-008
outer loop
vertex 5.99999939918276 61.9999998107774 -9.21798560166165e-007
vertex 10.9999990010104 62.0000003553024 14.9999991394982
vertex 10.9999994429157 61.9999998342448 -9.95356661837032e-007
endloop
endfacet
facet normal -4.97661067137163e-008 0.999999999999998 -4.24615917476208e-008
outer loop
vertex 10.9999990010104 62.0000003553024 14.9999991394982
vertex 5.99999939918276 61.9999998107774 -9.21798560166165e-007
vertex 5.99999933788603 61.9999999761347 4.99999907820143
endloop
endfacet
facet normal -4.97661067137163e-008 0.999999999999998 -4.24615917476208e-008
outer loop
vertex 10.9999990010104 62.0000003553024 14.9999991394982
vertex 5.99999933788603 61.9999999761347 4.99999907820143
vertex 5.99999921529257 62.0000003068493 14.9999990782014
endloop
endfacet
facet normal 0.501624483881058 -0.865085473910562 -4.27648360506667e-014
outer loop
vertex 45.3453576244962 27.1472283282853 4.99999999999348
vertex 43.1101400954654 25.85112537294 -6.1510518900576e-012
vertex 45.3453576244955 27.1472283282851 -6.50989262496182e-012
endloop
endfacet
facet normal 0.501624483881058 -0.865085473910562 -4.27648360506667e-014
outer loop
vertex 43.1101400954654 25.85112537294 -6.1510518900576e-012
vertex 45.3453576244962 27.1472283282853 4.99999999999348
vertex 43.1101400954661 25.8511253729402 4.99999999999384
endloop
endfacet
facet normal 0.884060263500797 0.467372924439255 -1.47146839825125e-013
outer loop
vertex 15.3753853761202 16.5991405278015 -1.8322732220355e-012
vertex 16.7426417804586 14.0129037265531 4.9999999999981
vertex 16.7426417804579 14.012903726553 -1.88796756006582e-012
endloop
endfacet
facet normal 0.884060263500797 0.467372924439255 -1.47146839825125e-013
outer loop
vertex 16.7426417804586 14.0129037265531 4.9999999999981
vertex 15.3753853761202 16.5991405278015 -1.8322732220355e-012
vertex 15.3753853761209 16.5991405278016 4.99999999999816
endloop
endfacet
facet normal 0.957730457366704 0.287667118441028 -1.5152284424282e-013
outer loop
vertex 16.7426417804579 14.012903726553 -1.88796756006582e-012
vertex 17.584185416042 11.2111515646474 4.99999999999807
vertex 17.5841854160413 11.2111515646473 -1.91828219975321e-012
endloop
endfacet
facet normal 0.957730457366704 0.287667118441028 -1.5152284424282e-013
outer loop
vertex 17.584185416042 11.2111515646474 4.99999999999807
vertex 16.7426417804579 14.012903726553 -1.88796756006582e-012
vertex 16.7426417804586 14.0129037265531 4.9999999999981
endloop
endfacet
facet normal 0.806405016262819 0.591363635799634 -2.94433953096584e-008
outer loop
vertex 36.0000006882832 61.9999998289142 -9.21803059422688e-007
vertex 47.0000001072283 46.9999997847555 4.99999991075464
vertex 47.0000000459306 46.9999996193982 -8.92453552558958e-008
endloop
endfacet
facet normal 0.806405016262819 0.591363635799634 -2.94433953096584e-008
outer loop
vertex 47.0000001072283 46.9999997847555 4.99999991075464
vertex 36.0000006882832 61.9999998289142 -9.21803059422688e-007
vertex 36.0000007495809 61.9999999942714 4.99999907819693
endloop
endfacet
facet normal 0.86602540378444 -0.499999999999997 -1.09558060449208e-013
outer loop
vertex 9.60000000000006 7.05884572681201 -6.36607433435188e-013
vertex 8.7000000000008 5.50000000000019 4.99999999999955
vertex 8.70000000000006 5.50000000000001 -4.43439729380657e-013
endloop
endfacet
facet normal 0.86602540378444 -0.499999999999997 -1.09558060449208e-013
outer loop
vertex 8.7000000000008 5.50000000000019 4.99999999999955
vertex 9.60000000000006 7.05884572681201 -6.36607433435188e-013
vertex 9.60000000000079 7.05884572681219 4.99999999999935
endloop
endfacet
facet normal 0.866025403784433 0.500000000000009 -1.45911498794287e-013
outer loop
vertex 39.7 36.5 -6.1834815046069e-012
vertex 40.6000000000008 34.9411542731882 4.99999999999375
vertex 40.6 34.941154273188 -6.24199580911977e-012
endloop
endfacet
facet normal 0.866025403784433 0.500000000000009 -1.45911498794287e-013
outer loop
vertex 40.6000000000008 34.9411542731882 4.99999999999375
vertex 39.7 36.5 -6.1834815046069e-012
vertex 39.7000000000008 36.5000000000002 4.99999999999381
endloop
endfacet
facet normal -1.91131666851751e-008 -0.923879532511304 0.382683432365048
outer loop
vertex 36.0000008287559 54.2000008559793 9.99999965165251
vertex 31.0000005439981 53.5556359247945 8.4443648459427
vertex 36.0000007742722 53.5556357745898 8.44436473304209
endloop
endfacet
facet normal -1.91131666851751e-008 -0.923879532511304 0.382683432365048
outer loop
vertex 31.0000005439981 53.5556359247945 8.4443648459427
vertex 36.0000008287559 54.2000008559793 9.99999965165251
vertex 31.0000005984818 54.200001006184 9.99999976455311
endloop
endfacet
facet normal -0.768051342894179 -0.640388268692087 1.36612209847079e-013
outer loop
vertex 35.7863703591505 27.1472283282853 4.99999999999468
vertex 34.1317279836453 29.1317279836449 -5.2091830848866e-012
vertex 35.7863703591498 27.1472283282851 -5.31281685312024e-012
endloop
endfacet
facet normal -0.768051342894179 -0.640388268692087 1.36612209847079e-013
outer loop
vertex 34.1317279836453 29.1317279836449 -5.2091830848866e-012
vertex 35.7863703591505 27.1472283282853 4.99999999999468
vertex 34.131727983646 29.131727983645 4.99999999999478
endloop
endfacet
facet normal 0.995273646519675 0.0971100846638942 -1.50165534973311e-013
outer loop
vertex 17.5841854160413 11.2111515646473 -1.91828219975321e-012
vertex 17.8682720163554 8.29957026390091 4.99999999999809
vertex 17.8682720163547 8.29957026390073 -1.89854243437537e-012
endloop
endfacet
facet normal 0.995273646519675 0.0971100846638942 -1.50165534973311e-013
outer loop
vertex 17.8682720163554 8.29957026390091 4.99999999999809
vertex 17.5841854160413 11.2111515646473 -1.91828219975321e-012
vertex 17.584185416042 11.2111515646474 4.99999999999807
endloop
endfacet
facet normal 0.113746964270424 -0.993509752402694 -1.20129275749591e-014
outer loop
vertex 10.036857950009 0.268956008202181 4.99999999999889
vertex 7.68769268806011 0.0 -8.26250179386534e-013
vertex 10.0368579500085 0.268956008202181 -1.05960240581737e-012
endloop
endfacet
facet normal 0.113746964270424 -0.993509752402694 -1.20129275749591e-014
outer loop
vertex 7.68769268806011 0.0 -8.26250179386534e-013
vertex 10.036857950009 0.268956008202181 4.99999999999889
vertex 7.68769268806064 0.0 4.99999999999912
endloop
endfacet
facet normal 0.335354090715157 -0.942092157827784 -3.56948175718792e-014
outer loop
vertex 12.2644457168838 1.06190462139407 4.99999999999866
vertex 10.0368579500085 0.268956008202181 -1.05960240581737e-012
vertex 12.2644457168833 1.06190462139407 -1.28237975793866e-012
endloop
endfacet
facet normal 0.335354090715157 -0.942092157827784 -3.56948175718792e-014
outer loop
vertex 10.0368579500085 0.268956008202181 -1.05960240581737e-012
vertex 12.2644457168838 1.06190462139407 4.99999999999866
vertex 10.036857950009 0.268956008202181 4.99999999999889
endloop
endfacet
facet normal 0.855203413973245 -0.518292504989708 -9.02602780907286e-014
outer loop
vertex 17.1315141078604 6.05277197598873 -1.80971349017511e-012
vertex 15.906005505348 4.0306336455425 4.99999999999827
vertex 15.9060055053474 4.0306336455425 -1.67717506549536e-012
endloop
endfacet
facet normal 0.855203413973245 -0.518292504989708 -9.02602780907286e-014
outer loop
vertex 15.906005505348 4.0306336455425 4.99999999999827
vertex 17.1315141078604 6.05277197598873 -1.80971349017511e-012
vertex 17.1315141078609 6.05277197598873 4.99999999999814
endloop
endfacet
facet normal 0.715930390969949 -0.69817166605758 -7.56686260428342e-014
outer loop
vertex 15.9060055053474 4.0306336455425 -1.67717506549536e-012
vertex 14.2551705529857 2.33780798341649 4.99999999999844
vertex 14.2551705529852 2.33780798341649 -1.50656709330121e-012
endloop
endfacet
facet normal 0.715930390969949 -0.69817166605758 -7.56686260428342e-014
outer loop
vertex 14.2551705529857 2.33780798341649 4.99999999999844
vertex 15.9060055053474 4.0306336455425 -1.67717506549536e-012
vertex 15.906005505348 4.0306336455425 4.99999999999827
endloop
endfacet
facet normal 0.539605473410284 -0.841918008517257 -5.71608587011527e-014
outer loop
vertex 14.2551705529857 2.33780798341649 4.99999999999844
vertex 12.2644457168833 1.06190462139407 -1.28237975793866e-012
vertex 14.2551705529852 2.33780798341649 -1.50656709330121e-012
endloop
endfacet
facet normal 0.539605473410284 -0.841918008517257 -5.71608587011527e-014
outer loop
vertex 12.2644457168833 1.06190462139407 -1.28237975793866e-012
vertex 14.2551705529857 2.33780798341649 4.99999999999844
vertex 12.2644457168838 1.06190462139407 4.99999999999866
endloop
endfacet
facet normal -1.46998184336261e-009 1.54995192146874e-009 1.0
outer loop
vertex 8.7000000000008 5.50000000000019 4.99999999999955
vertex 9.60000000000075 34.9411542731881 4.99999999999802
vertex 8.70000000000075 36.5000000000001 4.99999999999808
endloop
endfacet
facet normal -1.46998184336261e-009 1.54995192146874e-009 1.0
outer loop
vertex 9.60000000000075 34.9411542731881 4.99999999999802
vertex 8.7000000000008 5.50000000000019 4.99999999999955
vertex 9.60000000000079 7.05884572681219 4.99999999999935
endloop
endfacet
facet normal -1.46998184336261e-009 1.54995192146874e-009 1.0
outer loop
vertex 9.60000000000075 34.9411542731881 4.99999999999802
vertex 9.60000000000079 7.05884572681219 4.99999999999935
vertex 11.4000000000007 34.9411542731881 4.99999999999777
endloop
endfacet
facet normal -1.46998184336261e-009 1.54995192146874e-009 1.0
outer loop
vertex 11.4000000000007 34.9411542731881 4.99999999999777
vertex 9.60000000000079 7.05884572681219 4.99999999999935
vertex 11.4000000000008 7.05884572681219 4.9999999999991
endloop
endfacet
facet normal -1.46998184336261e-009 1.54995192146874e-009 1.0
outer loop
vertex 11.4000000000007 34.9411542731881 4.99999999999777
vertex 11.4000000000008 7.05884572681219 4.9999999999991
vertex 12.3000000000007 36.5000000000001 4.99999999999758
endloop
endfacet
facet normal -1.46998184336261e-009 1.54995192146874e-009 1.0
outer loop
vertex 12.3000000000007 36.5000000000001 4.99999999999758
vertex 11.4000000000008 7.05884572681219 4.9999999999991
vertex 12.3000000000008 5.50000000000019 4.99999999999904
endloop
endfacet
facet normal -1.46998184336261e-009 1.54995192146874e-009 1.0
outer loop
vertex 7.68769268806064 0.0 4.99999999999912
vertex 8.7000000000008 5.50000000000019 4.99999999999955
vertex 8.70000000000075 36.5000000000001 4.99999999999808
endloop
endfacet
facet normal -1.46998184336261e-009 1.54995192146874e-009 1.0
outer loop
vertex 8.7000000000008 5.50000000000019 4.99999999999955
vertex 7.68769268806064 0.0 4.99999999999912
vertex 10.036857950009 0.268956008202181 4.99999999999889
endloop
endfacet
facet normal -1.46998184336261e-009 1.54995192146874e-009 1.0
outer loop
vertex 8.7000000000008 5.50000000000019 4.99999999999955
vertex 10.036857950009 0.268956008202181 4.99999999999889
vertex 9.60000000000079 3.94115427318819 4.99999999999949
endloop
endfacet
facet normal -1.46998184336261e-009 1.54995192146874e-009 1.0
outer loop
vertex 9.60000000000079 3.94115427318819 4.99999999999949
vertex 10.036857950009 0.268956008202181 4.99999999999889
vertex 11.4000000000008 3.94115427318819 4.99999999999924
endloop
endfacet
facet normal -1.46998184336261e-009 1.54995192146874e-009 1.0
outer loop
vertex 11.4000000000008 3.94115427318819 4.99999999999924
vertex 10.036857950009 0.268956008202181 4.99999999999889
vertex 12.2644457168838 1.06190462139407 4.99999999999866
endloop
endfacet
facet normal -1.46998184336261e-009 1.54995192146874e-009 1.0
outer loop
vertex 11.4000000000008 3.94115427318819 4.99999999999924
vertex 12.2644457168838 1.06190462139407 4.99999999999866
vertex 12.3000000000008 5.50000000000019 4.99999999999904
endloop
endfacet
facet normal -1.46998184336261e-009 1.54995192146874e-009 1.0
outer loop
vertex 12.3000000000008 5.50000000000019 4.99999999999904
vertex 12.2644457168838 1.06190462139407 4.99999999999866
vertex 14.2551705529857 2.33780798341649 4.99999999999844
endloop
endfacet
facet normal -1.46998184336261e-009 1.54995192146874e-009 1.0
outer loop
vertex 15.906005505348 4.0306336455425 4.99999999999827
vertex 14.5000000000007 21.0000000000002 4.99999999999801
vertex 14.2551705529857 2.33780798341649 4.99999999999844
endloop
endfacet
facet normal -1.46998184336261e-009 1.54995192146874e-009 1.0
outer loop
vertex 14.5000000000007 21.0000000000002 4.99999999999801
vertex 15.906005505348 4.0306336455425 4.99999999999827
vertex 15.3753853761209 16.5991405278016 4.99999999999816
endloop
endfacet
facet normal -1.46998184336261e-009 1.54995192146874e-009 1.0
outer loop
vertex 15.3753853761209 16.5991405278016 4.99999999999816
vertex 15.906005505348 4.0306336455425 4.99999999999827
vertex 16.7426417804586 14.0129037265531 4.9999999999981
endloop
endfacet
facet normal -1.46998184336261e-009 1.54995192146874e-009 1.0
outer loop
vertex 16.7426417804586 14.0129037265531 4.9999999999981
vertex 15.906005505348 4.0306336455425 4.99999999999827
vertex 17.1315141078609 6.05277197598873 4.99999999999814
endloop
endfacet
facet normal -1.46998184336261e-009 1.54995192146874e-009 1.0
outer loop
vertex 16.7426417804586 14.0129037265531 4.9999999999981
vertex 17.1315141078609 6.05277197598873 4.99999999999814
vertex 17.584185416042 11.2111515646474 4.99999999999807
endloop
endfacet
facet normal -1.46998184336261e-009 1.54995192146874e-009 1.0
outer loop
vertex 17.584185416042 11.2111515646474 4.99999999999807
vertex 17.1315141078609 6.05277197598873 4.99999999999814
vertex 17.8682720163554 8.29957026390091 4.99999999999809
endloop
endfacet
facet normal -1.46998184336261e-009 1.54995192146874e-009 1.0
outer loop
vertex 4.99999959299551 42.0000006277411 4.99999973948432
vertex 8.70000000000075 36.5000000000001 4.99999999999808
vertex 10.9999997857186 42.0000005792881 4.99999999999801
endloop
endfacet
facet normal -1.46998184336261e-009 1.54995192146874e-009 1.0
outer loop
vertex 8.70000000000075 36.5000000000001 4.99999999999808
vertex 4.99999959299551 42.0000006277411 4.99999973948432
vertex 5.00000000000076 4.84532055367026e-008 5.00000007662108
endloop
endfacet
facet normal -1.46998184336261e-009 1.54995192146874e-009 1.0
outer loop
vertex 8.70000000000075 36.5000000000001 4.99999999999808
vertex 5.00000000000076 4.84532055367026e-008 5.00000007662108
vertex 7.68769268806064 0.0 4.99999999999912
endloop
endfacet
facet normal -1.46998184336261e-009 1.54995192146874e-009 1.0
outer loop
vertex 10.9999997857186 42.0000005792881 4.99999999999801
vertex 8.70000000000075 36.5000000000001 4.99999999999808
vertex 9.60000000000075 38.058845726812 4.99999999999789
endloop
endfacet
facet normal -1.46998184336261e-009 1.54995192146874e-009 1.0
outer loop
vertex 10.9999997857186 42.0000005792881 4.99999999999801
vertex 9.60000000000075 38.058845726812 4.99999999999789
vertex 11.4000000000007 38.058845726812 4.99999999999764
endloop
endfacet
facet normal -1.46998184336261e-009 1.54995192146874e-009 1.0
outer loop
vertex 10.9999997857186 42.0000005792881 4.99999999999801
vertex 11.4000000000007 38.058845726812 4.99999999999764
vertex 20.000000043733 42.0000004442627 4.99999999816418
endloop
endfacet
facet normal -1.46998184336261e-009 1.54995192146874e-009 1.0
outer loop
vertex 20.000000043733 42.0000004442627 4.99999999816418
vertex 11.4000000000007 38.058845726812 4.99999999999764
vertex 12.3000000000007 36.5000000000001 4.99999999999758
endloop
endfacet
facet normal -1.46998184336261e-009 1.54995192146874e-009 1.0
outer loop
vertex 20.000000043733 42.0000004442627 4.99999999816418
vertex 12.3000000000007 36.5000000000001 4.99999999999758
vertex 15.3753853761209 25.4008594721987 4.99999999999762
endloop
endfacet
facet normal -1.46998184336261e-009 1.54995192146874e-009 1.0
outer loop
vertex 15.3753853761209 25.4008594721987 4.99999999999762
vertex 12.3000000000007 36.5000000000001 4.99999999999758
vertex 14.5000000000007 21.0000000000002 4.99999999999801
endloop
endfacet
facet normal -1.46998184336261e-009 1.54995192146874e-009 1.0
outer loop
vertex 14.5000000000007 21.0000000000002 4.99999999999801
vertex 12.3000000000007 36.5000000000001 4.99999999999758
vertex 12.3000000000008 5.50000000000019 4.99999999999904
endloop
endfacet
facet normal -1.46998184336261e-009 1.54995192146874e-009 1.0
outer loop
vertex 14.5000000000007 21.0000000000002 4.99999999999801
vertex 12.3000000000008 5.50000000000019 4.99999999999904
vertex 14.2551705529857 2.33780798341649 4.99999999999844
endloop
endfacet
facet normal -1.46998184336261e-009 1.54995192146874e-009 1.0
outer loop
vertex 20.000000043733 42.0000004442627 4.99999999816418
vertex 15.3753853761209 25.4008594721987 4.99999999999762
vertex 17.8682720163554 29.131727983645 4.99999999999703
endloop
endfacet
facet normal -1.46998184336261e-009 1.54995192146874e-009 1.0
outer loop
vertex 20.000000043733 42.0000004442627 4.99999999816418
vertex 17.8682720163554 29.131727983645 4.99999999999703
vertex 21.5991405278022 31.6246146238793 4.99999999999636
endloop
endfacet
facet normal -1.46998184336261e-009 1.54995192146874e-009 1.0
outer loop
vertex 40.5658639918234 25.4008594721987 4.99999999999418
vertex 39.7000000000008 36.5000000000002 4.99999999999381
vertex 38.0215878881806 25.8511253729402 4.99999999999448
endloop
endfacet
facet normal -1.46998184336261e-009 1.54995192146874e-009 1.0
outer loop
vertex 39.7000000000008 36.5000000000002 4.99999999999381
vertex 40.5658639918234 25.4008594721987 4.99999999999418
vertex 40.6000000000008 34.9411542731882 4.99999999999375
endloop
endfacet
facet normal -1.46998184336261e-009 1.54995192146874e-009 1.0
outer loop
vertex 40.6000000000008 34.9411542731882 4.99999999999375
vertex 40.5658639918234 25.4008594721987 4.99999999999418
vertex 43.1101400954661 25.8511253729402 4.99999999999384
endloop
endfacet
facet normal -1.46998184336261e-009 1.54995192146874e-009 1.0
outer loop
vertex 40.6000000000008 34.9411542731882 4.99999999999375
vertex 43.1101400954661 25.8511253729402 4.99999999999384
vertex 42.4000000000008 34.9411542731882 4.9999999999935
endloop
endfacet
facet normal -1.46998184336261e-009 1.54995192146874e-009 1.0
outer loop
vertex 42.4000000000008 34.9411542731882 4.9999999999935
vertex 43.1101400954661 25.8511253729402 4.99999999999384
vertex 43.3000000000008 36.5000000000002 4.9999999999933
endloop
endfacet
facet normal -1.46998184336261e-009 1.54995192146874e-009 1.0
outer loop
vertex 43.3000000000008 36.5000000000002 4.9999999999933
vertex 43.1101400954661 25.8511253729402 4.99999999999384
vertex 45.3453576244962 27.1472283282853 4.99999999999348
endloop
endfacet
facet normal -1.46998184336261e-009 1.54995192146874e-009 1.0
outer loop
vertex 20.000000043733 42.0000004442627 4.99999999816418
vertex 22.0000001162899 42.0000004460763 5.00000000132447
vertex 19.9999999711761 44.0000004451695 4.99999999684839
endloop
endfacet
facet normal -1.46998184336261e-009 1.54995192146874e-009 1.0
outer loop
vertex 22.0000001162899 42.0000004460763 5.00000000132447
vertex 20.000000043733 42.0000004442627 4.99999999816418
vertex 21.5991405278022 31.6246146238793 4.99999999999636
endloop
endfacet
facet normal -1.46998184336261e-009 1.54995192146874e-009 1.0
outer loop
vertex 22.0000001162899 42.0000004460763 5.00000000132447
vertex 21.5991405278022 31.6246146238793 4.99999999999636
vertex 26.0000000000007 32.4999999999996 4.99999999999569
endloop
endfacet
facet normal -1.46998184336261e-009 1.54995192146874e-009 1.0
outer loop
vertex 22.0000001162899 42.0000004460763 5.00000000132447
vertex 26.0000000000007 32.4999999999996 4.99999999999569
vertex 31.0000001566337 42.0000003110509 4.99999999999441
endloop
endfacet
facet normal -1.46998184336261e-009 1.54995192146874e-009 1.0
outer loop
vertex 31.0000001566337 42.0000003110509 4.99999999999441
vertex 26.0000000000007 32.4999999999996 4.99999999999569
vertex 30.4008594721993 31.6246146238793 4.99999999999514
endloop
endfacet
facet normal -1.46998184336261e-009 1.54995192146874e-009 1.0
outer loop
vertex 31.0000001566337 42.0000003110509 4.99999999999441
vertex 30.4008594721993 31.6246146238793 4.99999999999514
vertex 34.131727983646 29.131727983645 4.99999999999478
endloop
endfacet
facet normal -1.46998184336261e-009 1.54995192146874e-009 1.0
outer loop
vertex 31.0000001566337 42.0000003110509 4.99999999999441
vertex 34.131727983646 29.131727983645 4.99999999999478
vertex 40.6000000000008 38.0588457268121 4.99999999999361
endloop
endfacet
facet normal -1.46998184336261e-009 1.54995192146874e-009 1.0
outer loop
vertex 31.0000001566337 42.0000003110509 4.99999999999441
vertex 40.6000000000008 38.0588457268121 4.99999999999361
vertex 47.0000000000007 42.0000000000001 4.99999999999153
endloop
endfacet
facet normal -1.46998184336261e-009 1.54995192146874e-009 1.0
outer loop
vertex 40.6000000000008 38.0588457268121 4.99999999999361
vertex 34.131727983646 29.131727983645 4.99999999999478
vertex 39.7000000000008 36.5000000000002 4.99999999999381
endloop
endfacet
facet normal -1.46998184336261e-009 1.54995192146874e-009 1.0
outer loop
vertex 39.7000000000008 36.5000000000002 4.99999999999381
vertex 34.131727983646 29.131727983645 4.99999999999478
vertex 35.7863703591505 27.1472283282853 4.99999999999468
endloop
endfacet
facet normal -1.46998184336261e-009 1.54995192146874e-009 1.0
outer loop
vertex 39.7000000000008 36.5000000000002 4.99999999999381
vertex 35.7863703591505 27.1472283282853 4.99999999999468
vertex 38.0215878881806 25.8511253729402 4.99999999999448
endloop
endfacet
facet normal -1.46998184336261e-009 1.54995192146874e-009 1.0
outer loop
vertex 47.0000000000007 42.0000000000001 4.99999999999153
vertex 40.6000000000008 38.0588457268121 4.99999999999361
vertex 42.4000000000008 38.0588457268121 4.99999999999336
endloop
endfacet
facet normal -1.46998184336261e-009 1.54995192146874e-009 1.0
outer loop
vertex 47.0000000000007 42.0000000000001 4.99999999999153
vertex 42.4000000000008 38.0588457268121 4.99999999999336
vertex 43.3000000000008 36.5000000000002 4.9999999999933
endloop
endfacet
facet normal -1.46998184336261e-009 1.54995192146874e-009 1.0
outer loop
vertex 47.0000000000007 42.0000000000001 4.99999999999153
vertex 43.3000000000008 36.5000000000002 4.9999999999933
vertex 45.3453576244962 27.1472283282853 4.99999999999348
endloop
endfacet
facet normal -1.46998184336261e-009 1.54995192146874e-009 1.0
outer loop
vertex 47.0000000000007 42.0000000000001 4.99999999999153
vertex 45.3453576244962 27.1472283282853 4.99999999999348
vertex 47.0000000000007 29.131727983645 4.99999999999317
endloop
endfacet
facet normal -9.66931447598883e-009 -0.429933562751844 0.90286052722417
outer loop
vertex 7.55751017322837e-013 1.80477854883065e-013 4.99999999999999
vertex 4.99999928651112 42.0000014545274 24.9999997394843
vertex -7.13488884640512e-007 42.0000014060744 24.9999996628632
endloop
endfacet
facet normal -9.66931447598883e-009 -0.429933562751844 0.90286052722417
outer loop
vertex 4.99999928651112 42.0000014545274 24.9999997394843
vertex 7.55751017322837e-013 1.80477854883065e-013 4.99999999999999
vertex 5.00000000000076 4.84532055367026e-008 5.00000007662108
endloop
endfacet
facet normal 0.999999999999999 2.77591881004869e-008 2.14847444623985e-008
outer loop
vertex 10.9999994429157 61.9999998342448 -9.95356661837032e-007
vertex 10.9999997857186 42.0000005792881 4.99999999999801
vertex 11.000000043733 42.0000000816109 -2.00358618585028e-012
endloop
endfacet
facet normal 0.999999999999999 2.77591881004869e-008 2.14847444623985e-008
outer loop
vertex 10.9999997857186 42.0000005792881 4.99999999999801
vertex 10.9999994429157 61.9999998342448 -9.95356661837032e-007
vertex 10.9999984527756 50.4443653980879 8.4443648066038
endloop
endfacet
facet normal 0.999999999999999 2.77591881004869e-008 2.14847444623985e-008
outer loop
vertex 10.9999997857186 42.0000005792881 4.99999999999801
vertex 10.9999984527756 50.4443653980879 8.4443648066038
vertex 10.9999994792342 42.0000014060744 24.999999999998
endloop
endfacet
facet normal 0.999999999999999 2.77591881004869e-008 2.14847444623985e-008
outer loop
vertex 10.9999994792342 42.0000014060744 24.999999999998
vertex 10.9999984527756 50.4443653980879 8.4443648066038
vertex 10.9999984685448 49.8000003166984 9.99999972521419
endloop
endfacet
facet normal 0.999999999999999 2.77591881004869e-008 2.14847444623985e-008
outer loop
vertex 10.9999984527756 50.4443653980879 8.4443648066038
vertex 10.9999994429157 61.9999998342448 -9.95356661837032e-007
vertex 10.9999984849584 52.0000003166984 7.7999997252142
endloop
endfacet
facet normal 0.999999999999999 2.77591881004869e-008 2.14847444623985e-008
outer loop
vertex 10.9999984849584 52.0000003166984 7.7999997252142
vertex 10.9999994429157 61.9999998342448 -9.95356661837032e-007
vertex 10.9999985462408 53.5556352353088 8.44436480660378
endloop
endfacet
facet normal 0.999999999999999 2.77591881004869e-008 2.14847444623985e-008
outer loop
vertex 10.9999985462408 53.5556352353088 8.44436480660378
vertex 10.9999994429157 61.9999998342448 -9.95356661837032e-007
vertex 10.9999986007246 54.2000003166983 9.99999972521419
endloop
endfacet
facet normal 0.999999999999999 2.77591881004869e-008 2.14847444623985e-008
outer loop
vertex 10.9999986007246 54.2000003166983 9.99999972521419
vertex 10.9999994429157 61.9999998342448 -9.95356661837032e-007
vertex 10.9999989510965 54.500001099344 24.9999993863299
endloop
endfacet
facet normal 0.999999999999999 2.77591881004869e-008 2.14847444623985e-008
outer loop
vertex 10.9999989510965 54.500001099344 24.9999993863299
vertex 10.9999994429157 61.9999998342448 -9.95356661837032e-007
vertex 10.9999990010104 62.0000003553024 14.9999991394982
endloop
endfacet
facet normal 0.999999999999999 2.77591881004869e-008 2.14847444623985e-008
outer loop
vertex 10.9999984685448 49.8000003166984 9.99999972521419
vertex 10.9999989510965 54.500001099344 24.9999993863299
vertex 10.9999994792342 42.0000014060744 24.999999999998
endloop
endfacet
facet normal 0.999999999999999 2.77591881004869e-008 2.14847444623985e-008
outer loop
vertex 10.9999989510965 54.500001099344 24.9999993863299
vertex 10.9999984685448 49.8000003166984 9.99999972521419
vertex 10.9999985230285 50.4443653980879 11.5556346438246
endloop
endfacet
facet normal 0.999999999999999 2.77591881004869e-008 2.14847444623985e-008
outer loop
vertex 10.9999989510965 54.500001099344 24.9999993863299
vertex 10.9999985230285 50.4443653980879 11.5556346438246
vertex 10.9999985843109 52.0000003166984 12.1999997252142
endloop
endfacet
facet normal 0.999999999999999 2.77591881004869e-008 2.14847444623985e-008
outer loop
vertex 10.9999989510965 54.500001099344 24.9999993863299
vertex 10.9999985843109 52.0000003166984 12.1999997252142
vertex 10.9999986164937 53.5556352353088 11.5556346438246
endloop
endfacet
facet normal 0.999999999999999 2.77591881004869e-008 2.14847444623985e-008
outer loop
vertex 10.9999989510965 54.500001099344 24.9999993863299
vertex 10.9999986164937 53.5556352353088 11.5556346438246
vertex 10.9999986007246 54.2000003166983 9.99999972521419
endloop
endfacet
facet normal 6.22510135300393e-010 -1.0 3.18224464140396e-009
outer loop
vertex 7.68769268806064 0.0 4.99999999999912
vertex 2.25597318603832e-014 0.0 0.0
vertex 7.68769268806011 0.0 -8.26250179386534e-013
endloop
endfacet
facet normal 6.22510135300393e-010 -1.0 3.18224464140396e-009
outer loop
vertex 2.25597318603832e-014 0.0 0.0
vertex 7.68769268806064 0.0 4.99999999999912
vertex 7.55751017322837e-013 1.80477854883065e-013 4.99999999999999
endloop
endfacet
facet normal 6.22510135300393e-010 -1.0 3.18224464140396e-009
outer loop
vertex 7.55751017322837e-013 1.80477854883065e-013 4.99999999999999
vertex 7.68769268806064 0.0 4.99999999999912
vertex 5.00000000000076 4.84532055367026e-008 5.00000007662108
endloop
endfacet
facet normal 0.950216677761877 -0.311589899231638 -1.14564009936198e-013
outer loop
vertex 17.8682720163547 8.29957026390073 -1.89854243437537e-012
vertex 17.1315141078609 6.05277197598873 4.99999999999814
vertex 17.1315141078604 6.05277197598873 -1.80971349017511e-012
endloop
endfacet
facet normal 0.950216677761877 -0.311589899231638 -1.14564009936198e-013
outer loop
vertex 17.1315141078609 6.05277197598873 4.99999999999814
vertex 17.8682720163547 8.29957026390073 -1.89854243437537e-012
vertex 17.8682720163554 8.29957026390091 4.99999999999809
endloop
endfacet
facet normal -0.999999999999999 3.19138424465639e-008 2.78303285003469e-008
outer loop
vertex 31.0000005469386 42.0000012119032 19.9999999999944
vertex 31.0000005207857 50.4443660875735 11.5556346831635
vertex 31.000000466302 49.800001006184 9.99999976455311
endloop
endfacet
facet normal -0.999999999999999 3.19138424465639e-008 2.78303285003469e-008
outer loop
vertex 31.0000005207857 50.4443660875735 11.5556346831635
vertex 31.0000005469386 42.0000012119032 19.9999999999944
vertex 31.0000010750763 54.5000009051728 19.9999993863262
endloop
endfacet
facet normal -0.999999999999999 3.19138424465639e-008 2.78303285003469e-008
outer loop
vertex 31.0000005207857 50.4443660875735 11.5556346831635
vertex 31.0000010750763 54.5000009051728 19.9999993863262
vertex 31.0000005820682 52.000001006184 12.1999997645531
endloop
endfacet
facet normal -0.999999999999999 3.19138424465639e-008 2.78303285003469e-008
outer loop
vertex 31.0000005820682 52.000001006184 12.1999997645531
vertex 31.0000010750763 54.5000009051728 19.9999993863262
vertex 31.0000006142509 53.5556359247945 11.5556346831635
endloop
endfacet
facet normal -0.999999999999999 3.19138424465639e-008 2.78303285003469e-008
outer loop
vertex 31.0000006142509 53.5556359247945 11.5556346831635
vertex 31.0000010750763 54.5000009051728 19.9999993863262
vertex 31.0000005984818 54.200001006184 9.99999976455311
endloop
endfacet
facet normal -0.999999999999999 3.19138424465639e-008 2.78303285003469e-008
outer loop
vertex 31.0000001566337 42.0000003110509 4.99999999999441
vertex 31.0000006445503 61.9999998523815 -9.95360262934231e-007
vertex 31.000000043733 42.0000000997477 -5.60468338406395e-012
endloop
endfacet
facet normal -0.999999999999999 3.19138424465639e-008 2.78303285003469e-008
outer loop
vertex 31.0000006445503 61.9999998523815 -9.95360262934231e-007
vertex 31.0000001566337 42.0000003110509 4.99999999999441
vertex 31.0000004505328 50.4443660875735 8.44436484594272
endloop
endfacet
facet normal -0.999999999999999 3.19138424465639e-008 2.78303285003469e-008
outer loop
vertex 31.0000004505328 50.4443660875735 8.44436484594272
vertex 31.0000001566337 42.0000003110509 4.99999999999441
vertex 31.0000005469386 42.0000012119032 19.9999999999944
endloop
endfacet
facet normal -0.999999999999999 3.19138424465639e-008 2.78303285003469e-008
outer loop
vertex 31.0000004505328 50.4443660875735 8.44436484594272
vertex 31.0000005469386 42.0000012119032 19.9999999999944
vertex 31.000000466302 49.800001006184 9.99999976455311
endloop
endfacet
facet normal -0.999999999999999 3.19138424465639e-008 2.78303285003469e-008
outer loop
vertex 31.0000006445503 61.9999998523815 -9.95360262934231e-007
vertex 31.0000004505328 50.4443660875735 8.44436484594272
vertex 31.0000004827156 52.000001006184 7.79999976455312
endloop
endfacet
facet normal -0.999999999999999 3.19138424465639e-008 2.78303285003469e-008
outer loop
vertex 31.0000006445503 61.9999998523815 -9.95360262934231e-007
vertex 31.0000004827156 52.000001006184 7.79999976455312
vertex 31.0000005439981 53.5556359247945 8.4443648459427
endloop
endfacet
facet normal -0.999999999999999 3.19138424465639e-008 2.78303285003469e-008
outer loop
vertex 31.0000006445503 61.9999998523815 -9.95360262934231e-007
vertex 31.0000005439981 53.5556359247945 8.4443648459427
vertex 31.0000005984818 54.200001006184 9.99999976455311
endloop
endfacet
facet normal -0.999999999999999 3.19138424465639e-008 2.78303285003469e-008
outer loop
vertex 31.0000006445503 61.9999998523815 -9.95360262934231e-007
vertex 31.0000005984818 54.200001006184 9.99999976455311
vertex 31.0000010750763 54.5000009051728 19.9999993863262
endloop
endfacet
facet normal -0.999999999999999 3.19138424465639e-008 2.78303285003469e-008
outer loop
vertex 31.0000006445503 61.9999998523815 -9.95360262934231e-007
vertex 31.0000010750763 54.5000009051728 19.9999993863262
vertex 31.0000010558094 62.0000002672851 12.4999995528216
endloop
endfacet
facet normal -5.0508900442626e-027 1.0 -3.60955709766132e-014
outer loop
vertex 9.60000000000006 3.94115427318801 -5.01249042272889e-013
vertex 11.4000000000008 3.94115427318819 4.99999999999924
vertex 11.4000000000001 3.94115427318801 -7.53636042460926e-013
endloop
endfacet
facet normal -5.0508900442626e-027 1.0 -3.60955709766132e-014
outer loop
vertex 11.4000000000008 3.94115427318819 4.99999999999924
vertex 9.60000000000006 3.94115427318801 -5.01249042272889e-013
vertex 9.60000000000079 3.94115427318819 4.99999999999949
endloop
endfacet
facet normal -0.86602540378444 0.499999999999997 1.09562906615641e-013
outer loop
vertex 11.4000000000008 3.94115427318819 4.99999999999924
vertex 12.3000000000001 5.50000000000001 -9.46803746515457e-013
vertex 11.4000000000001 3.94115427318801 -7.53636042460926e-013
endloop
endfacet
facet normal -0.86602540378444 0.499999999999997 1.09562906615641e-013
outer loop
vertex 12.3000000000001 5.50000000000001 -9.46803746515457e-013
vertex 11.4000000000008 3.94115427318819 4.99999999999924
vertex 12.3000000000008 5.50000000000019 4.99999999999904
endloop
endfacet
facet normal 1.0 -9.69060779127281e-009 -1.22595305907038e-008
outer loop
vertex 36.0000006042217 47.0000008209258 4.99999923472459
vertex 36.0000006965761 49.8000008559793 9.99999965165251
vertex 36.0000007881147 47.0000012700469 19.9999995718603
endloop
endfacet
facet normal 1.0 -9.69060779127281e-009 -1.22595305907038e-008
outer loop
vertex 36.0000006965761 49.8000008559793 9.99999965165251
vertex 36.0000006042217 47.0000008209258 4.99999923472459
vertex 36.000000680807 50.4443659373689 8.44436473304212
endloop
endfacet
facet normal 1.0 -9.69060779127281e-009 -1.22595305907038e-008
outer loop
vertex 36.000000680807 50.4443659373689 8.44436473304212
vertex 36.0000006042217 47.0000008209258 4.99999923472459
vertex 36.0000007129898 52.0000008559793 7.79999965165251
endloop
endfacet
facet normal 1.0 -9.69060779127281e-009 -1.22595305907038e-008
outer loop
vertex 36.0000007129898 52.0000008559793 7.79999965165251
vertex 36.0000006042217 47.0000008209258 4.99999923472459
vertex 36.0000007495809 61.9999999942714 4.99999907819693
endloop
endfacet
facet normal 1.0 -9.69060779127281e-009 -1.22595305907038e-008
outer loop
vertex 36.0000007129898 52.0000008559793 7.79999965165251
vertex 36.0000007495809 61.9999999942714 4.99999907819693
vertex 36.0000007742722 53.5556357745898 8.44436473304209
endloop
endfacet
facet normal 1.0 -9.69060779127281e-009 -1.22595305907038e-008
outer loop
vertex 36.0000007742722 53.5556357745898 8.44436473304209
vertex 36.0000007495809 61.9999999942714 4.99999907819693
vertex 36.0000008287559 54.2000008559793 9.99999965165251
endloop
endfacet
facet normal 1.0 -9.69060779127281e-009 -1.22595305907038e-008
outer loop
vertex 36.0000008287559 54.2000008559793 9.99999965165251
vertex 36.0000007495809 61.9999999942714 4.99999907819693
vertex 36.0000008607942 54.5000008567198 19.9999993250286
endloop
endfacet
facet normal 1.0 -9.69060779127281e-009 -1.22595305907038e-008
outer loop
vertex 36.0000008607942 54.5000008567198 19.9999993250286
vertex 36.0000007495809 61.9999999942714 4.99999907819693
vertex 36.0000008415273 62.0000002188321 12.499999491524
endloop
endfacet
facet normal 1.0 -9.69060779127281e-009 -1.22595305907038e-008
outer loop
vertex 36.0000007881147 47.0000012700469 19.9999995718603
vertex 36.0000007510599 50.4443659373689 11.5556345702629
vertex 36.0000008607942 54.5000008567198 19.9999993250286
endloop
endfacet
facet normal 1.0 -9.69060779127281e-009 -1.22595305907038e-008
outer loop
vertex 36.0000007510599 50.4443659373689 11.5556345702629
vertex 36.0000007881147 47.0000012700469 19.9999995718603
vertex 36.0000006965761 49.8000008559793 9.99999965165251
endloop
endfacet
facet normal 1.0 -9.69060779127281e-009 -1.22595305907038e-008
outer loop
vertex 36.0000008607942 54.5000008567198 19.9999993250286
vertex 36.0000007510599 50.4443659373689 11.5556345702629
vertex 36.0000008123423 52.0000008559793 12.1999996516525
endloop
endfacet
facet normal 1.0 -9.69060779127281e-009 -1.22595305907038e-008
outer loop
vertex 36.0000008607942 54.5000008567198 19.9999993250286
vertex 36.0000008123423 52.0000008559793 12.1999996516525
vertex 36.0000008445251 53.5556357745898 11.5556345702629
endloop
endfacet
facet normal 1.0 -9.69060779127281e-009 -1.22595305907038e-008
outer loop
vertex 36.0000008607942 54.5000008567198 19.9999993250286
vertex 36.0000008445251 53.5556357745898 11.5556345702629
vertex 36.0000008287559 54.2000008559793 9.99999965165251
endloop
endfacet
facet normal 1.55210802992534e-008 0.707106803408196 0.707106758964899
outer loop
vertex 31.0000010558094 62.0000002672851 12.4999995528216
vertex 36.0000008607942 54.5000008567198 19.9999993250286
vertex 36.0000008415273 62.0000002188321 12.499999491524
endloop
endfacet
facet normal 1.55210802992534e-008 0.707106803408196 0.707106758964899
outer loop
vertex 36.0000008607942 54.5000008567198 19.9999993250286
vertex 31.0000010558094 62.0000002672851 12.4999995528216
vertex 31.0000010750763 54.5000009051728 19.9999993863262
endloop
endfacet
facet normal -1.0 -9.69060777090561e-009 -1.22593504680141e-008
outer loop
vertex 5.99999916537861 54.500001050891 24.9999993250331
vertex 5.99999857027193 49.8000004669029 9.99999983811479
vertex 5.99999923805811 47.0000014642181 24.9999995718648
endloop
endfacet
facet normal -1.0 -9.69060777090561e-009 -1.22593504680141e-008
outer loop
vertex 5.99999857027193 49.8000004669029 9.99999983811479
vertex 5.99999916537861 54.500001050891 24.9999993250331
vertex 5.99999862475565 50.4443655482924 11.5556347567252
endloop
endfacet
facet normal -1.0 -9.69060777090561e-009 -1.22593504680141e-008
outer loop
vertex 5.99999862475565 50.4443655482924 11.5556347567252
vertex 5.99999916537861 54.500001050891 24.9999993250331
vertex 5.99999868603812 52.0000004669029 12.1999998381148
endloop
endfacet
facet normal -1.0 -9.69060777090561e-009 -1.22593504680141e-008
outer loop
vertex 5.99999868603812 52.0000004669029 12.1999998381148
vertex 5.99999916537861 54.500001050891 24.9999993250331
vertex 5.99999871822088 53.5556353855133 11.5556347567252
endloop
endfacet
facet normal -1.0 -9.69060777090561e-009 -1.22593504680141e-008
outer loop
vertex 5.99999871822088 53.5556353855133 11.5556347567252
vertex 5.99999916537861 54.500001050891 24.9999993250331
vertex 5.99999870245173 54.2000004669028 9.99999983811479
endloop
endfacet
facet normal -1.0 -9.69060777090561e-009 -1.22593504680141e-008
outer loop
vertex 5.99999948324518 47.000000802789 4.99999923472908
vertex 5.99999858668555 52.0000004669029 7.7999998381148
vertex 5.99999933788603 61.9999999761347 4.99999907820143
endloop
endfacet
facet normal -1.0 -9.69060777090561e-009 -1.22593504680141e-008
outer loop
vertex 5.99999858668555 52.0000004669029 7.7999998381148
vertex 5.99999948324518 47.000000802789 4.99999923472908
vertex 5.99999855450278 50.4443655482924 8.4443649195044
endloop
endfacet
facet normal -1.0 -9.69060777090561e-009 -1.22593504680141e-008
outer loop
vertex 5.99999855450278 50.4443655482924 8.4443649195044
vertex 5.99999948324518 47.000000802789 4.99999923472908
vertex 5.99999857027193 49.8000004669029 9.99999983811479
endloop
endfacet
facet normal -1.0 -9.69060777090561e-009 -1.22593504680141e-008
outer loop
vertex 5.99999857027193 49.8000004669029 9.99999983811479
vertex 5.99999948324518 47.000000802789 4.99999923472908
vertex 5.99999923805811 47.0000014642181 24.9999995718648
endloop
endfacet
facet normal -1.0 -9.69060777090561e-009 -1.22593504680141e-008
outer loop
vertex 5.99999933788603 61.9999999761347 4.99999907820143
vertex 5.99999858668555 52.0000004669029 7.7999998381148
vertex 5.99999864796801 53.5556353855133 8.44436491950438
endloop
endfacet
facet normal -1.0 -9.69060777090561e-009 -1.22593504680141e-008
outer loop
vertex 5.99999933788603 61.9999999761347 4.99999907820143
vertex 5.99999864796801 53.5556353855133 8.44436491950438
vertex 5.99999870245173 54.2000004669028 9.99999983811479
endloop
endfacet
facet normal -1.0 -9.69060777090561e-009 -1.22593504680141e-008
outer loop
vertex 5.99999933788603 61.9999999761347 4.99999907820143
vertex 5.99999870245173 54.2000004669028 9.99999983811479
vertex 5.99999916537861 54.500001050891 24.9999993250331
endloop
endfacet
facet normal -1.0 -9.69060777090561e-009 -1.22593504680141e-008
outer loop
vertex 5.99999933788603 61.9999999761347 4.99999907820143
vertex 5.99999916537861 54.500001050891 24.9999993250331
vertex 5.99999921529257 62.0000003068493 14.9999990782014
endloop
endfacet
facet normal -1.51080883431205e-008 0.800000035679953 0.599999952426726
outer loop
vertex 5.99999916537861 54.500001050891 24.9999993250331
vertex 10.9999990010104 62.0000003553024 14.9999991394982
vertex 5.99999921529257 62.0000003068493 14.9999990782014
endloop
endfacet
facet normal -1.51080883431205e-008 0.800000035679953 0.599999952426726
outer loop
vertex 10.9999990010104 62.0000003553024 14.9999991394982
vertex 5.99999916537861 54.500001050891 24.9999993250331
vertex 10.9999989510965 54.500001099344 24.9999993863299
endloop
endfacet
facet normal -0.999999999999999 -3.62784302862883e-008 -1.45113695452068e-008
outer loop
vertex 20.000000043733 42.0000004442627 4.99999999816418
vertex 20.000000043733 44.0000000906793 -3.15162622677004e-009
vertex 20.0000001162899 42.0000000897725 -1.83583667141157e-009
endloop
endfacet
facet normal -0.999999999999999 -3.62784302862883e-008 -1.45113695452068e-008
outer loop
vertex 20.000000043733 44.0000000906793 -3.15162622677004e-009
vertex 20.000000043733 42.0000004442627 4.99999999816418
vertex 19.9999999711761 44.0000004451695 4.99999999684839
endloop
endfacet
facet normal 7.04799355104744e-009 0.999999999999996 -8.52167338451437e-008
outer loop
vertex 11.000000043733 42.0000000816109 -2.00358618585028e-012
vertex 20.000000043733 42.0000004442627 4.99999999816418
vertex 20.0000001162899 42.0000000897725 -1.83583667141157e-009
endloop
endfacet
facet normal 7.04799355104744e-009 0.999999999999996 -8.52167338451437e-008
outer loop
vertex 20.000000043733 42.0000004442627 4.99999999816418
vertex 11.000000043733 42.0000000816109 -2.00358618585028e-012
vertex 10.9999997857186 42.0000005792881 4.99999999999801
endloop
endfacet
facet normal 0.707106755373517 0.707106806999576 -3.98713947353821e-008
outer loop
vertex 19.9999999711761 44.0000004451695 4.99999999684839
vertex 22.0000001888467 42.0000000915861 1.32446156018229e-009
vertex 20.000000043733 44.0000000906793 -3.15162622677004e-009
endloop
endfacet
facet normal 0.707106755373517 0.707106806999576 -3.98713947353821e-008
outer loop
vertex 22.0000001888467 42.0000000915861 1.32446156018229e-009
vertex 19.9999999711761 44.0000004451695 4.99999999684839
vertex 22.0000001162899 42.0000004460763 5.00000000132447
endloop
endfacet
endsolid Y Motor Bracket
