solid lead screw support
facet normal -1.88331819584746e-013 -1.00566944570498e-017 1.0
outer loop
vertex 10.3844617305937 27.2237907807417 12.9999999999976
vertex 9.99999999999502 33.1175469492512 12.9999999999975
vertex 9.38443531115922 28.7204360828863 12.9999999999974
endloop
endfacet
facet normal -1.88331819584746e-013 -1.00566944570498e-017 1.0
outer loop
vertex 9.99999999999502 33.1175469492512 12.9999999999975
vertex 10.3844617305937 27.2237907807417 12.9999999999976
vertex 11.9098300562463 27.2396944263268 12.9999999999979
endloop
endfacet
facet normal -1.88331819584746e-013 -1.00566944570498e-017 1.0
outer loop
vertex 11.9098300562463 27.2396944263268 12.9999999999979
vertex 10.3844617305937 27.2237907807417 12.9999999999976
vertex 11.875198536761 24.9927454860163 12.9999999999978
endloop
endfacet
facet normal -1.88331819584746e-013 -1.00566944570498e-017 1.0
outer loop
vertex 11.9098300562463 27.2396944263268 12.9999999999979
vertex 11.875198536761 24.9927454860163 12.9999999999978
vertex 15.6028891336314 22.5019822604156 12.9999999999985
endloop
endfacet
facet normal -1.88331819584746e-013 -1.00566944570498e-017 1.0
outer loop
vertex 11.9098300562463 27.2396944263268 12.9999999999979
vertex 15.6028891336314 22.5019822604156 12.9999999999985
vertex 16.9098300562467 23.6069817863005 12.9999999999988
endloop
endfacet
facet normal -1.88331819584746e-013 -1.00566944570498e-017 1.0
outer loop
vertex 16.9098300562467 23.6069817863005 12.9999999999988
vertex 15.6028891336314 22.5019822604156 12.9999999999985
vertex 19.9999999999965 21.6273425283567 12.9999999999994
endloop
endfacet
facet normal -1.88331819584746e-013 -1.00566944570498e-017 1.0
outer loop
vertex 16.9098300562467 23.6069817863005 12.9999999999988
vertex 19.9999999999965 21.6273425283567 12.9999999999994
vertex 23.0901699437457 23.6069817863014 13.0
endloop
endfacet
facet normal -1.88331819584746e-013 -1.00566944570498e-017 1.0
outer loop
vertex 23.0901699437457 23.6069817863014 13.0
vertex 19.9999999999965 21.6273425283567 12.9999999999994
vertex 24.3971108663613 22.5019822604167 13.0000000000002
endloop
endfacet
facet normal -1.88331819584746e-013 -1.00566944570498e-017 1.0
outer loop
vertex 23.0901699437457 23.6069817863014 13.0
vertex 24.3971108663613 22.5019822604167 13.0000000000002
vertex 28.0901699437452 27.2396944263288 13.0000000000009
endloop
endfacet
facet normal -1.88331819584746e-013 -1.00566944570498e-017 1.0
outer loop
vertex 28.0901699437452 27.2396944263288 13.0000000000009
vertex 24.3971108663613 22.5019822604167 13.0000000000002
vertex 28.1248014632311 24.9927454860184 13.0000000000009
endloop
endfacet
facet normal -1.88331819584746e-013 -1.00566944570498e-017 1.0
outer loop
vertex 28.0901699437452 27.2396944263288 13.0000000000009
vertex 28.1248014632311 24.9927454860184 13.0000000000009
vertex 29.999999999995 33.1175469492538 13.0000000000013
endloop
endfacet
facet normal -1.88331819584746e-013 -1.00566944570498e-017 1.0
outer loop
vertex 29.999999999995 33.1175469492538 13.0000000000013
vertex 28.1248014632311 24.9927454860184 13.0000000000009
vertex 30.6155646888319 28.720436082889 13.0000000000014
endloop
endfacet
facet normal -1.88331819584746e-013 -1.00566944570498e-017 1.0
outer loop
vertex 29.999999999995 33.1175469492538 13.0000000000013
vertex 30.6155646888319 28.720436082889 13.0000000000014
vertex 30.6155646888308 37.5146578156188 13.0000000000014
endloop
endfacet
facet normal -1.88331819584746e-013 -1.00566944570498e-017 1.0
outer loop
vertex 30.6155646888308 37.5146578156188 13.0000000000014
vertex 30.6155646888319 28.720436082889 13.0000000000014
vertex 31.4902044208908 33.117546949254 13.0000000000015
endloop
endfacet
facet normal -1.88331819584746e-013 -1.00566944570498e-017 1.0
outer loop
vertex 9.38443531115922 28.7204360828863 12.9999999999974
vertex 9.38443531115808 37.5146578156161 12.9999999999974
vertex 8.50979557909918 33.1175469492509 12.9999999999972
endloop
endfacet
facet normal -1.88331819584746e-013 -1.00566944570498e-017 1.0
outer loop
vertex 9.38443531115808 37.5146578156161 12.9999999999974
vertex 9.38443531115922 28.7204360828863 12.9999999999974
vertex 9.99999999999502 33.1175469492512 12.9999999999975
endloop
endfacet
facet normal -1.88331819584746e-013 -1.00566944570498e-017 1.0
outer loop
vertex 9.38443531115808 37.5146578156161 12.9999999999974
vertex 9.99999999999502 33.1175469492512 12.9999999999975
vertex 11.8751985367589 41.2423484124866 12.9999999999978
endloop
endfacet
facet normal -1.88331819584746e-013 -1.00566944570498e-017 1.0
outer loop
vertex 11.8751985367589 41.2423484124866 12.9999999999978
vertex 9.99999999999502 33.1175469492512 12.9999999999975
vertex 11.9098300562448 38.9953994721761 12.9999999999979
endloop
endfacet
facet normal -1.88331819584746e-013 -1.00566944570498e-017 1.0
outer loop
vertex 11.8751985367589 41.2423484124866 12.9999999999978
vertex 11.9098300562448 38.9953994721761 12.9999999999979
vertex 15.6028891336287 43.7331116380883 12.9999999999985
endloop
endfacet
facet normal -1.88331819584746e-013 -1.00566944570498e-017 1.0
outer loop
vertex 15.6028891336287 43.7331116380883 12.9999999999985
vertex 11.9098300562448 38.9953994721761 12.9999999999979
vertex 16.9098300562443 42.6281121122036 12.9999999999988
endloop
endfacet
facet normal -1.88331819584746e-013 -1.00566944570498e-017 1.0
outer loop
vertex 15.6028891336287 43.7331116380883 12.9999999999985
vertex 16.9098300562443 42.6281121122036 12.9999999999988
vertex 19.9999999999935 44.6077513701483 12.9999999999994
endloop
endfacet
facet normal -1.88331819584746e-013 -1.00566944570498e-017 1.0
outer loop
vertex 19.9999999999935 44.6077513701483 12.9999999999994
vertex 16.9098300562443 42.6281121122036 12.9999999999988
vertex 23.0901699437432 42.6281121122044 13.0
endloop
endfacet
facet normal -1.88331819584746e-013 -1.00566944570498e-017 1.0
outer loop
vertex 19.9999999999935 44.6077513701483 12.9999999999994
vertex 23.0901699437432 42.6281121122044 13.0
vertex 24.3971108663586 43.7331116380894 13.0000000000002
endloop
endfacet
facet normal -1.88331819584746e-013 -1.00566944570498e-017 1.0
outer loop
vertex 24.3971108663586 43.7331116380894 13.0000000000002
vertex 23.0901699437432 42.6281121122044 13.0
vertex 28.0901699437437 38.9953994721782 13.0000000000009
endloop
endfacet
facet normal -1.88331819584746e-013 -1.00566944570498e-017 1.0
outer loop
vertex 24.3971108663586 43.7331116380894 13.0000000000002
vertex 28.0901699437437 38.9953994721782 13.0000000000009
vertex 28.124801463229 41.2423484124885 13.0000000000009
endloop
endfacet
facet normal -1.88331819584746e-013 -1.00566944570498e-017 1.0
outer loop
vertex 28.124801463229 41.2423484124885 13.0000000000009
vertex 28.0901699437437 38.9953994721782 13.0000000000009
vertex 29.999999999995 33.1175469492538 13.0000000000013
endloop
endfacet
facet normal -1.88331819584746e-013 -1.00566944570498e-017 1.0
outer loop
vertex 28.124801463229 41.2423484124885 13.0000000000009
vertex 29.999999999995 33.1175469492538 13.0000000000013
vertex 30.6155646888308 37.5146578156188 13.0000000000014
endloop
endfacet
facet normal 0.980785280403257 -0.195090322015998 1.83336352353609e-013
outer loop
vertex 9.38443531115808 37.5146578156161 12.9999999999974
vertex 8.50979557909787 33.1175469492509 19.9999999999972
vertex 8.50979557909918 33.1175469492509 12.9999999999972
endloop
endfacet
facet normal 0.980785280403257 -0.195090322015998 1.83336352353609e-013
outer loop
vertex 8.50979557909787 33.1175469492509 19.9999999999972
vertex 9.38443531115808 37.5146578156161 12.9999999999974
vertex 9.38443531115677 37.5146578156161 19.9999999999974
endloop
endfacet
facet normal 0.980785280403206 0.195090322016252 1.52671708976938e-013
outer loop
vertex 36.7384308057202 40.0508320018293 3.14426262804091e-012
vertex 38.1175469492436 33.1175469492548 20.0000000000028
vertex 38.1175469492467 33.1175469492548 3.40369954443531e-012
endloop
endfacet
facet normal 0.980785280403206 0.195090322016252 1.52671708976938e-013
outer loop
vertex 38.1175469492436 33.1175469492548 20.0000000000028
vertex 36.7384308057202 40.0508320018293 3.14426262804091e-012
vertex 36.7384308057171 40.0508320018293 20.0000000000025
endloop
endfacet
facet normal -4.27441095218388e-014 0.382683432365083 -0.92387953251129
outer loop
vertex 4.99999999999147 56.2350938985003 12.2000000000002
vertex -8.20046253124929e-012 54.6794589798892 11.5556349186105
vertex -8.42605984985312e-012 56.2350938984996 12.2000000000001
endloop
endfacet
facet normal -4.27441095218388e-014 0.382683432365083 -0.92387953251129
outer loop
vertex -8.20046253124929e-012 54.6794589798892 11.5556349186105
vertex 4.99999999999147 56.2350938985003 12.2000000000002
vertex 4.9999999999917 54.6794589798899 11.5556349186106
endloop
endfacet
facet normal 0.831469612302617 -0.555570233019494 1.29428085529051e-013
outer loop
vertex 36.738430805722 26.18426189668 3.14426262804091e-012
vertex 32.8110403062756 20.3065066429739 20.0000000000018
vertex 32.8110403062787 20.3065066429739 2.40543140961336e-012
endloop
endfacet
facet normal 0.831469612302617 -0.555570233019494 1.29428085529051e-013
outer loop
vertex 32.8110403062756 20.3065066429739 20.0000000000018
vertex 36.738430805722 26.18426189668 3.14426262804091e-012
vertex 36.7384308057189 26.18426189668 20.0000000000025
endloop
endfacet
facet normal 0.951056516295193 -0.309016994374825 1.3037204804294e-013
outer loop
vertex 11.9098300562466 38.9953994721761 -1.52278190057586e-012
vertex 9.99999999999502 33.1175469492512 12.9999999999975
vertex 9.9999999999968 33.1175469492512 -1.883737610342e-012
endloop
endfacet
facet normal 0.951056516295193 -0.309016994374825 1.3037204804294e-013
outer loop
vertex 9.99999999999502 33.1175469492512 12.9999999999975
vertex 11.9098300562466 38.9953994721761 -1.52278190057586e-012
vertex 11.9098300562448 38.9953994721761 12.9999999999979
endloop
endfacet
facet normal 0.951056516295113 0.309016994375074 1.30378346255439e-013
outer loop
vertex 9.9999999999968 33.1175469492512 -1.883737610342e-012
vertex 11.9098300562463 27.2396944263268 12.9999999999979
vertex 11.9098300562481 27.2396944263268 -1.52278190057586e-012
endloop
endfacet
facet normal 0.951056516295113 0.309016994375074 1.30378346255439e-013
outer loop
vertex 11.9098300562463 27.2396944263268 12.9999999999979
vertex 9.9999999999968 33.1175469492512 -1.883737610342e-012
vertex 9.99999999999502 33.1175469492512 12.9999999999975
endloop
endfacet
facet normal -0.555570233019505 -0.83146961230261 -1.0564108607946e-013
outer loop
vertex 28.124801463229 41.2423484124885 13.0000000000009
vertex 24.3971108663572 43.7331116380894 20.0000000000002
vertex 24.3971108663586 43.7331116380894 13.0000000000002
endloop
endfacet
facet normal -0.555570233019505 -0.83146961230261 -1.0564108607946e-013
outer loop
vertex 24.3971108663572 43.7331116380894 20.0000000000002
vertex 28.124801463229 41.2423484124885 13.0000000000009
vertex 28.1248014632277 41.2423484124885 20.0000000000009
endloop
endfacet
facet normal 1.26334498418146e-013 -1.0 1.13958713877074e-026
outer loop
vertex 19.999999999996 15.0000000000025 19.9999999999994
vertex 4.99999999999788 15.0000000000007 6.31672492090729e-013
vertex 19.9999999999991 15.0000000000025 -5.63993296509579e-015
endloop
endfacet
facet normal 1.26334498418146e-013 -1.0 1.13958713877074e-026
outer loop
vertex 4.99999999999788 15.0000000000007 6.31672492090729e-013
vertex 19.999999999996 15.0000000000025 19.9999999999994
vertex 4.99999999999739 15.0000000000007 20.0
endloop
endfacet
facet normal -0.980785280403256 0.195090322015999 -1.83345264192574e-013
outer loop
vertex 31.4902044208895 33.117546949254 20.0000000000015
vertex 30.6155646888319 28.720436082889 13.0000000000014
vertex 30.6155646888306 28.720436082889 20.0000000000014
endloop
endfacet
facet normal -0.980785280403256 0.195090322015999 -1.83345264192574e-013
outer loop
vertex 30.6155646888319 28.720436082889 13.0000000000014
vertex 31.4902044208895 33.117546949254 20.0000000000015
vertex 31.4902044208908 33.117546949254 13.0000000000015
endloop
endfacet
facet normal -0.707106781186544 -8.91682919699046e-014 -0.707106781186551
outer loop
vertex -6.2501032127571e-012 46.2350938984997 7.80000000000009
vertex -4.40000000000298 19.9999999999995 12.2000000000001
vertex -4.40000000000625 46.2350938984991 12.2000000000001
endloop
endfacet
facet normal -0.707106781186544 -8.91682919699046e-014 -0.707106781186551
outer loop
vertex -4.40000000000298 19.9999999999995 12.2000000000001
vertex -6.2501032127571e-012 46.2350938984997 7.80000000000009
vertex -2.91734345014838e-012 20.0 7.8000000000001
endloop
endfacet
facet normal -1.28180294661271e-015 2.14976663964374e-016 1.0
outer loop
vertex -4.40000000000298 19.9999999999995 12.2000000000001
vertex -6.2501032127571e-012 46.2350938984997 12.2000000000001
vertex -4.40000000000625 46.2350938984991 12.2000000000001
endloop
endfacet
facet normal -1.28180294661271e-015 2.14976663964374e-016 1.0
outer loop
vertex -6.2501032127571e-012 46.2350938984997 12.2000000000001
vertex -4.40000000000298 19.9999999999995 12.2000000000001
vertex -2.91734345014838e-012 20.0 12.2000000000001
endloop
endfacet
facet normal 0.555570233019712 -0.831469612302472 1.03839193395457e-013
outer loop
vertex 15.6028891336287 43.7331116380883 12.9999999999985
vertex 11.8751985367576 41.2423484124866 19.9999999999978
vertex 11.8751985367589 41.2423484124866 12.9999999999978
endloop
endfacet
facet normal 0.555570233019712 -0.831469612302472 1.03839193395457e-013
outer loop
vertex 11.8751985367576 41.2423484124866 19.9999999999978
vertex 15.6028891336287 43.7331116380883 12.9999999999985
vertex 15.6028891336274 43.7331116380883 19.9999999999985
endloop
endfacet
facet normal -6.74977417901026e-014 0.382683432365083 0.923879532511289
outer loop
vertex -8.15534306752852e-012 54.6794589798892 8.44436508138969
vertex 4.99999999999153 56.2350938985003 7.80000000000016
vertex -8.36966052020216e-012 56.2350938984996 7.80000000000009
endloop
endfacet
facet normal -6.74977417901026e-014 0.382683432365083 0.923879532511289
outer loop
vertex 4.99999999999153 56.2350938985003 7.80000000000016
vertex -8.15534306752852e-012 54.6794589798892 8.44436508138969
vertex 4.99999999999175 54.6794589798899 8.44436508138975
endloop
endfacet
facet normal 6.43060985692324e-014 -0.382683432365092 -0.923879532511286
outer loop
vertex 4.99999999999127 57.7907288171107 11.5556349186106
vertex -8.42605984985312e-012 56.2350938984996 12.2000000000001
vertex -8.62909743659657e-012 57.7907288171101 11.5556349186105
endloop
endfacet
facet normal 6.43060985692324e-014 -0.382683432365092 -0.923879532511286
outer loop
vertex -8.42605984985312e-012 56.2350938984996 12.2000000000001
vertex 4.99999999999127 57.7907288171107 11.5556349186106
vertex 4.99999999999147 56.2350938985003 12.2000000000002
endloop
endfacet
facet normal 0.555570233019492 0.831469612302619 1.04305506762421e-013
outer loop
vertex 11.8751985367597 24.9927454860163 19.9999999999978
vertex 15.6028891336314 22.5019822604156 12.9999999999985
vertex 11.875198536761 24.9927454860163 12.9999999999978
endloop
endfacet
facet normal 0.555570233019492 0.831469612302619 1.04305506762421e-013
outer loop
vertex 15.6028891336314 22.5019822604156 12.9999999999985
vertex 11.8751985367597 24.9927454860163 19.9999999999978
vertex 15.6028891336301 22.5019822604156 19.9999999999985
endloop
endfacet
facet normal 3.34284363326875e-014 -0.382683432365095 0.923879532511285
outer loop
vertex -1.04902753150782e-012 10.0000000000002 7.8000000000001
vertex 4.99999999999865 11.5556349186112 8.44436508138976
vertex -1.25206511825127e-012 11.5556349186106 8.4443650813897
endloop
endfacet
facet normal 3.34284363326875e-014 -0.382683432365095 0.923879532511285
outer loop
vertex 4.99999999999865 11.5556349186112 8.44436508138976
vertex -1.04902753150782e-012 10.0000000000002 7.8000000000001
vertex 4.99999999999884 10.0000000000008 7.80000000000017
endloop
endfacet
facet normal 0.587785252292377 0.809016994375018 8.1350379476249e-014
outer loop
vertex 11.9098300562463 27.2396944263268 12.9999999999979
vertex 16.9098300562486 23.6069817863005 -5.86553028369963e-013
vertex 11.9098300562481 27.2396944263268 -1.52278190057586e-012
endloop
endfacet
facet normal 0.587785252292377 0.809016994375018 8.1350379476249e-014
outer loop
vertex 16.9098300562486 23.6069817863005 -5.86553028369963e-013
vertex 11.9098300562463 27.2396944263268 12.9999999999979
vertex 16.9098300562467 23.6069817863005 12.9999999999988
endloop
endfacet
facet normal 0.195090322015994 0.980785280403257 3.01451286944041e-014
outer loop
vertex 19.9999999999913 51.2350938985023 19.9999999999994
vertex 26.9332850525692 49.8559777549777 1.30000454845458e-012
vertex 19.9999999999944 51.2350938985023 -5.63993296509579e-015
endloop
endfacet
facet normal 0.195090322015994 0.980785280403257 3.01451286944041e-014
outer loop
vertex 26.9332850525692 49.8559777549777 1.30000454845458e-012
vertex 19.9999999999913 51.2350938985023 19.9999999999994
vertex 26.9332850525661 49.8559777549777 20.0000000000007
endloop
endfacet
facet normal 1.0 1.57166131960669e-013 1.29718458197203e-014
outer loop
vertex 5.0 6.54232223951112e-013 0.0
vertex 4.99999999999901 8.44436508139037 8.44436508138976
vertex 4.99999999999998 6.54232223951112e-013 20.0
endloop
endfacet
facet normal 1.0 1.57166131960669e-013 1.29718458197203e-014
outer loop
vertex 4.99999999999901 8.44436508139037 8.44436508138976
vertex 5.0 6.54232223951112e-013 0.0
vertex 4.99999999999788 15.0000000000007 6.31672492090729e-013
endloop
endfacet
facet normal 1.0 1.57166131960669e-013 1.29718458197203e-014
outer loop
vertex 4.99999999999998 6.54232223951112e-013 20.0
vertex 4.99999999999901 8.44436508139037 8.44436508138976
vertex 4.99999999999908 7.80000000000077 10.0000000000002
endloop
endfacet
facet normal 1.0 1.57166131960669e-013 1.29718458197203e-014
outer loop
vertex 4.99999999999901 8.44436508139037 8.44436508138976
vertex 4.99999999999788 15.0000000000007 6.31672492090729e-013
vertex 4.99999999999884 10.0000000000008 7.80000000000017
endloop
endfacet
facet normal 1.0 1.57166131960669e-013 1.29718458197203e-014
outer loop
vertex 4.99999999999884 10.0000000000008 7.80000000000017
vertex 4.99999999999788 15.0000000000007 6.31672492090729e-013
vertex 4.99999999999865 11.5556349186112 8.44436508138976
endloop
endfacet
facet normal 1.0 1.57166131960669e-013 1.29718458197203e-014
outer loop
vertex 4.99999999999865 11.5556349186112 8.44436508138976
vertex 4.99999999999788 15.0000000000007 6.31672492090729e-013
vertex 4.99999999999855 12.2000000000008 10.0000000000002
endloop
endfacet
facet normal 1.0 1.57166131960669e-013 1.29718458197203e-014
outer loop
vertex 4.99999999999998 6.54232223951112e-013 20.0
vertex 4.99999999999898 8.44436508139037 11.5556349186106
vertex 4.99999999999739 15.0000000000007 20.0
endloop
endfacet
facet normal 1.0 1.57166131960669e-013 1.29718458197203e-014
outer loop
vertex 4.99999999999898 8.44436508139037 11.5556349186106
vertex 4.99999999999998 6.54232223951112e-013 20.0
vertex 4.99999999999908 7.80000000000077 10.0000000000002
endloop
endfacet
facet normal 1.0 1.57166131960669e-013 1.29718458197203e-014
outer loop
vertex 4.99999999999739 15.0000000000007 20.0
vertex 4.99999999999898 8.44436508139037 11.5556349186106
vertex 4.99999999999878 10.0000000000008 12.2000000000002
endloop
endfacet
facet normal 1.0 1.57166131960669e-013 1.29718458197203e-014
outer loop
vertex 4.99999999999739 15.0000000000007 20.0
vertex 4.99999999999878 10.0000000000008 12.2000000000002
vertex 4.9999999999986 11.5556349186112 11.5556349186106
endloop
endfacet
facet normal 1.0 1.57166131960669e-013 1.29718458197203e-014
outer loop
vertex 4.99999999999739 15.0000000000007 20.0
vertex 4.9999999999986 11.5556349186112 11.5556349186106
vertex 4.99999999999855 12.2000000000008 10.0000000000002
endloop
endfacet
facet normal 1.0 1.57166131960669e-013 1.29718458197203e-014
outer loop
vertex 4.99999999999739 15.0000000000007 20.0
vertex 4.99999999999855 12.2000000000008 10.0000000000002
vertex 4.99999999999788 15.0000000000007 6.31672492090729e-013
endloop
endfacet
facet normal -0.195090322016259 0.980785280403205 -3.70973320074007e-014
outer loop
vertex 19.9999999999951 21.6273425283567 19.9999999999994
vertex 24.3971108663613 22.5019822604167 13.0000000000002
vertex 19.9999999999965 21.6273425283567 12.9999999999994
endloop
endfacet
facet normal -0.195090322016259 0.980785280403205 -3.70973320074007e-014
outer loop
vertex 24.3971108663613 22.5019822604167 13.0000000000002
vertex 19.9999999999951 21.6273425283567 19.9999999999994
vertex 24.39711086636 22.5019822604167 20.0000000000002
endloop
endfacet
facet normal 0.55557023301971 -0.831469612302474 8.64815439481745e-014
outer loop
vertex 32.8110403062787 20.3065066429739 2.40543140961336e-012
vertex 26.9332850525704 16.3791161435291 20.0000000000007
vertex 26.9332850525735 16.3791161435291 1.30000454845458e-012
endloop
endfacet
facet normal 0.55557023301971 -0.831469612302474 8.64815439481745e-014
outer loop
vertex 26.9332850525704 16.3791161435291 20.0000000000007
vertex 32.8110403062787 20.3065066429739 2.40543140961336e-012
vertex 32.8110403062756 20.3065066429739 20.0000000000018
endloop
endfacet
facet normal -0.980785280403205 -0.195090322016255 -1.86494952571794e-013
outer loop
vertex 30.6155646888294 37.5146578156188 20.0000000000014
vertex 31.4902044208908 33.117546949254 13.0000000000015
vertex 31.4902044208895 33.117546949254 20.0000000000015
endloop
endfacet
facet normal -0.980785280403205 -0.195090322016255 -1.86494952571794e-013
outer loop
vertex 31.4902044208908 33.117546949254 13.0000000000015
vertex 30.6155646888294 37.5146578156188 20.0000000000014
vertex 30.6155646888308 37.5146578156188 13.0000000000014
endloop
endfacet
facet normal -1.0 -1.49523790241543e-013 -1.12798659301915e-015
outer loop
vertex -1.12798659301916e-014 0.0 20.0
vertex -9.13669140345519e-013 8.44436508138979 11.5556349186105
vertex 0.0 0.0 0.0
endloop
endfacet
facet normal -1.0 -1.49523790241543e-013 -1.12798659301915e-015
outer loop
vertex -9.13669140345519e-013 8.44436508138979 11.5556349186105
vertex -1.12798659301916e-014 0.0 20.0
vertex -1.11670672708897e-012 10.0000000000002 12.2000000000001
endloop
endfacet
facet normal -1.0 -1.49523790241543e-013 -1.12798659301915e-015
outer loop
vertex -1.11670672708897e-012 10.0000000000002 12.2000000000001
vertex -1.12798659301916e-014 0.0 20.0
vertex -9.9262820185686e-012 66.2350938984998 20.0
endloop
endfacet
facet normal -1.0 -1.49523790241543e-013 -1.12798659301915e-015
outer loop
vertex 0.0 0.0 0.0
vertex -9.13669140345519e-013 8.44436508138979 11.5556349186105
vertex -8.23430212903986e-013 7.80000000000023 10.0000000000001
endloop
endfacet
facet normal -1.0 -1.49523790241543e-013 -1.12798659301915e-015
outer loop
vertex -1.11670672708897e-012 10.0000000000002 12.2000000000001
vertex -9.9262820185686e-012 66.2350938984998 20.0
vertex -1.28590471604184e-012 11.5556349186106 11.5556349186105
endloop
endfacet
facet normal -1.0 -1.49523790241543e-013 -1.12798659301915e-015
outer loop
vertex -1.28590471604184e-012 11.5556349186106 11.5556349186105
vertex -9.9262820185686e-012 66.2350938984998 20.0
vertex -2.91734345014838e-012 20.0 12.2000000000001
endloop
endfacet
facet normal -1.0 -1.49523790241543e-013 -1.12798659301915e-015
outer loop
vertex -1.28590471604184e-012 11.5556349186106 11.5556349186105
vertex -2.91734345014838e-012 20.0 12.2000000000001
vertex -1.3423040456928e-012 12.2000000000002 10.0000000000001
endloop
endfacet
facet normal -1.0 -1.49523790241543e-013 -1.12798659301915e-015
outer loop
vertex -2.91734345014838e-012 20.0 12.2000000000001
vertex -9.9262820185686e-012 66.2350938984998 20.0
vertex -6.2501032127571e-012 46.2350938984997 12.2000000000001
endloop
endfacet
facet normal -1.0 -1.49523790241543e-013 -1.12798659301915e-015
outer loop
vertex -6.2501032127571e-012 46.2350938984997 12.2000000000001
vertex -9.9262820185686e-012 66.2350938984998 20.0
vertex -6.2501032127571e-012 46.2350938984997 7.80000000000009
endloop
endfacet
facet normal -1.0 -1.49523790241543e-013 -1.12798659301915e-015
outer loop
vertex -6.2501032127571e-012 46.2350938984997 7.80000000000009
vertex -9.9262820185686e-012 66.2350938984998 20.0
vertex -8.20046253124929e-012 54.6794589798892 11.5556349186105
endloop
endfacet
facet normal -1.0 -1.49523790241543e-013 -1.12798659301915e-015
outer loop
vertex -6.2501032127571e-012 46.2350938984997 7.80000000000009
vertex -8.20046253124929e-012 54.6794589798892 11.5556349186105
vertex -8.08766387194737e-012 54.0350938984996 10.0000000000001
endloop
endfacet
facet normal -1.0 -1.49523790241543e-013 -1.12798659301915e-015
outer loop
vertex -8.20046253124929e-012 54.6794589798892 11.5556349186105
vertex -9.9262820185686e-012 66.2350938984998 20.0
vertex -8.42605984985312e-012 56.2350938984996 12.2000000000001
endloop
endfacet
facet normal -1.0 -1.49523790241543e-013 -1.12798659301915e-015
outer loop
vertex -8.42605984985312e-012 56.2350938984996 12.2000000000001
vertex -9.9262820185686e-012 66.2350938984998 20.0
vertex -8.62909743659657e-012 57.7907288171101 11.5556349186105
endloop
endfacet
facet normal -1.0 -1.49523790241543e-013 -1.12798659301915e-015
outer loop
vertex -8.62909743659657e-012 57.7907288171101 11.5556349186105
vertex -9.9262820185686e-012 66.2350938984998 20.0
vertex -8.70805649810791e-012 58.4350938984996 10.0000000000001
endloop
endfacet
facet normal -1.0 -1.49523790241543e-013 -1.12798659301915e-015
outer loop
vertex 0.0 0.0 0.0
vertex -1.04902753150782e-012 10.0000000000002 7.8000000000001
vertex -9.89244242077802e-012 66.2350938984998 0.0
endloop
endfacet
facet normal -1.0 -1.49523790241543e-013 -1.12798659301915e-015
outer loop
vertex -1.04902753150782e-012 10.0000000000002 7.8000000000001
vertex 0.0 0.0 0.0
vertex -8.79829542554944e-013 8.44436508138983 8.4443650813897
endloop
endfacet
facet normal -1.0 -1.49523790241543e-013 -1.12798659301915e-015
outer loop
vertex -8.79829542554944e-013 8.44436508138983 8.4443650813897
vertex 0.0 0.0 0.0
vertex -8.23430212903986e-013 7.80000000000023 10.0000000000001
endloop
endfacet
facet normal -1.0 -1.49523790241543e-013 -1.12798659301915e-015
outer loop
vertex -9.89244242077802e-012 66.2350938984998 0.0
vertex -1.04902753150782e-012 10.0000000000002 7.8000000000001
vertex -1.25206511825127e-012 11.5556349186106 8.4443650813897
endloop
endfacet
facet normal -1.0 -1.49523790241543e-013 -1.12798659301915e-015
outer loop
vertex -9.89244242077802e-012 66.2350938984998 0.0
vertex -1.25206511825127e-012 11.5556349186106 8.4443650813897
vertex -2.91734345014838e-012 20.0 7.8000000000001
endloop
endfacet
facet normal -1.0 -1.49523790241543e-013 -1.12798659301915e-015
outer loop
vertex -2.91734345014838e-012 20.0 7.8000000000001
vertex -1.25206511825127e-012 11.5556349186106 8.4443650813897
vertex -1.3423040456928e-012 12.2000000000002 10.0000000000001
endloop
endfacet
facet normal -1.0 -1.49523790241543e-013 -1.12798659301915e-015
outer loop
vertex -2.91734345014838e-012 20.0 7.8000000000001
vertex -1.3423040456928e-012 12.2000000000002 10.0000000000001
vertex -2.91734345014838e-012 20.0 12.2000000000001
endloop
endfacet
facet normal -1.0 -1.49523790241543e-013 -1.12798659301915e-015
outer loop
vertex -9.89244242077802e-012 66.2350938984998 0.0
vertex -2.91734345014838e-012 20.0 7.8000000000001
vertex -6.2501032127571e-012 46.2350938984997 7.80000000000009
endloop
endfacet
facet normal -1.0 -1.49523790241543e-013 -1.12798659301915e-015
outer loop
vertex -9.89244242077802e-012 66.2350938984998 0.0
vertex -6.2501032127571e-012 46.2350938984997 7.80000000000009
vertex -8.15534306752852e-012 54.6794589798892 8.44436508138969
endloop
endfacet
facet normal -1.0 -1.49523790241543e-013 -1.12798659301915e-015
outer loop
vertex -8.15534306752852e-012 54.6794589798892 8.44436508138969
vertex -6.2501032127571e-012 46.2350938984997 7.80000000000009
vertex -8.08766387194737e-012 54.0350938984996 10.0000000000001
endloop
endfacet
facet normal -1.0 -1.49523790241543e-013 -1.12798659301915e-015
outer loop
vertex -9.89244242077802e-012 66.2350938984998 0.0
vertex -8.15534306752852e-012 54.6794589798892 8.44436508138969
vertex -8.36966052020216e-012 56.2350938984996 7.80000000000009
endloop
endfacet
facet normal -1.0 -1.49523790241543e-013 -1.12798659301915e-015
outer loop
vertex -9.89244242077802e-012 66.2350938984998 0.0
vertex -8.36966052020216e-012 56.2350938984996 7.80000000000009
vertex -8.59525783880599e-012 57.7907288171101 8.44436508138969
endloop
endfacet
facet normal -1.0 -1.49523790241543e-013 -1.12798659301915e-015
outer loop
vertex -9.89244242077802e-012 66.2350938984998 0.0
vertex -8.59525783880599e-012 57.7907288171101 8.44436508138969
vertex -8.70805649810791e-012 58.4350938984996 10.0000000000001
endloop
endfacet
facet normal -1.0 -1.49523790241543e-013 -1.12798659301915e-015
outer loop
vertex -9.89244242077802e-012 66.2350938984998 0.0
vertex -8.70805649810791e-012 58.4350938984996 10.0000000000001
vertex -9.9262820185686e-012 66.2350938984998 20.0
endloop
endfacet
facet normal -1.35358391162299e-013 1.0 -2.25597318603851e-015
outer loop
vertex -9.9262820185686e-012 66.2350938984998 20.0
vertex 4.9999999999901 66.2350938985004 0.0
vertex -9.89244242077802e-012 66.2350938984998 0.0
endloop
endfacet
facet normal -1.35358391162299e-013 1.0 -2.25597318603851e-015
outer loop
vertex 4.9999999999901 66.2350938985004 0.0
vertex -9.9262820185686e-012 66.2350938984998 20.0
vertex 4.99999999999008 66.2350938985005 20.0
endloop
endfacet
facet normal -6.51998320220238e-014 -9.31682431792689e-027 1.0
outer loop
vertex -1.12798659301916e-014 0.0 20.0
vertex 4.99999999999008 66.2350938985005 20.0
vertex -9.9262820185686e-012 66.2350938984998 20.0
endloop
endfacet
facet normal -6.51998320220238e-014 -9.31682431792689e-027 1.0
outer loop
vertex 4.99999999999008 66.2350938985005 20.0
vertex -1.12798659301916e-014 0.0 20.0
vertex 4.99999999999739 15.0000000000007 20.0
endloop
endfacet
facet normal -6.51998320220238e-014 -9.31682431792689e-027 1.0
outer loop
vertex 4.99999999999739 15.0000000000007 20.0
vertex -1.12798659301916e-014 0.0 20.0
vertex 4.99999999999998 6.54232223951112e-013 20.0
endloop
endfacet
facet normal -6.51998320220238e-014 -9.31682431792689e-027 1.0
outer loop
vertex 4.99999999999008 66.2350938985005 20.0
vertex 4.99999999999739 15.0000000000007 20.0
vertex 4.99999999999268 51.2350938985005 20.0
endloop
endfacet
facet normal -6.51998320220238e-014 -9.31682431792689e-027 1.0
outer loop
vertex 9.38443531115791 28.7204360828863 19.9999999999974
vertex 8.50979557909787 33.1175469492509 19.9999999999972
vertex 7.58828924932845 28.6027104502718 19.9999999999975
endloop
endfacet
facet normal -6.51998320220238e-014 -9.31682431792689e-027 1.0
outer loop
vertex 4.99999999999739 15.0000000000007 20.0
vertex 7.79219602636988 25.4916942133684 19.9999999999977
vertex 6.79216960693443 26.9883395155128 19.9999999999976
endloop
endfacet
facet normal -6.51998320220238e-014 -9.31682431792689e-027 1.0
outer loop
vertex 7.79219602636988 25.4916942133684 19.9999999999977
vertex 4.99999999999739 15.0000000000007 20.0
vertex 19.999999999996 15.0000000000025 19.9999999999994
endloop
endfacet
facet normal -6.51998320220238e-014 -9.31682431792689e-027 1.0
outer loop
vertex 7.79219602636988 25.4916942133684 19.9999999999977
vertex 19.999999999996 15.0000000000025 19.9999999999994
vertex 9.58834208819936 25.6094198459828 19.9999999999976
endloop
endfacet
facet normal -6.51998320220238e-014 -9.31682431792689e-027 1.0
outer loop
vertex 9.58834208819936 25.6094198459828 19.9999999999976
vertex 19.999999999996 15.0000000000025 19.9999999999994
vertex 11.8751985367597 24.9927454860163 19.9999999999978
endloop
endfacet
facet normal -6.51998320220238e-014 -9.31682431792689e-027 1.0
outer loop
vertex 9.58834208819936 25.6094198459828 19.9999999999976
vertex 11.8751985367597 24.9927454860163 19.9999999999978
vertex 10.3844617305934 27.2237907807418 19.9999999999974
endloop
endfacet
facet normal -6.51998320220238e-014 -9.31682431792689e-027 1.0
outer loop
vertex 11.8751985367597 24.9927454860163 19.9999999999978
vertex 19.999999999996 15.0000000000025 19.9999999999994
vertex 15.6028891336301 22.5019822604156 19.9999999999985
endloop
endfacet
facet normal -6.51998320220238e-014 -9.31682431792689e-027 1.0
outer loop
vertex 15.6028891336301 22.5019822604156 19.9999999999985
vertex 19.999999999996 15.0000000000025 19.9999999999994
vertex 19.9999999999951 21.6273425283567 19.9999999999994
endloop
endfacet
facet normal -6.51998320220238e-014 -9.31682431792689e-027 1.0
outer loop
vertex 19.9999999999951 21.6273425283567 19.9999999999994
vertex 19.999999999996 15.0000000000025 19.9999999999994
vertex 24.39711086636 22.5019822604167 20.0000000000002
endloop
endfacet
facet normal -6.51998320220238e-014 -9.31682431792689e-027 1.0
outer loop
vertex 24.39711086636 22.5019822604167 20.0000000000002
vertex 19.999999999996 15.0000000000025 19.9999999999994
vertex 26.9332850525704 16.3791161435291 20.0000000000007
endloop
endfacet
facet normal -6.51998320220238e-014 -9.31682431792689e-027 1.0
outer loop
vertex 24.39711086636 22.5019822604167 20.0000000000002
vertex 26.9332850525704 16.3791161435291 20.0000000000007
vertex 28.1248014632298 24.9927454860184 20.0000000000009
endloop
endfacet
facet normal -6.51998320220238e-014 -9.31682431792689e-027 1.0
outer loop
vertex 28.1248014632298 24.9927454860184 20.0000000000009
vertex 26.9332850525704 16.3791161435291 20.0000000000007
vertex 32.8110403062756 20.3065066429739 20.0000000000018
endloop
endfacet
facet normal -6.51998320220238e-014 -9.31682431792689e-027 1.0
outer loop
vertex 28.1248014632298 24.9927454860184 20.0000000000009
vertex 32.8110403062756 20.3065066429739 20.0000000000018
vertex 30.6155646888306 28.720436082889 20.0000000000014
endloop
endfacet
facet normal -6.51998320220238e-014 -9.31682431792689e-027 1.0
outer loop
vertex 30.6155646888306 28.720436082889 20.0000000000014
vertex 32.8110403062756 20.3065066429739 20.0000000000018
vertex 31.4902044208895 33.117546949254 20.0000000000015
endloop
endfacet
facet normal -6.51998320220238e-014 -9.31682431792689e-027 1.0
outer loop
vertex 31.4902044208895 33.117546949254 20.0000000000015
vertex 32.8110403062756 20.3065066429739 20.0000000000018
vertex 32.8110403062723 45.9285872555344 20.0000000000018
endloop
endfacet
facet normal -6.51998320220238e-014 -9.31682431792689e-027 1.0
outer loop
vertex 32.8110403062723 45.9285872555344 20.0000000000018
vertex 32.8110403062756 20.3065066429739 20.0000000000018
vertex 36.7384308057171 40.0508320018293 20.0000000000025
endloop
endfacet
facet normal -6.51998320220238e-014 -9.31682431792689e-027 1.0
outer loop
vertex 36.7384308057171 40.0508320018293 20.0000000000025
vertex 32.8110403062756 20.3065066429739 20.0000000000018
vertex 36.7384308057189 26.18426189668 20.0000000000025
endloop
endfacet
facet normal -6.51998320220238e-014 -9.31682431792689e-027 1.0
outer loop
vertex 36.7384308057171 40.0508320018293 20.0000000000025
vertex 36.7384308057189 26.18426189668 20.0000000000025
vertex 38.1175469492436 33.1175469492548 20.0000000000028
endloop
endfacet
facet normal -6.51998320220238e-014 -9.31682431792689e-027 1.0
outer loop
vertex 4.99999999999268 51.2350938985005 20.0
vertex 11.8751985367576 41.2423484124866 19.9999999999978
vertex 19.9999999999913 51.2350938985023 19.9999999999994
endloop
endfacet
facet normal -6.51998320220238e-014 -9.31682431792689e-027 1.0
outer loop
vertex 11.8751985367576 41.2423484124866 19.9999999999978
vertex 4.99999999999268 51.2350938985005 20.0
vertex 9.38443531115677 37.5146578156161 19.9999999999974
endloop
endfacet
facet normal -6.51998320220238e-014 -9.31682431792689e-027 1.0
outer loop
vertex 9.38443531115677 37.5146578156161 19.9999999999974
vertex 4.99999999999268 51.2350938985005 20.0
vertex 6.79216960693443 26.9883395155128 19.9999999999976
endloop
endfacet
facet normal -6.51998320220238e-014 -9.31682431792689e-027 1.0
outer loop
vertex 6.79216960693443 26.9883395155128 19.9999999999976
vertex 4.99999999999268 51.2350938985005 20.0
vertex 4.99999999999739 15.0000000000007 20.0
endloop
endfacet
facet normal -6.51998320220238e-014 -9.31682431792689e-027 1.0
outer loop
vertex 9.38443531115677 37.5146578156161 19.9999999999974
vertex 6.79216960693443 26.9883395155128 19.9999999999976
vertex 7.58828924932845 28.6027104502718 19.9999999999975
endloop
endfacet
facet normal -6.51998320220238e-014 -9.31682431792689e-027 1.0
outer loop
vertex 9.38443531115677 37.5146578156161 19.9999999999974
vertex 7.58828924932845 28.6027104502718 19.9999999999975
vertex 8.50979557909787 33.1175469492509 19.9999999999972
endloop
endfacet
facet normal -6.51998320220238e-014 -9.31682431792689e-027 1.0
outer loop
vertex 19.9999999999913 51.2350938985023 19.9999999999994
vertex 11.8751985367576 41.2423484124866 19.9999999999978
vertex 15.6028891336274 43.7331116380883 19.9999999999985
endloop
endfacet
facet normal -6.51998320220238e-014 -9.31682431792689e-027 1.0
outer loop
vertex 19.9999999999913 51.2350938985023 19.9999999999994
vertex 15.6028891336274 43.7331116380883 19.9999999999985
vertex 19.9999999999922 44.6077513701483 19.9999999999994
endloop
endfacet
facet normal -6.51998320220238e-014 -9.31682431792689e-027 1.0
outer loop
vertex 19.9999999999913 51.2350938985023 19.9999999999994
vertex 19.9999999999922 44.6077513701483 19.9999999999994
vertex 26.9332850525661 49.8559777549777 20.0000000000007
endloop
endfacet
facet normal -6.51998320220238e-014 -9.31682431792689e-027 1.0
outer loop
vertex 26.9332850525661 49.8559777549777 20.0000000000007
vertex 19.9999999999922 44.6077513701483 19.9999999999994
vertex 24.3971108663572 43.7331116380894 20.0000000000002
endloop
endfacet
facet normal -6.51998320220238e-014 -9.31682431792689e-027 1.0
outer loop
vertex 26.9332850525661 49.8559777549777 20.0000000000007
vertex 24.3971108663572 43.7331116380894 20.0000000000002
vertex 28.1248014632277 41.2423484124885 20.0000000000009
endloop
endfacet
facet normal -6.51998320220238e-014 -9.31682431792689e-027 1.0
outer loop
vertex 26.9332850525661 49.8559777549777 20.0000000000007
vertex 28.1248014632277 41.2423484124885 20.0000000000009
vertex 32.8110403062723 45.9285872555344 20.0000000000018
endloop
endfacet
facet normal -6.51998320220238e-014 -9.31682431792689e-027 1.0
outer loop
vertex 32.8110403062723 45.9285872555344 20.0000000000018
vertex 28.1248014632277 41.2423484124885 20.0000000000009
vertex 30.6155646888294 37.5146578156188 20.0000000000014
endloop
endfacet
facet normal -6.51998320220238e-014 -9.31682431792689e-027 1.0
outer loop
vertex 32.8110403062723 45.9285872555344 20.0000000000018
vertex 30.6155646888294 37.5146578156188 20.0000000000014
vertex 31.4902044208895 33.117546949254 20.0000000000015
endloop
endfacet
facet normal 1.19986213544615e-013 -0.923879532511294 0.382683432365072
outer loop
vertex 4.99999999999131 57.7907288171107 8.44436508138975
vertex -8.70805649810791e-012 58.4350938984996 10.0000000000001
vertex -8.59525783880599e-012 57.7907288171101 8.44436508138969
endloop
endfacet
facet normal 1.19986213544615e-013 -0.923879532511294 0.382683432365072
outer loop
vertex -8.70805649810791e-012 58.4350938984996 10.0000000000001
vertex 4.99999999999131 57.7907288171107 8.44436508138975
vertex 4.99999999999119 58.4350938985003 10.0000000000002
endloop
endfacet
facet normal 1.30129429040042e-013 -0.923879532511294 -0.382683432365072
outer loop
vertex 4.99999999999119 58.4350938985003 10.0000000000002
vertex -8.62909743659657e-012 57.7907288171101 11.5556349186105
vertex -8.70805649810791e-012 58.4350938984996 10.0000000000001
endloop
endfacet
facet normal 1.30129429040042e-013 -0.923879532511294 -0.382683432365072
outer loop
vertex -8.62909743659657e-012 57.7907288171101 11.5556349186105
vertex 4.99999999999119 58.4350938985003 10.0000000000002
vertex 4.99999999999127 57.7907288171107 11.5556349186106
endloop
endfacet
facet normal -1.38466620957616e-013 0.923879532511285 0.382683432365095
outer loop
vertex -8.08766387194737e-012 54.0350938984996 10.0000000000001
vertex 4.99999999999175 54.6794589798899 8.44436508138975
vertex -8.15534306752852e-012 54.6794589798892 8.44436508138969
endloop
endfacet
facet normal -1.38466620957616e-013 0.923879532511285 0.382683432365095
outer loop
vertex 4.99999999999175 54.6794589798899 8.44436508138975
vertex -8.08766387194737e-012 54.0350938984996 10.0000000000001
vertex 4.99999999999181 54.0350938985003 10.0000000000002
endloop
endfacet
facet normal -1.28320109549702e-013 0.923879532511285 -0.382683432365095
outer loop
vertex -8.20046253124929e-012 54.6794589798892 11.5556349186105
vertex 4.99999999999181 54.0350938985003 10.0000000000002
vertex -8.08766387194737e-012 54.0350938984996 10.0000000000001
endloop
endfacet
facet normal -1.28320109549702e-013 0.923879532511285 -0.382683432365095
outer loop
vertex 4.99999999999181 54.0350938985003 10.0000000000002
vertex -8.20046253124929e-012 54.6794589798892 11.5556349186105
vertex 4.9999999999917 54.6794589798899 11.5556349186106
endloop
endfacet
facet normal -0.951056516295113 -0.309016994375074 -1.32036027694907e-013
outer loop
vertex 28.0901699437437 38.9953994721782 13.0000000000009
vertex 29.9999999999968 33.1175469492538 1.8724577444118e-012
vertex 29.999999999995 33.1175469492538 13.0000000000013
endloop
endfacet
facet normal -0.951056516295113 -0.309016994375074 -1.32036027694907e-013
outer loop
vertex 29.9999999999968 33.1175469492538 1.8724577444118e-012
vertex 28.0901699437437 38.9953994721782 13.0000000000009
vertex 28.0901699437455 38.9953994721782 1.51150203464567e-012
endloop
endfacet
facet normal 1.30846444790223e-013 -1.0 1.09829973658501e-028
outer loop
vertex 4.99999999999998 6.54232223951112e-013 20.0
vertex 0.0 0.0 0.0
vertex 5.0 6.54232223951112e-013 0.0
endloop
endfacet
facet normal 1.30846444790223e-013 -1.0 1.09829973658501e-028
outer loop
vertex 0.0 0.0 0.0
vertex 4.99999999999998 6.54232223951112e-013 20.0
vertex -1.12798659301916e-014 0.0 20.0
endloop
endfacet
facet normal 0.831469612302472 0.555570233019712 1.29428085529032e-013
outer loop
vertex 32.8110403062754 45.9285872555344 2.40543140961336e-012
vertex 36.7384308057171 40.0508320018293 20.0000000000025
vertex 36.7384308057202 40.0508320018293 3.14426262804091e-012
endloop
endfacet
facet normal 0.831469612302472 0.555570233019712 1.29428085529032e-013
outer loop
vertex 36.7384308057171 40.0508320018293 20.0000000000025
vertex 32.8110403062754 45.9285872555344 2.40543140961336e-012
vertex 32.8110403062723 45.9285872555344 20.0000000000018
endloop
endfacet
facet normal -1.26334498418146e-013 1.0 -1.1359109906869e-026
outer loop
vertex 4.99999999999317 51.2350938985005 6.31672492090729e-013
vertex 19.9999999999913 51.2350938985023 19.9999999999994
vertex 19.9999999999944 51.2350938985023 -5.63993296509579e-015
endloop
endfacet
facet normal -1.26334498418146e-013 1.0 -1.1359109906869e-026
outer loop
vertex 19.9999999999913 51.2350938985023 19.9999999999994
vertex 4.99999999999317 51.2350938985005 6.31672492090729e-013
vertex 4.99999999999268 51.2350938985005 20.0
endloop
endfacet
facet normal -0.951056516295192 0.309016994374828 -1.32036027694915e-013
outer loop
vertex 29.999999999995 33.1175469492538 13.0000000000013
vertex 28.090169943747 27.2396944263288 1.51150203464567e-012
vertex 28.0901699437452 27.2396944263288 13.0000000000009
endloop
endfacet
facet normal -0.951056516295192 0.309016994374828 -1.32036027694915e-013
outer loop
vertex 28.090169943747 27.2396944263288 1.51150203464567e-012
vertex 29.999999999995 33.1175469492538 13.0000000000013
vertex 29.9999999999968 33.1175469492538 1.8724577444118e-012
endloop
endfacet
facet normal 0.58778525229258 -0.80901699437487 8.13503794762685e-014
outer loop
vertex 16.9098300562461 42.6281121122036 -5.86553028369963e-013
vertex 11.9098300562448 38.9953994721761 12.9999999999979
vertex 11.9098300562466 38.9953994721761 -1.52278190057586e-012
endloop
endfacet
facet normal 0.58778525229258 -0.80901699437487 8.13503794762685e-014
outer loop
vertex 11.9098300562448 38.9953994721761 12.9999999999979
vertex 16.9098300562461 42.6281121122036 -5.86553028369963e-013
vertex 16.9098300562443 42.6281121122036 12.9999999999988
endloop
endfacet
facet normal 0.555570233019493 0.831469612302618 8.58488934829262e-014
outer loop
vertex 26.9332850525661 49.8559777549777 20.0000000000007
vertex 32.8110403062754 45.9285872555344 2.40543140961336e-012
vertex 26.9332850525692 49.8559777549777 1.30000454845458e-012
endloop
endfacet
facet normal 0.555570233019493 0.831469612302618 8.58488934829262e-014
outer loop
vertex 32.8110403062754 45.9285872555344 2.40543140961336e-012
vertex 26.9332850525661 49.8559777549777 20.0000000000007
vertex 32.8110403062723 45.9285872555344 20.0000000000018
endloop
endfacet
facet normal 0.831469612302619 -0.555570233019493 1.55416263963401e-013
outer loop
vertex 11.8751985367589 41.2423484124866 12.9999999999978
vertex 9.38443531115677 37.5146578156161 19.9999999999974
vertex 9.38443531115808 37.5146578156161 12.9999999999974
endloop
endfacet
facet normal 0.831469612302619 -0.555570233019493 1.55416263963401e-013
outer loop
vertex 9.38443531115677 37.5146578156161 19.9999999999974
vertex 11.8751985367589 41.2423484124866 12.9999999999978
vertex 11.8751985367576 41.2423484124866 19.9999999999978
endloop
endfacet
facet normal -0.831469612302621 0.555570233019488 -1.58103491434587e-013
outer loop
vertex 30.6155646888306 28.720436082889 20.0000000000014
vertex 28.1248014632311 24.9927454860184 13.0000000000009
vertex 28.1248014632298 24.9927454860184 20.0000000000009
endloop
endfacet
facet normal -0.831469612302621 0.555570233019488 -1.58103491434587e-013
outer loop
vertex 28.1248014632311 24.9927454860184 13.0000000000009
vertex 30.6155646888306 28.720436082889 20.0000000000014
vertex 30.6155646888319 28.720436082889 13.0000000000014
endloop
endfacet
facet normal 0.195090322016256 -0.980785280403205 3.03683963235667e-014
outer loop
vertex 26.9332850525735 16.3791161435291 1.30000454845458e-012
vertex 19.999999999996 15.0000000000025 19.9999999999994
vertex 19.9999999999991 15.0000000000025 -5.63993296509579e-015
endloop
endfacet
facet normal 0.195090322016256 -0.980785280403205 3.03683963235667e-014
outer loop
vertex 19.999999999996 15.0000000000025 19.9999999999994
vertex 26.9332850525735 16.3791161435291 1.30000454845458e-012
vertex 26.9332850525704 16.3791161435291 20.0000000000007
endloop
endfacet
facet normal 5.63537942208493e-014 -0.382683432365095 -0.923879532511285
outer loop
vertex 4.9999999999986 11.5556349186112 11.5556349186106
vertex -1.11670672708897e-012 10.0000000000002 12.2000000000001
vertex -1.28590471604184e-012 11.5556349186106 11.5556349186105
endloop
endfacet
facet normal 5.63537942208493e-014 -0.382683432365095 -0.923879532511285
outer loop
vertex -1.11670672708897e-012 10.0000000000002 12.2000000000001
vertex 4.9999999999986 11.5556349186112 11.5556349186106
vertex 4.99999999999878 10.0000000000008 12.2000000000002
endloop
endfacet
facet normal -1.04792562216131e-013 0.923879532511285 0.382683432365095
outer loop
vertex -8.23430212903986e-013 7.80000000000023 10.0000000000001
vertex 4.99999999999901 8.44436508139037 8.44436508138976
vertex -8.79829542554944e-013 8.44436508138983 8.4443650813897
endloop
endfacet
facet normal -1.04792562216131e-013 0.923879532511285 0.382683432365095
outer loop
vertex 4.99999999999901 8.44436508139037 8.44436508138976
vertex -8.23430212903986e-013 7.80000000000023 10.0000000000001
vertex 4.99999999999908 7.80000000000077 10.0000000000002
endloop
endfacet
facet normal -9.94672946468373e-014 0.923879532511289 -0.382683432365084
outer loop
vertex -9.13669140345519e-013 8.44436508138979 11.5556349186105
vertex 4.99999999999908 7.80000000000077 10.0000000000002
vertex -8.23430212903986e-013 7.80000000000023 10.0000000000001
endloop
endfacet
facet normal -9.94672946468373e-014 0.923879532511289 -0.382683432365084
outer loop
vertex 4.99999999999908 7.80000000000077 10.0000000000002
vertex -9.13669140345519e-013 8.44436508138979 11.5556349186105
vertex 4.99999999999898 8.44436508139037 11.5556349186106
endloop
endfacet
facet normal -3.34284363326862e-014 0.382683432365083 -0.92387953251129
outer loop
vertex 4.99999999999878 10.0000000000008 12.2000000000002
vertex -9.13669140345519e-013 8.44436508138979 11.5556349186105
vertex -1.11670672708897e-012 10.0000000000002 12.2000000000001
endloop
endfacet
facet normal -3.34284363326862e-014 0.382683432365083 -0.92387953251129
outer loop
vertex -9.13669140345519e-013 8.44436508138979 11.5556349186105
vertex 4.99999999999878 10.0000000000008 12.2000000000002
vertex 4.99999999999898 8.44436508139037 11.5556349186106
endloop
endfacet
facet normal 1.03634242649381e-013 -0.923879532511285 0.382683432365095
outer loop
vertex 4.99999999999865 11.5556349186112 8.44436508138976
vertex -1.3423040456928e-012 12.2000000000002 10.0000000000001
vertex -1.25206511825127e-012 11.5556349186106 8.4443650813897
endloop
endfacet
facet normal 1.03634242649381e-013 -0.923879532511285 0.382683432365095
outer loop
vertex -1.3423040456928e-012 12.2000000000002 10.0000000000001
vertex 4.99999999999865 11.5556349186112 8.44436508138976
vertex 4.99999999999855 12.2000000000008 10.0000000000002
endloop
endfacet
facet normal 3.95505923027821e-014 -0.382683432365093 0.923879532511286
outer loop
vertex -8.36966052020216e-012 56.2350938984996 7.80000000000009
vertex 4.99999999999131 57.7907288171107 8.44436508138975
vertex -8.59525783880599e-012 57.7907288171101 8.44436508138969
endloop
endfacet
facet normal 3.95505923027821e-014 -0.382683432365093 0.923879532511286
outer loop
vertex 4.99999999999131 57.7907288171107 8.44436508138975
vertex -8.36966052020216e-012 56.2350938984996 7.80000000000009
vertex 4.99999999999153 56.2350938985003 7.80000000000016
endloop
endfacet
facet normal -0.587785252292581 0.809016994374869 -8.15995000777134e-014
outer loop
vertex 23.0901699437457 23.6069817863014 13.0
vertex 28.090169943747 27.2396944263288 1.51150203464567e-012
vertex 23.0901699437475 23.6069817863014 5.75273162439771e-013
endloop
endfacet
facet normal -0.587785252292581 0.809016994374869 -8.15995000777134e-014
outer loop
vertex 28.090169943747 27.2396944263288 1.51150203464567e-012
vertex 23.0901699437457 23.6069817863014 13.0
vertex 28.0901699437452 27.2396944263288 13.0000000000009
endloop
endfacet
facet normal 1.31408686537862e-013 -1.0 1.82434344999365e-026
outer loop
vertex 23.090169943745 42.6281121122044 5.75273162439771e-013
vertex 16.9098300562443 42.6281121122036 12.9999999999988
vertex 16.9098300562461 42.6281121122036 -5.86553028369963e-013
endloop
endfacet
facet normal 1.31408686537862e-013 -1.0 1.82434344999365e-026
outer loop
vertex 16.9098300562443 42.6281121122036 12.9999999999988
vertex 23.090169943745 42.6281121122044 5.75273162439771e-013
vertex 23.0901699437432 42.6281121122044 13.0
endloop
endfacet
facet normal -0.587785252292371 -0.809016994375022 -8.15995000776932e-014
outer loop
vertex 28.0901699437455 38.9953994721782 1.51150203464567e-012
vertex 23.0901699437432 42.6281121122044 13.0
vertex 23.090169943745 42.6281121122044 5.75273162439771e-013
endloop
endfacet
facet normal -0.587785252292371 -0.809016994375022 -8.15995000776932e-014
outer loop
vertex 23.0901699437432 42.6281121122044 13.0
vertex 28.0901699437455 38.9953994721782 1.51150203464567e-012
vertex 28.0901699437437 38.9953994721782 13.0000000000009
endloop
endfacet
facet normal 1.0 1.89125752096212e-013 1.26898491714651e-014
outer loop
vertex 4.99999999999317 51.2350938985005 6.31672492090729e-013
vertex 4.99999999999181 54.0350938985003 10.0000000000002
vertex 4.99999999999268 51.2350938985005 20.0
endloop
endfacet
facet normal 1.0 1.89125752096212e-013 1.26898491714651e-014
outer loop
vertex 4.99999999999181 54.0350938985003 10.0000000000002
vertex 4.99999999999317 51.2350938985005 6.31672492090729e-013
vertex 4.99999999999175 54.6794589798899 8.44436508138975
endloop
endfacet
facet normal 1.0 1.89125752096212e-013 1.26898491714651e-014
outer loop
vertex 4.99999999999175 54.6794589798899 8.44436508138975
vertex 4.99999999999317 51.2350938985005 6.31672492090729e-013
vertex 4.9999999999901 66.2350938985004 0.0
endloop
endfacet
facet normal 1.0 1.89125752096212e-013 1.26898491714651e-014
outer loop
vertex 4.99999999999175 54.6794589798899 8.44436508138975
vertex 4.9999999999901 66.2350938985004 0.0
vertex 4.99999999999153 56.2350938985003 7.80000000000016
endloop
endfacet
facet normal 1.0 1.89125752096212e-013 1.26898491714651e-014
outer loop
vertex 4.99999999999153 56.2350938985003 7.80000000000016
vertex 4.9999999999901 66.2350938985004 0.0
vertex 4.99999999999131 57.7907288171107 8.44436508138975
endloop
endfacet
facet normal 1.0 1.89125752096212e-013 1.26898491714651e-014
outer loop
vertex 4.99999999999131 57.7907288171107 8.44436508138975
vertex 4.9999999999901 66.2350938985004 0.0
vertex 4.99999999999119 58.4350938985003 10.0000000000002
endloop
endfacet
facet normal 1.0 1.89125752096212e-013 1.26898491714651e-014
outer loop
vertex 4.99999999999268 51.2350938985005 20.0
vertex 4.9999999999917 54.6794589798899 11.5556349186106
vertex 4.99999999999008 66.2350938985005 20.0
endloop
endfacet
facet normal 1.0 1.89125752096212e-013 1.26898491714651e-014
outer loop
vertex 4.9999999999917 54.6794589798899 11.5556349186106
vertex 4.99999999999268 51.2350938985005 20.0
vertex 4.99999999999181 54.0350938985003 10.0000000000002
endloop
endfacet
facet normal 1.0 1.89125752096212e-013 1.26898491714651e-014
outer loop
vertex 4.99999999999008 66.2350938985005 20.0
vertex 4.9999999999917 54.6794589798899 11.5556349186106
vertex 4.99999999999147 56.2350938985003 12.2000000000002
endloop
endfacet
facet normal 1.0 1.89125752096212e-013 1.26898491714651e-014
outer loop
vertex 4.99999999999008 66.2350938985005 20.0
vertex 4.99999999999147 56.2350938985003 12.2000000000002
vertex 4.99999999999127 57.7907288171107 11.5556349186106
endloop
endfacet
facet normal 1.0 1.89125752096212e-013 1.26898491714651e-014
outer loop
vertex 4.99999999999008 66.2350938985005 20.0
vertex 4.99999999999127 57.7907288171107 11.5556349186106
vertex 4.99999999999119 58.4350938985003 10.0000000000002
endloop
endfacet
facet normal 1.0 1.89125752096212e-013 1.26898491714651e-014
outer loop
vertex 4.99999999999008 66.2350938985005 20.0
vertex 4.99999999999119 58.4350938985003 10.0000000000002
vertex 4.9999999999901 66.2350938985004 0.0
endloop
endfacet
facet normal -0.831469612302471 -0.555570233019713 -1.5808130654604e-013
outer loop
vertex 28.1248014632277 41.2423484124885 20.0000000000009
vertex 30.6155646888308 37.5146578156188 13.0000000000014
vertex 30.6155646888294 37.5146578156188 20.0000000000014
endloop
endfacet
facet normal -0.831469612302471 -0.555570233019713 -1.5808130654604e-013
outer loop
vertex 30.6155646888308 37.5146578156188 13.0000000000014
vertex 28.1248014632277 41.2423484124885 20.0000000000009
vertex 28.124801463229 41.2423484124885 13.0000000000009
endloop
endfacet
facet normal 7.93125196168029e-014 1.13315666928482e-026 -1.0
outer loop
vertex 9.9999999999968 33.1175469492512 -1.883737610342e-012
vertex 10.3844617305925 27.2237907807403 -2.56616949911859e-012
vertex 9.38443531115705 28.7204360828848 -2.63102872821719e-012
endloop
endfacet
facet normal 7.93125196168029e-014 1.13315666928482e-026 -1.0
outer loop
vertex 10.3844617305925 27.2237907807403 -2.56616949911859e-012
vertex 9.9999999999968 33.1175469492512 -1.883737610342e-012
vertex 11.9098300562481 27.2396944263268 -1.52278190057586e-012
endloop
endfacet
facet normal 7.93125196168029e-014 1.13315666928482e-026 -1.0
outer loop
vertex 4.99999999999317 51.2350938985005 6.31672492090729e-013
vertex 6.79216960693356 26.9883395155114 -2.39415154368316e-012
vertex 4.99999999999788 15.0000000000007 6.31672492090729e-013
endloop
endfacet
facet normal 7.93125196168029e-014 1.13315666928482e-026 -1.0
outer loop
vertex 6.79216960693356 26.9883395155114 -2.39415154368316e-012
vertex 4.99999999999317 51.2350938985005 6.31672492090729e-013
vertex 11.9098300562466 38.9953994721761 -1.52278190057586e-012
endloop
endfacet
facet normal 7.93125196168029e-014 1.13315666928482e-026 -1.0
outer loop
vertex 11.9098300562466 38.9953994721761 -1.52278190057586e-012
vertex 4.99999999999317 51.2350938985005 6.31672492090729e-013
vertex 19.9999999999944 51.2350938985023 -5.63993296509579e-015
endloop
endfacet
facet normal 7.93125196168029e-014 1.13315666928482e-026 -1.0
outer loop
vertex 6.79216960693356 26.9883395155114 -2.39415154368316e-012
vertex 11.9098300562466 38.9953994721761 -1.52278190057586e-012
vertex 7.58828924932758 28.6027104502703 -2.54078980077566e-012
endloop
endfacet
facet normal 7.93125196168029e-014 1.13315666928482e-026 -1.0
outer loop
vertex 7.58828924932758 28.6027104502703 -2.54078980077566e-012
vertex 11.9098300562466 38.9953994721761 -1.52278190057586e-012
vertex 9.9999999999968 33.1175469492512 -1.883737610342e-012
endloop
endfacet
facet normal 7.93125196168029e-014 1.13315666928482e-026 -1.0
outer loop
vertex 7.58828924932758 28.6027104502703 -2.54078980077566e-012
vertex 9.9999999999968 33.1175469492512 -1.883737610342e-012
vertex 9.38443531115705 28.7204360828848 -2.63102872821719e-012
endloop
endfacet
facet normal 7.93125196168029e-014 1.13315666928482e-026 -1.0
outer loop
vertex 11.9098300562466 38.9953994721761 -1.52278190057586e-012
vertex 19.9999999999944 51.2350938985023 -5.63993296509579e-015
vertex 16.9098300562461 42.6281121122036 -5.86553028369963e-013
endloop
endfacet
facet normal 7.93125196168029e-014 1.13315666928482e-026 -1.0
outer loop
vertex 16.9098300562461 42.6281121122036 -5.86553028369963e-013
vertex 19.9999999999944 51.2350938985023 -5.63993296509579e-015
vertex 23.090169943745 42.6281121122044 5.75273162439771e-013
endloop
endfacet
facet normal 7.93125196168029e-014 1.13315666928482e-026 -1.0
outer loop
vertex 23.090169943745 42.6281121122044 5.75273162439771e-013
vertex 19.9999999999944 51.2350938985023 -5.63993296509579e-015
vertex 26.9332850525692 49.8559777549777 1.30000454845458e-012
endloop
endfacet
facet normal 7.93125196168029e-014 1.13315666928482e-026 -1.0
outer loop
vertex 23.090169943745 42.6281121122044 5.75273162439771e-013
vertex 26.9332850525692 49.8559777549777 1.30000454845458e-012
vertex 28.0901699437455 38.9953994721782 1.51150203464567e-012
endloop
endfacet
facet normal 7.93125196168029e-014 1.13315666928482e-026 -1.0
outer loop
vertex 28.0901699437455 38.9953994721782 1.51150203464567e-012
vertex 26.9332850525692 49.8559777549777 1.30000454845458e-012
vertex 32.8110403062754 45.9285872555344 2.40543140961336e-012
endloop
endfacet
facet normal 7.93125196168029e-014 1.13315666928482e-026 -1.0
outer loop
vertex 28.0901699437455 38.9953994721782 1.51150203464567e-012
vertex 32.8110403062754 45.9285872555344 2.40543140961336e-012
vertex 29.9999999999968 33.1175469492538 1.8724577444118e-012
endloop
endfacet
facet normal 7.93125196168029e-014 1.13315666928482e-026 -1.0
outer loop
vertex 4.99999999999788 15.0000000000007 6.31672492090729e-013
vertex 7.79219602636902 25.4916942133669 -2.32929231458456e-012
vertex 19.9999999999991 15.0000000000025 -5.63993296509579e-015
endloop
endfacet
facet normal 7.93125196168029e-014 1.13315666928482e-026 -1.0
outer loop
vertex 7.79219602636902 25.4916942133669 -2.32929231458456e-012
vertex 4.99999999999788 15.0000000000007 6.31672492090729e-013
vertex 6.79216960693356 26.9883395155114 -2.39415154368316e-012
endloop
endfacet
facet normal 7.93125196168029e-014 1.13315666928482e-026 -1.0
outer loop
vertex 19.9999999999991 15.0000000000025 -5.63993296509579e-015
vertex 7.79219602636902 25.4916942133669 -2.32929231458456e-012
vertex 9.5883420881985 25.6094198459814 -2.41107134257845e-012
endloop
endfacet
facet normal 7.93125196168029e-014 1.13315666928482e-026 -1.0
outer loop
vertex 19.9999999999991 15.0000000000025 -5.63993296509579e-015
vertex 9.5883420881985 25.6094198459814 -2.41107134257845e-012
vertex 10.3844617305925 27.2237907807403 -2.56616949911859e-012
endloop
endfacet
facet normal 7.93125196168029e-014 1.13315666928482e-026 -1.0
outer loop
vertex 19.9999999999991 15.0000000000025 -5.63993296509579e-015
vertex 10.3844617305925 27.2237907807403 -2.56616949911859e-012
vertex 11.9098300562481 27.2396944263268 -1.52278190057586e-012
endloop
endfacet
facet normal 7.93125196168029e-014 1.13315666928482e-026 -1.0
outer loop
vertex 19.9999999999991 15.0000000000025 -5.63993296509579e-015
vertex 11.9098300562481 27.2396944263268 -1.52278190057586e-012
vertex 16.9098300562486 23.6069817863005 -5.86553028369963e-013
endloop
endfacet
facet normal 7.93125196168029e-014 1.13315666928482e-026 -1.0
outer loop
vertex 19.9999999999991 15.0000000000025 -5.63993296509579e-015
vertex 16.9098300562486 23.6069817863005 -5.86553028369963e-013
vertex 23.0901699437475 23.6069817863014 5.75273162439771e-013
endloop
endfacet
facet normal 7.93125196168029e-014 1.13315666928482e-026 -1.0
outer loop
vertex 19.9999999999991 15.0000000000025 -5.63993296509579e-015
vertex 23.0901699437475 23.6069817863014 5.75273162439771e-013
vertex 26.9332850525735 16.3791161435291 1.30000454845458e-012
endloop
endfacet
facet normal 7.93125196168029e-014 1.13315666928482e-026 -1.0
outer loop
vertex 26.9332850525735 16.3791161435291 1.30000454845458e-012
vertex 23.0901699437475 23.6069817863014 5.75273162439771e-013
vertex 28.090169943747 27.2396944263288 1.51150203464567e-012
endloop
endfacet
facet normal 7.93125196168029e-014 1.13315666928482e-026 -1.0
outer loop
vertex 26.9332850525735 16.3791161435291 1.30000454845458e-012
vertex 28.090169943747 27.2396944263288 1.51150203464567e-012
vertex 32.8110403062787 20.3065066429739 2.40543140961336e-012
endloop
endfacet
facet normal 7.93125196168029e-014 1.13315666928482e-026 -1.0
outer loop
vertex 32.8110403062787 20.3065066429739 2.40543140961336e-012
vertex 28.090169943747 27.2396944263288 1.51150203464567e-012
vertex 29.9999999999968 33.1175469492538 1.8724577444118e-012
endloop
endfacet
facet normal 7.93125196168029e-014 1.13315666928482e-026 -1.0
outer loop
vertex 32.8110403062787 20.3065066429739 2.40543140961336e-012
vertex 29.9999999999968 33.1175469492538 1.8724577444118e-012
vertex 32.8110403062754 45.9285872555344 2.40543140961336e-012
endloop
endfacet
facet normal 7.93125196168029e-014 1.13315666928482e-026 -1.0
outer loop
vertex 32.8110403062787 20.3065066429739 2.40543140961336e-012
vertex 32.8110403062754 45.9285872555344 2.40543140961336e-012
vertex 36.7384308057202 40.0508320018293 3.14426262804091e-012
endloop
endfacet
facet normal 7.93125196168029e-014 1.13315666928482e-026 -1.0
outer loop
vertex 32.8110403062787 20.3065066429739 2.40543140961336e-012
vertex 36.7384308057202 40.0508320018293 3.14426262804091e-012
vertex 36.738430805722 26.18426189668 3.14426262804091e-012
endloop
endfacet
facet normal 7.93125196168029e-014 1.13315666928482e-026 -1.0
outer loop
vertex 36.738430805722 26.18426189668 3.14426262804091e-012
vertex 36.7384308057202 40.0508320018293 3.14426262804091e-012
vertex 38.1175469492467 33.1175469492548 3.40369954443531e-012
endloop
endfacet
facet normal 7.93125196168029e-014 1.13315666928482e-026 -1.0
outer loop
vertex 4.9999999999901 66.2350938985004 0.0
vertex 0.0 0.0 0.0
vertex -9.89244242077802e-012 66.2350938984998 0.0
endloop
endfacet
facet normal 7.93125196168029e-014 1.13315666928482e-026 -1.0
outer loop
vertex 0.0 0.0 0.0
vertex 4.9999999999901 66.2350938985004 0.0
vertex 5.0 6.54232223951112e-013 0.0
endloop
endfacet
facet normal 7.93125196168029e-014 1.13315666928482e-026 -1.0
outer loop
vertex 5.0 6.54232223951112e-013 0.0
vertex 4.9999999999901 66.2350938985004 0.0
vertex 4.99999999999788 15.0000000000007 6.31672492090729e-013
endloop
endfacet
facet normal 7.93125196168029e-014 1.13315666928482e-026 -1.0
outer loop
vertex 4.99999999999788 15.0000000000007 6.31672492090729e-013
vertex 4.9999999999901 66.2350938985004 0.0
vertex 4.99999999999317 51.2350938985005 6.31672492090729e-013
endloop
endfacet
facet normal -0.555570233019703 0.831469612302478 -1.05625202812716e-013
outer loop
vertex 24.39711086636 22.5019822604167 20.0000000000002
vertex 28.1248014632311 24.9927454860184 13.0000000000009
vertex 24.3971108663613 22.5019822604167 13.0000000000002
endloop
endfacet
facet normal -0.555570233019703 0.831469612302478 -1.05625202812716e-013
outer loop
vertex 28.1248014632311 24.9927454860184 13.0000000000009
vertex 24.39711086636 22.5019822604167 20.0000000000002
vertex 28.1248014632298 24.9927454860184 20.0000000000009
endloop
endfacet
facet normal 0.195090322016008 0.980785280403255 3.72563570280698e-014
outer loop
vertex 15.6028891336301 22.5019822604156 19.9999999999985
vertex 19.9999999999965 21.6273425283567 12.9999999999994
vertex 15.6028891336314 22.5019822604156 12.9999999999985
endloop
endfacet
facet normal 0.195090322016008 0.980785280403255 3.72563570280698e-014
outer loop
vertex 19.9999999999965 21.6273425283567 12.9999999999994
vertex 15.6028891336301 22.5019822604156 19.9999999999985
vertex 19.9999999999951 21.6273425283567 19.9999999999994
endloop
endfacet
facet normal 0.980785280403256 -0.195090322016 1.52671708976944e-013
outer loop
vertex 38.1175469492467 33.1175469492548 3.40369954443531e-012
vertex 36.7384308057189 26.18426189668 20.0000000000025
vertex 36.738430805722 26.18426189668 3.14426262804091e-012
endloop
endfacet
facet normal 0.980785280403256 -0.195090322016 1.52671708976944e-013
outer loop
vertex 36.7384308057189 26.18426189668 20.0000000000025
vertex 38.1175469492467 33.1175469492548 3.40369954443531e-012
vertex 38.1175469492436 33.1175469492548 20.0000000000028
endloop
endfacet
facet normal 0.195090322016249 -0.980785280403206 3.6463203360245e-014
outer loop
vertex 19.9999999999935 44.6077513701483 12.9999999999994
vertex 15.6028891336274 43.7331116380883 19.9999999999985
vertex 15.6028891336287 43.7331116380883 12.9999999999985
endloop
endfacet
facet normal 0.195090322016249 -0.980785280403206 3.6463203360245e-014
outer loop
vertex 15.6028891336274 43.7331116380883 19.9999999999985
vertex 19.9999999999935 44.6077513701483 12.9999999999994
vertex 19.9999999999922 44.6077513701483 19.9999999999994
endloop
endfacet
facet normal -0.195090322016007 -0.980785280403255 -3.70928760878899e-014
outer loop
vertex 24.3971108663586 43.7331116380894 13.0000000000002
vertex 19.9999999999922 44.6077513701483 19.9999999999994
vertex 19.9999999999935 44.6077513701483 12.9999999999994
endloop
endfacet
facet normal -0.195090322016007 -0.980785280403255 -3.70928760878899e-014
outer loop
vertex 19.9999999999922 44.6077513701483 19.9999999999994
vertex 24.3971108663586 43.7331116380894 13.0000000000002
vertex 24.3971108663572 43.7331116380894 20.0000000000002
endloop
endfacet
facet normal -5.46261398882483e-014 0.382683432365088 0.923879532511288
outer loop
vertex -8.79829542554944e-013 8.44436508138983 8.4443650813897
vertex 4.99999999999884 10.0000000000008 7.80000000000017
vertex -1.04902753150782e-012 10.0000000000002 7.8000000000001
endloop
endfacet
facet normal -5.46261398882483e-014 0.382683432365088 0.923879532511288
outer loop
vertex 4.99999999999884 10.0000000000008 7.80000000000017
vertex -8.79829542554944e-013 8.44436508138983 8.4443650813897
vertex 4.99999999999901 8.44436508139037 8.44436508138976
endloop
endfacet
facet normal 1.13132389071697e-013 -0.923879532511285 -0.382683432365095
outer loop
vertex 4.99999999999855 12.2000000000008 10.0000000000002
vertex -1.28590471604184e-012 11.5556349186106 11.5556349186105
vertex -1.3423040456928e-012 12.2000000000002 10.0000000000001
endloop
endfacet
facet normal 1.13132389071697e-013 -0.923879532511285 -0.382683432365095
outer loop
vertex -1.28590471604184e-012 11.5556349186106 11.5556349186105
vertex 4.99999999999855 12.2000000000008 10.0000000000002
vertex 4.9999999999986 11.5556349186112 11.5556349186106
endloop
endfacet
facet normal -1.31408686537862e-013 1.0 -1.82434344999365e-026
outer loop
vertex 16.9098300562467 23.6069817863005 12.9999999999988
vertex 23.0901699437475 23.6069817863014 5.75273162439771e-013
vertex 16.9098300562486 23.6069817863005 -5.86553028369963e-013
endloop
endfacet
facet normal -1.31408686537862e-013 1.0 -1.82434344999365e-026
outer loop
vertex 23.0901699437475 23.6069817863014 5.75273162439771e-013
vertex 16.9098300562467 23.6069817863005 12.9999999999988
vertex 23.0901699437457 23.6069817863014 13.0
endloop
endfacet
facet normal 0.980785280403204 0.195090322016263 1.8332515164361e-013
outer loop
vertex 8.50979557909918 33.1175469492509 12.9999999999972
vertex 9.38443531115791 28.7204360828863 19.9999999999974
vertex 9.38443531115922 28.7204360828863 12.9999999999974
endloop
endfacet
facet normal 0.980785280403204 0.195090322016263 1.8332515164361e-013
outer loop
vertex 9.38443531115791 28.7204360828863 19.9999999999974
vertex 8.50979557909918 33.1175469492509 12.9999999999972
vertex 8.50979557909787 33.1175469492509 19.9999999999972
endloop
endfacet
facet normal 1.23053082874816e-013 -1.0 -1.02661092952753e-029
outer loop
vertex -2.91734345014838e-012 20.0 12.2000000000001
vertex -4.40000000000298 19.9999999999995 12.2000000000001
vertex -2.91734345014838e-012 20.0 7.8000000000001
endloop
endfacet
facet normal -1.4356193002062e-013 1.0 -2.05322185905512e-029
outer loop
vertex -6.2501032127571e-012 46.2350938984997 12.2000000000001
vertex -6.2501032127571e-012 46.2350938984997 7.80000000000009
vertex -4.40000000000625 46.2350938984991 12.2000000000001
endloop
endfacet
facet normal 0.896872741532738 -0.4422886902189 -6.72387992895288e-015
outer loop
vertex 7.58828924932758 28.6027104502703 -2.54078980077566e-012
vertex 6.79216960693443 26.9883395155128 19.9999999999976
vertex 6.79216960693356 26.9883395155114 -2.39415154368316e-012
endloop
endfacet
facet normal 0.896872741532738 -0.4422886902189 -6.72387992895288e-015
outer loop
vertex 6.79216960693443 26.9883395155128 19.9999999999976
vertex 7.58828924932758 28.6027104502703 -2.54078980077566e-012
vertex 7.58828924932845 28.6027104502718 19.9999999999975
endloop
endfacet
facet normal 0.0654031292303389 -0.997858923238591 7.17667547058789e-014
outer loop
vertex 9.38443531115922 28.7204360828863 12.9999999999974
vertex 7.58828924932758 28.6027104502703 -2.54078980077566e-012
vertex 9.38443531115705 28.7204360828848 -2.63102872821719e-012
endloop
endfacet
facet normal 0.0654031292303389 -0.997858923238591 7.17667547058789e-014
outer loop
vertex 7.58828924932758 28.6027104502703 -2.54078980077566e-012
vertex 9.38443531115922 28.7204360828863 12.9999999999974
vertex 7.58828924932845 28.6027104502718 19.9999999999975
endloop
endfacet
facet normal 0.0654031292303389 -0.997858923238591 7.17667547058789e-014
outer loop
vertex 7.58828924932845 28.6027104502718 19.9999999999975
vertex 9.38443531115922 28.7204360828863 12.9999999999974
vertex 9.38443531115791 28.7204360828863 19.9999999999974
endloop
endfacet
facet normal -0.896872741532709 0.44228869021896 8.57560471769187e-015
outer loop
vertex 9.58834208819936 25.6094198459828 19.9999999999976
vertex 10.3844617305925 27.2237907807403 -2.56616949911859e-012
vertex 9.5883420881985 25.6094198459814 -2.41107134257845e-012
endloop
endfacet
facet normal -0.896872741532709 0.44228869021896 8.57560471769187e-015
outer loop
vertex 10.3844617305925 27.2237907807403 -2.56616949911859e-012
vertex 9.58834208819936 25.6094198459828 19.9999999999976
vertex 10.3844617305934 27.2237907807418 19.9999999999974
endloop
endfacet
facet normal -0.896872741532709 0.44228869021896 8.57560471769187e-015
outer loop
vertex 10.3844617305925 27.2237907807403 -2.56616949911859e-012
vertex 10.3844617305934 27.2237907807418 19.9999999999974
vertex 10.3844617305937 27.2237907807417 12.9999999999976
endloop
endfacet
facet normal -0.0654031292302615 0.997858923238596 -6.94641050615502e-014
outer loop
vertex 7.79219602636902 25.4916942133669 -2.32929231458456e-012
vertex 9.58834208819936 25.6094198459828 19.9999999999976
vertex 9.5883420881985 25.6094198459814 -2.41107134257845e-012
endloop
endfacet
facet normal -0.0654031292302615 0.997858923238596 -6.94641050615502e-014
outer loop
vertex 9.58834208819936 25.6094198459828 19.9999999999976
vertex 7.79219602636902 25.4916942133669 -2.32929231458456e-012
vertex 7.79219602636988 25.4916942133684 19.9999999999977
endloop
endfacet
facet normal 0.831469612302481 0.555570233019698 -7.61879849905035e-014
outer loop
vertex 6.79216960693356 26.9883395155114 -2.39415154368316e-012
vertex 7.79219602636988 25.4916942133684 19.9999999999977
vertex 7.79219602636902 25.4916942133669 -2.32929231458456e-012
endloop
endfacet
facet normal 0.831469612302481 0.555570233019698 -7.61879849905035e-014
outer loop
vertex 7.79219602636988 25.4916942133684 19.9999999999977
vertex 6.79216960693356 26.9883395155114 -2.39415154368316e-012
vertex 6.79216960693443 26.9883395155128 19.9999999999976
endloop
endfacet
facet normal -0.831469612302605 -0.555570233019512 1.70176852003309e-013
outer loop
vertex 10.3844617305937 27.2237907807417 12.9999999999976
vertex 9.38443531115705 28.7204360828848 -2.63102872821719e-012
vertex 10.3844617305925 27.2237907807403 -2.56616949911859e-012
endloop
endfacet
facet normal -0.831469612302605 -0.555570233019512 1.70176852003309e-013
outer loop
vertex 9.38443531115705 28.7204360828848 -2.63102872821719e-012
vertex 10.3844617305937 27.2237907807417 12.9999999999976
vertex 9.38443531115922 28.7204360828863 12.9999999999974
endloop
endfacet
facet normal 0.831469612302396 0.555570233019825 9.75840064973164e-014
outer loop
vertex 10.3844617305937 27.2237907807417 12.9999999999976
vertex 11.8751985367597 24.9927454860163 19.9999999999978
vertex 11.875198536761 24.9927454860163 12.9999999999978
endloop
endfacet
facet normal 0.831469612302396 0.555570233019825 9.75840064973164e-014
outer loop
vertex 11.8751985367597 24.9927454860163 19.9999999999978
vertex 10.3844617305937 27.2237907807417 12.9999999999976
vertex 10.3844617305934 27.2237907807418 19.9999999999974
endloop
endfacet
endsolid lead screw support
