solid Z Lead Screw Support
facet normal -1.88331819584746e-013 -1.00566944570297e-017 1.0
outer loop
vertex 10.3844617305938 26.6237907807418 12.9999999999976
vertex 9.9999999999951 32.5175469492512 12.9999999999975
vertex 9.3844353111593 28.1204360828863 12.9999999999974
endloop
endfacet
facet normal -1.88331819584746e-013 -1.00566944570297e-017 1.0
outer loop
vertex 9.9999999999951 32.5175469492512 12.9999999999975
vertex 10.3844617305938 26.6237907807418 12.9999999999976
vertex 11.9098300562464 26.6396944263268 12.9999999999979
endloop
endfacet
facet normal -1.88331819584746e-013 -1.00566944570297e-017 1.0
outer loop
vertex 11.9098300562464 26.6396944263268 12.9999999999979
vertex 10.3844617305938 26.6237907807418 12.9999999999976
vertex 11.875198536761 24.3927454860164 12.9999999999978
endloop
endfacet
facet normal -1.88331819584746e-013 -1.00566944570297e-017 1.0
outer loop
vertex 11.9098300562464 26.6396944263268 12.9999999999979
vertex 11.875198536761 24.3927454860164 12.9999999999978
vertex 15.6028891336315 21.9019822604156 12.9999999999985
endloop
endfacet
facet normal -1.88331819584746e-013 -1.00566944570297e-017 1.0
outer loop
vertex 11.9098300562464 26.6396944263268 12.9999999999979
vertex 15.6028891336315 21.9019822604156 12.9999999999985
vertex 16.9098300562468 23.0069817863006 12.9999999999988
endloop
endfacet
facet normal -1.88331819584746e-013 -1.00566944570297e-017 1.0
outer loop
vertex 16.9098300562468 23.0069817863006 12.9999999999988
vertex 15.6028891336315 21.9019822604156 12.9999999999985
vertex 19.9999999999966 21.0273425283567 12.9999999999994
endloop
endfacet
facet normal -1.88331819584746e-013 -1.00566944570297e-017 1.0
outer loop
vertex 16.9098300562468 23.0069817863006 12.9999999999988
vertex 19.9999999999966 21.0273425283567 12.9999999999994
vertex 23.0901699437458 23.0069817863014 13.0
endloop
endfacet
facet normal -1.88331819584746e-013 -1.00566944570297e-017 1.0
outer loop
vertex 23.0901699437458 23.0069817863014 13.0
vertex 19.9999999999966 21.0273425283567 12.9999999999994
vertex 24.3971108663613 21.9019822604167 13.0000000000002
endloop
endfacet
facet normal -1.88331819584746e-013 -1.00566944570297e-017 1.0
outer loop
vertex 23.0901699437458 23.0069817863014 13.0
vertex 24.3971108663613 21.9019822604167 13.0000000000002
vertex 28.0901699437452 26.6396944263288 13.0000000000009
endloop
endfacet
facet normal -1.88331819584746e-013 -1.00566944570297e-017 1.0
outer loop
vertex 28.0901699437452 26.6396944263288 13.0000000000009
vertex 24.3971108663613 21.9019822604167 13.0000000000002
vertex 28.1248014632312 24.3927454860184 13.0000000000009
endloop
endfacet
facet normal -1.88331819584746e-013 -1.00566944570297e-017 1.0
outer loop
vertex 28.0901699437452 26.6396944263288 13.0000000000009
vertex 28.1248014632312 24.3927454860184 13.0000000000009
vertex 29.999999999995 32.5175469492538 13.0000000000013
endloop
endfacet
facet normal -1.88331819584746e-013 -1.00566944570297e-017 1.0
outer loop
vertex 29.999999999995 32.5175469492538 13.0000000000013
vertex 28.1248014632312 24.3927454860184 13.0000000000009
vertex 30.615564688832 28.120436082889 13.0000000000014
endloop
endfacet
facet normal -1.88331819584746e-013 -1.00566944570297e-017 1.0
outer loop
vertex 29.999999999995 32.5175469492538 13.0000000000013
vertex 30.615564688832 28.120436082889 13.0000000000014
vertex 30.6155646888308 36.9146578156188 13.0000000000014
endloop
endfacet
facet normal -1.88331819584746e-013 -1.00566944570297e-017 1.0
outer loop
vertex 30.6155646888308 36.9146578156188 13.0000000000014
vertex 30.615564688832 28.120436082889 13.0000000000014
vertex 31.4902044208909 32.517546949254 13.0000000000015
endloop
endfacet
facet normal -1.88331819584746e-013 -1.00566944570297e-017 1.0
outer loop
vertex 9.3844353111593 28.1204360828863 12.9999999999974
vertex 9.38443531115816 36.9146578156161 12.9999999999974
vertex 8.50979557909926 32.5175469492509 12.9999999999972
endloop
endfacet
facet normal -1.88331819584746e-013 -1.00566944570297e-017 1.0
outer loop
vertex 9.38443531115816 36.9146578156161 12.9999999999974
vertex 9.3844353111593 28.1204360828863 12.9999999999974
vertex 9.9999999999951 32.5175469492512 12.9999999999975
endloop
endfacet
facet normal -1.88331819584746e-013 -1.00566944570297e-017 1.0
outer loop
vertex 9.38443531115816 36.9146578156161 12.9999999999974
vertex 9.9999999999951 32.5175469492512 12.9999999999975
vertex 11.875198536759 40.6423484124866 12.9999999999978
endloop
endfacet
facet normal -1.88331819584746e-013 -1.00566944570297e-017 1.0
outer loop
vertex 11.875198536759 40.6423484124866 12.9999999999978
vertex 9.9999999999951 32.5175469492512 12.9999999999975
vertex 11.9098300562449 38.3953994721762 12.9999999999979
endloop
endfacet
facet normal -1.88331819584746e-013 -1.00566944570297e-017 1.0
outer loop
vertex 11.875198536759 40.6423484124866 12.9999999999978
vertex 11.9098300562449 38.3953994721762 12.9999999999979
vertex 15.6028891336288 43.1331116380883 12.9999999999985
endloop
endfacet
facet normal -1.88331819584746e-013 -1.00566944570297e-017 1.0
outer loop
vertex 15.6028891336288 43.1331116380883 12.9999999999985
vertex 11.9098300562449 38.3953994721762 12.9999999999979
vertex 16.9098300562443 42.0281121122036 12.9999999999988
endloop
endfacet
facet normal -1.88331819584746e-013 -1.00566944570297e-017 1.0
outer loop
vertex 15.6028891336288 43.1331116380883 12.9999999999985
vertex 16.9098300562443 42.0281121122036 12.9999999999988
vertex 19.9999999999936 44.0077513701483 12.9999999999994
endloop
endfacet
facet normal -1.88331819584746e-013 -1.00566944570297e-017 1.0
outer loop
vertex 19.9999999999936 44.0077513701483 12.9999999999994
vertex 16.9098300562443 42.0281121122036 12.9999999999988
vertex 23.0901699437433 42.0281121122044 13.0
endloop
endfacet
facet normal -1.88331819584746e-013 -1.00566944570297e-017 1.0
outer loop
vertex 19.9999999999936 44.0077513701483 12.9999999999994
vertex 23.0901699437433 42.0281121122044 13.0
vertex 24.3971108663586 43.1331116380894 13.0000000000002
endloop
endfacet
facet normal -1.88331819584746e-013 -1.00566944570297e-017 1.0
outer loop
vertex 24.3971108663586 43.1331116380894 13.0000000000002
vertex 23.0901699437433 42.0281121122044 13.0
vertex 28.0901699437438 38.3953994721782 13.0000000000009
endloop
endfacet
facet normal -1.88331819584746e-013 -1.00566944570297e-017 1.0
outer loop
vertex 24.3971108663586 43.1331116380894 13.0000000000002
vertex 28.0901699437438 38.3953994721782 13.0000000000009
vertex 28.1248014632291 40.6423484124886 13.0000000000009
endloop
endfacet
facet normal -1.88331819584746e-013 -1.00566944570297e-017 1.0
outer loop
vertex 28.1248014632291 40.6423484124886 13.0000000000009
vertex 28.0901699437438 38.3953994721782 13.0000000000009
vertex 29.999999999995 32.5175469492538 13.0000000000013
endloop
endfacet
facet normal -1.88331819584746e-013 -1.00566944570297e-017 1.0
outer loop
vertex 28.1248014632291 40.6423484124886 13.0000000000009
vertex 29.999999999995 32.5175469492538 13.0000000000013
vertex 30.6155646888308 36.9146578156188 13.0000000000014
endloop
endfacet
facet normal 0.980785280403257 -0.195090322015998 1.83336352353609e-013
outer loop
vertex 9.38443531115816 36.9146578156161 12.9999999999974
vertex 8.50979557909795 32.5175469492509 19.9999999999972
vertex 8.50979557909926 32.5175469492509 12.9999999999972
endloop
endfacet
facet normal 0.980785280403257 -0.195090322015998 1.83336352353609e-013
outer loop
vertex 8.50979557909795 32.5175469492509 19.9999999999972
vertex 9.38443531115816 36.9146578156161 12.9999999999974
vertex 9.38443531115685 36.9146578156161 19.9999999999974
endloop
endfacet
facet normal 0.980785280403206 0.195090322016252 1.52671708976938e-013
outer loop
vertex 36.7384308057203 39.4508320018293 3.14426262804091e-012
vertex 38.1175469492437 32.5175469492548 20.0000000000028
vertex 38.1175469492468 32.5175469492548 3.40369954443531e-012
endloop
endfacet
facet normal 0.980785280403206 0.195090322016252 1.52671708976938e-013
outer loop
vertex 38.1175469492437 32.5175469492548 20.0000000000028
vertex 36.7384308057203 39.4508320018293 3.14426262804091e-012
vertex 36.7384308057172 39.4508320018293 20.0000000000025
endloop
endfacet
facet normal -4.58227035286506e-014 0.382683432365083 -0.92387953251129
outer loop
vertex 5.99999999998922 56.0350938985006 12.2000000000002
vertex -8.18195650120757e-012 54.4794589798892 11.5556349186105
vertex -8.4075538198114e-012 56.0350938984997 12.2000000000001
endloop
endfacet
facet normal -4.58227035286506e-014 0.382683432365083 -0.92387953251129
outer loop
vertex -8.18195650120757e-012 54.4794589798892 11.5556349186105
vertex 5.99999999998922 56.0350938985006 12.2000000000002
vertex 5.99999999998945 54.4794589798901 11.5556349186106
endloop
endfacet
facet normal 0.831469612302617 -0.555570233019495 1.29428085529051e-013
outer loop
vertex 36.7384308057221 25.5842618966801 3.14426262804091e-012
vertex 32.8110403062757 19.7065066429739 20.0000000000018
vertex 32.8110403062788 19.7065066429739 2.40543140961336e-012
endloop
endfacet
facet normal 0.831469612302617 -0.555570233019495 1.29428085529051e-013
outer loop
vertex 32.8110403062757 19.7065066429739 20.0000000000018
vertex 36.7384308057221 25.5842618966801 3.14426262804091e-012
vertex 36.738430805719 25.5842618966801 20.0000000000025
endloop
endfacet
facet normal 0.951056516295193 -0.309016994374825 1.30372048042939e-013
outer loop
vertex 11.9098300562466 38.3953994721762 -1.52278190057586e-012
vertex 9.9999999999951 32.5175469492512 12.9999999999975
vertex 9.99999999999687 32.5175469492512 -1.883737610342e-012
endloop
endfacet
facet normal 0.951056516295193 -0.309016994374825 1.30372048042939e-013
outer loop
vertex 9.9999999999951 32.5175469492512 12.9999999999975
vertex 11.9098300562466 38.3953994721762 -1.52278190057586e-012
vertex 11.9098300562449 38.3953994721762 12.9999999999979
endloop
endfacet
facet normal 0.951056516295112 0.309016994375074 1.30378346255439e-013
outer loop
vertex 9.99999999999687 32.5175469492512 -1.883737610342e-012
vertex 11.9098300562464 26.6396944263268 12.9999999999979
vertex 11.9098300562482 26.6396944263268 -1.52278190057586e-012
endloop
endfacet
facet normal 0.951056516295112 0.309016994375074 1.30378346255439e-013
outer loop
vertex 11.9098300562464 26.6396944263268 12.9999999999979
vertex 9.99999999999687 32.5175469492512 -1.883737610342e-012
vertex 9.9999999999951 32.5175469492512 12.9999999999975
endloop
endfacet
facet normal -0.555570233019505 -0.83146961230261 -1.0564108607946e-013
outer loop
vertex 28.1248014632291 40.6423484124886 13.0000000000009
vertex 24.3971108663573 43.1331116380894 20.0000000000002
vertex 24.3971108663586 43.1331116380894 13.0000000000002
endloop
endfacet
facet normal -0.555570233019505 -0.83146961230261 -1.0564108607946e-013
outer loop
vertex 24.3971108663573 43.1331116380894 20.0000000000002
vertex 28.1248014632291 40.6423484124886 13.0000000000009
vertex 28.1248014632278 40.6423484124886 20.0000000000009
endloop
endfacet
facet normal 1.24078525232108e-013 -1.0 1.11954665264049e-026
outer loop
vertex 19.9999999999961 14.4000000000026 19.9999999999994
vertex 5.99999999999796 14.4000000000008 6.44644337910449e-013
vertex 19.9999999999992 14.4000000000026 -5.63993296509573e-015
endloop
endfacet
facet normal 1.24078525232108e-013 -1.0 1.11954665264049e-026
outer loop
vertex 5.99999999999796 14.4000000000008 6.44644337910449e-013
vertex 19.9999999999961 14.4000000000026 19.9999999999994
vertex 5.99999999999746 14.4000000000008 20.0
endloop
endfacet
facet normal -0.980785280403256 0.195090322015999 -1.83345264192574e-013
outer loop
vertex 31.4902044208895 32.517546949254 20.0000000000015
vertex 30.615564688832 28.120436082889 13.0000000000014
vertex 30.6155646888307 28.120436082889 20.0000000000014
endloop
endfacet
facet normal -0.980785280403256 0.195090322015999 -1.83345264192574e-013
outer loop
vertex 30.615564688832 28.120436082889 13.0000000000014
vertex 31.4902044208895 32.517546949254 20.0000000000015
vertex 31.4902044208909 32.517546949254 13.0000000000015
endloop
endfacet
facet normal -0.707106781186546 -4.81716821335177e-014 -0.707106781186549
outer loop
vertex -5.93796817272008e-012 53.8350938984996 7.5
vertex -2.00000000000304 11.1999999999999 9.5
vertex -2.00000000000594 53.8350938984993 9.5
endloop
endfacet
facet normal -0.707106781186546 -4.81716821335177e-014 -0.707106781186549
outer loop
vertex -2.00000000000304 11.1999999999999 9.5
vertex -5.93796817272008e-012 53.8350938984996 7.5
vertex -3.03904262866084e-012 11.2000000000002 7.50000000000002
endloop
endfacet
facet normal -3.81198940859267e-029 2.64567634283751e-016 1.0
outer loop
vertex -2.00000000000304 11.1999999999999 12.5
vertex -5.93796817272008e-012 53.8350938984996 12.5
vertex -2.00000000000594 53.8350938984993 12.5
endloop
endfacet
facet normal -3.81198940859267e-029 2.64567634283751e-016 1.0
outer loop
vertex -5.93796817272008e-012 53.8350938984996 12.5
vertex -2.00000000000304 11.1999999999999 12.5
vertex -3.03904262866084e-012 11.2000000000002 12.5
endloop
endfacet
facet normal 0.555570233019712 -0.831469612302472 1.03839193395457e-013
outer loop
vertex 15.6028891336288 43.1331116380883 12.9999999999985
vertex 11.8751985367577 40.6423484124866 19.9999999999978
vertex 11.875198536759 40.6423484124866 12.9999999999978
endloop
endfacet
facet normal 0.555570233019712 -0.831469612302472 1.03839193395457e-013
outer loop
vertex 11.8751985367577 40.6423484124866 19.9999999999978
vertex 15.6028891336288 43.1331116380883 12.9999999999985
vertex 15.6028891336275 43.1331116380883 19.9999999999985
endloop
endfacet
facet normal -6.90622394678978e-014 0.382683432365083 0.92387953251129
outer loop
vertex -8.1368370374868e-012 54.4794589798892 8.44436508138969
vertex 5.99999999998928 56.0350938985006 7.80000000000017
vertex -8.35115449016044e-012 56.0350938984997 7.80000000000009
endloop
endfacet
facet normal -6.90622394678978e-014 0.382683432365083 0.92387953251129
outer loop
vertex 5.99999999998928 56.0350938985006 7.80000000000017
vertex -8.1368370374868e-012 54.4794589798892 8.44436508138969
vertex 5.99999999998949 54.4794589798901 8.44436508138976
endloop
endfacet
facet normal 6.63992811369879e-014 -0.382683432365092 -0.923879532511286
outer loop
vertex 5.99999999998902 57.5907288171109 11.5556349186106
vertex -8.4075538198114e-012 56.0350938984997 12.2000000000001
vertex -8.61059140655485e-012 57.5907288171101 11.5556349186105
endloop
endfacet
facet normal 6.63992811369879e-014 -0.382683432365092 -0.923879532511286
outer loop
vertex -8.4075538198114e-012 56.0350938984997 12.2000000000001
vertex 5.99999999998902 57.5907288171109 11.5556349186106
vertex 5.99999999998922 56.0350938985006 12.2000000000002
endloop
endfacet
facet normal 0.555570233019492 0.831469612302619 1.04305506762421e-013
outer loop
vertex 11.8751985367597 24.3927454860164 19.9999999999978
vertex 15.6028891336315 21.9019822604156 12.9999999999985
vertex 11.875198536761 24.3927454860164 12.9999999999978
endloop
endfacet
facet normal 0.555570233019492 0.831469612302619 1.04305506762421e-013
outer loop
vertex 15.6028891336315 21.9019822604156 12.9999999999985
vertex 11.8751985367597 24.3927454860164 19.9999999999978
vertex 15.6028891336302 21.9019822604156 19.9999999999985
endloop
endfacet
facet normal 3.5257983446514e-014 -0.382683432365093 0.923879532511285
outer loop
vertex -9.10672925957812e-013 9.00000000000023 7.8000000000001
vertex 5.99999999999879 10.5556349186114 8.44436508138977
vertex -1.11371051270126e-012 10.5556349186106 8.4443650813897
endloop
endfacet
facet normal 3.5257983446514e-014 -0.382683432365093 0.923879532511285
outer loop
vertex 5.99999999999879 10.5556349186114 8.44436508138977
vertex -9.10672925957812e-013 9.00000000000023 7.8000000000001
vertex 5.99999999999898 9.00000000000097 7.80000000000018
endloop
endfacet
facet normal 0.587785252292376 0.809016994375018 8.13503794762489e-014
outer loop
vertex 11.9098300562464 26.6396944263268 12.9999999999979
vertex 16.9098300562486 23.0069817863006 -5.86553028369963e-013
vertex 11.9098300562482 26.6396944263268 -1.52278190057586e-012
endloop
endfacet
facet normal 0.587785252292376 0.809016994375018 8.13503794762489e-014
outer loop
vertex 16.9098300562486 23.0069817863006 -5.86553028369963e-013
vertex 11.9098300562464 26.6396944263268 12.9999999999979
vertex 16.9098300562468 23.0069817863006 12.9999999999988
endloop
endfacet
facet normal 0.195090322015994 0.980785280403257 3.01522396694453e-014
outer loop
vertex 19.9999999999914 50.6350938985024 19.9999999999994
vertex 26.9332850525693 49.2559777549777 1.30000454845458e-012
vertex 19.9999999999945 50.6350938985024 -5.63993296509573e-015
endloop
endfacet
facet normal 0.195090322015994 0.980785280403257 3.01522396694453e-014
outer loop
vertex 26.9332850525693 49.2559777549777 1.30000454845458e-012
vertex 19.9999999999914 50.6350938985024 19.9999999999994
vertex 26.9332850525662 49.2559777549777 20.0000000000007
endloop
endfacet
facet normal 1.0 1.58231452631854e-013 1.29718458197203e-014
outer loop
vertex 6.0 8.12150346973794e-013 1.29718458197203e-014
vertex 5.99999999999915 7.44436508139053 8.44436508138977
vertex 5.99999999999998 8.12150346973794e-013 20.0
endloop
endfacet
facet normal 1.0 1.58231452631854e-013 1.29718458197203e-014
outer loop
vertex 5.99999999999915 7.44436508139053 8.44436508138977
vertex 6.0 8.12150346973794e-013 1.29718458197203e-014
vertex 5.99999999999796 14.4000000000008 6.44644337910449e-013
endloop
endfacet
facet normal 1.0 1.58231452631854e-013 1.29718458197203e-014
outer loop
vertex 5.99999999999998 8.12150346973794e-013 20.0
vertex 5.99999999999915 7.44436508139053 8.44436508138977
vertex 5.99999999999921 6.80000000000093 10.0000000000002
endloop
endfacet
facet normal 1.0 1.58231452631854e-013 1.29718458197203e-014
outer loop
vertex 5.99999999999915 7.44436508139053 8.44436508138977
vertex 5.99999999999796 14.4000000000008 6.44644337910449e-013
vertex 5.99999999999898 9.00000000000097 7.80000000000018
endloop
endfacet
facet normal 1.0 1.58231452631854e-013 1.29718458197203e-014
outer loop
vertex 5.99999999999898 9.00000000000097 7.80000000000018
vertex 5.99999999999796 14.4000000000008 6.44644337910449e-013
vertex 5.99999999999879 10.5556349186114 8.44436508138977
endloop
endfacet
facet normal 1.0 1.58231452631854e-013 1.29718458197203e-014
outer loop
vertex 5.99999999999879 10.5556349186114 8.44436508138977
vertex 5.99999999999796 14.4000000000008 6.44644337910449e-013
vertex 5.99999999999868 11.200000000001 10.0000000000002
endloop
endfacet
facet normal 1.0 1.58231452631854e-013 1.29718458197203e-014
outer loop
vertex 5.99999999999998 8.12150346973794e-013 20.0
vertex 5.99999999999911 7.44436508139053 11.5556349186106
vertex 5.99999999999746 14.4000000000008 20.0
endloop
endfacet
facet normal 1.0 1.58231452631854e-013 1.29718458197203e-014
outer loop
vertex 5.99999999999911 7.44436508139053 11.5556349186106
vertex 5.99999999999998 8.12150346973794e-013 20.0
vertex 5.99999999999921 6.80000000000093 10.0000000000002
endloop
endfacet
facet normal 1.0 1.58231452631854e-013 1.29718458197203e-014
outer loop
vertex 5.99999999999746 14.4000000000008 20.0
vertex 5.99999999999911 7.44436508139053 11.5556349186106
vertex 5.99999999999892 9.00000000000097 12.2000000000002
endloop
endfacet
facet normal 1.0 1.58231452631854e-013 1.29718458197203e-014
outer loop
vertex 5.99999999999746 14.4000000000008 20.0
vertex 5.99999999999892 9.00000000000097 12.2000000000002
vertex 5.99999999999874 10.5556349186114 11.5556349186106
endloop
endfacet
facet normal 1.0 1.58231452631854e-013 1.29718458197203e-014
outer loop
vertex 5.99999999999746 14.4000000000008 20.0
vertex 5.99999999999874 10.5556349186114 11.5556349186106
vertex 5.99999999999868 11.200000000001 10.0000000000002
endloop
endfacet
facet normal 1.0 1.58231452631854e-013 1.29718458197203e-014
outer loop
vertex 5.99999999999746 14.4000000000008 20.0
vertex 5.99999999999868 11.200000000001 10.0000000000002
vertex 5.99999999999796 14.4000000000008 6.44644337910449e-013
endloop
endfacet
facet normal -0.195090322016259 0.980785280403204 -3.70973320074007e-014
outer loop
vertex 19.9999999999952 21.0273425283567 19.9999999999994
vertex 24.3971108663613 21.9019822604167 13.0000000000002
vertex 19.9999999999966 21.0273425283567 12.9999999999994
endloop
endfacet
facet normal -0.195090322016259 0.980785280403204 -3.70973320074007e-014
outer loop
vertex 24.3971108663613 21.9019822604167 13.0000000000002
vertex 19.9999999999952 21.0273425283567 19.9999999999994
vertex 24.39711086636 21.9019822604167 20.0000000000002
endloop
endfacet
facet normal 0.555570233019709 -0.831469612302474 8.64815439481745e-014
outer loop
vertex 32.8110403062788 19.7065066429739 2.40543140961336e-012
vertex 26.9332850525705 15.7791161435291 20.0000000000007
vertex 26.9332850525736 15.7791161435291 1.30000454845458e-012
endloop
endfacet
facet normal 0.555570233019709 -0.831469612302474 8.64815439481745e-014
outer loop
vertex 26.9332850525705 15.7791161435291 20.0000000000007
vertex 32.8110403062788 19.7065066429739 2.40543140961336e-012
vertex 32.8110403062757 19.7065066429739 20.0000000000018
endloop
endfacet
facet normal -0.980785280403205 -0.195090322016255 -1.86494952571794e-013
outer loop
vertex 30.6155646888295 36.9146578156188 20.0000000000014
vertex 31.4902044208909 32.517546949254 13.0000000000015
vertex 31.4902044208895 32.517546949254 20.0000000000015
endloop
endfacet
facet normal -0.980785280403205 -0.195090322016255 -1.86494952571794e-013
outer loop
vertex 31.4902044208909 32.517546949254 13.0000000000015
vertex 30.6155646888295 36.9146578156188 20.0000000000014
vertex 30.6155646888308 36.9146578156188 13.0000000000014
endloop
endfacet
facet normal -1.42878301782481e-013 1.0 -2.25597318603852e-015
outer loop
vertex -9.76660141649432e-012 65.0350938984998 20.0
vertex 5.99999999998799 65.0350938985006 1.40434330830595e-014
vertex -9.73276181870375e-012 65.0350938984998 1.35358391162317e-015
endloop
endfacet
facet normal -1.42878301782481e-013 1.0 -2.25597318603852e-015
outer loop
vertex 5.99999999998799 65.0350938985006 1.40434330830595e-014
vertex -9.76660141649432e-012 65.0350938984998 20.0
vertex 5.99999999998796 65.0350938985007 20.0
endloop
endfacet
facet normal 1.27234673813099e-013 -0.923879532511294 0.382683432365072
outer loop
vertex 5.99999999998905 57.5907288171109 8.44436508138976
vertex -8.68955046806619e-012 58.2350938984996 10.0000000000001
vertex -8.57675180876427e-012 57.5907288171101 8.44436508138969
endloop
endfacet
facet normal 1.27234673813099e-013 -0.923879532511294 0.382683432365072
outer loop
vertex -8.68955046806619e-012 58.2350938984996 10.0000000000001
vertex 5.99999999998905 57.5907288171109 8.44436508138976
vertex 5.99999999998894 58.2350938985005 10.0000000000002
endloop
endfacet
facet normal 1.367680057363e-013 -0.923879532511294 -0.382683432365072
outer loop
vertex 5.99999999998894 58.2350938985005 10.0000000000002
vertex -8.61059140655485e-012 57.5907288171101 11.5556349186105
vertex -8.68955046806619e-012 58.2350938984996 10.0000000000001
endloop
endfacet
facet normal 1.367680057363e-013 -0.923879532511294 -0.382683432365072
outer loop
vertex -8.61059140655485e-012 57.5907288171101 11.5556349186105
vertex 5.99999999998894 58.2350938985005 10.0000000000002
vertex 5.99999999998902 57.5907288171109 11.5556349186106
endloop
endfacet
facet normal -1.43718593998717e-013 0.923879532511284 0.382683432365095
outer loop
vertex -8.06915784190565e-012 53.8350938984996 10.0000000000001
vertex 5.99999999998949 54.4794589798901 8.44436508138976
vertex -8.1368370374868e-012 54.4794589798892 8.44436508138969
endloop
endfacet
facet normal -1.43718593998717e-013 0.923879532511284 0.382683432365095
outer loop
vertex 5.99999999998949 54.4794589798901 8.44436508138976
vertex -8.06915784190565e-012 53.8350938984996 10.0000000000001
vertex 5.99999999998956 53.8350938985005 10.0000000000002
endloop
endfacet
facet normal -1.34188921711614e-013 0.923879532511285 -0.382683432365095
outer loop
vertex -8.18195650120757e-012 54.4794589798892 11.5556349186105
vertex 5.99999999998956 53.8350938985005 10.0000000000002
vertex -8.06915784190565e-012 53.8350938984996 10.0000000000001
endloop
endfacet
facet normal -1.34188921711614e-013 0.923879532511285 -0.382683432365095
outer loop
vertex 5.99999999998956 53.8350938985005 10.0000000000002
vertex -8.18195650120757e-012 54.4794589798892 11.5556349186105
vertex 5.99999999998945 54.4794589798901 11.5556349186106
endloop
endfacet
facet normal -0.951056516295112 -0.309016994375074 -1.32036027694907e-013
outer loop
vertex 28.0901699437438 38.3953994721782 13.0000000000009
vertex 29.9999999999968 32.5175469492538 1.8724577444118e-012
vertex 29.999999999995 32.5175469492538 13.0000000000013
endloop
endfacet
facet normal -0.951056516295112 -0.309016994375074 -1.32036027694907e-013
outer loop
vertex 29.9999999999968 32.5175469492538 1.8724577444118e-012
vertex 28.0901699437438 38.3953994721782 13.0000000000009
vertex 28.0901699437456 38.3953994721782 1.51150203464567e-012
endloop
endfacet
facet normal 1.35358391162299e-013 -1.0 1.14340865327089e-028
outer loop
vertex 6.0 8.12150346973794e-013 1.29718458197203e-014
vertex -1.12798659301916e-014 0.0 20.0
vertex 0.0 0.0 0.0
endloop
endfacet
facet normal 1.35358391162299e-013 -1.0 1.14340865327089e-028
outer loop
vertex -1.12798659301916e-014 0.0 20.0
vertex 6.0 8.12150346973794e-013 1.29718458197203e-014
vertex 5.99999999999998 8.12150346973794e-013 20.0
endloop
endfacet
facet normal 0.831469612302472 0.555570233019712 1.29428085529032e-013
outer loop
vertex 32.8110403062755 45.3285872555344 2.40543140961336e-012
vertex 36.7384308057172 39.4508320018293 20.0000000000025
vertex 36.7384308057203 39.4508320018293 3.14426262804091e-012
endloop
endfacet
facet normal 0.831469612302472 0.555570233019712 1.29428085529032e-013
outer loop
vertex 36.7384308057172 39.4508320018293 20.0000000000025
vertex 32.8110403062755 45.3285872555344 2.40543140961336e-012
vertex 32.8110403062723 45.3285872555344 20.0000000000018
endloop
endfacet
facet normal -1.22467115813489e-013 1.0 -1.10184335539285e-026
outer loop
vertex 5.99999999999097 50.6350938985007 6.44362341262165e-013
vertex 19.9999999999914 50.6350938985024 19.9999999999994
vertex 19.9999999999945 50.6350938985024 -5.63993296509573e-015
endloop
endfacet
facet normal -1.22467115813489e-013 1.0 -1.10184335539285e-026
outer loop
vertex 19.9999999999914 50.6350938985024 19.9999999999994
vertex 5.99999999999097 50.6350938985007 6.44362341262165e-013
vertex 5.99999999999049 50.6350938985007 20.0
endloop
endfacet
facet normal -0.951056516295192 0.309016994374828 -1.32036027694915e-013
outer loop
vertex 29.999999999995 32.5175469492538 13.0000000000013
vertex 28.090169943747 26.6396944263288 1.51150203464567e-012
vertex 28.0901699437452 26.6396944263288 13.0000000000009
endloop
endfacet
facet normal -0.951056516295192 0.309016994374828 -1.32036027694915e-013
outer loop
vertex 28.090169943747 26.6396944263288 1.51150203464567e-012
vertex 29.999999999995 32.5175469492538 13.0000000000013
vertex 29.9999999999968 32.5175469492538 1.8724577444118e-012
endloop
endfacet
facet normal 0.58778525229258 -0.80901699437487 8.13503794762685e-014
outer loop
vertex 16.9098300562461 42.0281121122036 -5.86553028369963e-013
vertex 11.9098300562449 38.3953994721762 12.9999999999979
vertex 11.9098300562466 38.3953994721762 -1.52278190057586e-012
endloop
endfacet
facet normal 0.58778525229258 -0.80901699437487 8.13503794762685e-014
outer loop
vertex 11.9098300562449 38.3953994721762 12.9999999999979
vertex 16.9098300562461 42.0281121122036 -5.86553028369963e-013
vertex 16.9098300562443 42.0281121122036 12.9999999999988
endloop
endfacet
facet normal 0.555570233019493 0.831469612302618 8.58488934829262e-014
outer loop
vertex 26.9332850525662 49.2559777549777 20.0000000000007
vertex 32.8110403062755 45.3285872555344 2.40543140961336e-012
vertex 26.9332850525693 49.2559777549777 1.30000454845458e-012
endloop
endfacet
facet normal 0.555570233019493 0.831469612302618 8.58488934829262e-014
outer loop
vertex 32.8110403062755 45.3285872555344 2.40543140961336e-012
vertex 26.9332850525662 49.2559777549777 20.0000000000007
vertex 32.8110403062723 45.3285872555344 20.0000000000018
endloop
endfacet
facet normal 0.831469612302618 -0.555570233019493 1.55416263963401e-013
outer loop
vertex 11.875198536759 40.6423484124866 12.9999999999978
vertex 9.38443531115685 36.9146578156161 19.9999999999974
vertex 9.38443531115816 36.9146578156161 12.9999999999974
endloop
endfacet
facet normal 0.831469612302618 -0.555570233019493 1.55416263963401e-013
outer loop
vertex 9.38443531115685 36.9146578156161 19.9999999999974
vertex 11.875198536759 40.6423484124866 12.9999999999978
vertex 11.8751985367577 40.6423484124866 19.9999999999978
endloop
endfacet
facet normal -0.831469612302621 0.555570233019489 -1.58103491434587e-013
outer loop
vertex 30.6155646888307 28.120436082889 20.0000000000014
vertex 28.1248014632312 24.3927454860184 13.0000000000009
vertex 28.1248014632298 24.3927454860184 20.0000000000009
endloop
endfacet
facet normal -0.831469612302621 0.555570233019489 -1.58103491434587e-013
outer loop
vertex 28.1248014632312 24.3927454860184 13.0000000000009
vertex 30.6155646888307 28.120436082889 20.0000000000014
vertex 30.615564688832 28.120436082889 13.0000000000014
endloop
endfacet
facet normal 0.195090322016257 -0.980785280403205 3.03656521496184e-014
outer loop
vertex 26.9332850525736 15.7791161435291 1.30000454845458e-012
vertex 19.9999999999961 14.4000000000026 19.9999999999994
vertex 19.9999999999992 14.4000000000026 -5.63993296509573e-015
endloop
endfacet
facet normal 0.195090322016257 -0.980785280403205 3.03656521496184e-014
outer loop
vertex 19.9999999999961 14.4000000000026 19.9999999999994
vertex 26.9332850525736 15.7791161435291 1.30000454845458e-012
vertex 26.9332850525705 15.7791161435291 20.0000000000007
endloop
endfacet
facet normal 5.82666887172096e-014 -0.382683432365093 -0.923879532511285
outer loop
vertex 5.99999999999874 10.5556349186114 11.5556349186106
vertex -9.78352121538961e-013 9.00000000000023 12.2000000000001
vertex -1.14755011049184e-012 10.5556349186106 11.5556349186105
endloop
endfacet
facet normal 5.82666887172096e-014 -0.382683432365093 -0.923879532511285
outer loop
vertex -9.78352121538961e-013 9.00000000000023 12.2000000000001
vertex 5.99999999999874 10.5556349186114 11.5556349186106
vertex 5.99999999999892 9.00000000000097 12.2000000000002
endloop
endfacet
facet normal -1.12451933503817e-013 0.923879532511285 0.382683432365095
outer loop
vertex -6.8507560735398e-013 6.80000000000023 10.0000000000001
vertex 5.99999999999915 7.44436508139053 8.44436508138977
vertex -7.41474937004938e-013 7.44436508138983 8.4443650813897
endloop
endfacet
facet normal -1.12451933503817e-013 0.923879532511285 0.382683432365095
outer loop
vertex 5.99999999999915 7.44436508139053 8.44436508138977
vertex -6.8507560735398e-013 6.80000000000023 10.0000000000001
vertex 5.99999999999921 6.80000000000093 10.0000000000002
endloop
endfacet
facet normal -1.06393930422006e-013 0.923879532511289 -0.382683432365084
outer loop
vertex -7.75314534795513e-013 7.44436508138979 11.5556349186105
vertex 5.99999999999921 6.80000000000093 10.0000000000002
vertex -6.8507560735398e-013 6.80000000000023 10.0000000000001
endloop
endfacet
facet normal -1.06393930422006e-013 0.923879532511289 -0.382683432365084
outer loop
vertex 5.99999999999921 6.80000000000093 10.0000000000002
vertex -7.75314534795513e-013 7.44436508138979 11.5556349186105
vertex 5.99999999999911 7.44436508139053 11.5556349186106
endloop
endfacet
facet normal -3.56178655314644e-014 0.382683432365081 -0.92387953251129
outer loop
vertex 5.99999999999892 9.00000000000097 12.2000000000002
vertex -7.75314534795513e-013 7.44436508138979 11.5556349186105
vertex -9.78352121538961e-013 9.00000000000023 12.2000000000001
endloop
endfacet
facet normal -3.56178655314644e-014 0.382683432365081 -0.92387953251129
outer loop
vertex -7.75314534795513e-013 7.44436508138979 11.5556349186105
vertex 5.99999999999892 9.00000000000097 12.2000000000002
vertex 5.99999999999911 7.44436508139053 11.5556349186106
endloop
endfacet
facet normal 1.09000427053042e-013 -0.923879532511284 0.382683432365098
outer loop
vertex 5.99999999999879 10.5556349186114 8.44436508138977
vertex -1.20394944014279e-012 11.2000000000002 10.0000000000001
vertex -1.11371051270126e-012 10.5556349186106 8.4443650813897
endloop
endfacet
facet normal 1.09000427053042e-013 -0.923879532511284 0.382683432365098
outer loop
vertex -1.20394944014279e-012 11.2000000000002 10.0000000000001
vertex 5.99999999999879 10.5556349186114 8.44436508138977
vertex 5.99999999999868 11.200000000001 10.0000000000002
endloop
endfacet
facet normal 4.31757789051992e-014 -0.382683432365093 0.923879532511286
outer loop
vertex -8.35115449016044e-012 56.0350938984997 7.80000000000009
vertex 5.99999999998905 57.5907288171109 8.44436508138976
vertex -8.57675180876427e-012 57.5907288171101 8.44436508138969
endloop
endfacet
facet normal 4.31757789051992e-014 -0.382683432365093 0.923879532511286
outer loop
vertex 5.99999999998905 57.5907288171109 8.44436508138976
vertex -8.35115449016044e-012 56.0350938984997 7.80000000000009
vertex 5.99999999998928 56.0350938985006 7.80000000000017
endloop
endfacet
facet normal -0.58778525229258 0.80901699437487 -8.15995000777133e-014
outer loop
vertex 23.0901699437458 23.0069817863014 13.0
vertex 28.090169943747 26.6396944263288 1.51150203464567e-012
vertex 23.0901699437476 23.0069817863014 5.75273162439771e-013
endloop
endfacet
facet normal -0.58778525229258 0.80901699437487 -8.15995000777133e-014
outer loop
vertex 28.090169943747 26.6396944263288 1.51150203464567e-012
vertex 23.0901699437458 23.0069817863014 13.0
vertex 28.0901699437452 26.6396944263288 13.0000000000009
endloop
endfacet
facet normal 1.31408686537862e-013 -1.0 1.82434344999365e-026
outer loop
vertex 23.0901699437451 42.0281121122044 5.75273162439771e-013
vertex 16.9098300562443 42.0281121122036 12.9999999999988
vertex 16.9098300562461 42.0281121122036 -5.86553028369963e-013
endloop
endfacet
facet normal 1.31408686537862e-013 -1.0 1.82434344999365e-026
outer loop
vertex 16.9098300562443 42.0281121122036 12.9999999999988
vertex 23.0901699437451 42.0281121122044 5.75273162439771e-013
vertex 23.0901699437433 42.0281121122044 13.0
endloop
endfacet
facet normal -0.587785252292371 -0.809016994375022 -8.15995000776932e-014
outer loop
vertex 28.0901699437456 38.3953994721782 1.51150203464567e-012
vertex 23.0901699437433 42.0281121122044 13.0
vertex 23.0901699437451 42.0281121122044 5.75273162439771e-013
endloop
endfacet
facet normal -0.587785252292371 -0.809016994375022 -8.15995000776932e-014
outer loop
vertex 23.0901699437433 42.0281121122044 13.0
vertex 28.0901699437456 38.3953994721782 1.51150203464567e-012
vertex 28.0901699437438 38.3953994721782 13.0000000000009
endloop
endfacet
facet normal 1.0 1.91375850352079e-013 1.26898491714651e-014
outer loop
vertex 5.99999999999097 50.6350938985007 6.44362341262165e-013
vertex 5.99999999998956 53.8350938985005 10.0000000000002
vertex 5.99999999999049 50.6350938985007 20.0
endloop
endfacet
facet normal 1.0 1.91375850352079e-013 1.26898491714651e-014
outer loop
vertex 5.99999999998956 53.8350938985005 10.0000000000002
vertex 5.99999999999097 50.6350938985007 6.44362341262165e-013
vertex 5.99999999998949 54.4794589798901 8.44436508138976
endloop
endfacet
facet normal 1.0 1.91375850352079e-013 1.26898491714651e-014
outer loop
vertex 5.99999999998949 54.4794589798901 8.44436508138976
vertex 5.99999999999097 50.6350938985007 6.44362341262165e-013
vertex 5.99999999998799 65.0350938985006 1.40434330830595e-014
endloop
endfacet
facet normal 1.0 1.91375850352079e-013 1.26898491714651e-014
outer loop
vertex 5.99999999998949 54.4794589798901 8.44436508138976
vertex 5.99999999998799 65.0350938985006 1.40434330830595e-014
vertex 5.99999999998928 56.0350938985006 7.80000000000017
endloop
endfacet
facet normal 1.0 1.91375850352079e-013 1.26898491714651e-014
outer loop
vertex 5.99999999998928 56.0350938985006 7.80000000000017
vertex 5.99999999998799 65.0350938985006 1.40434330830595e-014
vertex 5.99999999998905 57.5907288171109 8.44436508138976
endloop
endfacet
facet normal 1.0 1.91375850352079e-013 1.26898491714651e-014
outer loop
vertex 5.99999999998905 57.5907288171109 8.44436508138976
vertex 5.99999999998799 65.0350938985006 1.40434330830595e-014
vertex 5.99999999998894 58.2350938985005 10.0000000000002
endloop
endfacet
facet normal 1.0 1.91375850352079e-013 1.26898491714651e-014
outer loop
vertex 5.99999999999049 50.6350938985007 20.0
vertex 5.99999999998945 54.4794589798901 11.5556349186106
vertex 5.99999999998796 65.0350938985007 20.0
endloop
endfacet
facet normal 1.0 1.91375850352079e-013 1.26898491714651e-014
outer loop
vertex 5.99999999998945 54.4794589798901 11.5556349186106
vertex 5.99999999999049 50.6350938985007 20.0
vertex 5.99999999998956 53.8350938985005 10.0000000000002
endloop
endfacet
facet normal 1.0 1.91375850352079e-013 1.26898491714651e-014
outer loop
vertex 5.99999999998796 65.0350938985007 20.0
vertex 5.99999999998945 54.4794589798901 11.5556349186106
vertex 5.99999999998922 56.0350938985006 12.2000000000002
endloop
endfacet
facet normal 1.0 1.91375850352079e-013 1.26898491714651e-014
outer loop
vertex 5.99999999998796 65.0350938985007 20.0
vertex 5.99999999998922 56.0350938985006 12.2000000000002
vertex 5.99999999998902 57.5907288171109 11.5556349186106
endloop
endfacet
facet normal 1.0 1.91375850352079e-013 1.26898491714651e-014
outer loop
vertex 5.99999999998796 65.0350938985007 20.0
vertex 5.99999999998902 57.5907288171109 11.5556349186106
vertex 5.99999999998894 58.2350938985005 10.0000000000002
endloop
endfacet
facet normal 1.0 1.91375850352079e-013 1.26898491714651e-014
outer loop
vertex 5.99999999998796 65.0350938985007 20.0
vertex 5.99999999998894 58.2350938985005 10.0000000000002
vertex 5.99999999998799 65.0350938985006 1.40434330830595e-014
endloop
endfacet
facet normal -0.831469612302471 -0.555570233019713 -1.5808130654604e-013
outer loop
vertex 28.1248014632278 40.6423484124886 20.0000000000009
vertex 30.6155646888308 36.9146578156188 13.0000000000014
vertex 30.6155646888295 36.9146578156188 20.0000000000014
endloop
endfacet
facet normal -0.831469612302471 -0.555570233019713 -1.5808130654604e-013
outer loop
vertex 30.6155646888308 36.9146578156188 13.0000000000014
vertex 28.1248014632278 40.6423484124886 20.0000000000009
vertex 28.1248014632291 40.6423484124886 13.0000000000009
endloop
endfacet
facet normal 8.08769006910186e-014 1.12989649011722e-017 -1.0
outer loop
vertex 9.99999999999687 32.5175469492512 -1.883737610342e-012
vertex 10.3844617305926 26.6237907807404 -2.56616949911859e-012
vertex 9.38443531115712 28.1204360828848 -2.63102872821719e-012
endloop
endfacet
facet normal 8.08769006910186e-014 1.12989649011722e-017 -1.0
outer loop
vertex 10.3844617305926 26.6237907807404 -2.56616949911859e-012
vertex 9.99999999999687 32.5175469492512 -1.883737610342e-012
vertex 11.9098300562482 26.6396944263268 -1.52278190057586e-012
endloop
endfacet
facet normal 8.08769006910186e-014 1.12989649011722e-017 -1.0
outer loop
vertex 5.99999999999097 50.6350938985007 6.44362341262165e-013
vertex 6.79216960693364 26.3883395155114 -2.39415154368316e-012
vertex 5.99999999999796 14.4000000000008 6.44644337910449e-013
endloop
endfacet
facet normal 8.08769006910186e-014 1.12989649011722e-017 -1.0
outer loop
vertex 6.79216960693364 26.3883395155114 -2.39415154368316e-012
vertex 5.99999999999097 50.6350938985007 6.44362341262165e-013
vertex 11.9098300562466 38.3953994721762 -1.52278190057586e-012
endloop
endfacet
facet normal 8.08769006910186e-014 1.12989649011722e-017 -1.0
outer loop
vertex 11.9098300562466 38.3953994721762 -1.52278190057586e-012
vertex 5.99999999999097 50.6350938985007 6.44362341262165e-013
vertex 19.9999999999945 50.6350938985024 -5.63993296509573e-015
endloop
endfacet
facet normal 8.08769006910186e-014 1.12989649011722e-017 -1.0
outer loop
vertex 6.79216960693364 26.3883395155114 -2.39415154368316e-012
vertex 11.9098300562466 38.3953994721762 -1.52278190057586e-012
vertex 7.58828924932766 28.0027104502703 -2.54078980077566e-012
endloop
endfacet
facet normal 8.08769006910186e-014 1.12989649011722e-017 -1.0
outer loop
vertex 7.58828924932766 28.0027104502703 -2.54078980077566e-012
vertex 11.9098300562466 38.3953994721762 -1.52278190057586e-012
vertex 9.99999999999687 32.5175469492512 -1.883737610342e-012
endloop
endfacet
facet normal 8.08769006910186e-014 1.12989649011722e-017 -1.0
outer loop
vertex 7.58828924932766 28.0027104502703 -2.54078980077566e-012
vertex 9.99999999999687 32.5175469492512 -1.883737610342e-012
vertex 9.38443531115712 28.1204360828848 -2.63102872821719e-012
endloop
endfacet
facet normal 8.08769006910186e-014 1.12989649011722e-017 -1.0
outer loop
vertex 11.9098300562466 38.3953994721762 -1.52278190057586e-012
vertex 19.9999999999945 50.6350938985024 -5.63993296509573e-015
vertex 16.9098300562461 42.0281121122036 -5.86553028369963e-013
endloop
endfacet
facet normal 8.08769006910186e-014 1.12989649011722e-017 -1.0
outer loop
vertex 16.9098300562461 42.0281121122036 -5.86553028369963e-013
vertex 19.9999999999945 50.6350938985024 -5.63993296509573e-015
vertex 23.0901699437451 42.0281121122044 5.75273162439771e-013
endloop
endfacet
facet normal 8.08769006910186e-014 1.12989649011722e-017 -1.0
outer loop
vertex 23.0901699437451 42.0281121122044 5.75273162439771e-013
vertex 19.9999999999945 50.6350938985024 -5.63993296509573e-015
vertex 26.9332850525693 49.2559777549777 1.30000454845458e-012
endloop
endfacet
facet normal 8.08769006910186e-014 1.12989649011722e-017 -1.0
outer loop
vertex 23.0901699437451 42.0281121122044 5.75273162439771e-013
vertex 26.9332850525693 49.2559777549777 1.30000454845458e-012
vertex 28.0901699437456 38.3953994721782 1.51150203464567e-012
endloop
endfacet
facet normal 8.08769006910186e-014 1.12989649011722e-017 -1.0
outer loop
vertex 28.0901699437456 38.3953994721782 1.51150203464567e-012
vertex 26.9332850525693 49.2559777549777 1.30000454845458e-012
vertex 32.8110403062755 45.3285872555344 2.40543140961336e-012
endloop
endfacet
facet normal 8.08769006910186e-014 1.12989649011722e-017 -1.0
outer loop
vertex 28.0901699437456 38.3953994721782 1.51150203464567e-012
vertex 32.8110403062755 45.3285872555344 2.40543140961336e-012
vertex 29.9999999999968 32.5175469492538 1.8724577444118e-012
endloop
endfacet
facet normal 8.08769006910186e-014 1.12989649011722e-017 -1.0
outer loop
vertex 5.99999999999796 14.4000000000008 6.44644337910449e-013
vertex 7.7921960263691 24.891694213367 -2.32929231458456e-012
vertex 19.9999999999992 14.4000000000026 -5.63993296509573e-015
endloop
endfacet
facet normal 8.08769006910186e-014 1.12989649011722e-017 -1.0
outer loop
vertex 7.7921960263691 24.891694213367 -2.32929231458456e-012
vertex 5.99999999999796 14.4000000000008 6.44644337910449e-013
vertex 6.79216960693364 26.3883395155114 -2.39415154368316e-012
endloop
endfacet
facet normal 8.08769006910186e-014 1.12989649011722e-017 -1.0
outer loop
vertex 19.9999999999992 14.4000000000026 -5.63993296509573e-015
vertex 7.7921960263691 24.891694213367 -2.32929231458456e-012
vertex 9.58834208819858 25.0094198459814 -2.41107134257845e-012
endloop
endfacet
facet normal 8.08769006910186e-014 1.12989649011722e-017 -1.0
outer loop
vertex 19.9999999999992 14.4000000000026 -5.63993296509573e-015
vertex 9.58834208819858 25.0094198459814 -2.41107134257845e-012
vertex 10.3844617305926 26.6237907807404 -2.56616949911859e-012
endloop
endfacet
facet normal 8.08769006910186e-014 1.12989649011722e-017 -1.0
outer loop
vertex 19.9999999999992 14.4000000000026 -5.63993296509573e-015
vertex 10.3844617305926 26.6237907807404 -2.56616949911859e-012
vertex 11.9098300562482 26.6396944263268 -1.52278190057586e-012
endloop
endfacet
facet normal 8.08769006910186e-014 1.12989649011722e-017 -1.0
outer loop
vertex 19.9999999999992 14.4000000000026 -5.63993296509573e-015
vertex 11.9098300562482 26.6396944263268 -1.52278190057586e-012
vertex 16.9098300562486 23.0069817863006 -5.86553028369963e-013
endloop
endfacet
facet normal 8.08769006910186e-014 1.12989649011722e-017 -1.0
outer loop
vertex 19.9999999999992 14.4000000000026 -5.63993296509573e-015
vertex 16.9098300562486 23.0069817863006 -5.86553028369963e-013
vertex 23.0901699437476 23.0069817863014 5.75273162439771e-013
endloop
endfacet
facet normal 8.08769006910186e-014 1.12989649011722e-017 -1.0
outer loop
vertex 19.9999999999992 14.4000000000026 -5.63993296509573e-015
vertex 23.0901699437476 23.0069817863014 5.75273162439771e-013
vertex 26.9332850525736 15.7791161435291 1.30000454845458e-012
endloop
endfacet
facet normal 8.08769006910186e-014 1.12989649011722e-017 -1.0
outer loop
vertex 26.9332850525736 15.7791161435291 1.30000454845458e-012
vertex 23.0901699437476 23.0069817863014 5.75273162439771e-013
vertex 28.090169943747 26.6396944263288 1.51150203464567e-012
endloop
endfacet
facet normal 8.08769006910186e-014 1.12989649011722e-017 -1.0
outer loop
vertex 26.9332850525736 15.7791161435291 1.30000454845458e-012
vertex 28.090169943747 26.6396944263288 1.51150203464567e-012
vertex 32.8110403062788 19.7065066429739 2.40543140961336e-012
endloop
endfacet
facet normal 8.08769006910186e-014 1.12989649011722e-017 -1.0
outer loop
vertex 32.8110403062788 19.7065066429739 2.40543140961336e-012
vertex 28.090169943747 26.6396944263288 1.51150203464567e-012
vertex 29.9999999999968 32.5175469492538 1.8724577444118e-012
endloop
endfacet
facet normal 8.08769006910186e-014 1.12989649011722e-017 -1.0
outer loop
vertex 32.8110403062788 19.7065066429739 2.40543140961336e-012
vertex 29.9999999999968 32.5175469492538 1.8724577444118e-012
vertex 32.8110403062755 45.3285872555344 2.40543140961336e-012
endloop
endfacet
facet normal 8.08769006910186e-014 1.12989649011722e-017 -1.0
outer loop
vertex 32.8110403062788 19.7065066429739 2.40543140961336e-012
vertex 32.8110403062755 45.3285872555344 2.40543140961336e-012
vertex 36.7384308057203 39.4508320018293 3.14426262804091e-012
endloop
endfacet
facet normal 8.08769006910186e-014 1.12989649011722e-017 -1.0
outer loop
vertex 32.8110403062788 19.7065066429739 2.40543140961336e-012
vertex 36.7384308057203 39.4508320018293 3.14426262804091e-012
vertex 36.7384308057221 25.5842618966801 3.14426262804091e-012
endloop
endfacet
facet normal 8.08769006910186e-014 1.12989649011722e-017 -1.0
outer loop
vertex 36.7384308057221 25.5842618966801 3.14426262804091e-012
vertex 36.7384308057203 39.4508320018293 3.14426262804091e-012
vertex 38.1175469492468 32.5175469492548 3.40369954443531e-012
endloop
endfacet
facet normal 8.08769006910186e-014 1.12989649011722e-017 -1.0
outer loop
vertex 5.99999999998799 65.0350938985006 1.40434330830595e-014
vertex 0.0 0.0 0.0
vertex -9.73276181870375e-012 65.0350938984998 1.35358391162317e-015
endloop
endfacet
facet normal 8.08769006910186e-014 1.12989649011722e-017 -1.0
outer loop
vertex 0.0 0.0 0.0
vertex 5.99999999998799 65.0350938985006 1.40434330830595e-014
vertex 6.0 8.12150346973794e-013 1.29718458197203e-014
endloop
endfacet
facet normal 8.08769006910186e-014 1.12989649011722e-017 -1.0
outer loop
vertex 6.0 8.12150346973794e-013 1.29718458197203e-014
vertex 5.99999999998799 65.0350938985006 1.40434330830595e-014
vertex 5.99999999999097 50.6350938985007 6.44362341262165e-013
endloop
endfacet
facet normal 8.08769006910186e-014 1.12989649011722e-017 -1.0
outer loop
vertex 6.0 8.12150346973794e-013 1.29718458197203e-014
vertex 5.99999999999097 50.6350938985007 6.44362341262165e-013
vertex 5.99999999999796 14.4000000000008 6.44644337910449e-013
endloop
endfacet
facet normal -0.555570233019703 0.831469612302478 -1.05625202812716e-013
outer loop
vertex 24.39711086636 21.9019822604167 20.0000000000002
vertex 28.1248014632312 24.3927454860184 13.0000000000009
vertex 24.3971108663613 21.9019822604167 13.0000000000002
endloop
endfacet
facet normal -0.555570233019703 0.831469612302478 -1.05625202812716e-013
outer loop
vertex 28.1248014632312 24.3927454860184 13.0000000000009
vertex 24.39711086636 21.9019822604167 20.0000000000002
vertex 28.1248014632298 24.3927454860184 20.0000000000009
endloop
endfacet
facet normal 0.195090322016008 0.980785280403254 3.72563570280697e-014
outer loop
vertex 15.6028891336302 21.9019822604156 19.9999999999985
vertex 19.9999999999966 21.0273425283567 12.9999999999994
vertex 15.6028891336315 21.9019822604156 12.9999999999985
endloop
endfacet
facet normal 0.195090322016008 0.980785280403254 3.72563570280697e-014
outer loop
vertex 19.9999999999966 21.0273425283567 12.9999999999994
vertex 15.6028891336302 21.9019822604156 19.9999999999985
vertex 19.9999999999952 21.0273425283567 19.9999999999994
endloop
endfacet
facet normal 0.980785280403256 -0.195090322016 1.52671708976944e-013
outer loop
vertex 38.1175469492468 32.5175469492548 3.40369954443531e-012
vertex 36.738430805719 25.5842618966801 20.0000000000025
vertex 36.7384308057221 25.5842618966801 3.14426262804091e-012
endloop
endfacet
facet normal 0.980785280403256 -0.195090322016 1.52671708976944e-013
outer loop
vertex 36.738430805719 25.5842618966801 20.0000000000025
vertex 38.1175469492468 32.5175469492548 3.40369954443531e-012
vertex 38.1175469492437 32.5175469492548 20.0000000000028
endloop
endfacet
facet normal 0.195090322016249 -0.980785280403206 3.6463203360245e-014
outer loop
vertex 19.9999999999936 44.0077513701483 12.9999999999994
vertex 15.6028891336275 43.1331116380883 19.9999999999985
vertex 15.6028891336288 43.1331116380883 12.9999999999985
endloop
endfacet
facet normal 0.195090322016249 -0.980785280403206 3.6463203360245e-014
outer loop
vertex 15.6028891336275 43.1331116380883 19.9999999999985
vertex 19.9999999999936 44.0077513701483 12.9999999999994
vertex 19.9999999999923 44.0077513701483 19.9999999999994
endloop
endfacet
facet normal -0.195090322016007 -0.980785280403255 -3.70928760878899e-014
outer loop
vertex 24.3971108663586 43.1331116380894 13.0000000000002
vertex 19.9999999999923 44.0077513701483 19.9999999999994
vertex 19.9999999999936 44.0077513701483 12.9999999999994
endloop
endfacet
facet normal -0.195090322016007 -0.980785280403255 -3.70928760878899e-014
outer loop
vertex 19.9999999999923 44.0077513701483 19.9999999999994
vertex 24.3971108663586 43.1331116380894 13.0000000000002
vertex 24.3971108663573 43.1331116380894 20.0000000000002
endloop
endfacet
facet normal -5.71888722804028e-014 0.382683432365086 0.923879532511288
outer loop
vertex -7.41474937004938e-013 7.44436508138983 8.4443650813897
vertex 5.99999999999898 9.00000000000097 7.80000000000018
vertex -9.10672925957812e-013 9.00000000000023 7.8000000000001
endloop
endfacet
facet normal -5.71888722804028e-014 0.382683432365086 0.923879532511288
outer loop
vertex 5.99999999999898 9.00000000000097 7.80000000000018
vertex -7.41474937004938e-013 7.44436508138983 8.4443650813897
vertex 5.99999999999915 7.44436508139053 8.44436508138977
endloop
endfacet
facet normal 1.18531929158188e-013 -0.923879532511284 -0.382683432365098
outer loop
vertex 5.99999999999868 11.200000000001 10.0000000000002
vertex -1.14755011049184e-012 10.5556349186106 11.5556349186105
vertex -1.20394944014279e-012 11.2000000000002 10.0000000000001
endloop
endfacet
facet normal 1.18531929158188e-013 -0.923879532511284 -0.382683432365098
outer loop
vertex -1.14755011049184e-012 10.5556349186106 11.5556349186105
vertex 5.99999999999868 11.200000000001 10.0000000000002
vertex 5.99999999999874 10.5556349186114 11.5556349186106
endloop
endfacet
facet normal -1.31408686537862e-013 1.0 -1.82434344999365e-026
outer loop
vertex 16.9098300562468 23.0069817863006 12.9999999999988
vertex 23.0901699437476 23.0069817863014 5.75273162439771e-013
vertex 16.9098300562486 23.0069817863006 -5.86553028369963e-013
endloop
endfacet
facet normal -1.31408686537862e-013 1.0 -1.82434344999365e-026
outer loop
vertex 23.0901699437476 23.0069817863014 5.75273162439771e-013
vertex 16.9098300562468 23.0069817863006 12.9999999999988
vertex 23.0901699437458 23.0069817863014 13.0
endloop
endfacet
facet normal 0.980785280403204 0.195090322016263 1.8332515164361e-013
outer loop
vertex 8.50979557909926 32.5175469492509 12.9999999999972
vertex 9.38443531115799 28.1204360828863 19.9999999999974
vertex 9.3844353111593 28.1204360828863 12.9999999999974
endloop
endfacet
facet normal 0.980785280403204 0.195090322016263 1.8332515164361e-013
outer loop
vertex 9.38443531115799 28.1204360828863 19.9999999999974
vertex 8.50979557909926 32.5175469492509 12.9999999999972
vertex 8.50979557909795 32.5175469492509 19.9999999999972
endloop
endfacet
facet normal 1.40998324127352e-013 -1.0 -3.92957140371341e-030
outer loop
vertex -1.20394944014279e-012 11.2000000000002 10.0000000000001
vertex -2.00000000000304 11.1999999999999 9.5
vertex -3.03904262866084e-012 11.2000000000002 7.50000000000002
endloop
endfacet
facet normal 1.40998324127352e-013 -1.0 -3.92957140371341e-030
outer loop
vertex -2.00000000000304 11.1999999999999 9.5
vertex -1.20394944014279e-012 11.2000000000002 10.0000000000001
vertex -2.00000000000304 11.1999999999999 12.5
endloop
endfacet
facet normal 1.40998324127352e-013 -1.0 -3.92957140371341e-030
outer loop
vertex -2.00000000000304 11.1999999999999 12.5
vertex -1.20394944014279e-012 11.2000000000002 10.0000000000001
vertex -3.03904262866084e-012 11.2000000000002 12.5
endloop
endfacet
facet normal 0.896872741532737 -0.442288690218902 -6.79945093084468e-015
outer loop
vertex 7.58828924932766 28.0027104502703 -2.54078980077566e-012
vertex 6.7921696069345 26.3883395155129 19.9999999999976
vertex 6.79216960693364 26.3883395155114 -2.39415154368316e-012
endloop
endfacet
facet normal 0.896872741532737 -0.442288690218902 -6.79945093084468e-015
outer loop
vertex 6.7921696069345 26.3883395155129 19.9999999999976
vertex 7.58828924932766 28.0027104502703 -2.54078980077566e-012
vertex 7.58828924932852 28.0027104502718 19.9999999999975
endloop
endfacet
facet normal 0.0654031292303385 -0.997858923238591 7.14756108902396e-014
outer loop
vertex 9.3844353111593 28.1204360828863 12.9999999999974
vertex 7.58828924932766 28.0027104502703 -2.54078980077566e-012
vertex 9.38443531115712 28.1204360828848 -2.63102872821719e-012
endloop
endfacet
facet normal 0.0654031292303385 -0.997858923238591 7.14756108902396e-014
outer loop
vertex 7.58828924932766 28.0027104502703 -2.54078980077566e-012
vertex 9.3844353111593 28.1204360828863 12.9999999999974
vertex 7.58828924932852 28.0027104502718 19.9999999999975
endloop
endfacet
facet normal 0.0654031292303385 -0.997858923238591 7.14756108902396e-014
outer loop
vertex 7.58828924932852 28.0027104502718 19.9999999999975
vertex 9.3844353111593 28.1204360828863 12.9999999999974
vertex 9.38443531115799 28.1204360828863 19.9999999999974
endloop
endfacet
facet normal -0.896872741532709 0.44228869021896 8.63537197092242e-015
outer loop
vertex 9.58834208819944 25.0094198459829 19.9999999999976
vertex 10.3844617305926 26.6237907807404 -2.56616949911859e-012
vertex 9.58834208819858 25.0094198459814 -2.41107134257845e-012
endloop
endfacet
facet normal -0.896872741532709 0.44228869021896 8.63537197092242e-015
outer loop
vertex 10.3844617305926 26.6237907807404 -2.56616949911859e-012
vertex 9.58834208819944 25.0094198459829 19.9999999999976
vertex 10.3844617305934 26.6237907807418 19.9999999999974
endloop
endfacet
facet normal -0.896872741532709 0.44228869021896 8.63537197092242e-015
outer loop
vertex 10.3844617305926 26.6237907807404 -2.56616949911859e-012
vertex 10.3844617305934 26.6237907807418 19.9999999999974
vertex 10.3844617305938 26.6237907807418 12.9999999999976
endloop
endfacet
facet normal -0.0654031292302614 0.997858923238596 -6.92172224767812e-014
outer loop
vertex 7.7921960263691 24.891694213367 -2.32929231458456e-012
vertex 9.58834208819944 25.0094198459829 19.9999999999976
vertex 9.58834208819858 25.0094198459814 -2.41107134257845e-012
endloop
endfacet
facet normal -0.0654031292302614 0.997858923238596 -6.92172224767812e-014
outer loop
vertex 9.58834208819944 25.0094198459829 19.9999999999976
vertex 7.7921960263691 24.891694213367 -2.32929231458456e-012
vertex 7.79219602636996 24.8916942133684 19.9999999999977
endloop
endfacet
facet normal 0.831469612302482 0.555570233019697 -7.62256782044787e-014
outer loop
vertex 6.79216960693364 26.3883395155114 -2.39415154368316e-012
vertex 7.79219602636996 24.8916942133684 19.9999999999977
vertex 7.7921960263691 24.891694213367 -2.32929231458456e-012
endloop
endfacet
facet normal 0.831469612302482 0.555570233019697 -7.62256782044787e-014
outer loop
vertex 7.79219602636996 24.8916942133684 19.9999999999977
vertex 6.79216960693364 26.3883395155114 -2.39415154368316e-012
vertex 6.7921696069345 26.3883395155129 19.9999999999976
endloop
endfacet
facet normal -0.831469612302606 -0.555570233019512 1.70055439366003e-013
outer loop
vertex 10.3844617305938 26.6237907807418 12.9999999999976
vertex 9.38443531115712 28.1204360828848 -2.63102872821719e-012
vertex 10.3844617305926 26.6237907807404 -2.56616949911859e-012
endloop
endfacet
facet normal -0.831469612302606 -0.555570233019512 1.70055439366003e-013
outer loop
vertex 9.38443531115712 28.1204360828848 -2.63102872821719e-012
vertex 10.3844617305938 26.6237907807418 12.9999999999976
vertex 9.3844353111593 28.1204360828863 12.9999999999974
endloop
endfacet
facet normal 0.831469612302395 0.555570233019827 9.75903511898657e-014
outer loop
vertex 10.3844617305938 26.6237907807418 12.9999999999976
vertex 11.8751985367597 24.3927454860164 19.9999999999978
vertex 11.875198536761 24.3927454860164 12.9999999999978
endloop
endfacet
facet normal 0.831469612302395 0.555570233019827 9.75903511898657e-014
outer loop
vertex 11.8751985367597 24.3927454860164 19.9999999999978
vertex 10.3844617305938 26.6237907807418 12.9999999999976
vertex 10.3844617305934 26.6237907807418 19.9999999999974
endloop
endfacet
facet normal -1.46638257092543e-013 1.0 7.85914280743722e-030
outer loop
vertex -2.00000000000594 53.8350938984993 9.5
vertex -8.06915784190565e-012 53.8350938984996 10.0000000000001
vertex -5.93796817272008e-012 53.8350938984996 7.5
endloop
endfacet
facet normal -1.46638257092543e-013 1.0 7.85914280743722e-030
outer loop
vertex -8.06915784190565e-012 53.8350938984996 10.0000000000001
vertex -2.00000000000594 53.8350938984993 9.5
vertex -2.00000000000594 53.8350938984993 12.5
endloop
endfacet
facet normal -1.46638257092543e-013 1.0 7.85914280743722e-030
outer loop
vertex -8.06915784190565e-012 53.8350938984996 10.0000000000001
vertex -2.00000000000594 53.8350938984993 12.5
vertex -5.93796817272008e-012 53.8350938984996 12.5
endloop
endfacet
facet normal -1.0 -6.79938820109241e-014 2.34997206878976e-016
outer loop
vertex -2.00000000000594 53.8350938984993 12.5
vertex -2.00000000000304 11.1999999999999 9.5
vertex -2.00000000000304 11.1999999999999 12.5
endloop
endfacet
facet normal -1.0 -6.79938820109241e-014 2.34997206878976e-016
outer loop
vertex -2.00000000000304 11.1999999999999 9.5
vertex -2.00000000000594 53.8350938984993 12.5
vertex -2.00000000000594 53.8350938984993 9.5
endloop
endfacet
facet normal -1.0 -1.49827438879374e-013 -1.13775519825672e-015
outer loop
vertex -8.1368370374868e-012 54.4794589798892 8.44436508138969
vertex -5.93796817272008e-012 53.8350938984996 7.5
vertex -8.06915784190565e-012 53.8350938984996 10.0000000000001
endloop
endfacet
facet normal -1.0 -1.49827438879374e-013 -1.13775519825672e-015
outer loop
vertex -1.12798659301916e-014 0.0 20.0
vertex -7.75314534795513e-013 7.44436508138979 11.5556349186105
vertex 0.0 0.0 0.0
endloop
endfacet
facet normal -1.0 -1.49827438879374e-013 -1.13775519825672e-015
outer loop
vertex -7.75314534795513e-013 7.44436508138979 11.5556349186105
vertex -1.12798659301916e-014 0.0 20.0
vertex -9.78352121538961e-013 9.00000000000023 12.2000000000001
endloop
endfacet
facet normal -1.0 -1.49827438879374e-013 -1.13775519825672e-015
outer loop
vertex -9.78352121538961e-013 9.00000000000023 12.2000000000001
vertex -1.12798659301916e-014 0.0 20.0
vertex -4.81403528151958e-012 32.0175469492499 20.0
endloop
endfacet
facet normal -1.0 -1.49827438879374e-013 -1.13775519825672e-015
outer loop
vertex 0.0 0.0 0.0
vertex -7.75314534795513e-013 7.44436508138979 11.5556349186105
vertex -6.8507560735398e-013 6.80000000000023 10.0000000000001
endloop
endfacet
facet normal -1.0 -1.49827438879374e-013 -1.13775519825672e-015
outer loop
vertex -9.78352121538961e-013 9.00000000000023 12.2000000000001
vertex -4.81403528151958e-012 32.0175469492499 20.0
vertex -3.03904262866084e-012 11.2000000000002 12.5
endloop
endfacet
facet normal -1.0 -1.49827438879374e-013 -1.13775519825672e-015
outer loop
vertex -9.78352121538961e-013 9.00000000000023 12.2000000000001
vertex -3.03904262866084e-012 11.2000000000002 12.5
vertex -1.14755011049184e-012 10.5556349186106 11.5556349186105
endloop
endfacet
facet normal -1.0 -1.49827438879374e-013 -1.13775519825672e-015
outer loop
vertex -3.03904262866084e-012 11.2000000000002 12.5
vertex -4.81403528151958e-012 32.0175469492499 20.0
vertex -4.88894064121226e-012 32.5175469492499 19.0
endloop
endfacet
facet normal -1.0 -1.49827438879374e-013 -1.13775519825672e-015
outer loop
vertex -3.03904262866084e-012 11.2000000000002 12.5
vertex -4.88894064121226e-012 32.5175469492499 19.0
vertex -5.93796817272008e-012 53.8350938984996 12.5
endloop
endfacet
facet normal -1.0 -1.49827438879374e-013 -1.13775519825672e-015
outer loop
vertex -5.93796817272008e-012 53.8350938984996 12.5
vertex -4.88894064121226e-012 32.5175469492499 19.0
vertex -4.96384600090494e-012 33.0175469492499 20.0
endloop
endfacet
facet normal -1.0 -1.49827438879374e-013 -1.13775519825672e-015
outer loop
vertex -5.93796817272008e-012 53.8350938984996 12.5
vertex -4.96384600090494e-012 33.0175469492499 20.0
vertex -9.76660141649432e-012 65.0350938984998 20.0
endloop
endfacet
facet normal -1.0 -1.49827438879374e-013 -1.13775519825672e-015
outer loop
vertex -5.93796817272008e-012 53.8350938984996 12.5
vertex -9.76660141649432e-012 65.0350938984998 20.0
vertex -8.18195650120757e-012 54.4794589798892 11.5556349186105
endloop
endfacet
facet normal -1.0 -1.49827438879374e-013 -1.13775519825672e-015
outer loop
vertex -5.93796817272008e-012 53.8350938984996 12.5
vertex -8.18195650120757e-012 54.4794589798892 11.5556349186105
vertex -8.06915784190565e-012 53.8350938984996 10.0000000000001
endloop
endfacet
facet normal -1.0 -1.49827438879374e-013 -1.13775519825672e-015
outer loop
vertex -8.18195650120757e-012 54.4794589798892 11.5556349186105
vertex -9.76660141649432e-012 65.0350938984998 20.0
vertex -8.4075538198114e-012 56.0350938984997 12.2000000000001
endloop
endfacet
facet normal -1.0 -1.49827438879374e-013 -1.13775519825672e-015
outer loop
vertex -8.4075538198114e-012 56.0350938984997 12.2000000000001
vertex -9.76660141649432e-012 65.0350938984998 20.0
vertex -8.61059140655485e-012 57.5907288171101 11.5556349186105
endloop
endfacet
facet normal -1.0 -1.49827438879374e-013 -1.13775519825672e-015
outer loop
vertex -8.61059140655485e-012 57.5907288171101 11.5556349186105
vertex -9.76660141649432e-012 65.0350938984998 20.0
vertex -8.68955046806619e-012 58.2350938984996 10.0000000000001
endloop
endfacet
facet normal -1.0 -1.49827438879374e-013 -1.13775519825672e-015
outer loop
vertex 0.0 0.0 0.0
vertex -9.10672925957812e-013 9.00000000000023 7.8000000000001
vertex -9.73276181870375e-012 65.0350938984998 1.35358391162317e-015
endloop
endfacet
facet normal -1.0 -1.49827438879374e-013 -1.13775519825672e-015
outer loop
vertex -9.10672925957812e-013 9.00000000000023 7.8000000000001
vertex 0.0 0.0 0.0
vertex -7.41474937004938e-013 7.44436508138983 8.4443650813897
endloop
endfacet
facet normal -1.0 -1.49827438879374e-013 -1.13775519825672e-015
outer loop
vertex -7.41474937004938e-013 7.44436508138983 8.4443650813897
vertex 0.0 0.0 0.0
vertex -6.8507560735398e-013 6.80000000000023 10.0000000000001
endloop
endfacet
facet normal -1.0 -1.49827438879374e-013 -1.13775519825672e-015
outer loop
vertex -9.73276181870375e-012 65.0350938984998 1.35358391162317e-015
vertex -9.10672925957812e-013 9.00000000000023 7.8000000000001
vertex -3.03904262866084e-012 11.2000000000002 7.50000000000002
endloop
endfacet
facet normal -1.0 -1.49827438879374e-013 -1.13775519825672e-015
outer loop
vertex -3.03904262866084e-012 11.2000000000002 7.50000000000002
vertex -9.10672925957812e-013 9.00000000000023 7.8000000000001
vertex -1.11371051270126e-012 10.5556349186106 8.4443650813897
endloop
endfacet
facet normal -1.0 -1.49827438879374e-013 -1.13775519825672e-015
outer loop
vertex -3.03904262866084e-012 11.2000000000002 7.50000000000002
vertex -1.11371051270126e-012 10.5556349186106 8.4443650813897
vertex -1.20394944014279e-012 11.2000000000002 10.0000000000001
endloop
endfacet
facet normal -1.0 -1.49827438879374e-013 -1.13775519825672e-015
outer loop
vertex -9.73276181870375e-012 65.0350938984998 1.35358391162317e-015
vertex -3.03904262866084e-012 11.2000000000002 7.50000000000002
vertex -5.93796817272008e-012 53.8350938984996 7.5
endloop
endfacet
facet normal -1.0 -1.49827438879374e-013 -1.13775519825672e-015
outer loop
vertex -9.73276181870375e-012 65.0350938984998 1.35358391162317e-015
vertex -5.93796817272008e-012 53.8350938984996 7.5
vertex -8.1368370374868e-012 54.4794589798892 8.44436508138969
endloop
endfacet
facet normal -1.0 -1.49827438879374e-013 -1.13775519825672e-015
outer loop
vertex -9.73276181870375e-012 65.0350938984998 1.35358391162317e-015
vertex -8.1368370374868e-012 54.4794589798892 8.44436508138969
vertex -8.35115449016044e-012 56.0350938984997 7.80000000000009
endloop
endfacet
facet normal -1.0 -1.49827438879374e-013 -1.13775519825672e-015
outer loop
vertex -9.73276181870375e-012 65.0350938984998 1.35358391162317e-015
vertex -8.35115449016044e-012 56.0350938984997 7.80000000000009
vertex -8.57675180876427e-012 57.5907288171101 8.44436508138969
endloop
endfacet
facet normal -1.0 -1.49827438879374e-013 -1.13775519825672e-015
outer loop
vertex -9.73276181870375e-012 65.0350938984998 1.35358391162317e-015
vertex -8.57675180876427e-012 57.5907288171101 8.44436508138969
vertex -8.68955046806619e-012 58.2350938984996 10.0000000000001
endloop
endfacet
facet normal -1.0 -1.49827438879374e-013 -1.13775519825672e-015
outer loop
vertex -9.73276181870375e-012 65.0350938984998 1.35358391162317e-015
vertex -8.68955046806619e-012 58.2350938984996 10.0000000000001
vertex -9.76660141649432e-012 65.0350938984998 20.0
endloop
endfacet
facet normal -1.0 -1.49827438879374e-013 -1.13775519825672e-015
outer loop
vertex -1.20394944014279e-012 11.2000000000002 10.0000000000001
vertex -1.14755011049184e-012 10.5556349186106 11.5556349186105
vertex -3.03904262866084e-012 11.2000000000002 12.5
endloop
endfacet
facet normal -6.07010249817902e-014 -9.74885917175321e-027 1.0
outer loop
vertex -4.96384600090494e-012 33.0175469492499 20.0
vertex 5.99999999998796 65.0350938985007 20.0
vertex -9.76660141649432e-012 65.0350938984998 20.0
endloop
endfacet
facet normal -6.07010249817902e-014 -9.74885917175321e-027 1.0
outer loop
vertex 5.99999999998796 65.0350938985007 20.0
vertex -4.96384600090494e-012 33.0175469492499 20.0
vertex 4.99999999999504 33.0175469492507 20.0
endloop
endfacet
facet normal -6.07010249817902e-014 -9.74885917175321e-027 1.0
outer loop
vertex 5.99999999998796 65.0350938985007 20.0
vertex 4.99999999999504 33.0175469492507 20.0
vertex 4.99999999999519 32.0175469492507 20.0
endloop
endfacet
facet normal -6.07010249817902e-014 -9.74885917175321e-027 1.0
outer loop
vertex -1.12798659301916e-014 0.0 20.0
vertex 4.99999999999519 32.0175469492507 20.0
vertex -4.81403528151958e-012 32.0175469492499 20.0
endloop
endfacet
facet normal -6.07010249817902e-014 -9.74885917175321e-027 1.0
outer loop
vertex 4.99999999999519 32.0175469492507 20.0
vertex -1.12798659301916e-014 0.0 20.0
vertex 5.99999999999998 8.12150346973794e-013 20.0
endloop
endfacet
facet normal -6.07010249817902e-014 -9.74885917175321e-027 1.0
outer loop
vertex 4.99999999999519 32.0175469492507 20.0
vertex 5.99999999999998 8.12150346973794e-013 20.0
vertex 5.99999999999049 50.6350938985007 20.0
endloop
endfacet
facet normal -6.07010249817902e-014 -9.74885917175321e-027 1.0
outer loop
vertex 4.99999999999519 32.0175469492507 20.0
vertex 5.99999999999049 50.6350938985007 20.0
vertex 5.99999999998796 65.0350938985007 20.0
endloop
endfacet
facet normal -6.07010249817902e-014 -9.74885917175321e-027 1.0
outer loop
vertex 5.99999999999049 50.6350938985007 20.0
vertex 5.99999999999998 8.12150346973794e-013 20.0
vertex 5.99999999999746 14.4000000000008 20.0
endloop
endfacet
facet normal -6.07010249817902e-014 -9.74885917175321e-027 1.0
outer loop
vertex 9.38443531115799 28.1204360828863 19.9999999999974
vertex 8.50979557909795 32.5175469492509 19.9999999999972
vertex 7.58828924932852 28.0027104502718 19.9999999999975
endloop
endfacet
facet normal -6.07010249817902e-014 -9.74885917175321e-027 1.0
outer loop
vertex 5.99999999999746 14.4000000000008 20.0
vertex 7.79219602636996 24.8916942133684 19.9999999999977
vertex 6.7921696069345 26.3883395155129 19.9999999999976
endloop
endfacet
facet normal -6.07010249817902e-014 -9.74885917175321e-027 1.0
outer loop
vertex 7.79219602636996 24.8916942133684 19.9999999999977
vertex 5.99999999999746 14.4000000000008 20.0
vertex 19.9999999999961 14.4000000000026 19.9999999999994
endloop
endfacet
facet normal -6.07010249817902e-014 -9.74885917175321e-027 1.0
outer loop
vertex 7.79219602636996 24.8916942133684 19.9999999999977
vertex 19.9999999999961 14.4000000000026 19.9999999999994
vertex 9.58834208819944 25.0094198459829 19.9999999999976
endloop
endfacet
facet normal -6.07010249817902e-014 -9.74885917175321e-027 1.0
outer loop
vertex 9.58834208819944 25.0094198459829 19.9999999999976
vertex 19.9999999999961 14.4000000000026 19.9999999999994
vertex 11.8751985367597 24.3927454860164 19.9999999999978
endloop
endfacet
facet normal -6.07010249817902e-014 -9.74885917175321e-027 1.0
outer loop
vertex 9.58834208819944 25.0094198459829 19.9999999999976
vertex 11.8751985367597 24.3927454860164 19.9999999999978
vertex 10.3844617305934 26.6237907807418 19.9999999999974
endloop
endfacet
facet normal -6.07010249817902e-014 -9.74885917175321e-027 1.0
outer loop
vertex 11.8751985367597 24.3927454860164 19.9999999999978
vertex 19.9999999999961 14.4000000000026 19.9999999999994
vertex 15.6028891336302 21.9019822604156 19.9999999999985
endloop
endfacet
facet normal -6.07010249817902e-014 -9.74885917175321e-027 1.0
outer loop
vertex 15.6028891336302 21.9019822604156 19.9999999999985
vertex 19.9999999999961 14.4000000000026 19.9999999999994
vertex 19.9999999999952 21.0273425283567 19.9999999999994
endloop
endfacet
facet normal -6.07010249817902e-014 -9.74885917175321e-027 1.0
outer loop
vertex 19.9999999999952 21.0273425283567 19.9999999999994
vertex 19.9999999999961 14.4000000000026 19.9999999999994
vertex 24.39711086636 21.9019822604167 20.0000000000002
endloop
endfacet
facet normal -6.07010249817902e-014 -9.74885917175321e-027 1.0
outer loop
vertex 24.39711086636 21.9019822604167 20.0000000000002
vertex 19.9999999999961 14.4000000000026 19.9999999999994
vertex 26.9332850525705 15.7791161435291 20.0000000000007
endloop
endfacet
facet normal -6.07010249817902e-014 -9.74885917175321e-027 1.0
outer loop
vertex 24.39711086636 21.9019822604167 20.0000000000002
vertex 26.9332850525705 15.7791161435291 20.0000000000007
vertex 28.1248014632298 24.3927454860184 20.0000000000009
endloop
endfacet
facet normal -6.07010249817902e-014 -9.74885917175321e-027 1.0
outer loop
vertex 28.1248014632298 24.3927454860184 20.0000000000009
vertex 26.9332850525705 15.7791161435291 20.0000000000007
vertex 32.8110403062757 19.7065066429739 20.0000000000018
endloop
endfacet
facet normal -6.07010249817902e-014 -9.74885917175321e-027 1.0
outer loop
vertex 28.1248014632298 24.3927454860184 20.0000000000009
vertex 32.8110403062757 19.7065066429739 20.0000000000018
vertex 30.6155646888307 28.120436082889 20.0000000000014
endloop
endfacet
facet normal -6.07010249817902e-014 -9.74885917175321e-027 1.0
outer loop
vertex 30.6155646888307 28.120436082889 20.0000000000014
vertex 32.8110403062757 19.7065066429739 20.0000000000018
vertex 31.4902044208895 32.517546949254 20.0000000000015
endloop
endfacet
facet normal -6.07010249817902e-014 -9.74885917175321e-027 1.0
outer loop
vertex 31.4902044208895 32.517546949254 20.0000000000015
vertex 32.8110403062757 19.7065066429739 20.0000000000018
vertex 32.8110403062723 45.3285872555344 20.0000000000018
endloop
endfacet
facet normal -6.07010249817902e-014 -9.74885917175321e-027 1.0
outer loop
vertex 32.8110403062723 45.3285872555344 20.0000000000018
vertex 32.8110403062757 19.7065066429739 20.0000000000018
vertex 36.7384308057172 39.4508320018293 20.0000000000025
endloop
endfacet
facet normal -6.07010249817902e-014 -9.74885917175321e-027 1.0
outer loop
vertex 36.7384308057172 39.4508320018293 20.0000000000025
vertex 32.8110403062757 19.7065066429739 20.0000000000018
vertex 36.738430805719 25.5842618966801 20.0000000000025
endloop
endfacet
facet normal -6.07010249817902e-014 -9.74885917175321e-027 1.0
outer loop
vertex 36.7384308057172 39.4508320018293 20.0000000000025
vertex 36.738430805719 25.5842618966801 20.0000000000025
vertex 38.1175469492437 32.5175469492548 20.0000000000028
endloop
endfacet
facet normal -6.07010249817902e-014 -9.74885917175321e-027 1.0
outer loop
vertex 5.99999999999049 50.6350938985007 20.0
vertex 11.8751985367577 40.6423484124866 19.9999999999978
vertex 19.9999999999914 50.6350938985024 19.9999999999994
endloop
endfacet
facet normal -6.07010249817902e-014 -9.74885917175321e-027 1.0
outer loop
vertex 11.8751985367577 40.6423484124866 19.9999999999978
vertex 5.99999999999049 50.6350938985007 20.0
vertex 9.38443531115685 36.9146578156161 19.9999999999974
endloop
endfacet
facet normal -6.07010249817902e-014 -9.74885917175321e-027 1.0
outer loop
vertex 9.38443531115685 36.9146578156161 19.9999999999974
vertex 5.99999999999049 50.6350938985007 20.0
vertex 6.7921696069345 26.3883395155129 19.9999999999976
endloop
endfacet
facet normal -6.07010249817902e-014 -9.74885917175321e-027 1.0
outer loop
vertex 6.7921696069345 26.3883395155129 19.9999999999976
vertex 5.99999999999049 50.6350938985007 20.0
vertex 5.99999999999746 14.4000000000008 20.0
endloop
endfacet
facet normal -6.07010249817902e-014 -9.74885917175321e-027 1.0
outer loop
vertex 9.38443531115685 36.9146578156161 19.9999999999974
vertex 6.7921696069345 26.3883395155129 19.9999999999976
vertex 7.58828924932852 28.0027104502718 19.9999999999975
endloop
endfacet
facet normal -6.07010249817902e-014 -9.74885917175321e-027 1.0
outer loop
vertex 9.38443531115685 36.9146578156161 19.9999999999974
vertex 7.58828924932852 28.0027104502718 19.9999999999975
vertex 8.50979557909795 32.5175469492509 19.9999999999972
endloop
endfacet
facet normal -6.07010249817902e-014 -9.74885917175321e-027 1.0
outer loop
vertex 19.9999999999914 50.6350938985024 19.9999999999994
vertex 11.8751985367577 40.6423484124866 19.9999999999978
vertex 15.6028891336275 43.1331116380883 19.9999999999985
endloop
endfacet
facet normal -6.07010249817902e-014 -9.74885917175321e-027 1.0
outer loop
vertex 19.9999999999914 50.6350938985024 19.9999999999994
vertex 15.6028891336275 43.1331116380883 19.9999999999985
vertex 19.9999999999923 44.0077513701483 19.9999999999994
endloop
endfacet
facet normal -6.07010249817902e-014 -9.74885917175321e-027 1.0
outer loop
vertex 19.9999999999914 50.6350938985024 19.9999999999994
vertex 19.9999999999923 44.0077513701483 19.9999999999994
vertex 26.9332850525662 49.2559777549777 20.0000000000007
endloop
endfacet
facet normal -6.07010249817902e-014 -9.74885917175321e-027 1.0
outer loop
vertex 26.9332850525662 49.2559777549777 20.0000000000007
vertex 19.9999999999923 44.0077513701483 19.9999999999994
vertex 24.3971108663573 43.1331116380894 20.0000000000002
endloop
endfacet
facet normal -6.07010249817902e-014 -9.74885917175321e-027 1.0
outer loop
vertex 26.9332850525662 49.2559777549777 20.0000000000007
vertex 24.3971108663573 43.1331116380894 20.0000000000002
vertex 28.1248014632278 40.6423484124886 20.0000000000009
endloop
endfacet
facet normal -6.07010249817902e-014 -9.74885917175321e-027 1.0
outer loop
vertex 26.9332850525662 49.2559777549777 20.0000000000007
vertex 28.1248014632278 40.6423484124886 20.0000000000009
vertex 32.8110403062723 45.3285872555344 20.0000000000018
endloop
endfacet
facet normal -6.07010249817902e-014 -9.74885917175321e-027 1.0
outer loop
vertex 32.8110403062723 45.3285872555344 20.0000000000018
vertex 28.1248014632278 40.6423484124886 20.0000000000009
vertex 30.6155646888295 36.9146578156188 20.0000000000014
endloop
endfacet
facet normal -6.07010249817902e-014 -9.74885917175321e-027 1.0
outer loop
vertex 32.8110403062723 45.3285872555344 20.0000000000018
vertex 30.6155646888295 36.9146578156188 20.0000000000014
vertex 31.4902044208895 32.517546949254 20.0000000000015
endloop
endfacet
facet normal -1.0 -1.49458223575039e-013 -5.96415822202016e-030
outer loop
vertex 4.99999999999504 33.0175469492507 20.0
vertex 4.99999999999511 32.5175469492507 19.0
vertex 4.99999999999519 32.0175469492507 20.0
endloop
endfacet
facet normal -1.3519273367319e-013 0.894427190999916 0.447213595499957
outer loop
vertex -4.81403528151958e-012 32.0175469492499 20.0
vertex 4.99999999999511 32.5175469492507 19.0
vertex -4.88894064121226e-012 32.5175469492499 19.0
endloop
endfacet
facet normal -1.3519273367319e-013 0.894427190999916 0.447213595499957
outer loop
vertex 4.99999999999511 32.5175469492507 19.0
vertex -4.81403528151958e-012 32.0175469492499 20.0
vertex 4.99999999999519 32.0175469492507 20.0
endloop
endfacet
facet normal 1.3519273367319e-013 -0.894427190999916 0.447213595499957
outer loop
vertex 4.99999999999504 33.0175469492507 20.0
vertex -4.88894064121226e-012 32.5175469492499 19.0
vertex 4.99999999999511 32.5175469492507 19.0
endloop
endfacet
facet normal 1.3519273367319e-013 -0.894427190999916 0.447213595499957
outer loop
vertex -4.88894064121226e-012 32.5175469492499 19.0
vertex 4.99999999999504 33.0175469492507 20.0
vertex -4.96384600090494e-012 33.0175469492499 20.0
endloop
endfacet
endsolid Z Lead Screw Support
