solid Z Motor Bracket - Belt 
facet normal 1.0 2.34997206878991e-016 1.26522496183649e-013
outer loop
vertex 5.99999999999874 74.0000000744988 5.00000000000064
vertex 5.9999999999981 77.3000000744988 10.0000000000006
vertex 5.99999999999684 74.0000000744988 20.0000000000007
endloop
endfacet
facet normal 1.0 2.34997206878991e-016 1.26522496183649e-013
outer loop
vertex 5.9999999999981 77.3000000744988 10.0000000000006
vertex 5.99999999999874 74.0000000744988 5.00000000000064
vertex 5.9999999999983 77.9443651558884 8.44436508139023
endloop
endfacet
facet normal 1.0 2.34997206878991e-016 1.26522496183649e-013
outer loop
vertex 5.9999999999983 77.9443651558884 8.44436508139023
vertex 5.99999999999874 74.0000000744988 5.00000000000064
vertex 5.99999999999838 79.5000000744988 7.80000000000064
endloop
endfacet
facet normal 1.0 2.34997206878991e-016 1.26522496183649e-013
outer loop
vertex 5.99999999999838 79.5000000744988 7.80000000000064
vertex 5.99999999999874 74.0000000744988 5.00000000000064
vertex 5.99999999999873 92.0000000744988 5.00000000000064
endloop
endfacet
facet normal 1.0 2.34997206878991e-016 1.26522496183649e-013
outer loop
vertex 5.99999999999838 79.5000000744988 7.80000000000064
vertex 5.99999999999873 92.0000000744988 5.00000000000064
vertex 5.9999999999983 81.0556349931092 8.44436508139023
endloop
endfacet
facet normal 1.0 2.34997206878991e-016 1.26522496183649e-013
outer loop
vertex 5.9999999999983 81.0556349931092 8.44436508139023
vertex 5.99999999999873 92.0000000744988 5.00000000000064
vertex 5.9999999999981 81.7000000744988 10.0000000000006
endloop
endfacet
facet normal 1.0 2.34997206878991e-016 1.26522496183649e-013
outer loop
vertex 5.99999999999684 74.0000000744988 20.0000000000007
vertex 5.9999999999979 77.9443651558884 11.555634918611
vertex 5.99999999999683 92.0000000744988 20.0000000000007
endloop
endfacet
facet normal 1.0 2.34997206878991e-016 1.26522496183649e-013
outer loop
vertex 5.9999999999979 77.9443651558884 11.555634918611
vertex 5.99999999999684 74.0000000744988 20.0000000000007
vertex 5.9999999999981 77.3000000744988 10.0000000000006
endloop
endfacet
facet normal 1.0 2.34997206878991e-016 1.26522496183649e-013
outer loop
vertex 5.99999999999683 92.0000000744988 20.0000000000007
vertex 5.9999999999979 77.9443651558884 11.555634918611
vertex 5.99999999999782 79.5000000744988 12.2000000000006
endloop
endfacet
facet normal 1.0 2.34997206878991e-016 1.26522496183649e-013
outer loop
vertex 5.99999999999683 92.0000000744988 20.0000000000007
vertex 5.99999999999782 79.5000000744988 12.2000000000006
vertex 5.9999999999979 81.0556349931092 11.555634918611
endloop
endfacet
facet normal 1.0 2.34997206878991e-016 1.26522496183649e-013
outer loop
vertex 5.99999999999683 92.0000000744988 20.0000000000007
vertex 5.9999999999979 81.0556349931092 11.555634918611
vertex 5.9999999999981 81.7000000744988 10.0000000000006
endloop
endfacet
facet normal 1.0 2.34997206878991e-016 1.26522496183649e-013
outer loop
vertex 5.99999999999683 92.0000000744988 20.0000000000007
vertex 5.9999999999981 81.7000000744988 10.0000000000006
vertex 5.99999999999873 92.0000000744988 5.00000000000064
endloop
endfacet
facet normal -1.29181321957596e-013 8.27283195681609e-029 1.0
outer loop
vertex 47.9999999241604 18.0 5.00000000000607
vertex 5.99999999999874 18.0 5.00000000000064
vertex 5.99999999999874 0.0 5.00000000000064
endloop
endfacet
facet normal -1.29181321957596e-013 -0.0 1.0
outer loop
vertex 47.9999999241604 74.0000000744988 5.00000000000607
vertex 5.99999999999873 92.0000000744988 5.00000000000064
vertex 5.99999999999874 74.0000000744988 5.00000000000064
endloop
endfacet
facet normal 0.258819045102522 0.965925826289068 3.23619369716524e-014
outer loop
vertex 14.9999999620792 35.6076951918362 8.00000000000193
vertex 20.9999999620796 34.0000000372494 5.00000000000266
vertex 14.9999999620796 35.6076951918362 5.0000000000019
endloop
endfacet
facet normal 0.258819045102522 0.965925826289068 3.23619369716524e-014
outer loop
vertex 20.9999999620796 34.0000000372494 5.00000000000266
vertex 14.9999999620792 35.6076951918362 8.00000000000193
vertex 20.9999999620792 34.0000000372494 8.00000000000268
endloop
endfacet
facet normal 0.707106781186547 0.707106781186548 8.90737275783669e-014
outer loop
vertex 10.6076951166659 40.0000000372494 8.00000000000137
vertex 14.9999999620796 35.6076951918362 5.0000000000019
vertex 10.6076951166663 40.0000000372494 5.00000000000134
endloop
endfacet
facet normal 0.707106781186547 0.707106781186548 8.90737275783669e-014
outer loop
vertex 14.9999999620796 35.6076951918362 5.0000000000019
vertex 10.6076951166659 40.0000000372494 8.00000000000137
vertex 14.9999999620792 35.6076951918362 8.00000000000193
endloop
endfacet
facet normal 0.965925826289068 0.258819045102521 1.22597383035698e-013
outer loop
vertex 8.99999996207957 46.0000000372494 5.00000000000114
vertex 10.6076951166659 40.0000000372494 8.00000000000137
vertex 10.6076951166663 40.0000000372494 5.00000000000134
endloop
endfacet
facet normal 0.965925826289068 0.258819045102521 1.22597383035698e-013
outer loop
vertex 10.6076951166659 40.0000000372494 8.00000000000137
vertex 8.99999996207957 46.0000000372494 5.00000000000114
vertex 8.99999996207919 46.0000000372494 8.00000000000117
endloop
endfacet
facet normal 0.965925826289069 -0.25881904510252 1.22567354167316e-013
outer loop
vertex 10.6076951166663 52.0000000372494 5.00000000000134
vertex 8.99999996207919 46.0000000372494 8.00000000000117
vertex 8.99999996207957 46.0000000372494 5.00000000000114
endloop
endfacet
facet normal 0.965925826289069 -0.25881904510252 1.22567354167316e-013
outer loop
vertex 8.99999996207919 46.0000000372494 8.00000000000117
vertex 10.6076951166663 52.0000000372494 5.00000000000134
vertex 10.6076951166659 52.0000000372494 8.00000000000137
endloop
endfacet
facet normal 0.707106781186548 -0.707106781186547 8.91176928930646e-014
outer loop
vertex 14.9999999620796 56.3923048826627 5.0000000000019
vertex 10.6076951166659 52.0000000372494 8.00000000000137
vertex 10.6076951166663 52.0000000372494 5.00000000000134
endloop
endfacet
facet normal 0.707106781186548 -0.707106781186547 8.91176928930646e-014
outer loop
vertex 10.6076951166659 52.0000000372494 8.00000000000137
vertex 14.9999999620796 56.3923048826627 5.0000000000019
vertex 14.9999999620792 56.3923048826627 8.00000000000193
endloop
endfacet
facet normal 0.258819045102521 -0.965925826289068 3.23619369716525e-014
outer loop
vertex 20.9999999620796 58.0000000372494 5.00000000000266
vertex 14.9999999620792 56.3923048826627 8.00000000000193
vertex 14.9999999620796 56.3923048826627 5.0000000000019
endloop
endfacet
facet normal 0.258819045102521 -0.965925826289068 3.23619369716525e-014
outer loop
vertex 14.9999999620792 56.3923048826627 8.00000000000193
vertex 20.9999999620796 58.0000000372494 5.00000000000266
vertex 20.9999999620792 58.0000000372494 8.00000000000268
endloop
endfacet
facet normal -0.258819045102522 -0.965925826289068 -3.27320626791447e-014
outer loop
vertex 26.9999999620796 56.3923048826627 5.00000000000342
vertex 20.9999999620792 58.0000000372494 8.00000000000268
vertex 20.9999999620796 58.0000000372494 5.00000000000266
endloop
endfacet
facet normal -0.258819045102522 -0.965925826289068 -3.27320626791447e-014
outer loop
vertex 20.9999999620792 58.0000000372494 8.00000000000268
vertex 26.9999999620796 56.3923048826627 5.00000000000342
vertex 26.9999999620792 56.3923048826627 8.00000000000344
endloop
endfacet
facet normal -0.707106781186547 -0.707106781186548 -9.03926870193101e-014
outer loop
vertex 31.3923048074928 52.0000000372494 5.00000000000397
vertex 26.9999999620792 56.3923048826627 8.00000000000344
vertex 26.9999999620796 56.3923048826627 5.00000000000342
endloop
endfacet
facet normal -0.707106781186547 -0.707106781186548 -9.03926870193101e-014
outer loop
vertex 26.9999999620792 56.3923048826627 8.00000000000344
vertex 31.3923048074928 52.0000000372494 5.00000000000397
vertex 31.3923048074925 52.0000000372494 8.000000000004
endloop
endfacet
facet normal -0.965925826289068 -0.258819045102521 -1.23483234652952e-013
outer loop
vertex 31.3923048074925 52.0000000372494 8.000000000004
vertex 32.9999999620796 46.0000000372494 5.00000000000418
vertex 32.9999999620792 46.0000000372494 8.0000000000042
endloop
endfacet
facet normal -0.965925826289068 -0.258819045102521 -1.23483234652952e-013
outer loop
vertex 32.9999999620796 46.0000000372494 5.00000000000418
vertex 31.3923048074925 52.0000000372494 8.000000000004
vertex 31.3923048074928 52.0000000372494 5.00000000000397
endloop
endfacet
facet normal -0.965925826289068 0.258819045102521 -1.23499327075017e-013
outer loop
vertex 32.9999999620792 46.0000000372494 8.0000000000042
vertex 31.3923048074928 40.0000000372494 5.00000000000397
vertex 31.3923048074925 40.0000000372494 8.000000000004
endloop
endfacet
facet normal -0.965925826289068 0.258819045102521 -1.23499327075017e-013
outer loop
vertex 31.3923048074928 40.0000000372494 5.00000000000397
vertex 32.9999999620792 46.0000000372494 8.0000000000042
vertex 32.9999999620796 46.0000000372494 5.00000000000418
endloop
endfacet
facet normal -0.707106781186549 0.707106781186547 -9.03926870193095e-014
outer loop
vertex 31.3923048074925 40.0000000372494 8.000000000004
vertex 26.9999999620796 35.6076951918362 5.00000000000342
vertex 26.9999999620792 35.6076951918362 8.00000000000344
endloop
endfacet
facet normal -0.707106781186549 0.707106781186547 -9.03926870193095e-014
outer loop
vertex 26.9999999620796 35.6076951918362 5.00000000000342
vertex 31.3923048074925 40.0000000372494 8.000000000004
vertex 31.3923048074928 40.0000000372494 5.00000000000397
endloop
endfacet
facet normal -0.258819045102521 0.965925826289068 -3.27320626791448e-014
outer loop
vertex 20.9999999620792 34.0000000372494 8.00000000000268
vertex 26.9999999620796 35.6076951918362 5.00000000000342
vertex 20.9999999620796 34.0000000372494 5.00000000000266
endloop
endfacet
facet normal -0.258819045102521 0.965925826289068 -3.27320626791448e-014
outer loop
vertex 26.9999999620796 35.6076951918362 5.00000000000342
vertex 20.9999999620792 34.0000000372494 8.00000000000268
vertex 26.9999999620792 35.6076951918362 8.00000000000344
endloop
endfacet
facet normal -9.72591134225086e-014 -0.382683432365092 0.923879532511286
outer loop
vertex -1.62271446280116e-012 79.5000000744988 7.80000000000001
vertex 5.9999999999983 81.0556349931092 8.44436508139023
vertex -1.70872344051887e-012 81.0556349931092 8.4443650813896
endloop
endfacet
facet normal -9.72591134225086e-014 -0.382683432365092 0.923879532511286
outer loop
vertex 5.9999999999983 81.0556349931092 8.44436508139023
vertex -1.62271446280116e-012 79.5000000744988 7.80000000000001
vertex 5.99999999999838 79.5000000744988 7.80000000000064
endloop
endfacet
facet normal -4.02876622898681e-014 0.923879532511285 0.382683432365094
outer loop
vertex -1.90048116133212e-012 77.3000000744988 10.0
vertex 5.9999999999983 77.9443651558884 8.44436508139023
vertex -1.70872344051887e-012 77.9443651558884 8.4443650813896
endloop
endfacet
facet normal -4.02876622898681e-014 0.923879532511285 0.382683432365094
outer loop
vertex 5.9999999999983 77.9443651558884 8.44436508139023
vertex -1.90048116133212e-012 77.3000000744988 10.0
vertex 5.9999999999981 77.3000000744988 10.0000000000006
endloop
endfacet
facet normal -9.72591134225086e-014 0.382683432365092 0.923879532511286
outer loop
vertex 5.9999999999983 77.9443651558884 8.44436508139023
vertex -1.62271446280116e-012 79.5000000744988 7.80000000000001
vertex -1.70872344051887e-012 77.9443651558884 8.4443650813896
endloop
endfacet
facet normal -9.72591134225086e-014 0.382683432365092 0.923879532511286
outer loop
vertex -1.62271446280116e-012 79.5000000744988 7.80000000000001
vertex 5.9999999999983 77.9443651558884 8.44436508139023
vertex 5.99999999999838 79.5000000744988 7.80000000000064
endloop
endfacet
facet normal 9.72593247946763e-014 0.382683432365092 -0.923879532511286
outer loop
vertex 5.99999999999782 79.5000000744988 12.2000000000006
vertex -2.1021087648343e-012 77.9443651558884 11.5556349186104
vertex -2.18388779282819e-012 79.5000000744988 12.2
endloop
endfacet
facet normal 9.72593247946763e-014 0.382683432365092 -0.923879532511286
outer loop
vertex -2.1021087648343e-012 77.9443651558884 11.5556349186104
vertex 5.99999999999782 79.5000000744988 12.2000000000006
vertex 5.9999999999979 77.9443651558884 11.555634918611
endloop
endfacet
facet normal 4.02892113153964e-014 0.923879532511284 -0.382683432365096
outer loop
vertex -2.1021087648343e-012 77.9443651558884 11.5556349186104
vertex 5.9999999999981 77.3000000744988 10.0000000000006
vertex -1.90048116133212e-012 77.3000000744988 10.0
endloop
endfacet
facet normal 4.02892113153964e-014 0.923879532511284 -0.382683432365096
outer loop
vertex 5.9999999999981 77.3000000744988 10.0000000000006
vertex -2.1021087648343e-012 77.9443651558884 11.5556349186104
vertex 5.9999999999979 77.9443651558884 11.555634918611
endloop
endfacet
facet normal -4.02876622898681e-014 -0.923879532511285 0.382683432365094
outer loop
vertex 5.9999999999983 81.0556349931092 8.44436508139023
vertex -1.90048116133212e-012 81.7000000744988 10.0
vertex -1.70872344051887e-012 81.0556349931092 8.4443650813896
endloop
endfacet
facet normal -4.02876622898681e-014 -0.923879532511285 0.382683432365094
outer loop
vertex -1.90048116133212e-012 81.7000000744988 10.0
vertex 5.9999999999983 81.0556349931092 8.44436508139023
vertex 5.9999999999981 81.7000000744988 10.0000000000006
endloop
endfacet
facet normal 9.72593247946763e-014 -0.382683432365092 -0.923879532511286
outer loop
vertex -2.1021087648343e-012 81.0556349931092 11.5556349186104
vertex 5.99999999999782 79.5000000744988 12.2000000000006
vertex -2.18388779282819e-012 79.5000000744988 12.2
endloop
endfacet
facet normal 9.72593247946763e-014 -0.382683432365092 -0.923879532511286
outer loop
vertex 5.99999999999782 79.5000000744988 12.2000000000006
vertex -2.1021087648343e-012 81.0556349931092 11.5556349186104
vertex 5.9999999999979 81.0556349931092 11.555634918611
endloop
endfacet
facet normal 4.02892113153963e-014 -0.923879532511284 -0.382683432365096
outer loop
vertex 5.9999999999981 81.7000000744988 10.0000000000006
vertex -2.1021087648343e-012 81.0556349931092 11.5556349186104
vertex -1.90048116133212e-012 81.7000000744988 10.0
endloop
endfacet
facet normal 4.02892113153963e-014 -0.923879532511284 -0.382683432365096
outer loop
vertex -2.1021087648343e-012 81.0556349931092 11.5556349186104
vertex 5.9999999999981 81.7000000744988 10.0000000000006
vertex 5.9999999999979 81.0556349931092 11.555634918611
endloop
endfacet
facet normal -1.06876729688565e-013 -9.39988827516177e-017 1.0
outer loop
vertex -3.1594199478846e-012 68.0000000744989 20.0
vertex 5.99999999999683 92.0000000744988 20.0000000000007
vertex -3.16382614551358e-012 92.0000000744988 20.0
endloop
endfacet
facet normal -1.06876729688565e-013 -9.39988827516177e-017 1.0
outer loop
vertex 5.99999999999683 92.0000000744988 20.0000000000007
vertex -3.1594199478846e-012 68.0000000744989 20.0
vertex 5.99999999999684 68.0000000744989 20.0000000000006
endloop
endfacet
facet normal -1.06876729688565e-013 -9.39988827516177e-017 1.0
outer loop
vertex 5.99999999999683 92.0000000744988 20.0000000000007
vertex 5.99999999999684 68.0000000744989 20.0000000000006
vertex 5.99999999999684 74.0000000744988 20.0000000000007
endloop
endfacet
facet normal -1.23488299907043e-013 -4.56875763680508e-030 1.0
outer loop
vertex 34.9411542731889 60.6000000372494 8.00000000000445
vertex 34.9411542731889 31.4000000372494 8.00000000000445
vertex 36.5000000000009 59.7000000372494 8.00000000000465
endloop
endfacet
facet normal -1.23488299907043e-013 -4.56875763680508e-030 1.0
outer loop
vertex 34.9411542731889 31.4000000372494 8.00000000000445
vertex 34.9411542731889 60.6000000372494 8.00000000000445
vertex 34.9411542731889 29.6000000372494 8.00000000000445
endloop
endfacet
facet normal -1.23488299907043e-013 -4.56875763680508e-030 1.0
outer loop
vertex 36.5000000000009 59.7000000372494 8.00000000000465
vertex 34.9411542731889 31.4000000372494 8.00000000000445
vertex 36.5000000000009 32.3000000372494 8.00000000000464
endloop
endfacet
facet normal -1.23488299907043e-013 -4.56875763680508e-030 1.0
outer loop
vertex 36.5000000000009 59.7000000372494 8.00000000000465
vertex 36.5000000000009 32.3000000372494 8.00000000000464
vertex 38.0588457268129 60.6000000372494 8.00000000000484
endloop
endfacet
facet normal -1.23488299907043e-013 -4.56875763680508e-030 1.0
outer loop
vertex 38.0588457268129 60.6000000372494 8.00000000000484
vertex 36.5000000000009 32.3000000372494 8.00000000000464
vertex 38.0588457268129 31.4000000372494 8.00000000000484
endloop
endfacet
facet normal -1.23488299907043e-013 -4.56875763680508e-030 1.0
outer loop
vertex 38.0588457268129 60.6000000372494 8.00000000000484
vertex 38.0588457268129 31.4000000372494 8.00000000000484
vertex 38.0588457268129 62.4000000372494 8.00000000000484
endloop
endfacet
facet normal -1.23488299907043e-013 -4.56875763680508e-030 1.0
outer loop
vertex -1.6454504425667e-012 24.0 8.00000000000002
vertex 10.6076951166659 40.0000000372494 8.00000000000137
vertex 8.99999996207919 46.0000000372494 8.00000000000117
endloop
endfacet
facet normal -1.23488299907043e-013 -4.56875763680508e-030 1.0
outer loop
vertex 10.6076951166659 40.0000000372494 8.00000000000137
vertex -1.6454504425667e-012 24.0 8.00000000000002
vertex 14.9999999620792 35.6076951918362 8.00000000000193
endloop
endfacet
facet normal -1.23488299907043e-013 -4.56875763680508e-030 1.0
outer loop
vertex 14.9999999620792 35.6076951918362 8.00000000000193
vertex -1.6454504425667e-012 24.0 8.00000000000002
vertex 42.99999992416 24.0 8.00000000000533
endloop
endfacet
facet normal -1.23488299907043e-013 -4.56875763680508e-030 1.0
outer loop
vertex 14.9999999620792 35.6076951918362 8.00000000000193
vertex 42.99999992416 24.0 8.00000000000533
vertex 20.9999999620792 34.0000000372494 8.00000000000268
endloop
endfacet
facet normal -1.23488299907043e-013 -4.56875763680508e-030 1.0
outer loop
vertex 20.9999999620792 34.0000000372494 8.00000000000268
vertex 42.99999992416 24.0 8.00000000000533
vertex 34.9411542731889 29.6000000372494 8.00000000000445
endloop
endfacet
facet normal -1.23488299907043e-013 -4.56875763680508e-030 1.0
outer loop
vertex 20.9999999620792 34.0000000372494 8.00000000000268
vertex 34.9411542731889 29.6000000372494 8.00000000000445
vertex 26.9999999620792 35.6076951918362 8.00000000000344
endloop
endfacet
facet normal -1.23488299907043e-013 -4.56875763680508e-030 1.0
outer loop
vertex 26.9999999620792 35.6076951918362 8.00000000000344
vertex 34.9411542731889 29.6000000372494 8.00000000000445
vertex 31.3923048074925 40.0000000372494 8.000000000004
endloop
endfacet
facet normal -1.23488299907043e-013 -4.56875763680508e-030 1.0
outer loop
vertex 31.3923048074925 40.0000000372494 8.000000000004
vertex 34.9411542731889 29.6000000372494 8.00000000000445
vertex 32.9999999620792 46.0000000372494 8.0000000000042
endloop
endfacet
facet normal -1.23488299907043e-013 -4.56875763680508e-030 1.0
outer loop
vertex 32.9999999620792 46.0000000372494 8.0000000000042
vertex 34.9411542731889 29.6000000372494 8.00000000000445
vertex 34.9411542731889 60.6000000372494 8.00000000000445
endloop
endfacet
facet normal -1.23488299907043e-013 -4.56875763680508e-030 1.0
outer loop
vertex 34.9411542731889 29.6000000372494 8.00000000000445
vertex 42.99999992416 24.0 8.00000000000533
vertex 36.5000000000009 28.7000000372494 8.00000000000464
endloop
endfacet
facet normal -1.23488299907043e-013 -4.56875763680508e-030 1.0
outer loop
vertex 36.5000000000009 28.7000000372494 8.00000000000464
vertex 42.99999992416 24.0 8.00000000000533
vertex 38.0588457268129 29.6000000372494 8.00000000000484
endloop
endfacet
facet normal -1.23488299907043e-013 -4.56875763680508e-030 1.0
outer loop
vertex 38.0588457268129 29.6000000372494 8.00000000000484
vertex 42.99999992416 24.0 8.00000000000533
vertex 38.0588457268129 31.4000000372494 8.00000000000484
endloop
endfacet
facet normal -1.23488299907043e-013 -4.56875763680508e-030 1.0
outer loop
vertex -1.64562669047186e-012 68.0000000744989 8.00000000000002
vertex 14.9999999620792 56.3923048826627 8.00000000000193
vertex 42.99999992416 68.0000000744989 8.00000000000533
endloop
endfacet
facet normal -1.23488299907043e-013 -4.56875763680508e-030 1.0
outer loop
vertex 14.9999999620792 56.3923048826627 8.00000000000193
vertex -1.64562669047186e-012 68.0000000744989 8.00000000000002
vertex 10.6076951166659 52.0000000372494 8.00000000000137
endloop
endfacet
facet normal -1.23488299907043e-013 -4.56875763680508e-030 1.0
outer loop
vertex 10.6076951166659 52.0000000372494 8.00000000000137
vertex -1.64562669047186e-012 68.0000000744989 8.00000000000002
vertex -1.6454504425667e-012 24.0 8.00000000000002
endloop
endfacet
facet normal -1.23488299907043e-013 -4.56875763680508e-030 1.0
outer loop
vertex 10.6076951166659 52.0000000372494 8.00000000000137
vertex -1.6454504425667e-012 24.0 8.00000000000002
vertex 8.99999996207919 46.0000000372494 8.00000000000117
endloop
endfacet
facet normal -1.23488299907043e-013 -4.56875763680508e-030 1.0
outer loop
vertex 42.99999992416 68.0000000744989 8.00000000000533
vertex 14.9999999620792 56.3923048826627 8.00000000000193
vertex 20.9999999620792 58.0000000372494 8.00000000000268
endloop
endfacet
facet normal -1.23488299907043e-013 -4.56875763680508e-030 1.0
outer loop
vertex 42.99999992416 68.0000000744989 8.00000000000533
vertex 20.9999999620792 58.0000000372494 8.00000000000268
vertex 34.9411542731889 62.4000000372494 8.00000000000445
endloop
endfacet
facet normal -1.23488299907043e-013 -4.56875763680508e-030 1.0
outer loop
vertex 34.9411542731889 62.4000000372494 8.00000000000445
vertex 20.9999999620792 58.0000000372494 8.00000000000268
vertex 26.9999999620792 56.3923048826627 8.00000000000344
endloop
endfacet
facet normal -1.23488299907043e-013 -4.56875763680508e-030 1.0
outer loop
vertex 34.9411542731889 62.4000000372494 8.00000000000445
vertex 26.9999999620792 56.3923048826627 8.00000000000344
vertex 31.3923048074925 52.0000000372494 8.000000000004
endloop
endfacet
facet normal -1.23488299907043e-013 -4.56875763680508e-030 1.0
outer loop
vertex 34.9411542731889 62.4000000372494 8.00000000000445
vertex 31.3923048074925 52.0000000372494 8.000000000004
vertex 32.9999999620792 46.0000000372494 8.0000000000042
endloop
endfacet
facet normal -1.23488299907043e-013 -4.56875763680508e-030 1.0
outer loop
vertex 34.9411542731889 62.4000000372494 8.00000000000445
vertex 32.9999999620792 46.0000000372494 8.0000000000042
vertex 34.9411542731889 60.6000000372494 8.00000000000445
endloop
endfacet
facet normal -1.23488299907043e-013 -4.56875763680508e-030 1.0
outer loop
vertex 42.99999992416 68.0000000744989 8.00000000000533
vertex 34.9411542731889 62.4000000372494 8.00000000000445
vertex 36.5000000000009 63.3000000372494 8.00000000000465
endloop
endfacet
facet normal -1.23488299907043e-013 -4.56875763680508e-030 1.0
outer loop
vertex 42.99999992416 68.0000000744989 8.00000000000533
vertex 36.5000000000009 63.3000000372494 8.00000000000465
vertex 38.0588457268129 62.4000000372494 8.00000000000484
endloop
endfacet
facet normal -1.23488299907043e-013 -4.56875763680508e-030 1.0
outer loop
vertex 42.99999992416 68.0000000744989 8.00000000000533
vertex 38.0588457268129 62.4000000372494 8.00000000000484
vertex 38.0588457268129 31.4000000372494 8.00000000000484
endloop
endfacet
facet normal -1.23488299907043e-013 -4.56875763680508e-030 1.0
outer loop
vertex 42.99999992416 68.0000000744989 8.00000000000533
vertex 38.0588457268129 31.4000000372494 8.00000000000484
vertex 42.99999992416 24.0 8.00000000000533
endloop
endfacet
facet normal -0.0 1.0 -0.0
outer loop
vertex 5.99999999999684 74.0000000744988 20.0000000000007
vertex 47.9999999241604 74.0000000744988 5.00000000000607
vertex 5.99999999999874 74.0000000744988 5.00000000000064
endloop
endfacet
facet normal -0.0 1.0 -0.0
outer loop
vertex 47.9999999241604 74.0000000744988 5.00000000000607
vertex 5.99999999999684 74.0000000744988 20.0000000000007
vertex 47.9999999241592 74.0000000744988 15.0000000000061
endloop
endfacet
facet normal -9.50328704618641e-014 3.62109331804975e-015 1.0
outer loop
vertex 47.9999999241592 24.0 15.000000000006
vertex 42.9999999241592 68.0000000744989 15.0000000000053
vertex 42.9999999241592 24.0 15.0000000000053
endloop
endfacet
facet normal -9.50328704618641e-014 3.62109331804975e-015 1.0
outer loop
vertex 42.9999999241592 68.0000000744989 15.0000000000053
vertex 47.9999999241592 24.0 15.000000000006
vertex 47.9999999241592 68.0000000744989 15.0000000000056
endloop
endfacet
facet normal -1.0 2.80780175085829e-031 -1.16827182848413e-013
outer loop
vertex 42.9999999241592 68.0000000744989 15.0000000000053
vertex 42.99999992416 24.0 8.00000000000533
vertex 42.9999999241592 24.0 15.0000000000053
endloop
endfacet
facet normal -1.0 2.80780175085829e-031 -1.16827182848413e-013
outer loop
vertex 42.99999992416 24.0 8.00000000000533
vertex 42.9999999241592 68.0000000744989 15.0000000000053
vertex 42.99999992416 68.0000000744989 8.00000000000533
endloop
endfacet
facet normal 0.0 -1.0 0.0
outer loop
vertex 42.99999992416 68.0000000744989 8.00000000000533
vertex -3.1594199478846e-012 68.0000000744989 20.0
vertex -1.64562669047186e-012 68.0000000744989 8.00000000000002
endloop
endfacet
facet normal 0.0 -1.0 0.0
outer loop
vertex -3.1594199478846e-012 68.0000000744989 20.0
vertex 42.99999992416 68.0000000744989 8.00000000000533
vertex 42.9999999241592 68.0000000744989 15.0000000000053
endloop
endfacet
facet normal 0.0 -1.0 0.0
outer loop
vertex -3.1594199478846e-012 68.0000000744989 20.0
vertex 42.9999999241592 68.0000000744989 15.0000000000053
vertex 47.9999999241592 68.0000000744989 15.0000000000056
endloop
endfacet
facet normal 0.0 -1.0 0.0
outer loop
vertex -3.1594199478846e-012 68.0000000744989 20.0
vertex 47.9999999241592 68.0000000744989 15.0000000000056
vertex 5.99999999999684 68.0000000744989 20.0000000000006
endloop
endfacet
facet normal 3.38313425956942e-016 1.0 4.34601072715512e-015
outer loop
vertex -3.16082993112587e-012 24.0 20.0
vertex 42.99999992416 24.0 8.00000000000533
vertex -1.6454504425667e-012 24.0 8.00000000000002
endloop
endfacet
facet normal 3.38313425956942e-016 1.0 4.34601072715512e-015
outer loop
vertex 42.99999992416 24.0 8.00000000000533
vertex -3.16082993112587e-012 24.0 20.0
vertex 42.9999999241592 24.0 15.0000000000053
endloop
endfacet
facet normal 3.38313425956942e-016 1.0 4.34601072715512e-015
outer loop
vertex 42.9999999241592 24.0 15.0000000000053
vertex -3.16082993112587e-012 24.0 20.0
vertex 47.9999999241592 24.0 15.000000000006
endloop
endfacet
facet normal 3.38313425956942e-016 1.0 4.34601072715512e-015
outer loop
vertex 47.9999999241592 24.0 15.000000000006
vertex -3.16082993112587e-012 24.0 20.0
vertex 5.99999999999684 24.0 20.0000000000006
endloop
endfacet
facet normal 0.11821288999546 -3.71059688851871e-014 0.992988274169902
outer loop
vertex 47.9999999241592 68.0000000744989 15.0000000000056
vertex 5.99999999999684 74.0000000744988 20.0000000000007
vertex 5.99999999999684 68.0000000744989 20.0000000000006
endloop
endfacet
facet normal 0.11821288999546 -3.71059688851871e-014 0.992988274169902
outer loop
vertex 5.99999999999684 74.0000000744988 20.0000000000007
vertex 47.9999999241592 68.0000000744989 15.0000000000056
vertex 47.9999999241592 74.0000000744988 15.0000000000061
endloop
endfacet
facet normal -1.0 -2.07769164860791e-017 -1.52718809820485e-013
outer loop
vertex -3.16118242693619e-012 0.0 20.0
vertex -2.10228501273946e-012 10.9443650813896 11.5556349186104
vertex 0.0 0.0 0.0
endloop
endfacet
facet normal -1.0 -2.07769164860791e-017 -1.52718809820485e-013
outer loop
vertex -2.10228501273946e-012 10.9443650813896 11.5556349186104
vertex -3.16118242693619e-012 0.0 20.0
vertex -3.16082993112587e-012 24.0 20.0
endloop
endfacet
facet normal -1.0 -2.07769164860791e-017 -1.52718809820485e-013
outer loop
vertex 0.0 0.0 0.0
vertex -2.10228501273946e-012 10.9443650813896 11.5556349186104
vertex -1.90065740923728e-012 10.3 10.0
endloop
endfacet
facet normal -1.0 -2.07769164860791e-017 -1.52718809820485e-013
outer loop
vertex -2.10228501273946e-012 10.9443650813896 11.5556349186104
vertex -3.16082993112587e-012 24.0 20.0
vertex -2.18406404073335e-012 12.5 12.2
endloop
endfacet
facet normal -1.0 -2.07769164860791e-017 -1.52718809820485e-013
outer loop
vertex -2.18406404073335e-012 12.5 12.2
vertex -3.16082993112587e-012 24.0 20.0
vertex -2.10228501273946e-012 14.0556349186104 11.5556349186104
endloop
endfacet
facet normal -1.0 -2.07769164860791e-017 -1.52718809820485e-013
outer loop
vertex -2.10228501273946e-012 14.0556349186104 11.5556349186104
vertex -3.16082993112587e-012 24.0 20.0
vertex -1.90065740923728e-012 14.7 10.0
endloop
endfacet
facet normal -1.0 -2.07769164860791e-017 -1.52718809820485e-013
outer loop
vertex -3.16382614551358e-012 92.0000000744988 20.0
vertex -1.64562669047186e-012 68.0000000744989 8.00000000000002
vertex -3.1594199478846e-012 68.0000000744989 20.0
endloop
endfacet
facet normal -1.0 -2.07769164860791e-017 -1.52718809820485e-013
outer loop
vertex -1.64562669047186e-012 68.0000000744989 8.00000000000002
vertex -3.16382614551358e-012 92.0000000744988 20.0
vertex -2.1021087648343e-012 77.9443651558884 11.5556349186104
endloop
endfacet
facet normal -1.0 -2.07769164860791e-017 -1.52718809820485e-013
outer loop
vertex -1.64562669047186e-012 68.0000000744989 8.00000000000002
vertex -2.1021087648343e-012 77.9443651558884 11.5556349186104
vertex -1.90048116133212e-012 77.3000000744988 10.0
endloop
endfacet
facet normal -1.0 -2.07769164860791e-017 -1.52718809820485e-013
outer loop
vertex -2.1021087648343e-012 77.9443651558884 11.5556349186104
vertex -3.16382614551358e-012 92.0000000744988 20.0
vertex -2.18388779282819e-012 79.5000000744988 12.2
endloop
endfacet
facet normal -1.0 -2.07769164860791e-017 -1.52718809820485e-013
outer loop
vertex -2.18388779282819e-012 79.5000000744988 12.2
vertex -3.16382614551358e-012 92.0000000744988 20.0
vertex -2.1021087648343e-012 81.0556349931092 11.5556349186104
endloop
endfacet
facet normal -1.0 -2.07769164860791e-017 -1.52718809820485e-013
outer loop
vertex -2.1021087648343e-012 81.0556349931092 11.5556349186104
vertex -3.16382614551358e-012 92.0000000744988 20.0
vertex -1.90048116133212e-012 81.7000000744988 10.0
endloop
endfacet
facet normal -1.0 -2.07769164860791e-017 -1.52718809820485e-013
outer loop
vertex 0.0 0.0 0.0
vertex -1.62289071070632e-012 12.5 7.80000000000001
vertex -2.64371857738865e-015 92.0000000744988 0.0
endloop
endfacet
facet normal -1.0 -2.07769164860791e-017 -1.52718809820485e-013
outer loop
vertex -1.62289071070632e-012 12.5 7.80000000000001
vertex 0.0 0.0 0.0
vertex -1.70889968842403e-012 10.9443650813896 8.4443650813896
endloop
endfacet
facet normal -1.0 -2.07769164860791e-017 -1.52718809820485e-013
outer loop
vertex -1.70889968842403e-012 10.9443650813896 8.4443650813896
vertex 0.0 0.0 0.0
vertex -1.90065740923728e-012 10.3 10.0
endloop
endfacet
facet normal -1.0 -2.07769164860791e-017 -1.52718809820485e-013
outer loop
vertex -2.64371857738865e-015 92.0000000744988 0.0
vertex -1.62289071070632e-012 12.5 7.80000000000001
vertex -1.70889968842403e-012 14.0556349186104 8.4443650813896
endloop
endfacet
facet normal -1.0 -2.07769164860791e-017 -1.52718809820485e-013
outer loop
vertex -2.64371857738865e-015 92.0000000744988 0.0
vertex -1.70889968842403e-012 14.0556349186104 8.4443650813896
vertex -1.6454504425667e-012 24.0 8.00000000000002
endloop
endfacet
facet normal -1.0 -2.07769164860791e-017 -1.52718809820485e-013
outer loop
vertex -1.6454504425667e-012 24.0 8.00000000000002
vertex -1.70889968842403e-012 14.0556349186104 8.4443650813896
vertex -1.90065740923728e-012 14.7 10.0
endloop
endfacet
facet normal -1.0 -2.07769164860791e-017 -1.52718809820485e-013
outer loop
vertex -1.6454504425667e-012 24.0 8.00000000000002
vertex -1.90065740923728e-012 14.7 10.0
vertex -3.16082993112587e-012 24.0 20.0
endloop
endfacet
facet normal -1.0 -2.07769164860791e-017 -1.52718809820485e-013
outer loop
vertex -2.64371857738865e-015 92.0000000744988 0.0
vertex -1.6454504425667e-012 24.0 8.00000000000002
vertex -1.64562669047186e-012 68.0000000744989 8.00000000000002
endloop
endfacet
facet normal -1.0 -2.07769164860791e-017 -1.52718809820485e-013
outer loop
vertex -2.64371857738865e-015 92.0000000744988 0.0
vertex -1.64562669047186e-012 68.0000000744989 8.00000000000002
vertex -1.70872344051887e-012 77.9443651558884 8.4443650813896
endloop
endfacet
facet normal -1.0 -2.07769164860791e-017 -1.52718809820485e-013
outer loop
vertex -1.70872344051887e-012 77.9443651558884 8.4443650813896
vertex -1.64562669047186e-012 68.0000000744989 8.00000000000002
vertex -1.90048116133212e-012 77.3000000744988 10.0
endloop
endfacet
facet normal -1.0 -2.07769164860791e-017 -1.52718809820485e-013
outer loop
vertex -2.64371857738865e-015 92.0000000744988 0.0
vertex -1.70872344051887e-012 77.9443651558884 8.4443650813896
vertex -1.62271446280116e-012 79.5000000744988 7.80000000000001
endloop
endfacet
facet normal -1.0 -2.07769164860791e-017 -1.52718809820485e-013
outer loop
vertex -2.64371857738865e-015 92.0000000744988 0.0
vertex -1.62271446280116e-012 79.5000000744988 7.80000000000001
vertex -1.70872344051887e-012 81.0556349931092 8.4443650813896
endloop
endfacet
facet normal -1.0 -2.07769164860791e-017 -1.52718809820485e-013
outer loop
vertex -2.64371857738865e-015 92.0000000744988 0.0
vertex -1.70872344051887e-012 81.0556349931092 8.4443650813896
vertex -1.90048116133212e-012 81.7000000744988 10.0
endloop
endfacet
facet normal -1.0 -2.07769164860791e-017 -1.52718809820485e-013
outer loop
vertex -2.64371857738865e-015 92.0000000744988 0.0
vertex -1.90048116133212e-012 81.7000000744988 10.0
vertex -3.16382614551358e-012 92.0000000744988 20.0
endloop
endfacet
facet normal -0.835717142917486 -0.2239297335456 -0.501430285750702
outer loop
vertex 31.3923048074928 52.0000000372494 5.00000000000397
vertex 35.9999999620808 46.0000000372494 4.17919032713598e-012
vertex 32.9999999620796 46.0000000372494 5.00000000000418
endloop
endfacet
facet normal -0.835717142917486 -0.2239297335456 -0.501430285750702
outer loop
vertex 35.9999999620808 46.0000000372494 4.17919032713598e-012
vertex 31.3923048074928 52.0000000372494 5.00000000000397
vertex 33.9903810188474 53.5000000372494 3.97615274039254e-012
endloop
endfacet
facet normal 0.223929733545667 0.835717142917585 -0.501430285750508
outer loop
vertex 14.9999999620796 35.6076951918362 5.0000000000019
vertex 20.9999999620808 31.0000000372494 2.66204835952522e-012
vertex 13.4999999620808 33.0096189804828 1.90629734220238e-012
endloop
endfacet
facet normal 0.223929733545667 0.835717142917585 -0.501430285750508
outer loop
vertex 20.9999999620808 31.0000000372494 2.66204835952522e-012
vertex 14.9999999620796 35.6076951918362 5.0000000000019
vertex 20.9999999620796 34.0000000372494 5.00000000000266
endloop
endfacet
facet normal -0.835717142917486 0.2239297335456 -0.501430285750702
outer loop
vertex 31.3923048074928 40.0000000372494 5.00000000000397
vertex 35.9999999620808 46.0000000372494 4.17919032713598e-012
vertex 33.9903810188474 38.5000000372494 3.97615274039254e-012
endloop
endfacet
facet normal -0.835717142917486 0.2239297335456 -0.501430285750702
outer loop
vertex 35.9999999620808 46.0000000372494 4.17919032713598e-012
vertex 31.3923048074928 40.0000000372494 5.00000000000397
vertex 32.9999999620796 46.0000000372494 5.00000000000418
endloop
endfacet
facet normal -0.0 1.0 -0.0
outer loop
vertex -3.16382614551358e-012 92.0000000744988 20.0
vertex 6.0 92.0000000744988 6.42952358020921e-013
vertex -2.64371857738865e-015 92.0000000744988 0.0
endloop
endfacet
facet normal -0.0 1.0 -0.0
outer loop
vertex 6.0 92.0000000744988 6.42952358020921e-013
vertex -3.16382614551358e-012 92.0000000744988 20.0
vertex 5.99999999999873 92.0000000744988 5.00000000000064
endloop
endfacet
facet normal -0.0 1.0 -0.0
outer loop
vertex 5.99999999999873 92.0000000744988 5.00000000000064
vertex -3.16382614551358e-012 92.0000000744988 20.0
vertex 5.99999999999683 92.0000000744988 20.0000000000007
endloop
endfacet
facet normal -0.611787409371891 -0.611787409371951 -0.501430285750658
outer loop
vertex 33.9903810188474 53.5000000372494 3.97615274039254e-012
vertex 26.9999999620796 56.3923048826627 5.00000000000342
vertex 28.4999999620808 58.990381094016 3.42343930981315e-012
endloop
endfacet
facet normal -0.611787409371891 -0.611787409371951 -0.501430285750658
outer loop
vertex 26.9999999620796 56.3923048826627 5.00000000000342
vertex 33.9903810188474 53.5000000372494 3.97615274039254e-012
vertex 31.3923048074928 52.0000000372494 5.00000000000397
endloop
endfacet
facet normal 0.835717142917669 0.22392973354562 -0.501430285750388
outer loop
vertex 5.99999996208084 46.0000000372494 1.14490639191445e-012
vertex 10.6076951166663 40.0000000372494 5.00000000000134
vertex 8.00961890531426 38.5000000372494 1.3423040456928e-012
endloop
endfacet
facet normal 0.835717142917669 0.22392973354562 -0.501430285750388
outer loop
vertex 10.6076951166663 40.0000000372494 5.00000000000134
vertex 5.99999996208084 46.0000000372494 1.14490639191445e-012
vertex 8.99999996207957 46.0000000372494 5.00000000000114
endloop
endfacet
facet normal 0.835717142917669 -0.22392973354562 -0.501430285750388
outer loop
vertex 5.99999996208084 46.0000000372494 1.14490639191445e-012
vertex 10.6076951166663 52.0000000372494 5.00000000000134
vertex 8.99999996207957 46.0000000372494 5.00000000000114
endloop
endfacet
facet normal 0.835717142917669 -0.22392973354562 -0.501430285750388
outer loop
vertex 10.6076951166663 52.0000000372494 5.00000000000134
vertex 5.99999996208084 46.0000000372494 1.14490639191445e-012
vertex 8.00961890531425 53.5000000372494 1.3423040456928e-012
endloop
endfacet
facet normal -0.611787409371892 0.611787409371946 -0.501430285750663
outer loop
vertex 26.9999999620796 35.6076951918362 5.00000000000342
vertex 33.9903810188474 38.5000000372494 3.97615274039254e-012
vertex 28.4999999620808 33.0096189804828 3.42343930981315e-012
endloop
endfacet
facet normal -0.611787409371892 0.611787409371946 -0.501430285750663
outer loop
vertex 33.9903810188474 38.5000000372494 3.97615274039254e-012
vertex 26.9999999620796 35.6076951918362 5.00000000000342
vertex 31.3923048074928 40.0000000372494 5.00000000000397
endloop
endfacet
facet normal 0.611787409372043 -0.611787409371987 -0.50143028575043
outer loop
vertex 8.00961890531425 53.5000000372494 1.3423040456928e-012
vertex 14.9999999620796 56.3923048826627 5.0000000000019
vertex 10.6076951166663 52.0000000372494 5.00000000000134
endloop
endfacet
facet normal 0.611787409372043 -0.611787409371987 -0.50143028575043
outer loop
vertex 14.9999999620796 56.3923048826627 5.0000000000019
vertex 8.00961890531425 53.5000000372494 1.3423040456928e-012
vertex 13.4999999620808 58.990381094016 1.90629734220238e-012
endloop
endfacet
facet normal 0.223929733545672 -0.835717142917587 -0.501430285750502
outer loop
vertex 20.9999999620808 61.0000000372494 2.66204835952522e-012
vertex 14.9999999620796 56.3923048826627 5.0000000000019
vertex 13.4999999620808 58.990381094016 1.90629734220238e-012
endloop
endfacet
facet normal 0.223929733545672 -0.835717142917587 -0.501430285750502
outer loop
vertex 14.9999999620796 56.3923048826627 5.0000000000019
vertex 20.9999999620808 61.0000000372494 2.66204835952522e-012
vertex 20.9999999620796 58.0000000372494 5.00000000000266
endloop
endfacet
facet normal 0.611787409372042 0.611787409371984 -0.501430285750434
outer loop
vertex 8.00961890531426 38.5000000372494 1.3423040456928e-012
vertex 14.9999999620796 35.6076951918362 5.0000000000019
vertex 13.4999999620808 33.0096189804828 1.90629734220238e-012
endloop
endfacet
facet normal 0.611787409372042 0.611787409371984 -0.501430285750434
outer loop
vertex 14.9999999620796 35.6076951918362 5.0000000000019
vertex 8.00961890531426 38.5000000372494 1.3423040456928e-012
vertex 10.6076951166663 40.0000000372494 5.00000000000134
endloop
endfacet
facet normal -0.223929733545555 -0.835717142917569 -0.501430285750585
outer loop
vertex 28.4999999620808 58.990381094016 3.42343930981315e-012
vertex 20.9999999620796 58.0000000372494 5.00000000000266
vertex 20.9999999620808 61.0000000372494 2.66204835952522e-012
endloop
endfacet
facet normal -0.223929733545555 -0.835717142917569 -0.501430285750585
outer loop
vertex 20.9999999620796 58.0000000372494 5.00000000000266
vertex 28.4999999620808 58.990381094016 3.42343930981315e-012
vertex 26.9999999620796 56.3923048826627 5.00000000000342
endloop
endfacet
facet normal 1.0 1.85717500662483e-028 1.49786653406341e-013
outer loop
vertex 47.9999999241617 74.0000000744988 6.06856787044308e-012
vertex 47.9999999241604 18.0 5.00000000000607
vertex 47.9999999241617 18.0 6.06856787044308e-012
endloop
endfacet
facet normal 1.0 1.85717500662483e-028 1.49786653406341e-013
outer loop
vertex 47.9999999241604 18.0 5.00000000000607
vertex 47.9999999241617 74.0000000744988 6.06856787044308e-012
vertex 47.9999999241592 18.0 15.0000000000061
endloop
endfacet
facet normal 1.0 1.85717500662483e-028 1.49786653406341e-013
outer loop
vertex 47.9999999241592 18.0 15.0000000000061
vertex 47.9999999241617 74.0000000744988 6.06856787044308e-012
vertex 47.9999999241592 24.0 15.000000000006
endloop
endfacet
facet normal 1.0 1.85717500662483e-028 1.49786653406341e-013
outer loop
vertex 47.9999999241592 24.0 15.000000000006
vertex 47.9999999241617 74.0000000744988 6.06856787044308e-012
vertex 47.9999999241592 68.0000000744989 15.0000000000056
endloop
endfacet
facet normal 1.0 1.85717500662483e-028 1.49786653406341e-013
outer loop
vertex 47.9999999241592 68.0000000744989 15.0000000000056
vertex 47.9999999241617 74.0000000744988 6.06856787044308e-012
vertex 47.9999999241592 74.0000000744988 15.0000000000061
endloop
endfacet
facet normal 1.0 1.85717500662483e-028 1.49786653406341e-013
outer loop
vertex 47.9999999241592 74.0000000744988 15.0000000000061
vertex 47.9999999241617 74.0000000744988 6.06856787044308e-012
vertex 47.9999999241604 74.0000000744988 5.00000000000607
endloop
endfacet
facet normal -0.223929733545551 0.835717142917566 -0.501430285750591
outer loop
vertex 20.9999999620796 34.0000000372494 5.00000000000266
vertex 28.4999999620808 33.0096189804828 3.42343930981315e-012
vertex 20.9999999620808 31.0000000372494 2.66204835952522e-012
endloop
endfacet
facet normal -0.223929733545551 0.835717142917566 -0.501430285750591
outer loop
vertex 28.4999999620808 33.0096189804828 3.42343930981315e-012
vertex 20.9999999620796 34.0000000372494 5.00000000000266
vertex 26.9999999620796 35.6076951918362 5.00000000000342
endloop
endfacet
facet normal 0.393919299180085 0.919145029760522 9.97411362873633e-014
outer loop
vertex 5.99999999999873 92.0000000744988 5.00000000000064
vertex 47.9999999241617 74.0000000744988 6.06856787044308e-012
vertex 6.0 92.0000000744988 6.42952358020921e-013
endloop
endfacet
facet normal 0.393919299180085 0.919145029760522 9.97411362873633e-014
outer loop
vertex 47.9999999241617 74.0000000744988 6.06856787044308e-012
vertex 5.99999999999873 92.0000000744988 5.00000000000064
vertex 47.9999999241604 74.0000000744988 5.00000000000607
endloop
endfacet
facet normal 0.5 -0.866025403784439 7.93161908486029e-014
outer loop
vertex 36.5000000000022 63.3000000372494 4.61628513193091e-012
vertex 34.9411542731889 62.4000000372494 8.00000000000445
vertex 34.9411542731902 62.4000000372494 4.41888747815256e-012
endloop
endfacet
facet normal 0.5 -0.866025403784439 7.93161908486029e-014
outer loop
vertex 34.9411542731889 62.4000000372494 8.00000000000445
vertex 36.5000000000022 63.3000000372494 4.61628513193091e-012
vertex 36.5000000000009 63.3000000372494 8.00000000000465
endloop
endfacet
facet normal -0.5 -0.866025403784439 -7.93133043670282e-014
outer loop
vertex 38.0588457268141 62.4000000372494 4.81368278570926e-012
vertex 36.5000000000009 63.3000000372494 8.00000000000465
vertex 36.5000000000022 63.3000000372494 4.61628513193091e-012
endloop
endfacet
facet normal -0.5 -0.866025403784439 -7.93133043670282e-014
outer loop
vertex 36.5000000000009 63.3000000372494 8.00000000000465
vertex 38.0588457268141 62.4000000372494 4.81368278570926e-012
vertex 38.0588457268129 62.4000000372494 8.00000000000484
endloop
endfacet
facet normal -1.0 0.0 -1.58623114643319e-013
outer loop
vertex 38.0588457268129 62.4000000372494 8.00000000000484
vertex 38.0588457268141 60.6000000372494 4.81368278570926e-012
vertex 38.0588457268129 60.6000000372494 8.00000000000484
endloop
endfacet
facet normal -1.0 0.0 -1.58623114643319e-013
outer loop
vertex 38.0588457268141 60.6000000372494 4.81368278570926e-012
vertex 38.0588457268129 62.4000000372494 8.00000000000484
vertex 38.0588457268141 62.4000000372494 4.81368278570926e-012
endloop
endfacet
facet normal -0.5 0.866025403784439 -7.93133043670282e-014
outer loop
vertex 36.5000000000009 59.7000000372494 8.00000000000465
vertex 38.0588457268141 60.6000000372494 4.81368278570926e-012
vertex 36.5000000000022 59.7000000372494 4.61628513193091e-012
endloop
endfacet
facet normal -0.5 0.866025403784439 -7.93133043670282e-014
outer loop
vertex 38.0588457268141 60.6000000372494 4.81368278570926e-012
vertex 36.5000000000009 59.7000000372494 8.00000000000465
vertex 38.0588457268129 60.6000000372494 8.00000000000484
endloop
endfacet
facet normal 0.5 0.866025403784439 7.93161908486029e-014
outer loop
vertex 34.9411542731889 60.6000000372494 8.00000000000445
vertex 36.5000000000022 59.7000000372494 4.61628513193091e-012
vertex 34.9411542731902 60.6000000372494 4.41888747815256e-012
endloop
endfacet
facet normal 0.5 0.866025403784439 7.93161908486029e-014
outer loop
vertex 36.5000000000022 59.7000000372494 4.61628513193091e-012
vertex 34.9411542731889 60.6000000372494 8.00000000000445
vertex 36.5000000000009 59.7000000372494 8.00000000000465
endloop
endfacet
facet normal 1.0 -0.0 1.58623114643319e-013
outer loop
vertex 34.9411542731902 62.4000000372494 4.41888747815256e-012
vertex 34.9411542731889 60.6000000372494 8.00000000000445
vertex 34.9411542731902 60.6000000372494 4.41888747815256e-012
endloop
endfacet
facet normal 1.0 -0.0 1.58623114643319e-013
outer loop
vertex 34.9411542731889 60.6000000372494 8.00000000000445
vertex 34.9411542731902 62.4000000372494 4.41888747815256e-012
vertex 34.9411542731889 62.4000000372494 8.00000000000445
endloop
endfacet
facet normal -0.5 0.866025403784439 -7.96659327854033e-014
outer loop
vertex 36.5000000000009 28.7000000372494 8.00000000000464
vertex 38.0588457268142 29.6000000372494 4.81368278570926e-012
vertex 36.5000000000022 28.7000000372494 4.61628513193091e-012
endloop
endfacet
facet normal -0.5 0.866025403784439 -7.96659327854033e-014
outer loop
vertex 38.0588457268142 29.6000000372494 4.81368278570926e-012
vertex 36.5000000000009 28.7000000372494 8.00000000000464
vertex 38.0588457268129 29.6000000372494 8.00000000000484
endloop
endfacet
facet normal 0.5 0.866025403784439 7.96659327854033e-014
outer loop
vertex 34.9411542731889 29.6000000372494 8.00000000000445
vertex 36.5000000000022 28.7000000372494 4.61628513193091e-012
vertex 34.9411542731902 29.6000000372494 4.41888747815256e-012
endloop
endfacet
facet normal 0.5 0.866025403784439 7.96659327854033e-014
outer loop
vertex 36.5000000000022 28.7000000372494 4.61628513193091e-012
vertex 34.9411542731889 29.6000000372494 8.00000000000445
vertex 36.5000000000009 28.7000000372494 8.00000000000464
endloop
endfacet
facet normal 1.0 -0.0 1.59328106263956e-013
outer loop
vertex 34.9411542731902 31.4000000372494 4.41888747815256e-012
vertex 34.9411542731889 29.6000000372494 8.00000000000445
vertex 34.9411542731902 29.6000000372494 4.41888747815256e-012
endloop
endfacet
facet normal 1.0 -0.0 1.59328106263956e-013
outer loop
vertex 34.9411542731889 29.6000000372494 8.00000000000445
vertex 34.9411542731902 31.4000000372494 4.41888747815256e-012
vertex 34.9411542731889 31.4000000372494 8.00000000000445
endloop
endfacet
facet normal 0.5 -0.866025403784439 7.96659327854033e-014
outer loop
vertex 36.5000000000022 32.3000000372494 4.61628513193091e-012
vertex 34.9411542731889 31.4000000372494 8.00000000000445
vertex 34.9411542731902 31.4000000372494 4.41888747815256e-012
endloop
endfacet
facet normal 0.5 -0.866025403784439 7.96659327854033e-014
outer loop
vertex 34.9411542731889 31.4000000372494 8.00000000000445
vertex 36.5000000000022 32.3000000372494 4.61628513193091e-012
vertex 36.5000000000009 32.3000000372494 8.00000000000464
endloop
endfacet
facet normal -0.5 -0.866025403784439 -7.96659327854033e-014
outer loop
vertex 38.0588457268142 31.4000000372494 4.81368278570926e-012
vertex 36.5000000000009 32.3000000372494 8.00000000000464
vertex 36.5000000000022 32.3000000372494 4.61628513193091e-012
endloop
endfacet
facet normal -0.5 -0.866025403784439 -7.96659327854033e-014
outer loop
vertex 36.5000000000009 32.3000000372494 8.00000000000464
vertex 38.0588457268142 31.4000000372494 4.81368278570926e-012
vertex 38.0588457268129 31.4000000372494 8.00000000000484
endloop
endfacet
facet normal -1.0 0.0 -1.59328106263956e-013
outer loop
vertex 38.0588457268129 31.4000000372494 8.00000000000484
vertex 38.0588457268142 29.6000000372494 4.81368278570926e-012
vertex 38.0588457268129 29.6000000372494 8.00000000000484
endloop
endfacet
facet normal -1.0 0.0 -1.59328106263956e-013
outer loop
vertex 38.0588457268142 29.6000000372494 4.81368278570926e-012
vertex 38.0588457268129 31.4000000372494 8.00000000000484
vertex 38.0588457268142 31.4000000372494 4.81368278570926e-012
endloop
endfacet
facet normal 1.0 -0.0 1.26522496183649e-013
outer loop
vertex 5.99999999999874 0.0 5.00000000000064
vertex 5.9999999999983 10.9443650813896 8.44436508139023
vertex 5.99999999999684 0.0 20.0000000000007
endloop
endfacet
facet normal 1.0 -0.0 1.26522496183649e-013
outer loop
vertex 5.9999999999983 10.9443650813896 8.44436508139023
vertex 5.99999999999874 0.0 5.00000000000064
vertex 5.99999999999874 18.0 5.00000000000064
endloop
endfacet
facet normal 1.0 -0.0 1.26522496183649e-013
outer loop
vertex 5.99999999999684 0.0 20.0000000000007
vertex 5.9999999999983 10.9443650813896 8.44436508139023
vertex 5.9999999999981 10.3 10.0000000000006
endloop
endfacet
facet normal 1.0 -0.0 1.26522496183649e-013
outer loop
vertex 5.9999999999983 10.9443650813896 8.44436508139023
vertex 5.99999999999874 18.0 5.00000000000064
vertex 5.99999999999838 12.5 7.80000000000064
endloop
endfacet
facet normal 1.0 -0.0 1.26522496183649e-013
outer loop
vertex 5.99999999999838 12.5 7.80000000000064
vertex 5.99999999999874 18.0 5.00000000000064
vertex 5.9999999999983 14.0556349186104 8.44436508139023
endloop
endfacet
facet normal 1.0 -0.0 1.26522496183649e-013
outer loop
vertex 5.9999999999983 14.0556349186104 8.44436508139023
vertex 5.99999999999874 18.0 5.00000000000064
vertex 5.9999999999981 14.7 10.0000000000006
endloop
endfacet
facet normal 1.0 -0.0 1.26522496183649e-013
outer loop
vertex 5.99999999999684 0.0 20.0000000000007
vertex 5.99999999999791 10.9443650813896 11.555634918611
vertex 5.99999999999684 18.0 20.0000000000007
endloop
endfacet
facet normal 1.0 -0.0 1.26522496183649e-013
outer loop
vertex 5.99999999999791 10.9443650813896 11.555634918611
vertex 5.99999999999684 0.0 20.0000000000007
vertex 5.9999999999981 10.3 10.0000000000006
endloop
endfacet
facet normal 1.0 -0.0 1.26522496183649e-013
outer loop
vertex 5.99999999999684 18.0 20.0000000000007
vertex 5.99999999999791 10.9443650813896 11.555634918611
vertex 5.99999999999783 12.5 12.2000000000006
endloop
endfacet
facet normal 1.0 -0.0 1.26522496183649e-013
outer loop
vertex 5.99999999999684 18.0 20.0000000000007
vertex 5.99999999999783 12.5 12.2000000000006
vertex 5.99999999999791 14.0556349186104 11.555634918611
endloop
endfacet
facet normal 1.0 -0.0 1.26522496183649e-013
outer loop
vertex 5.99999999999684 18.0 20.0000000000007
vertex 5.99999999999791 14.0556349186104 11.555634918611
vertex 5.9999999999981 14.7 10.0000000000006
endloop
endfacet
facet normal 1.0 -0.0 1.26522496183649e-013
outer loop
vertex 5.99999999999684 18.0 20.0000000000007
vertex 5.9999999999981 14.7 10.0000000000006
vertex 5.99999999999874 18.0 5.00000000000064
endloop
endfacet
facet normal 0.393919299180085 -0.919145029760522 9.96000597063624e-014
outer loop
vertex 47.9999999241617 18.0 6.06856787044308e-012
vertex 5.99999999999874 0.0 5.00000000000064
vertex 6.0 0.0 6.42952358020921e-013
endloop
endfacet
facet normal 0.393919299180085 -0.919145029760522 9.96000597063624e-014
outer loop
vertex 5.99999999999874 0.0 5.00000000000064
vertex 47.9999999241617 18.0 6.06856787044308e-012
vertex 47.9999999241604 18.0 5.00000000000607
endloop
endfacet
facet normal 0.0 -1.0 0.0
outer loop
vertex 6.0 0.0 6.42952358020921e-013
vertex -3.16118242693619e-012 0.0 20.0
vertex 0.0 0.0 0.0
endloop
endfacet
facet normal 0.0 -1.0 0.0
outer loop
vertex -3.16118242693619e-012 0.0 20.0
vertex 6.0 0.0 6.42952358020921e-013
vertex 5.99999999999874 0.0 5.00000000000064
endloop
endfacet
facet normal 0.0 -1.0 0.0
outer loop
vertex -3.16118242693619e-012 0.0 20.0
vertex 5.99999999999874 0.0 5.00000000000064
vertex 5.99999999999684 0.0 20.0000000000007
endloop
endfacet
facet normal 1.27442695984194e-013 1.99028895995863e-030 -1.0
outer loop
vertex 33.9903810188474 53.5000000372494 3.97615274039254e-012
vertex 34.9411542731902 60.6000000372494 4.41888747815256e-012
vertex 35.9999999620808 46.0000000372494 4.17919032713598e-012
endloop
endfacet
facet normal 1.27442695984194e-013 1.99028895995863e-030 -1.0
outer loop
vertex 34.9411542731902 60.6000000372494 4.41888747815256e-012
vertex 33.9903810188474 53.5000000372494 3.97615274039254e-012
vertex 34.9411542731902 62.4000000372494 4.41888747815256e-012
endloop
endfacet
facet normal 1.27442695984194e-013 1.99028895995863e-030 -1.0
outer loop
vertex 35.9999999620808 46.0000000372494 4.17919032713598e-012
vertex 34.9411542731902 60.6000000372494 4.41888747815256e-012
vertex 36.5000000000022 59.7000000372494 4.61628513193091e-012
endloop
endfacet
facet normal 1.27442695984194e-013 1.99028895995863e-030 -1.0
outer loop
vertex 6.0 92.0000000744988 6.42952358020921e-013
vertex 0.0 0.0 0.0
vertex -2.64371857738865e-015 92.0000000744988 0.0
endloop
endfacet
facet normal 1.27442695984194e-013 1.99028895995863e-030 -1.0
outer loop
vertex 0.0 0.0 0.0
vertex 6.0 92.0000000744988 6.42952358020921e-013
vertex 5.99999996208084 46.0000000372494 1.14490639191445e-012
endloop
endfacet
facet normal 1.27442695984194e-013 1.99028895995863e-030 -1.0
outer loop
vertex 5.99999996208084 46.0000000372494 1.14490639191445e-012
vertex 6.0 92.0000000744988 6.42952358020921e-013
vertex 8.00961890531425 53.5000000372494 1.3423040456928e-012
endloop
endfacet
facet normal 1.27442695984194e-013 1.99028895995863e-030 -1.0
outer loop
vertex 8.00961890531425 53.5000000372494 1.3423040456928e-012
vertex 6.0 92.0000000744988 6.42952358020921e-013
vertex 13.4999999620808 58.990381094016 1.90629734220238e-012
endloop
endfacet
facet normal 1.27442695984194e-013 1.99028895995863e-030 -1.0
outer loop
vertex 13.4999999620808 58.990381094016 1.90629734220238e-012
vertex 6.0 92.0000000744988 6.42952358020921e-013
vertex 47.9999999241617 74.0000000744988 6.06856787044308e-012
endloop
endfacet
facet normal 1.27442695984194e-013 1.99028895995863e-030 -1.0
outer loop
vertex 13.4999999620808 58.990381094016 1.90629734220238e-012
vertex 47.9999999241617 74.0000000744988 6.06856787044308e-012
vertex 20.9999999620808 61.0000000372494 2.66204835952522e-012
endloop
endfacet
facet normal 1.27442695984194e-013 1.99028895995863e-030 -1.0
outer loop
vertex 20.9999999620808 61.0000000372494 2.66204835952522e-012
vertex 47.9999999241617 74.0000000744988 6.06856787044308e-012
vertex 28.4999999620808 58.990381094016 3.42343930981315e-012
endloop
endfacet
facet normal 1.27442695984194e-013 1.99028895995863e-030 -1.0
outer loop
vertex 28.4999999620808 58.990381094016 3.42343930981315e-012
vertex 47.9999999241617 74.0000000744988 6.06856787044308e-012
vertex 34.9411542731902 62.4000000372494 4.41888747815256e-012
endloop
endfacet
facet normal 1.27442695984194e-013 1.99028895995863e-030 -1.0
outer loop
vertex 28.4999999620808 58.990381094016 3.42343930981315e-012
vertex 34.9411542731902 62.4000000372494 4.41888747815256e-012
vertex 33.9903810188474 53.5000000372494 3.97615274039254e-012
endloop
endfacet
facet normal 1.27442695984194e-013 1.99028895995863e-030 -1.0
outer loop
vertex 34.9411542731902 62.4000000372494 4.41888747815256e-012
vertex 47.9999999241617 74.0000000744988 6.06856787044308e-012
vertex 36.5000000000022 63.3000000372494 4.61628513193091e-012
endloop
endfacet
facet normal 1.27442695984194e-013 1.99028895995863e-030 -1.0
outer loop
vertex 36.5000000000022 63.3000000372494 4.61628513193091e-012
vertex 47.9999999241617 74.0000000744988 6.06856787044308e-012
vertex 38.0588457268141 62.4000000372494 4.81368278570926e-012
endloop
endfacet
facet normal 1.27442695984194e-013 1.99028895995863e-030 -1.0
outer loop
vertex 38.0588457268141 62.4000000372494 4.81368278570926e-012
vertex 47.9999999241617 74.0000000744988 6.06856787044308e-012
vertex 38.0588457268141 60.6000000372494 4.81368278570926e-012
endloop
endfacet
facet normal 1.27442695984194e-013 1.99028895995863e-030 -1.0
outer loop
vertex 38.0588457268141 60.6000000372494 4.81368278570926e-012
vertex 47.9999999241617 74.0000000744988 6.06856787044308e-012
vertex 38.0588457268142 31.4000000372494 4.81368278570926e-012
endloop
endfacet
facet normal 1.27442695984194e-013 1.99028895995863e-030 -1.0
outer loop
vertex 38.0588457268142 31.4000000372494 4.81368278570926e-012
vertex 47.9999999241617 74.0000000744988 6.06856787044308e-012
vertex 38.0588457268142 29.6000000372494 4.81368278570926e-012
endloop
endfacet
facet normal 1.27442695984194e-013 1.99028895995863e-030 -1.0
outer loop
vertex 5.99999996208084 46.0000000372494 1.14490639191445e-012
vertex 6.0 0.0 6.42952358020921e-013
vertex 0.0 0.0 0.0
endloop
endfacet
facet normal 1.27442695984194e-013 1.99028895995863e-030 -1.0
outer loop
vertex 6.0 0.0 6.42952358020921e-013
vertex 5.99999996208084 46.0000000372494 1.14490639191445e-012
vertex 8.00961890531426 38.5000000372494 1.3423040456928e-012
endloop
endfacet
facet normal 1.27442695984194e-013 1.99028895995863e-030 -1.0
outer loop
vertex 6.0 0.0 6.42952358020921e-013
vertex 8.00961890531426 38.5000000372494 1.3423040456928e-012
vertex 13.4999999620808 33.0096189804828 1.90629734220238e-012
endloop
endfacet
facet normal 1.27442695984194e-013 1.99028895995863e-030 -1.0
outer loop
vertex 6.0 0.0 6.42952358020921e-013
vertex 13.4999999620808 33.0096189804828 1.90629734220238e-012
vertex 47.9999999241617 18.0 6.06856787044308e-012
endloop
endfacet
facet normal 1.27442695984194e-013 1.99028895995863e-030 -1.0
outer loop
vertex 47.9999999241617 18.0 6.06856787044308e-012
vertex 13.4999999620808 33.0096189804828 1.90629734220238e-012
vertex 20.9999999620808 31.0000000372494 2.66204835952522e-012
endloop
endfacet
facet normal 1.27442695984194e-013 1.99028895995863e-030 -1.0
outer loop
vertex 47.9999999241617 18.0 6.06856787044308e-012
vertex 20.9999999620808 31.0000000372494 2.66204835952522e-012
vertex 28.4999999620808 33.0096189804828 3.42343930981315e-012
endloop
endfacet
facet normal 1.27442695984194e-013 1.99028895995863e-030 -1.0
outer loop
vertex 47.9999999241617 18.0 6.06856787044308e-012
vertex 28.4999999620808 33.0096189804828 3.42343930981315e-012
vertex 34.9411542731902 29.6000000372494 4.41888747815256e-012
endloop
endfacet
facet normal 1.27442695984194e-013 1.99028895995863e-030 -1.0
outer loop
vertex 34.9411542731902 29.6000000372494 4.41888747815256e-012
vertex 28.4999999620808 33.0096189804828 3.42343930981315e-012
vertex 33.9903810188474 38.5000000372494 3.97615274039254e-012
endloop
endfacet
facet normal 1.27442695984194e-013 1.99028895995863e-030 -1.0
outer loop
vertex 34.9411542731902 29.6000000372494 4.41888747815256e-012
vertex 33.9903810188474 38.5000000372494 3.97615274039254e-012
vertex 34.9411542731902 31.4000000372494 4.41888747815256e-012
endloop
endfacet
facet normal 1.27442695984194e-013 1.99028895995863e-030 -1.0
outer loop
vertex 47.9999999241617 18.0 6.06856787044308e-012
vertex 34.9411542731902 29.6000000372494 4.41888747815256e-012
vertex 36.5000000000022 28.7000000372494 4.61628513193091e-012
endloop
endfacet
facet normal 1.27442695984194e-013 1.99028895995863e-030 -1.0
outer loop
vertex 47.9999999241617 18.0 6.06856787044308e-012
vertex 36.5000000000022 28.7000000372494 4.61628513193091e-012
vertex 38.0588457268142 29.6000000372494 4.81368278570926e-012
endloop
endfacet
facet normal 1.27442695984194e-013 1.99028895995863e-030 -1.0
outer loop
vertex 47.9999999241617 18.0 6.06856787044308e-012
vertex 38.0588457268142 29.6000000372494 4.81368278570926e-012
vertex 47.9999999241617 74.0000000744988 6.06856787044308e-012
endloop
endfacet
facet normal 1.27442695984194e-013 1.99028895995863e-030 -1.0
outer loop
vertex 35.9999999620808 46.0000000372494 4.17919032713598e-012
vertex 34.9411542731902 31.4000000372494 4.41888747815256e-012
vertex 33.9903810188474 38.5000000372494 3.97615274039254e-012
endloop
endfacet
facet normal 1.27442695984194e-013 1.99028895995863e-030 -1.0
outer loop
vertex 34.9411542731902 31.4000000372494 4.41888747815256e-012
vertex 35.9999999620808 46.0000000372494 4.17919032713598e-012
vertex 36.5000000000022 32.3000000372494 4.61628513193091e-012
endloop
endfacet
facet normal 1.27442695984194e-013 1.99028895995863e-030 -1.0
outer loop
vertex 36.5000000000022 32.3000000372494 4.61628513193091e-012
vertex 35.9999999620808 46.0000000372494 4.17919032713598e-012
vertex 36.5000000000022 59.7000000372494 4.61628513193091e-012
endloop
endfacet
facet normal 1.27442695984194e-013 1.99028895995863e-030 -1.0
outer loop
vertex 36.5000000000022 32.3000000372494 4.61628513193091e-012
vertex 36.5000000000022 59.7000000372494 4.61628513193091e-012
vertex 38.0588457268141 60.6000000372494 4.81368278570926e-012
endloop
endfacet
facet normal 1.27442695984194e-013 1.99028895995863e-030 -1.0
outer loop
vertex 36.5000000000022 32.3000000372494 4.61628513193091e-012
vertex 38.0588457268141 60.6000000372494 4.81368278570926e-012
vertex 38.0588457268142 31.4000000372494 4.81368278570926e-012
endloop
endfacet
facet normal 0.118212889995456 1.07428262662603e-014 0.992988274169903
outer loop
vertex 47.9999999241592 18.0 15.0000000000061
vertex 5.99999999999684 24.0 20.0000000000006
vertex 5.99999999999684 18.0 20.0000000000007
endloop
endfacet
facet normal 0.118212889995456 1.07428262662603e-014 0.992988274169903
outer loop
vertex 5.99999999999684 24.0 20.0000000000006
vertex 47.9999999241592 18.0 15.0000000000061
vertex 47.9999999241592 24.0 15.000000000006
endloop
endfacet
facet normal -9.72627036382538e-014 0.382683432365088 0.923879532511288
outer loop
vertex 5.9999999999983 10.9443650813896 8.44436508139023
vertex -1.62289071070632e-012 12.5 7.80000000000001
vertex -1.70889968842403e-012 10.9443650813896 8.4443650813896
endloop
endfacet
facet normal -9.72627036382538e-014 0.382683432365088 0.923879532511288
outer loop
vertex -1.62289071070632e-012 12.5 7.80000000000001
vertex 5.9999999999983 10.9443650813896 8.44436508139023
vertex 5.99999999999838 12.5 7.80000000000064
endloop
endfacet
facet normal 4.02892113153951e-014 0.92387953251129 -0.382683432365083
outer loop
vertex -2.10228501273946e-012 10.9443650813896 11.5556349186104
vertex 5.9999999999981 10.3 10.0000000000006
vertex -1.90065740923728e-012 10.3 10.0
endloop
endfacet
facet normal 4.02892113153951e-014 0.92387953251129 -0.382683432365083
outer loop
vertex 5.9999999999981 10.3 10.0000000000006
vertex -2.10228501273946e-012 10.9443650813896 11.5556349186104
vertex 5.99999999999791 10.9443650813896 11.555634918611
endloop
endfacet
facet normal -9.72627036382539e-014 -0.382683432365087 0.923879532511288
outer loop
vertex -1.62289071070632e-012 12.5 7.80000000000001
vertex 5.9999999999983 14.0556349186104 8.44436508139023
vertex -1.70889968842403e-012 14.0556349186104 8.4443650813896
endloop
endfacet
facet normal -9.72627036382539e-014 -0.382683432365087 0.923879532511288
outer loop
vertex 5.9999999999983 14.0556349186104 8.44436508139023
vertex -1.62289071070632e-012 12.5 7.80000000000001
vertex 5.99999999999838 12.5 7.80000000000064
endloop
endfacet
facet normal 4.02892113153951e-014 -0.92387953251129 -0.382683432365083
outer loop
vertex 5.9999999999981 14.7 10.0000000000006
vertex -2.10228501273946e-012 14.0556349186104 11.5556349186104
vertex -1.90065740923728e-012 14.7 10.0
endloop
endfacet
facet normal 4.02892113153951e-014 -0.92387953251129 -0.382683432365083
outer loop
vertex -2.10228501273946e-012 14.0556349186104 11.5556349186104
vertex 5.9999999999981 14.7 10.0000000000006
vertex 5.99999999999791 14.0556349186104 11.555634918611
endloop
endfacet
facet normal -1.06876729688565e-013 9.3998882751597e-017 1.0
outer loop
vertex 5.99999999999684 0.0 20.0000000000007
vertex -3.16082993112587e-012 24.0 20.0
vertex -3.16118242693619e-012 0.0 20.0
endloop
endfacet
facet normal -1.06876729688565e-013 9.3998882751597e-017 1.0
outer loop
vertex -3.16082993112587e-012 24.0 20.0
vertex 5.99999999999684 0.0 20.0000000000007
vertex 5.99999999999684 24.0 20.0000000000006
endloop
endfacet
facet normal -1.06876729688565e-013 9.3998882751597e-017 1.0
outer loop
vertex 5.99999999999684 24.0 20.0000000000006
vertex 5.99999999999684 0.0 20.0000000000007
vertex 5.99999999999684 18.0 20.0000000000007
endloop
endfacet
facet normal -4.02876622898671e-014 0.923879532511289 0.382683432365084
outer loop
vertex -1.90065740923728e-012 10.3 10.0
vertex 5.9999999999983 10.9443650813896 8.44436508139023
vertex -1.70889968842403e-012 10.9443650813896 8.4443650813896
endloop
endfacet
facet normal -4.02876622898671e-014 0.923879532511289 0.382683432365084
outer loop
vertex 5.9999999999983 10.9443650813896 8.44436508139023
vertex -1.90065740923728e-012 10.3 10.0
vertex 5.9999999999981 10.3 10.0000000000006
endloop
endfacet
facet normal -4.02876622898671e-014 -0.923879532511289 0.382683432365084
outer loop
vertex 5.9999999999983 14.0556349186104 8.44436508139023
vertex -1.90065740923728e-012 14.7 10.0
vertex -1.70889968842403e-012 14.0556349186104 8.4443650813896
endloop
endfacet
facet normal -4.02876622898671e-014 -0.923879532511289 0.382683432365084
outer loop
vertex -1.90065740923728e-012 14.7 10.0
vertex 5.9999999999983 14.0556349186104 8.44436508139023
vertex 5.9999999999981 14.7 10.0000000000006
endloop
endfacet
facet normal 9.72593247946763e-014 -0.382683432365087 -0.923879532511288
outer loop
vertex -2.10228501273946e-012 14.0556349186104 11.5556349186104
vertex 5.99999999999783 12.5 12.2000000000006
vertex -2.18406404073335e-012 12.5 12.2
endloop
endfacet
facet normal 9.72593247946763e-014 -0.382683432365087 -0.923879532511288
outer loop
vertex 5.99999999999783 12.5 12.2000000000006
vertex -2.10228501273946e-012 14.0556349186104 11.5556349186104
vertex 5.99999999999791 14.0556349186104 11.555634918611
endloop
endfacet
facet normal 9.72593247946763e-014 0.382683432365088 -0.923879532511288
outer loop
vertex 5.99999999999783 12.5 12.2000000000006
vertex -2.10228501273946e-012 10.9443650813896 11.5556349186104
vertex -2.18406404073335e-012 12.5 12.2
endloop
endfacet
facet normal 9.72593247946763e-014 0.382683432365088 -0.923879532511288
outer loop
vertex -2.10228501273946e-012 10.9443650813896 11.5556349186104
vertex 5.99999999999783 12.5 12.2000000000006
vertex 5.99999999999791 10.9443650813896 11.555634918611
endloop
endfacet
facet normal 0.0 -1.0 0.0
outer loop
vertex 47.9999999241604 18.0 5.00000000000607
vertex 5.99999999999684 18.0 20.0000000000007
vertex 5.99999999999874 18.0 5.00000000000064
endloop
endfacet
facet normal 0.0 -1.0 0.0
outer loop
vertex 5.99999999999684 18.0 20.0000000000007
vertex 47.9999999241604 18.0 5.00000000000607
vertex 47.9999999241592 18.0 15.0000000000061
endloop
endfacet
endsolid Z Motor Bracket - Belt 
