solid 2020 Wire Clip
facet normal 0.0 0.0 -1.0
outer loop
vertex 3.64621666193443e-012 22.9142135623734 0.0
vertex 1.58578643762662 6.87150955473284e-016 0.0
vertex -8.45989944764369e-015 1.5857864376272 0.0
endloop
endfacet
facet normal 0.0 0.0 -1.0
outer loop
vertex 1.58578643762662 6.87150955473284e-016 0.0
vertex 3.64621666193443e-012 22.9142135623734 0.0
vertex 1.58578643763083 24.5 0.0
endloop
endfacet
facet normal 0.0 0.0 -1.0
outer loop
vertex 1.58578643762662 6.87150955473284e-016 0.0
vertex 1.58578643763083 24.5 0.0
vertex 1.6674838822925 1.66748388229248 0.0
endloop
endfacet
facet normal 0.0 0.0 -1.0
outer loop
vertex 1.58578643762662 6.87150955473284e-016 0.0
vertex 1.6674838822925 1.66748388229248 0.0
vertex 12.9999999999998 0.499999999998177 0.0
endloop
endfacet
facet normal 0.0 0.0 -1.0
outer loop
vertex 12.9999999999998 0.499999999998177 0.0
vertex 1.6674838822925 1.66748388229248 0.0
vertex 2.20000000000006 1.99999999999989 0.0
endloop
endfacet
facet normal 0.0 0.0 -1.0
outer loop
vertex 12.9999999999998 0.499999999998177 0.0
vertex 2.20000000000006 1.99999999999989 0.0
vertex 10.0000000000001 1.99999999999871 0.0
endloop
endfacet
facet normal 0.0 0.0 -1.0
outer loop
vertex 12.9999999999998 0.499999999998177 0.0
vertex 10.0000000000001 1.99999999999871 0.0
vertex 10.4879659487932 2.80943503944052 0.0
endloop
endfacet
facet normal 0.0 0.0 -1.0
outer loop
vertex 12.9999999999998 0.499999999998177 0.0
vertex 10.4879659487932 2.80943503944052 0.0
vertex 11.3378378378381 3.22297297297145 0.0
endloop
endfacet
facet normal 0.0 0.0 -1.0
outer loop
vertex 12.9999999999998 0.499999999998177 0.0
vertex 11.3378378378381 3.22297297297145 0.0
vertex 12.2758911167284 3.10742256742939 0.0
endloop
endfacet
facet normal 0.0 0.0 -1.0
outer loop
vertex 12.9999999999998 0.499999999998177 0.0
vertex 12.2758911167284 3.10742256742939 0.0
vertex 13.0000000000001 2.49999999999819 0.0
endloop
endfacet
facet normal 0.0 0.0 -1.0
outer loop
vertex 1.58578643763083 24.5 0.0
vertex 1.66748388229612 22.8325161177075 0.0
vertex 1.6674838822925 1.66748388229248 0.0
endloop
endfacet
facet normal 0.0 0.0 -1.0
outer loop
vertex 1.66748388229612 22.8325161177075 0.0
vertex 1.58578643763083 24.5 0.0
vertex 13.0000000000038 23.9999999999982 0.0
endloop
endfacet
facet normal 0.0 0.0 -1.0
outer loop
vertex 1.66748388229612 22.8325161177075 0.0
vertex 13.0000000000038 23.9999999999982 0.0
vertex 2.20000000000357 22.4999999999999 0.0
endloop
endfacet
facet normal 0.0 0.0 -1.0
outer loop
vertex 2.20000000000357 22.4999999999999 0.0
vertex 13.0000000000038 23.9999999999982 0.0
vertex 10.0000000000036 22.4999999999987 0.0
endloop
endfacet
facet normal 0.0 0.0 -1.0
outer loop
vertex 10.0000000000036 22.4999999999987 0.0
vertex 13.0000000000038 23.9999999999982 0.0
vertex 10.4879659487964 21.6905649605567 0.0
endloop
endfacet
facet normal 0.0 0.0 -1.0
outer loop
vertex 10.4879659487964 21.6905649605567 0.0
vertex 13.0000000000038 23.9999999999982 0.0
vertex 11.3378378378412 21.2770270270255 0.0
endloop
endfacet
facet normal 0.0 0.0 -1.0
outer loop
vertex 11.3378378378412 21.2770270270255 0.0
vertex 13.0000000000038 23.9999999999982 0.0
vertex 12.2758911167315 21.3925774325672 0.0
endloop
endfacet
facet normal 0.0 0.0 -1.0
outer loop
vertex 12.2758911167315 21.3925774325672 0.0
vertex 13.0000000000038 23.9999999999982 0.0
vertex 13.0000000000035 21.9999999999981 0.0
endloop
endfacet
facet normal 0.0 0.0 -1.0
outer loop
vertex 1.66748388229612 22.8325161177075 0.0
vertex 2.0000000000001 2.19999999999994 0.0
vertex 1.6674838822925 1.66748388229248 0.0
endloop
endfacet
facet normal 0.0 0.0 -1.0
outer loop
vertex 2.0000000000001 2.19999999999994 0.0
vertex 1.66748388229612 22.8325161177075 0.0
vertex 2.00000000000354 22.2999999999999 0.0
endloop
endfacet
facet normal -0.0 -0.0 1.0
outer loop
vertex 1.58578643762662 6.87150955473284e-016 4.0
vertex 3.64621666193443e-012 22.9142135623734 4.0
vertex -8.45989944764369e-015 1.5857864376272 4.0
endloop
endfacet
facet normal -0.0 -0.0 1.0
outer loop
vertex 3.64621666193443e-012 22.9142135623734 4.0
vertex 1.58578643762662 6.87150955473284e-016 4.0
vertex 1.58578643763083 24.5 4.0
endloop
endfacet
facet normal -0.0 -0.0 1.0
outer loop
vertex 1.58578643763083 24.5 4.0
vertex 1.58578643762662 6.87150955473284e-016 4.0
vertex 1.6674838822925 1.66748388229248 4.0
endloop
endfacet
facet normal -0.0 -0.0 1.0
outer loop
vertex 1.6674838822925 1.66748388229248 4.0
vertex 1.58578643762662 6.87150955473284e-016 4.0
vertex 12.9999999999998 0.499999999998177 4.0
endloop
endfacet
facet normal -0.0 -0.0 1.0
outer loop
vertex 1.6674838822925 1.66748388229248 4.0
vertex 12.9999999999998 0.499999999998177 4.0
vertex 2.20000000000006 1.99999999999989 4.0
endloop
endfacet
facet normal -0.0 -0.0 1.0
outer loop
vertex 2.20000000000006 1.99999999999989 4.0
vertex 12.9999999999998 0.499999999998177 4.0
vertex 10.0000000000001 1.99999999999871 4.0
endloop
endfacet
facet normal -0.0 -0.0 1.0
outer loop
vertex 10.0000000000001 1.99999999999871 4.0
vertex 12.9999999999998 0.499999999998177 4.0
vertex 10.4879659487932 2.80943503944052 4.0
endloop
endfacet
facet normal -0.0 -0.0 1.0
outer loop
vertex 10.4879659487932 2.80943503944052 4.0
vertex 12.9999999999998 0.499999999998177 4.0
vertex 11.3378378378381 3.22297297297145 4.0
endloop
endfacet
facet normal -0.0 -0.0 1.0
outer loop
vertex 11.3378378378381 3.22297297297145 4.0
vertex 12.9999999999998 0.499999999998177 4.0
vertex 12.2758911167284 3.10742256742939 4.0
endloop
endfacet
facet normal -0.0 -0.0 1.0
outer loop
vertex 12.2758911167284 3.10742256742939 4.0
vertex 12.9999999999998 0.499999999998177 4.0
vertex 13.0000000000001 2.49999999999819 4.0
endloop
endfacet
facet normal -0.0 -0.0 1.0
outer loop
vertex 2.0000000000001 2.19999999999994 4.0
vertex 1.66748388229612 22.8325161177075 4.0
vertex 1.6674838822925 1.66748388229248 4.0
endloop
endfacet
facet normal -0.0 -0.0 1.0
outer loop
vertex 1.66748388229612 22.8325161177075 4.0
vertex 2.0000000000001 2.19999999999994 4.0
vertex 2.00000000000354 22.2999999999999 4.0
endloop
endfacet
facet normal -0.0 -0.0 1.0
outer loop
vertex 1.58578643763083 24.5 4.0
vertex 1.66748388229612 22.8325161177075 4.0
vertex 13.0000000000038 23.9999999999982 4.0
endloop
endfacet
facet normal -0.0 -0.0 1.0
outer loop
vertex 1.66748388229612 22.8325161177075 4.0
vertex 1.58578643763083 24.5 4.0
vertex 1.6674838822925 1.66748388229248 4.0
endloop
endfacet
facet normal -0.0 -0.0 1.0
outer loop
vertex 13.0000000000038 23.9999999999982 4.0
vertex 1.66748388229612 22.8325161177075 4.0
vertex 2.20000000000357 22.4999999999999 4.0
endloop
endfacet
facet normal -0.0 -0.0 1.0
outer loop
vertex 13.0000000000038 23.9999999999982 4.0
vertex 2.20000000000357 22.4999999999999 4.0
vertex 10.0000000000036 22.4999999999987 4.0
endloop
endfacet
facet normal -0.0 -0.0 1.0
outer loop
vertex 13.0000000000038 23.9999999999982 4.0
vertex 10.0000000000036 22.4999999999987 4.0
vertex 10.4879659487964 21.6905649605567 4.0
endloop
endfacet
facet normal -0.0 -0.0 1.0
outer loop
vertex 13.0000000000038 23.9999999999982 4.0
vertex 10.4879659487964 21.6905649605567 4.0
vertex 11.3378378378412 21.2770270270255 4.0
endloop
endfacet
facet normal -0.0 -0.0 1.0
outer loop
vertex 13.0000000000038 23.9999999999982 4.0
vertex 11.3378378378412 21.2770270270255 4.0
vertex 12.2758911167315 21.3925774325672 4.0
endloop
endfacet
facet normal -0.0 -0.0 1.0
outer loop
vertex 13.0000000000038 23.9999999999982 4.0
vertex 12.2758911167315 21.3925774325672 4.0
vertex 13.0000000000035 21.9999999999981 4.0
endloop
endfacet
facet normal -0.707106781186675 -0.70710678118642 0.0
outer loop
vertex -8.45989944764369e-015 1.5857864376272 4.0
vertex 1.58578643762662 6.87150955473284e-016 0.0
vertex 1.58578643762662 6.87150955473284e-016 4.0
endloop
endfacet
facet normal -0.707106781186675 -0.70710678118642 0.0
outer loop
vertex 1.58578643762662 6.87150955473284e-016 0.0
vertex -8.45989944764369e-015 1.5857864376272 4.0
vertex -8.45989944764369e-015 1.5857864376272 0.0
endloop
endfacet
facet normal -1.0 1.71352371180797e-013 0.0
outer loop
vertex 3.64621666193443e-012 22.9142135623734 4.0
vertex -8.45989944764369e-015 1.5857864376272 0.0
vertex -8.45989944764369e-015 1.5857864376272 4.0
endloop
endfacet
facet normal -1.0 1.71352371180797e-013 0.0
outer loop
vertex -8.45989944764369e-015 1.5857864376272 0.0
vertex 3.64621666193443e-012 22.9142135623734 4.0
vertex 3.64621666193443e-012 22.9142135623734 0.0
endloop
endfacet
facet normal -0.707106781186423 0.707106781186672 -0.0
outer loop
vertex 3.64621666193443e-012 22.9142135623734 4.0
vertex 1.58578643763083 24.5 0.0
vertex 3.64621666193443e-012 22.9142135623734 0.0
endloop
endfacet
facet normal -0.707106781186423 0.707106781186672 -0.0
outer loop
vertex 1.58578643763083 24.5 0.0
vertex 3.64621666193443e-012 22.9142135623734 4.0
vertex 1.58578643763083 24.5 4.0
endloop
endfacet
facet normal 0.0437630649136619 0.999041938133411 -0.0
outer loop
vertex 1.58578643763083 24.5 4.0
vertex 13.0000000000038 23.9999999999982 0.0
vertex 1.58578643763083 24.5 0.0
endloop
endfacet
facet normal 0.0437630649136619 0.999041938133411 -0.0
outer loop
vertex 13.0000000000038 23.9999999999982 0.0
vertex 1.58578643763083 24.5 4.0
vertex 13.0000000000038 23.9999999999982 4.0
endloop
endfacet
facet normal 1.0 -1.74837921917969e-013 -0.0
outer loop
vertex 13.0000000000038 23.9999999999982 0.0
vertex 13.0000000000035 21.9999999999981 4.0
vertex 13.0000000000035 21.9999999999981 0.0
endloop
endfacet
facet normal 1.0 -1.74837921917969e-013 -0.0
outer loop
vertex 13.0000000000035 21.9999999999981 4.0
vertex 13.0000000000038 23.9999999999982 0.0
vertex 13.0000000000038 23.9999999999982 4.0
endloop
endfacet
facet normal 0.642677750458682 -0.766136612534193 0.0
outer loop
vertex 13.0000000000035 21.9999999999981 4.0
vertex 12.2758911167315 21.3925774325672 0.0
vertex 13.0000000000035 21.9999999999981 0.0
endloop
endfacet
facet normal 0.642677750458682 -0.766136612534193 0.0
outer loop
vertex 12.2758911167315 21.3925774325672 0.0
vertex 13.0000000000035 21.9999999999981 4.0
vertex 12.2758911167315 21.3925774325672 4.0
endloop
endfacet
facet normal 0.122257022837063 -0.99249847373536 0.0
outer loop
vertex 12.2758911167315 21.3925774325672 4.0
vertex 11.3378378378412 21.2770270270255 0.0
vertex 12.2758911167315 21.3925774325672 0.0
endloop
endfacet
facet normal 0.122257022837063 -0.99249847373536 0.0
outer loop
vertex 11.3378378378412 21.2770270270255 0.0
vertex 12.2758911167315 21.3925774325672 4.0
vertex 11.3378378378412 21.2770270270255 4.0
endloop
endfacet
facet normal -0.437539932003597 -0.899198981261816 0.0
outer loop
vertex 11.3378378378412 21.2770270270255 4.0
vertex 10.4879659487964 21.6905649605567 0.0
vertex 11.3378378378412 21.2770270270255 0.0
endloop
endfacet
facet normal -0.437539932003597 -0.899198981261816 0.0
outer loop
vertex 10.4879659487964 21.6905649605567 0.0
vertex 11.3378378378412 21.2770270270255 4.0
vertex 10.4879659487964 21.6905649605567 4.0
endloop
endfacet
facet normal -0.856415151796512 -0.516287795491389 0.0
outer loop
vertex 10.0000000000036 22.4999999999987 4.0
vertex 10.4879659487964 21.6905649605567 0.0
vertex 10.4879659487964 21.6905649605567 4.0
endloop
endfacet
facet normal -0.856415151796512 -0.516287795491389 0.0
outer loop
vertex 10.4879659487964 21.6905649605567 0.0
vertex 10.0000000000036 22.4999999999987 4.0
vertex 10.0000000000036 22.4999999999987 0.0
endloop
endfacet
facet normal -1.54736622375705e-013 -1.0 0.0
outer loop
vertex 10.0000000000036 22.4999999999987 4.0
vertex 2.20000000000357 22.4999999999999 0.0
vertex 10.0000000000036 22.4999999999987 0.0
endloop
endfacet
facet normal -1.54736622375705e-013 -1.0 0.0
outer loop
vertex 2.20000000000357 22.4999999999999 0.0
vertex 10.0000000000036 22.4999999999987 4.0
vertex 2.20000000000357 22.4999999999999 4.0
endloop
endfacet
facet normal -0.529647874137939 -0.848217619140962 0.0
outer loop
vertex 2.20000000000357 22.4999999999999 4.0
vertex 1.66748388229612 22.8325161177075 0.0
vertex 2.20000000000357 22.4999999999999 0.0
endloop
endfacet
facet normal -0.529647874137939 -0.848217619140962 0.0
outer loop
vertex 1.66748388229612 22.8325161177075 0.0
vertex 2.20000000000357 22.4999999999999 4.0
vertex 1.66748388229612 22.8325161177075 4.0
endloop
endfacet
facet normal 0.848217619141148 0.529647874137641 -0.0
outer loop
vertex 1.66748388229612 22.8325161177075 0.0
vertex 2.00000000000354 22.2999999999999 4.0
vertex 2.00000000000354 22.2999999999999 0.0
endloop
endfacet
facet normal 0.848217619141148 0.529647874137641 -0.0
outer loop
vertex 2.00000000000354 22.2999999999999 4.0
vertex 1.66748388229612 22.8325161177075 0.0
vertex 1.66748388229612 22.8325161177075 4.0
endloop
endfacet
facet normal 1.0 -1.71162144711863e-013 -0.0
outer loop
vertex 2.00000000000354 22.2999999999999 0.0
vertex 2.0000000000001 2.19999999999994 4.0
vertex 2.0000000000001 2.19999999999994 0.0
endloop
endfacet
facet normal 1.0 -1.71162144711863e-013 -0.0
outer loop
vertex 2.0000000000001 2.19999999999994 4.0
vertex 2.00000000000354 22.2999999999999 0.0
vertex 2.00000000000354 22.2999999999999 4.0
endloop
endfacet
facet normal 0.848217619140961 -0.529647874137941 0.0
outer loop
vertex 2.0000000000001 2.19999999999994 0.0
vertex 1.6674838822925 1.66748388229248 4.0
vertex 1.6674838822925 1.66748388229248 0.0
endloop
endfacet
facet normal 0.848217619140961 -0.529647874137941 0.0
outer loop
vertex 1.6674838822925 1.66748388229248 4.0
vertex 2.0000000000001 2.19999999999994 0.0
vertex 2.0000000000001 2.19999999999994 4.0
endloop
endfacet
facet normal -0.529647874137632 0.848217619141154 0.0
outer loop
vertex 1.6674838822925 1.66748388229248 4.0
vertex 2.20000000000006 1.99999999999989 0.0
vertex 1.6674838822925 1.66748388229248 0.0
endloop
endfacet
facet normal -0.529647874137632 0.848217619141154 0.0
outer loop
vertex 2.20000000000006 1.99999999999989 0.0
vertex 1.6674838822925 1.66748388229248 4.0
vertex 2.20000000000006 1.99999999999989 4.0
endloop
endfacet
facet normal 1.5157319843695e-013 1.0 -0.0
outer loop
vertex 2.20000000000006 1.99999999999989 4.0
vertex 10.0000000000001 1.99999999999871 0.0
vertex 2.20000000000006 1.99999999999989 0.0
endloop
endfacet
facet normal 1.5157319843695e-013 1.0 -0.0
outer loop
vertex 10.0000000000001 1.99999999999871 0.0
vertex 2.20000000000006 1.99999999999989 4.0
vertex 10.0000000000001 1.99999999999871 4.0
endloop
endfacet
facet normal -0.856415151796331 0.516287795491688 0.0
outer loop
vertex 10.4879659487932 2.80943503944052 4.0
vertex 10.0000000000001 1.99999999999871 0.0
vertex 10.0000000000001 1.99999999999871 4.0
endloop
endfacet
facet normal -0.856415151796331 0.516287795491688 0.0
outer loop
vertex 10.0000000000001 1.99999999999871 0.0
vertex 10.4879659487932 2.80943503944052 4.0
vertex 10.4879659487932 2.80943503944052 0.0
endloop
endfacet
facet normal -0.437539932003275 0.899198981261973 -0.0
outer loop
vertex 10.4879659487932 2.80943503944052 4.0
vertex 11.3378378378381 3.22297297297145 0.0
vertex 10.4879659487932 2.80943503944052 0.0
endloop
endfacet
facet normal -0.437539932003275 0.899198981261973 -0.0
outer loop
vertex 11.3378378378381 3.22297297297145 0.0
vertex 10.4879659487932 2.80943503944052 4.0
vertex 11.3378378378381 3.22297297297145 4.0
endloop
endfacet
facet normal 0.122257022837404 0.992498473735318 -0.0
outer loop
vertex 11.3378378378381 3.22297297297145 4.0
vertex 12.2758911167284 3.10742256742939 0.0
vertex 11.3378378378381 3.22297297297145 0.0
endloop
endfacet
facet normal 0.122257022837404 0.992498473735318 -0.0
outer loop
vertex 12.2758911167284 3.10742256742939 0.0
vertex 11.3378378378381 3.22297297297145 4.0
vertex 12.2758911167284 3.10742256742939 4.0
endloop
endfacet
facet normal 0.64267775045895 0.766136612533968 -0.0
outer loop
vertex 12.2758911167284 3.10742256742939 4.0
vertex 13.0000000000001 2.49999999999819 0.0
vertex 12.2758911167284 3.10742256742939 0.0
endloop
endfacet
facet normal 0.64267775045895 0.766136612533968 -0.0
outer loop
vertex 13.0000000000001 2.49999999999819 0.0
vertex 12.2758911167284 3.10742256742939 4.0
vertex 13.0000000000001 2.49999999999819 4.0
endloop
endfacet
facet normal 1.0 -1.76247905159243e-013 -0.0
outer loop
vertex 13.0000000000001 2.49999999999819 0.0
vertex 12.9999999999998 0.499999999998177 4.0
vertex 12.9999999999998 0.499999999998177 0.0
endloop
endfacet
facet normal 1.0 -1.76247905159243e-013 -0.0
outer loop
vertex 12.9999999999998 0.499999999998177 4.0
vertex 13.0000000000001 2.49999999999819 0.0
vertex 13.0000000000001 2.49999999999819 4.0
endloop
endfacet
facet normal 0.0437630649133424 -0.999041938133425 0.0
outer loop
vertex 12.9999999999998 0.499999999998177 4.0
vertex 1.58578643762662 6.87150955473284e-016 0.0
vertex 12.9999999999998 0.499999999998177 0.0
endloop
endfacet
facet normal 0.0437630649133424 -0.999041938133425 0.0
outer loop
vertex 1.58578643762662 6.87150955473284e-016 0.0
vertex 12.9999999999998 0.499999999998177 4.0
vertex 1.58578643762662 6.87150955473284e-016 4.0
endloop
endfacet
facet normal 0.0 0.0 -1.0
outer loop
vertex 18.6061449189646 32.2500000000017 4.22994972382185e-015
vertex 7.19193135659197 29.7499999999999 4.22994972382185e-015
vertex 7.19193135659162 31.7499999999999 4.22994972382185e-015
endloop
endfacet
facet normal 0.0 0.0 -1.0
outer loop
vertex 7.19193135659197 29.7499999999999 4.22994972382185e-015
vertex 18.6061449189646 32.2500000000017 4.22994972382185e-015
vertex 10.1919313565919 30.2500000000004 4.22994972382185e-015
endloop
endfacet
facet normal 0.0 0.0 -1.0
outer loop
vertex 7.19193135659197 29.7499999999999 4.22994972382185e-015
vertex 10.1919313565919 30.2500000000004 4.22994972382185e-015
vertex 7.91604023986392 29.1425774325689 4.22994972382185e-015
endloop
endfacet
facet normal 0.0 0.0 -1.0
outer loop
vertex 7.91604023986392 29.1425774325689 4.22994972382185e-015
vertex 10.1919313565919 30.2500000000004 4.22994972382185e-015
vertex 8.85409351875425 29.0270270270272 4.22994972382185e-015
endloop
endfacet
facet normal 0.0 0.0 -1.0
outer loop
vertex 8.85409351875425 29.0270270270272 4.22994972382185e-015
vertex 10.1919313565919 30.2500000000004 4.22994972382185e-015
vertex 9.703965407799 29.4405649605584 4.22994972382185e-015
endloop
endfacet
facet normal 0.0 0.0 -1.0
outer loop
vertex 10.1919313565919 30.2500000000004 4.22994972382185e-015
vertex 18.6061449189646 32.2500000000017 4.22994972382185e-015
vertex 17.9919313565919 30.2500000000016 4.22994972382185e-015
endloop
endfacet
facet normal 0.0 0.0 -1.0
outer loop
vertex 17.9919313565919 30.2500000000016 4.22994972382185e-015
vertex 18.6061449189646 32.2500000000017 4.22994972382185e-015
vertex 18.5244474742993 30.5825161177092 4.22994972382185e-015
endloop
endfacet
facet normal 0.0 0.0 -1.0
outer loop
vertex 18.5244474742993 30.5825161177092 4.22994972382185e-015
vertex 18.6061449189646 32.2500000000017 4.22994972382185e-015
vertex 18.524447474303 9.41748388229422 4.22994972382185e-015
endloop
endfacet
facet normal 0.0 0.0 -1.0
outer loop
vertex 7.91604023986704 10.8574225674311 4.22994972382185e-015
vertex 7.19193135659566 8.24999999999992 4.22994972382185e-015
vertex 7.1919313565953 10.2499999999999 4.22994972382185e-015
endloop
endfacet
facet normal 0.0 0.0 -1.0
outer loop
vertex 7.19193135659566 8.24999999999992 4.22994972382185e-015
vertex 7.91604023986704 10.8574225674311 4.22994972382185e-015
vertex 10.1919313565954 9.75000000000045 4.22994972382185e-015
endloop
endfacet
facet normal 0.0 0.0 -1.0
outer loop
vertex 7.19193135659566 8.24999999999992 4.22994972382185e-015
vertex 10.1919313565954 9.75000000000045 4.22994972382185e-015
vertex 18.6061449189688 7.75000000000174 4.22994972382185e-015
endloop
endfacet
facet normal 0.0 0.0 -1.0
outer loop
vertex 10.1919313565954 9.75000000000045 4.22994972382185e-015
vertex 7.91604023986704 10.8574225674311 4.22994972382185e-015
vertex 8.85409351875733 10.9729729729732 4.22994972382185e-015
endloop
endfacet
facet normal 0.0 0.0 -1.0
outer loop
vertex 10.1919313565954 9.75000000000045 4.22994972382185e-015
vertex 8.85409351875733 10.9729729729732 4.22994972382185e-015
vertex 9.70396540780222 10.5594350394422 4.22994972382185e-015
endloop
endfacet
facet normal 0.0 0.0 -1.0
outer loop
vertex 18.6061449189688 7.75000000000174 4.22994972382185e-015
vertex 10.1919313565954 9.75000000000045 4.22994972382185e-015
vertex 17.9919313565954 9.75000000000163 4.22994972382185e-015
endloop
endfacet
facet normal 0.0 0.0 -1.0
outer loop
vertex 18.6061449189688 7.75000000000174 4.22994972382185e-015
vertex 17.9919313565954 9.75000000000163 4.22994972382185e-015
vertex 18.524447474303 9.41748388229422 4.22994972382185e-015
endloop
endfacet
facet normal 0.0 0.0 -1.0
outer loop
vertex 18.6061449189688 7.75000000000174 4.22994972382185e-015
vertex 18.524447474303 9.41748388229422 4.22994972382185e-015
vertex 18.6061449189646 32.2500000000017 4.22994972382185e-015
endloop
endfacet
facet normal 0.0 0.0 -1.0
outer loop
vertex 18.6061449189688 7.75000000000174 4.22994972382185e-015
vertex 18.6061449189646 32.2500000000017 4.22994972382185e-015
vertex 20.1919313565918 30.6642135623751 4.22994972382185e-015
endloop
endfacet
facet normal 0.0 0.0 -1.0
outer loop
vertex 18.6061449189688 7.75000000000174 4.22994972382185e-015
vertex 20.1919313565918 30.6642135623751 4.22994972382185e-015
vertex 20.1919313565955 9.33578643762894 4.22994972382185e-015
endloop
endfacet
facet normal 0.0 0.0 -1.0
outer loop
vertex 18.5244474742993 30.5825161177092 4.22994972382185e-015
vertex 18.1919313565954 9.95000000000167 4.22994972382185e-015
vertex 18.1919313565919 30.0500000000016 4.22994972382185e-015
endloop
endfacet
facet normal 0.0 0.0 -1.0
outer loop
vertex 18.1919313565954 9.95000000000167 4.22994972382185e-015
vertex 18.5244474742993 30.5825161177092 4.22994972382185e-015
vertex 18.524447474303 9.41748388229422 4.22994972382185e-015
endloop
endfacet
facet normal -0.0 -0.0 1.0
outer loop
vertex 18.1919313565954 9.95000000000167 4.0
vertex 18.5244474742993 30.5825161177092 4.0
vertex 18.1919313565919 30.0500000000016 4.0
endloop
endfacet
facet normal -0.0 -0.0 1.0
outer loop
vertex 18.5244474742993 30.5825161177092 4.0
vertex 18.1919313565954 9.95000000000167 4.0
vertex 18.524447474303 9.41748388229422 4.0
endloop
endfacet
facet normal -0.0 -0.0 1.0
outer loop
vertex 7.19193135659566 8.24999999999992 4.0
vertex 7.91604023986704 10.8574225674311 4.0
vertex 7.1919313565953 10.2499999999999 4.0
endloop
endfacet
facet normal -0.0 -0.0 1.0
outer loop
vertex 7.91604023986704 10.8574225674311 4.0
vertex 7.19193135659566 8.24999999999992 4.0
vertex 10.1919313565954 9.75000000000045 4.0
endloop
endfacet
facet normal -0.0 -0.0 1.0
outer loop
vertex 10.1919313565954 9.75000000000045 4.0
vertex 7.19193135659566 8.24999999999992 4.0
vertex 18.6061449189688 7.75000000000174 4.0
endloop
endfacet
facet normal -0.0 -0.0 1.0
outer loop
vertex 7.91604023986704 10.8574225674311 4.0
vertex 10.1919313565954 9.75000000000045 4.0
vertex 8.85409351875733 10.9729729729732 4.0
endloop
endfacet
facet normal -0.0 -0.0 1.0
outer loop
vertex 8.85409351875733 10.9729729729732 4.0
vertex 10.1919313565954 9.75000000000045 4.0
vertex 9.70396540780222 10.5594350394422 4.0
endloop
endfacet
facet normal -0.0 -0.0 1.0
outer loop
vertex 10.1919313565954 9.75000000000045 4.0
vertex 18.6061449189688 7.75000000000174 4.0
vertex 17.9919313565954 9.75000000000163 4.0
endloop
endfacet
facet normal -0.0 -0.0 1.0
outer loop
vertex 17.9919313565954 9.75000000000163 4.0
vertex 18.6061449189688 7.75000000000174 4.0
vertex 18.524447474303 9.41748388229422 4.0
endloop
endfacet
facet normal -0.0 -0.0 1.0
outer loop
vertex 18.524447474303 9.41748388229422 4.0
vertex 18.6061449189688 7.75000000000174 4.0
vertex 18.6061449189646 32.2500000000017 4.0
endloop
endfacet
facet normal -0.0 -0.0 1.0
outer loop
vertex 18.6061449189646 32.2500000000017 4.0
vertex 18.6061449189688 7.75000000000174 4.0
vertex 20.1919313565918 30.6642135623751 4.0
endloop
endfacet
facet normal -0.0 -0.0 1.0
outer loop
vertex 20.1919313565918 30.6642135623751 4.0
vertex 18.6061449189688 7.75000000000174 4.0
vertex 20.1919313565955 9.33578643762894 4.0
endloop
endfacet
facet normal -0.0 -0.0 1.0
outer loop
vertex 7.19193135659197 29.7499999999999 4.0
vertex 18.6061449189646 32.2500000000017 4.0
vertex 7.19193135659162 31.7499999999999 4.0
endloop
endfacet
facet normal -0.0 -0.0 1.0
outer loop
vertex 18.6061449189646 32.2500000000017 4.0
vertex 7.19193135659197 29.7499999999999 4.0
vertex 10.1919313565919 30.2500000000004 4.0
endloop
endfacet
facet normal -0.0 -0.0 1.0
outer loop
vertex 10.1919313565919 30.2500000000004 4.0
vertex 7.19193135659197 29.7499999999999 4.0
vertex 7.91604023986392 29.1425774325689 4.0
endloop
endfacet
facet normal -0.0 -0.0 1.0
outer loop
vertex 10.1919313565919 30.2500000000004 4.0
vertex 7.91604023986392 29.1425774325689 4.0
vertex 8.85409351875425 29.0270270270272 4.0
endloop
endfacet
facet normal -0.0 -0.0 1.0
outer loop
vertex 10.1919313565919 30.2500000000004 4.0
vertex 8.85409351875425 29.0270270270272 4.0
vertex 9.703965407799 29.4405649605584 4.0
endloop
endfacet
facet normal -0.0 -0.0 1.0
outer loop
vertex 18.6061449189646 32.2500000000017 4.0
vertex 10.1919313565919 30.2500000000004 4.0
vertex 17.9919313565919 30.2500000000016 4.0
endloop
endfacet
facet normal -0.0 -0.0 1.0
outer loop
vertex 18.6061449189646 32.2500000000017 4.0
vertex 17.9919313565919 30.2500000000016 4.0
vertex 18.5244474742993 30.5825161177092 4.0
endloop
endfacet
facet normal -0.0 -0.0 1.0
outer loop
vertex 18.6061449189646 32.2500000000017 4.0
vertex 18.5244474742993 30.5825161177092 4.0
vertex 18.524447474303 9.41748388229422 4.0
endloop
endfacet
facet normal 0.707106781186674 -0.707106781186421 -0.0
outer loop
vertex 20.1919313565955 9.33578643762894 4.22994972382185e-015
vertex 18.6061449189688 7.75000000000174 4.0
vertex 18.6061449189688 7.75000000000174 4.22994972382185e-015
endloop
endfacet
facet normal 0.707106781186674 -0.707106781186421 -0.0
outer loop
vertex 18.6061449189688 7.75000000000174 4.0
vertex 20.1919313565955 9.33578643762894 4.22994972382185e-015
vertex 20.1919313565955 9.33578643762894 4.0
endloop
endfacet
facet normal 1.0 1.71352371180797e-013 -0.0
outer loop
vertex 20.1919313565918 30.6642135623751 4.22994972382185e-015
vertex 20.1919313565955 9.33578643762894 4.0
vertex 20.1919313565955 9.33578643762894 4.22994972382185e-015
endloop
endfacet
facet normal 1.0 1.71352371180797e-013 -0.0
outer loop
vertex 20.1919313565955 9.33578643762894 4.0
vertex 20.1919313565918 30.6642135623751 4.22994972382185e-015
vertex 20.1919313565918 30.6642135623751 4.0
endloop
endfacet
facet normal 0.70710678118642 0.707106781186675 -0.0
outer loop
vertex 18.6061449189646 32.2500000000017 4.0
vertex 20.1919313565918 30.6642135623751 4.22994972382185e-015
vertex 18.6061449189646 32.2500000000017 4.22994972382185e-015
endloop
endfacet
facet normal 0.70710678118642 0.707106781186675 -0.0
outer loop
vertex 20.1919313565918 30.6642135623751 4.22994972382185e-015
vertex 18.6061449189646 32.2500000000017 4.0
vertex 20.1919313565918 30.6642135623751 4.0
endloop
endfacet
facet normal -0.0437630649136619 0.999041938133411 -0.0
outer loop
vertex 7.19193135659162 31.7499999999999 4.0
vertex 18.6061449189646 32.2500000000017 4.22994972382185e-015
vertex 7.19193135659162 31.7499999999999 4.22994972382185e-015
endloop
endfacet
facet normal -0.0437630649136619 0.999041938133411 -0.0
outer loop
vertex 18.6061449189646 32.2500000000017 4.22994972382185e-015
vertex 7.19193135659162 31.7499999999999 4.0
vertex 18.6061449189646 32.2500000000017 4.0
endloop
endfacet
facet normal -1.0 -1.74837921917969e-013 0.0
outer loop
vertex 7.19193135659162 31.7499999999999 4.0
vertex 7.19193135659197 29.7499999999999 4.22994972382185e-015
vertex 7.19193135659197 29.7499999999999 4.0
endloop
endfacet
facet normal -1.0 -1.74837921917969e-013 0.0
outer loop
vertex 7.19193135659197 29.7499999999999 4.22994972382185e-015
vertex 7.19193135659162 31.7499999999999 4.0
vertex 7.19193135659162 31.7499999999999 4.22994972382185e-015
endloop
endfacet
facet normal -0.642677750458682 -0.766136612534193 0.0
outer loop
vertex 7.91604023986392 29.1425774325689 4.0
vertex 7.19193135659197 29.7499999999999 4.22994972382185e-015
vertex 7.91604023986392 29.1425774325689 4.22994972382185e-015
endloop
endfacet
facet normal -0.642677750458682 -0.766136612534193 0.0
outer loop
vertex 7.19193135659197 29.7499999999999 4.22994972382185e-015
vertex 7.91604023986392 29.1425774325689 4.0
vertex 7.19193135659197 29.7499999999999 4.0
endloop
endfacet
facet normal -0.122257022837069 -0.992498473735359 0.0
outer loop
vertex 8.85409351875425 29.0270270270272 4.0
vertex 7.91604023986392 29.1425774325689 4.22994972382185e-015
vertex 8.85409351875425 29.0270270270272 4.22994972382185e-015
endloop
endfacet
facet normal -0.122257022837069 -0.992498473735359 0.0
outer loop
vertex 7.91604023986392 29.1425774325689 4.22994972382185e-015
vertex 8.85409351875425 29.0270270270272 4.0
vertex 7.91604023986392 29.1425774325689 4.0
endloop
endfacet
facet normal 0.437539932003604 -0.899198981261813 0.0
outer loop
vertex 9.703965407799 29.4405649605584 4.0
vertex 8.85409351875425 29.0270270270272 4.22994972382185e-015
vertex 9.703965407799 29.4405649605584 4.22994972382185e-015
endloop
endfacet
facet normal 0.437539932003604 -0.899198981261813 0.0
outer loop
vertex 8.85409351875425 29.0270270270272 4.22994972382185e-015
vertex 9.703965407799 29.4405649605584 4.0
vertex 8.85409351875425 29.0270270270272 4.0
endloop
endfacet
facet normal 0.856415151796514 -0.516287795491385 -0.0
outer loop
vertex 10.1919313565919 30.2500000000004 4.22994972382185e-015
vertex 9.703965407799 29.4405649605584 4.0
vertex 9.703965407799 29.4405649605584 4.22994972382185e-015
endloop
endfacet
facet normal 0.856415151796514 -0.516287795491385 -0.0
outer loop
vertex 9.703965407799 29.4405649605584 4.0
vertex 10.1919313565919 30.2500000000004 4.22994972382185e-015
vertex 10.1919313565919 30.2500000000004 4.0
endloop
endfacet
facet normal 1.54736622375704e-013 -1.0 0.0
outer loop
vertex 17.9919313565919 30.2500000000016 4.0
vertex 10.1919313565919 30.2500000000004 4.22994972382185e-015
vertex 17.9919313565919 30.2500000000016 4.22994972382185e-015
endloop
endfacet
facet normal 1.54736622375704e-013 -1.0 0.0
outer loop
vertex 10.1919313565919 30.2500000000004 4.22994972382185e-015
vertex 17.9919313565919 30.2500000000016 4.0
vertex 10.1919313565919 30.2500000000004 4.0
endloop
endfacet
facet normal 0.529647874137945 -0.848217619140958 0.0
outer loop
vertex 18.5244474742993 30.5825161177092 4.0
vertex 17.9919313565919 30.2500000000016 4.22994972382185e-015
vertex 18.5244474742993 30.5825161177092 4.22994972382185e-015
endloop
endfacet
facet normal 0.529647874137945 -0.848217619140958 0.0
outer loop
vertex 17.9919313565919 30.2500000000016 4.22994972382185e-015
vertex 18.5244474742993 30.5825161177092 4.0
vertex 17.9919313565919 30.2500000000016 4.0
endloop
endfacet
facet normal -0.848217619141154 0.529647874137631 0.0
outer loop
vertex 18.5244474742993 30.5825161177092 4.0
vertex 18.1919313565919 30.0500000000016 4.22994972382185e-015
vertex 18.1919313565919 30.0500000000016 4.0
endloop
endfacet
facet normal -0.848217619141154 0.529647874137631 0.0
outer loop
vertex 18.1919313565919 30.0500000000016 4.22994972382185e-015
vertex 18.5244474742993 30.5825161177092 4.0
vertex 18.5244474742993 30.5825161177092 4.22994972382185e-015
endloop
endfacet
facet normal -1.0 -1.71162144711863e-013 0.0
outer loop
vertex 18.1919313565919 30.0500000000016 4.0
vertex 18.1919313565954 9.95000000000167 4.22994972382185e-015
vertex 18.1919313565954 9.95000000000167 4.0
endloop
endfacet
facet normal -1.0 -1.71162144711863e-013 0.0
outer loop
vertex 18.1919313565954 9.95000000000167 4.22994972382185e-015
vertex 18.1919313565919 30.0500000000016 4.0
vertex 18.1919313565919 30.0500000000016 4.22994972382185e-015
endloop
endfacet
facet normal -0.848217619140969 -0.529647874137928 0.0
outer loop
vertex 18.1919313565954 9.95000000000167 4.0
vertex 18.524447474303 9.41748388229422 4.22994972382185e-015
vertex 18.524447474303 9.41748388229422 4.0
endloop
endfacet
facet normal -0.848217619140969 -0.529647874137928 0.0
outer loop
vertex 18.524447474303 9.41748388229422 4.22994972382185e-015
vertex 18.1919313565954 9.95000000000167 4.0
vertex 18.1919313565954 9.95000000000167 4.22994972382185e-015
endloop
endfacet
facet normal 0.529647874137646 0.848217619141145 -0.0
outer loop
vertex 17.9919313565954 9.75000000000163 4.0
vertex 18.524447474303 9.41748388229422 4.22994972382185e-015
vertex 17.9919313565954 9.75000000000163 4.22994972382185e-015
endloop
endfacet
facet normal 0.529647874137646 0.848217619141145 -0.0
outer loop
vertex 18.524447474303 9.41748388229422 4.22994972382185e-015
vertex 17.9919313565954 9.75000000000163 4.0
vertex 18.524447474303 9.41748388229422 4.0
endloop
endfacet
facet normal -1.51844349060271e-013 1.0 -0.0
outer loop
vertex 10.1919313565954 9.75000000000045 4.0
vertex 17.9919313565954 9.75000000000163 4.22994972382185e-015
vertex 10.1919313565954 9.75000000000045 4.22994972382185e-015
endloop
endfacet
facet normal -1.51844349060271e-013 1.0 -0.0
outer loop
vertex 17.9919313565954 9.75000000000163 4.22994972382185e-015
vertex 10.1919313565954 9.75000000000045 4.0
vertex 17.9919313565954 9.75000000000163 4.0
endloop
endfacet
facet normal 0.85641515179633 0.51628779549169 -0.0
outer loop
vertex 9.70396540780222 10.5594350394422 4.22994972382185e-015
vertex 10.1919313565954 9.75000000000045 4.0
vertex 10.1919313565954 9.75000000000045 4.22994972382185e-015
endloop
endfacet
facet normal 0.85641515179633 0.51628779549169 -0.0
outer loop
vertex 10.1919313565954 9.75000000000045 4.0
vertex 9.70396540780222 10.5594350394422 4.22994972382185e-015
vertex 9.70396540780222 10.5594350394422 4.0
endloop
endfacet
facet normal 0.437539932003273 0.899198981261974 -0.0
outer loop
vertex 8.85409351875733 10.9729729729732 4.0
vertex 9.70396540780222 10.5594350394422 4.22994972382185e-015
vertex 8.85409351875733 10.9729729729732 4.22994972382185e-015
endloop
endfacet
facet normal 0.437539932003273 0.899198981261974 -0.0
outer loop
vertex 9.70396540780222 10.5594350394422 4.22994972382185e-015
vertex 8.85409351875733 10.9729729729732 4.0
vertex 9.70396540780222 10.5594350394422 4.0
endloop
endfacet
facet normal -0.122257022837409 0.992498473735317 -0.0
outer loop
vertex 7.91604023986704 10.8574225674311 4.0
vertex 8.85409351875733 10.9729729729732 4.22994972382185e-015
vertex 7.91604023986704 10.8574225674311 4.22994972382185e-015
endloop
endfacet
facet normal -0.122257022837409 0.992498473735317 -0.0
outer loop
vertex 8.85409351875733 10.9729729729732 4.22994972382185e-015
vertex 7.91604023986704 10.8574225674311 4.0
vertex 8.85409351875733 10.9729729729732 4.0
endloop
endfacet
facet normal -0.642677750458944 0.766136612533973 -0.0
outer loop
vertex 7.1919313565953 10.2499999999999 4.0
vertex 7.91604023986704 10.8574225674311 4.22994972382185e-015
vertex 7.1919313565953 10.2499999999999 4.22994972382185e-015
endloop
endfacet
facet normal -0.642677750458944 0.766136612533973 -0.0
outer loop
vertex 7.91604023986704 10.8574225674311 4.22994972382185e-015
vertex 7.1919313565953 10.2499999999999 4.0
vertex 7.91604023986704 10.8574225674311 4.0
endloop
endfacet
facet normal -1.0 -1.77657888400517e-013 0.0
outer loop
vertex 7.1919313565953 10.2499999999999 4.0
vertex 7.19193135659566 8.24999999999992 4.22994972382185e-015
vertex 7.19193135659566 8.24999999999992 4.0
endloop
endfacet
facet normal -1.0 -1.77657888400517e-013 0.0
outer loop
vertex 7.19193135659566 8.24999999999992 4.22994972382185e-015
vertex 7.1919313565953 10.2499999999999 4.0
vertex 7.1919313565953 10.2499999999999 4.22994972382185e-015
endloop
endfacet
facet normal -0.0437630649133424 -0.999041938133425 0.0
outer loop
vertex 18.6061449189688 7.75000000000174 4.0
vertex 7.19193135659566 8.24999999999992 4.22994972382185e-015
vertex 18.6061449189688 7.75000000000174 4.22994972382185e-015
endloop
endfacet
facet normal -0.0437630649133424 -0.999041938133425 0.0
outer loop
vertex 7.19193135659566 8.24999999999992 4.22994972382185e-015
vertex 18.6061449189688 7.75000000000174 4.0
vertex 7.19193135659566 8.24999999999992 4.0
endloop
endfacet
endsolid 2020 Wire Clip
