solid Y Idler 2
facet normal 0.959365501571271 0.28216632399155 3.18226233136337e-013
outer loop
vertex 2.5 24.9999999999932 6.00000000002595
vertex 7.49999999999999 7.99999999997744 20.0000000000068
vertex 7.49999999999999 7.99999999999323 6.00000000000677
endloop
endfacet
facet normal -7.91947116922401e-029 -1.12798659301916e-012 1.0
outer loop
vertex 2.5 24.9999999999932 6.00000000002595
vertex 5.0 29.9999999999932 6.00000000003159
vertex 0.0 24.9999999999932 6.00000000002595
endloop
endfacet
facet normal -7.91947116922401e-029 -1.12798659301916e-012 1.0
outer loop
vertex 5.0 29.9999999999932 6.00000000003159
vertex 2.5 24.9999999999932 6.00000000002595
vertex 7.49999999999999 7.99999999999323 6.00000000000677
endloop
endfacet
facet normal -7.91947116922401e-029 -1.12798659301916e-012 1.0
outer loop
vertex 5.0 29.9999999999932 6.00000000003159
vertex 7.49999999999999 7.99999999999323 6.00000000000677
vertex 7.8 22.9999999999932 6.00000000002369
endloop
endfacet
facet normal -7.91947116922401e-029 -1.12798659301916e-012 1.0
outer loop
vertex 5.0 29.9999999999932 6.00000000003159
vertex 7.8 22.9999999999932 6.00000000002369
vertex 8.4443650813896 24.5556349186036 6.00000000002544
endloop
endfacet
facet normal -7.91947116922401e-029 -1.12798659301916e-012 1.0
outer loop
vertex 5.0 29.9999999999932 6.00000000003159
vertex 8.4443650813896 24.5556349186036 6.00000000002544
vertex 15.0 29.9999999999932 6.00000000003159
endloop
endfacet
facet normal -7.91947116922401e-029 -1.12798659301916e-012 1.0
outer loop
vertex 15.0 29.9999999999932 6.00000000003159
vertex 8.4443650813896 24.5556349186036 6.00000000002544
vertex 10.0 25.1999999999932 6.00000000002617
endloop
endfacet
facet normal -7.91947116922401e-029 -1.12798659301916e-012 1.0
outer loop
vertex 15.0 29.9999999999932 6.00000000003159
vertex 10.0 25.1999999999932 6.00000000002617
vertex 11.5556349186104 24.5556349186036 6.00000000002544
endloop
endfacet
facet normal -7.91947116922401e-029 -1.12798659301916e-012 1.0
outer loop
vertex 15.0 29.9999999999932 6.00000000003159
vertex 11.5556349186104 24.5556349186036 6.00000000002544
vertex 12.2 22.9999999999932 6.00000000002369
endloop
endfacet
facet normal -7.91947116922401e-029 -1.12798659301916e-012 1.0
outer loop
vertex 7.49999999999999 7.99999999999323 6.00000000000677
vertex 8.4443650813896 21.4443650813828 6.00000000002194
vertex 7.8 22.9999999999932 6.00000000002369
endloop
endfacet
facet normal -7.91947116922401e-029 -1.12798659301916e-012 1.0
outer loop
vertex 8.4443650813896 21.4443650813828 6.00000000002194
vertex 7.49999999999999 7.99999999999323 6.00000000000677
vertex 22.5 7.99999999999323 6.00000000000677
endloop
endfacet
facet normal -7.91947116922401e-029 -1.12798659301916e-012 1.0
outer loop
vertex 8.4443650813896 21.4443650813828 6.00000000002194
vertex 22.5 7.99999999999323 6.00000000000677
vertex 10.0 20.7999999999932 6.00000000002121
endloop
endfacet
facet normal -7.91947116922401e-029 -1.12798659301916e-012 1.0
outer loop
vertex 10.0 20.7999999999932 6.00000000002121
vertex 22.5 7.99999999999323 6.00000000000677
vertex 11.5556349186104 21.4443650813828 6.00000000002194
endloop
endfacet
facet normal -7.91947116922401e-029 -1.12798659301916e-012 1.0
outer loop
vertex 11.5556349186104 21.4443650813828 6.00000000002194
vertex 22.5 7.99999999999323 6.00000000000677
vertex 12.2 22.9999999999932 6.00000000002369
endloop
endfacet
facet normal -7.91947116922401e-029 -1.12798659301916e-012 1.0
outer loop
vertex 12.2 22.9999999999932 6.00000000002369
vertex 22.5 7.99999999999323 6.00000000000677
vertex 15.0 29.9999999999932 6.00000000003159
endloop
endfacet
facet normal -7.91947116922401e-029 -1.12798659301916e-012 1.0
outer loop
vertex 15.0 29.9999999999932 6.00000000003159
vertex 22.5 7.99999999999323 6.00000000000677
vertex 17.5 24.9999999999932 6.00000000002595
endloop
endfacet
facet normal -7.91947116922401e-029 -1.12798659301916e-012 1.0
outer loop
vertex 20.0 24.9999999999932 6.00000000002595
vertex 15.0 29.9999999999932 6.00000000003159
vertex 17.5 24.9999999999932 6.00000000002595
endloop
endfacet
facet normal -1.0 0.0 0.0
outer loop
vertex 12.5 2.0 11.5
vertex 12.5 0.0 2.974504830524e-015
vertex 12.5 0.0 11.5
endloop
endfacet
facet normal -1.0 0.0 0.0
outer loop
vertex 12.5 0.0 2.974504830524e-015
vertex 12.5 2.0 11.5
vertex 12.5 2.0 2.974504830524e-015
endloop
endfacet
facet normal 1.0 0.0 0.0
outer loop
vertex 25.0 2.0 2.8199664825479e-015
vertex 25.0 7.99999999997744 20.0000000000068
vertex 25.0 1.99999999997744 20.0
endloop
endfacet
facet normal 1.0 0.0 0.0
outer loop
vertex 25.0 7.99999999997744 20.0000000000068
vertex 25.0 2.0 2.8199664825479e-015
vertex 25.0 8.0 6.77355949108005e-012
endloop
endfacet
facet normal 0.382683432365092 0.923879532511286 1.04212110963146e-012
outer loop
vertex 8.4443650813896 21.4443650813896 2.19703588655307e-011
vertex 10.0 20.7999999999932 6.00000000002121
vertex 10.0 20.8 2.12428075130333e-011
endloop
endfacet
facet normal 0.382683432365092 0.923879532511286 1.04212110963146e-012
outer loop
vertex 10.0 20.7999999999932 6.00000000002121
vertex 8.4443650813896 21.4443650813896 2.19703588655307e-011
vertex 8.4443650813896 21.4443650813828 6.00000000002194
endloop
endfacet
facet normal -0.382683432365091 0.923879532511286 1.04213126429506e-012
outer loop
vertex 10.0 20.7999999999932 6.00000000002121
vertex 11.5556349186104 21.4443650813896 2.19703588655307e-011
vertex 10.0 20.8 2.12428075130333e-011
endloop
endfacet
facet normal -0.382683432365091 0.923879532511286 1.04213126429506e-012
outer loop
vertex 11.5556349186104 21.4443650813896 2.19703588655307e-011
vertex 10.0 20.7999999999932 6.00000000002121
vertex 11.5556349186104 21.4443650813828 6.00000000002194
endloop
endfacet
facet normal -0.923879532511287 0.38268343236509 4.31666434336699e-013
outer loop
vertex 12.2 22.9999999999932 6.00000000002369
vertex 11.5556349186104 21.4443650813896 2.19703588655307e-011
vertex 11.5556349186104 21.4443650813828 6.00000000002194
endloop
endfacet
facet normal -0.923879532511287 0.38268343236509 4.31666434336699e-013
outer loop
vertex 11.5556349186104 21.4443650813896 2.19703588655307e-011
vertex 12.2 22.9999999999932 6.00000000002369
vertex 12.2 23.0 2.37243780176755e-011
endloop
endfacet
facet normal -0.923879532511287 -0.382683432365089 -4.31666434336697e-013
outer loop
vertex 11.5556349186104 24.5556349186036 6.00000000002544
vertex 12.2 23.0 2.37243780176755e-011
vertex 12.2 22.9999999999932 6.00000000002369
endloop
endfacet
facet normal -0.923879532511287 -0.382683432365089 -4.31666434336697e-013
outer loop
vertex 12.2 23.0 2.37243780176755e-011
vertex 11.5556349186104 24.5556349186036 6.00000000002544
vertex 11.5556349186104 24.5556349186104 2.54783971698203e-011
endloop
endfacet
facet normal -0.382683432365091 -0.923879532511286 -1.04213126429506e-012
outer loop
vertex 11.5556349186104 24.5556349186036 6.00000000002544
vertex 10.0 25.2 2.62059485223176e-011
vertex 11.5556349186104 24.5556349186104 2.54783971698203e-011
endloop
endfacet
facet normal -0.382683432365091 -0.923879532511286 -1.04213126429506e-012
outer loop
vertex 10.0 25.2 2.62059485223176e-011
vertex 11.5556349186104 24.5556349186036 6.00000000002544
vertex 10.0 25.1999999999932 6.00000000002617
endloop
endfacet
facet normal 0.382683432365092 -0.923879532511286 -1.04212110963146e-012
outer loop
vertex 10.0 25.2 2.62059485223176e-011
vertex 8.4443650813896 24.5556349186036 6.00000000002544
vertex 8.4443650813896 24.5556349186104 2.54783971698203e-011
endloop
endfacet
facet normal 0.382683432365092 -0.923879532511286 -1.04212110963146e-012
outer loop
vertex 8.4443650813896 24.5556349186036 6.00000000002544
vertex 10.0 25.2 2.62059485223176e-011
vertex 10.0 25.1999999999932 6.00000000002617
endloop
endfacet
facet normal 0.923879532511287 -0.38268343236509 -4.31662844120954e-013
outer loop
vertex 7.8 23.0 2.37243780176755e-011
vertex 8.4443650813896 24.5556349186036 6.00000000002544
vertex 7.8 22.9999999999932 6.00000000002369
endloop
endfacet
facet normal 0.923879532511287 -0.38268343236509 -4.31662844120954e-013
outer loop
vertex 8.4443650813896 24.5556349186036 6.00000000002544
vertex 7.8 23.0 2.37243780176755e-011
vertex 8.4443650813896 24.5556349186104 2.54783971698203e-011
endloop
endfacet
facet normal 0.923879532511286 0.382683432365091 4.31662844120955e-013
outer loop
vertex 8.4443650813896 21.4443650813896 2.19703588655307e-011
vertex 7.8 22.9999999999932 6.00000000002369
vertex 8.4443650813896 21.4443650813828 6.00000000002194
endloop
endfacet
facet normal 0.923879532511286 0.382683432365091 4.31662844120955e-013
outer loop
vertex 7.8 22.9999999999932 6.00000000002369
vertex 8.4443650813896 21.4443650813896 2.19703588655307e-011
vertex 7.8 23.0 2.37243780176755e-011
endloop
endfacet
facet normal 0.959365501571271 0.28216632399155 3.18326983157088e-013
outer loop
vertex 25.0 8.0 6.77355949108005e-012
vertex 20.0 24.9999999999932 6.00000000002595
vertex 25.0 7.99999999997744 20.0000000000068
endloop
endfacet
facet normal 0.959365501571271 0.28216632399155 3.18326983157088e-013
outer loop
vertex 20.0 24.9999999999932 6.00000000002595
vertex 25.0 8.0 6.77355949108005e-012
vertex 20.0 25.0 2.59493315724058e-011
endloop
endfacet
facet normal 0.0 0.0 1.0
outer loop
vertex 17.5 0.0 11.5
vertex 12.5 2.0 11.5
vertex 12.5 0.0 11.5
endloop
endfacet
facet normal 0.0 0.0 1.0
outer loop
vertex 12.5 2.0 11.5
vertex 17.5 0.0 11.5
vertex 17.5 2.0 11.5
endloop
endfacet
facet normal 0.0 0.635707252860229 0.771930235617767
outer loop
vertex 22.5 7.99999999997744 20.0000000000068
vertex 20.0 24.9999999999932 6.00000000002595
vertex 17.5 24.9999999999932 6.00000000002595
endloop
endfacet
facet normal 0.0 0.635707252860229 0.771930235617767
outer loop
vertex 20.0 24.9999999999932 6.00000000002595
vertex 22.5 7.99999999997744 20.0000000000068
vertex 25.0 7.99999999997744 20.0000000000068
endloop
endfacet
facet normal -0.959365501571271 -0.28216632399155 -3.1818954576798e-013
outer loop
vertex 17.5 24.9999999999932 6.00000000002595
vertex 22.5 7.99999999999323 6.00000000000677
vertex 22.5 7.99999999997744 20.0000000000068
endloop
endfacet
facet normal -0.959365501571271 -0.28216632399155 -3.18261013210316e-013
outer loop
vertex 0.0 24.9999999999932 6.00000000002595
vertex 4.99999999999999 8.0 6.77355949108005e-012
vertex 4.99999999999999 7.99999999997744 20.0000000000068
endloop
endfacet
facet normal -0.959365501571271 -0.28216632399155 -3.18261013210316e-013
outer loop
vertex 4.99999999999999 8.0 6.77355949108005e-012
vertex 0.0 24.9999999999932 6.00000000002595
vertex 0.0 25.0 2.59521515388883e-011
endloop
endfacet
facet normal -1.89363664266828e-028 -1.0 -9.62552177103308e-013
outer loop
vertex 25.0 2.0 2.8199664825479e-015
vertex 17.5 2.0 11.5
vertex 17.5 2.0 2.65235171889242e-015
endloop
endfacet
facet normal -1.89363664266828e-028 -1.0 -9.62552177103308e-013
outer loop
vertex 17.5 2.0 11.5
vertex 25.0 2.0 2.8199664825479e-015
vertex 25.0 1.99999999997744 20.0
endloop
endfacet
facet normal -1.89363664266828e-028 -1.0 -9.62552177103308e-013
outer loop
vertex 17.5 2.0 11.5
vertex 25.0 1.99999999997744 20.0
vertex 16.5556349186104 1.99999999998596 12.4443650813896
endloop
endfacet
facet normal -1.89363664266828e-028 -1.0 -9.62552177103308e-013
outer loop
vertex 17.5 2.0 11.5
vertex 16.5556349186104 1.99999999998596 12.4443650813896
vertex 15.0 1.99999999998669 11.8
endloop
endfacet
facet normal -1.89363664266828e-028 -1.0 -9.62552177103308e-013
outer loop
vertex 17.5 2.0 11.5
vertex 15.0 1.99999999998669 11.8
vertex 12.5 2.0 11.5
endloop
endfacet
facet normal -1.89363664266828e-028 -1.0 -9.62552177103308e-013
outer loop
vertex 16.5556349186104 1.99999999998596 12.4443650813896
vertex 25.0 1.99999999997744 20.0
vertex 17.2 1.99999999998421 14.0
endloop
endfacet
facet normal -1.89363664266828e-028 -1.0 -9.62552177103308e-013
outer loop
vertex 17.2 1.99999999998421 14.0
vertex 25.0 1.99999999997744 20.0
vertex 16.5556349186104 1.99999999998245 15.5556349186104
endloop
endfacet
facet normal -1.89363664266828e-028 -1.0 -9.62552177103308e-013
outer loop
vertex 16.5556349186104 1.99999999998245 15.5556349186104
vertex 25.0 1.99999999997744 20.0
vertex 15.0 1.99999999998173 16.2
endloop
endfacet
facet normal -1.89363664266828e-028 -1.0 -9.62552177103308e-013
outer loop
vertex 12.5 2.0 2.974504830524e-015
vertex 4.99999999999999 1.99999999997744 20.0
vertex 4.99999999999999 2.0 2.8199664825479e-015
endloop
endfacet
facet normal -1.89363664266828e-028 -1.0 -9.62552177103308e-013
outer loop
vertex 4.99999999999999 1.99999999997744 20.0
vertex 12.5 2.0 2.974504830524e-015
vertex 12.5 2.0 11.5
endloop
endfacet
facet normal -1.89363664266828e-028 -1.0 -9.62552177103308e-013
outer loop
vertex 4.99999999999999 1.99999999997744 20.0
vertex 12.5 2.0 11.5
vertex 13.4443650813896 1.99999999998596 12.4443650813896
endloop
endfacet
facet normal -1.89363664266828e-028 -1.0 -9.62552177103308e-013
outer loop
vertex 13.4443650813896 1.99999999998596 12.4443650813896
vertex 12.5 2.0 11.5
vertex 15.0 1.99999999998669 11.8
endloop
endfacet
facet normal -1.89363664266828e-028 -1.0 -9.62552177103308e-013
outer loop
vertex 4.99999999999999 1.99999999997744 20.0
vertex 13.4443650813896 1.99999999998596 12.4443650813896
vertex 12.8 1.99999999998421 14.0
endloop
endfacet
facet normal -1.89363664266828e-028 -1.0 -9.62552177103308e-013
outer loop
vertex 4.99999999999999 1.99999999997744 20.0
vertex 12.8 1.99999999998421 14.0
vertex 13.4443650813896 1.99999999998245 15.5556349186104
endloop
endfacet
facet normal -1.89363664266828e-028 -1.0 -9.62552177103308e-013
outer loop
vertex 4.99999999999999 1.99999999997744 20.0
vertex 13.4443650813896 1.99999999998245 15.5556349186104
vertex 15.0 1.99999999998173 16.2
endloop
endfacet
facet normal -1.89363664266828e-028 -1.0 -9.62552177103308e-013
outer loop
vertex 4.99999999999999 1.99999999997744 20.0
vertex 15.0 1.99999999998173 16.2
vertex 25.0 1.99999999997744 20.0
endloop
endfacet
facet normal 0.0 -1.0 0.0
outer loop
vertex 17.5 0.0 11.5
vertex 12.5 0.0 2.974504830524e-015
vertex 17.5 0.0 2.65235171889242e-015
endloop
endfacet
facet normal 0.0 -1.0 0.0
outer loop
vertex 12.5 0.0 2.974504830524e-015
vertex 17.5 0.0 11.5
vertex 12.5 0.0 11.5
endloop
endfacet
facet normal -1.0 0.0 0.0
outer loop
vertex 4.99999999999999 7.99999999997744 20.0000000000068
vertex 4.99999999999999 2.0 2.8199664825479e-015
vertex 4.99999999999999 1.99999999997744 20.0
endloop
endfacet
facet normal -1.0 0.0 0.0
outer loop
vertex 4.99999999999999 2.0 2.8199664825479e-015
vertex 4.99999999999999 7.99999999997744 20.0000000000068
vertex 4.99999999999999 8.0 6.77355949108005e-012
endloop
endfacet
facet normal 0.707106781186547 0.707106781186548 7.9757477393839e-013
outer loop
vertex 15.0 30.0 3.15892645375015e-011
vertex 20.0 24.9999999999932 6.00000000002595
vertex 20.0 25.0 2.59493315724058e-011
endloop
endfacet
facet normal 0.707106781186547 0.707106781186548 7.9757477393839e-013
outer loop
vertex 20.0 24.9999999999932 6.00000000002595
vertex 15.0 30.0 3.15892645375015e-011
vertex 15.0 29.9999999999932 6.00000000003159
endloop
endfacet
facet normal -0.707106781186547 0.707106781186548 7.97640721910438e-013
outer loop
vertex 0.0 24.9999999999932 6.00000000002595
vertex 5.0 30.0 3.15920845039841e-011
vertex 0.0 25.0 2.59521515388883e-011
endloop
endfacet
facet normal -0.707106781186547 0.707106781186548 7.97640721910438e-013
outer loop
vertex 5.0 30.0 3.15920845039841e-011
vertex 0.0 24.9999999999932 6.00000000002595
vertex 5.0 29.9999999999932 6.00000000003159
endloop
endfacet
facet normal 1.51489618839312e-028 1.0 1.12798659301916e-012
outer loop
vertex 5.0 30.0 3.15920845039841e-011
vertex 15.0 29.9999999999932 6.00000000003159
vertex 15.0 30.0 3.15892645375015e-011
endloop
endfacet
facet normal 1.51489618839312e-028 1.0 1.12798659301916e-012
outer loop
vertex 15.0 29.9999999999932 6.00000000003159
vertex 5.0 30.0 3.15920845039841e-011
vertex 5.0 29.9999999999932 6.00000000003159
endloop
endfacet
facet normal -0.382683432365089 1.0421266534842e-012 -0.923879532511287
outer loop
vertex 16.5556349186104 7.99999999998245 15.5556349186172
vertex 15.0 1.99999999998173 16.2
vertex 15.0 7.99999999998173 16.2000000000068
endloop
endfacet
facet normal -0.382683432365089 1.0421266534842e-012 -0.923879532511287
outer loop
vertex 15.0 1.99999999998173 16.2
vertex 16.5556349186104 7.99999999998245 15.5556349186172
vertex 16.5556349186104 1.99999999998245 15.5556349186104
endloop
endfacet
facet normal -1.28709443776669e-029 -1.12798659301916e-012 1.0
outer loop
vertex 25.0 1.99999999997744 20.0
vertex 4.99999999999999 7.99999999997744 20.0000000000068
vertex 4.99999999999999 1.99999999997744 20.0
endloop
endfacet
facet normal -1.28709443776669e-029 -1.12798659301916e-012 1.0
outer loop
vertex 4.99999999999999 7.99999999997744 20.0000000000068
vertex 25.0 1.99999999997744 20.0
vertex 7.49999999999999 7.99999999997744 20.0000000000068
endloop
endfacet
facet normal -1.28709443776669e-029 -1.12798659301916e-012 1.0
outer loop
vertex 7.49999999999999 7.99999999997744 20.0000000000068
vertex 25.0 1.99999999997744 20.0
vertex 22.5 7.99999999997744 20.0000000000068
endloop
endfacet
facet normal -1.28709443776669e-029 -1.12798659301916e-012 1.0
outer loop
vertex 22.5 7.99999999997744 20.0000000000068
vertex 25.0 1.99999999997744 20.0
vertex 25.0 7.99999999997744 20.0000000000068
endloop
endfacet
facet normal -3.2646498665399e-015 1.09783279920614e-012 -1.0
outer loop
vertex 20.0 25.0 2.59493315724058e-011
vertex 17.5 2.0 2.65235171889242e-015
vertex 15.0 30.0 3.15892645375015e-011
endloop
endfacet
facet normal -3.2646498665399e-015 1.09783279920614e-012 -1.0
outer loop
vertex 17.5 2.0 2.65235171889242e-015
vertex 20.0 25.0 2.59493315724058e-011
vertex 25.0 2.0 2.8199664825479e-015
endloop
endfacet
facet normal -3.2646498665399e-015 1.09783279920614e-012 -1.0
outer loop
vertex 25.0 2.0 2.8199664825479e-015
vertex 20.0 25.0 2.59493315724058e-011
vertex 25.0 8.0 6.77355949108005e-012
endloop
endfacet
facet normal -3.2646498665399e-015 1.09783279920614e-012 -1.0
outer loop
vertex 5.0 30.0 3.15920845039841e-011
vertex 8.4443650813896 24.5556349186104 2.54783971698203e-011
vertex 7.8 23.0 2.37243780176755e-011
endloop
endfacet
facet normal -3.2646498665399e-015 1.09783279920614e-012 -1.0
outer loop
vertex 8.4443650813896 24.5556349186104 2.54783971698203e-011
vertex 5.0 30.0 3.15920845039841e-011
vertex 15.0 30.0 3.15892645375015e-011
endloop
endfacet
facet normal -3.2646498665399e-015 1.09783279920614e-012 -1.0
outer loop
vertex 8.4443650813896 24.5556349186104 2.54783971698203e-011
vertex 15.0 30.0 3.15892645375015e-011
vertex 10.0 25.2 2.62059485223176e-011
endloop
endfacet
facet normal -3.2646498665399e-015 1.09783279920614e-012 -1.0
outer loop
vertex 10.0 25.2 2.62059485223176e-011
vertex 15.0 30.0 3.15892645375015e-011
vertex 11.5556349186104 24.5556349186104 2.54783971698203e-011
endloop
endfacet
facet normal -3.2646498665399e-015 1.09783279920614e-012 -1.0
outer loop
vertex 11.5556349186104 24.5556349186104 2.54783971698203e-011
vertex 15.0 30.0 3.15892645375015e-011
vertex 12.2 23.0 2.37243780176755e-011
endloop
endfacet
facet normal -3.2646498665399e-015 1.09783279920614e-012 -1.0
outer loop
vertex 12.2 23.0 2.37243780176755e-011
vertex 15.0 30.0 3.15892645375015e-011
vertex 12.5 2.0 2.974504830524e-015
endloop
endfacet
facet normal -3.2646498665399e-015 1.09783279920614e-012 -1.0
outer loop
vertex 12.5 2.0 2.974504830524e-015
vertex 15.0 30.0 3.15892645375015e-011
vertex 12.5 0.0 2.974504830524e-015
endloop
endfacet
facet normal -3.2646498665399e-015 1.09783279920614e-012 -1.0
outer loop
vertex 12.5 0.0 2.974504830524e-015
vertex 15.0 30.0 3.15892645375015e-011
vertex 17.5 0.0 2.65235171889242e-015
endloop
endfacet
facet normal -3.2646498665399e-015 1.09783279920614e-012 -1.0
outer loop
vertex 17.5 0.0 2.65235171889242e-015
vertex 15.0 30.0 3.15892645375015e-011
vertex 17.5 2.0 2.65235171889242e-015
endloop
endfacet
facet normal -3.2646498665399e-015 1.09783279920614e-012 -1.0
outer loop
vertex 5.0 30.0 3.15920845039841e-011
vertex 4.99999999999999 8.0 6.77355949108005e-012
vertex 0.0 25.0 2.59521515388883e-011
endloop
endfacet
facet normal -3.2646498665399e-015 1.09783279920614e-012 -1.0
outer loop
vertex 4.99999999999999 8.0 6.77355949108005e-012
vertex 5.0 30.0 3.15920845039841e-011
vertex 4.99999999999999 2.0 2.8199664825479e-015
endloop
endfacet
facet normal -3.2646498665399e-015 1.09783279920614e-012 -1.0
outer loop
vertex 4.99999999999999 2.0 2.8199664825479e-015
vertex 5.0 30.0 3.15920845039841e-011
vertex 12.5 2.0 2.974504830524e-015
endloop
endfacet
facet normal -3.2646498665399e-015 1.09783279920614e-012 -1.0
outer loop
vertex 12.5 2.0 2.974504830524e-015
vertex 5.0 30.0 3.15920845039841e-011
vertex 7.8 23.0 2.37243780176755e-011
endloop
endfacet
facet normal -3.2646498665399e-015 1.09783279920614e-012 -1.0
outer loop
vertex 12.5 2.0 2.974504830524e-015
vertex 7.8 23.0 2.37243780176755e-011
vertex 8.4443650813896 21.4443650813896 2.19703588655307e-011
endloop
endfacet
facet normal -3.2646498665399e-015 1.09783279920614e-012 -1.0
outer loop
vertex 12.5 2.0 2.974504830524e-015
vertex 8.4443650813896 21.4443650813896 2.19703588655307e-011
vertex 10.0 20.8 2.12428075130333e-011
endloop
endfacet
facet normal -3.2646498665399e-015 1.09783279920614e-012 -1.0
outer loop
vertex 12.5 2.0 2.974504830524e-015
vertex 10.0 20.8 2.12428075130333e-011
vertex 11.5556349186104 21.4443650813896 2.19703588655307e-011
endloop
endfacet
facet normal -3.2646498665399e-015 1.09783279920614e-012 -1.0
outer loop
vertex 12.5 2.0 2.974504830524e-015
vertex 11.5556349186104 21.4443650813896 2.19703588655307e-011
vertex 12.2 23.0 2.37243780176755e-011
endloop
endfacet
facet normal -0.923879532511287 4.31658233310094e-013 -0.382683432365089
outer loop
vertex 16.5556349186104 7.99999999998245 15.5556349186172
vertex 17.2 1.99999999998421 14.0
vertex 16.5556349186104 1.99999999998245 15.5556349186104
endloop
endfacet
facet normal -0.923879532511287 4.31658233310094e-013 -0.382683432365089
outer loop
vertex 17.2 1.99999999998421 14.0
vertex 16.5556349186104 7.99999999998245 15.5556349186172
vertex 17.2 7.99999999998421 14.0000000000068
endloop
endfacet
facet normal 0.382683432365089 -1.04212531583084e-012 0.923879532511287
outer loop
vertex 15.0 1.99999999998669 11.8
vertex 13.4443650813896 7.99999999998596 12.4443650813964
vertex 13.4443650813896 1.99999999998596 12.4443650813896
endloop
endfacet
facet normal 0.382683432365089 -1.04212531583084e-012 0.923879532511287
outer loop
vertex 13.4443650813896 7.99999999998596 12.4443650813964
vertex 15.0 1.99999999998669 11.8
vertex 15.0 7.99999999998669 11.8000000000068
endloop
endfacet
facet normal 0.923879532511287 4.3166182352584e-013 -0.38268343236509
outer loop
vertex 12.8 1.99999999998421 14.0
vertex 13.4443650813896 7.99999999998245 15.5556349186172
vertex 13.4443650813896 1.99999999998245 15.5556349186104
endloop
endfacet
facet normal 0.923879532511287 4.3166182352584e-013 -0.38268343236509
outer loop
vertex 13.4443650813896 7.99999999998245 15.5556349186172
vertex 12.8 1.99999999998421 14.0
vertex 12.8 7.99999999998421 14.0000000000068
endloop
endfacet
facet normal -9.39988827516114e-017 1.0 1.1278858799305e-012
outer loop
vertex 7.49999999999999 7.99999999999323 6.00000000000677
vertex 13.4443650813896 7.99999999998596 12.4443650813964
vertex 22.5 7.99999999999323 6.00000000000677
endloop
endfacet
facet normal -9.39988827516114e-017 1.0 1.1278858799305e-012
outer loop
vertex 13.4443650813896 7.99999999998596 12.4443650813964
vertex 7.49999999999999 7.99999999999323 6.00000000000677
vertex 7.49999999999999 7.99999999997744 20.0000000000068
endloop
endfacet
facet normal -9.39988827516114e-017 1.0 1.1278858799305e-012
outer loop
vertex 22.5 7.99999999999323 6.00000000000677
vertex 13.4443650813896 7.99999999998596 12.4443650813964
vertex 15.0 7.99999999998669 11.8000000000068
endloop
endfacet
facet normal -9.39988827516114e-017 1.0 1.1278858799305e-012
outer loop
vertex 13.4443650813896 7.99999999998596 12.4443650813964
vertex 7.49999999999999 7.99999999997744 20.0000000000068
vertex 12.8 7.99999999998421 14.0000000000068
endloop
endfacet
facet normal -9.39988827516114e-017 1.0 1.1278858799305e-012
outer loop
vertex 12.8 7.99999999998421 14.0000000000068
vertex 7.49999999999999 7.99999999997744 20.0000000000068
vertex 13.4443650813896 7.99999999998245 15.5556349186172
endloop
endfacet
facet normal -9.39988827516114e-017 1.0 1.1278858799305e-012
outer loop
vertex 13.4443650813896 7.99999999998245 15.5556349186172
vertex 7.49999999999999 7.99999999997744 20.0000000000068
vertex 15.0 7.99999999998173 16.2000000000068
endloop
endfacet
facet normal -9.39988827516114e-017 1.0 1.1278858799305e-012
outer loop
vertex 22.5 7.99999999999323 6.00000000000677
vertex 16.5556349186104 7.99999999998596 12.4443650813964
vertex 22.5 7.99999999997744 20.0000000000068
endloop
endfacet
facet normal -9.39988827516114e-017 1.0 1.1278858799305e-012
outer loop
vertex 16.5556349186104 7.99999999998596 12.4443650813964
vertex 22.5 7.99999999999323 6.00000000000677
vertex 15.0 7.99999999998669 11.8000000000068
endloop
endfacet
facet normal -9.39988827516114e-017 1.0 1.1278858799305e-012
outer loop
vertex 22.5 7.99999999997744 20.0000000000068
vertex 16.5556349186104 7.99999999998596 12.4443650813964
vertex 17.2 7.99999999998421 14.0000000000068
endloop
endfacet
facet normal -9.39988827516114e-017 1.0 1.1278858799305e-012
outer loop
vertex 22.5 7.99999999997744 20.0000000000068
vertex 17.2 7.99999999998421 14.0000000000068
vertex 16.5556349186104 7.99999999998245 15.5556349186172
endloop
endfacet
facet normal -9.39988827516114e-017 1.0 1.1278858799305e-012
outer loop
vertex 22.5 7.99999999997744 20.0000000000068
vertex 16.5556349186104 7.99999999998245 15.5556349186172
vertex 15.0 7.99999999998173 16.2000000000068
endloop
endfacet
facet normal -9.39988827516114e-017 1.0 1.1278858799305e-012
outer loop
vertex 22.5 7.99999999997744 20.0000000000068
vertex 15.0 7.99999999998173 16.2000000000068
vertex 7.49999999999999 7.99999999997744 20.0000000000068
endloop
endfacet
facet normal 0.923879532511287 -4.31664076088226e-013 0.382683432365091
outer loop
vertex 13.4443650813896 1.99999999998596 12.4443650813896
vertex 12.8 7.99999999998421 14.0000000000068
vertex 12.8 1.99999999998421 14.0
endloop
endfacet
facet normal 0.923879532511287 -4.31664076088226e-013 0.382683432365091
outer loop
vertex 12.8 7.99999999998421 14.0000000000068
vertex 13.4443650813896 1.99999999998596 12.4443650813896
vertex 13.4443650813896 7.99999999998596 12.4443650813964
endloop
endfacet
facet normal 0.382683432365089 1.0421266534842e-012 -0.923879532511287
outer loop
vertex 15.0 7.99999999998173 16.2000000000068
vertex 13.4443650813896 1.99999999998245 15.5556349186104
vertex 13.4443650813896 7.99999999998245 15.5556349186172
endloop
endfacet
facet normal 0.382683432365089 1.0421266534842e-012 -0.923879532511287
outer loop
vertex 13.4443650813896 1.99999999998245 15.5556349186104
vertex 15.0 7.99999999998173 16.2000000000068
vertex 15.0 1.99999999998173 16.2
endloop
endfacet
facet normal -0.923879532511287 -4.31664076088225e-013 0.38268343236509
outer loop
vertex 17.2 7.99999999998421 14.0000000000068
vertex 16.5556349186104 1.99999999998596 12.4443650813896
vertex 17.2 1.99999999998421 14.0
endloop
endfacet
facet normal -0.923879532511287 -4.31664076088225e-013 0.38268343236509
outer loop
vertex 16.5556349186104 1.99999999998596 12.4443650813896
vertex 17.2 7.99999999998421 14.0000000000068
vertex 16.5556349186104 7.99999999998596 12.4443650813964
endloop
endfacet
facet normal -0.382683432365089 -1.04212531583084e-012 0.923879532511287
outer loop
vertex 16.5556349186104 1.99999999998596 12.4443650813896
vertex 15.0 7.99999999998669 11.8000000000068
vertex 15.0 1.99999999998669 11.8
endloop
endfacet
facet normal -0.382683432365089 -1.04212531583084e-012 0.923879532511287
outer loop
vertex 15.0 7.99999999998669 11.8000000000068
vertex 16.5556349186104 1.99999999998596 12.4443650813896
vertex 16.5556349186104 7.99999999998596 12.4443650813964
endloop
endfacet
facet normal 1.0 0.0 0.0
outer loop
vertex 17.5 2.0 2.65235171889242e-015
vertex 17.5 0.0 11.5
vertex 17.5 0.0 2.65235171889242e-015
endloop
endfacet
facet normal 1.0 0.0 0.0
outer loop
vertex 17.5 0.0 11.5
vertex 17.5 2.0 2.65235171889242e-015
vertex 17.5 2.0 11.5
endloop
endfacet
facet normal 2.46862601436686e-015 0.63570725286023 0.771930235617766
outer loop
vertex 4.99999999999999 7.99999999997744 20.0000000000068
vertex 2.5 24.9999999999932 6.00000000002595
vertex 0.0 24.9999999999932 6.00000000002595
endloop
endfacet
facet normal 2.46862601436686e-015 0.63570725286023 0.771930235617766
outer loop
vertex 2.5 24.9999999999932 6.00000000002595
vertex 4.99999999999999 7.99999999997744 20.0000000000068
vertex 7.49999999999999 7.99999999997744 20.0000000000068
endloop
endfacet
endsolid Y Idler 2
