solid m8 Y Idler
facet normal 0.555570233019601 0.831469612302546 0.0
outer loop
vertex 12.0436104951936 20.0301515190097 6.00000000002369
vertex 13.4061885602437 19.1197059634458 3.15920845039841e-011
vertex 12.0436104951936 20.0301515190097 3.15920845039841e-011
endloop
endfacet
facet normal 0.555570233019601 0.831469612302546 0.0
outer loop
vertex 13.4061885602437 19.1197059634458 3.15920845039841e-011
vertex 12.0436104951936 20.0301515190097 6.00000000002369
vertex 13.4061885602437 19.1197059634458 6.00000000002369
endloop
endfacet
facet normal -1.0 0.0 0.0
outer loop
vertex 0.0134589761770555 7.9999999999718 25.0000000000068
vertex 0.0134589761770555 2.0 2.8199664825479e-015
vertex 0.0134589761770555 1.9999999999718 25.0
endloop
endfacet
facet normal -1.0 0.0 0.0
outer loop
vertex 0.0134589761770555 2.0 2.8199664825479e-015
vertex 0.0134589761770555 7.9999999999718 25.0000000000068
vertex 0.0134589761770555 8.0 6.77355949108005e-012
endloop
endfacet
facet normal -0.555570233019602 0.831469612302545 0.0
outer loop
vertex 16.6207293921104 19.1197059634458 6.00000000002369
vertex 17.9833074571605 20.0301515190097 3.15920845039841e-011
vertex 16.6207293921104 19.1197059634458 3.15920845039841e-011
endloop
endfacet
facet normal -0.555570233019602 0.831469612302545 0.0
outer loop
vertex 17.9833074571605 20.0301515190097 3.15920845039841e-011
vertex 16.6207293921104 19.1197059634458 6.00000000002369
vertex 17.9833074571605 20.0301515190097 6.00000000002369
endloop
endfacet
facet normal 1.15962214819521e-029 -1.12798659301916e-012 1.0
outer loop
vertex 20.0134589761771 1.9999999999718 25.0
vertex 0.0134589761770555 7.9999999999718 25.0000000000068
vertex 0.0134589761770555 1.9999999999718 25.0
endloop
endfacet
facet normal 1.15962214819521e-029 -1.12798659301916e-012 1.0
outer loop
vertex 0.0134589761770555 7.9999999999718 25.0000000000068
vertex 20.0134589761771 1.9999999999718 25.0
vertex 2.51345897617706 7.9999999999718 25.0000000000068
endloop
endfacet
facet normal 1.15962214819521e-029 -1.12798659301916e-012 1.0
outer loop
vertex 2.51345897617706 7.9999999999718 25.0000000000068
vertex 20.0134589761771 1.9999999999718 25.0
vertex 19.6004154979142 7.9999999999718 25.0000000000068
endloop
endfacet
facet normal 1.15962214819521e-029 -1.12798659301916e-012 1.0
outer loop
vertex 19.6004154979142 7.9999999999718 25.0000000000068
vertex 20.0134589761771 1.9999999999718 25.0
vertex 22.1004154979142 7.9999999999718 25.0000000000068
endloop
endfacet
facet normal -0.98078528040323 0.195090322016129 0.0
outer loop
vertex 19.2134589761771 22.9999999999932 6.00000000002369
vertex 18.8937530127245 21.3927295840598 3.15920845039841e-011
vertex 18.8937530127245 21.3927295840598 6.00000000002369
endloop
endfacet
facet normal -0.98078528040323 0.195090322016129 0.0
outer loop
vertex 18.8937530127245 21.3927295840598 3.15920845039841e-011
vertex 19.2134589761771 22.9999999999932 6.00000000002369
vertex 19.2134589761771 22.9999999999932 3.15920845039841e-011
endloop
endfacet
facet normal -0.993150604322876 0.116841247567397 1.31783876904188e-013
outer loop
vertex 2.01345897617705 24.9999999999932 6.00000000002595
vertex 0.0134589761770555 8.0 6.77355949108005e-012
vertex 0.0134589761770555 7.9999999999718 25.0000000000068
endloop
endfacet
facet normal -0.993150604322876 0.116841247567397 1.31783876904188e-013
outer loop
vertex 0.0134589761770555 8.0 6.77355949108005e-012
vertex 2.01345897617705 24.9999999999932 6.00000000002595
vertex 2.01345897617705 25.0 2.59493315724058e-011
endloop
endfacet
facet normal 0.195090322016129 -0.98078528040323 0.0
outer loop
vertex 15.0134589761771 27.1999999999932 6.00000000002369
vertex 13.4061885602437 26.8802940365406 3.15920845039841e-011
vertex 15.0134589761771 27.1999999999932 3.15920845039841e-011
endloop
endfacet
facet normal 0.195090322016129 -0.98078528040323 0.0
outer loop
vertex 13.4061885602437 26.8802940365406 3.15920845039841e-011
vertex 15.0134589761771 27.1999999999932 6.00000000002369
vertex 13.4061885602437 26.8802940365406 6.00000000002369
endloop
endfacet
facet normal 0.831469612302546 -0.5555702330196 0.0
outer loop
vertex 12.0436104951936 25.9698484809767 3.15920845039841e-011
vertex 11.1331649396297 24.6072704159266 6.00000000002369
vertex 11.1331649396297 24.6072704159266 3.15920845039841e-011
endloop
endfacet
facet normal 0.831469612302546 -0.5555702330196 0.0
outer loop
vertex 11.1331649396297 24.6072704159266 6.00000000002369
vertex 12.0436104951936 25.9698484809767 3.15920845039841e-011
vertex 12.0436104951936 25.9698484809767 6.00000000002369
endloop
endfacet
facet normal -0.195090322016129 -0.98078528040323 0.0
outer loop
vertex 16.6207293921104 26.8802940365406 6.00000000002369
vertex 15.0134589761771 27.1999999999932 3.15920845039841e-011
vertex 16.6207293921104 26.8802940365406 3.15920845039841e-011
endloop
endfacet
facet normal -0.195090322016129 -0.98078528040323 0.0
outer loop
vertex 15.0134589761771 27.1999999999932 3.15920845039841e-011
vertex 16.6207293921104 26.8802940365406 6.00000000002369
vertex 15.0134589761771 27.1999999999932 6.00000000002369
endloop
endfacet
facet normal 0.98078528040323 -0.195090322016129 0.0
outer loop
vertex 11.1331649396297 24.6072704159266 3.15920845039841e-011
vertex 10.8134589761771 22.9999999999932 6.00000000002369
vertex 10.8134589761771 22.9999999999932 3.15920845039841e-011
endloop
endfacet
facet normal 0.98078528040323 -0.195090322016129 0.0
outer loop
vertex 10.8134589761771 22.9999999999932 6.00000000002369
vertex 11.1331649396297 24.6072704159266 3.15920845039841e-011
vertex 11.1331649396297 24.6072704159266 6.00000000002369
endloop
endfacet
facet normal 0.0 0.745241313524347 0.666794859470666
outer loop
vertex 19.6004154979142 7.9999999999718 25.0000000000068
vertex 28.013458976177 24.9999999999932 6.00000000002595
vertex 25.513458976177 24.9999999999932 6.00000000002595
endloop
endfacet
facet normal 0.0 0.745241313524347 0.666794859470666
outer loop
vertex 28.013458976177 24.9999999999932 6.00000000002595
vertex 19.6004154979142 7.9999999999718 25.0000000000068
vertex 22.1004154979142 7.9999999999718 25.0000000000068
endloop
endfacet
facet normal 0.707106781186547 0.707106781186548 7.97574773938391e-013
outer loop
vertex 20.0134589761771 33.0 3.15920845039841e-011
vertex 28.013458976177 24.9999999999932 6.00000000002595
vertex 28.013458976177 25.0 2.59521515388883e-011
endloop
endfacet
facet normal 0.707106781186547 0.707106781186548 7.97574773938391e-013
outer loop
vertex 28.013458976177 24.9999999999932 6.00000000002595
vertex 20.0134589761771 33.0 3.15920845039841e-011
vertex 20.0134589761771 32.9999999999932 6.00000000003159
endloop
endfacet
facet normal 0.831469612302546 0.555570233019601 0.0
outer loop
vertex 11.1331649396297 21.3927295840598 3.15920845039841e-011
vertex 12.0436104951936 20.0301515190097 6.00000000002369
vertex 12.0436104951936 20.0301515190097 3.15920845039841e-011
endloop
endfacet
facet normal 0.831469612302546 0.555570233019601 0.0
outer loop
vertex 12.0436104951936 20.0301515190097 6.00000000002369
vertex 11.1331649396297 21.3927295840598 3.15920845039841e-011
vertex 11.1331649396297 21.3927295840598 6.00000000002369
endloop
endfacet
facet normal -0.195090322016129 0.98078528040323 0.0
outer loop
vertex 15.0134589761771 18.7999999999932 6.00000000002369
vertex 16.6207293921104 19.1197059634458 3.15920845039841e-011
vertex 15.0134589761771 18.7999999999932 3.15920845039841e-011
endloop
endfacet
facet normal -0.195090322016129 0.98078528040323 0.0
outer loop
vertex 16.6207293921104 19.1197059634458 3.15920845039841e-011
vertex 15.0134589761771 18.7999999999932 6.00000000002369
vertex 16.6207293921104 19.1197059634458 6.00000000002369
endloop
endfacet
facet normal -1.51489618839313e-028 1.0 1.12798659301916e-012
outer loop
vertex 10.0134589761771 32.9999999999932 6.00000000003159
vertex 20.0134589761771 33.0 3.15920845039841e-011
vertex 10.0134589761771 33.0 3.15892645375015e-011
endloop
endfacet
facet normal -1.51489618839313e-028 1.0 1.12798659301916e-012
outer loop
vertex 20.0134589761771 33.0 3.15920845039841e-011
vertex 10.0134589761771 32.9999999999932 6.00000000003159
vertex 20.0134589761771 32.9999999999932 6.00000000003159
endloop
endfacet
facet normal 0.0 1.0 1.12791238337488e-012
outer loop
vertex 2.51345897617706 7.99999999999323 6.00000000000677
vertex 8.45782405756666 7.99999999998032 17.4443650813964
vertex 19.6004154979142 7.99999999999323 6.00000000000677
endloop
endfacet
facet normal 0.0 1.0 1.12791238337488e-012
outer loop
vertex 8.45782405756666 7.99999999998032 17.4443650813964
vertex 2.51345897617706 7.99999999999323 6.00000000000677
vertex 2.51345897617706 7.9999999999718 25.0000000000068
endloop
endfacet
facet normal 0.0 1.0 1.12791238337488e-012
outer loop
vertex 19.6004154979142 7.99999999999323 6.00000000000677
vertex 8.45782405756666 7.99999999998032 17.4443650813964
vertex 10.0134589761771 7.99999999998105 16.8000000000068
endloop
endfacet
facet normal 0.0 1.0 1.12791238337488e-012
outer loop
vertex 8.45782405756666 7.99999999998032 17.4443650813964
vertex 2.51345897617706 7.9999999999718 25.0000000000068
vertex 7.81345897617706 7.99999999997857 19.0000000000068
endloop
endfacet
facet normal 0.0 1.0 1.12791238337488e-012
outer loop
vertex 7.81345897617706 7.99999999997857 19.0000000000068
vertex 2.51345897617706 7.9999999999718 25.0000000000068
vertex 8.45782405756666 7.99999999997681 20.5556349186172
endloop
endfacet
facet normal 0.0 1.0 1.12791238337488e-012
outer loop
vertex 8.45782405756666 7.99999999997681 20.5556349186172
vertex 2.51345897617706 7.9999999999718 25.0000000000068
vertex 10.0134589761771 7.99999999997609 21.2000000000068
endloop
endfacet
facet normal 0.0 1.0 1.12791238337488e-012
outer loop
vertex 19.6004154979142 7.99999999999323 6.00000000000677
vertex 11.5690938947875 7.99999999998032 17.4443650813964
vertex 19.6004154979142 7.9999999999718 25.0000000000068
endloop
endfacet
facet normal 0.0 1.0 1.12791238337488e-012
outer loop
vertex 11.5690938947875 7.99999999998032 17.4443650813964
vertex 19.6004154979142 7.99999999999323 6.00000000000677
vertex 10.0134589761771 7.99999999998105 16.8000000000068
endloop
endfacet
facet normal 0.0 1.0 1.12791238337488e-012
outer loop
vertex 19.6004154979142 7.9999999999718 25.0000000000068
vertex 11.5690938947875 7.99999999998032 17.4443650813964
vertex 12.2134589761771 7.99999999997857 19.0000000000068
endloop
endfacet
facet normal 0.0 1.0 1.12791238337488e-012
outer loop
vertex 19.6004154979142 7.9999999999718 25.0000000000068
vertex 12.2134589761771 7.99999999997857 19.0000000000068
vertex 11.5690938947875 7.99999999997681 20.5556349186172
endloop
endfacet
facet normal 0.0 1.0 1.12791238337488e-012
outer loop
vertex 19.6004154979142 7.9999999999718 25.0000000000068
vertex 11.5690938947875 7.99999999997681 20.5556349186172
vertex 10.0134589761771 7.99999999997609 21.2000000000068
endloop
endfacet
facet normal 0.0 1.0 1.12791238337488e-012
outer loop
vertex 19.6004154979142 7.9999999999718 25.0000000000068
vertex 10.0134589761771 7.99999999997609 21.2000000000068
vertex 2.51345897617706 7.9999999999718 25.0000000000068
endloop
endfacet
facet normal 0.993150604322876 -0.116841247567397 -1.31774471395248e-013
outer loop
vertex 4.51345897617705 24.9999999999932 6.00000000002595
vertex 2.51345897617706 7.9999999999718 25.0000000000068
vertex 2.51345897617706 7.99999999999323 6.00000000000677
endloop
endfacet
facet normal 0.38268343236509 -1.04212531583084e-012 0.923879532511287
outer loop
vertex 10.0134589761771 1.99999999998105 16.8
vertex 8.45782405756666 7.99999999998032 17.4443650813964
vertex 8.45782405756666 1.99999999998032 17.4443650813896
endloop
endfacet
facet normal 0.38268343236509 -1.04212531583084e-012 0.923879532511287
outer loop
vertex 8.45782405756666 7.99999999998032 17.4443650813964
vertex 10.0134589761771 1.99999999998105 16.8
vertex 10.0134589761771 7.99999999998105 16.8000000000068
endloop
endfacet
facet normal 0.923879532511286 -4.31660485872482e-013 0.382683432365092
outer loop
vertex 8.45782405756666 1.99999999998032 17.4443650813896
vertex 7.81345897617706 7.99999999997857 19.0000000000068
vertex 7.81345897617706 1.99999999997857 19.0
endloop
endfacet
facet normal 0.923879532511286 -4.31660485872482e-013 0.382683432365092
outer loop
vertex 7.81345897617706 7.99999999997857 19.0000000000068
vertex 8.45782405756666 1.99999999998032 17.4443650813896
vertex 8.45782405756666 7.99999999998032 17.4443650813964
endloop
endfacet
facet normal -1.0 0.0 0.0
outer loop
vertex 7.51345897617706 1.99999999999436 16.5
vertex 7.51345897617706 0.0 2.65235171889242e-015
vertex 7.51345897617706 -5.6399329650958e-012 16.5
endloop
endfacet
facet normal -1.0 0.0 0.0
outer loop
vertex 7.51345897617706 0.0 2.65235171889242e-015
vertex 7.51345897617706 1.99999999999436 16.5
vertex 7.51345897617706 2.0 2.65235171889242e-015
endloop
endfacet
facet normal 0.0 -1.0 -3.41814119096715e-013
outer loop
vertex 12.5134589761771 0.0 2.974504830524e-015
vertex 7.51345897617706 -5.6399329650958e-012 16.5
vertex 7.51345897617706 0.0 2.65235171889242e-015
endloop
endfacet
facet normal 0.0 -1.0 -3.41814119096715e-013
outer loop
vertex 7.51345897617706 -5.6399329650958e-012 16.5
vertex 12.5134589761771 0.0 2.974504830524e-015
vertex 12.5134589761771 -5.6399329650958e-012 16.5
endloop
endfacet
facet normal -0.382683432365089 1.0421266534842e-012 -0.923879532511287
outer loop
vertex 11.5690938947875 7.99999999997681 20.5556349186172
vertex 10.0134589761771 1.99999999997609 21.2
vertex 10.0134589761771 7.99999999997609 21.2000000000068
endloop
endfacet
facet normal -0.382683432365089 1.0421266534842e-012 -0.923879532511287
outer loop
vertex 10.0134589761771 1.99999999997609 21.2
vertex 11.5690938947875 7.99999999997681 20.5556349186172
vertex 11.5690938947875 1.99999999997681 20.5556349186104
endloop
endfacet
facet normal 0.944496796706162 -0.328520624941266 -3.28669491406774e-013
outer loop
vertex 20.0134589761771 2.0 2.8199664825479e-015
vertex 22.1004154979142 7.9999999999718 25.0000000000068
vertex 20.0134589761771 1.9999999999718 25.0
endloop
endfacet
facet normal 0.944496796706162 -0.328520624941266 -3.28669491406774e-013
outer loop
vertex 22.1004154979142 7.9999999999718 25.0000000000068
vertex 20.0134589761771 2.0 2.8199664825479e-015
vertex 28.013458976177 25.0 2.59521515388883e-011
endloop
endfacet
facet normal 0.944496796706162 -0.328520624941266 -3.28669491406774e-013
outer loop
vertex 22.1004154979142 7.9999999999718 25.0000000000068
vertex 28.013458976177 25.0 2.59521515388883e-011
vertex 28.013458976177 24.9999999999932 6.00000000002595
endloop
endfacet
facet normal 0.38268343236509 1.0421266534842e-012 -0.923879532511287
outer loop
vertex 10.0134589761771 7.99999999997609 21.2000000000068
vertex 8.45782405756666 1.99999999997681 20.5556349186104
vertex 8.45782405756666 7.99999999997681 20.5556349186172
endloop
endfacet
facet normal 0.38268343236509 1.0421266534842e-012 -0.923879532511287
outer loop
vertex 8.45782405756666 1.99999999997681 20.5556349186104
vertex 10.0134589761771 7.99999999997609 21.2000000000068
vertex 10.0134589761771 1.99999999997609 21.2
endloop
endfacet
facet normal -0.944496796706126 0.328520624941369 3.70593387856864e-013
outer loop
vertex 25.513458976177 24.9999999999932 6.00000000002595
vertex 19.6004154979142 7.99999999999323 6.00000000000677
vertex 19.6004154979142 7.9999999999718 25.0000000000068
endloop
endfacet
facet normal -0.98078528040323 -0.195090322016129 0.0
outer loop
vertex 18.8937530127245 24.6072704159266 6.00000000002369
vertex 19.2134589761771 22.9999999999932 3.15920845039841e-011
vertex 19.2134589761771 22.9999999999932 6.00000000002369
endloop
endfacet
facet normal -0.98078528040323 -0.195090322016129 0.0
outer loop
vertex 19.2134589761771 22.9999999999932 3.15920845039841e-011
vertex 18.8937530127245 24.6072704159266 6.00000000002369
vertex 18.8937530127245 24.6072704159266 3.15920845039841e-011
endloop
endfacet
facet normal 9.62023347644153e-015 1.02421907144434e-012 -1.0
outer loop
vertex 10.0134589761771 33.0 3.15892645375015e-011
vertex 11.1331649396297 24.6072704159266 3.15920845039841e-011
vertex 10.8134589761771 22.9999999999932 3.15920845039841e-011
endloop
endfacet
facet normal 9.62023347644153e-015 1.02421907144434e-012 -1.0
outer loop
vertex 11.1331649396297 24.6072704159266 3.15920845039841e-011
vertex 10.0134589761771 33.0 3.15892645375015e-011
vertex 12.0436104951936 25.9698484809767 3.15920845039841e-011
endloop
endfacet
facet normal 9.62023347644153e-015 1.02421907144434e-012 -1.0
outer loop
vertex 12.0436104951936 25.9698484809767 3.15920845039841e-011
vertex 10.0134589761771 33.0 3.15892645375015e-011
vertex 20.0134589761771 33.0 3.15920845039841e-011
endloop
endfacet
facet normal 9.62023347644153e-015 1.02421907144434e-012 -1.0
outer loop
vertex 12.0436104951936 25.9698484809767 3.15920845039841e-011
vertex 20.0134589761771 33.0 3.15920845039841e-011
vertex 13.4061885602437 26.8802940365406 3.15920845039841e-011
endloop
endfacet
facet normal 9.62023347644153e-015 1.02421907144434e-012 -1.0
outer loop
vertex 13.4061885602437 26.8802940365406 3.15920845039841e-011
vertex 20.0134589761771 33.0 3.15920845039841e-011
vertex 15.0134589761771 27.1999999999932 3.15920845039841e-011
endloop
endfacet
facet normal 9.62023347644153e-015 1.02421907144434e-012 -1.0
outer loop
vertex 15.0134589761771 27.1999999999932 3.15920845039841e-011
vertex 20.0134589761771 33.0 3.15920845039841e-011
vertex 16.6207293921104 26.8802940365406 3.15920845039841e-011
endloop
endfacet
facet normal 9.62023347644153e-015 1.02421907144434e-012 -1.0
outer loop
vertex 16.6207293921104 26.8802940365406 3.15920845039841e-011
vertex 20.0134589761771 33.0 3.15920845039841e-011
vertex 17.9833074571605 25.9698484809767 3.15920845039841e-011
endloop
endfacet
facet normal 9.62023347644153e-015 1.02421907144434e-012 -1.0
outer loop
vertex 17.9833074571605 25.9698484809767 3.15920845039841e-011
vertex 20.0134589761771 33.0 3.15920845039841e-011
vertex 18.8937530127245 24.6072704159266 3.15920845039841e-011
endloop
endfacet
facet normal 9.62023347644153e-015 1.02421907144434e-012 -1.0
outer loop
vertex 18.8937530127245 24.6072704159266 3.15920845039841e-011
vertex 20.0134589761771 33.0 3.15920845039841e-011
vertex 19.2134589761771 22.9999999999932 3.15920845039841e-011
endloop
endfacet
facet normal 9.62023347644153e-015 1.02421907144434e-012 -1.0
outer loop
vertex 13.4061885602437 19.1197059634458 3.15920845039841e-011
vertex 12.5134589761771 2.0 2.974504830524e-015
vertex 12.0436104951936 20.0301515190097 3.15920845039841e-011
endloop
endfacet
facet normal 9.62023347644153e-015 1.02421907144434e-012 -1.0
outer loop
vertex 12.5134589761771 2.0 2.974504830524e-015
vertex 13.4061885602437 19.1197059634458 3.15920845039841e-011
vertex 20.0134589761771 2.0 2.8199664825479e-015
endloop
endfacet
facet normal 9.62023347644153e-015 1.02421907144434e-012 -1.0
outer loop
vertex 20.0134589761771 2.0 2.8199664825479e-015
vertex 13.4061885602437 19.1197059634458 3.15920845039841e-011
vertex 15.0134589761771 18.7999999999932 3.15920845039841e-011
endloop
endfacet
facet normal 9.62023347644153e-015 1.02421907144434e-012 -1.0
outer loop
vertex 20.0134589761771 2.0 2.8199664825479e-015
vertex 15.0134589761771 18.7999999999932 3.15920845039841e-011
vertex 16.6207293921104 19.1197059634458 3.15920845039841e-011
endloop
endfacet
facet normal 9.62023347644153e-015 1.02421907144434e-012 -1.0
outer loop
vertex 20.0134589761771 2.0 2.8199664825479e-015
vertex 16.6207293921104 19.1197059634458 3.15920845039841e-011
vertex 17.9833074571605 20.0301515190097 3.15920845039841e-011
endloop
endfacet
facet normal 9.62023347644153e-015 1.02421907144434e-012 -1.0
outer loop
vertex 20.0134589761771 2.0 2.8199664825479e-015
vertex 17.9833074571605 20.0301515190097 3.15920845039841e-011
vertex 18.8937530127245 21.3927295840598 3.15920845039841e-011
endloop
endfacet
facet normal 9.62023347644153e-015 1.02421907144434e-012 -1.0
outer loop
vertex 20.0134589761771 2.0 2.8199664825479e-015
vertex 18.8937530127245 21.3927295840598 3.15920845039841e-011
vertex 19.2134589761771 22.9999999999932 3.15920845039841e-011
endloop
endfacet
facet normal 9.62023347644153e-015 1.02421907144434e-012 -1.0
outer loop
vertex 20.0134589761771 2.0 2.8199664825479e-015
vertex 19.2134589761771 22.9999999999932 3.15920845039841e-011
vertex 20.0134589761771 33.0 3.15920845039841e-011
endloop
endfacet
facet normal 9.62023347644153e-015 1.02421907144434e-012 -1.0
outer loop
vertex 20.0134589761771 2.0 2.8199664825479e-015
vertex 20.0134589761771 33.0 3.15920845039841e-011
vertex 28.013458976177 25.0 2.59521515388883e-011
endloop
endfacet
facet normal 9.62023347644153e-015 1.02421907144434e-012 -1.0
outer loop
vertex 2.01345897617705 25.0 2.59493315724058e-011
vertex 0.0134589761770555 2.0 2.8199664825479e-015
vertex 0.0134589761770555 8.0 6.77355949108005e-012
endloop
endfacet
facet normal 9.62023347644153e-015 1.02421907144434e-012 -1.0
outer loop
vertex 0.0134589761770555 2.0 2.8199664825479e-015
vertex 2.01345897617705 25.0 2.59493315724058e-011
vertex 7.51345897617706 2.0 2.65235171889242e-015
endloop
endfacet
facet normal 9.62023347644153e-015 1.02421907144434e-012 -1.0
outer loop
vertex 7.51345897617706 2.0 2.65235171889242e-015
vertex 2.01345897617705 25.0 2.59493315724058e-011
vertex 10.0134589761771 33.0 3.15892645375015e-011
endloop
endfacet
facet normal 9.62023347644153e-015 1.02421907144434e-012 -1.0
outer loop
vertex 7.51345897617706 2.0 2.65235171889242e-015
vertex 10.0134589761771 33.0 3.15892645375015e-011
vertex 7.51345897617706 0.0 2.65235171889242e-015
endloop
endfacet
facet normal 9.62023347644153e-015 1.02421907144434e-012 -1.0
outer loop
vertex 7.51345897617706 0.0 2.65235171889242e-015
vertex 10.0134589761771 33.0 3.15892645375015e-011
vertex 12.5134589761771 0.0 2.974504830524e-015
endloop
endfacet
facet normal 9.62023347644153e-015 1.02421907144434e-012 -1.0
outer loop
vertex 12.5134589761771 0.0 2.974504830524e-015
vertex 10.0134589761771 33.0 3.15892645375015e-011
vertex 10.8134589761771 22.9999999999932 3.15920845039841e-011
endloop
endfacet
facet normal 9.62023347644153e-015 1.02421907144434e-012 -1.0
outer loop
vertex 12.5134589761771 0.0 2.974504830524e-015
vertex 10.8134589761771 22.9999999999932 3.15920845039841e-011
vertex 11.1331649396297 21.3927295840598 3.15920845039841e-011
endloop
endfacet
facet normal 9.62023347644153e-015 1.02421907144434e-012 -1.0
outer loop
vertex 12.5134589761771 0.0 2.974504830524e-015
vertex 11.1331649396297 21.3927295840598 3.15920845039841e-011
vertex 12.0436104951936 20.0301515190097 3.15920845039841e-011
endloop
endfacet
facet normal 9.62023347644153e-015 1.02421907144434e-012 -1.0
outer loop
vertex 12.5134589761771 0.0 2.974504830524e-015
vertex 12.0436104951936 20.0301515190097 3.15920845039841e-011
vertex 12.5134589761771 2.0 2.974504830524e-015
endloop
endfacet
facet normal -0.831469612302545 0.555570233019602 0.0
outer loop
vertex 18.8937530127245 21.3927295840598 6.00000000002369
vertex 17.9833074571605 20.0301515190097 3.15920845039841e-011
vertex 17.9833074571605 20.0301515190097 6.00000000002369
endloop
endfacet
facet normal -0.831469612302545 0.555570233019602 0.0
outer loop
vertex 17.9833074571605 20.0301515190097 3.15920845039841e-011
vertex 18.8937530127245 21.3927295840598 6.00000000002369
vertex 18.8937530127245 21.3927295840598 3.15920845039841e-011
endloop
endfacet
facet normal -7.22405479829455e-015 -1.0224804347902e-012 1.0
outer loop
vertex 19.6004154979142 7.99999999999323 6.00000000000677
vertex 4.51345897617705 24.9999999999932 6.00000000002595
vertex 2.51345897617706 7.99999999999323 6.00000000000677
endloop
endfacet
facet normal -7.22405479829455e-015 -1.0224804347902e-012 1.0
outer loop
vertex 4.51345897617705 24.9999999999932 6.00000000002595
vertex 19.6004154979142 7.99999999999323 6.00000000000677
vertex 11.1331649396297 21.3927295840598 6.00000000002369
endloop
endfacet
facet normal -7.22405479829455e-015 -1.0224804347902e-012 1.0
outer loop
vertex 4.51345897617705 24.9999999999932 6.00000000002595
vertex 11.1331649396297 21.3927295840598 6.00000000002369
vertex 10.8134589761771 22.9999999999932 6.00000000002369
endloop
endfacet
facet normal -7.22405479829455e-015 -1.0224804347902e-012 1.0
outer loop
vertex 4.51345897617705 24.9999999999932 6.00000000002595
vertex 10.8134589761771 22.9999999999932 6.00000000002369
vertex 10.0134589761771 32.9999999999932 6.00000000003159
endloop
endfacet
facet normal -7.22405479829455e-015 -1.0224804347902e-012 1.0
outer loop
vertex 11.1331649396297 21.3927295840598 6.00000000002369
vertex 19.6004154979142 7.99999999999323 6.00000000000677
vertex 12.0436104951936 20.0301515190097 6.00000000002369
endloop
endfacet
facet normal -7.22405479829455e-015 -1.0224804347902e-012 1.0
outer loop
vertex 12.0436104951936 20.0301515190097 6.00000000002369
vertex 19.6004154979142 7.99999999999323 6.00000000000677
vertex 13.4061885602437 19.1197059634458 6.00000000002369
endloop
endfacet
facet normal -7.22405479829455e-015 -1.0224804347902e-012 1.0
outer loop
vertex 13.4061885602437 19.1197059634458 6.00000000002369
vertex 19.6004154979142 7.99999999999323 6.00000000000677
vertex 15.0134589761771 18.7999999999932 6.00000000002369
endloop
endfacet
facet normal -7.22405479829455e-015 -1.0224804347902e-012 1.0
outer loop
vertex 15.0134589761771 18.7999999999932 6.00000000002369
vertex 19.6004154979142 7.99999999999323 6.00000000000677
vertex 16.6207293921104 19.1197059634458 6.00000000002369
endloop
endfacet
facet normal -7.22405479829455e-015 -1.0224804347902e-012 1.0
outer loop
vertex 16.6207293921104 19.1197059634458 6.00000000002369
vertex 19.6004154979142 7.99999999999323 6.00000000000677
vertex 17.9833074571605 20.0301515190097 6.00000000002369
endloop
endfacet
facet normal -7.22405479829455e-015 -1.0224804347902e-012 1.0
outer loop
vertex 17.9833074571605 20.0301515190097 6.00000000002369
vertex 19.6004154979142 7.99999999999323 6.00000000000677
vertex 18.8937530127245 21.3927295840598 6.00000000002369
endloop
endfacet
facet normal -7.22405479829455e-015 -1.0224804347902e-012 1.0
outer loop
vertex 18.8937530127245 21.3927295840598 6.00000000002369
vertex 19.6004154979142 7.99999999999323 6.00000000000677
vertex 19.2134589761771 22.9999999999932 6.00000000002369
endloop
endfacet
facet normal -7.22405479829455e-015 -1.0224804347902e-012 1.0
outer loop
vertex 10.0134589761771 32.9999999999932 6.00000000003159
vertex 12.0436104951936 25.9698484809767 6.00000000002369
vertex 20.0134589761771 32.9999999999932 6.00000000003159
endloop
endfacet
facet normal -7.22405479829455e-015 -1.0224804347902e-012 1.0
outer loop
vertex 12.0436104951936 25.9698484809767 6.00000000002369
vertex 10.0134589761771 32.9999999999932 6.00000000003159
vertex 11.1331649396297 24.6072704159266 6.00000000002369
endloop
endfacet
facet normal -7.22405479829455e-015 -1.0224804347902e-012 1.0
outer loop
vertex 11.1331649396297 24.6072704159266 6.00000000002369
vertex 10.0134589761771 32.9999999999932 6.00000000003159
vertex 10.8134589761771 22.9999999999932 6.00000000002369
endloop
endfacet
facet normal -7.22405479829455e-015 -1.0224804347902e-012 1.0
outer loop
vertex 20.0134589761771 32.9999999999932 6.00000000003159
vertex 12.0436104951936 25.9698484809767 6.00000000002369
vertex 13.4061885602437 26.8802940365406 6.00000000002369
endloop
endfacet
facet normal -7.22405479829455e-015 -1.0224804347902e-012 1.0
outer loop
vertex 20.0134589761771 32.9999999999932 6.00000000003159
vertex 13.4061885602437 26.8802940365406 6.00000000002369
vertex 15.0134589761771 27.1999999999932 6.00000000002369
endloop
endfacet
facet normal -7.22405479829455e-015 -1.0224804347902e-012 1.0
outer loop
vertex 20.0134589761771 32.9999999999932 6.00000000003159
vertex 15.0134589761771 27.1999999999932 6.00000000002369
vertex 16.6207293921104 26.8802940365406 6.00000000002369
endloop
endfacet
facet normal -7.22405479829455e-015 -1.0224804347902e-012 1.0
outer loop
vertex 20.0134589761771 32.9999999999932 6.00000000003159
vertex 16.6207293921104 26.8802940365406 6.00000000002369
vertex 17.9833074571605 25.9698484809767 6.00000000002369
endloop
endfacet
facet normal -7.22405479829455e-015 -1.0224804347902e-012 1.0
outer loop
vertex 20.0134589761771 32.9999999999932 6.00000000003159
vertex 17.9833074571605 25.9698484809767 6.00000000002369
vertex 18.8937530127245 24.6072704159266 6.00000000002369
endloop
endfacet
facet normal -7.22405479829455e-015 -1.0224804347902e-012 1.0
outer loop
vertex 20.0134589761771 32.9999999999932 6.00000000003159
vertex 18.8937530127245 24.6072704159266 6.00000000002369
vertex 19.2134589761771 22.9999999999932 6.00000000002369
endloop
endfacet
facet normal -7.22405479829455e-015 -1.0224804347902e-012 1.0
outer loop
vertex 20.0134589761771 32.9999999999932 6.00000000003159
vertex 19.2134589761771 22.9999999999932 6.00000000002369
vertex 19.6004154979142 7.99999999999323 6.00000000000677
endloop
endfacet
facet normal -7.22405479829455e-015 -1.0224804347902e-012 1.0
outer loop
vertex 20.0134589761771 32.9999999999932 6.00000000003159
vertex 19.6004154979142 7.99999999999323 6.00000000000677
vertex 25.513458976177 24.9999999999932 6.00000000002595
endloop
endfacet
facet normal -7.22405479829455e-015 -1.0224804347902e-012 1.0
outer loop
vertex 20.0134589761771 32.9999999999932 6.00000000003159
vertex 25.513458976177 24.9999999999932 6.00000000002595
vertex 28.013458976177 24.9999999999932 6.00000000002595
endloop
endfacet
facet normal -7.22405479829455e-015 -1.0224804347902e-012 1.0
outer loop
vertex 10.0134589761771 32.9999999999932 6.00000000003159
vertex 2.01345897617705 24.9999999999932 6.00000000002595
vertex 4.51345897617705 24.9999999999932 6.00000000002595
endloop
endfacet
facet normal -0.923879532511287 -4.31664076088224e-013 0.382683432365089
outer loop
vertex 12.2134589761771 7.99999999997857 19.0000000000068
vertex 11.5690938947875 1.99999999998032 17.4443650813896
vertex 12.2134589761771 1.99999999997857 19.0
endloop
endfacet
facet normal -0.923879532511287 -4.31664076088224e-013 0.382683432365089
outer loop
vertex 11.5690938947875 1.99999999998032 17.4443650813896
vertex 12.2134589761771 7.99999999997857 19.0000000000068
vertex 11.5690938947875 7.99999999998032 17.4443650813964
endloop
endfacet
facet normal 0.555570233019601 -0.831469612302546 0.0
outer loop
vertex 13.4061885602437 26.8802940365406 6.00000000002369
vertex 12.0436104951936 25.9698484809767 3.15920845039841e-011
vertex 13.4061885602437 26.8802940365406 3.15920845039841e-011
endloop
endfacet
facet normal 0.555570233019601 -0.831469612302546 0.0
outer loop
vertex 12.0436104951936 25.9698484809767 3.15920845039841e-011
vertex 13.4061885602437 26.8802940365406 6.00000000002369
vertex 12.0436104951936 25.9698484809767 6.00000000002369
endloop
endfacet
facet normal -4.76985109373801e-016 0.745241313524347 0.666794859470666
outer loop
vertex 0.0134589761770555 7.9999999999718 25.0000000000068
vertex 4.51345897617705 24.9999999999932 6.00000000002595
vertex 2.01345897617705 24.9999999999932 6.00000000002595
endloop
endfacet
facet normal -4.76985109373801e-016 0.745241313524347 0.666794859470666
outer loop
vertex 4.51345897617705 24.9999999999932 6.00000000002595
vertex 0.0134589761770555 7.9999999999718 25.0000000000068
vertex 2.51345897617706 7.9999999999718 25.0000000000068
endloop
endfacet
facet normal 0.0 0.0 1.0
outer loop
vertex 12.5134589761771 -5.6399329650958e-012 16.5
vertex 7.51345897617706 1.99999999999436 16.5
vertex 7.51345897617706 -5.6399329650958e-012 16.5
endloop
endfacet
facet normal 0.0 0.0 1.0
outer loop
vertex 7.51345897617706 1.99999999999436 16.5
vertex 12.5134589761771 -5.6399329650958e-012 16.5
vertex 12.5134589761771 1.99999999999436 16.5
endloop
endfacet
facet normal 0.98078528040323 0.195090322016129 0.0
outer loop
vertex 10.8134589761771 22.9999999999932 3.15920845039841e-011
vertex 11.1331649396297 21.3927295840598 6.00000000002369
vertex 11.1331649396297 21.3927295840598 3.15920845039841e-011
endloop
endfacet
facet normal 0.98078528040323 0.195090322016129 0.0
outer loop
vertex 11.1331649396297 21.3927295840598 6.00000000002369
vertex 10.8134589761771 22.9999999999932 3.15920845039841e-011
vertex 10.8134589761771 22.9999999999932 6.00000000002369
endloop
endfacet
facet normal 1.0 0.0 0.0
outer loop
vertex 12.5134589761771 0.0 2.974504830524e-015
vertex 12.5134589761771 1.99999999999436 16.5
vertex 12.5134589761771 -5.6399329650958e-012 16.5
endloop
endfacet
facet normal 1.0 0.0 0.0
outer loop
vertex 12.5134589761771 1.99999999999436 16.5
vertex 12.5134589761771 0.0 2.974504830524e-015
vertex 12.5134589761771 2.0 2.974504830524e-015
endloop
endfacet
facet normal 0.923879532511286 4.31661823525842e-013 -0.382683432365091
outer loop
vertex 7.81345897617706 1.99999999997857 19.0
vertex 8.45782405756666 7.99999999997681 20.5556349186172
vertex 8.45782405756666 1.99999999997681 20.5556349186104
endloop
endfacet
facet normal 0.923879532511286 4.31661823525842e-013 -0.382683432365091
outer loop
vertex 8.45782405756666 7.99999999997681 20.5556349186172
vertex 7.81345897617706 1.99999999997857 19.0
vertex 7.81345897617706 7.99999999997857 19.0000000000068
endloop
endfacet
facet normal -0.923879532511287 4.31661823525839e-013 -0.382683432365089
outer loop
vertex 11.5690938947875 7.99999999997681 20.5556349186172
vertex 12.2134589761771 1.99999999997857 19.0
vertex 11.5690938947875 1.99999999997681 20.5556349186104
endloop
endfacet
facet normal -0.923879532511287 4.31661823525839e-013 -0.382683432365089
outer loop
vertex 12.2134589761771 1.99999999997857 19.0
vertex 11.5690938947875 7.99999999997681 20.5556349186172
vertex 12.2134589761771 7.99999999997857 19.0000000000068
endloop
endfacet
facet normal 2.65290674332028e-028 -1.0 -9.57760809934471e-013
outer loop
vertex 20.0134589761771 1.9999999999718 25.0
vertex 12.5134589761771 2.0 2.974504830524e-015
vertex 20.0134589761771 2.0 2.8199664825479e-015
endloop
endfacet
facet normal 2.65290674332028e-028 -1.0 -9.57760809934471e-013
outer loop
vertex 12.5134589761771 2.0 2.974504830524e-015
vertex 20.0134589761771 1.9999999999718 25.0
vertex 12.5134589761771 1.99999999999436 16.5
endloop
endfacet
facet normal 2.65290674332028e-028 -1.0 -9.57760809934471e-013
outer loop
vertex 12.5134589761771 1.99999999999436 16.5
vertex 20.0134589761771 1.9999999999718 25.0
vertex 11.5690938947875 1.99999999998032 17.4443650813896
endloop
endfacet
facet normal 2.65290674332028e-028 -1.0 -9.57760809934471e-013
outer loop
vertex 12.5134589761771 1.99999999999436 16.5
vertex 11.5690938947875 1.99999999998032 17.4443650813896
vertex 10.0134589761771 1.99999999998105 16.8
endloop
endfacet
facet normal 2.65290674332028e-028 -1.0 -9.57760809934471e-013
outer loop
vertex 12.5134589761771 1.99999999999436 16.5
vertex 10.0134589761771 1.99999999998105 16.8
vertex 7.51345897617706 1.99999999999436 16.5
endloop
endfacet
facet normal 2.65290674332028e-028 -1.0 -9.57760809934471e-013
outer loop
vertex 11.5690938947875 1.99999999998032 17.4443650813896
vertex 20.0134589761771 1.9999999999718 25.0
vertex 12.2134589761771 1.99999999997857 19.0
endloop
endfacet
facet normal 2.65290674332028e-028 -1.0 -9.57760809934471e-013
outer loop
vertex 12.2134589761771 1.99999999997857 19.0
vertex 20.0134589761771 1.9999999999718 25.0
vertex 11.5690938947875 1.99999999997681 20.5556349186104
endloop
endfacet
facet normal 2.65290674332028e-028 -1.0 -9.57760809934471e-013
outer loop
vertex 11.5690938947875 1.99999999997681 20.5556349186104
vertex 20.0134589761771 1.9999999999718 25.0
vertex 10.0134589761771 1.99999999997609 21.2
endloop
endfacet
facet normal 2.65290674332028e-028 -1.0 -9.57760809934471e-013
outer loop
vertex 7.51345897617706 1.99999999999436 16.5
vertex 0.0134589761770555 2.0 2.8199664825479e-015
vertex 7.51345897617706 2.0 2.65235171889242e-015
endloop
endfacet
facet normal 2.65290674332028e-028 -1.0 -9.57760809934471e-013
outer loop
vertex 0.0134589761770555 2.0 2.8199664825479e-015
vertex 7.51345897617706 1.99999999999436 16.5
vertex 0.0134589761770555 1.9999999999718 25.0
endloop
endfacet
facet normal 2.65290674332028e-028 -1.0 -9.57760809934471e-013
outer loop
vertex 0.0134589761770555 1.9999999999718 25.0
vertex 7.51345897617706 1.99999999999436 16.5
vertex 8.45782405756666 1.99999999998032 17.4443650813896
endloop
endfacet
facet normal 2.65290674332028e-028 -1.0 -9.57760809934471e-013
outer loop
vertex 8.45782405756666 1.99999999998032 17.4443650813896
vertex 7.51345897617706 1.99999999999436 16.5
vertex 10.0134589761771 1.99999999998105 16.8
endloop
endfacet
facet normal 2.65290674332028e-028 -1.0 -9.57760809934471e-013
outer loop
vertex 0.0134589761770555 1.9999999999718 25.0
vertex 8.45782405756666 1.99999999998032 17.4443650813896
vertex 7.81345897617706 1.99999999997857 19.0
endloop
endfacet
facet normal 2.65290674332028e-028 -1.0 -9.57760809934471e-013
outer loop
vertex 0.0134589761770555 1.9999999999718 25.0
vertex 7.81345897617706 1.99999999997857 19.0
vertex 8.45782405756666 1.99999999997681 20.5556349186104
endloop
endfacet
facet normal 2.65290674332028e-028 -1.0 -9.57760809934471e-013
outer loop
vertex 0.0134589761770555 1.9999999999718 25.0
vertex 8.45782405756666 1.99999999997681 20.5556349186104
vertex 10.0134589761771 1.99999999997609 21.2
endloop
endfacet
facet normal 2.65290674332028e-028 -1.0 -9.57760809934471e-013
outer loop
vertex 0.0134589761770555 1.9999999999718 25.0
vertex 10.0134589761771 1.99999999997609 21.2
vertex 20.0134589761771 1.9999999999718 25.0
endloop
endfacet
facet normal 0.195090322016129 0.98078528040323 0.0
outer loop
vertex 13.4061885602437 19.1197059634458 6.00000000002369
vertex 15.0134589761771 18.7999999999932 3.15920845039841e-011
vertex 13.4061885602437 19.1197059634458 3.15920845039841e-011
endloop
endfacet
facet normal 0.195090322016129 0.98078528040323 0.0
outer loop
vertex 15.0134589761771 18.7999999999932 3.15920845039841e-011
vertex 13.4061885602437 19.1197059634458 6.00000000002369
vertex 15.0134589761771 18.7999999999932 6.00000000002369
endloop
endfacet
facet normal -0.555570233019601 -0.831469612302546 0.0
outer loop
vertex 17.9833074571605 25.9698484809767 6.00000000002369
vertex 16.6207293921104 26.8802940365406 3.15920845039841e-011
vertex 17.9833074571605 25.9698484809767 3.15920845039841e-011
endloop
endfacet
facet normal -0.555570233019601 -0.831469612302546 0.0
outer loop
vertex 16.6207293921104 26.8802940365406 3.15920845039841e-011
vertex 17.9833074571605 25.9698484809767 6.00000000002369
vertex 16.6207293921104 26.8802940365406 6.00000000002369
endloop
endfacet
facet normal -0.831469612302546 -0.555570233019602 0.0
outer loop
vertex 17.9833074571605 25.9698484809767 6.00000000002369
vertex 18.8937530127245 24.6072704159266 3.15920845039841e-011
vertex 18.8937530127245 24.6072704159266 6.00000000002369
endloop
endfacet
facet normal -0.831469612302546 -0.555570233019602 0.0
outer loop
vertex 18.8937530127245 24.6072704159266 3.15920845039841e-011
vertex 17.9833074571605 25.9698484809767 6.00000000002369
vertex 17.9833074571605 25.9698484809767 3.15920845039841e-011
endloop
endfacet
facet normal -0.707106781186547 0.707106781186548 7.97618739253088e-013
outer loop
vertex 2.01345897617705 24.9999999999932 6.00000000002595
vertex 10.0134589761771 33.0 3.15892645375015e-011
vertex 2.01345897617705 25.0 2.59493315724058e-011
endloop
endfacet
facet normal -0.707106781186547 0.707106781186548 7.97618739253088e-013
outer loop
vertex 10.0134589761771 33.0 3.15892645375015e-011
vertex 2.01345897617705 24.9999999999932 6.00000000002595
vertex 10.0134589761771 32.9999999999932 6.00000000003159
endloop
endfacet
facet normal -0.382683432365089 -1.04212531583084e-012 0.923879532511287
outer loop
vertex 11.5690938947875 1.99999999998032 17.4443650813896
vertex 10.0134589761771 7.99999999998105 16.8000000000068
vertex 10.0134589761771 1.99999999998105 16.8
endloop
endfacet
facet normal -0.382683432365089 -1.04212531583084e-012 0.923879532511287
outer loop
vertex 10.0134589761771 7.99999999998105 16.8000000000068
vertex 11.5690938947875 1.99999999998032 17.4443650813896
vertex 11.5690938947875 7.99999999998032 17.4443650813964
endloop
endfacet
endsolid m8 Y Idler
