solid m8 Y Idler 2
facet normal -0.555570233019601 0.831469612302546 0.0
outer loop
vertex 14.6207293921104 19.1197059634458 6.00000000002369
vertex 15.9833074571605 20.0301515190097 3.15920845039841e-011
vertex 14.6207293921104 19.1197059634458 3.15920845039841e-011
endloop
endfacet
facet normal -0.555570233019601 0.831469612302546 0.0
outer loop
vertex 15.9833074571605 20.0301515190097 3.15920845039841e-011
vertex 14.6207293921104 19.1197059634458 6.00000000002369
vertex 15.9833074571605 20.0301515190097 6.00000000002369
endloop
endfacet
facet normal 1.0 0.0 0.0
outer loop
vertex 28.013458976177 2.0 2.8199664825479e-015
vertex 28.013458976177 7.9999999999718 25.0000000000068
vertex 28.013458976177 1.9999999999718 25.0
endloop
endfacet
facet normal 1.0 0.0 0.0
outer loop
vertex 28.013458976177 7.9999999999718 25.0000000000068
vertex 28.013458976177 2.0 2.8199664825479e-015
vertex 28.013458976177 8.0 6.77355949108005e-012
endloop
endfacet
facet normal 0.555570233019602 0.831469612302545 0.0
outer loop
vertex 10.0436104951936 20.0301515190097 6.00000000002369
vertex 11.4061885602437 19.1197059634458 3.15920845039841e-011
vertex 10.0436104951936 20.0301515190097 3.15920845039841e-011
endloop
endfacet
facet normal 0.555570233019602 0.831469612302545 0.0
outer loop
vertex 11.4061885602437 19.1197059634458 3.15920845039841e-011
vertex 10.0436104951936 20.0301515190097 6.00000000002369
vertex 11.4061885602437 19.1197059634458 6.00000000002369
endloop
endfacet
facet normal -1.15962214819521e-029 -1.12798659301916e-012 1.0
outer loop
vertex 8.01345897617705 1.9999999999718 25.0
vertex 8.42650245443986 7.9999999999718 25.0000000000068
vertex 5.92650245443986 7.9999999999718 25.0000000000068
endloop
endfacet
facet normal -1.15962214819521e-029 -1.12798659301916e-012 1.0
outer loop
vertex 8.42650245443986 7.9999999999718 25.0000000000068
vertex 8.01345897617705 1.9999999999718 25.0
vertex 28.013458976177 1.9999999999718 25.0
endloop
endfacet
facet normal -1.15962214819521e-029 -1.12798659301916e-012 1.0
outer loop
vertex 8.42650245443986 7.9999999999718 25.0000000000068
vertex 28.013458976177 1.9999999999718 25.0
vertex 25.513458976177 7.9999999999718 25.0000000000068
endloop
endfacet
facet normal -1.15962214819521e-029 -1.12798659301916e-012 1.0
outer loop
vertex 25.513458976177 7.9999999999718 25.0000000000068
vertex 28.013458976177 1.9999999999718 25.0
vertex 28.013458976177 7.9999999999718 25.0000000000068
endloop
endfacet
facet normal 0.98078528040323 0.195090322016129 0.0
outer loop
vertex 8.81345897617705 22.9999999999932 3.15920845039841e-011
vertex 9.13316493962965 21.3927295840598 6.00000000002369
vertex 9.13316493962965 21.3927295840598 3.15920845039841e-011
endloop
endfacet
facet normal 0.98078528040323 0.195090322016129 0.0
outer loop
vertex 9.13316493962965 21.3927295840598 6.00000000002369
vertex 8.81345897617705 22.9999999999932 3.15920845039841e-011
vertex 8.81345897617705 22.9999999999932 6.00000000002369
endloop
endfacet
facet normal 0.993150604322876 0.116841247567397 1.31783876904188e-013
outer loop
vertex 28.013458976177 8.0 6.77355949108005e-012
vertex 26.0134589761771 24.9999999999932 6.00000000002595
vertex 28.013458976177 7.9999999999718 25.0000000000068
endloop
endfacet
facet normal 0.993150604322876 0.116841247567397 1.31783876904188e-013
outer loop
vertex 26.0134589761771 24.9999999999932 6.00000000002595
vertex 28.013458976177 8.0 6.77355949108005e-012
vertex 26.0134589761771 25.0 2.59493315724058e-011
endloop
endfacet
facet normal -0.195090322016129 -0.98078528040323 0.0
outer loop
vertex 14.6207293921104 26.8802940365406 6.00000000002369
vertex 13.013458976177 27.1999999999932 3.15920845039841e-011
vertex 14.6207293921104 26.8802940365406 3.15920845039841e-011
endloop
endfacet
facet normal -0.195090322016129 -0.98078528040323 0.0
outer loop
vertex 13.013458976177 27.1999999999932 3.15920845039841e-011
vertex 14.6207293921104 26.8802940365406 6.00000000002369
vertex 13.013458976177 27.1999999999932 6.00000000002369
endloop
endfacet
facet normal -0.831469612302546 -0.5555702330196 0.0
outer loop
vertex 15.9833074571605 25.9698484809767 6.00000000002369
vertex 16.8937530127244 24.6072704159266 3.15920845039841e-011
vertex 16.8937530127244 24.6072704159266 6.00000000002369
endloop
endfacet
facet normal -0.831469612302546 -0.5555702330196 0.0
outer loop
vertex 16.8937530127244 24.6072704159266 3.15920845039841e-011
vertex 15.9833074571605 25.9698484809767 6.00000000002369
vertex 15.9833074571605 25.9698484809767 3.15920845039841e-011
endloop
endfacet
facet normal 0.195090322016129 -0.98078528040323 0.0
outer loop
vertex 13.013458976177 27.1999999999932 6.00000000002369
vertex 11.4061885602437 26.8802940365406 3.15920845039841e-011
vertex 13.013458976177 27.1999999999932 3.15920845039841e-011
endloop
endfacet
facet normal 0.195090322016129 -0.98078528040323 0.0
outer loop
vertex 11.4061885602437 26.8802940365406 3.15920845039841e-011
vertex 13.013458976177 27.1999999999932 6.00000000002369
vertex 11.4061885602437 26.8802940365406 6.00000000002369
endloop
endfacet
facet normal -0.98078528040323 -0.195090322016129 0.0
outer loop
vertex 16.8937530127244 24.6072704159266 6.00000000002369
vertex 17.213458976177 22.9999999999932 3.15920845039841e-011
vertex 17.213458976177 22.9999999999932 6.00000000002369
endloop
endfacet
facet normal -0.98078528040323 -0.195090322016129 0.0
outer loop
vertex 17.213458976177 22.9999999999932 3.15920845039841e-011
vertex 16.8937530127244 24.6072704159266 6.00000000002369
vertex 16.8937530127244 24.6072704159266 3.15920845039841e-011
endloop
endfacet
facet normal 0.0 0.745241313524347 0.666794859470666
outer loop
vertex 5.92650245443986 7.9999999999718 25.0000000000068
vertex 2.51345897617706 24.9999999999932 6.00000000002595
vertex 0.0134589761770555 24.9999999999932 6.00000000002595
endloop
endfacet
facet normal 0.0 0.745241313524347 0.666794859470666
outer loop
vertex 2.51345897617706 24.9999999999932 6.00000000002595
vertex 5.92650245443986 7.9999999999718 25.0000000000068
vertex 8.42650245443986 7.9999999999718 25.0000000000068
endloop
endfacet
facet normal -0.707106781186547 0.707106781186548 7.97574773938391e-013
outer loop
vertex 0.0134589761770555 24.9999999999932 6.00000000002595
vertex 8.01345897617705 33.0 3.15920845039841e-011
vertex 0.0134589761770555 25.0 2.59521515388883e-011
endloop
endfacet
facet normal -0.707106781186547 0.707106781186548 7.97574773938391e-013
outer loop
vertex 8.01345897617705 33.0 3.15920845039841e-011
vertex 0.0134589761770555 24.9999999999932 6.00000000002595
vertex 8.01345897617705 32.9999999999932 6.00000000003159
endloop
endfacet
facet normal -0.831469612302546 0.555570233019601 0.0
outer loop
vertex 16.8937530127244 21.3927295840598 6.00000000002369
vertex 15.9833074571605 20.0301515190097 3.15920845039841e-011
vertex 15.9833074571605 20.0301515190097 6.00000000002369
endloop
endfacet
facet normal -0.831469612302546 0.555570233019601 0.0
outer loop
vertex 15.9833074571605 20.0301515190097 3.15920845039841e-011
vertex 16.8937530127244 21.3927295840598 6.00000000002369
vertex 16.8937530127244 21.3927295840598 3.15920845039841e-011
endloop
endfacet
facet normal 0.195090322016129 0.98078528040323 0.0
outer loop
vertex 11.4061885602437 19.1197059634458 6.00000000002369
vertex 13.013458976177 18.7999999999932 3.15920845039841e-011
vertex 11.4061885602437 19.1197059634458 3.15920845039841e-011
endloop
endfacet
facet normal 0.195090322016129 0.98078528040323 0.0
outer loop
vertex 13.013458976177 18.7999999999932 3.15920845039841e-011
vertex 11.4061885602437 19.1197059634458 6.00000000002369
vertex 13.013458976177 18.7999999999932 6.00000000002369
endloop
endfacet
facet normal 1.51489618839313e-028 1.0 1.12798659301916e-012
outer loop
vertex 8.01345897617705 33.0 3.15920845039841e-011
vertex 18.0134589761771 32.9999999999932 6.00000000003159
vertex 18.0134589761771 33.0 3.15892645375015e-011
endloop
endfacet
facet normal 1.51489618839313e-028 1.0 1.12798659301916e-012
outer loop
vertex 18.0134589761771 32.9999999999932 6.00000000003159
vertex 8.01345897617705 33.0 3.15920845039841e-011
vertex 8.01345897617705 32.9999999999932 6.00000000003159
endloop
endfacet
facet normal 0.0 1.0 1.12791238337488e-012
outer loop
vertex 8.42650245443986 7.9999999999718 25.0000000000068
vertex 25.513458976177 7.99999999999323 6.00000000000677
vertex 8.42650245443986 7.99999999999323 6.00000000000677
endloop
endfacet
facet normal 0.0 1.0 1.12791238337488e-012
outer loop
vertex 25.513458976177 7.99999999999323 6.00000000000677
vertex 8.42650245443986 7.9999999999718 25.0000000000068
vertex 16.4578240575666 7.99999999998032 17.4443650813964
endloop
endfacet
facet normal 0.0 1.0 1.12791238337488e-012
outer loop
vertex 25.513458976177 7.99999999999323 6.00000000000677
vertex 16.4578240575666 7.99999999998032 17.4443650813964
vertex 18.013458976177 7.99999999998105 16.8000000000068
endloop
endfacet
facet normal 0.0 1.0 1.12791238337488e-012
outer loop
vertex 16.4578240575666 7.99999999998032 17.4443650813964
vertex 8.42650245443986 7.9999999999718 25.0000000000068
vertex 15.813458976177 7.99999999997857 19.0000000000068
endloop
endfacet
facet normal 0.0 1.0 1.12791238337488e-012
outer loop
vertex 15.813458976177 7.99999999997857 19.0000000000068
vertex 8.42650245443986 7.9999999999718 25.0000000000068
vertex 16.4578240575666 7.99999999997681 20.5556349186172
endloop
endfacet
facet normal 0.0 1.0 1.12791238337488e-012
outer loop
vertex 16.4578240575666 7.99999999997681 20.5556349186172
vertex 8.42650245443986 7.9999999999718 25.0000000000068
vertex 18.013458976177 7.99999999997609 21.2000000000068
endloop
endfacet
facet normal 0.0 1.0 1.12791238337488e-012
outer loop
vertex 25.513458976177 7.99999999999323 6.00000000000677
vertex 19.5690938947874 7.99999999998032 17.4443650813964
vertex 25.513458976177 7.9999999999718 25.0000000000068
endloop
endfacet
facet normal 0.0 1.0 1.12791238337488e-012
outer loop
vertex 19.5690938947874 7.99999999998032 17.4443650813964
vertex 25.513458976177 7.99999999999323 6.00000000000677
vertex 18.013458976177 7.99999999998105 16.8000000000068
endloop
endfacet
facet normal 0.0 1.0 1.12791238337488e-012
outer loop
vertex 25.513458976177 7.9999999999718 25.0000000000068
vertex 19.5690938947874 7.99999999998032 17.4443650813964
vertex 20.213458976177 7.99999999997857 19.0000000000068
endloop
endfacet
facet normal 0.0 1.0 1.12791238337488e-012
outer loop
vertex 25.513458976177 7.9999999999718 25.0000000000068
vertex 20.213458976177 7.99999999997857 19.0000000000068
vertex 19.5690938947874 7.99999999997681 20.5556349186172
endloop
endfacet
facet normal 0.0 1.0 1.12791238337488e-012
outer loop
vertex 25.513458976177 7.9999999999718 25.0000000000068
vertex 19.5690938947874 7.99999999997681 20.5556349186172
vertex 18.013458976177 7.99999999997609 21.2000000000068
endloop
endfacet
facet normal 0.0 1.0 1.12791238337488e-012
outer loop
vertex 25.513458976177 7.9999999999718 25.0000000000068
vertex 18.013458976177 7.99999999997609 21.2000000000068
vertex 8.42650245443986 7.9999999999718 25.0000000000068
endloop
endfacet
facet normal -0.993150604322876 -0.116841247567397 -1.31774471395248e-013
outer loop
vertex 23.5134589761771 24.9999999999932 6.00000000002595
vertex 25.513458976177 7.99999999999323 6.00000000000677
vertex 25.513458976177 7.9999999999718 25.0000000000068
endloop
endfacet
facet normal -0.38268343236509 -1.04212531583084e-012 0.923879532511287
outer loop
vertex 19.5690938947874 1.99999999998032 17.4443650813896
vertex 18.013458976177 7.99999999998105 16.8000000000068
vertex 18.013458976177 1.99999999998105 16.8
endloop
endfacet
facet normal -0.38268343236509 -1.04212531583084e-012 0.923879532511287
outer loop
vertex 18.013458976177 7.99999999998105 16.8000000000068
vertex 19.5690938947874 1.99999999998032 17.4443650813896
vertex 19.5690938947874 7.99999999998032 17.4443650813964
endloop
endfacet
facet normal -0.923879532511286 -4.31660485872482e-013 0.382683432365092
outer loop
vertex 20.213458976177 7.99999999997857 19.0000000000068
vertex 19.5690938947874 1.99999999998032 17.4443650813896
vertex 20.213458976177 1.99999999997857 19.0
endloop
endfacet
facet normal -0.923879532511286 -4.31660485872482e-013 0.382683432365092
outer loop
vertex 19.5690938947874 1.99999999998032 17.4443650813896
vertex 20.213458976177 7.99999999997857 19.0000000000068
vertex 19.5690938947874 7.99999999998032 17.4443650813964
endloop
endfacet
facet normal 1.0 0.0 0.0
outer loop
vertex 20.513458976177 0.0 2.65235171889242e-015
vertex 20.513458976177 1.99999999999436 16.5
vertex 20.513458976177 -5.6399329650958e-012 16.5
endloop
endfacet
facet normal 1.0 0.0 0.0
outer loop
vertex 20.513458976177 1.99999999999436 16.5
vertex 20.513458976177 0.0 2.65235171889242e-015
vertex 20.513458976177 2.0 2.65235171889242e-015
endloop
endfacet
facet normal 0.0 -1.0 -3.41814119096715e-013
outer loop
vertex 20.513458976177 -5.6399329650958e-012 16.5
vertex 15.513458976177 0.0 2.974504830524e-015
vertex 20.513458976177 0.0 2.65235171889242e-015
endloop
endfacet
facet normal 0.0 -1.0 -3.41814119096715e-013
outer loop
vertex 15.513458976177 0.0 2.974504830524e-015
vertex 20.513458976177 -5.6399329650958e-012 16.5
vertex 15.513458976177 -5.6399329650958e-012 16.5
endloop
endfacet
facet normal 0.382683432365089 1.0421266534842e-012 -0.923879532511287
outer loop
vertex 18.013458976177 7.99999999997609 21.2000000000068
vertex 16.4578240575666 1.99999999997681 20.5556349186104
vertex 16.4578240575666 7.99999999997681 20.5556349186172
endloop
endfacet
facet normal 0.382683432365089 1.0421266534842e-012 -0.923879532511287
outer loop
vertex 16.4578240575666 1.99999999997681 20.5556349186104
vertex 18.013458976177 7.99999999997609 21.2000000000068
vertex 18.013458976177 1.99999999997609 21.2
endloop
endfacet
facet normal -0.944496796706162 -0.328520624941266 -3.28669491406774e-013
outer loop
vertex 5.92650245443986 7.9999999999718 25.0000000000068
vertex 8.01345897617705 2.0 2.8199664825479e-015
vertex 8.01345897617705 1.9999999999718 25.0
endloop
endfacet
facet normal -0.944496796706162 -0.328520624941266 -3.28669491406774e-013
outer loop
vertex 8.01345897617705 2.0 2.8199664825479e-015
vertex 5.92650245443986 7.9999999999718 25.0000000000068
vertex 0.0134589761770555 25.0 2.59521515388883e-011
endloop
endfacet
facet normal -0.944496796706162 -0.328520624941266 -3.28669491406774e-013
outer loop
vertex 0.0134589761770555 25.0 2.59521515388883e-011
vertex 5.92650245443986 7.9999999999718 25.0000000000068
vertex 0.0134589761770555 24.9999999999932 6.00000000002595
endloop
endfacet
facet normal -0.38268343236509 1.0421266534842e-012 -0.923879532511287
outer loop
vertex 19.5690938947874 7.99999999997681 20.5556349186172
vertex 18.013458976177 1.99999999997609 21.2
vertex 18.013458976177 7.99999999997609 21.2000000000068
endloop
endfacet
facet normal -0.38268343236509 1.0421266534842e-012 -0.923879532511287
outer loop
vertex 18.013458976177 1.99999999997609 21.2
vertex 19.5690938947874 7.99999999997681 20.5556349186172
vertex 19.5690938947874 1.99999999997681 20.5556349186104
endloop
endfacet
facet normal 0.944496796706126 0.328520624941369 3.70593387856864e-013
outer loop
vertex 2.51345897617706 24.9999999999932 6.00000000002595
vertex 8.42650245443986 7.9999999999718 25.0000000000068
vertex 8.42650245443986 7.99999999999323 6.00000000000677
endloop
endfacet
facet normal 0.98078528040323 -0.195090322016129 0.0
outer loop
vertex 9.13316493962965 24.6072704159266 3.15920845039841e-011
vertex 8.81345897617705 22.9999999999932 6.00000000002369
vertex 8.81345897617705 22.9999999999932 3.15920845039841e-011
endloop
endfacet
facet normal 0.98078528040323 -0.195090322016129 0.0
outer loop
vertex 8.81345897617705 22.9999999999932 6.00000000002369
vertex 9.13316493962965 24.6072704159266 3.15920845039841e-011
vertex 9.13316493962965 24.6072704159266 6.00000000002369
endloop
endfacet
facet normal -9.62023347644153e-015 1.02421907144434e-012 -1.0
outer loop
vertex 8.01345897617705 33.0 3.15920845039841e-011
vertex 9.13316493962965 24.6072704159266 3.15920845039841e-011
vertex 8.81345897617705 22.9999999999932 3.15920845039841e-011
endloop
endfacet
facet normal -9.62023347644153e-015 1.02421907144434e-012 -1.0
outer loop
vertex 9.13316493962965 24.6072704159266 3.15920845039841e-011
vertex 8.01345897617705 33.0 3.15920845039841e-011
vertex 10.0436104951936 25.9698484809767 3.15920845039841e-011
endloop
endfacet
facet normal -9.62023347644153e-015 1.02421907144434e-012 -1.0
outer loop
vertex 10.0436104951936 25.9698484809767 3.15920845039841e-011
vertex 8.01345897617705 33.0 3.15920845039841e-011
vertex 18.0134589761771 33.0 3.15892645375015e-011
endloop
endfacet
facet normal -9.62023347644153e-015 1.02421907144434e-012 -1.0
outer loop
vertex 10.0436104951936 25.9698484809767 3.15920845039841e-011
vertex 18.0134589761771 33.0 3.15892645375015e-011
vertex 11.4061885602437 26.8802940365406 3.15920845039841e-011
endloop
endfacet
facet normal -9.62023347644153e-015 1.02421907144434e-012 -1.0
outer loop
vertex 11.4061885602437 26.8802940365406 3.15920845039841e-011
vertex 18.0134589761771 33.0 3.15892645375015e-011
vertex 13.013458976177 27.1999999999932 3.15920845039841e-011
endloop
endfacet
facet normal -9.62023347644153e-015 1.02421907144434e-012 -1.0
outer loop
vertex 13.013458976177 27.1999999999932 3.15920845039841e-011
vertex 18.0134589761771 33.0 3.15892645375015e-011
vertex 14.6207293921104 26.8802940365406 3.15920845039841e-011
endloop
endfacet
facet normal -9.62023347644153e-015 1.02421907144434e-012 -1.0
outer loop
vertex 14.6207293921104 26.8802940365406 3.15920845039841e-011
vertex 18.0134589761771 33.0 3.15892645375015e-011
vertex 15.9833074571605 25.9698484809767 3.15920845039841e-011
endloop
endfacet
facet normal -9.62023347644153e-015 1.02421907144434e-012 -1.0
outer loop
vertex 15.9833074571605 25.9698484809767 3.15920845039841e-011
vertex 18.0134589761771 33.0 3.15892645375015e-011
vertex 16.8937530127244 24.6072704159266 3.15920845039841e-011
endloop
endfacet
facet normal -9.62023347644153e-015 1.02421907144434e-012 -1.0
outer loop
vertex 16.8937530127244 24.6072704159266 3.15920845039841e-011
vertex 18.0134589761771 33.0 3.15892645375015e-011
vertex 17.213458976177 22.9999999999932 3.15920845039841e-011
endloop
endfacet
facet normal -9.62023347644153e-015 1.02421907144434e-012 -1.0
outer loop
vertex 26.0134589761771 25.0 2.59493315724058e-011
vertex 20.513458976177 2.0 2.65235171889242e-015
vertex 18.0134589761771 33.0 3.15892645375015e-011
endloop
endfacet
facet normal -9.62023347644153e-015 1.02421907144434e-012 -1.0
outer loop
vertex 20.513458976177 2.0 2.65235171889242e-015
vertex 26.0134589761771 25.0 2.59493315724058e-011
vertex 28.013458976177 2.0 2.8199664825479e-015
endloop
endfacet
facet normal -9.62023347644153e-015 1.02421907144434e-012 -1.0
outer loop
vertex 28.013458976177 2.0 2.8199664825479e-015
vertex 26.0134589761771 25.0 2.59493315724058e-011
vertex 28.013458976177 8.0 6.77355949108005e-012
endloop
endfacet
facet normal -9.62023347644153e-015 1.02421907144434e-012 -1.0
outer loop
vertex 8.01345897617705 33.0 3.15920845039841e-011
vertex 8.01345897617705 2.0 2.8199664825479e-015
vertex 0.0134589761770555 25.0 2.59521515388883e-011
endloop
endfacet
facet normal -9.62023347644153e-015 1.02421907144434e-012 -1.0
outer loop
vertex 8.01345897617705 2.0 2.8199664825479e-015
vertex 8.01345897617705 33.0 3.15920845039841e-011
vertex 8.81345897617705 22.9999999999932 3.15920845039841e-011
endloop
endfacet
facet normal -9.62023347644153e-015 1.02421907144434e-012 -1.0
outer loop
vertex 8.01345897617705 2.0 2.8199664825479e-015
vertex 8.81345897617705 22.9999999999932 3.15920845039841e-011
vertex 9.13316493962965 21.3927295840598 3.15920845039841e-011
endloop
endfacet
facet normal -9.62023347644153e-015 1.02421907144434e-012 -1.0
outer loop
vertex 8.01345897617705 2.0 2.8199664825479e-015
vertex 9.13316493962965 21.3927295840598 3.15920845039841e-011
vertex 15.513458976177 2.0 2.974504830524e-015
endloop
endfacet
facet normal -9.62023347644153e-015 1.02421907144434e-012 -1.0
outer loop
vertex 15.513458976177 2.0 2.974504830524e-015
vertex 9.13316493962965 21.3927295840598 3.15920845039841e-011
vertex 10.0436104951936 20.0301515190097 3.15920845039841e-011
endloop
endfacet
facet normal -9.62023347644153e-015 1.02421907144434e-012 -1.0
outer loop
vertex 15.513458976177 2.0 2.974504830524e-015
vertex 10.0436104951936 20.0301515190097 3.15920845039841e-011
vertex 11.4061885602437 19.1197059634458 3.15920845039841e-011
endloop
endfacet
facet normal -9.62023347644153e-015 1.02421907144434e-012 -1.0
outer loop
vertex 15.513458976177 2.0 2.974504830524e-015
vertex 11.4061885602437 19.1197059634458 3.15920845039841e-011
vertex 13.013458976177 18.7999999999932 3.15920845039841e-011
endloop
endfacet
facet normal -9.62023347644153e-015 1.02421907144434e-012 -1.0
outer loop
vertex 15.513458976177 2.0 2.974504830524e-015
vertex 13.013458976177 18.7999999999932 3.15920845039841e-011
vertex 14.6207293921104 19.1197059634458 3.15920845039841e-011
endloop
endfacet
facet normal -9.62023347644153e-015 1.02421907144434e-012 -1.0
outer loop
vertex 15.513458976177 2.0 2.974504830524e-015
vertex 14.6207293921104 19.1197059634458 3.15920845039841e-011
vertex 15.9833074571605 20.0301515190097 3.15920845039841e-011
endloop
endfacet
facet normal -9.62023347644153e-015 1.02421907144434e-012 -1.0
outer loop
vertex 15.513458976177 2.0 2.974504830524e-015
vertex 15.9833074571605 20.0301515190097 3.15920845039841e-011
vertex 15.513458976177 0.0 2.974504830524e-015
endloop
endfacet
facet normal -9.62023347644153e-015 1.02421907144434e-012 -1.0
outer loop
vertex 15.513458976177 0.0 2.974504830524e-015
vertex 15.9833074571605 20.0301515190097 3.15920845039841e-011
vertex 20.513458976177 0.0 2.65235171889242e-015
endloop
endfacet
facet normal -9.62023347644153e-015 1.02421907144434e-012 -1.0
outer loop
vertex 20.513458976177 0.0 2.65235171889242e-015
vertex 15.9833074571605 20.0301515190097 3.15920845039841e-011
vertex 16.8937530127244 21.3927295840598 3.15920845039841e-011
endloop
endfacet
facet normal -9.62023347644153e-015 1.02421907144434e-012 -1.0
outer loop
vertex 20.513458976177 0.0 2.65235171889242e-015
vertex 16.8937530127244 21.3927295840598 3.15920845039841e-011
vertex 17.213458976177 22.9999999999932 3.15920845039841e-011
endloop
endfacet
facet normal -9.62023347644153e-015 1.02421907144434e-012 -1.0
outer loop
vertex 20.513458976177 0.0 2.65235171889242e-015
vertex 17.213458976177 22.9999999999932 3.15920845039841e-011
vertex 18.0134589761771 33.0 3.15892645375015e-011
endloop
endfacet
facet normal -9.62023347644153e-015 1.02421907144434e-012 -1.0
outer loop
vertex 20.513458976177 0.0 2.65235171889242e-015
vertex 18.0134589761771 33.0 3.15892645375015e-011
vertex 20.513458976177 2.0 2.65235171889242e-015
endloop
endfacet
facet normal 0.831469612302545 0.555570233019602 0.0
outer loop
vertex 9.13316493962965 21.3927295840598 3.15920845039841e-011
vertex 10.0436104951936 20.0301515190097 6.00000000002369
vertex 10.0436104951936 20.0301515190097 3.15920845039841e-011
endloop
endfacet
facet normal 0.831469612302545 0.555570233019602 0.0
outer loop
vertex 10.0436104951936 20.0301515190097 6.00000000002369
vertex 9.13316493962965 21.3927295840598 3.15920845039841e-011
vertex 9.13316493962965 21.3927295840598 6.00000000002369
endloop
endfacet
facet normal 7.22405479829455e-015 -1.0224804347902e-012 1.0
outer loop
vertex 2.51345897617706 24.9999999999932 6.00000000002595
vertex 8.01345897617705 32.9999999999932 6.00000000003159
vertex 0.0134589761770555 24.9999999999932 6.00000000002595
endloop
endfacet
facet normal 7.22405479829455e-015 -1.0224804347902e-012 1.0
outer loop
vertex 8.01345897617705 32.9999999999932 6.00000000003159
vertex 2.51345897617706 24.9999999999932 6.00000000002595
vertex 8.42650245443986 7.99999999999323 6.00000000000677
endloop
endfacet
facet normal 7.22405479829455e-015 -1.0224804347902e-012 1.0
outer loop
vertex 8.01345897617705 32.9999999999932 6.00000000003159
vertex 8.42650245443986 7.99999999999323 6.00000000000677
vertex 8.81345897617705 22.9999999999932 6.00000000002369
endloop
endfacet
facet normal 7.22405479829455e-015 -1.0224804347902e-012 1.0
outer loop
vertex 8.01345897617705 32.9999999999932 6.00000000003159
vertex 8.81345897617705 22.9999999999932 6.00000000002369
vertex 9.13316493962965 24.6072704159266 6.00000000002369
endloop
endfacet
facet normal 7.22405479829455e-015 -1.0224804347902e-012 1.0
outer loop
vertex 8.01345897617705 32.9999999999932 6.00000000003159
vertex 9.13316493962965 24.6072704159266 6.00000000002369
vertex 10.0436104951936 25.9698484809767 6.00000000002369
endloop
endfacet
facet normal 7.22405479829455e-015 -1.0224804347902e-012 1.0
outer loop
vertex 8.01345897617705 32.9999999999932 6.00000000003159
vertex 10.0436104951936 25.9698484809767 6.00000000002369
vertex 18.0134589761771 32.9999999999932 6.00000000003159
endloop
endfacet
facet normal 7.22405479829455e-015 -1.0224804347902e-012 1.0
outer loop
vertex 18.0134589761771 32.9999999999932 6.00000000003159
vertex 10.0436104951936 25.9698484809767 6.00000000002369
vertex 11.4061885602437 26.8802940365406 6.00000000002369
endloop
endfacet
facet normal 7.22405479829455e-015 -1.0224804347902e-012 1.0
outer loop
vertex 18.0134589761771 32.9999999999932 6.00000000003159
vertex 11.4061885602437 26.8802940365406 6.00000000002369
vertex 13.013458976177 27.1999999999932 6.00000000002369
endloop
endfacet
facet normal 7.22405479829455e-015 -1.0224804347902e-012 1.0
outer loop
vertex 18.0134589761771 32.9999999999932 6.00000000003159
vertex 13.013458976177 27.1999999999932 6.00000000002369
vertex 14.6207293921104 26.8802940365406 6.00000000002369
endloop
endfacet
facet normal 7.22405479829455e-015 -1.0224804347902e-012 1.0
outer loop
vertex 18.0134589761771 32.9999999999932 6.00000000003159
vertex 14.6207293921104 26.8802940365406 6.00000000002369
vertex 15.9833074571605 25.9698484809767 6.00000000002369
endloop
endfacet
facet normal 7.22405479829455e-015 -1.0224804347902e-012 1.0
outer loop
vertex 18.0134589761771 32.9999999999932 6.00000000003159
vertex 15.9833074571605 25.9698484809767 6.00000000002369
vertex 16.8937530127244 24.6072704159266 6.00000000002369
endloop
endfacet
facet normal 7.22405479829455e-015 -1.0224804347902e-012 1.0
outer loop
vertex 18.0134589761771 32.9999999999932 6.00000000003159
vertex 16.8937530127244 24.6072704159266 6.00000000002369
vertex 17.213458976177 22.9999999999932 6.00000000002369
endloop
endfacet
facet normal 7.22405479829455e-015 -1.0224804347902e-012 1.0
outer loop
vertex 8.42650245443986 7.99999999999323 6.00000000000677
vertex 9.13316493962965 21.3927295840598 6.00000000002369
vertex 8.81345897617705 22.9999999999932 6.00000000002369
endloop
endfacet
facet normal 7.22405479829455e-015 -1.0224804347902e-012 1.0
outer loop
vertex 9.13316493962965 21.3927295840598 6.00000000002369
vertex 8.42650245443986 7.99999999999323 6.00000000000677
vertex 10.0436104951936 20.0301515190097 6.00000000002369
endloop
endfacet
facet normal 7.22405479829455e-015 -1.0224804347902e-012 1.0
outer loop
vertex 10.0436104951936 20.0301515190097 6.00000000002369
vertex 8.42650245443986 7.99999999999323 6.00000000000677
vertex 25.513458976177 7.99999999999323 6.00000000000677
endloop
endfacet
facet normal 7.22405479829455e-015 -1.0224804347902e-012 1.0
outer loop
vertex 10.0436104951936 20.0301515190097 6.00000000002369
vertex 25.513458976177 7.99999999999323 6.00000000000677
vertex 11.4061885602437 19.1197059634458 6.00000000002369
endloop
endfacet
facet normal 7.22405479829455e-015 -1.0224804347902e-012 1.0
outer loop
vertex 11.4061885602437 19.1197059634458 6.00000000002369
vertex 25.513458976177 7.99999999999323 6.00000000000677
vertex 13.013458976177 18.7999999999932 6.00000000002369
endloop
endfacet
facet normal 7.22405479829455e-015 -1.0224804347902e-012 1.0
outer loop
vertex 13.013458976177 18.7999999999932 6.00000000002369
vertex 25.513458976177 7.99999999999323 6.00000000000677
vertex 14.6207293921104 19.1197059634458 6.00000000002369
endloop
endfacet
facet normal 7.22405479829455e-015 -1.0224804347902e-012 1.0
outer loop
vertex 14.6207293921104 19.1197059634458 6.00000000002369
vertex 25.513458976177 7.99999999999323 6.00000000000677
vertex 15.9833074571605 20.0301515190097 6.00000000002369
endloop
endfacet
facet normal 7.22405479829455e-015 -1.0224804347902e-012 1.0
outer loop
vertex 15.9833074571605 20.0301515190097 6.00000000002369
vertex 25.513458976177 7.99999999999323 6.00000000000677
vertex 16.8937530127244 21.3927295840598 6.00000000002369
endloop
endfacet
facet normal 7.22405479829455e-015 -1.0224804347902e-012 1.0
outer loop
vertex 16.8937530127244 21.3927295840598 6.00000000002369
vertex 25.513458976177 7.99999999999323 6.00000000000677
vertex 17.213458976177 22.9999999999932 6.00000000002369
endloop
endfacet
facet normal 7.22405479829455e-015 -1.0224804347902e-012 1.0
outer loop
vertex 17.213458976177 22.9999999999932 6.00000000002369
vertex 25.513458976177 7.99999999999323 6.00000000000677
vertex 18.0134589761771 32.9999999999932 6.00000000003159
endloop
endfacet
facet normal 7.22405479829455e-015 -1.0224804347902e-012 1.0
outer loop
vertex 18.0134589761771 32.9999999999932 6.00000000003159
vertex 25.513458976177 7.99999999999323 6.00000000000677
vertex 23.5134589761771 24.9999999999932 6.00000000002595
endloop
endfacet
facet normal 7.22405479829455e-015 -1.0224804347902e-012 1.0
outer loop
vertex 26.0134589761771 24.9999999999932 6.00000000002595
vertex 18.0134589761771 32.9999999999932 6.00000000003159
vertex 23.5134589761771 24.9999999999932 6.00000000002595
endloop
endfacet
facet normal 0.923879532511287 -4.31664076088224e-013 0.382683432365089
outer loop
vertex 16.4578240575666 1.99999999998032 17.4443650813896
vertex 15.813458976177 7.99999999997857 19.0000000000068
vertex 15.813458976177 1.99999999997857 19.0
endloop
endfacet
facet normal 0.923879532511287 -4.31664076088224e-013 0.382683432365089
outer loop
vertex 15.813458976177 7.99999999997857 19.0000000000068
vertex 16.4578240575666 1.99999999998032 17.4443650813896
vertex 16.4578240575666 7.99999999998032 17.4443650813964
endloop
endfacet
facet normal -0.555570233019601 -0.831469612302546 0.0
outer loop
vertex 15.9833074571605 25.9698484809767 6.00000000002369
vertex 14.6207293921104 26.8802940365406 3.15920845039841e-011
vertex 15.9833074571605 25.9698484809767 3.15920845039841e-011
endloop
endfacet
facet normal -0.555570233019601 -0.831469612302546 0.0
outer loop
vertex 14.6207293921104 26.8802940365406 3.15920845039841e-011
vertex 15.9833074571605 25.9698484809767 6.00000000002369
vertex 14.6207293921104 26.8802940365406 6.00000000002369
endloop
endfacet
facet normal 4.76985109373801e-016 0.745241313524347 0.666794859470666
outer loop
vertex 25.513458976177 7.9999999999718 25.0000000000068
vertex 26.0134589761771 24.9999999999932 6.00000000002595
vertex 23.5134589761771 24.9999999999932 6.00000000002595
endloop
endfacet
facet normal 4.76985109373801e-016 0.745241313524347 0.666794859470666
outer loop
vertex 26.0134589761771 24.9999999999932 6.00000000002595
vertex 25.513458976177 7.9999999999718 25.0000000000068
vertex 28.013458976177 7.9999999999718 25.0000000000068
endloop
endfacet
facet normal 0.0 0.0 1.0
outer loop
vertex 20.513458976177 -5.6399329650958e-012 16.5
vertex 15.513458976177 1.99999999999436 16.5
vertex 15.513458976177 -5.6399329650958e-012 16.5
endloop
endfacet
facet normal 0.0 0.0 1.0
outer loop
vertex 15.513458976177 1.99999999999436 16.5
vertex 20.513458976177 -5.6399329650958e-012 16.5
vertex 20.513458976177 1.99999999999436 16.5
endloop
endfacet
facet normal -0.98078528040323 0.195090322016129 0.0
outer loop
vertex 17.213458976177 22.9999999999932 6.00000000002369
vertex 16.8937530127244 21.3927295840598 3.15920845039841e-011
vertex 16.8937530127244 21.3927295840598 6.00000000002369
endloop
endfacet
facet normal -0.98078528040323 0.195090322016129 0.0
outer loop
vertex 16.8937530127244 21.3927295840598 3.15920845039841e-011
vertex 17.213458976177 22.9999999999932 6.00000000002369
vertex 17.213458976177 22.9999999999932 3.15920845039841e-011
endloop
endfacet
facet normal -1.0 0.0 0.0
outer loop
vertex 15.513458976177 1.99999999999436 16.5
vertex 15.513458976177 0.0 2.974504830524e-015
vertex 15.513458976177 -5.6399329650958e-012 16.5
endloop
endfacet
facet normal -1.0 0.0 0.0
outer loop
vertex 15.513458976177 0.0 2.974504830524e-015
vertex 15.513458976177 1.99999999999436 16.5
vertex 15.513458976177 2.0 2.974504830524e-015
endloop
endfacet
facet normal -0.923879532511286 4.31661823525842e-013 -0.382683432365091
outer loop
vertex 19.5690938947874 7.99999999997681 20.5556349186172
vertex 20.213458976177 1.99999999997857 19.0
vertex 19.5690938947874 1.99999999997681 20.5556349186104
endloop
endfacet
facet normal -0.923879532511286 4.31661823525842e-013 -0.382683432365091
outer loop
vertex 20.213458976177 1.99999999997857 19.0
vertex 19.5690938947874 7.99999999997681 20.5556349186172
vertex 20.213458976177 7.99999999997857 19.0000000000068
endloop
endfacet
facet normal 0.923879532511287 4.31661823525839e-013 -0.382683432365089
outer loop
vertex 15.813458976177 1.99999999997857 19.0
vertex 16.4578240575666 7.99999999997681 20.5556349186172
vertex 16.4578240575666 1.99999999997681 20.5556349186104
endloop
endfacet
facet normal 0.923879532511287 4.31661823525839e-013 -0.382683432365089
outer loop
vertex 16.4578240575666 7.99999999997681 20.5556349186172
vertex 15.813458976177 1.99999999997857 19.0
vertex 15.813458976177 7.99999999997857 19.0000000000068
endloop
endfacet
facet normal -2.65290674332028e-028 -1.0 -9.57760809934471e-013
outer loop
vertex 28.013458976177 2.0 2.8199664825479e-015
vertex 20.513458976177 1.99999999999436 16.5
vertex 20.513458976177 2.0 2.65235171889242e-015
endloop
endfacet
facet normal -2.65290674332028e-028 -1.0 -9.57760809934471e-013
outer loop
vertex 20.513458976177 1.99999999999436 16.5
vertex 28.013458976177 2.0 2.8199664825479e-015
vertex 28.013458976177 1.9999999999718 25.0
endloop
endfacet
facet normal -2.65290674332028e-028 -1.0 -9.57760809934471e-013
outer loop
vertex 20.513458976177 1.99999999999436 16.5
vertex 28.013458976177 1.9999999999718 25.0
vertex 19.5690938947874 1.99999999998032 17.4443650813896
endloop
endfacet
facet normal -2.65290674332028e-028 -1.0 -9.57760809934471e-013
outer loop
vertex 20.513458976177 1.99999999999436 16.5
vertex 19.5690938947874 1.99999999998032 17.4443650813896
vertex 18.013458976177 1.99999999998105 16.8
endloop
endfacet
facet normal -2.65290674332028e-028 -1.0 -9.57760809934471e-013
outer loop
vertex 20.513458976177 1.99999999999436 16.5
vertex 18.013458976177 1.99999999998105 16.8
vertex 15.513458976177 1.99999999999436 16.5
endloop
endfacet
facet normal -2.65290674332028e-028 -1.0 -9.57760809934471e-013
outer loop
vertex 19.5690938947874 1.99999999998032 17.4443650813896
vertex 28.013458976177 1.9999999999718 25.0
vertex 20.213458976177 1.99999999997857 19.0
endloop
endfacet
facet normal -2.65290674332028e-028 -1.0 -9.57760809934471e-013
outer loop
vertex 20.213458976177 1.99999999997857 19.0
vertex 28.013458976177 1.9999999999718 25.0
vertex 19.5690938947874 1.99999999997681 20.5556349186104
endloop
endfacet
facet normal -2.65290674332028e-028 -1.0 -9.57760809934471e-013
outer loop
vertex 19.5690938947874 1.99999999997681 20.5556349186104
vertex 28.013458976177 1.9999999999718 25.0
vertex 18.013458976177 1.99999999997609 21.2
endloop
endfacet
facet normal -2.65290674332028e-028 -1.0 -9.57760809934471e-013
outer loop
vertex 15.513458976177 2.0 2.974504830524e-015
vertex 8.01345897617705 1.9999999999718 25.0
vertex 8.01345897617705 2.0 2.8199664825479e-015
endloop
endfacet
facet normal -2.65290674332028e-028 -1.0 -9.57760809934471e-013
outer loop
vertex 8.01345897617705 1.9999999999718 25.0
vertex 15.513458976177 2.0 2.974504830524e-015
vertex 15.513458976177 1.99999999999436 16.5
endloop
endfacet
facet normal -2.65290674332028e-028 -1.0 -9.57760809934471e-013
outer loop
vertex 8.01345897617705 1.9999999999718 25.0
vertex 15.513458976177 1.99999999999436 16.5
vertex 16.4578240575666 1.99999999998032 17.4443650813896
endloop
endfacet
facet normal -2.65290674332028e-028 -1.0 -9.57760809934471e-013
outer loop
vertex 16.4578240575666 1.99999999998032 17.4443650813896
vertex 15.513458976177 1.99999999999436 16.5
vertex 18.013458976177 1.99999999998105 16.8
endloop
endfacet
facet normal -2.65290674332028e-028 -1.0 -9.57760809934471e-013
outer loop
vertex 8.01345897617705 1.9999999999718 25.0
vertex 16.4578240575666 1.99999999998032 17.4443650813896
vertex 15.813458976177 1.99999999997857 19.0
endloop
endfacet
facet normal -2.65290674332028e-028 -1.0 -9.57760809934471e-013
outer loop
vertex 8.01345897617705 1.9999999999718 25.0
vertex 15.813458976177 1.99999999997857 19.0
vertex 16.4578240575666 1.99999999997681 20.5556349186104
endloop
endfacet
facet normal -2.65290674332028e-028 -1.0 -9.57760809934471e-013
outer loop
vertex 8.01345897617705 1.9999999999718 25.0
vertex 16.4578240575666 1.99999999997681 20.5556349186104
vertex 18.013458976177 1.99999999997609 21.2
endloop
endfacet
facet normal -2.65290674332028e-028 -1.0 -9.57760809934471e-013
outer loop
vertex 8.01345897617705 1.9999999999718 25.0
vertex 18.013458976177 1.99999999997609 21.2
vertex 28.013458976177 1.9999999999718 25.0
endloop
endfacet
facet normal -0.195090322016129 0.98078528040323 0.0
outer loop
vertex 13.013458976177 18.7999999999932 6.00000000002369
vertex 14.6207293921104 19.1197059634458 3.15920845039841e-011
vertex 13.013458976177 18.7999999999932 3.15920845039841e-011
endloop
endfacet
facet normal -0.195090322016129 0.98078528040323 0.0
outer loop
vertex 14.6207293921104 19.1197059634458 3.15920845039841e-011
vertex 13.013458976177 18.7999999999932 6.00000000002369
vertex 14.6207293921104 19.1197059634458 6.00000000002369
endloop
endfacet
facet normal 0.555570233019601 -0.831469612302546 0.0
outer loop
vertex 11.4061885602437 26.8802940365406 6.00000000002369
vertex 10.0436104951936 25.9698484809767 3.15920845039841e-011
vertex 11.4061885602437 26.8802940365406 3.15920845039841e-011
endloop
endfacet
facet normal 0.555570233019601 -0.831469612302546 0.0
outer loop
vertex 10.0436104951936 25.9698484809767 3.15920845039841e-011
vertex 11.4061885602437 26.8802940365406 6.00000000002369
vertex 10.0436104951936 25.9698484809767 6.00000000002369
endloop
endfacet
facet normal 0.831469612302546 -0.555570233019602 0.0
outer loop
vertex 10.0436104951936 25.9698484809767 3.15920845039841e-011
vertex 9.13316493962965 24.6072704159266 6.00000000002369
vertex 9.13316493962965 24.6072704159266 3.15920845039841e-011
endloop
endfacet
facet normal 0.831469612302546 -0.555570233019602 0.0
outer loop
vertex 9.13316493962965 24.6072704159266 6.00000000002369
vertex 10.0436104951936 25.9698484809767 3.15920845039841e-011
vertex 10.0436104951936 25.9698484809767 6.00000000002369
endloop
endfacet
facet normal 0.707106781186547 0.707106781186548 7.97618739253088e-013
outer loop
vertex 18.0134589761771 33.0 3.15892645375015e-011
vertex 26.0134589761771 24.9999999999932 6.00000000002595
vertex 26.0134589761771 25.0 2.59493315724058e-011
endloop
endfacet
facet normal 0.707106781186547 0.707106781186548 7.97618739253088e-013
outer loop
vertex 26.0134589761771 24.9999999999932 6.00000000002595
vertex 18.0134589761771 33.0 3.15892645375015e-011
vertex 18.0134589761771 32.9999999999932 6.00000000003159
endloop
endfacet
facet normal 0.382683432365089 -1.04212531583084e-012 0.923879532511287
outer loop
vertex 18.013458976177 1.99999999998105 16.8
vertex 16.4578240575666 7.99999999998032 17.4443650813964
vertex 16.4578240575666 1.99999999998032 17.4443650813896
endloop
endfacet
facet normal 0.382683432365089 -1.04212531583084e-012 0.923879532511287
outer loop
vertex 16.4578240575666 7.99999999998032 17.4443650813964
vertex 18.013458976177 1.99999999998105 16.8
vertex 18.013458976177 7.99999999998105 16.8000000000068
endloop
endfacet
endsolid m8 Y Idler 2
