solid B Spacer
facet normal -6.17182242739019e-009 -1.0 2.67901686662764e-013
outer loop
vertex 18.9999999814845 -9.87464899626644e-008 15.0000000000008
vertex 10.9999999814845 -4.93745901053444e-008 5.0000000000008
vertex 18.9999999814845 -9.87491689308229e-008 5.0000000000008
endloop
endfacet
facet normal -6.17182242739019e-009 -1.0 2.67901686662764e-013
outer loop
vertex 10.9999999814845 -4.93745901053444e-008 5.0000000000008
vertex 18.9999999814845 -9.87464899626644e-008 15.0000000000008
vertex 10.9999999814845 -4.9371911137186e-008 15.0000000000008
endloop
endfacet
facet normal -4.5874794819561e-009 -0.743294146246987 0.668964731622649
outer loop
vertex 19.0000000092577 4.49999990125485 19.9999999999996
vertex 10.9999999814845 -4.9371911137186e-008 15.0000000000008
vertex 18.9999999814845 -9.87464899626644e-008 15.0000000000008
endloop
endfacet
facet normal -4.5874794819561e-009 -0.743294146246987 0.668964731622649
outer loop
vertex 10.9999999814845 -4.9371911137186e-008 15.0000000000008
vertex 19.0000000092577 4.49999990125485 19.9999999999996
vertex 11.0000000092577 4.49999995062943 19.9999999999996
endloop
endfacet
facet normal 5.13526666731091e-009 0.832050294337992 0.554700196225006
outer loop
vertex 11.000000070976 14.4999999506294 19.9999999999969
vertex 19.0000001018351 19.4999999012528 12.4999999999956
vertex 11.0000001018351 19.4999999506274 12.4999999999956
endloop
endfacet
facet normal 5.13526666731091e-009 0.832050294337992 0.554700196225006
outer loop
vertex 19.0000001018351 19.4999999012528 12.4999999999956
vertex 11.000000070976 14.4999999506294 19.9999999999969
vertex 19.000000070976 14.4999999012548 19.9999999999969
endloop
endfacet
facet normal -5.29229407024111e-009 -0.857492925712682 -0.514495755427296
outer loop
vertex 19.0 2.99999990124948 1.60750309975221e-016
vertex 10.9999999814845 -4.93745901053444e-008 5.0000000000008
vertex 11.0 2.99999995062406 1.6073708354e-016
endloop
endfacet
facet normal -5.29229407024111e-009 -0.857492925712682 -0.514495755427296
outer loop
vertex 10.9999999814845 -4.93745901053444e-008 5.0000000000008
vertex 19.0 2.99999990124948 1.60750309975221e-016
vertex 18.9999999814845 -9.87491689308229e-008 5.0000000000008
endloop
endfacet
facet normal -5.13526666731091e-009 -0.832050294337695 0.554700196225452
outer loop
vertex 19.0000001326942 24.4999999012548 19.9999999999942
vertex 11.0000001018351 19.4999999506274 12.4999999999956
vertex 19.0000001018351 19.4999999012528 12.4999999999956
endloop
endfacet
facet normal -5.13526666731091e-009 -0.832050294337695 0.554700196225452
outer loop
vertex 11.0000001018351 19.4999999506274 12.4999999999956
vertex 19.0000001326942 24.4999999012548 19.9999999999942
vertex 11.0000001326942 24.4999999506294 19.9999999999942
endloop
endfacet
facet normal 2.36185419046151e-009 0.382683432364841 -0.92387953251139
outer loop
vertex 11.0000000401168 9.49999995062733 12.1999999999983
vertex 19.0000000305157 7.94436498264218 11.5556349186091
vertex 11.0000000305157 7.94436503201676 11.5556349186091
endloop
endfacet
facet normal 2.36185419046151e-009 0.382683432364841 -0.92387953251139
outer loop
vertex 19.0000000305157 7.94436498264218 11.5556349186091
vertex 11.0000000401168 9.49999995062733 12.1999999999983
vertex 19.0000000401168 9.49999990125275 12.1999999999983
endloop
endfacet
facet normal 5.70202041895993e-009 0.923879532511185 -0.382683432365336
outer loop
vertex 11.0000001539522 27.9443650320168 11.5556349186037
vertex 19.0000001499753 27.2999999012522 9.99999999999349
vertex 11.0000001499753 27.2999999506267 9.99999999999349
endloop
endfacet
facet normal 5.70202041895993e-009 0.923879532511185 -0.382683432365336
outer loop
vertex 19.0000001499753 27.2999999012522 9.99999999999349
vertex 11.0000001539522 27.9443650320168 11.5556349186037
vertex 19.0000001539522 27.9443649826422 11.5556349186037
endloop
endfacet
facet normal -2.36185419046151e-009 -0.382683432364841 0.92387953251139
outer loop
vertex 19.0000001635533 29.4999999012516 7.7999999999929
vertex 11.0000001731544 31.0556348692367 8.44436508138207
vertex 11.0000001635533 29.4999999506262 7.7999999999929
endloop
endfacet
facet normal -2.36185419046151e-009 -0.382683432364841 0.92387953251139
outer loop
vertex 11.0000001731544 31.0556348692367 8.44436508138207
vertex 19.0000001635533 29.4999999012516 7.7999999999929
vertex 19.0000001731544 31.0556348198622 8.44436508138207
endloop
endfacet
facet normal 5.70202041895993e-009 0.92387953251139 0.382683432364841
outer loop
vertex 11.0000001499753 27.2999999506267 9.99999999999349
vertex 19.0000001539522 27.9443649826413 8.44436508138291
vertex 11.0000001539522 27.9443650320159 8.44436508138291
endloop
endfacet
facet normal 5.70202041895993e-009 0.92387953251139 0.382683432364841
outer loop
vertex 19.0000001539522 27.9443649826413 8.44436508138291
vertex 11.0000001499753 27.2999999506267 9.99999999999349
vertex 19.0000001499753 27.2999999012522 9.99999999999349
endloop
endfacet
facet normal 5.70202041895993e-009 0.92387953251139 0.382683432364841
outer loop
vertex 11.0000000265388 7.29999995062674 9.99999999999885
vertex 19.0000000305157 7.94436498264134 8.44436508138827
vertex 11.0000000305157 7.94436503201592 8.44436508138827
endloop
endfacet
facet normal 5.70202041895993e-009 0.92387953251139 0.382683432364841
outer loop
vertex 19.0000000305157 7.94436498264134 8.44436508138827
vertex 11.0000000265388 7.29999995062674 9.99999999999885
vertex 19.0000000265388 7.29999990125217 9.99999999999885
endloop
endfacet
facet normal 5.29229407024111e-009 0.857492925712406 -0.514495755427756
outer loop
vertex 11.0000002221856 38.9999999506254 4.99999999999036
vertex 19.0000002036701 35.9999999012495 -8.84059490956123e-012
vertex 11.0000002036701 35.9999999506241 -8.84059492278766e-012
endloop
endfacet
facet normal 5.29229407024111e-009 0.857492925712406 -0.514495755427756
outer loop
vertex 19.0000002036701 35.9999999012495 -8.84059490956123e-012
vertex 11.0000002221856 38.9999999506254 4.99999999999036
vertex 19.0000002221856 38.9999999012508 4.99999999999036
endloop
endfacet
facet normal 2.36185419046151e-009 0.382683432365336 0.923879532511185
outer loop
vertex 19.0000000305157 7.94436498264134 8.44436508138827
vertex 11.0000000401168 9.49999995062615 7.79999999999826
vertex 11.0000000305157 7.94436503201592 8.44436508138827
endloop
endfacet
facet normal 2.36185419046151e-009 0.382683432365336 0.923879532511185
outer loop
vertex 11.0000000401168 9.49999995062615 7.79999999999826
vertex 19.0000000305157 7.94436498264134 8.44436508138827
vertex 19.0000000401168 9.49999990125158 7.79999999999826
endloop
endfacet
facet normal -5.70202041895993e-009 -0.92387953251139 -0.382683432364841
outer loop
vertex 19.0000000497179 11.055634819863 11.5556349186082
vertex 11.0000000536949 11.6999999506267 9.99999999999767
vertex 19.0000000536949 11.6999999012522 9.99999999999767
endloop
endfacet
facet normal -5.70202041895993e-009 -0.92387953251139 -0.382683432364841
outer loop
vertex 11.0000000536949 11.6999999506267 9.99999999999767
vertex 19.0000000497179 11.055634819863 11.5556349186082
vertex 11.000000049718 11.0556348692376 11.5556349186082
endloop
endfacet
facet normal -2.36185419046151e-009 -0.382683432365336 -0.923879532511185
outer loop
vertex 11.000000049718 11.0556348692376 11.5556349186082
vertex 19.0000000401168 9.49999990125275 12.1999999999983
vertex 11.0000000401168 9.49999995062733 12.1999999999983
endloop
endfacet
facet normal -2.36185419046151e-009 -0.382683432365336 -0.923879532511185
outer loop
vertex 19.0000000401168 9.49999990125275 12.1999999999983
vertex 11.000000049718 11.0556348692376 11.5556349186082
vertex 19.0000000497179 11.055634819863 11.5556349186082
endloop
endfacet
facet normal 3.61815305772998e-024 2.68465679959273e-013 1.0
outer loop
vertex 19.0000001326942 24.4999999012548 19.9999999999942
vertex 11.0000001944124 34.4999999506294 19.9999999999916
vertex 11.0000001326942 24.4999999506294 19.9999999999942
endloop
endfacet
facet normal 3.61815305772998e-024 2.68465679959273e-013 1.0
outer loop
vertex 11.0000001944124 34.4999999506294 19.9999999999916
vertex 19.0000001326942 24.4999999012548 19.9999999999942
vertex 19.0000001944124 34.4999999012548 19.9999999999916
endloop
endfacet
facet normal -2.36185419046151e-009 -0.382683432364841 0.92387953251139
outer loop
vertex 19.0000000401168 9.49999990125158 7.79999999999826
vertex 11.000000049718 11.0556348692367 8.44436508138743
vertex 11.0000000401168 9.49999995062615 7.79999999999826
endloop
endfacet
facet normal -2.36185419046151e-009 -0.382683432364841 0.92387953251139
outer loop
vertex 11.000000049718 11.0556348692367 8.44436508138743
vertex 19.0000000401168 9.49999990125158 7.79999999999826
vertex 19.0000000497179 11.0556348198622 8.44436508138743
endloop
endfacet
facet normal 2.36185419046151e-009 0.382683432364841 -0.92387953251139
outer loop
vertex 11.0000001635533 29.4999999506273 12.1999999999929
vertex 19.0000001539522 27.9443649826422 11.5556349186037
vertex 11.0000001539522 27.9443650320168 11.5556349186037
endloop
endfacet
facet normal 2.36185419046151e-009 0.382683432364841 -0.92387953251139
outer loop
vertex 19.0000001539522 27.9443649826422 11.5556349186037
vertex 11.0000001635533 29.4999999506273 12.1999999999929
vertex 19.0000001635533 29.4999999012528 12.1999999999929
endloop
endfacet
facet normal 2.36185419046151e-009 0.382683432365336 0.923879532511185
outer loop
vertex 19.0000001539522 27.9443649826413 8.44436508138291
vertex 11.0000001635533 29.4999999506262 7.7999999999929
vertex 11.0000001539522 27.9443650320159 8.44436508138291
endloop
endfacet
facet normal 2.36185419046151e-009 0.382683432365336 0.923879532511185
outer loop
vertex 11.0000001635533 29.4999999506262 7.7999999999929
vertex 19.0000001539522 27.9443649826413 8.44436508138291
vertex 19.0000001635533 29.4999999012516 7.7999999999929
endloop
endfacet
facet normal -5.70202041895993e-009 -0.92387953251139 -0.382683432364841
outer loop
vertex 19.0000001731544 31.055634819863 11.5556349186029
vertex 11.0000001771313 31.6999999506268 9.99999999999231
vertex 19.0000001771313 31.6999999012522 9.99999999999231
endloop
endfacet
facet normal -5.70202041895993e-009 -0.92387953251139 -0.382683432364841
outer loop
vertex 11.0000001771313 31.6999999506268 9.99999999999231
vertex 19.0000001731544 31.055634819863 11.5556349186029
vertex 11.0000001731544 31.0556348692376 11.5556349186029
endloop
endfacet
facet normal -2.36185419046151e-009 -0.382683432365336 -0.923879532511185
outer loop
vertex 11.0000001731544 31.0556348692376 11.5556349186029
vertex 19.0000001635533 29.4999999012528 12.1999999999929
vertex 11.0000001635533 29.4999999506273 12.1999999999929
endloop
endfacet
facet normal -2.36185419046151e-009 -0.382683432365336 -0.923879532511185
outer loop
vertex 19.0000001635533 29.4999999012528 12.1999999999929
vertex 11.0000001731544 31.0556348692376 11.5556349186029
vertex 19.0000001731544 31.055634819863 11.5556349186029
endloop
endfacet
facet normal -5.70202041895993e-009 -0.923879532511185 0.382683432365336
outer loop
vertex 19.0000001771313 31.6999999012522 9.99999999999231
vertex 11.0000001731544 31.0556348692367 8.44436508138207
vertex 19.0000001731544 31.0556348198622 8.44436508138207
endloop
endfacet
facet normal -5.70202041895993e-009 -0.923879532511185 0.382683432365336
outer loop
vertex 11.0000001731544 31.0556348692367 8.44436508138207
vertex 19.0000001771313 31.6999999012522 9.99999999999231
vertex 11.0000001771313 31.6999999506268 9.99999999999231
endloop
endfacet
facet normal 1.0 -6.17182242739019e-009 1.65330435149947e-021
outer loop
vertex 19.0 2.99999990124948 1.60750309975221e-016
vertex 18.9999999814845 -9.87464899626644e-008 15.0000000000008
vertex 18.9999999814845 -9.87491689308229e-008 5.0000000000008
endloop
endfacet
facet normal 1.0 -6.17182242739019e-009 1.65330435149947e-021
outer loop
vertex 18.9999999814845 -9.87464899626644e-008 15.0000000000008
vertex 19.0 2.99999990124948 1.60750309975221e-016
vertex 19.0000000092577 4.49999990125485 19.9999999999996
endloop
endfacet
facet normal 1.0 -6.17182242739019e-009 1.65330435149947e-021
outer loop
vertex 19.0000000092577 4.49999990125485 19.9999999999996
vertex 19.0 2.99999990124948 1.60750309975221e-016
vertex 19.0000000265388 7.29999990125217 9.99999999999885
endloop
endfacet
facet normal 1.0 -6.17182242739019e-009 1.65330435149947e-021
outer loop
vertex 19.0000000265388 7.29999990125217 9.99999999999885
vertex 19.0 2.99999990124948 1.60750309975221e-016
vertex 19.0000000305157 7.94436498264134 8.44436508138827
endloop
endfacet
facet normal 1.0 -6.17182242739019e-009 1.65330435149947e-021
outer loop
vertex 19.0000000305157 7.94436498264134 8.44436508138827
vertex 19.0 2.99999990124948 1.60750309975221e-016
vertex 19.0000000401168 9.49999990125158 7.79999999999826
endloop
endfacet
facet normal 1.0 -6.17182242739019e-009 1.65330435149947e-021
outer loop
vertex 19.0000000401168 9.49999990125158 7.79999999999826
vertex 19.0 2.99999990124948 1.60750309975221e-016
vertex 19.0000002036701 35.9999999012495 -8.84059490956123e-012
endloop
endfacet
facet normal 1.0 -6.17182242739019e-009 1.65330435149947e-021
outer loop
vertex 19.0000000401168 9.49999990125158 7.79999999999826
vertex 19.0000002036701 35.9999999012495 -8.84059490956123e-012
vertex 19.0000000497179 11.0556348198622 8.44436508138743
endloop
endfacet
facet normal 1.0 -6.17182242739019e-009 1.65330435149947e-021
outer loop
vertex 19.0000000497179 11.0556348198622 8.44436508138743
vertex 19.0000002036701 35.9999999012495 -8.84059490956123e-012
vertex 19.0000000536949 11.6999999012522 9.99999999999767
endloop
endfacet
facet normal 1.0 -6.17182242739019e-009 1.65330435149947e-021
outer loop
vertex 19.0000000536949 11.6999999012522 9.99999999999767
vertex 19.0000002036701 35.9999999012495 -8.84059490956123e-012
vertex 19.0000001018351 19.4999999012528 12.4999999999956
endloop
endfacet
facet normal 1.0 -6.17182242739019e-009 1.65330435149947e-021
outer loop
vertex 19.0000000536949 11.6999999012522 9.99999999999767
vertex 19.0000001018351 19.4999999012528 12.4999999999956
vertex 19.000000070976 14.4999999012548 19.9999999999969
endloop
endfacet
facet normal 1.0 -6.17182242739019e-009 1.65330435149947e-021
outer loop
vertex 19.0000001018351 19.4999999012528 12.4999999999956
vertex 19.0000002036701 35.9999999012495 -8.84059490956123e-012
vertex 19.0000001539522 27.9443649826413 8.44436508138291
endloop
endfacet
facet normal 1.0 -6.17182242739019e-009 1.65330435149947e-021
outer loop
vertex 19.0000001018351 19.4999999012528 12.4999999999956
vertex 19.0000001539522 27.9443649826413 8.44436508138291
vertex 19.0000001499753 27.2999999012522 9.99999999999349
endloop
endfacet
facet normal 1.0 -6.17182242739019e-009 1.65330435149947e-021
outer loop
vertex 19.0000001018351 19.4999999012528 12.4999999999956
vertex 19.0000001499753 27.2999999012522 9.99999999999349
vertex 19.0000001326942 24.4999999012548 19.9999999999942
endloop
endfacet
facet normal 1.0 -6.17182242739019e-009 1.65330435149947e-021
outer loop
vertex 19.0000001539522 27.9443649826413 8.44436508138291
vertex 19.0000002036701 35.9999999012495 -8.84059490956123e-012
vertex 19.0000001635533 29.4999999012516 7.7999999999929
endloop
endfacet
facet normal 1.0 -6.17182242739019e-009 1.65330435149947e-021
outer loop
vertex 19.0000001635533 29.4999999012516 7.7999999999929
vertex 19.0000002036701 35.9999999012495 -8.84059490956123e-012
vertex 19.0000001731544 31.0556348198622 8.44436508138207
endloop
endfacet
facet normal 1.0 -6.17182242739019e-009 1.65330435149947e-021
outer loop
vertex 19.0000001731544 31.0556348198622 8.44436508138207
vertex 19.0000002036701 35.9999999012495 -8.84059490956123e-012
vertex 19.0000001771313 31.6999999012522 9.99999999999231
endloop
endfacet
facet normal 1.0 -6.17182242739019e-009 1.65330435149947e-021
outer loop
vertex 19.0000001771313 31.6999999012522 9.99999999999231
vertex 19.0000002036701 35.9999999012495 -8.84059490956123e-012
vertex 19.0000001944124 34.4999999012548 19.9999999999916
endloop
endfacet
facet normal 1.0 -6.17182242739019e-009 1.65330435149947e-021
outer loop
vertex 19.0000001944124 34.4999999012548 19.9999999999916
vertex 19.0000002036701 35.9999999012495 -8.84059490956123e-012
vertex 19.0000002221856 38.9999999012535 14.9999999999904
endloop
endfacet
facet normal 1.0 -6.17182242739019e-009 1.65330435149947e-021
outer loop
vertex 19.0000002221856 38.9999999012535 14.9999999999904
vertex 19.0000002036701 35.9999999012495 -8.84059490956123e-012
vertex 19.0000002221856 38.9999999012508 4.99999999999036
endloop
endfacet
facet normal 1.0 -6.17182242739019e-009 1.65330435149947e-021
outer loop
vertex 19.0000001326942 24.4999999012548 19.9999999999942
vertex 19.0000001539522 27.9443649826422 11.5556349186037
vertex 19.0000001944124 34.4999999012548 19.9999999999916
endloop
endfacet
facet normal 1.0 -6.17182242739019e-009 1.65330435149947e-021
outer loop
vertex 19.0000001539522 27.9443649826422 11.5556349186037
vertex 19.0000001326942 24.4999999012548 19.9999999999942
vertex 19.0000001499753 27.2999999012522 9.99999999999349
endloop
endfacet
facet normal 1.0 -6.17182242739019e-009 1.65330435149947e-021
outer loop
vertex 19.0000001944124 34.4999999012548 19.9999999999916
vertex 19.0000001539522 27.9443649826422 11.5556349186037
vertex 19.0000001635533 29.4999999012528 12.1999999999929
endloop
endfacet
facet normal 1.0 -6.17182242739019e-009 1.65330435149947e-021
outer loop
vertex 19.0000001944124 34.4999999012548 19.9999999999916
vertex 19.0000001635533 29.4999999012528 12.1999999999929
vertex 19.0000001731544 31.055634819863 11.5556349186029
endloop
endfacet
facet normal 1.0 -6.17182242739019e-009 1.65330435149947e-021
outer loop
vertex 19.0000001944124 34.4999999012548 19.9999999999916
vertex 19.0000001731544 31.055634819863 11.5556349186029
vertex 19.0000001771313 31.6999999012522 9.99999999999231
endloop
endfacet
facet normal 1.0 -6.17182242739019e-009 1.65330435149947e-021
outer loop
vertex 19.0000000092577 4.49999990125485 19.9999999999996
vertex 19.0000000305157 7.94436498264218 11.5556349186091
vertex 19.000000070976 14.4999999012548 19.9999999999969
endloop
endfacet
facet normal 1.0 -6.17182242739019e-009 1.65330435149947e-021
outer loop
vertex 19.0000000305157 7.94436498264218 11.5556349186091
vertex 19.0000000092577 4.49999990125485 19.9999999999996
vertex 19.0000000265388 7.29999990125217 9.99999999999885
endloop
endfacet
facet normal 1.0 -6.17182242739019e-009 1.65330435149947e-021
outer loop
vertex 19.000000070976 14.4999999012548 19.9999999999969
vertex 19.0000000305157 7.94436498264218 11.5556349186091
vertex 19.0000000401168 9.49999990125275 12.1999999999983
endloop
endfacet
facet normal 1.0 -6.17182242739019e-009 1.65330435149947e-021
outer loop
vertex 19.000000070976 14.4999999012548 19.9999999999969
vertex 19.0000000401168 9.49999990125275 12.1999999999983
vertex 19.0000000497179 11.055634819863 11.5556349186082
endloop
endfacet
facet normal 1.0 -6.17182242739019e-009 1.65330435149947e-021
outer loop
vertex 19.000000070976 14.4999999012548 19.9999999999969
vertex 19.0000000497179 11.055634819863 11.5556349186082
vertex 19.0000000536949 11.6999999012522 9.99999999999767
endloop
endfacet
facet normal -5.70202041895993e-009 -0.923879532511185 0.382683432365336
outer loop
vertex 19.0000000536949 11.6999999012522 9.99999999999767
vertex 11.000000049718 11.0556348692367 8.44436508138743
vertex 19.0000000497179 11.0556348198622 8.44436508138743
endloop
endfacet
facet normal -5.70202041895993e-009 -0.923879532511185 0.382683432365336
outer loop
vertex 11.000000049718 11.0556348692367 8.44436508138743
vertex 19.0000000536949 11.6999999012522 9.99999999999767
vertex 11.0000000536949 11.6999999506267 9.99999999999767
endloop
endfacet
facet normal 4.5874794819561e-009 0.743294146247346 0.66896473162225
outer loop
vertex 11.0000001944124 34.4999999506294 19.9999999999916
vertex 19.0000002221856 38.9999999012535 14.9999999999904
vertex 11.0000002221856 38.9999999506281 14.9999999999904
endloop
endfacet
facet normal 4.5874794819561e-009 0.743294146247346 0.66896473162225
outer loop
vertex 19.0000002221856 38.9999999012535 14.9999999999904
vertex 11.0000001944124 34.4999999506294 19.9999999999916
vertex 19.0000001944124 34.4999999012548 19.9999999999916
endloop
endfacet
facet normal -1.3728658143443e-025 -2.67901686662764e-013 -1.0
outer loop
vertex 11.0000002036701 35.9999999506241 -8.84059492278766e-012
vertex 19.0 2.99999990124948 1.60750309975221e-016
vertex 11.0 2.99999995062406 1.6073708354e-016
endloop
endfacet
facet normal -1.3728658143443e-025 -2.67901686662764e-013 -1.0
outer loop
vertex 19.0 2.99999990124948 1.60750309975221e-016
vertex 11.0000002036701 35.9999999506241 -8.84059492278766e-012
vertex 19.0000002036701 35.9999999012495 -8.84059490956123e-012
endloop
endfacet
facet normal 6.17182242739019e-009 1.0 -2.67901686662764e-013
outer loop
vertex 11.0000002221856 38.9999999506281 14.9999999999904
vertex 19.0000002221856 38.9999999012508 4.99999999999036
vertex 11.0000002221856 38.9999999506254 4.99999999999036
endloop
endfacet
facet normal 6.17182242739019e-009 1.0 -2.67901686662764e-013
outer loop
vertex 19.0000002221856 38.9999999012508 4.99999999999036
vertex 11.0000002221856 38.9999999506281 14.9999999999904
vertex 19.0000002221856 38.9999999012535 14.9999999999904
endloop
endfacet
facet normal 1.3728658143443e-025 2.67901686662764e-013 1.0
outer loop
vertex 19.0000000092577 4.49999990125485 19.9999999999996
vertex 11.000000070976 14.4999999506294 19.9999999999969
vertex 11.0000000092577 4.49999995062943 19.9999999999996
endloop
endfacet
facet normal 1.3728658143443e-025 2.67901686662764e-013 1.0
outer loop
vertex 11.000000070976 14.4999999506294 19.9999999999969
vertex 19.0000000092577 4.49999990125485 19.9999999999996
vertex 19.000000070976 14.4999999012548 19.9999999999969
endloop
endfacet
facet normal 5.70202041895993e-009 0.923879532511185 -0.382683432365336
outer loop
vertex 11.0000000305157 7.94436503201676 11.5556349186091
vertex 19.0000000265388 7.29999990125217 9.99999999999885
vertex 11.0000000265388 7.29999995062674 9.99999999999885
endloop
endfacet
facet normal 5.70202041895993e-009 0.923879532511185 -0.382683432365336
outer loop
vertex 19.0000000265388 7.29999990125217 9.99999999999885
vertex 11.0000000305157 7.94436503201676 11.5556349186091
vertex 19.0000000305157 7.94436498264218 11.5556349186091
endloop
endfacet
facet normal -1.0 6.17182242739019e-009 -1.65330435149947e-021
outer loop
vertex 11.0000000092577 4.49999995062943 19.9999999999996
vertex 11.0000000305157 7.94436503201676 11.5556349186091
vertex 11.0000000265388 7.29999995062674 9.99999999999885
endloop
endfacet
facet normal -1.0 6.17182242739019e-009 -1.65330435149947e-021
outer loop
vertex 11.0000000305157 7.94436503201676 11.5556349186091
vertex 11.0000000092577 4.49999995062943 19.9999999999996
vertex 11.000000070976 14.4999999506294 19.9999999999969
endloop
endfacet
facet normal -1.0 6.17182242739019e-009 -1.65330435149947e-021
outer loop
vertex 11.0000000305157 7.94436503201676 11.5556349186091
vertex 11.000000070976 14.4999999506294 19.9999999999969
vertex 11.0000000401168 9.49999995062733 12.1999999999983
endloop
endfacet
facet normal -1.0 6.17182242739019e-009 -1.65330435149947e-021
outer loop
vertex 11.0000000401168 9.49999995062733 12.1999999999983
vertex 11.000000070976 14.4999999506294 19.9999999999969
vertex 11.000000049718 11.0556348692376 11.5556349186082
endloop
endfacet
facet normal -1.0 6.17182242739019e-009 -1.65330435149947e-021
outer loop
vertex 11.000000049718 11.0556348692376 11.5556349186082
vertex 11.000000070976 14.4999999506294 19.9999999999969
vertex 11.0000000536949 11.6999999506267 9.99999999999767
endloop
endfacet
facet normal -1.0 6.17182242739019e-009 -1.65330435149947e-021
outer loop
vertex 11.0000001326942 24.4999999506294 19.9999999999942
vertex 11.0000001539522 27.9443650320168 11.5556349186037
vertex 11.0000001499753 27.2999999506267 9.99999999999349
endloop
endfacet
facet normal -1.0 6.17182242739019e-009 -1.65330435149947e-021
outer loop
vertex 11.0000001539522 27.9443650320168 11.5556349186037
vertex 11.0000001326942 24.4999999506294 19.9999999999942
vertex 11.0000001944124 34.4999999506294 19.9999999999916
endloop
endfacet
facet normal -1.0 6.17182242739019e-009 -1.65330435149947e-021
outer loop
vertex 11.0000001539522 27.9443650320168 11.5556349186037
vertex 11.0000001944124 34.4999999506294 19.9999999999916
vertex 11.0000001635533 29.4999999506273 12.1999999999929
endloop
endfacet
facet normal -1.0 6.17182242739019e-009 -1.65330435149947e-021
outer loop
vertex 11.0000001635533 29.4999999506273 12.1999999999929
vertex 11.0000001944124 34.4999999506294 19.9999999999916
vertex 11.0000001731544 31.0556348692376 11.5556349186029
endloop
endfacet
facet normal -1.0 6.17182242739019e-009 -1.65330435149947e-021
outer loop
vertex 11.0000001731544 31.0556348692376 11.5556349186029
vertex 11.0000001944124 34.4999999506294 19.9999999999916
vertex 11.0000001771313 31.6999999506268 9.99999999999231
endloop
endfacet
facet normal -1.0 6.17182242739019e-009 -1.65330435149947e-021
outer loop
vertex 10.9999999814845 -4.9371911137186e-008 15.0000000000008
vertex 11.0 2.99999995062406 1.6073708354e-016
vertex 10.9999999814845 -4.93745901053444e-008 5.0000000000008
endloop
endfacet
facet normal -1.0 6.17182242739019e-009 -1.65330435149947e-021
outer loop
vertex 11.0 2.99999995062406 1.6073708354e-016
vertex 10.9999999814845 -4.9371911137186e-008 15.0000000000008
vertex 11.0000000092577 4.49999995062943 19.9999999999996
endloop
endfacet
facet normal -1.0 6.17182242739019e-009 -1.65330435149947e-021
outer loop
vertex 11.0 2.99999995062406 1.6073708354e-016
vertex 11.0000000092577 4.49999995062943 19.9999999999996
vertex 11.0000000265388 7.29999995062674 9.99999999999885
endloop
endfacet
facet normal -1.0 6.17182242739019e-009 -1.65330435149947e-021
outer loop
vertex 11.0 2.99999995062406 1.6073708354e-016
vertex 11.0000000265388 7.29999995062674 9.99999999999885
vertex 11.0000000305157 7.94436503201592 8.44436508138827
endloop
endfacet
facet normal -1.0 6.17182242739019e-009 -1.65330435149947e-021
outer loop
vertex 11.0 2.99999995062406 1.6073708354e-016
vertex 11.0000000305157 7.94436503201592 8.44436508138827
vertex 11.0000000401168 9.49999995062615 7.79999999999826
endloop
endfacet
facet normal -1.0 6.17182242739019e-009 -1.65330435149947e-021
outer loop
vertex 11.0 2.99999995062406 1.6073708354e-016
vertex 11.0000000401168 9.49999995062615 7.79999999999826
vertex 11.0000002036701 35.9999999506241 -8.84059492278766e-012
endloop
endfacet
facet normal -1.0 6.17182242739019e-009 -1.65330435149947e-021
outer loop
vertex 11.0000002036701 35.9999999506241 -8.84059492278766e-012
vertex 11.0000000401168 9.49999995062615 7.79999999999826
vertex 11.000000049718 11.0556348692367 8.44436508138743
endloop
endfacet
facet normal -1.0 6.17182242739019e-009 -1.65330435149947e-021
outer loop
vertex 11.0000002036701 35.9999999506241 -8.84059492278766e-012
vertex 11.000000049718 11.0556348692367 8.44436508138743
vertex 11.0000000536949 11.6999999506267 9.99999999999767
endloop
endfacet
facet normal -1.0 6.17182242739019e-009 -1.65330435149947e-021
outer loop
vertex 11.0000002036701 35.9999999506241 -8.84059492278766e-012
vertex 11.0000000536949 11.6999999506267 9.99999999999767
vertex 11.0000001018351 19.4999999506274 12.4999999999956
endloop
endfacet
facet normal -1.0 6.17182242739019e-009 -1.65330435149947e-021
outer loop
vertex 11.0000001018351 19.4999999506274 12.4999999999956
vertex 11.0000000536949 11.6999999506267 9.99999999999767
vertex 11.000000070976 14.4999999506294 19.9999999999969
endloop
endfacet
facet normal -1.0 6.17182242739019e-009 -1.65330435149947e-021
outer loop
vertex 11.0000002036701 35.9999999506241 -8.84059492278766e-012
vertex 11.0000001018351 19.4999999506274 12.4999999999956
vertex 11.0000001539522 27.9443650320159 8.44436508138291
endloop
endfacet
facet normal -1.0 6.17182242739019e-009 -1.65330435149947e-021
outer loop
vertex 11.0000001539522 27.9443650320159 8.44436508138291
vertex 11.0000001018351 19.4999999506274 12.4999999999956
vertex 11.0000001499753 27.2999999506267 9.99999999999349
endloop
endfacet
facet normal -1.0 6.17182242739019e-009 -1.65330435149947e-021
outer loop
vertex 11.0000001499753 27.2999999506267 9.99999999999349
vertex 11.0000001018351 19.4999999506274 12.4999999999956
vertex 11.0000001326942 24.4999999506294 19.9999999999942
endloop
endfacet
facet normal -1.0 6.17182242739019e-009 -1.65330435149947e-021
outer loop
vertex 11.0000002036701 35.9999999506241 -8.84059492278766e-012
vertex 11.0000001539522 27.9443650320159 8.44436508138291
vertex 11.0000001635533 29.4999999506262 7.7999999999929
endloop
endfacet
facet normal -1.0 6.17182242739019e-009 -1.65330435149947e-021
outer loop
vertex 11.0000002036701 35.9999999506241 -8.84059492278766e-012
vertex 11.0000001635533 29.4999999506262 7.7999999999929
vertex 11.0000001731544 31.0556348692367 8.44436508138207
endloop
endfacet
facet normal -1.0 6.17182242739019e-009 -1.65330435149947e-021
outer loop
vertex 11.0000002036701 35.9999999506241 -8.84059492278766e-012
vertex 11.0000001731544 31.0556348692367 8.44436508138207
vertex 11.0000001771313 31.6999999506268 9.99999999999231
endloop
endfacet
facet normal -1.0 6.17182242739019e-009 -1.65330435149947e-021
outer loop
vertex 11.0000002036701 35.9999999506241 -8.84059492278766e-012
vertex 11.0000001771313 31.6999999506268 9.99999999999231
vertex 11.0000001944124 34.4999999506294 19.9999999999916
endloop
endfacet
facet normal -1.0 6.17182242739019e-009 -1.65330435149947e-021
outer loop
vertex 11.0000002036701 35.9999999506241 -8.84059492278766e-012
vertex 11.0000001944124 34.4999999506294 19.9999999999916
vertex 11.0000002221856 38.9999999506281 14.9999999999904
endloop
endfacet
facet normal -1.0 6.17182242739019e-009 -1.65330435149947e-021
outer loop
vertex 11.0000002036701 35.9999999506241 -8.84059492278766e-012
vertex 11.0000002221856 38.9999999506281 14.9999999999904
vertex 11.0000002221856 38.9999999506254 4.99999999999036
endloop
endfacet
facet normal 1.0 -6.17182242739019e-009 1.65330435149947e-021
outer loop
vertex 8.0 2.99999995062406 1.75362772115688e-016
vertex 7.99999998148454 -4.9371911137186e-008 15.0000000000008
vertex 7.99999998148454 -4.93745901053444e-008 5.0000000000008
endloop
endfacet
facet normal 1.0 -6.17182242739019e-009 1.65330435149947e-021
outer loop
vertex 7.99999998148454 -4.9371911137186e-008 15.0000000000008
vertex 8.0 2.99999995062406 1.75362772115688e-016
vertex 8.00000000925774 4.49999995062943 19.9999999999996
endloop
endfacet
facet normal 1.0 -6.17182242739019e-009 1.65330435149947e-021
outer loop
vertex 8.00000000925774 4.49999995062943 19.9999999999996
vertex 8.0 2.99999995062406 1.75362772115688e-016
vertex 8.00000002653884 7.29999995062674 9.99999999999885
endloop
endfacet
facet normal 1.0 -6.17182242739019e-009 1.65330435149947e-021
outer loop
vertex 8.00000002653884 7.29999995062674 9.99999999999885
vertex 8.0 2.99999995062406 1.75362772115688e-016
vertex 8.00000003051574 7.94436503201592 8.44436508138827
endloop
endfacet
facet normal 1.0 -6.17182242739019e-009 1.65330435149947e-021
outer loop
vertex 8.00000003051574 7.94436503201592 8.44436508138827
vertex 8.0 2.99999995062406 1.75362772115688e-016
vertex 8.00000004011685 9.49999995062615 7.79999999999826
endloop
endfacet
facet normal 1.0 -6.17182242739019e-009 1.65330435149947e-021
outer loop
vertex 8.00000004011685 9.49999995062615 7.79999999999826
vertex 8.0 2.99999995062406 1.75362772115688e-016
vertex 8.00000020367014 35.9999999506241 -8.84058029709908e-012
endloop
endfacet
facet normal 1.0 -6.17182242739019e-009 1.65330435149947e-021
outer loop
vertex 8.00000004011685 9.49999995062615 7.79999999999826
vertex 8.00000020367014 35.9999999506241 -8.84058029709908e-012
vertex 8.00000004971795 11.0556348692367 8.44436508138743
endloop
endfacet
facet normal 1.0 -6.17182242739019e-009 1.65330435149947e-021
outer loop
vertex 8.00000004971795 11.0556348692367 8.44436508138743
vertex 8.00000020367014 35.9999999506241 -8.84058029709908e-012
vertex 8.00000005369486 11.6999999506267 9.99999999999767
endloop
endfacet
facet normal 1.0 -6.17182242739019e-009 1.65330435149947e-021
outer loop
vertex 8.00000005369486 11.6999999506267 9.99999999999767
vertex 8.00000020367014 35.9999999506241 -8.84058029709908e-012
vertex 8.00000010183507 19.4999999506274 12.4999999999956
endloop
endfacet
facet normal 1.0 -6.17182242739019e-009 1.65330435149947e-021
outer loop
vertex 8.00000005369486 11.6999999506267 9.99999999999767
vertex 8.00000010183507 19.4999999506274 12.4999999999956
vertex 8.00000007097596 14.4999999506294 19.9999999999969
endloop
endfacet
facet normal 1.0 -6.17182242739019e-009 1.65330435149947e-021
outer loop
vertex 8.00000010183507 19.4999999506274 12.4999999999956
vertex 8.00000020367014 35.9999999506241 -8.84058029709908e-012
vertex 8.0000001539522 27.9443650320159 8.44436508138291
endloop
endfacet
facet normal 1.0 -6.17182242739019e-009 1.65330435149947e-021
outer loop
vertex 8.00000010183507 19.4999999506274 12.4999999999956
vertex 8.0000001539522 27.9443650320159 8.44436508138291
vertex 8.00000014997529 27.2999999506267 9.99999999999349
endloop
endfacet
facet normal 1.0 -6.17182242739019e-009 1.65330435149947e-021
outer loop
vertex 8.00000010183507 19.4999999506274 12.4999999999956
vertex 8.00000014997529 27.2999999506267 9.99999999999349
vertex 8.00000013269418 24.4999999506294 19.9999999999942
endloop
endfacet
facet normal 1.0 -6.17182242739019e-009 1.65330435149947e-021
outer loop
vertex 8.0000001539522 27.9443650320159 8.44436508138291
vertex 8.00000020367014 35.9999999506241 -8.84058029709908e-012
vertex 8.0000001635533 29.4999999506262 7.7999999999929
endloop
endfacet
facet normal 1.0 -6.17182242739019e-009 1.65330435149947e-021
outer loop
vertex 8.0000001635533 29.4999999506262 7.7999999999929
vertex 8.00000020367014 35.9999999506241 -8.84058029709908e-012
vertex 8.0000001731544 31.0556348692367 8.44436508138207
endloop
endfacet
facet normal 1.0 -6.17182242739019e-009 1.65330435149947e-021
outer loop
vertex 8.0000001731544 31.0556348692367 8.44436508138207
vertex 8.00000020367014 35.9999999506241 -8.84058029709908e-012
vertex 8.00000017713131 31.6999999506268 9.99999999999231
endloop
endfacet
facet normal 1.0 -6.17182242739019e-009 1.65330435149947e-021
outer loop
vertex 8.00000017713131 31.6999999506268 9.99999999999231
vertex 8.00000020367014 35.9999999506241 -8.84058029709908e-012
vertex 8.00000019441241 34.4999999506294 19.9999999999916
endloop
endfacet
facet normal 1.0 -6.17182242739019e-009 1.65330435149947e-021
outer loop
vertex 8.00000019441241 34.4999999506294 19.9999999999916
vertex 8.00000020367014 35.9999999506241 -8.84058029709908e-012
vertex 8.00000022218561 38.9999999506281 14.9999999999904
endloop
endfacet
facet normal 1.0 -6.17182242739019e-009 1.65330435149947e-021
outer loop
vertex 8.00000022218561 38.9999999506281 14.9999999999904
vertex 8.00000020367014 35.9999999506241 -8.84058029709908e-012
vertex 8.00000022218561 38.9999999506254 4.99999999999036
endloop
endfacet
facet normal 1.0 -6.17182242739019e-009 1.65330435149947e-021
outer loop
vertex 8.00000013269418 24.4999999506294 19.9999999999942
vertex 8.0000001539522 27.9443650320168 11.5556349186037
vertex 8.00000019441241 34.4999999506294 19.9999999999916
endloop
endfacet
facet normal 1.0 -6.17182242739019e-009 1.65330435149947e-021
outer loop
vertex 8.0000001539522 27.9443650320168 11.5556349186037
vertex 8.00000013269418 24.4999999506294 19.9999999999942
vertex 8.00000014997529 27.2999999506267 9.99999999999349
endloop
endfacet
facet normal 1.0 -6.17182242739019e-009 1.65330435149947e-021
outer loop
vertex 8.00000019441241 34.4999999506294 19.9999999999916
vertex 8.0000001539522 27.9443650320168 11.5556349186037
vertex 8.0000001635533 29.4999999506273 12.1999999999929
endloop
endfacet
facet normal 1.0 -6.17182242739019e-009 1.65330435149947e-021
outer loop
vertex 8.00000019441241 34.4999999506294 19.9999999999916
vertex 8.0000001635533 29.4999999506273 12.1999999999929
vertex 8.0000001731544 31.0556348692376 11.5556349186029
endloop
endfacet
facet normal 1.0 -6.17182242739019e-009 1.65330435149947e-021
outer loop
vertex 8.00000019441241 34.4999999506294 19.9999999999916
vertex 8.0000001731544 31.0556348692376 11.5556349186029
vertex 8.00000017713131 31.6999999506268 9.99999999999231
endloop
endfacet
facet normal 1.0 -6.17182242739019e-009 1.65330435149947e-021
outer loop
vertex 8.00000000925774 4.49999995062943 19.9999999999996
vertex 8.00000003051574 7.94436503201676 11.5556349186091
vertex 8.00000007097596 14.4999999506294 19.9999999999969
endloop
endfacet
facet normal 1.0 -6.17182242739019e-009 1.65330435149947e-021
outer loop
vertex 8.00000003051574 7.94436503201676 11.5556349186091
vertex 8.00000000925774 4.49999995062943 19.9999999999996
vertex 8.00000002653884 7.29999995062674 9.99999999999885
endloop
endfacet
facet normal 1.0 -6.17182242739019e-009 1.65330435149947e-021
outer loop
vertex 8.00000007097596 14.4999999506294 19.9999999999969
vertex 8.00000003051574 7.94436503201676 11.5556349186091
vertex 8.00000004011685 9.49999995062733 12.1999999999983
endloop
endfacet
facet normal 1.0 -6.17182242739019e-009 1.65330435149947e-021
outer loop
vertex 8.00000007097596 14.4999999506294 19.9999999999969
vertex 8.00000004011685 9.49999995062733 12.1999999999983
vertex 8.00000004971795 11.0556348692376 11.5556349186082
endloop
endfacet
facet normal 1.0 -6.17182242739019e-009 1.65330435149947e-021
outer loop
vertex 8.00000007097596 14.4999999506294 19.9999999999969
vertex 8.00000004971795 11.0556348692376 11.5556349186082
vertex 8.00000005369486 11.6999999506267 9.99999999999767
endloop
endfacet
facet normal 2.36185419046151e-009 0.382683432364841 -0.92387953251139
outer loop
vertex 1.63553297294379e-007 29.5000000000019 12.1999999999929
vertex 8.0000001539522 27.9443650320168 11.5556349186037
vertex 1.53952194814868e-007 27.9443650813913 11.5556349186037
endloop
endfacet
facet normal 2.36185419046151e-009 0.382683432364841 -0.92387953251139
outer loop
vertex 8.0000001539522 27.9443650320168 11.5556349186037
vertex 1.63553297294379e-007 29.5000000000019 12.1999999999929
vertex 8.0000001635533 29.4999999506273 12.1999999999929
endloop
endfacet
facet normal 5.70202041895993e-009 0.923879532511185 -0.382683432365336
outer loop
vertex 1.53952194814868e-007 27.9443650813913 11.5556349186037
vertex 8.00000014997529 27.2999999506267 9.99999999999349
vertex 1.49975287954121e-007 27.3000000000013 9.99999999999349
endloop
endfacet
facet normal 5.70202041895993e-009 0.923879532511185 -0.382683432365336
outer loop
vertex 8.00000014997529 27.2999999506267 9.99999999999349
vertex 1.53952194814868e-007 27.9443650813913 11.5556349186037
vertex 8.0000001539522 27.9443650320168 11.5556349186037
endloop
endfacet
facet normal -5.29229407024111e-009 -0.857492925712682 -0.514495755427296
outer loop
vertex 8.0 2.99999995062406 1.75362772115688e-016
vertex -1.85154643136312e-008 -1.12798659301916e-014 5.0000000000008
vertex 2.96853929511075e-015 2.99999999999864 1.75349545680466e-016
endloop
endfacet
facet normal -5.29229407024111e-009 -0.857492925712682 -0.514495755427296
outer loop
vertex -1.85154643136312e-008 -1.12798659301916e-014 5.0000000000008
vertex 8.0 2.99999995062406 1.75362772115688e-016
vertex 7.99999998148454 -4.93745901053444e-008 5.0000000000008
endloop
endfacet
facet normal 5.70202041895993e-009 0.92387953251139 0.382683432364841
outer loop
vertex 1.49975287954121e-007 27.3000000000013 9.99999999999349
vertex 8.0000001539522 27.9443650320159 8.44436508138291
vertex 1.53952194814868e-007 27.9443650813905 8.44436508138291
endloop
endfacet
facet normal 5.70202041895993e-009 0.92387953251139 0.382683432364841
outer loop
vertex 8.0000001539522 27.9443650320159 8.44436508138291
vertex 1.49975287954121e-007 27.3000000000013 9.99999999999349
vertex 8.00000014997529 27.2999999506267 9.99999999999349
endloop
endfacet
facet normal 3.61815305772998e-024 2.68465679959273e-013 1.0
outer loop
vertex 8.00000013269418 24.4999999506294 19.9999999999942
vertex 1.9441240943133e-007 34.500000000004 19.9999999999916
vertex 1.32694185157428e-007 24.500000000004 19.9999999999942
endloop
endfacet
facet normal 3.61815305772998e-024 2.68465679959273e-013 1.0
outer loop
vertex 1.9441240943133e-007 34.500000000004 19.9999999999916
vertex 8.00000013269418 24.4999999506294 19.9999999999942
vertex 8.00000019441241 34.4999999506294 19.9999999999916
endloop
endfacet
facet normal 4.5874794819561e-009 0.743294146247346 0.66896473162225
outer loop
vertex 1.9441240943133e-007 34.500000000004 19.9999999999916
vertex 8.00000022218561 38.9999999506281 14.9999999999904
vertex 2.22185610354586e-007 39.0000000000027 14.9999999999904
endloop
endfacet
facet normal 4.5874794819561e-009 0.743294146247346 0.66896473162225
outer loop
vertex 8.00000022218561 38.9999999506281 14.9999999999904
vertex 1.9441240943133e-007 34.500000000004 19.9999999999916
vertex 8.00000019441241 34.4999999506294 19.9999999999916
endloop
endfacet
facet normal 5.29229407024111e-009 0.857492925712406 -0.514495755427756
outer loop
vertex 2.22185610354586e-007 39.0 4.99999999999036
vertex 8.00000020367014 35.9999999506241 -8.84058029709908e-012
vertex 2.03670143072415e-007 35.9999999999986 -8.84058031032552e-012
endloop
endfacet
facet normal 5.29229407024111e-009 0.857492925712406 -0.514495755427756
outer loop
vertex 8.00000020367014 35.9999999506241 -8.84058029709908e-012
vertex 2.22185610354586e-007 39.0 4.99999999999036
vertex 8.00000022218561 38.9999999506254 4.99999999999036
endloop
endfacet
facet normal 6.17182242739019e-009 1.0 -2.67901686662764e-013
outer loop
vertex 2.22185610354586e-007 39.0000000000027 14.9999999999904
vertex 8.00000022218561 38.9999999506254 4.99999999999036
vertex 2.22185610354586e-007 39.0 4.99999999999036
endloop
endfacet
facet normal 6.17182242739019e-009 1.0 -2.67901686662764e-013
outer loop
vertex 8.00000022218561 38.9999999506254 4.99999999999036
vertex 2.22185610354586e-007 39.0000000000027 14.9999999999904
vertex 8.00000022218561 38.9999999506281 14.9999999999904
endloop
endfacet
facet normal 2.36185419046151e-009 0.382683432365336 0.923879532511185
outer loop
vertex 8.0000001539522 27.9443650320159 8.44436508138291
vertex 1.63553297294379e-007 29.5000000000007 7.7999999999929
vertex 1.53952194814868e-007 27.9443650813905 8.44436508138291
endloop
endfacet
facet normal 2.36185419046151e-009 0.382683432365336 0.923879532511185
outer loop
vertex 1.63553297294379e-007 29.5000000000007 7.7999999999929
vertex 8.0000001539522 27.9443650320159 8.44436508138291
vertex 8.0000001635533 29.4999999506262 7.7999999999929
endloop
endfacet
facet normal -2.36185419046151e-009 -0.382683432364841 0.92387953251139
outer loop
vertex 8.0000001635533 29.4999999506262 7.7999999999929
vertex 1.7315439977389e-007 31.0556349186113 8.44436508138207
vertex 1.63553297294379e-007 29.5000000000007 7.7999999999929
endloop
endfacet
facet normal -2.36185419046151e-009 -0.382683432364841 0.92387953251139
outer loop
vertex 1.7315439977389e-007 31.0556349186113 8.44436508138207
vertex 8.0000001635533 29.4999999506262 7.7999999999929
vertex 8.0000001731544 31.0556348692367 8.44436508138207
endloop
endfacet
facet normal -5.70202041895993e-009 -0.923879532511185 0.382683432365336
outer loop
vertex 8.00000017713131 31.6999999506268 9.99999999999231
vertex 1.7315439977389e-007 31.0556349186113 8.44436508138207
vertex 8.0000001731544 31.0556348692367 8.44436508138207
endloop
endfacet
facet normal -5.70202041895993e-009 -0.923879532511185 0.382683432365336
outer loop
vertex 1.7315439977389e-007 31.0556349186113 8.44436508138207
vertex 8.00000017713131 31.6999999506268 9.99999999999231
vertex 1.77131306634638e-007 31.7000000000013 9.99999999999231
endloop
endfacet
facet normal -5.70202041895993e-009 -0.92387953251139 -0.382683432364841
outer loop
vertex 8.0000001731544 31.0556348692376 11.5556349186029
vertex 1.77131306634638e-007 31.7000000000013 9.99999999999231
vertex 8.00000017713131 31.6999999506268 9.99999999999231
endloop
endfacet
facet normal -5.70202041895993e-009 -0.92387953251139 -0.382683432364841
outer loop
vertex 1.77131306634638e-007 31.7000000000013 9.99999999999231
vertex 8.0000001731544 31.0556348692376 11.5556349186029
vertex 1.7315439977389e-007 31.0556349186122 11.5556349186029
endloop
endfacet
facet normal -2.36185419046151e-009 -0.382683432365336 -0.923879532511185
outer loop
vertex 4.97179512260865e-008 11.0556349186121 11.5556349186082
vertex 8.00000004011685 9.49999995062733 12.1999999999983
vertex 4.01168487465755e-008 9.50000000000191 12.1999999999983
endloop
endfacet
facet normal -2.36185419046151e-009 -0.382683432365336 -0.923879532511185
outer loop
vertex 8.00000004011685 9.49999995062733 12.1999999999983
vertex 4.97179512260865e-008 11.0556349186121 11.5556349186082
vertex 8.00000004971795 11.0556348692376 11.5556349186082
endloop
endfacet
facet normal 5.70202041895993e-009 0.923879532511185 -0.382683432365336
outer loop
vertex 3.05157462670645e-008 7.94436508139133 11.5556349186091
vertex 8.00000002653884 7.29999995062674 9.99999999999885
vertex 2.65388394063171e-008 7.30000000000132 9.99999999999885
endloop
endfacet
facet normal 5.70202041895993e-009 0.923879532511185 -0.382683432365336
outer loop
vertex 8.00000002653884 7.29999995062674 9.99999999999885
vertex 3.05157462670645e-008 7.94436508139133 11.5556349186091
vertex 8.00000003051574 7.94436503201676 11.5556349186091
endloop
endfacet
facet normal -5.13526666731091e-009 -0.832050294337695 0.554700196225452
outer loop
vertex 8.00000013269418 24.4999999506294 19.9999999999942
vertex 1.01835073020477e-007 19.500000000002 12.4999999999956
vertex 8.00000010183507 19.4999999506274 12.4999999999956
endloop
endfacet
facet normal -5.13526666731091e-009 -0.832050294337695 0.554700196225452
outer loop
vertex 1.01835073020477e-007 19.500000000002 12.4999999999956
vertex 8.00000013269418 24.4999999506294 19.9999999999942
vertex 1.32694185157428e-007 24.500000000004 19.9999999999942
endloop
endfacet
facet normal 5.70202041895993e-009 0.92387953251139 0.382683432364841
outer loop
vertex 2.65388394063171e-008 7.30000000000132 9.99999999999885
vertex 8.00000003051574 7.94436503201592 8.44436508138827
vertex 3.05157462670645e-008 7.9443650813905 8.44436508138827
endloop
endfacet
facet normal 5.70202041895993e-009 0.92387953251139 0.382683432364841
outer loop
vertex 8.00000003051574 7.94436503201592 8.44436508138827
vertex 2.65388394063171e-008 7.30000000000132 9.99999999999885
vertex 8.00000002653884 7.29999995062674 9.99999999999885
endloop
endfacet
facet normal 2.36185419046151e-009 0.382683432364841 -0.92387953251139
outer loop
vertex 4.01168487465755e-008 9.50000000000191 12.1999999999983
vertex 8.00000003051574 7.94436503201676 11.5556349186091
vertex 3.05157462670645e-008 7.94436508139133 11.5556349186091
endloop
endfacet
facet normal 2.36185419046151e-009 0.382683432364841 -0.92387953251139
outer loop
vertex 8.00000003051574 7.94436503201676 11.5556349186091
vertex 4.01168487465755e-008 9.50000000000191 12.1999999999983
vertex 8.00000004011685 9.49999995062733 12.1999999999983
endloop
endfacet
facet normal -2.36185419046151e-009 -0.382683432364841 0.92387953251139
outer loop
vertex 8.00000004011685 9.49999995062615 7.79999999999826
vertex 4.97179512260865e-008 11.0556349186113 8.44436508138743
vertex 4.01168487465755e-008 9.50000000000073 7.79999999999826
endloop
endfacet
facet normal -2.36185419046151e-009 -0.382683432364841 0.92387953251139
outer loop
vertex 4.97179512260865e-008 11.0556349186113 8.44436508138743
vertex 8.00000004011685 9.49999995062615 7.79999999999826
vertex 8.00000004971795 11.0556348692367 8.44436508138743
endloop
endfacet
facet normal -5.70202041895993e-009 -0.92387953251139 -0.382683432364841
outer loop
vertex 8.00000004971795 11.0556348692376 11.5556349186082
vertex 5.3694858086834e-008 11.7000000000013 9.99999999999767
vertex 8.00000005369486 11.6999999506267 9.99999999999767
endloop
endfacet
facet normal -5.70202041895993e-009 -0.92387953251139 -0.382683432364841
outer loop
vertex 5.3694858086834e-008 11.7000000000013 9.99999999999767
vertex 8.00000004971795 11.0556348692376 11.5556349186082
vertex 4.97179512260865e-008 11.0556349186121 11.5556349186082
endloop
endfacet
facet normal -1.3728658143443e-025 -2.67901686662764e-013 -1.0
outer loop
vertex 2.03670143072415e-007 35.9999999999986 -8.84058031032552e-012
vertex 8.0 2.99999995062406 1.75362772115688e-016
vertex 2.96853929511075e-015 2.99999999999864 1.75349545680466e-016
endloop
endfacet
facet normal -1.3728658143443e-025 -2.67901686662764e-013 -1.0
outer loop
vertex 8.0 2.99999995062406 1.75362772115688e-016
vertex 2.03670143072415e-007 35.9999999999986 -8.84058031032552e-012
vertex 8.00000020367014 35.9999999506241 -8.84058029709908e-012
endloop
endfacet
facet normal 2.36185419046151e-009 0.382683432365336 0.923879532511185
outer loop
vertex 8.00000003051574 7.94436503201592 8.44436508138827
vertex 4.01168487465755e-008 9.50000000000073 7.79999999999826
vertex 3.05157462670645e-008 7.9443650813905 8.44436508138827
endloop
endfacet
facet normal 2.36185419046151e-009 0.382683432365336 0.923879532511185
outer loop
vertex 4.01168487465755e-008 9.50000000000073 7.79999999999826
vertex 8.00000003051574 7.94436503201592 8.44436508138827
vertex 8.00000004011685 9.49999995062615 7.79999999999826
endloop
endfacet
facet normal -5.70202041895993e-009 -0.923879532511185 0.382683432365336
outer loop
vertex 8.00000005369486 11.6999999506267 9.99999999999767
vertex 4.97179512260865e-008 11.0556349186113 8.44436508138743
vertex 8.00000004971795 11.0556348692367 8.44436508138743
endloop
endfacet
facet normal -5.70202041895993e-009 -0.923879532511185 0.382683432365336
outer loop
vertex 4.97179512260865e-008 11.0556349186113 8.44436508138743
vertex 8.00000005369486 11.6999999506267 9.99999999999767
vertex 5.3694858086834e-008 11.7000000000013 9.99999999999767
endloop
endfacet
facet normal -1.0 6.17182242739019e-009 -1.65330435149947e-021
outer loop
vertex 9.25773660962462e-009 4.50000000000401 19.9999999999996
vertex 3.05157462670645e-008 7.94436508139133 11.5556349186091
vertex 2.65388394063171e-008 7.30000000000132 9.99999999999885
endloop
endfacet
facet normal -1.0 6.17182242739019e-009 -1.65330435149947e-021
outer loop
vertex 3.05157462670645e-008 7.94436508139133 11.5556349186091
vertex 9.25773660962462e-009 4.50000000000401 19.9999999999996
vertex 7.09759608835265e-008 14.500000000004 19.9999999999969
endloop
endfacet
facet normal -1.0 6.17182242739019e-009 -1.65330435149947e-021
outer loop
vertex 3.05157462670645e-008 7.94436508139133 11.5556349186091
vertex 7.09759608835265e-008 14.500000000004 19.9999999999969
vertex 4.01168487465755e-008 9.50000000000191 12.1999999999983
endloop
endfacet
facet normal -1.0 6.17182242739019e-009 -1.65330435149947e-021
outer loop
vertex 4.01168487465755e-008 9.50000000000191 12.1999999999983
vertex 7.09759608835265e-008 14.500000000004 19.9999999999969
vertex 4.97179512260865e-008 11.0556349186121 11.5556349186082
endloop
endfacet
facet normal -1.0 6.17182242739019e-009 -1.65330435149947e-021
outer loop
vertex 4.97179512260865e-008 11.0556349186121 11.5556349186082
vertex 7.09759608835265e-008 14.500000000004 19.9999999999969
vertex 5.3694858086834e-008 11.7000000000013 9.99999999999767
endloop
endfacet
facet normal -1.0 6.17182242739019e-009 -1.65330435149947e-021
outer loop
vertex 1.32694185157428e-007 24.500000000004 19.9999999999942
vertex 1.53952194814868e-007 27.9443650813913 11.5556349186037
vertex 1.49975287954121e-007 27.3000000000013 9.99999999999349
endloop
endfacet
facet normal -1.0 6.17182242739019e-009 -1.65330435149947e-021
outer loop
vertex 1.53952194814868e-007 27.9443650813913 11.5556349186037
vertex 1.32694185157428e-007 24.500000000004 19.9999999999942
vertex 1.9441240943133e-007 34.500000000004 19.9999999999916
endloop
endfacet
facet normal -1.0 6.17182242739019e-009 -1.65330435149947e-021
outer loop
vertex 1.53952194814868e-007 27.9443650813913 11.5556349186037
vertex 1.9441240943133e-007 34.500000000004 19.9999999999916
vertex 1.63553297294379e-007 29.5000000000019 12.1999999999929
endloop
endfacet
facet normal -1.0 6.17182242739019e-009 -1.65330435149947e-021
outer loop
vertex 1.63553297294379e-007 29.5000000000019 12.1999999999929
vertex 1.9441240943133e-007 34.500000000004 19.9999999999916
vertex 1.7315439977389e-007 31.0556349186122 11.5556349186029
endloop
endfacet
facet normal -1.0 6.17182242739019e-009 -1.65330435149947e-021
outer loop
vertex 1.7315439977389e-007 31.0556349186122 11.5556349186029
vertex 1.9441240943133e-007 34.500000000004 19.9999999999916
vertex 1.77131306634638e-007 31.7000000000013 9.99999999999231
endloop
endfacet
facet normal -1.0 6.17182242739019e-009 -1.65330435149947e-021
outer loop
vertex -1.85154643136312e-008 2.66768829249031e-012 15.0000000000008
vertex 2.96853929511075e-015 2.99999999999864 1.75349545680466e-016
vertex -1.85154643136312e-008 -1.12798659301916e-014 5.0000000000008
endloop
endfacet
facet normal -1.0 6.17182242739019e-009 -1.65330435149947e-021
outer loop
vertex 2.96853929511075e-015 2.99999999999864 1.75349545680466e-016
vertex -1.85154643136312e-008 2.66768829249031e-012 15.0000000000008
vertex 9.25773660962462e-009 4.50000000000401 19.9999999999996
endloop
endfacet
facet normal -1.0 6.17182242739019e-009 -1.65330435149947e-021
outer loop
vertex 2.96853929511075e-015 2.99999999999864 1.75349545680466e-016
vertex 9.25773660962462e-009 4.50000000000401 19.9999999999996
vertex 2.65388394063171e-008 7.30000000000132 9.99999999999885
endloop
endfacet
facet normal -1.0 6.17182242739019e-009 -1.65330435149947e-021
outer loop
vertex 2.96853929511075e-015 2.99999999999864 1.75349545680466e-016
vertex 2.65388394063171e-008 7.30000000000132 9.99999999999885
vertex 3.05157462670645e-008 7.9443650813905 8.44436508138827
endloop
endfacet
facet normal -1.0 6.17182242739019e-009 -1.65330435149947e-021
outer loop
vertex 2.96853929511075e-015 2.99999999999864 1.75349545680466e-016
vertex 3.05157462670645e-008 7.9443650813905 8.44436508138827
vertex 4.01168487465755e-008 9.50000000000073 7.79999999999826
endloop
endfacet
facet normal -1.0 6.17182242739019e-009 -1.65330435149947e-021
outer loop
vertex 2.96853929511075e-015 2.99999999999864 1.75349545680466e-016
vertex 4.01168487465755e-008 9.50000000000073 7.79999999999826
vertex 2.03670143072415e-007 35.9999999999986 -8.84058031032552e-012
endloop
endfacet
facet normal -1.0 6.17182242739019e-009 -1.65330435149947e-021
outer loop
vertex 2.03670143072415e-007 35.9999999999986 -8.84058031032552e-012
vertex 4.01168487465755e-008 9.50000000000073 7.79999999999826
vertex 4.97179512260865e-008 11.0556349186113 8.44436508138743
endloop
endfacet
facet normal -1.0 6.17182242739019e-009 -1.65330435149947e-021
outer loop
vertex 2.03670143072415e-007 35.9999999999986 -8.84058031032552e-012
vertex 4.97179512260865e-008 11.0556349186113 8.44436508138743
vertex 5.3694858086834e-008 11.7000000000013 9.99999999999767
endloop
endfacet
facet normal -1.0 6.17182242739019e-009 -1.65330435149947e-021
outer loop
vertex 2.03670143072415e-007 35.9999999999986 -8.84058031032552e-012
vertex 5.3694858086834e-008 11.7000000000013 9.99999999999767
vertex 1.01835073020477e-007 19.500000000002 12.4999999999956
endloop
endfacet
facet normal -1.0 6.17182242739019e-009 -1.65330435149947e-021
outer loop
vertex 1.01835073020477e-007 19.500000000002 12.4999999999956
vertex 5.3694858086834e-008 11.7000000000013 9.99999999999767
vertex 7.09759608835265e-008 14.500000000004 19.9999999999969
endloop
endfacet
facet normal -1.0 6.17182242739019e-009 -1.65330435149947e-021
outer loop
vertex 2.03670143072415e-007 35.9999999999986 -8.84058031032552e-012
vertex 1.01835073020477e-007 19.500000000002 12.4999999999956
vertex 1.53952194814868e-007 27.9443650813905 8.44436508138291
endloop
endfacet
facet normal -1.0 6.17182242739019e-009 -1.65330435149947e-021
outer loop
vertex 1.53952194814868e-007 27.9443650813905 8.44436508138291
vertex 1.01835073020477e-007 19.500000000002 12.4999999999956
vertex 1.49975287954121e-007 27.3000000000013 9.99999999999349
endloop
endfacet
facet normal -1.0 6.17182242739019e-009 -1.65330435149947e-021
outer loop
vertex 1.49975287954121e-007 27.3000000000013 9.99999999999349
vertex 1.01835073020477e-007 19.500000000002 12.4999999999956
vertex 1.32694185157428e-007 24.500000000004 19.9999999999942
endloop
endfacet
facet normal -1.0 6.17182242739019e-009 -1.65330435149947e-021
outer loop
vertex 2.03670143072415e-007 35.9999999999986 -8.84058031032552e-012
vertex 1.53952194814868e-007 27.9443650813905 8.44436508138291
vertex 1.63553297294379e-007 29.5000000000007 7.7999999999929
endloop
endfacet
facet normal -1.0 6.17182242739019e-009 -1.65330435149947e-021
outer loop
vertex 2.03670143072415e-007 35.9999999999986 -8.84058031032552e-012
vertex 1.63553297294379e-007 29.5000000000007 7.7999999999929
vertex 1.7315439977389e-007 31.0556349186113 8.44436508138207
endloop
endfacet
facet normal -1.0 6.17182242739019e-009 -1.65330435149947e-021
outer loop
vertex 2.03670143072415e-007 35.9999999999986 -8.84058031032552e-012
vertex 1.7315439977389e-007 31.0556349186113 8.44436508138207
vertex 1.77131306634638e-007 31.7000000000013 9.99999999999231
endloop
endfacet
facet normal -1.0 6.17182242739019e-009 -1.65330435149947e-021
outer loop
vertex 2.03670143072415e-007 35.9999999999986 -8.84058031032552e-012
vertex 1.77131306634638e-007 31.7000000000013 9.99999999999231
vertex 1.9441240943133e-007 34.500000000004 19.9999999999916
endloop
endfacet
facet normal -1.0 6.17182242739019e-009 -1.65330435149947e-021
outer loop
vertex 2.03670143072415e-007 35.9999999999986 -8.84058031032552e-012
vertex 1.9441240943133e-007 34.500000000004 19.9999999999916
vertex 2.22185610354586e-007 39.0000000000027 14.9999999999904
endloop
endfacet
facet normal -1.0 6.17182242739019e-009 -1.65330435149947e-021
outer loop
vertex 2.03670143072415e-007 35.9999999999986 -8.84058031032552e-012
vertex 2.22185610354586e-007 39.0000000000027 14.9999999999904
vertex 2.22185610354586e-007 39.0 4.99999999999036
endloop
endfacet
facet normal -4.5874794819561e-009 -0.743294146246987 0.668964731622649
outer loop
vertex 8.00000000925774 4.49999995062943 19.9999999999996
vertex -1.85154643136312e-008 2.66768829249031e-012 15.0000000000008
vertex 7.99999998148454 -4.9371911137186e-008 15.0000000000008
endloop
endfacet
facet normal -4.5874794819561e-009 -0.743294146246987 0.668964731622649
outer loop
vertex -1.85154643136312e-008 2.66768829249031e-012 15.0000000000008
vertex 8.00000000925774 4.49999995062943 19.9999999999996
vertex 9.25773660962462e-009 4.50000000000401 19.9999999999996
endloop
endfacet
facet normal 1.3728658143443e-025 2.67901686662764e-013 1.0
outer loop
vertex 8.00000000925774 4.49999995062943 19.9999999999996
vertex 7.09759608835265e-008 14.500000000004 19.9999999999969
vertex 9.25773660962462e-009 4.50000000000401 19.9999999999996
endloop
endfacet
facet normal 1.3728658143443e-025 2.67901686662764e-013 1.0
outer loop
vertex 7.09759608835265e-008 14.500000000004 19.9999999999969
vertex 8.00000000925774 4.49999995062943 19.9999999999996
vertex 8.00000007097596 14.4999999506294 19.9999999999969
endloop
endfacet
facet normal -2.36185419046151e-009 -0.382683432365336 -0.923879532511185
outer loop
vertex 1.7315439977389e-007 31.0556349186122 11.5556349186029
vertex 8.0000001635533 29.4999999506273 12.1999999999929
vertex 1.63553297294379e-007 29.5000000000019 12.1999999999929
endloop
endfacet
facet normal -2.36185419046151e-009 -0.382683432365336 -0.923879532511185
outer loop
vertex 8.0000001635533 29.4999999506273 12.1999999999929
vertex 1.7315439977389e-007 31.0556349186122 11.5556349186029
vertex 8.0000001731544 31.0556348692376 11.5556349186029
endloop
endfacet
facet normal -6.17182242739019e-009 -1.0 2.67901686662764e-013
outer loop
vertex 7.99999998148454 -4.9371911137186e-008 15.0000000000008
vertex -1.85154643136312e-008 -1.12798659301916e-014 5.0000000000008
vertex 7.99999998148454 -4.93745901053444e-008 5.0000000000008
endloop
endfacet
facet normal -6.17182242739019e-009 -1.0 2.67901686662764e-013
outer loop
vertex -1.85154643136312e-008 -1.12798659301916e-014 5.0000000000008
vertex 7.99999998148454 -4.9371911137186e-008 15.0000000000008
vertex -1.85154643136312e-008 2.66768829249031e-012 15.0000000000008
endloop
endfacet
facet normal 5.13526666731091e-009 0.832050294337992 0.554700196225006
outer loop
vertex 7.09759608835265e-008 14.500000000004 19.9999999999969
vertex 8.00000010183507 19.4999999506274 12.4999999999956
vertex 1.01835073020477e-007 19.500000000002 12.4999999999956
endloop
endfacet
facet normal 5.13526666731091e-009 0.832050294337992 0.554700196225006
outer loop
vertex 8.00000010183507 19.4999999506274 12.4999999999956
vertex 7.09759608835265e-008 14.500000000004 19.9999999999969
vertex 8.00000007097596 14.4999999506294 19.9999999999969
endloop
endfacet
endsolid B Spacer
